<svg xmlns="http://www.w3.org/2000/svg" viewBox="0 0 800 500"><defs><style>.cls-1{fill:#02bee1;}.cls-2{fill:#fff;}</style></defs><g id="Layer_2" data-name="Layer 2"><g id="Layer_1-2" data-name="Layer 1"><rect class="cls-1" width="800" height="500"/><path class="cls-2" d="M112,239.43c11.66,1.71,17.87-9.5,21.71-26,10.88-46.61,36.75-64.38,56.88-65.54A136.41,136.41,0,0,0,157.08,188c-6.74,11.41-7.52,20.06-6.69,23.67a7.27,7.27,0,0,0,13.81-.6c4-9.5,12-26.15,30.41-36.63s56.94-14.76,83.44-2.73c24.44,11,37.45,24.42,53,45.63,3.46,5.46,16.25,9.5,12.91-4.16s-16.37-34.55-21.18-39.49c18.37-7.52,35.8-29.86,43-41.84-9.33-3-24.72,1-27.58,2.33A166.74,166.74,0,0,0,318.08,121a56.74,56.74,0,0,0-5.71-21.48c-14.14,10.15-33.72,36.78-18.85,65-10.63-6.74-20.44-25.25-12.31-50.59-51.92-15.57-102.64,4.36-127.86,23.21-19.56,14.67-37.61,34.1-51.82,72.33C97.47,225.37,100.35,237.73,112,239.43Z"/><path class="cls-2" d="M339.6,172.05a120.88,120.88,0,0,1,21.78,29.83c6.24,11.58,19,9.5,15.32-1-6.39-18.25-23.27-39.43-23.27-39.43A114.89,114.89,0,0,1,339.6,172.05Z"/><path class="cls-2" d="M179,206.54c-1.81,5.82,7.27,10.61,11.43,5s6.31-23.09,32.94-37.18C206.77,173.8,184.21,189.77,179,206.54Z"/><path class="cls-2" d="M697.47,275.51c-5-2.51-11.56,4.71-12.76,7.52s-8.85,24.62-17.35,35.1S650,334.85,638.73,337.46,623.24,331,624.84,326s1-18.1-6.14-22.84c-1.6,3.69-8,18.7-17.82,26.45-9.28,7.3-26.68,15.85-46.46,11.33s-24.27-21.88-21.23-31.79c26.2,6.15,41.31-4.76,43-14.46s-4.84-19.33-12.53-14-14.32,8.6-25.8,7.29a86,86,0,0,0-9.58-8c-7.14-5.34-15-4.26-22.56.7a181.63,181.63,0,0,1-17.55-8.62c-7.32-4.09-11,1.58-13.26,6.32-5.64,11.63,3.73,25.34,11.48,29.18s10.81,7.92,8.8,13c-4.51,11.31-2.51,28.38,2.08,38.56-20.76-5.89-42.09-25.07-50.14-34.07s-11.83-16.17-15.19-15c-4.51,1.35-5.17,11-1.25,18.7s19.17,29.21,39.88,43.77c49.59,34.87,113,37.61,163.48,5.77a147.1,147.1,0,0,0,63.68-86.09C699.4,286.44,702.49,277.89,697.47,275.51Z"/><path class="cls-2" d="M450.81,280.37c-2-5-8.75-.67-7.73,8.28.86,7.52,7.83,33,41.22,56.15a53.72,53.72,0,0,1,1.78-19.05C471,316.05,457.7,298.05,450.81,280.37Z"/><path class="cls-2" d="M654.15,288.8c-2.78,8.92-10,27.57-20.76,38.68,9.48,5.19,25.9-16,30.49-27.28,3.36-8.14,6.27-19.38,3.38-21.16S656.93,280,654.15,288.8Z"/><path class="cls-2" d="M533.76,275.51c6,1.83,10,10.7,18.43,4.59,3.16-2.26,5.92-5,11.38-6a9.06,9.06,0,0,0-7.52-10.31c-.42,0-.85,0-1.28,0C547,263,541,273.65,533.76,275.51Z"/><path class="cls-2" d="M560.56,151c32.6-2,60.82,7.52,84.44,29.93,19,18.11,21.11,37.61,33,59.05,2.5,4.61,9.22,7.52,13.54,5.84,9-3.34,8.52-14,6.51-20.89-12.53-43.27-29.78-66.86-68.36-85.61-50.79-24.7-100.46-17.55-147.54,11.2-26.88,16.48-47,40.27-65.84,65.19C392.87,246.4,372.69,279.5,347,308.73c-28.15,32.21-61.3,54.58-105.67,57.08-32.44,1.86-60.42-7.52-83.88-29.93C137,316.4,133.57,289.35,124.67,265c-3-8.32-12.39-13.41-18.3-7.52-5,5-7.52,15-4.57,28.3,8.28,40.77,31.59,71.88,69.47,90.91,51.17,25.7,101.39,18.78,149.1-10.46,26.87-16.47,46.95-40.28,65.83-65.18,23.39-30.81,43.7-63.9,69.24-93.11C483.47,176,516.42,153.62,560.56,151Z"/></g></g></svg>