<svg width="1063" height="520" viewBox="0 0 1063 520" fill="none" xmlns="http://www.w3.org/2000/svg">
<g clip-path="url(#clip0_1_11)">
<rect width="1063" height="520" fill="white"/>
<rect width="1063" height="520" fill="#F94973"/>
<g clip-path="url(#clip1_1_11)">
<path d="M532.209 18L364 124.227L393.435 171.057L413.84 158.175V308H647.981V157.965L668.221 170.952L697.985 124.332L532.209 18Z" fill="#F94973"/>
<path d="M558.741 91.5855C547.919 94.1439 539.456 103.136 535.366 116.437C533.455 122.646 532.62 130.351 533.246 135.961C534.47 147.048 539.695 155.741 547.442 159.646C551.83 161.86 556.174 162.234 560.264 160.783C563.13 159.765 566.996 157.491 569.518 155.337C576.22 149.636 580.997 140.854 582.788 130.949C583.4 127.553 583.549 125.832 583.535 122.047C583.535 114.806 582.52 109.524 580.266 104.841C576.832 97.7197 571.399 93.0517 564.936 91.6603C563.16 91.2862 560.204 91.2563 558.741 91.5855Z" fill="white"/>
<path d="M489.735 92.2737C483.749 93.321 478.107 98.0488 474.749 104.826C472.913 108.522 472.047 112.068 471.659 117.499C471.48 119.878 471.569 123.693 471.838 126.087C473.375 139.672 479.704 151.118 489.243 157.521C491.153 158.808 494.318 160.379 496.467 161.097C497.99 161.606 498.378 161.665 500.064 161.74C502.303 161.83 503.901 161.621 505.856 160.992C508.886 160.02 511.364 158.494 513.692 156.16C518.305 151.536 521.171 144.564 521.842 136.365C522.111 132.984 521.813 127.957 521.081 124.022C518.156 108.058 509.005 96.2385 496.885 92.7375C494.467 92.0493 491.989 91.8847 489.735 92.2737Z" fill="white"/>
<path d="M602.924 146.868C592.938 148.514 584.251 155.411 578.833 166.019C576.34 170.912 575.086 174.891 574.116 181.086C573.772 183.3 573.713 184.138 573.713 186.681C573.713 189.793 573.892 191.334 574.534 193.848C576.25 200.595 580.295 206.086 585.326 208.525C588.072 209.857 590.58 210.35 593.401 210.096C600.252 209.498 606.357 206.401 611.791 200.775C617.776 194.566 621.896 185.978 623.24 176.956C623.583 174.712 623.822 170.283 623.717 168.473C623.165 159.167 618.179 150.983 611.239 147.991C608.552 146.839 605.596 146.435 602.924 146.868Z" fill="white"/>
<path d="M448.403 150.788C441.91 151.881 436.447 156.429 434.432 162.443C433.715 164.568 433.118 167.605 432.864 170.373C431.939 180.412 435.462 191.753 442.089 200.072C447.045 206.281 453.433 210.575 460.583 212.505C466.599 214.121 472.002 212.595 476.585 208.001C480.675 203.902 482.72 197.917 482.72 190.033C482.72 186.965 482.57 185.29 482.033 182.447C480.212 172.692 474.689 163.356 467.121 157.237C463.643 154.424 458.956 151.836 456.001 151.103C453.672 150.519 450.732 150.399 448.403 150.788Z" fill="white"/>
<path d="M525.858 187.28C520.663 187.863 515.528 189.255 510.468 191.484C502.736 194.91 495.273 200.61 490.452 206.804C480.048 220.18 472.823 234.663 469.883 248.024C469.703 248.846 469.39 250.088 469.196 250.791C468.196 254.427 468.36 258.557 469.659 262.162C471.748 267.967 476.271 272.471 481.869 274.356C485.212 275.478 490.213 275.463 495.78 274.296C499.408 273.548 502.124 272.68 509.826 269.823C520.544 265.828 523.514 265.065 530.724 264.392C533.948 264.092 534.53 264.077 536.754 264.242C542.441 264.646 546.934 265.888 555.562 269.419C563.204 272.546 567.473 274.236 568.548 274.535C579.295 277.588 589.968 273.832 593.625 265.708C595.222 262.132 595.401 256.312 594.058 250.791C592.744 245.42 588.848 236.698 585.117 230.818C574.593 214.21 567.085 204.979 558.398 197.947C550.233 191.349 543.382 188.222 534.948 187.28C532.575 187.01 528.276 187.01 525.858 187.28Z" fill="white"/>
</g>
<path d="M331.67 424V416.33L378.716 346.102H331.159V336.727H391.33V344.398L344.284 414.625H391.841V424H331.67ZM434.795 425.364C428.886 425.364 423.702 423.957 419.241 421.145C414.81 418.332 411.344 414.398 408.844 409.341C406.372 404.284 405.136 398.375 405.136 391.614C405.136 384.795 406.372 378.844 408.844 373.759C411.344 368.673 414.81 364.724 419.241 361.912C423.702 359.099 428.886 357.693 434.795 357.693C440.705 357.693 445.875 359.099 450.307 361.912C454.767 364.724 458.233 368.673 460.705 373.759C463.205 378.844 464.455 384.795 464.455 391.614C464.455 398.375 463.205 404.284 460.705 409.341C458.233 414.398 454.767 418.332 450.307 421.145C445.875 423.957 440.705 425.364 434.795 425.364ZM434.795 416.33C439.284 416.33 442.977 415.179 445.875 412.878C448.773 410.577 450.918 407.551 452.31 403.801C453.702 400.051 454.398 395.989 454.398 391.614C454.398 387.239 453.702 383.162 452.31 379.384C450.918 375.605 448.773 372.551 445.875 370.222C442.977 367.892 439.284 366.727 434.795 366.727C430.307 366.727 426.614 367.892 423.716 370.222C420.818 372.551 418.673 375.605 417.281 379.384C415.889 383.162 415.193 387.239 415.193 391.614C415.193 395.989 415.889 400.051 417.281 403.801C418.673 407.551 420.818 410.577 423.716 412.878C426.614 415.179 430.307 416.33 434.795 416.33ZM506.397 425.364C500.488 425.364 495.303 423.957 490.843 421.145C486.411 418.332 482.945 414.398 480.445 409.341C477.974 404.284 476.738 398.375 476.738 391.614C476.738 384.795 477.974 378.844 480.445 373.759C482.945 368.673 486.411 364.724 490.843 361.912C495.303 359.099 500.488 357.693 506.397 357.693C512.306 357.693 517.477 359.099 521.908 361.912C526.369 364.724 529.835 368.673 532.306 373.759C534.806 378.844 536.056 384.795 536.056 391.614C536.056 398.375 534.806 404.284 532.306 409.341C529.835 414.398 526.369 418.332 521.908 421.145C517.477 423.957 512.306 425.364 506.397 425.364ZM506.397 416.33C510.886 416.33 514.579 415.179 517.477 412.878C520.374 410.577 522.519 407.551 523.911 403.801C525.303 400.051 525.999 395.989 525.999 391.614C525.999 387.239 525.303 383.162 523.911 379.384C522.519 375.605 520.374 372.551 517.477 370.222C514.579 367.892 510.886 366.727 506.397 366.727C501.908 366.727 498.215 367.892 495.317 370.222C492.42 372.551 490.275 375.605 488.883 379.384C487.491 383.162 486.795 387.239 486.795 391.614C486.795 395.989 487.491 400.051 488.883 403.801C490.275 407.551 492.42 410.577 495.317 412.878C498.215 415.179 501.908 416.33 506.397 416.33ZM576.124 425.364C570.669 425.364 565.854 423.986 561.678 421.23C557.501 418.446 554.234 414.526 551.876 409.469C549.518 404.384 548.339 398.375 548.339 391.443C548.339 384.568 549.518 378.602 551.876 373.545C554.234 368.489 557.516 364.582 561.72 361.827C565.925 359.071 570.783 357.693 576.294 357.693C580.555 357.693 583.922 358.403 586.393 359.824C588.893 361.216 590.797 362.807 592.104 364.597C593.439 366.358 594.476 367.807 595.214 368.943H596.067V336.727H606.124V424H596.408V413.943H595.214C594.476 415.136 593.425 416.642 592.061 418.46C590.697 420.25 588.751 421.855 586.223 423.276C583.695 424.668 580.328 425.364 576.124 425.364ZM577.487 416.33C581.521 416.33 584.93 415.278 587.714 413.176C590.499 411.045 592.615 408.105 594.064 404.355C595.513 400.577 596.237 396.216 596.237 391.273C596.237 386.386 595.527 382.111 594.107 378.446C592.686 374.753 590.584 371.884 587.8 369.838C585.016 367.764 581.578 366.727 577.487 366.727C573.226 366.727 569.675 367.821 566.834 370.009C564.021 372.168 561.905 375.108 560.484 378.83C559.092 382.523 558.396 386.67 558.396 391.273C558.396 395.932 559.107 400.165 560.527 403.972C561.976 407.75 564.107 410.761 566.919 413.006C569.76 415.222 573.283 416.33 577.487 416.33ZM652.53 425.364C646.621 425.364 641.436 423.957 636.976 421.145C632.544 418.332 629.078 414.398 626.578 409.341C624.107 404.284 622.871 398.375 622.871 391.614C622.871 384.795 624.107 378.844 626.578 373.759C629.078 368.673 632.544 364.724 636.976 361.912C641.436 359.099 646.621 357.693 652.53 357.693C658.439 357.693 663.609 359.099 668.041 361.912C672.501 364.724 675.967 368.673 678.439 373.759C680.939 378.844 682.189 384.795 682.189 391.614C682.189 398.375 680.939 404.284 678.439 409.341C675.967 414.398 672.501 418.332 668.041 421.145C663.609 423.957 658.439 425.364 652.53 425.364ZM652.53 416.33C657.018 416.33 660.712 415.179 663.609 412.878C666.507 410.577 668.652 407.551 670.044 403.801C671.436 400.051 672.132 395.989 672.132 391.614C672.132 387.239 671.436 383.162 670.044 379.384C668.652 375.605 666.507 372.551 663.609 370.222C660.712 367.892 657.018 366.727 652.53 366.727C648.041 366.727 644.348 367.892 641.45 370.222C638.553 372.551 636.408 375.605 635.016 379.384C633.624 383.162 632.928 387.239 632.928 391.614C632.928 395.989 633.624 400.051 635.016 403.801C636.408 407.551 638.553 410.577 641.45 412.878C644.348 415.179 648.041 416.33 652.53 416.33ZM697.54 424V358.545H707.256V368.773H708.109C709.472 365.278 711.674 362.565 714.714 360.634C717.754 358.673 721.404 357.693 725.665 357.693C729.984 357.693 733.577 358.673 736.447 360.634C739.344 362.565 741.603 365.278 743.222 368.773H743.904C745.58 365.392 748.094 362.707 751.447 360.719C754.799 358.702 758.819 357.693 763.506 357.693C769.359 357.693 774.146 359.526 777.867 363.19C781.589 366.827 783.45 372.494 783.45 380.193V424H773.393V380.193C773.393 375.364 772.072 371.912 769.43 369.838C766.788 367.764 763.677 366.727 760.097 366.727C755.495 366.727 751.93 368.119 749.401 370.903C746.873 373.659 745.609 377.153 745.609 381.386V424H735.381V379.17C735.381 375.449 734.174 372.452 731.759 370.179C729.344 367.878 726.234 366.727 722.427 366.727C719.813 366.727 717.37 367.423 715.097 368.815C712.853 370.207 711.035 372.139 709.643 374.611C708.279 377.054 707.597 379.881 707.597 383.091V424H697.54Z" fill="white"/>
</g>
<defs>
<clipPath id="clip0_1_11">
<rect width="1063" height="520" fill="white"/>
</clipPath>
<clipPath id="clip1_1_11">
<rect width="334" height="290" fill="white" transform="translate(364 18)"/>
</clipPath>
</defs>
</svg>
