<svg width="39" height="60" viewBox="0 0 39 60" fill="none" xmlns="http://www.w3.org/2000/svg">
<path d="M4.46736 59.5815C2.46736 59.5815 0.867359 58.4815 0.267359 56.7815C-0.332641 55.0815 0.067359 53.1815 1.56736 51.9815C6.66736 47.5815 11.7674 43.2815 16.8674 38.8815C20.2674 35.9815 23.5674 33.0815 26.9674 30.2815C27.5674 29.7815 27.3674 29.5815 26.8674 29.1815C18.5674 22.1815 10.3674 15.0815 2.06736 7.98151C0.667359 6.78152 -0.232641 5.28152 0.267359 3.28151C1.06736 0.181515 4.66736 -1.01849 7.26736 0.981515C9.46736 2.68151 11.5674 4.58152 13.6674 6.38152C21.2674 12.8815 28.8674 19.3815 36.4674 25.8815C39.2674 28.2815 39.3674 31.0815 36.5674 33.3815C26.8674 41.6815 17.1674 49.9815 7.46736 58.2815C6.56736 59.1815 5.56736 59.6815 4.46736 59.5815Z" fill="white"/>
</svg>
