<svg width="39" height="60" viewBox="0 0 39 60" fill="none" xmlns="http://www.w3.org/2000/svg">
<path d="M34.1507 0.0126042C36.1507 0.012604 37.7507 1.1126 38.3507 2.8126C38.9507 4.5126 38.5507 6.4126 37.0507 7.6126C31.9507 12.0126 26.8507 16.3126 21.7507 20.7126C18.3507 23.6126 15.0507 26.5126 11.6507 29.3126C11.0507 29.8126 11.2507 30.0126 11.7507 30.4126C20.0507 37.4126 28.2507 44.5126 36.5507 51.6126C37.9507 52.8126 38.8507 54.3126 38.3507 56.3126C37.5507 59.4126 33.9507 60.6126 31.3507 58.6126C29.1507 56.9126 27.0507 55.0126 24.9507 53.2126C17.3507 46.7126 9.75068 40.2126 2.15068 33.7126C-0.649322 31.3126 -0.749321 28.5126 2.05068 26.2126C11.7507 17.9126 21.4507 9.6126 31.1507 1.3126C32.0507 0.412604 33.0507 -0.0873958 34.1507 0.0126042Z" fill="white"/>
</svg>
