<svg width="94" height="93" viewBox="0 0 94 93" fill="none" xmlns="http://www.w3.org/2000/svg">
<path d="M71.5 35.4C66.6 24.6 55.8 18.3 44.1 19.4C36.8 20.1 30.6 23.4 25.8 29.2C20.5 35.6 18.5 42.8 19.7 50.7C20.7 57.5 24 63.2 29.5 67.6C32.8 70.3 34.5 73.4 34.8 77C34.9 79.1 34.9 81.2 34.9 83.3C34.9 84.1 34.9 84.9 34.9 85.7C34.9 89.4 36.4 91.8 39.6 93H53.7C56.9 92 58.6 89.5 58.4 86C58.3 83.7 58.3 81.4 58.4 79.2V78.5C58.5 74.1 60.2 70.5 63.5 67.7C63.7 67.6 63.9 67.4 64 67.3C64.7 66.7 65.5 66 66.2 65.3C74 57.6 76.1 45.6 71.5 35.4ZM54.1 85.2C54.1 85.8 54.1 86.4 54.1 87C54.1 88.4 53.6 88.9 52.3 88.9C48.9 88.9 45.2 88.9 41.1 88.9C39.9 88.9 39.4 88.4 39.3 87.2C39.2 86.1 39.2 85 39.2 83.8C39.2 83.2 39.2 82.7 39.2 82.1C39.2 81.9 39.2 81.8 39.3 81.7C39.4 81.6 39.6 81.6 39.9 81.6C41.6 81.6 43.2 81.6 44.9 81.6H46.7C47.3 81.6 48 81.6 48.6 81.6C50.1 81.6 51.7 81.6 53.2 81.6C53.6 81.6 53.8 81.6 54 81.8C54.1 81.9 54.2 82.1 54.2 82.5C54.1 83.3 54.1 84.3 54.1 85.2ZM53.4 77.2H46.6C46 77.2 45.3 77.2 44.6 77.2C43 77.2 41.4 77.2 39.8 77.2C39.2 77.2 39 77 38.9 76.5C38.5 71.7 36.3 67.7 32.2 64.5C26.9 60.3 24.1 54.8 23.6 47.8C22.8 36.5 31.7 25.6 43.1 23.8C44.3 23.6 45.5 23.5 46.7 23.5C51.6 23.5 56.4 25 60.3 28C65.1 31.6 68.3 36.9 69.2 43C70.4 51.4 67.7 58.5 61.2 64C57 67.5 54.7 71.7 54.1 76.6C54.2 77.2 53.9 77.2 53.4 77.2Z" fill="white"/>
<path d="M9.69995 44.4C8.59995 44.4 7.49995 44.4 6.39995 44.4C5.19995 44.4 3.89995 44.4 2.59995 44.4C1.49995 44.4 0.799951 44.8 0.199951 45.6C0.199951 45.6 0.199951 45.6 0.199951 45.7V47.5V47.6C0.799951 48.4 1.39995 48.8 2.19995 48.8H3.09995C4.19995 48.8 5.39995 48.8 6.59995 48.8C7.79995 48.8 8.89995 48.8 10.1 48.8C10.7 48.8 11.2 48.6 11.6 48.2C12 47.8 12.2 47.2 12.1 46.5C12 45.1 11.1 44.4 9.69995 44.4Z" fill="white"/>
<path d="M17.0999 20.3C17.6999 20.9 18.2999 21.5 18.7999 22.1C19.1999 22.5 19.6999 22.7 20.2999 22.8C21.4999 22.8 21.9999 22 22.3999 21.4C22.8999 20.6 22.6999 19.7 21.9999 18.9C19.8999 16.7 18.1999 15.1 16.6999 13.6C15.7999 12.7 14.5999 12.6 13.6999 13.5C12.7999 14.4 12.7999 15.6 13.6999 16.6C14.7999 17.8 15.8999 19.1 17.0999 20.3Z" fill="white"/>
<path d="M46.6 11.9C48 11.9 48.8 11.1 48.8 9.60001C48.8 8.80001 48.8 7.90001 48.8 7.10001C48.8 6.70001 48.8 6.4 48.8 6C48.8 5.6 48.8 5.19999 48.8 4.89999C48.8 4.09999 48.8 3.19999 48.8 2.29999C48.8 0.799988 48 0 46.6 0C45.3 0 44.5 0.799988 44.5 2.29999C44.5 4.79999 44.5 7.30001 44.5 9.70001C44.5 11.1 45.3 11.9 46.6 11.9Z" fill="white"/>
<path d="M90.9 44.4C88.5 44.4 86 44.4 83.5 44.4C82.1 44.4 81.2 45.2 81.2 46.5C81.2 47.9 82 48.7 83.5 48.7C84 48.7 84.4 48.7 84.9 48.7C85.3 48.7 85.6 48.7 86 48.7C86.4 48.7 86.8 48.7 87.2 48.7H90.8C90.9 48.7 90.9 48.7 91 48.7C92.4 48.6 93.2 47.9 93.2 46.5C93.2 45.2 92.4 44.4 90.9 44.4Z" fill="white"/>
<path d="M73.6999 71.1C72.8999 70.4 71.8999 70.3 71.0999 71C70.5999 71.4 70.2999 71.9 70.1999 72.5C70.0999 73.1 70.4 73.8 70.9 74.3C71.7 75.1 72.4999 75.9 73.1999 76.7C73.9999 77.5 74.9 78.4 75.8 79.3C76.4 79.9 76.9999 80.2 77.9999 80.2C78.0999 80.2 78.1999 80.2 78.1999 80.2C78.7999 80.2 79.1999 79.9 79.5999 79.2C79.9999 78.3 79.9 77.5 79.3 76.9C77.4 74.6 75.4999 72.8 73.6999 71.1Z" fill="white"/>
<path d="M76.3999 13.8C74.3999 15.7 72.4999 17.7 70.6999 19.5C70.0999 20.1 69.9999 20.8 70.3999 21.7C70.6999 22.4 71.2999 22.8 72.2999 22.8C72.2999 22.8 72.2999 22.8 72.3999 22.8C73.0999 22.8 73.5999 22.6 73.9999 22.2C75.9999 20.3 77.6999 18.6 79.3999 16.8C80.1999 16 80.1999 14.8 79.2999 13.9C78.3999 13.1 77.1999 13 76.3999 13.8Z" fill="white"/>
<path d="M19 71.2C17 73.1 15.1 75 13.7 76.5C13 77.2 12.8 78 13.2 78.9C13.6 79.8 14.4 80 15.1 80C15.2 80 15.2 80 15.3 80C16 80 16.4 79.8 16.9 79.4C17.4 78.9 18 78.3 18.5 77.8C19.7 76.6 20.9 75.4 22.1 74.2C23.1 73.2 23.1 72 22.2 71.1C21.1 70.2 19.9 70.3 19 71.2Z" fill="white"/>
<path d="M59.9 45.9C59.9 46.9 60.2 47.7 60.7 48.2C61.1 48.5 61.4999 48.7 62.0999 48.7H62.2C63.6 48.6 64.1999 47.8 64.1999 45.7C64.1999 45.2 64.1999 44.6 64.0999 44C64.0999 43.9 64.1 43.7 64 43.6C62.8 35.4 55.3 28.9 47 28.9C46.9 28.9 46.6999 28.9 46.5999 28.9C45.2999 28.9 44.5 29.7 44.4 30.9C44.3 32.1 45 33 46.2 33.2C46.5 33.3 46.7999 33.3 47.0999 33.3C53.9999 33.5 59.6 39.2 59.9 45.9Z" fill="white"/>
</svg>
