<svg width="52" height="82" viewBox="0 0 52 82" fill="none" xmlns="http://www.w3.org/2000/svg">
<path d="M50.8996 1.93836C50.825 1.5657 50.5267 1.24895 50.1724 1.06262C49.9673 0.820396 49.6876 0.652702 49.4265 0.578171C48.9231 0.429109 48.4569 0.596804 48.0653 0.932192C46.7601 2.06879 45.4734 3.24265 44.2241 4.45377C44.2055 4.47241 44.1868 4.47241 44.1682 4.49104C42.751 5.57174 41.4644 6.76423 40.3083 8.08715C39.7862 8.49707 39.3014 8.94425 38.8912 9.4846C38.5928 9.87589 38.3318 10.2672 38.108 10.6771C37.9029 10.6398 37.6978 10.6398 37.4927 10.6957C36.7281 10.938 36.3552 11.646 36.523 12.4099C37.3808 16.4719 39.9167 20.068 43.3104 22.4157C44.28 23.0865 45.3243 23.6082 46.4244 24.0554C46.816 24.2231 47.3195 24.0554 47.6365 23.8132C47.9907 23.5337 48.1772 23.161 48.1959 22.7138C48.2145 22.3598 48.2145 22.0058 48.2145 21.6704C48.2331 21.6331 48.2518 21.5772 48.2518 21.5213C48.8858 18.7637 49.3706 15.9688 49.7622 13.1552C50.3216 11.2174 50.5826 9.18648 50.5453 7.17415C50.6013 7.06235 50.6572 6.95056 50.6945 6.83876C51.1793 5.25498 51.2353 3.57804 50.8996 1.93836ZM38.2012 13.267C38.2199 13.267 38.2199 13.2857 38.2385 13.2857C38.2758 13.3229 38.3131 13.3416 38.3318 13.3602C38.2945 13.3416 38.2199 13.3043 38.2012 13.267ZM38.5182 13.5465C38.5369 13.5652 38.5742 13.6024 38.5928 13.6397C38.5928 13.6397 38.5928 13.6397 38.5928 13.6583C38.5555 13.6397 38.5369 13.5838 38.5182 13.5465Z" fill="#729EFC"/>
<path d="M18.4725 63.763C18.4166 63.6698 18.3234 63.5766 18.1928 63.558C18.1182 63.5394 18.0623 63.5394 17.9877 63.5207C17.8758 63.4835 17.7826 63.4648 17.6707 63.4648C17.5588 63.4648 17.4097 63.5207 17.3351 63.5953C17.2605 63.6698 17.2232 63.763 17.2046 63.8561C17.1859 63.9493 17.2232 64.0611 17.2605 64.1543C17.1486 64.266 17.074 64.3778 17.0367 64.5269C16.9994 64.6946 16.9994 64.8809 17.0554 65.0486C17.1673 65.4399 17.4843 65.7194 17.8945 65.738C18.0437 65.738 18.1742 65.6635 18.2674 65.5517C18.342 65.5331 18.4352 65.4958 18.4912 65.4399C18.659 65.3281 18.7895 65.179 18.8641 64.9741C18.9946 64.6573 18.9014 64.266 18.7149 64.0052C18.6403 63.9307 18.5658 63.8375 18.4725 63.763Z" fill="#D1D3D4"/>
<path d="M23.0588 58.0794C22.4994 57.7999 21.7721 57.8372 21.3246 58.2657C20.7839 58.4707 20.3923 58.9924 20.355 59.5887C20.355 59.6073 20.355 59.6073 20.355 59.6259C20.2618 60.0545 20.2431 60.483 20.299 60.893C20.2804 60.9302 20.2804 60.9861 20.2804 61.042C20.2804 61.3401 20.3363 61.6383 20.4296 61.9177C20.5415 62.3463 20.7093 62.7562 21.0263 63.073C21.4551 63.5015 22.1637 63.7065 22.7418 63.4643C22.9655 63.3711 23.1147 63.2407 23.2452 63.073C23.3385 63.0543 23.4317 63.0171 23.5063 62.9425C24.9794 61.7314 25.0726 59.3278 23.786 57.949C23.5809 57.7254 23.2079 57.8372 23.0588 58.0794ZM22.7604 60.2967C22.7418 60.2781 22.7231 60.1849 22.7604 60.2967Z" fill="#D1D3D4"/>
<path d="M21.3446 55.1733C22.3701 54.987 23.2092 54.223 23.5635 53.2541C23.6754 52.9374 23.3025 52.5647 22.9855 52.6765C22.4447 52.8815 21.9599 53.1796 21.531 53.5895C21.4937 53.6268 21.4751 53.6454 21.4378 53.6827C21.2886 53.6454 21.1021 53.6641 20.9903 53.7945C20.7479 54.074 20.6173 54.4653 20.7479 54.8379C20.8597 55.0988 21.0835 55.2106 21.3446 55.1733ZM22.3888 53.4964C22.3701 53.515 22.3701 53.4964 22.3888 53.4964Z" fill="#D1D3D4"/>
<path d="M27.2545 55.2854C27.2358 54.8941 27.068 54.5587 26.751 54.3538C26.5086 54.1861 26.1543 54.1302 25.8746 54.2047C25.7627 54.242 25.6695 54.2793 25.5763 54.3538C25.539 54.2979 25.483 54.242 25.4271 54.2234C25.1847 54.0929 24.9423 54.1675 24.7931 54.3911C24.4015 54.95 24.2896 55.6581 24.4202 56.3289C24.4948 56.7201 24.6999 57.1301 25.1287 57.2419C25.4457 57.335 25.8187 57.2791 26.117 57.1487C26.6391 56.9437 27.068 56.5152 27.1426 55.9562C27.2172 55.7326 27.2545 55.509 27.2545 55.2854ZM26.2102 55.7326C26.1916 55.714 26.1916 55.6953 26.2102 55.714C26.2102 55.714 26.2102 55.714 26.2102 55.7326ZM26.173 55.6022C26.173 55.6022 26.1916 55.6208 26.1916 55.6394C26.173 55.6208 26.173 55.6022 26.173 55.6022Z" fill="#D1D3D4"/>
<path d="M28.8769 58.3033C28.8209 58.266 28.7463 58.2288 28.6904 58.2101C28.5972 58.1729 28.4853 58.1729 28.3921 58.1729C28.2615 58.1915 28.131 58.2101 28.0005 58.2846C27.8886 58.3592 27.7767 58.4523 27.7208 58.5828V58.6014C27.6648 58.5828 27.6275 58.5641 27.5716 58.5641C27.4597 58.5641 27.3292 58.62 27.236 58.6946C27.1614 58.7877 27.0868 58.8995 27.1054 59.03C27.1054 59.1418 27.1427 59.2908 27.236 59.3653C27.4038 59.4958 27.5903 59.6448 27.814 59.6821C28.0751 59.738 28.3548 59.6821 28.5226 59.4771C28.5972 59.4026 28.6531 59.3094 28.6718 59.1977C28.765 59.1977 28.8396 59.179 28.9142 59.1418C29.0074 59.0859 29.1006 58.9741 29.1193 58.8623C29.1379 58.7505 29.1379 58.6014 29.0633 58.5082C29.026 58.4151 28.9888 58.3778 28.8769 58.3033Z" fill="#D1D3D4"/>
<path d="M29.0638 53.7754C28.8773 53.9618 28.9146 54.2412 29.0638 54.4276C29.6977 55.2474 29.9961 56.384 29.8469 57.3715C29.8096 57.6138 29.9029 57.8746 30.1639 57.9492C30.3877 58.0051 30.7047 57.8746 30.742 57.6324C30.9471 56.2536 30.5928 54.8748 29.735 53.7754C29.5672 53.5891 29.2129 53.6077 29.0638 53.7754Z" fill="#D1D3D4"/>
<path d="M33.9305 52.1172C34.0424 51.8377 33.8746 51.5396 33.6322 51.3719C33.4457 51.2415 33.2033 51.2228 32.9796 51.2787C32.7744 51.3346 32.6253 51.4837 32.5134 51.67C32.4761 51.6887 32.4575 51.6887 32.4202 51.7073C32.2337 51.8377 32.1032 52.0054 32.0286 52.229C31.954 52.4153 31.9726 52.6017 31.9913 52.788C32.0472 53.1606 32.3269 53.4774 32.6812 53.5892C33.1287 53.7196 33.5763 53.496 33.8187 53.1234C34.0611 52.8253 34.0797 52.434 33.9305 52.1172Z" fill="#D1D3D4"/>
<path d="M28.5793 49.8068C28.6725 50.049 28.7844 50.2912 29.0268 50.4217C29.2692 50.5521 29.5489 50.5148 29.754 50.3471C29.7726 50.3471 29.7726 50.3471 29.7913 50.3471C30.071 50.3285 30.2202 50.1422 30.2575 49.8813C30.2948 49.5645 30.2948 49.2478 30.2575 48.9497C30.2202 48.5956 30.1642 48.223 29.9218 47.9621C29.7913 47.8317 29.6048 47.7199 29.4184 47.7385C29.3624 47.7385 29.3251 47.7572 29.2692 47.7572C29.2692 47.7385 29.2505 47.7013 29.2319 47.6826C29.176 47.5895 29.0641 47.4963 28.9522 47.4777C28.7284 47.4218 28.4114 47.5522 28.3741 47.7944C28.2996 48.2789 28.3182 48.7261 28.4114 49.2105C28.4487 49.3969 28.5047 49.6018 28.5793 49.8068Z" fill="#D1D3D4"/>
<path d="M24.8497 48.6142C24.8497 48.6515 24.8684 48.6888 24.8684 48.726C24.9243 48.9496 25.2226 49.1359 25.4464 49.0428C25.5396 49.0055 25.6329 48.9496 25.7261 48.8937C25.9126 48.8378 26.0617 48.7074 26.1923 48.5397C26.3042 48.3906 26.3787 48.1857 26.416 47.9994C26.472 47.7571 26.472 47.5335 26.3974 47.2913C26.3228 47.0491 26.1736 46.8069 25.9685 46.6764C25.7075 46.5087 25.3905 46.5833 25.1854 46.7696C25.1667 46.7696 25.1481 46.7882 25.1294 46.7882C25.0362 46.8441 24.9243 46.9559 24.9243 47.0677C24.887 47.2913 24.7751 47.4963 24.7192 47.7199C24.6632 47.9807 24.6819 48.2602 24.8124 48.5024C24.8124 48.5583 24.8311 48.577 24.8497 48.6142Z" fill="#D1D3D4"/>
<path d="M36.7466 12.3738C39.2825 9.24349 42.1168 6.35542 45.1935 3.76547C45.958 3.11333 46.7412 2.49845 47.543 1.88357C48.1583 1.41775 49.0534 0.616548 49.8925 0.970569C50.6383 1.28732 50.9553 2.14443 50.9926 2.88974C51.0486 3.93317 50.8248 5.01387 50.6943 6.0573C50.0976 10.4173 49.3144 14.7588 48.438 19.0816C47.5616 23.4043 46.5734 27.7085 45.5664 31.994C44.6341 35.9255 43.7764 39.9875 41.949 43.6208C41.7252 44.068 41.4828 44.4966 41.2218 44.9438C40.9234 45.4655 41.7252 45.9313 42.0236 45.4096C44.1679 41.7948 45.1749 37.677 46.1445 33.6337C47.1887 29.2177 48.2143 24.7832 49.1466 20.3299C50.0603 15.8954 50.8807 11.4421 51.5147 6.95167C51.6639 5.85234 51.869 4.73438 51.9436 3.61641C51.9995 2.59161 51.8317 1.52955 51.1231 0.746976C50.4705 0.020301 49.4822 -0.184659 48.5872 0.169363C48.1024 0.374322 47.6922 0.672446 47.2633 0.970569C46.8531 1.28732 46.4428 1.58545 46.0513 1.9022C42.7881 4.47352 39.786 7.36159 37.1009 10.5291C36.7652 10.9204 36.4482 11.3117 36.1126 11.7216C35.9634 11.908 35.9261 12.1875 36.1126 12.3738C36.2431 12.5415 36.5787 12.5787 36.7466 12.3738Z" fill="#231F20"/>
<path d="M6.61471 25.9757C5.14162 20.8144 4.22793 15.4855 3.94823 10.1193C3.87365 8.83362 3.855 7.54796 4.02282 6.28094C4.09741 5.66606 4.22793 5.05118 4.4144 4.45493C4.56357 3.95185 4.75004 3.4115 5.08568 3.00158C5.83155 2.12584 6.96899 2.66619 7.73351 3.20654C8.19967 3.54193 8.6099 3.95185 9.02013 4.34313C9.48629 4.79032 9.95246 5.25614 10.4 5.70332C12.3765 7.73429 14.2039 9.91431 15.8448 12.2434C15.994 12.4484 16.255 12.5415 16.4788 12.4111C16.6839 12.2993 16.7958 11.9825 16.6466 11.7776C15.0989 9.57892 13.3834 7.49206 11.5374 5.53563C10.6424 4.60399 9.7287 3.63509 8.72178 2.79662C7.84539 2.06995 6.63335 1.306 5.43997 1.67866C4.19064 2.05131 3.72447 3.43013 3.40748 4.56673C3.05319 5.87102 2.95996 7.2312 2.95996 8.57276C2.97861 11.3677 3.2956 14.1626 3.68718 16.9202C4.15335 20.0691 4.82463 23.1622 5.70102 26.2179C5.88749 26.7955 6.78253 26.5533 6.61471 25.9757Z" fill="#231F20"/>
<path d="M5.75488 26.721C5.79218 31.7146 6.57534 36.7268 8.04842 41.4968C8.4773 42.8569 8.94346 44.1985 9.48422 45.5028C9.57745 45.745 9.80121 45.8941 10.0623 45.8195C10.286 45.7637 10.4911 45.4842 10.3793 45.2419C8.51459 40.6583 7.3212 35.7952 6.87368 30.8761C6.74316 29.4973 6.68722 28.0998 6.66857 26.7024C6.68722 26.1248 5.75488 26.1248 5.75488 26.721Z" fill="#231F20"/>
<path d="M16.4948 12.3181C21.4735 11.4051 26.5827 11.107 31.6359 11.4237C33.053 11.5169 34.4702 11.6473 35.8687 11.8523C36.1111 11.8896 36.3722 11.7964 36.4467 11.5355C36.5027 11.3119 36.3722 10.9952 36.1297 10.9579C30.9833 10.2685 25.7808 10.1753 20.6157 10.7716C19.1426 10.9393 17.6882 11.1629 16.2338 11.4237C15.9913 11.461 15.8422 11.7778 15.9168 12.0014C15.9913 12.2436 16.2524 12.3554 16.4948 12.3181Z" fill="#231F20"/>
<path d="M9.11254 44.9617C9.95164 48.2224 7.69539 51.2037 5.99854 53.7377C4.20846 56.4208 2.73538 59.2903 1.59793 62.3087C0.963944 64.0043 0.423191 65.7558 0.012964 67.5073C-0.117563 68.0849 0.777477 68.3457 0.908004 67.7495C1.65387 64.5819 2.75402 61.5262 4.22711 58.6195C4.95433 57.1661 5.77478 55.7687 6.66982 54.4085C7.60216 53.011 8.60908 51.6508 9.299 50.123C10.0822 48.4274 10.4924 46.5268 10.0262 44.7008C9.8584 44.1419 8.96336 44.3841 9.11254 44.9617Z" fill="#231F20"/>
<path d="M42.9941 41.664C43.0128 45.2042 43.5162 48.7444 44.5418 52.1356C45.5114 55.359 47.0405 58.3775 48.1033 61.5637C48.6814 63.2966 49.1102 65.1039 49.1662 66.9486C49.1848 67.5448 50.1172 67.5448 50.0985 66.9486C50.0053 63.6133 48.756 60.483 47.488 57.4272C46.8354 55.8621 46.2014 54.297 45.6793 52.6945C45.1385 51.0176 44.7096 49.3034 44.4299 47.5705C44.0943 45.6141 43.9265 43.639 43.9265 41.664C43.9265 41.0677 42.9941 41.0677 42.9941 41.664Z" fill="#231F20"/>
<path d="M9.57748 62.1604C12.0202 59.2723 14.09 55.9184 17.2226 53.7011C18.6584 52.6763 20.2807 51.8938 22.0335 51.6329C23.5998 51.4093 25.1847 51.6888 26.5459 52.5086C27.7766 53.2539 28.8208 54.4092 29.1938 55.8253C29.604 57.3904 29.026 58.9555 28.1869 60.2785C27.2359 61.7505 25.9865 63.0175 24.905 64.3963C23.7489 65.8497 22.6861 67.3962 21.7351 68.9799C19.8331 72.1848 18.3601 75.6318 17.3904 79.2279C17.2786 79.6565 17.1667 80.1037 17.0548 80.5322C16.9243 81.1098 17.8193 81.3707 17.9498 80.7744C18.8262 77.0852 20.2247 73.5077 22.108 70.2097C23.0404 68.5514 24.0846 66.9676 25.2407 65.4584C26.3595 64.005 27.6461 62.6821 28.709 61.1728C29.6786 59.7754 30.4431 58.0984 30.238 56.347C30.0515 54.7259 29.1565 53.2912 27.8885 52.285C26.5832 51.2416 24.9796 50.6454 23.3201 50.6081C21.4741 50.5708 19.6467 51.1671 18.0431 52.0614C14.5934 53.9992 12.3185 57.2972 9.89448 60.3157C9.57748 60.707 9.26049 61.0983 8.9435 61.471C8.77568 61.6573 8.75703 61.9368 8.9435 62.1231C9.09267 62.3281 9.42831 62.3467 9.57748 62.1604Z" fill="#231F20"/>
<path d="M26.0435 64.08C27.7404 67.8252 30.3322 71.1605 33.5022 73.769C34.4159 74.5143 35.3668 75.2038 36.3551 75.8186C36.8586 76.1354 37.3247 75.3342 36.8213 75.0174C33.4462 72.9119 30.556 70.0239 28.4489 66.6327C27.8336 65.6638 27.2928 64.6576 26.8267 63.6142C26.7148 63.3906 26.3978 63.3347 26.1927 63.4465C25.9689 63.577 25.9316 63.8564 26.0435 64.08Z" fill="#231F20"/>
<path d="M22.948 50.142C23.4142 47.757 24.7195 45.4093 26.9571 44.2913C28.0013 43.7696 29.2506 43.5274 30.4067 43.7137C31.5068 43.9 32.4951 44.459 33.2783 45.2602C34.9565 46.9558 35.7769 49.3408 36.5974 51.5208C37.6229 54.2412 38.5926 56.9988 40.047 59.5329C41.315 61.7501 42.9559 63.7997 45.0443 65.2717C45.3054 65.458 45.5664 65.6257 45.8275 65.7748C46.3496 66.0916 46.8158 65.2717 46.2936 64.9736C44.0747 63.632 42.3592 61.6197 41.0539 59.4211C39.5622 56.9056 38.5553 54.1294 37.5297 51.409C36.6533 49.0799 35.7956 46.5831 34.0428 44.7385C33.2223 43.8814 32.1781 43.192 31.0034 42.9125C29.7541 42.6144 28.3928 42.7261 27.1995 43.192C24.6822 44.1609 23.004 46.4341 22.2581 48.9681C22.1649 49.2849 22.0903 49.583 22.0343 49.8997C21.9784 50.142 22.1089 50.4028 22.3513 50.4774C22.6124 50.5333 22.8921 50.4028 22.948 50.142Z" fill="#231F20"/>
<path d="M29.3065 23.8326C29.5676 24.2239 30.127 24.1307 30.2575 23.6836C30.388 23.2177 29.9032 22.8265 29.4743 23.05C29.1014 23.2364 29.0455 23.6836 28.9709 24.0562C28.8963 24.4661 28.8403 24.8947 28.8217 25.3232C28.7285 27.0002 29.1014 28.6585 29.8473 30.1491C31.1152 32.6459 33.5207 35.1799 36.5787 34.7141C37.8653 34.5092 39.0774 33.7639 39.9165 32.7577C40.8115 31.6956 41.315 30.3913 41.3336 28.9939C41.4082 26.0872 39.5808 23.255 37.1008 21.8017C35.6277 20.9446 33.9868 20.7582 32.3273 21.0377C31.1525 21.2427 29.81 21.8203 29.2506 22.9382C29.1014 23.2364 29.0268 23.5531 28.9895 23.8885C28.9709 24.1307 29.2319 24.3543 29.4557 24.3543C29.7354 24.3543 29.9032 24.1307 29.9219 23.8885C30.0151 22.9569 31.022 22.3793 31.8425 22.1184C33.0731 21.7271 34.4903 21.7085 35.7023 22.1557C37.9399 22.9755 39.6927 25.1183 40.2521 27.3915C40.5132 28.4722 40.4945 29.646 40.0843 30.6895C39.7114 31.677 38.9655 32.5527 38.0891 33.1117C37.2313 33.6521 36.1871 33.9502 35.1802 33.7452C34.0055 33.5216 33.0358 32.795 32.234 31.9378C31.2644 30.8758 30.4999 29.5715 30.0897 28.174C29.8659 27.4287 29.754 26.6462 29.754 25.8636C29.754 25.4723 29.7727 25.0624 29.8286 24.6711C29.8473 24.4848 29.8846 24.2984 29.9219 24.1307C29.9405 24.0562 29.9591 23.963 29.9778 23.8885C29.9964 23.8326 29.9964 23.7954 30.0151 23.7581C30.0524 23.7581 30.0337 23.7767 29.9778 23.814C29.9032 23.8326 29.8286 23.8513 29.7354 23.8699C29.7167 23.8699 29.7167 23.8699 29.6981 23.8513C29.6235 23.814 29.5676 23.7767 29.493 23.7395L29.5116 23.7581C29.4743 23.6836 29.437 23.6277 29.3997 23.5531C29.4557 23.4227 29.493 23.3109 29.5489 23.1805C29.6608 23.1618 29.7913 23.1432 29.9032 23.1246H29.8846C29.9778 23.1991 30.071 23.2736 30.1643 23.3295L30.1456 23.3109C29.7913 22.8637 28.9709 23.3295 29.3065 23.8326Z" fill="#231F20"/>
<path d="M9.61516 25.4535C8.8693 28.0807 8.77606 31.2855 11.0137 33.2419C11.9646 34.0804 13.1953 34.5276 14.4633 34.3413C15.7499 34.1549 16.8687 33.2978 17.7265 32.3662C18.6588 31.3414 19.4233 30.1489 19.9454 28.8633C20.4302 27.6708 20.7472 26.3106 20.654 25.0249C20.5608 23.907 20.2065 22.6958 19.3301 21.9319C18.3232 21.0375 16.8874 20.963 15.6194 21.1493C13.2513 21.4661 11.051 23.0312 9.96945 25.1554C9.83892 25.4348 9.7084 25.7143 9.59652 26.0125C9.50328 26.2547 9.68975 26.5155 9.91351 26.5901C10.1746 26.6646 10.3983 26.4969 10.4916 26.2733C11.2001 24.2982 12.9716 22.789 14.9668 22.2486C15.4516 22.1182 15.9364 22.0437 16.4398 22.0251C16.9992 22.0064 17.6146 22.0437 18.1367 22.2859C19.0317 22.6958 19.4606 23.6088 19.6284 24.5218C19.8335 25.5839 19.6657 26.7019 19.3487 27.708C18.9944 28.9005 18.3977 29.9999 17.6519 31.006C16.9806 31.9004 16.1415 32.7575 15.1159 33.2047C14.1463 33.6332 13.0834 33.5401 12.1884 32.9997C11.1628 32.3662 10.4729 31.3041 10.1932 30.1489C9.83892 28.6956 10.1 27.149 10.4916 25.733C10.678 25.1181 9.78298 24.8759 9.61516 25.4535Z" fill="#231F20"/>
<path d="M19.6287 36.4286C20.3 37.8074 21.4561 38.9813 22.8359 39.6707C23.2275 39.857 23.675 40.0806 24.1226 40.0434C24.5887 40.0061 24.9244 39.708 25.26 39.4099C25.894 38.8509 26.4907 38.2546 27.0501 37.6025C27.6841 36.8572 28.2621 36.056 28.7469 35.2175C29.0453 34.6958 28.2435 34.23 27.9451 34.7517C27.162 36.056 26.2296 37.2671 25.1108 38.3105C24.8498 38.5528 24.5887 38.8136 24.309 39.0186C24.0293 39.2235 23.7123 39.0745 23.4326 38.944C22.8173 38.6646 22.2579 38.2919 21.7731 37.8261C21.2137 37.2857 20.7662 36.6708 20.4305 35.9814C20.3186 35.7578 20.0016 35.7019 19.7965 35.8137C19.5728 35.9255 19.5355 36.1864 19.6287 36.4286Z" fill="#231F20"/>
<path d="M20.2067 35.4232V35.4046C20.2254 35.2369 20.1135 35.0878 19.983 34.9947C19.5355 34.6965 18.9947 35.2555 19.2558 35.7027C19.5541 36.2058 20.1135 35.8704 20.4864 35.6841C21.195 35.3673 21.9782 35.1437 22.7427 35.0133C24.309 34.7524 25.9313 34.9574 27.423 35.5164C27.6654 35.6095 27.9265 35.4232 28.001 35.1996C28.0756 34.9388 27.9078 34.7152 27.6841 34.622C26.3974 34.1189 24.9989 33.914 23.6191 33.9885C22.9291 34.0258 22.2206 34.1376 21.5493 34.3239C21.2137 34.417 20.8967 34.5288 20.5797 34.6406C20.4118 34.6965 20.2627 34.7711 20.1135 34.8456C20.0389 34.8829 19.9643 34.9015 19.8897 34.9388C19.8338 34.9574 19.7965 34.976 19.7406 35.0133C19.6473 35.0506 19.6473 35.0692 19.7219 35.0319C19.7965 35.0506 19.8711 35.0692 19.9643 35.0878C19.9457 35.0692 19.927 35.0692 19.9084 35.0506C19.983 35.1437 20.0576 35.2369 20.1135 35.33C20.1135 35.33 20.1135 35.3114 20.0949 35.3114C20.0762 35.4232 20.0576 35.5536 20.0389 35.6654C20.0016 35.7027 19.9643 35.74 19.927 35.7772C19.8524 35.7959 19.7779 35.8145 19.6846 35.8331H19.7033C19.6287 35.8145 19.5541 35.7959 19.4609 35.7772C19.4609 35.7772 19.4795 35.7772 19.4795 35.7959C19.4049 35.6654 19.3303 35.535 19.2558 35.3859V35.4046C19.2371 35.6468 19.4795 35.8704 19.7219 35.8704C20.0016 35.889 20.1881 35.6841 20.2067 35.4232Z" fill="#231F20"/>
<path d="M21.0625 36.0376C21.0625 35.8513 21.0998 35.7022 21.2303 35.5718C20.9693 35.4228 20.7082 35.2737 20.4471 35.1246C20.2793 35.5532 20.1861 36.019 20.1674 36.4848C20.1488 36.8575 20.7082 37.137 20.9693 36.8202C21.3422 36.3544 21.7151 35.8886 22.0881 35.4228C21.827 35.2737 21.5659 35.1246 21.3049 34.9756C21.1557 35.7768 21.0065 36.578 20.8387 37.3792C20.7455 37.845 21.249 38.1245 21.6219 37.8264C22.3118 37.2674 22.778 36.4848 23.0017 35.6277C23.1509 35.0501 22.2745 34.8079 22.1067 35.3855C21.8829 36.1308 21.6778 36.8761 21.4541 37.6214C21.3235 38.0686 21.9016 38.3854 22.2372 38.0686C22.9458 37.3792 23.4306 36.4662 23.5984 35.4973C23.6917 34.901 22.9272 34.6961 22.7034 35.2551C22.3305 36.2053 22.1253 37.2115 22.0694 38.2363C22.0508 38.6462 22.5915 38.8512 22.8712 38.5717C23.5052 37.9009 23.9714 37.0997 24.2324 36.2053C23.9341 36.1308 23.6357 36.0376 23.3374 35.9631C23.1696 36.6525 23.0204 37.3606 22.8526 38.05C22.7966 38.2736 22.9085 38.5158 23.1136 38.5903C23.3374 38.6835 23.5425 38.5903 23.6917 38.404C24.2511 37.6773 24.6613 36.8388 24.9223 35.9631C25.0715 35.4787 24.2884 35.106 24.0646 35.6091C23.5984 36.6711 23.3187 37.7705 23.2255 38.9257C23.1882 39.317 23.7663 39.5592 24.0273 39.2611C24.5681 38.6276 24.9596 37.8823 25.1088 37.0624C25.1461 36.8388 25.0715 36.5966 24.8478 36.5221C24.6426 36.4476 24.3816 36.5035 24.2697 36.7084C23.8968 37.4351 23.5984 38.199 23.4306 39.0002C23.6544 38.9071 23.8781 38.8139 24.1205 38.7207C23.9527 38.6276 23.729 38.4971 23.6544 38.3108C23.5984 38.1804 23.6917 38.1804 23.8035 38.1431C24.046 38.0872 24.2697 38.05 24.4748 37.9195C24.6986 37.7705 24.8478 37.5469 24.9223 37.3047C25.0715 36.8388 24.9223 36.3171 24.6054 35.9445C24.2511 35.5159 23.7103 35.3296 23.1882 35.1619C23.2255 35.4414 23.2628 35.7209 23.3001 36.019C23.9341 35.6277 24.6426 35.4973 25.3885 35.5904C25.2766 35.3296 25.1648 35.0687 25.0529 34.7892C24.4375 35.4973 23.8968 36.2799 23.4493 37.0997C23.356 37.286 23.3747 37.5096 23.5238 37.6587C23.6544 37.7891 23.9341 37.845 24.0832 37.7332C24.6426 37.3233 25.1834 36.8947 25.7428 36.4848C25.5563 36.2426 25.3699 36.0004 25.1834 35.7581C24.5867 36.3917 24.1392 37.137 23.8408 37.9754C23.673 38.4413 24.307 38.7207 24.624 38.4226C25.258 37.8636 25.8733 37.2674 26.4514 36.6525C26.2276 36.4289 26.0039 36.2053 25.7987 36.0004C25.258 36.578 24.7732 37.1929 24.3443 37.845C24.046 38.2922 24.7172 38.7953 25.0715 38.404C25.7055 37.7332 26.3208 37.0624 26.9548 36.3917C26.7311 36.1681 26.5073 35.9445 26.3022 35.7395C25.6309 36.5593 24.9037 37.3606 24.1392 38.1059C24.3629 38.3295 24.5867 38.553 24.7918 38.758C25.1275 38.3667 25.4445 37.9568 25.7801 37.5655C25.9479 37.3606 26.1157 37.1742 26.2836 36.9693C26.4514 36.7643 26.6378 36.5593 26.6751 36.2799C26.7311 35.8886 26.5073 35.6091 26.209 35.3855C26.0971 35.311 25.9852 35.2364 25.8733 35.1619C25.8174 35.1246 25.8547 35.1433 25.7801 35.0874C25.6869 34.9942 25.7987 35.1246 25.7614 35.0687C25.7242 35.0128 25.7801 35.1619 25.7614 35.0315C25.6496 35.2178 25.5377 35.4228 25.4445 35.6091C26.0598 35.5159 26.6938 35.665 27.2159 35.9817C27.738 36.2799 28.2042 35.4787 27.6821 35.1805C26.9175 34.7333 26.0598 34.6029 25.1834 34.7147C24.9223 34.752 24.8105 35.0687 24.8664 35.2923C24.941 35.5904 25.1648 35.7954 25.4072 35.9817C25.519 36.0563 25.6309 36.1122 25.7242 36.1867C25.6682 36.1308 25.7801 36.2426 25.7987 36.2612C25.7801 36.2426 25.7614 36.224 25.7614 36.1867C25.7801 36.224 25.7801 36.2426 25.7614 36.2053C25.7614 36.1867 25.7614 36.1494 25.7801 36.1308C25.7614 36.1681 25.7428 36.1867 25.7242 36.224C25.6496 36.3171 25.575 36.4103 25.5004 36.5035C25.3512 36.6711 25.202 36.8575 25.0715 37.0252C24.7732 37.3792 24.4748 37.7518 24.1765 38.1059C23.8035 38.553 24.4002 39.1866 24.8291 38.758C25.5936 38.0127 26.3208 37.2301 26.9921 36.3917C27.1599 36.2053 27.1786 35.9258 26.9921 35.7395C26.8243 35.5718 26.5073 35.5532 26.3395 35.7395C25.7055 36.4103 25.0902 37.0811 24.4562 37.7518C24.6986 37.9382 24.941 38.1245 25.1834 38.3108C25.575 37.7146 26.0225 37.1742 26.5073 36.6525C26.9175 36.2053 26.2649 35.5532 25.8547 36.0004C25.2766 36.6152 24.6613 37.2115 24.0273 37.7705C24.2884 37.9195 24.5494 38.0686 24.8105 38.2177C25.0529 37.5469 25.4258 36.932 25.9106 36.4289C26.0598 36.2612 26.0971 36.0004 25.9479 35.814C25.8174 35.6463 25.5377 35.5532 25.3512 35.7022C24.7918 36.1122 24.2511 36.5407 23.6917 36.9506C23.8968 37.1556 24.1205 37.3792 24.3257 37.5841C24.7359 36.8202 25.2207 36.1122 25.7801 35.46C26.0598 35.1246 25.8547 34.7147 25.4445 34.6588C24.5681 34.547 23.6544 34.752 22.8899 35.2178C22.5356 35.4414 22.6288 35.9445 23.0017 36.0749C23.356 36.1867 23.8781 36.3358 24.046 36.7084C24.1019 36.8202 24.1205 36.9879 24.0832 37.0811C24.0646 37.1556 24.046 37.1556 23.99 37.1929C23.9154 37.2301 23.8222 37.2488 23.7476 37.2488C23.2255 37.3606 22.7593 37.6587 22.778 38.2549C22.778 38.8698 23.2441 39.2425 23.7103 39.5406C23.9527 39.6896 24.3257 39.5592 24.4002 39.2611C24.5494 38.5344 24.7918 37.845 25.1461 37.1929C24.8664 37.0811 24.5867 36.9506 24.2884 36.8388C24.1578 37.5096 23.8968 38.1245 23.4493 38.6276C23.7103 38.7394 23.9714 38.8512 24.2511 38.963C24.3257 37.9941 24.5681 37.0065 24.9596 36.1122C24.6799 36.0004 24.4002 35.8699 24.1019 35.7581C23.8595 36.5593 23.4679 37.3047 22.9644 37.9754C23.2441 38.0872 23.5238 38.2177 23.8222 38.3295C23.99 37.64 24.1392 36.932 24.307 36.2426C24.4375 35.665 23.5798 35.4228 23.412 36.0004C23.2069 36.7457 22.8153 37.3978 22.2932 37.9568C22.5542 38.0686 22.8153 38.1804 23.095 38.2922C23.1323 37.3419 23.3374 36.4289 23.6917 35.5532C23.3933 35.4787 23.095 35.3855 22.7966 35.311C22.6661 36.1494 22.2932 36.8761 21.6778 37.4724C21.9389 37.6214 22.1999 37.7705 22.461 37.9195C22.6847 37.1742 22.8899 36.4289 23.1136 35.6836C22.8153 35.6091 22.5169 35.5159 22.2186 35.4414C22.0321 36.1494 21.6405 36.7643 21.0811 37.2301C21.3422 37.3792 21.6032 37.5283 21.8643 37.6773C22.0135 36.8761 22.1626 36.0749 22.3305 35.2737C22.3678 35.0687 22.3118 34.8638 22.1253 34.752C21.9575 34.6588 21.6965 34.6588 21.5659 34.8265C21.193 35.2923 20.8201 35.7581 20.4471 36.224C20.7082 36.3358 20.9693 36.4476 21.249 36.5593C21.2676 36.1681 21.3608 35.814 21.4914 35.4414C21.6592 34.9942 21.0065 34.6588 20.7082 34.9942C20.4099 35.311 20.2607 35.7022 20.2607 36.1308C20.1488 36.6339 21.0811 36.6339 21.0625 36.0376Z" fill="#231F20"/>
<path d="M9.83874 25.6404C9.2607 26.7397 9.29799 28.1372 9.52175 29.3297C9.72686 30.4476 10.2303 31.547 11.144 32.255C11.3305 32.4041 11.5542 32.4413 11.7594 32.2923C11.9272 32.1618 12.0204 31.8823 11.8712 31.696C10.6406 29.9259 10.6592 27.3546 12.0391 25.659C11.778 25.51 11.5169 25.3609 11.2559 25.2118C10.3981 27.4664 10.0998 29.9259 10.3609 32.3109C10.4168 32.7208 10.827 32.9071 11.1627 32.6463C11.7034 32.2177 12.0018 31.5656 12.1509 30.8948C12.2255 30.5594 12.2628 30.2054 12.3001 29.8514C12.3188 29.516 12.3747 29.162 12.2628 28.8452C12.1323 28.4912 11.8526 28.1931 11.4424 28.249C11.0135 28.3235 10.8457 28.7334 10.7338 29.1061C10.5473 29.7768 10.566 30.5035 10.7338 31.1743C10.9389 31.9196 11.3678 32.6276 11.9645 33.1307C12.2069 33.3357 12.673 33.2984 12.7476 32.9258C12.9714 31.7519 12.9341 30.5408 12.5985 29.3856C12.4866 28.9756 11.9645 28.957 11.7407 29.2738C11.0694 30.2799 10.9948 31.8637 11.8339 32.7953C12.2255 33.2239 12.9527 33.4848 13.4189 33.0003C13.68 32.7394 13.5308 32.2736 13.3816 31.9941C13.2324 31.7146 12.99 31.4724 12.7103 31.3234C12.412 31.1743 12.1323 31.3234 12.0204 31.6028C11.5542 32.7394 13.046 34.081 14.1088 33.3357C14.4072 33.1307 14.5936 32.7953 14.5563 32.4413C14.5191 32.1059 14.258 31.8451 13.941 31.7519C13.2138 31.5842 12.673 32.3295 12.9154 32.9817C13.4376 34.3978 16.104 33.6338 15.4514 32.1618C15.153 31.4911 14.2767 31.5097 13.941 32.1246C13.5867 32.7208 13.9597 33.4289 14.5936 33.5965C15.3768 33.8015 15.9735 33.2798 16.421 32.7022C16.6448 32.4041 16.8872 32.0687 16.8499 31.6587C16.794 31.2675 16.477 30.9321 16.0667 30.9321C16.1413 31.2302 16.2159 31.5097 16.3091 31.8078C17.4279 31.137 17.8941 29.6278 17.4093 28.4353C17.2788 28.1185 17.0923 27.8018 16.8499 27.5782C16.477 27.2428 15.9921 27.2242 15.6006 27.5223C15.2649 27.7645 15.0039 28.1372 14.7801 28.4912C14.5564 28.8452 14.3699 29.2179 14.2207 29.6092C13.9597 30.3358 13.6986 31.5283 14.6496 31.8637C14.7988 31.9196 15.0039 31.8637 15.0971 31.7519C15.9548 30.8016 16.3091 29.516 16.1227 28.249C16.0854 27.9508 16.0108 27.6155 15.8243 27.3732C15.5633 27.0192 15.1158 27.0006 14.7988 27.2614C14.5377 27.4664 14.3512 27.7831 14.1834 28.044C14.0156 28.3235 13.8664 28.6216 13.7545 28.9384C13.4935 29.6278 13.4003 30.3731 13.4562 31.0998C13.4935 31.4911 13.941 31.7333 14.258 31.4352C15.4887 30.224 15.9549 28.3049 15.3582 26.6652C15.2276 26.3112 14.7055 26.1807 14.5004 26.5534C13.7545 27.9136 13.307 29.3856 13.1392 30.9134C13.0833 31.3793 13.7918 31.5283 14.0156 31.1557C14.8547 29.6837 15.0225 27.8949 14.4631 26.2925C14.3512 25.9571 13.7918 25.7894 13.6054 26.1807C12.8222 27.8949 12.6171 29.7955 12.99 31.6401C13.0646 32.0314 13.6613 32.0873 13.8478 31.7519C14.7242 30.1495 14.8733 28.2117 14.2394 26.4975C14.0715 26.0689 13.4935 26.0503 13.3443 26.4975C12.7849 28.1744 12.3747 29.9073 12.1136 31.6401C12.0763 31.8637 12.1509 32.0314 12.3188 32.1618C12.5985 32.3854 12.99 32.2736 13.2138 32.0314C13.4376 31.8078 13.5121 31.5283 13.5867 31.2302C13.7359 30.6339 13.8664 30.0191 13.941 29.4042C14.0902 28.2303 13.9783 26.9633 13.2324 25.9944C13.0087 25.7149 12.6357 25.6777 12.4306 25.9944C11.6102 27.2428 11.3491 28.8079 11.6661 30.2613C11.7594 30.6898 12.3001 30.6712 12.5239 30.3731C13.4748 29.0688 13.8291 27.4291 13.6054 25.8267C13.5494 25.3982 12.9527 25.4168 12.7476 25.7149C11.8899 26.9819 11.461 28.5098 11.4797 30.0191C11.4797 30.5035 12.095 30.6339 12.356 30.2613C13.363 28.752 13.6613 26.8142 13.1765 25.0628C13.0833 24.7088 12.6544 24.6156 12.3933 24.8578C11.4237 25.7335 10.883 27.0192 10.8643 28.3235C10.8643 28.7893 11.4983 28.9384 11.7407 28.5657C12.4679 27.3919 12.8036 26.013 12.6917 24.6342C12.673 24.4479 12.5985 24.2802 12.412 24.2057C12.2628 24.1498 12.0204 24.1498 11.9085 24.2988C11.2745 25.1187 10.7897 26.0317 10.5473 27.0378C10.4354 27.4664 11.0135 27.8577 11.3305 27.485C12.0763 26.6279 12.5239 25.6031 12.6357 24.4665C12.673 24.1684 12.3188 23.9448 12.0391 24.0193C11.2745 24.2429 10.6592 24.8764 10.4727 25.659C10.3609 26.1807 11.0321 26.4602 11.3305 26.013C12.2628 24.5411 13.7918 23.5535 15.5073 23.2368C15.4327 22.9386 15.3395 22.6405 15.2649 22.3424C13.5121 22.7151 11.9085 23.684 10.7711 25.0628C11.0135 25.2491 11.2559 25.4354 11.4983 25.6218C12.2815 24.038 13.997 23.0504 15.7684 23.2181C15.6938 22.92 15.6192 22.6405 15.526 22.3424C13.8851 23.4604 12.0763 24.7833 11.6475 26.8515C11.5542 27.2801 12.095 27.6714 12.4306 27.2987C13.2511 26.4043 13.9224 25.3795 14.4072 24.2616C14.4818 24.0752 14.5004 23.8516 14.3326 23.7026C14.1834 23.5535 13.941 23.5349 13.7732 23.6281C13.1206 24.0007 12.5798 24.5597 12.2442 25.2305C12.5239 25.3423 12.8036 25.4727 13.1019 25.5845C13.1392 25.3423 13.1765 25.0814 13.2138 24.8392C13.2324 24.6529 13.2138 24.4665 13.046 24.3547C12.9154 24.2616 12.673 24.2057 12.5239 24.3175C11.9645 24.746 11.7221 25.3423 11.8153 26.0503C11.8526 26.3484 12.2628 26.4789 12.5052 26.3298C13.2138 25.864 13.7173 25.1559 13.8851 24.3175C13.941 24.038 13.7545 23.7212 13.4376 23.7212C12.6544 23.7398 12.0577 24.5224 12.2628 25.2864C12.356 25.6218 12.7849 25.7335 13.046 25.4913C13.5308 25.0255 14.1461 24.746 14.8174 24.6342C14.6123 24.4852 14.4258 24.3361 14.2207 24.187C14.2394 25.51 14.0342 26.7956 13.5681 28.044C13.3816 28.5285 14.2021 28.8825 14.4258 28.398C14.8174 27.5409 15.0412 26.6466 15.0412 25.6963C15.0412 25.2491 14.3885 25.0441 14.1648 25.4541C13.6986 26.3298 13.307 27.2614 13.046 28.2303C12.9154 28.6961 12.8222 29.162 12.7476 29.6278C12.673 30.1122 12.5798 30.634 12.8782 31.0625C13.046 31.2861 13.4003 31.3979 13.6054 31.1557C14.5377 30.1309 14.9106 28.7707 14.7055 27.4105C14.6496 26.9819 14.0529 26.9819 13.8478 27.2987C13.5121 27.839 13.2884 28.4353 13.1951 29.0688C13.1019 29.6278 13.046 30.2986 13.3816 30.8016C13.7545 31.3793 14.4818 31.3793 14.8733 30.8389C15.2463 30.2986 15.3768 29.5346 15.3768 28.8825C15.3768 28.3421 14.6123 28.2676 14.4631 28.752C14.1834 29.6278 13.8851 30.5035 13.6427 31.3793C13.5494 31.7146 13.5121 32.1059 13.7173 32.4041C13.9783 32.814 14.5004 32.8512 14.892 32.6276C15.2463 32.4413 15.4887 32.0873 15.7497 31.7705C16.0108 31.4538 16.2718 31.1184 16.4956 30.7644C16.9618 30.075 17.3534 29.3297 17.6703 28.5471C17.7636 28.3421 17.5958 28.0813 17.4093 28.0067C17.2042 27.9322 16.9431 27.9881 16.8312 28.1931C16.3278 29.1433 15.7684 30.0563 15.153 30.9321C15.4327 31.0439 15.7124 31.1743 16.0108 31.2861C16.477 29.7209 16.9618 28.1372 17.4279 26.572C17.1296 26.4975 16.8312 26.4043 16.5329 26.3298C16.3091 27.131 16.0854 27.9322 15.8616 28.7148C15.7497 29.1061 15.6006 29.516 15.526 29.9259C15.4514 30.2613 15.47 30.6339 15.7497 30.8575C16.4583 31.4538 17.1482 30.2986 17.4652 29.7955C17.8755 29.1433 18.1179 28.4167 17.9687 27.6341C17.8941 27.2055 17.3347 27.2242 17.1109 27.5223C16.2905 28.6775 15.8616 30.0936 15.8803 31.5097C15.8803 31.8637 16.2718 32.0873 16.5888 31.9196C18.3416 30.8948 19.4791 29.0502 19.6469 27.0378C19.6842 26.572 18.9943 26.4043 18.7705 26.7956C18.3416 27.5968 17.9127 28.398 17.5025 29.1992C17.7822 29.311 18.0619 29.4415 18.3603 29.5533C18.7891 28.4726 19.0502 27.336 19.1621 26.1621C19.1994 25.7522 18.64 25.5659 18.3603 25.8267C17.633 26.5348 17.2228 27.4664 17.1109 28.4726C17.055 28.9384 17.7822 29.1061 17.9873 28.7148C18.64 27.4478 18.6586 25.9758 18.0806 24.6715C17.9314 24.3361 17.4466 24.392 17.2788 24.6715C16.738 25.5472 16.3091 26.4975 15.9735 27.485C16.2718 27.5223 16.5888 27.5596 16.8872 27.6155C16.9245 27.131 16.9804 26.6652 17.0177 26.1807C17.055 25.7708 17.2042 25.2305 16.8872 24.8764C16.5329 24.4852 16.0108 24.6529 15.6938 24.9882C15.3582 25.3236 15.1157 25.7708 14.836 26.1621C15.0971 26.3112 15.3768 26.4789 15.6379 26.6279C15.9921 25.864 16.1786 25.0628 16.1786 24.2057C16.1786 23.8144 15.6565 23.5722 15.3768 23.8703C14.7615 24.5224 14.3326 25.3423 14.1275 26.218C14.0156 26.7211 14.7055 27.0565 14.9852 26.572C15.4327 25.8081 15.6938 24.9696 15.787 24.0939C15.843 23.6653 15.2649 23.5349 14.9852 23.7585C14.4445 24.2429 13.997 24.8205 13.6613 25.4541C13.941 25.5659 14.2207 25.6963 14.5191 25.8081C14.6682 25.3423 14.8361 24.8764 14.9852 24.4106C15.1344 23.9448 14.5191 23.6467 14.2021 23.9634C13.7173 24.4106 13.3816 24.951 13.1392 25.5659C13.0646 25.7708 13.2138 26.0317 13.4003 26.1062C13.624 26.1994 13.8478 26.1062 13.9783 25.9199C14.4258 25.2491 14.8547 24.5411 15.2276 23.8144C14.9293 23.7398 14.6496 23.6653 14.3512 23.5722C14.3699 24.4479 14.3885 25.305 14.4258 26.1807C14.4445 26.572 14.9479 26.8142 15.2276 26.5161C15.8803 25.8081 16.2532 24.9323 16.3091 23.9821C16.3464 23.5163 15.6565 23.3486 15.4327 23.7398C15.0225 24.4852 14.9293 25.3609 15.1717 26.1807C15.2463 26.4416 15.6006 26.6466 15.8616 26.4602C16.5329 25.9944 16.9245 25.305 16.9804 24.5038C17.0177 24.0193 16.3464 23.9075 16.104 24.2616C15.4887 25.2677 15.153 26.423 15.1344 27.5968C15.1344 28.0626 15.7684 28.2303 16.0108 27.839C16.6075 26.7956 16.8126 25.5845 16.6075 24.392C16.5329 24.0193 15.9176 23.9262 15.7497 24.2802C15.3768 25.1746 15.0785 26.0876 14.892 27.0378C14.7988 27.485 15.3209 27.839 15.6751 27.485C16.3837 26.7956 16.8872 25.9199 17.1109 24.9696C17.2228 24.4852 16.4956 24.1125 16.2532 24.6156C15.8057 25.51 15.5446 26.4416 15.4514 27.4478C15.4141 27.839 15.9921 28.0626 16.2532 27.7831C16.7194 27.2614 17.1296 26.6838 17.4466 26.0503C17.1482 25.9758 16.8685 25.9012 16.5702 25.8081C16.5515 26.2739 16.5142 26.7397 16.4956 27.2242C16.477 27.4291 16.6448 27.6155 16.8312 27.6714C17.055 27.7272 17.2228 27.6155 17.3533 27.4664C17.8568 26.7956 18.1552 26.013 18.2297 25.1746C18.0806 25.3236 17.9128 25.4913 17.7636 25.6404H17.7822C17.6517 25.5659 17.5212 25.4913 17.372 25.4168C17.372 25.4168 17.372 25.4354 17.3906 25.4354C17.372 25.3609 17.3533 25.2864 17.3347 25.1932C17.3347 25.1746 17.3347 25.1559 17.3347 25.1373C17.372 25.0628 17.4093 25.0069 17.4466 24.9323L17.4279 24.951C17.5398 24.9137 17.6517 24.8578 17.7636 24.8205C17.7449 24.8205 17.7449 24.8205 17.7263 24.8205C17.8009 24.8392 17.8755 24.8578 17.9687 24.8764C17.95 24.8578 17.9314 24.8578 17.9314 24.8392C17.9873 24.8951 18.0433 24.951 18.0992 25.0069C18.1179 25.1 18.1179 25.1 18.1179 25.0441C18.1179 25.0069 18.1179 24.9696 18.1179 24.9323C18.1179 24.8578 18.0992 24.7833 18.0992 24.7274C18.0806 24.5783 18.0619 24.4293 18.0246 24.2988C17.95 24.0193 17.8382 23.7398 17.7076 23.4976C17.4466 22.9759 17.055 22.5474 16.5888 22.212C16.16 21.8952 15.6379 22.5846 16.0294 22.9386C16.5515 23.4231 17.1109 23.833 17.7263 24.187C17.95 24.3175 18.2297 24.2429 18.3603 24.0193C18.5094 23.7771 18.3976 23.5349 18.1924 23.3858C17.8009 23.0877 17.4093 22.7896 17.0177 22.4915C16.7567 22.2865 16.421 22.5101 16.3278 22.7709C16.0667 23.5349 16.1786 24.4106 16.6448 25.0814C16.8499 25.3795 17.4279 25.3982 17.5025 24.9696C17.6703 24.0566 17.2415 23.0877 16.3837 22.6592C16.0294 22.4728 15.6006 22.7709 15.6938 23.1809C15.7311 23.3486 15.787 23.5349 15.8243 23.7026C15.8803 23.9075 16.0667 24.038 16.2718 24.038C16.9245 24.0566 17.1482 23.274 16.7753 22.8082C16.6075 22.6033 16.3837 22.4542 16.1973 22.3051C15.9549 22.1188 15.7311 21.9325 15.4887 21.7462C15.4141 22.007 15.3582 22.2679 15.2836 22.5287C16.0294 22.3424 16.8499 22.5474 17.4093 23.0877C17.95 23.6281 18.1924 24.4479 18.006 25.1932C18.3043 25.2305 18.6213 25.2677 18.9197 25.3236C18.901 23.9262 18.1924 22.6405 17.055 21.8579C16.6075 21.5598 16.1227 22.212 16.4956 22.5846C17.372 23.479 17.9687 24.6529 18.1179 25.9012C18.1552 26.1248 18.267 26.3298 18.5281 26.3671C18.7518 26.3857 18.9756 26.2553 19.0315 26.0317C19.3858 24.7088 19.0502 23.2927 18.1552 22.2492C17.9314 22.4728 17.7076 22.6964 17.5025 22.9014C18.3976 23.7212 18.8264 24.9882 18.6027 26.1807C18.4908 26.777 19.2926 26.9819 19.4977 26.423C20.0012 25.1 19.7028 23.5908 18.8078 22.5101C18.4721 22.1002 17.7822 22.6405 18.0806 23.0691C18.7705 24.1498 19.0502 25.4541 18.8078 26.7211C18.6959 27.3173 19.4977 27.5409 19.7028 26.9633C20.2622 25.4168 19.9079 23.6653 18.8824 22.3983C18.7146 22.212 18.3976 22.2306 18.2297 22.3983C18.0433 22.5846 18.0619 22.8641 18.2297 23.0504C19.0688 24.0566 19.2553 25.4913 18.8264 26.7024C19.1248 26.777 19.4231 26.8701 19.7215 26.9447C20.0198 25.4354 19.7215 23.8703 18.901 22.566C18.6586 22.7523 18.4162 22.9386 18.1738 23.125C18.8637 23.9634 19.0129 25.1187 18.6213 26.1248C18.9197 26.1994 19.218 26.2925 19.5164 26.3671C19.8147 24.8392 19.3299 23.2368 18.1924 22.1747C17.7449 21.7648 17.1482 22.3797 17.5398 22.8268C18.2111 23.6094 18.4349 24.7087 18.1738 25.6963C18.4721 25.7335 18.7891 25.7708 19.0875 25.8267C18.901 24.3175 18.2484 22.9386 17.1855 21.8579C16.9991 22.1002 16.8126 22.3424 16.6261 22.5846C17.5025 23.1809 18.0246 24.2057 18.0246 25.2491C18.0246 25.7708 18.8078 25.9012 18.9383 25.3795C19.1994 24.3175 18.8824 23.1436 18.0992 22.361C17.3161 21.5785 16.1413 21.299 15.0785 21.5598C14.7615 21.6344 14.5936 22.1188 14.8733 22.3424C15.1158 22.5474 15.3768 22.7337 15.6192 22.9386C15.7311 23.0318 15.843 23.125 15.9548 23.2181C15.9921 23.2554 16.0294 23.3113 16.0854 23.3299C16.0481 23.1995 16.1227 23.1063 16.3091 23.0504C16.4583 23.1622 16.6075 23.274 16.7567 23.3858C16.7194 23.2181 16.6634 23.0318 16.6261 22.8641C16.4024 23.0318 16.1786 23.2181 15.9362 23.3858C16.4024 23.6094 16.7194 24.1311 16.6261 24.6529C16.9058 24.6156 17.1855 24.5783 17.4839 24.5411C17.1482 24.0566 17.0736 23.4976 17.2601 22.9573C17.0364 23.0504 16.8126 23.1436 16.5702 23.2368C16.9618 23.5349 17.3534 23.833 17.7449 24.1311C17.8941 23.8703 18.0619 23.5908 18.2111 23.3299C17.6703 23.0132 17.1669 22.6405 16.7007 22.2306C16.5142 22.4728 16.3278 22.7151 16.1413 22.9573C16.6821 23.3486 17.0364 23.9634 17.1669 24.597C17.2415 24.951 17.1482 25.4168 17.5398 25.6218C17.9873 25.864 18.5281 25.305 18.2297 24.8764C18.1365 24.746 17.9873 24.6342 17.8195 24.6529H17.8009C17.5398 24.6901 17.3533 24.8392 17.3347 25.1187C17.2788 25.7894 16.9991 26.4043 16.5888 26.9447C16.8872 27.0192 17.1669 27.0937 17.4652 27.1869C17.4839 26.7211 17.5212 26.2553 17.5398 25.7708C17.5585 25.3236 16.8872 25.1373 16.6634 25.5286C16.3837 26.0876 16.0294 26.6093 15.6192 27.0751C15.8803 27.1869 16.1413 27.2987 16.421 27.4105C16.4956 26.5907 16.738 25.7894 17.0923 25.0628C16.8126 24.951 16.5329 24.8205 16.2345 24.7087C16.0481 25.5286 15.6379 26.2366 15.0225 26.8142C15.2836 26.9633 15.5446 27.1124 15.8057 27.2614C15.9735 26.3857 16.2159 25.5472 16.5702 24.7274C16.2905 24.6901 16.0108 24.6529 15.7124 24.6156C15.8803 25.5472 15.6938 26.5348 15.209 27.3546C15.5073 27.4291 15.787 27.5037 16.0854 27.5968C16.0854 26.572 16.3837 25.6031 16.9245 24.746C16.6261 24.6715 16.3464 24.597 16.0481 24.5038C16.0108 24.9696 15.7684 25.3982 15.3954 25.659C15.6192 25.7522 15.843 25.8453 16.0854 25.9385C15.8989 25.3609 15.9549 24.746 16.2532 24.2057C15.9549 24.1311 15.6752 24.0566 15.3768 23.9634C15.3209 24.6529 15.0412 25.3236 14.575 25.8453C14.8361 25.9571 15.0971 26.0689 15.3768 26.1807C15.3582 25.305 15.3395 24.4479 15.3022 23.5722C15.2836 23.125 14.6496 22.92 14.4258 23.3299C14.0529 24.0566 13.624 24.746 13.1765 25.4354C13.4562 25.5472 13.7359 25.6777 14.0342 25.7894C14.2021 25.3236 14.5004 24.9323 14.8547 24.597C14.5936 24.4479 14.3326 24.2988 14.0715 24.1498C13.9224 24.6156 13.7545 25.0814 13.6054 25.5472C13.4376 26.0503 14.2207 26.3671 14.4631 25.9012C14.7615 25.3236 15.153 24.8205 15.6379 24.392C15.3768 24.2802 15.1157 24.1684 14.836 24.0566C14.7615 24.7646 14.5191 25.4541 14.1648 26.0689C14.4445 26.1807 14.7242 26.3112 15.0225 26.423C15.1903 25.6963 15.5073 25.0441 16.0294 24.4852C15.7684 24.3734 15.5073 24.2616 15.2276 24.1498C15.2276 24.8205 15.0971 25.4913 14.8174 26.0876C14.575 26.6279 15.2649 27.0565 15.6192 26.5534C15.8243 26.2739 16.0108 26.013 16.2159 25.7335C16.2532 25.6776 16.3651 25.5845 16.4024 25.51C16.4397 25.4168 16.1227 25.3609 16.1227 25.3609C16.104 25.3795 16.104 25.5472 16.104 25.5659C16.0481 26.218 15.9735 26.8701 15.9176 27.5223C15.8989 27.7459 16.104 27.9508 16.3278 27.9881C16.5702 28.0254 16.7567 27.8763 16.8312 27.6527C17.1482 26.7397 17.5398 25.8826 18.0433 25.0628C17.7822 25.0628 17.5025 25.0628 17.2415 25.0628C17.6703 26.0317 17.633 27.2055 17.1482 28.1558C17.4466 28.2303 17.7263 28.3049 18.0246 28.398C18.0992 27.6527 18.4535 26.9447 18.9943 26.4043C18.7332 26.2925 18.4721 26.1807 18.1924 26.0689C18.0806 27.1496 17.8195 28.1931 17.4279 29.1992C17.2415 29.6837 18.0433 30.0191 18.2857 29.5533C18.7146 28.752 19.1434 27.9508 19.5537 27.1496C19.2553 27.0751 18.9756 27.0006 18.6773 26.9074C18.5281 28.5844 17.5212 30.1309 16.0854 30.9693C16.3278 31.0998 16.5515 31.2302 16.7939 31.3793C16.7753 30.1122 17.1669 28.9011 17.8941 27.8577C17.6144 27.8204 17.3347 27.7831 17.0364 27.7459C17.1109 28.1558 16.9618 28.5844 16.7567 28.9384C16.6448 29.1433 16.5143 29.3297 16.3837 29.516C16.3091 29.6278 16.1227 29.9259 16.0108 29.9445C16.0854 29.9445 16.1786 29.9445 16.2532 29.9445C16.2346 29.9445 16.3837 30.0936 16.3651 30.1122C16.3464 30.1122 16.3651 30.0191 16.3651 30.0191C16.4024 29.8514 16.4583 29.6837 16.4956 29.516C16.5888 29.1806 16.6821 28.8452 16.7753 28.4912C16.9804 27.8018 17.1669 27.1124 17.372 26.4043C17.5398 25.8267 16.6448 25.5845 16.477 26.1621C16.0108 27.7272 15.526 29.311 15.0598 30.8762C14.892 31.4165 15.6192 31.6587 15.9176 31.2302C16.5329 30.3545 17.0923 29.4415 17.5958 28.4912C17.3161 28.3794 17.0364 28.249 16.738 28.1372C16.2346 29.311 15.526 30.429 14.6869 31.3793C14.5936 31.4724 14.4818 31.5656 14.3885 31.6587C14.3512 31.7146 14.3512 31.6774 14.4258 31.696L14.4818 31.7333C14.4631 31.7333 14.5004 31.4911 14.5191 31.4724C14.5564 31.3047 14.6123 31.1557 14.6682 30.988C14.892 30.2613 15.1344 29.5346 15.3582 28.8079C15.0598 28.7707 14.7428 28.7334 14.4445 28.6775C14.4445 29.1061 14.3699 29.5533 14.1834 29.9445C14.1648 29.9632 14.0902 30.0936 14.0902 30.1122C14.0902 30.0936 14.2021 30.1495 14.2021 30.1309C14.2021 30.1309 14.1461 30.075 14.1275 30.0377C14.1088 29.9818 14.0715 29.9073 14.0715 29.8327C13.941 29.0874 14.258 28.1931 14.6496 27.5409C14.3699 27.5037 14.0902 27.4664 13.7918 27.4291C13.941 28.4353 13.6054 29.516 12.9341 30.2613C13.1765 30.2986 13.4189 30.3172 13.6613 30.3545C13.4748 30.075 13.624 29.6092 13.68 29.2924C13.7545 28.8825 13.8478 28.4726 13.9783 28.0626C14.2207 27.2242 14.5377 26.4416 14.9479 25.6776C14.6496 25.6031 14.3699 25.5286 14.0715 25.4354C14.0715 26.1994 13.9037 26.9633 13.5867 27.6714C13.8664 27.7831 14.1461 27.9136 14.4445 28.0254C14.9293 26.7211 15.153 25.3236 15.1157 23.9262C15.1157 23.5908 14.8174 23.4231 14.5191 23.479C13.6986 23.6094 12.9527 24.0007 12.3374 24.5783C12.5985 24.6529 12.8595 24.7088 13.1206 24.7833C13.0833 24.6156 13.1951 24.4106 13.3816 24.392C13.2324 24.187 13.0833 24.0007 12.9341 23.7957C12.8222 24.392 12.4866 24.9137 11.9831 25.2491C12.2069 25.3423 12.4306 25.4354 12.673 25.5286C12.6357 25.2864 12.7476 25.0069 12.9527 24.8578C12.729 24.6901 12.5052 24.5038 12.2628 24.3361C12.2255 24.5783 12.1882 24.8392 12.1509 25.0814C12.1136 25.305 12.1882 25.5286 12.412 25.6218C12.6171 25.6963 12.8968 25.6404 12.99 25.4354C13.2511 24.8951 13.6613 24.4665 14.1834 24.1498C13.9783 23.9448 13.7545 23.7212 13.5494 23.5163C13.1019 24.5597 12.4866 25.5286 11.7221 26.3671C11.9831 26.5161 12.2442 26.6652 12.5052 26.8142C12.8782 25.0069 14.5191 23.8516 15.9548 22.8641C16.3464 22.6033 16.1786 22.0443 15.7124 21.9884C13.6613 21.8207 11.5542 23.0132 10.6406 24.8578C10.5473 25.0628 10.566 25.305 10.7524 25.4541C10.9203 25.5845 11.2186 25.6031 11.3678 25.4168C12.412 24.1498 13.8478 23.274 15.4514 22.9386C15.6938 22.8827 15.843 22.6033 15.7684 22.361C15.6938 22.1002 15.4514 21.9884 15.1903 22.0443C13.2511 22.3983 11.5169 23.5908 10.4541 25.2491C10.7338 25.3609 11.0135 25.4913 11.3118 25.6031C11.4237 25.1187 11.7594 24.746 12.2255 24.6156C12.0204 24.4665 11.8339 24.3175 11.6288 24.1684C11.5356 25.0255 11.1627 25.864 10.5846 26.5161C10.8457 26.6652 11.1067 26.8142 11.3678 26.9633C11.5729 26.1248 11.9458 25.3236 12.4866 24.6342C12.2255 24.5224 11.9645 24.4106 11.6848 24.2988C11.7966 25.51 11.5169 26.7211 10.8643 27.7645C11.1627 27.839 11.4424 27.9136 11.7407 28.0067C11.7407 26.926 12.2069 25.9199 12.99 25.1932C12.729 25.1187 12.4679 25.0628 12.2069 24.9882C12.6357 26.5161 12.356 28.1558 11.4797 29.4601C11.778 29.5346 12.0577 29.6092 12.356 29.7023C12.3374 28.3235 12.729 27.0006 13.4935 25.864C13.2138 25.8267 12.9341 25.7894 12.6357 25.7522C12.8222 27.0937 12.4493 28.4912 11.6475 29.5719C11.9272 29.6092 12.2069 29.6464 12.5052 29.6837C12.2255 28.4539 12.4679 27.1683 13.1579 26.1248C12.8968 26.1248 12.6171 26.1248 12.356 26.1248C12.9154 26.8515 13.046 27.7272 12.99 28.6216C12.9527 29.0688 12.8782 29.516 12.7849 29.9632C12.729 30.2054 12.673 30.4476 12.6171 30.6898C12.5985 30.783 12.5798 30.8762 12.5425 30.9507C12.5239 30.9693 12.5052 30.988 12.5052 31.0066C12.4866 31.0252 12.4866 31.0439 12.4679 31.0439C12.5425 30.988 12.6171 30.9693 12.7103 31.0066C12.7849 31.1743 12.8595 31.3606 12.9154 31.5283C13.1765 29.7768 13.5867 28.0626 14.1461 26.3857C13.8478 26.3857 13.5494 26.3857 13.2511 26.3857C13.8105 27.8577 13.6986 29.5346 12.9527 30.9134C13.2324 30.9507 13.5121 30.988 13.8105 31.0252C13.4748 29.4415 13.6613 27.7645 14.3326 26.2925C14.0529 26.2553 13.7732 26.218 13.4748 26.1807C13.9597 27.5409 13.8291 29.0502 13.1206 30.3172C13.4189 30.3917 13.6986 30.4663 13.997 30.5594C14.1461 29.1992 14.575 27.8577 15.2276 26.6652C14.9479 26.6279 14.6682 26.5907 14.3699 26.5534C14.8547 27.8763 14.5191 29.4228 13.5121 30.4104C13.7732 30.5222 14.0342 30.634 14.3139 30.7457C14.258 30.1495 14.3326 29.5719 14.5191 28.9943C14.6123 28.7148 14.7242 28.4539 14.8733 28.2117C14.9479 28.0999 15.0225 27.9695 15.0971 27.8577C15.1344 27.8018 15.1717 27.7645 15.209 27.7086C15.2276 27.6714 15.2649 27.6527 15.2836 27.6341C15.3209 27.5968 15.3022 27.6155 15.2649 27.6341C15.1903 27.6155 15.1157 27.5968 15.0225 27.5782C15.0039 27.5782 15.0225 27.5223 15.0225 27.5968C15.0225 27.6713 15.0785 27.7645 15.0971 27.839C15.1344 27.9695 15.153 28.0813 15.1717 28.2117C15.209 28.5098 15.1903 28.8266 15.1344 29.1247C15.0225 29.7209 14.7801 30.2799 14.3699 30.7271C14.5191 30.6898 14.6682 30.6526 14.8174 30.6153C14.8733 30.6339 14.8174 30.6526 14.8174 30.5967C14.8174 30.6153 14.7988 30.5035 14.7988 30.5035C14.7801 30.3545 14.8174 30.2613 14.836 30.1122C14.9106 29.7768 15.0225 29.4415 15.1717 29.1247C15.3395 28.7893 15.5446 28.4726 15.787 28.1931C15.843 28.1185 15.9735 27.9136 16.0854 27.8949C16.0667 27.8949 16.104 27.9322 16.1413 27.9695C16.1786 28.0067 16.1973 28.044 16.2345 28.0813C16.8126 28.8825 16.5702 30.1495 15.7124 30.6712C15.3209 30.8948 15.47 31.547 15.9548 31.547C15.9548 31.547 15.787 31.4724 15.8243 31.4538C15.787 31.4724 15.7497 31.5842 15.7311 31.6028C15.6379 31.7519 15.526 31.8823 15.4141 32.0128C15.2463 32.2177 14.9852 32.4227 14.7242 32.3482C14.6123 32.3109 14.7242 32.3668 14.6309 32.2923C14.6496 32.3109 14.6309 32.4041 14.6309 32.2736C14.6309 32.3295 14.6496 32.1991 14.6682 32.2177C14.6869 32.2177 14.6123 32.255 14.5936 32.255C14.575 32.255 14.4818 32.1991 14.5004 32.1805C14.5377 32.1805 14.5004 32.2923 14.5191 32.255C14.5004 32.3109 14.4072 32.3854 14.3139 32.4227C14.1834 32.4786 14.0342 32.4972 13.9037 32.46C13.8478 32.4413 13.7918 32.4413 13.7545 32.4041C13.7732 32.4227 13.6613 32.2736 13.6986 32.2736C13.7173 32.2736 13.8291 32.1805 13.6613 32.3295C13.7545 32.255 13.68 32.3482 13.6427 32.3109C13.624 32.2923 13.5121 32.1432 13.5681 32.1432C13.5681 32.1432 13.5308 32.1991 13.5121 32.2177C13.3443 32.3482 13.1206 32.2177 12.99 32.0873C12.8036 31.901 12.7663 31.7333 12.8595 31.5097C12.6357 31.6028 12.412 31.696 12.1696 31.7892C12.3747 31.901 12.5425 32.0873 12.5612 32.3295C12.5985 32.2177 12.6544 32.1059 12.6917 31.9941C12.7103 31.9755 12.7663 32.0128 12.7103 31.9941C12.673 31.9755 12.729 32.0128 12.6544 31.9755C12.5612 31.9382 12.4679 31.8637 12.412 31.7705C12.2628 31.5656 12.1696 31.2861 12.1323 31.0252C12.0204 30.4476 12.1696 29.87 12.4866 29.4042C12.2069 29.3669 11.9272 29.3297 11.6288 29.2924C11.9085 30.2799 11.9645 31.3234 11.778 32.3295C12.0391 32.255 12.3001 32.1991 12.5612 32.1246C11.6288 31.342 11.2186 30.0191 11.6102 28.8452C11.6848 28.6216 11.6475 28.8825 11.3864 28.8079C11.2186 28.7707 11.2932 28.7148 11.2932 28.7893C11.2745 28.8825 11.3118 29.0315 11.2932 29.1433C11.2745 29.4415 11.2559 29.7396 11.2 30.0377C11.0881 30.6526 10.9016 31.2116 10.3981 31.6028C10.6592 31.7146 10.9203 31.8264 11.2 31.9382C10.9389 29.6092 11.2372 27.2801 12.0577 25.0814C12.2255 24.6529 11.5729 24.2616 11.2745 24.6342C9.65228 26.6466 9.48446 29.665 10.9575 31.8078C11.2 31.6215 11.4424 31.4352 11.6848 31.2488C10.9016 30.634 10.51 29.7582 10.3236 28.7893C10.2303 28.3049 10.2117 27.8204 10.2117 27.336C10.2303 26.7956 10.2863 26.2553 10.5473 25.7708C10.9203 25.5845 10.1184 25.1187 9.83874 25.6404Z" fill="#231F20"/>
<path d="M30.1084 23.7962C30.0898 23.7962 30.0898 23.7962 30.0711 23.7962C30.183 23.8148 30.3135 23.8335 30.4254 23.8521C30.4254 23.8521 30.4068 23.8521 30.4068 23.8335C30.4813 23.9266 30.5559 24.0198 30.6119 24.113C30.5746 24.2247 30.5559 24.3179 30.5186 24.4297C30.444 24.467 30.3881 24.5042 30.3135 24.5415C30.3135 24.5415 30.3322 24.5415 30.3322 24.5229C30.2576 24.5229 30.1643 24.5229 30.0898 24.5229C30.0711 24.5229 30.0711 24.5229 30.0525 24.5229C29.9965 24.467 29.9406 24.4111 29.8846 24.3552C29.866 24.3179 29.8474 24.2993 29.866 24.2806C29.866 24.3179 29.8474 24.3738 29.8474 24.4111C29.8287 24.4856 29.8287 24.5415 29.8101 24.616C29.7914 24.8024 29.7541 24.9701 29.7541 25.1564C29.7355 25.4731 29.7168 25.8085 29.7355 26.1253C29.7728 26.8147 29.9033 27.4855 30.1084 28.1376C30.5373 29.4233 31.2831 30.5971 32.3274 31.4729C32.5138 31.2306 32.7003 30.9884 32.8868 30.7462C31.0407 29.591 31.1153 27.0756 31.1899 25.175C31.1899 24.9514 31.0034 24.7465 30.7797 24.7092C30.5373 24.6719 30.3508 24.821 30.2762 25.0446C29.6609 26.6097 29.7541 28.4171 30.5 29.9264C31.1713 31.2679 32.346 32.2927 33.7445 32.8331C33.9123 32.9076 34.1361 32.7958 34.2293 32.6654C34.3412 32.4977 34.3412 32.33 34.2666 32.1436C34.0801 31.7524 33.7259 31.4915 33.3529 31.2865C32.98 31.0816 32.6444 30.8766 32.3647 30.5599C31.8053 29.9636 31.5442 29.1438 31.6001 28.3239C31.3018 28.3612 30.9848 28.3985 30.6865 28.4544C31.0407 30.7089 32.663 32.6467 34.7701 33.4852C35.1244 33.6343 35.4041 33.2243 35.3481 32.9076C35.1057 31.7524 33.8937 31.3611 33.0359 30.7648C32.029 30.0754 31.8612 28.7898 31.768 27.6532C31.6747 26.7029 31.6001 25.7526 31.5256 24.8024C31.5069 24.5601 31.3204 24.3365 31.0594 24.3365C30.817 24.3365 30.5932 24.5415 30.5932 24.8024C30.6119 26.3489 30.8729 27.8768 31.3577 29.3487C31.4883 29.7773 32.1409 29.8146 32.2528 29.3487C32.7189 27.5973 32.5325 25.734 31.7307 24.1316C31.5815 23.8335 31.078 23.8148 30.9289 24.1316C30.4813 25.0819 30.5 26.1625 31.0034 27.0942C31.2086 27.4668 31.7307 27.3364 31.8612 26.9824C32.085 26.3861 31.7493 25.7899 31.3764 25.3427C31.0967 25.0073 30.7237 24.6906 30.8543 24.2247C31.134 23.1441 32.4392 23.2372 33.2038 23.6471C33.3156 23.3676 33.4462 23.0882 33.558 22.79C32.0477 22.2497 30.3322 23.1068 29.7355 24.5415C30.0338 24.5788 30.3508 24.616 30.6492 24.6719C30.5559 23.908 30.9848 23.2186 31.6374 22.8459C32.4019 22.3987 33.3529 22.436 34.1734 22.6037C34.3971 22.6596 34.6395 22.5478 34.7141 22.3428C34.7887 22.1379 34.7328 21.8584 34.5277 21.7652C33.5953 21.318 32.5138 21.3367 31.6001 21.8584C31.1526 22.1193 31.451 22.8832 31.9544 22.7155C33.5953 22.1752 35.4413 22.7528 36.5042 24.0943C36.6534 23.8335 36.8026 23.5726 36.9517 23.3117C35.143 22.5851 32.9054 22.0075 31.1153 23.1254C30.7424 23.349 30.8729 24.0198 31.3577 24.0012C32.2901 23.9453 33.2224 24.0198 34.1174 24.2434C34.1547 23.9453 34.192 23.6285 34.248 23.3304C33.0359 23.2558 31.4883 23.4422 30.817 24.616C30.5186 25.1564 30.5373 25.7899 30.9475 26.2743C31.3204 26.7029 31.9358 26.8706 32.4579 26.5725C32.2341 26.4048 32.0104 26.2184 31.768 26.0508C31.451 27.2432 31.6001 28.5289 32.2155 29.6096C32.4392 30.0009 33.1105 29.8332 33.0919 29.3674C33.0359 28.0631 32.7935 26.7774 32.3647 25.5663C32.2155 25.1564 31.5815 25.0819 31.4696 25.5663C31.0967 27.0383 31.2458 28.5662 31.8425 29.945C31.9731 30.2617 32.5138 30.2431 32.6444 29.945C33.3716 28.3612 33.4834 26.5166 32.8681 24.8583C32.7935 24.6719 32.6444 24.5229 32.4206 24.5229C32.2341 24.5229 32.0104 24.6719 31.9731 24.8583C31.5815 26.8147 31.6561 28.8643 32.2341 30.7835C32.2901 30.9698 32.4765 31.1375 32.6816 31.1188C33.5021 31.0816 33.5767 30.1872 33.4648 29.5537C33.3343 28.8457 32.98 28.1935 32.4765 27.6718C32.1782 27.355 31.712 27.6159 31.6747 28.0072C31.5628 29.386 32.029 30.7276 32.8681 31.7896C33.0173 31.5288 33.1665 31.2679 33.3156 31.0071C33.1292 30.9512 32.9986 30.858 32.8868 30.6903C32.8122 30.5599 32.6444 30.4481 32.4765 30.4667C31.9544 30.5412 31.7493 30.9512 31.8425 31.4356C31.9171 31.8642 32.2528 32.2741 32.5138 32.6095C33.1292 33.4107 34.0801 33.9138 35.0684 33.4852C35.3854 33.3548 35.3668 32.8331 35.0684 32.684C34.2666 32.2927 33.5767 31.7524 32.9986 31.063C32.6444 30.6344 32.029 31.1747 32.2714 31.6219C33.2224 33.4293 35.6092 34.1746 37.4365 33.2989C37.2501 33.0567 37.0636 32.8144 36.8771 32.5722C36.5229 33.0194 35.9448 33.0939 35.4414 32.8703C34.8447 32.6095 34.4158 32.0319 34.1361 31.4729C33.5207 30.2617 33.4275 28.7711 33.3156 27.4482C33.241 26.5538 33.2224 25.6408 33.4835 24.7651C33.1851 24.7278 32.8681 24.6906 32.5698 24.6347C32.7189 25.9762 32.8495 27.2991 32.9986 28.6407C33.1292 29.8146 33.3156 31.0257 33.9683 32.0505C34.2107 32.4418 34.826 32.2741 34.8447 31.8083C34.9006 29.8518 34.7141 27.8768 34.2853 25.9576C34.1734 25.4359 33.3716 25.5663 33.3716 26.088C33.3343 28.0258 33.5767 29.9636 34.0988 31.8269C34.192 32.1809 34.6209 32.2554 34.882 32.0319C35.6465 31.417 35.5905 30.299 35.4786 29.4233C35.3481 28.3239 35.0498 27.2619 34.6209 26.2557C34.4531 25.8831 33.8564 26.0135 33.7632 26.3675C33.297 28.3239 33.6326 30.4481 34.7328 32.1436C34.9006 32.4231 35.3668 32.479 35.5346 32.1436C35.9075 31.3797 35.9075 30.5412 35.5159 29.7959C35.3295 29.4419 34.7701 29.5351 34.6582 29.9077C34.3598 30.9884 34.4717 32.125 34.9565 33.1312C35.1057 33.4479 35.6092 33.4293 35.7583 33.1312C36.094 32.5163 36.0008 31.7896 35.5346 31.2493C35.2362 30.9139 34.5836 31.2679 34.7514 31.6965C34.8633 31.976 34.9752 32.2741 35.0871 32.5536C35.2362 32.9449 35.6838 33.0008 35.9448 32.6654C36.6161 31.771 36.672 30.504 36.1499 29.5164C35.9262 29.0879 35.3108 29.3115 35.2735 29.7587C35.2362 30.5226 35.46 31.3052 35.9262 31.9201C36.1126 32.1623 36.4296 32.2368 36.6534 32.0132C37.7535 30.9884 37.94 29.1251 37.045 27.914C36.8585 27.6718 36.3923 27.56 36.2432 27.914C35.7397 29.032 35.7583 30.2804 36.2991 31.3797C36.3923 31.566 36.6347 31.6406 36.8212 31.5847C37.0263 31.5288 37.1382 31.3424 37.1568 31.1375C37.2314 30.3735 36.989 29.6469 36.5042 29.0693C36.3177 28.8457 35.9075 28.9202 35.777 29.1624C35.4414 29.8332 35.2549 30.5785 35.2922 31.3238C35.3108 31.6965 35.3668 32.0691 35.4973 32.4231C35.5532 32.6095 35.6278 32.7958 35.7211 32.9635C35.8516 33.1871 36.038 33.2802 36.2991 33.2802C37.0077 33.2989 37.4552 32.5908 37.623 31.976C37.8468 31.1561 37.8841 30.2617 37.7722 29.4233C37.7349 29.1997 37.623 28.9947 37.362 28.9575C37.1382 28.9388 36.8958 29.0693 36.8585 29.2928C36.672 30.1686 36.5788 31.063 36.6161 31.9573C36.6347 32.4045 37.2501 32.6095 37.4925 32.1995C38.0146 31.2679 38.0519 30.1872 37.623 29.2183C37.4738 28.8829 36.989 28.9575 36.8212 29.2183C36.2432 30.1686 36.2059 31.3424 36.6534 32.3486C36.7653 32.6095 37.2128 32.6654 37.3806 32.4418C38.0146 31.6778 38.3689 30.7648 38.4435 29.7587C38.1451 29.7959 37.8281 29.8332 37.5298 29.8891C37.8654 30.9512 37.6976 32.1809 36.9704 33.0566C36.8212 33.243 36.7839 33.4666 36.9331 33.6715C37.0636 33.8392 37.3433 33.9324 37.5298 33.7833C39.3944 32.3672 40.0098 29.6655 38.8723 27.6159C38.7418 27.3737 38.3316 27.2991 38.1451 27.5227C37.8095 27.914 37.8468 28.3798 38.0332 28.8457C38.1824 29.2183 38.3316 29.5723 38.3689 29.9823C38.4248 30.7648 38.1824 31.5474 37.6417 32.125C37.4925 32.2927 37.4552 32.5536 37.6044 32.7399C37.7349 32.9076 38.0146 33.0008 38.2011 32.8517C39.0029 32.2368 39.5996 31.417 39.9165 30.4294C39.6182 30.3549 39.3199 30.2617 39.0215 30.1872C38.891 30.8766 38.6672 31.566 38.3689 32.2182C38.2756 32.4231 38.2943 32.6654 38.4808 32.8144C38.6486 32.9449 38.9469 32.9635 39.0961 32.7772C39.9911 31.6592 40.4387 30.2058 40.2522 28.7711C40.0844 27.3923 39.3572 26.1067 38.257 25.2682C38.0705 25.1191 37.8468 25.0819 37.6417 25.2309C37.4738 25.3613 37.3806 25.6408 37.5298 25.8272C38.4994 27.2432 39.0961 28.9016 39.208 30.6344C39.2266 30.858 39.3758 31.063 39.6182 31.1002C39.8233 31.1188 40.0844 31.0071 40.1217 30.7648C40.5505 28.268 39.6555 25.6222 37.7535 23.9266C37.306 23.5167 36.728 24.1316 37.1009 24.5788C38.1078 25.8085 38.7978 27.2619 39.152 28.8084C39.2639 29.2556 39.9538 29.2556 40.0471 28.8084C40.3268 27.5041 39.9911 26.1439 39.2639 25.0446C38.5367 23.9453 37.5111 23.1254 36.411 22.436C36.2618 22.6969 36.094 22.9764 35.9448 23.2372C38.1265 24.2993 38.9842 26.852 39.1893 29.1065C39.2453 29.6096 39.9538 29.7587 40.103 29.2369C40.6251 27.4482 39.842 25.4359 38.2756 24.4297C37.8281 24.1502 37.306 24.821 37.7162 25.1564C39.0215 26.2557 39.7114 27.8954 39.5996 29.591C39.8979 29.5537 40.2149 29.5164 40.5132 29.4605C40.2335 27.8954 39.6741 26.1626 38.0892 25.4731C37.3992 25.175 36.2245 25.026 36.0008 25.9949C35.9075 26.442 35.9448 26.9265 35.9821 27.3737C36.0194 27.8395 36.1126 28.3053 36.2432 28.7525C36.3923 29.2556 37.1568 29.1624 37.1568 28.6221C37.1382 27.355 36.5788 26.1253 35.6278 25.3054C35.3668 25.0819 34.9379 25.1564 34.8447 25.5104C34.7514 25.9203 34.6582 26.3302 34.6023 26.7402C34.5463 27.1128 34.4717 27.4855 34.4904 27.8581C34.5277 28.5103 34.9006 29.181 35.6465 29.0506C35.9075 28.9947 36.0194 28.7152 35.9635 28.473C35.7024 27.3178 35.4041 26.1998 35.0125 25.0819C34.9006 24.7278 34.3412 24.5788 34.1547 24.9701C33.5394 26.2557 33.7632 27.8395 34.7701 28.8829C35.0498 29.1624 35.5719 28.9575 35.5719 28.5475C35.5532 27.8768 35.4973 27.206 35.4041 26.5352C35.3295 25.9949 35.1057 25.2682 34.3971 25.38C34.0801 25.4359 33.8004 25.6781 33.7072 25.9949C33.5953 26.3302 33.7072 26.6656 33.8377 26.9824C34.1174 27.5973 34.4158 28.2121 34.7141 28.8084C34.7887 28.9761 35.0125 29.0506 35.1803 29.032C35.3854 28.9947 35.4973 28.8829 35.5719 28.6966C36.2618 27.0197 35.2176 24.9701 33.5394 24.4111C33.5021 24.7092 33.4648 25.026 33.4089 25.3241C34.192 25.3054 34.9379 25.4918 35.6092 25.8831C36.0008 26.1067 36.5042 25.6408 36.2432 25.2495C35.6465 24.3365 34.6582 23.7589 33.5767 23.6844C33.614 23.9825 33.6513 24.2993 33.7072 24.5974C34.2666 24.3738 34.7887 24.6906 35.1803 25.0819C35.6465 25.5663 36.0194 26.1625 36.411 26.7215C36.7466 27.206 37.5111 26.7774 37.2128 26.2557C36.6347 25.2309 35.8516 24.2993 34.9192 23.5726C34.7328 23.8148 34.5463 24.0571 34.3598 24.2993C35.5159 24.8955 36.4856 25.8085 37.1382 26.9265C37.3993 26.7774 37.679 26.6097 37.94 26.4607C37.306 25.529 36.672 24.5974 36.0194 23.6658C35.777 23.8521 35.5346 24.0384 35.2922 24.2247C36.1126 25.0819 36.6534 26.1439 36.8771 27.2991C37.1568 27.1873 37.4365 27.0569 37.7349 26.9451C37.1755 26.1625 36.7839 25.3054 36.5788 24.3552C36.3177 24.5042 36.0567 24.6533 35.7956 24.8024C36.728 25.6408 37.2501 26.852 37.2128 28.119C37.5111 28.0817 37.8281 28.0445 38.1265 27.9886C38.0332 27.56 37.9586 27.1315 37.8654 26.7215C37.7535 26.1998 36.9517 26.3302 36.9517 26.852C36.9517 27.3364 36.9704 27.8209 36.9704 28.3053C36.9704 28.9016 37.8841 28.9016 37.9027 28.3053C37.9214 27.3737 37.7908 26.442 37.5298 25.529C37.3806 25.026 36.6161 25.1191 36.6161 25.6595C36.5974 26.6656 36.6347 27.6904 36.672 28.6966C36.6907 29.0693 37.1941 29.3487 37.4738 29.032C37.8095 28.6407 37.8468 28.119 37.5857 27.6904C37.362 27.2805 36.8771 27.001 36.3923 27.1128C35.4414 27.3364 35.2549 28.7339 36.0753 29.2369C36.411 29.4419 36.8958 29.1065 36.7653 28.7152C36.5602 28.119 36.3737 27.5414 36.1686 26.9451C36.0194 26.5166 35.4041 26.4793 35.2735 26.9451C35.143 27.4296 35.143 27.9513 35.3108 28.4171C35.3854 28.6407 35.5905 28.7898 35.8143 28.7525C36.0567 28.7152 36.1872 28.5289 36.2245 28.2867C36.2804 27.914 36.3177 27.5414 36.3737 27.1873C36.1126 27.2991 35.8516 27.4109 35.5719 27.5227C35.9075 27.9513 36.2432 28.3612 36.5788 28.7898C36.728 28.9761 37.0823 28.9575 37.2314 28.7898C37.679 28.2867 37.9959 27.7277 38.1638 27.0756C37.8654 27.0383 37.5484 27.001 37.2501 26.9451C37.2501 27.56 37.2687 28.1935 37.2687 28.8084C37.2687 29.3674 37.9959 29.4046 38.1824 28.9388C38.4062 28.3426 38.5181 27.6904 38.4808 27.0383C38.4435 26.5352 37.679 26.3675 37.5671 26.9079C37.3806 27.7836 37.2687 28.678 37.2501 29.591C37.2314 30.1127 38.0519 30.2245 38.1638 29.7214C38.3316 28.9575 38.4435 28.1935 38.4808 27.4109C38.5181 26.8147 37.5857 26.8147 37.5484 27.4109C37.5111 28.1004 37.4179 28.7898 37.2687 29.4792C37.5671 29.5164 37.8841 29.5537 38.1824 29.6096C38.2011 28.7898 38.2943 27.9886 38.4621 27.1873C38.1638 27.1501 37.8468 27.1128 37.5484 27.0569C37.5857 27.6345 37.4925 28.1749 37.2874 28.7152C37.5857 28.7525 37.9027 28.7898 38.2011 28.8457C38.2011 28.2308 38.1824 27.5973 38.1824 26.9824C38.1824 26.4607 37.3993 26.3489 37.2687 26.852C37.1382 27.3364 36.9144 27.7836 36.5788 28.1562C36.8026 28.1562 37.0263 28.1562 37.2314 28.1562C36.8958 27.7277 36.5601 27.3178 36.2245 26.8892C36.1126 26.7402 35.8702 26.7215 35.7211 26.7961C35.5346 26.8706 35.46 27.0197 35.4414 27.2246C35.3854 27.5973 35.3481 27.9699 35.2922 28.3239C35.5905 28.2867 35.9075 28.2494 36.2059 28.1935C36.094 27.8581 36.0753 27.5414 36.1686 27.206C35.8702 27.206 35.5719 27.206 35.2735 27.206C35.4786 27.8022 35.6651 28.3798 35.8702 28.9761C36.094 28.8084 36.3177 28.6221 36.5601 28.4544C36.4669 28.3985 36.5788 28.473 36.5042 28.4171C36.5601 28.473 36.5042 28.3612 36.5042 28.4171C36.5042 28.3985 36.4856 28.2867 36.4856 28.3612C36.4856 28.3239 36.4856 28.268 36.4856 28.2121C36.4669 28.2867 36.5042 28.1749 36.5042 28.1562C36.4856 28.2308 36.5229 28.119 36.5415 28.1003C36.5974 28.0072 36.5229 28.1376 36.5788 28.0445C36.5602 28.0817 36.5788 28.0445 36.5974 28.0445C36.6161 28.0445 36.6347 28.0445 36.6534 28.0445C36.6907 28.0631 36.728 28.1003 36.7653 28.1562C36.8026 28.2121 36.8212 28.268 36.8212 28.3053C36.8212 28.3239 36.8212 28.3612 36.8212 28.3798C36.8212 28.3426 36.8212 28.3426 36.8212 28.3798L36.8026 28.4171C37.0636 28.5289 37.3247 28.6407 37.6044 28.7525C37.5484 27.7463 37.5298 26.7215 37.5484 25.7154C37.2501 25.7526 36.9331 25.7899 36.6347 25.8458C36.8771 26.6656 36.989 27.5041 36.9704 28.3612C37.2874 28.3612 37.5857 28.3612 37.9027 28.3612C37.9027 27.8768 37.8841 27.3923 37.8841 26.9079C37.5857 26.9451 37.2687 26.9824 36.9704 27.0383C37.0636 27.4668 37.1382 27.8954 37.2314 28.3053C37.3433 28.827 38.1265 28.6966 38.1451 28.1749C38.2011 26.6843 37.5671 25.2123 36.4483 24.2061C36.094 23.8894 35.5719 24.2061 35.6651 24.6533C35.8889 25.6595 36.3177 26.6284 36.9144 27.4668C37.2314 27.8954 37.8841 27.6532 37.7722 27.1128C37.5111 25.8085 36.8585 24.5974 35.9448 23.6285C35.5905 23.2558 34.9006 23.7403 35.2176 24.1875C35.8516 25.1191 36.4856 26.0508 37.1382 26.9824C37.4738 27.4668 38.257 27.0383 37.94 26.5166C37.1941 25.2682 36.1126 24.2247 34.826 23.554C34.6209 23.4422 34.3598 23.4794 34.2293 23.6658C34.0988 23.8335 34.0801 24.1316 34.2666 24.2806C35.143 24.9701 35.8702 25.8085 36.411 26.7774C36.672 26.6284 36.9517 26.4607 37.2128 26.3116C36.728 25.6408 36.2804 24.8769 35.6651 24.3179C35.0684 23.7962 34.2293 23.4608 33.4462 23.7589C32.9613 23.9453 33.0173 24.6347 33.5767 24.6719C34.3226 24.7278 35.0311 25.1377 35.4414 25.7713C35.6465 25.5663 35.8702 25.3427 36.0753 25.1378C35.2549 24.6719 34.3412 24.4483 33.4089 24.4483C32.8681 24.4483 32.7935 25.1936 33.2783 25.3613C34.5463 25.7713 35.143 27.3178 34.6582 28.4916C34.9379 28.4544 35.2176 28.4171 35.5159 28.3798C35.3108 27.9699 35.1244 27.56 34.9192 27.1501C34.826 26.9451 34.7141 26.7402 34.6209 26.5352C34.6023 26.4979 34.5836 26.3302 34.565 26.3116C34.5836 26.293 34.5836 26.293 34.5463 26.3302C34.4904 26.3489 34.4344 26.3489 34.3971 26.3116C34.3412 26.3302 34.3785 26.2184 34.3785 26.3302C34.3785 26.4048 34.4158 26.4793 34.4344 26.5538C34.4717 26.7588 34.4904 26.9824 34.509 27.1873C34.565 27.6532 34.5836 28.119 34.6023 28.5848C34.8633 28.473 35.1244 28.3612 35.4041 28.2494C34.7141 27.5227 34.509 26.3675 34.9379 25.4731C34.6582 25.4359 34.3785 25.3986 34.0801 25.3613C34.4531 26.4793 34.7701 27.5973 35.0311 28.7525C35.143 28.5662 35.2549 28.3612 35.3481 28.1749C35.3668 28.1749 35.4973 28.1935 35.4786 28.2121C35.46 28.2308 35.4041 28.0445 35.4041 28.0258C35.3668 27.8581 35.3854 27.6718 35.4041 27.4668C35.46 26.9079 35.5719 26.3489 35.7024 25.7899C35.4414 25.8644 35.1803 25.9203 34.9192 25.9949C35.7024 26.6656 36.1686 27.6159 36.1686 28.6407C36.4669 28.6034 36.7839 28.5662 37.0823 28.5103C36.8771 27.8022 36.7839 27.0942 36.8212 26.3489C36.8212 26.293 36.8212 26.2184 36.8398 26.1625C36.8212 26.1812 36.7839 26.1998 36.8398 26.1812C36.9331 26.1439 37.045 26.1626 37.1382 26.1812C37.3993 26.2184 37.6603 26.3302 37.8841 26.4607C39.0029 27.1501 39.3012 28.5103 39.525 29.7214C39.5623 29.945 39.8233 30.094 40.0284 30.0568C40.2708 30.0195 40.42 29.8332 40.4387 29.591C40.5878 27.6718 39.7487 25.734 38.2943 24.4856C38.1078 24.7278 37.9214 24.9701 37.7349 25.2123C38.9656 25.9762 39.5436 27.5786 39.1334 28.9575C39.4317 28.9947 39.7487 29.032 40.0471 29.0879C39.8047 26.5166 38.8164 23.6099 36.3364 22.3987C35.7956 22.1379 35.3481 22.8832 35.8702 23.1999C37.6603 24.2993 39.5996 26.1812 39.0774 28.5103C39.3758 28.5103 39.6741 28.5103 39.9725 28.5103C39.5809 26.8147 38.7791 25.2309 37.6789 23.8707C37.4552 24.0943 37.2314 24.3179 37.0263 24.5229C38.6672 25.9762 39.525 28.2867 39.1707 30.4481C39.469 30.4853 39.786 30.5226 40.0844 30.5785C39.9725 28.6966 39.3572 26.8706 38.2943 25.3054C38.0519 25.4918 37.8095 25.6781 37.5671 25.8644C38.4808 26.5725 39.1334 27.6159 39.2826 28.7711C39.4504 29.9264 39.1147 31.1561 38.3875 32.0505C38.6299 32.2368 38.8723 32.4231 39.1147 32.6095C39.4504 31.8828 39.7114 31.1375 39.8606 30.3549C39.9725 29.7773 39.152 29.5351 38.9656 30.1127C38.7418 30.8394 38.2943 31.5101 37.6789 31.976C37.8654 32.2182 38.0519 32.4604 38.2383 32.7026C38.8537 32.0505 39.1893 31.212 39.2453 30.3176C39.2639 29.9077 39.2266 29.4605 39.0961 29.0693C39.0402 28.8643 38.9283 28.6593 38.8537 28.473C38.835 28.4357 38.7045 28.1562 38.7418 28.119C38.4994 28.0817 38.257 28.0631 38.0146 28.0258C38.891 29.6096 38.4621 31.8269 37.0077 32.9262C37.1941 33.1684 37.3806 33.4107 37.5671 33.6529C38.4808 32.5163 38.8164 30.9884 38.3502 29.591C38.1824 29.0879 37.4738 29.1997 37.4365 29.7214C37.3806 30.4481 37.1009 31.1747 36.6347 31.7337C36.8771 31.771 37.1196 31.7896 37.362 31.8269C37.045 31.1188 37.1195 30.299 37.5298 29.6469C37.2687 29.6469 36.989 29.6469 36.728 29.6469C37.0077 30.299 36.9517 31.0816 36.5974 31.6965C36.8958 31.771 37.1755 31.8455 37.4738 31.9387C37.4552 31.1188 37.5298 30.3176 37.6976 29.5164C37.3993 29.4792 37.0823 29.4419 36.7839 29.386C36.8771 30.0568 36.8585 30.7276 36.728 31.3983C36.672 31.6406 36.6347 31.8642 36.5042 32.0877C36.4669 32.1623 36.3923 32.2368 36.3364 32.2741C36.2618 32.33 36.2804 32.3113 36.2245 32.2927C36.3177 32.3672 36.411 32.4418 36.5042 32.4977C36.0567 31.5847 36.0753 30.4667 36.5415 29.5723C36.2991 29.6096 36.0567 29.6282 35.8143 29.6655C36.1313 30.0754 36.2432 30.5785 36.1872 31.0816C36.4856 31.0071 36.7653 30.9325 37.0636 30.8394C36.672 30.0568 36.6534 29.1065 37.0077 28.3053C36.7466 28.3053 36.4669 28.3053 36.2059 28.3053C36.8585 29.1997 36.7839 30.504 35.9635 31.2865C36.2059 31.3238 36.4483 31.3424 36.6907 31.3797C36.3177 30.8766 36.1313 30.299 36.1686 29.6841C35.8702 29.7587 35.5905 29.8332 35.2922 29.9264C35.6838 30.6344 35.5719 31.4915 35.0871 32.125C35.3668 32.1623 35.6465 32.1995 35.9448 32.2368C35.8329 31.9573 35.7211 31.6592 35.6092 31.3797C35.3481 31.5288 35.0871 31.6778 34.826 31.8269C34.9938 32.0318 35.0311 32.33 34.9006 32.5722C35.1617 32.5722 35.4414 32.5722 35.7024 32.5722C35.3295 31.7896 35.2549 30.8953 35.4973 30.0754C35.2176 30.1127 34.9379 30.1499 34.6395 30.1872C34.8633 30.6158 34.882 31.1561 34.6582 31.6033C34.9192 31.6033 35.1989 31.6033 35.46 31.6033C34.4904 30.1127 34.1734 28.268 34.5836 26.5352C34.3039 26.5725 34.0242 26.6097 33.7259 26.647C34.0801 27.4855 34.3412 28.3985 34.4531 29.3115C34.5463 29.9264 34.6955 30.8394 34.1361 31.3052C34.3971 31.3797 34.6582 31.4356 34.9192 31.5101C34.4158 29.7214 34.192 27.8768 34.2107 26.0135C33.9123 26.0508 33.5953 26.088 33.297 26.1439C33.6886 27.9886 33.8564 29.8518 33.8191 31.7337C34.1174 31.6592 34.3971 31.5847 34.6955 31.4915C34.1174 30.5599 33.9496 29.4605 33.8377 28.3985C33.6886 27.1128 33.558 25.8458 33.4275 24.5601C33.3716 24.0571 32.663 23.908 32.5138 24.4297C32.2528 25.3241 32.2341 26.2557 32.3087 27.1873C32.3833 28.0445 32.4765 28.9016 32.6257 29.74C32.8868 31.2679 33.5394 33.038 35.0871 33.6715C35.8889 34.0069 36.9331 33.8765 37.4925 33.1498C37.8095 32.7399 37.4365 32.1809 36.9331 32.4231C35.5532 33.0939 33.7445 32.4418 33.0359 31.0816C32.7935 31.2679 32.5511 31.4542 32.3087 31.6406C32.924 32.3672 33.7072 32.9821 34.5836 33.4107C34.5836 33.1498 34.5836 32.8703 34.5836 32.6095C34.1361 32.7958 33.6513 32.4418 33.3716 32.125C33.1851 31.9201 33.0359 31.6965 32.9054 31.4542C32.8495 31.3611 32.7935 31.2679 32.7749 31.212C32.7376 31.1002 32.7935 31.2306 32.7562 31.1188C32.7562 31.1002 32.7562 31.0816 32.7562 31.063C32.7749 31.1934 32.6816 31.2679 32.4952 31.3052C32.3646 31.2306 32.2341 31.1561 32.085 31.0816C32.3087 31.4542 32.6444 31.7151 33.0732 31.8269C33.558 31.9387 33.8004 31.3983 33.5207 31.0443C32.8122 30.1686 32.5138 29.032 32.5884 27.914C32.3274 28.0258 32.0663 28.1376 31.7866 28.2494C32.085 28.5662 32.3087 28.9388 32.4392 29.3487C32.4952 29.5537 32.5325 29.74 32.5511 29.945C32.5511 30.0195 32.5325 30.0382 32.5325 30.1313C32.5325 30.0941 32.5325 30.1686 32.5138 30.1686C32.5138 30.1686 32.6071 30.0941 32.6444 30.0941C32.7935 30.2058 32.9427 30.3176 33.0919 30.4294C32.5698 28.678 32.4765 26.7961 32.8308 25.0073C32.5325 25.0073 32.2341 25.0073 31.9358 25.0073C32.4579 26.4234 32.4392 28.0072 31.8053 29.3674C32.0663 29.3674 32.346 29.3674 32.6071 29.3674C32.1222 28.2121 32.029 26.9079 32.3274 25.6967C32.029 25.6967 31.7307 25.6967 31.4323 25.6967C31.8425 26.852 32.0849 28.0445 32.1222 29.2556C32.4206 29.181 32.7003 29.1065 32.9986 29.0134C32.5138 28.1376 32.4019 27.1315 32.663 26.1812C32.7749 25.7899 32.3274 25.4545 31.9731 25.6595C31.8985 25.7154 31.8612 25.6967 31.7866 25.6595C31.6747 25.6036 31.5815 25.5104 31.5442 25.3986C31.451 25.175 31.6374 24.8769 31.8239 24.7092C32.4392 24.113 33.4275 24.113 34.2293 24.1689C34.7514 24.2061 34.8633 23.3863 34.3598 23.2558C33.3716 23.0136 32.3647 22.9205 31.3391 22.9764C31.4137 23.2745 31.4883 23.554 31.5815 23.8521C33.1478 22.8646 35.1244 23.4981 36.6907 24.1316C36.8771 24.2061 37.1195 24.0757 37.2128 23.9266C37.3247 23.7403 37.2687 23.5353 37.1382 23.3676C35.8889 21.7839 33.614 21.1131 31.6934 21.7466C31.8053 22.0261 31.9358 22.3056 32.0477 22.6037C32.6444 22.2683 33.4089 22.2124 34.0242 22.5105C34.1361 22.231 34.2666 21.9516 34.3785 21.6534C33.2783 21.4298 32.0477 21.4112 31.0594 22.0261C30.183 22.5664 29.549 23.5726 29.6795 24.616C29.7541 25.1378 30.3881 25.2495 30.5932 24.7465C31.0034 23.7403 32.2901 23.2931 33.2597 23.6471C33.7632 23.8335 34.0801 23.0323 33.614 22.79C32.4392 22.1752 30.7797 22.1565 30.0711 23.4608C29.7728 24.0198 29.7355 24.6906 30.0711 25.2309C30.2389 25.5104 30.5 25.7526 30.7051 25.9949C30.8729 26.1998 31.0034 26.4234 30.9102 26.6656C31.1899 26.6284 31.4696 26.5911 31.768 26.5538C31.4323 25.939 31.395 25.175 31.6934 24.5229C31.4323 24.5229 31.1526 24.5229 30.8916 24.5229C31.5815 25.9203 31.7307 27.5414 31.3204 29.032C31.6188 29.032 31.9171 29.032 32.2155 29.032C31.768 27.6345 31.5256 26.1998 31.4883 24.7278C31.1713 24.7278 30.8729 24.7278 30.5559 24.7278C30.6305 25.5849 30.7051 26.4234 30.7797 27.2805C30.8356 27.9699 30.8916 28.6593 31.0594 29.3301C31.2272 29.9636 31.5256 30.5971 31.9917 31.063C32.4019 31.4729 32.9054 31.7337 33.4089 32.0132C33.6513 32.1436 33.875 32.2927 34.0615 32.4604C34.2666 32.6467 34.3598 32.8144 34.4158 33.0753C34.6023 32.889 34.8074 32.684 34.9938 32.4977C33.1851 31.771 31.8798 30.0382 31.5628 28.119C31.5255 27.8954 31.2645 27.7463 31.0594 27.7836C30.817 27.8209 30.6678 28.0072 30.6492 28.2494C30.5746 29.2183 30.9102 30.1686 31.5069 30.9325C31.7866 31.3052 32.1595 31.6033 32.5511 31.8455C32.8868 32.0319 33.2783 32.1809 33.4462 32.5536C33.614 32.33 33.8004 32.1064 33.9683 31.8642C32.8122 31.417 31.8425 30.504 31.2831 29.386C30.6305 28.1004 30.6305 26.5538 31.1526 25.2309C30.8543 25.1936 30.5373 25.1564 30.2389 25.1005C30.183 26.3675 30.1457 27.6718 30.5186 28.8829C30.8356 29.9264 31.451 30.8766 32.3833 31.4729C32.8308 31.7524 33.3529 31.0816 32.9427 30.7462C32.0104 29.945 31.3204 28.8829 30.9475 27.7091C30.761 27.1315 30.6492 26.5352 30.6305 25.939C30.6119 25.6222 30.6305 25.3054 30.6492 24.9887C30.6865 24.6906 30.7983 24.3552 30.761 24.0571C30.6865 23.5912 30.0898 23.2931 29.7728 23.7403C29.4744 24.1316 29.7914 24.7278 30.2949 24.5974C30.9289 24.5229 30.6865 23.6285 30.1084 23.7962Z" fill="#231F20"/>
<path d="M9.03718 45.8189C8.81342 45.4463 8.47778 45.0177 7.99296 44.9991C7.47086 44.9618 7.22845 45.4463 7.04198 45.8562C6.79958 46.4338 6.61311 47.0114 6.42664 47.589C6.25882 48.148 6.091 48.7256 6.1283 49.3033C6.16559 49.8622 6.3707 50.3653 6.63176 50.8498C6.76228 51.092 6.9301 51.3342 7.07928 51.5764C7.2098 51.7628 7.34033 51.9864 7.54544 52.0982C8.0862 52.3963 8.3286 51.7255 8.45913 51.3342C8.6456 50.7752 8.75748 50.179 8.77612 49.5827C8.79477 49.0797 8.75748 48.4089 8.27266 48.1108C7.91838 47.8872 7.34033 47.9431 7.15386 48.353C7.02334 48.6325 7.43356 48.8561 7.56409 48.5952C7.69462 48.3157 8.0489 48.4648 8.17943 48.6697C8.3659 48.9865 8.3286 49.415 8.30996 49.7691C8.29131 50.2163 8.19808 50.6448 8.06755 51.0547C8.01161 51.2411 7.95567 51.4646 7.84379 51.6323C7.78785 51.7255 7.8065 51.7069 7.71326 51.6696C7.63868 51.6323 7.58274 51.5205 7.5268 51.446C7.07928 50.7939 6.59446 50.0486 6.55717 49.2287C6.53852 48.8188 6.6504 48.4089 6.76228 48.0176C6.87416 47.589 7.00469 47.1791 7.15386 46.7692C7.22845 46.5456 7.32168 46.322 7.39627 46.1171C7.47086 45.9307 7.54544 45.6885 7.69462 45.5581C8.03026 45.2786 8.42184 45.8376 8.57101 46.0798C8.79477 46.3034 9.18635 46.0798 9.03718 45.8189Z" fill="#231F20"/>
<path d="M8.17915 50.1422C8.23509 50.3099 8.29103 50.3658 8.32833 50.2913C8.32833 50.2913 8.32833 50.2727 8.34697 50.2727C8.34697 50.2727 8.38427 50.254 8.40291 50.254C8.49615 50.2354 8.58938 50.254 8.68261 50.254C8.86908 50.2354 9.0369 50.1609 9.11149 49.9932C8.98096 50.0118 8.86908 50.0304 8.73855 50.0491C9.22337 50.4776 9.35389 51.1484 9.44713 51.7633C9.55901 52.5645 9.67089 53.3843 9.72683 54.1855C9.78277 55.024 9.80141 55.8625 9.67089 56.6823C9.65224 56.7755 9.65224 57.1109 9.54036 57.1481C9.40983 57.1854 9.26066 56.85 9.22337 56.7568C9.07419 56.4587 8.96231 56.1233 8.90637 55.7879C8.7572 55.0054 8.83179 54.1855 8.90637 53.403C8.92502 53.1048 8.45885 53.1048 8.44021 53.403C8.36562 54.2414 8.30968 55.0799 8.45885 55.8997C8.55209 56.4028 8.94367 57.8562 9.70818 57.5767C10.0998 57.4276 10.1184 56.8873 10.1557 56.5332C10.2116 56.0488 10.2489 55.5457 10.2303 55.0426C10.2116 54.0551 10.0998 53.0676 9.95059 52.0987C9.83871 51.2416 9.74547 50.2727 9.05555 49.6764C8.96231 49.5832 8.7572 49.5832 8.68261 49.7323C8.64532 49.8068 8.40291 49.7509 8.30968 49.7696C8.16051 49.7882 8.02998 49.8627 7.93675 49.9932C7.76893 50.2354 7.84351 50.5521 8.16051 50.5894C8.4775 50.6267 8.4775 50.1609 8.17915 50.1422Z" fill="#231F20"/>
<path d="M10.565 55.9186C10.5837 55.9373 10.5837 55.9559 10.6023 55.9745C10.6023 56.0118 10.5837 55.9932 10.6023 55.9932C10.6023 55.9932 10.621 55.9745 10.6396 55.9745C10.6396 55.9745 10.6396 55.9559 10.6583 55.9745C10.621 55.9559 10.6769 55.9932 10.6769 55.9932C10.8075 56.105 10.8447 56.3286 10.882 56.4776C10.9939 56.9248 10.9939 57.3906 10.9007 57.8378C10.882 57.9682 10.938 58.08 11.0685 58.1173C11.1804 58.1546 11.3296 58.08 11.3482 57.9496C11.4228 57.5956 11.4414 57.2416 11.4041 56.8875C11.3669 56.5521 11.3109 56.2168 11.1804 55.9C11.0685 55.6391 10.7888 55.3969 10.4905 55.4901C10.3599 55.5273 10.2294 55.6391 10.1735 55.7509C10.0989 55.9186 10.1362 56.0677 10.2294 56.1981C10.304 56.2913 10.4718 56.2727 10.565 56.1981C10.6583 56.1609 10.6396 56.0304 10.565 55.9186Z" fill="#231F20"/>
<path d="M22.3517 70.0602C22.6687 70.4701 22.9857 70.8614 23.284 71.2713C23.4891 71.5881 23.6942 71.9794 23.5078 72.352C23.3399 72.6874 22.9297 72.6129 22.706 72.3893C22.389 72.0912 22.4076 71.5881 22.4449 71.1782C22.4636 70.88 21.9974 70.88 21.9787 71.1782C21.9414 71.6253 21.9601 72.0912 22.2025 72.4825C22.4076 72.8178 22.7805 73.0601 23.1908 73.0601C23.601 73.0414 23.918 72.7433 24.0299 72.3707C24.1418 71.9607 24.0112 71.5322 23.7875 71.1782C23.4891 70.7123 23.1162 70.2838 22.7805 69.8366C22.706 69.7434 22.5754 69.6875 22.4635 69.7621C22.333 69.7993 22.2771 69.967 22.3517 70.0602Z" fill="#231F20"/>
<path d="M23.7113 73.5077C24.0469 74.3276 24.8115 74.9238 25.7065 75.017C26.6015 75.1102 27.5152 74.6071 27.9627 73.8245C28.0187 73.7313 28 73.6195 27.9254 73.545C27.1236 72.7065 25.7438 72.5388 24.7928 73.191C24.5504 73.3587 24.7742 73.7686 25.0352 73.6009C25.837 73.0792 26.9558 73.191 27.6085 73.8804C27.5898 73.7872 27.5898 73.6941 27.5712 73.6009C27.2169 74.2344 26.5083 74.6071 25.7811 74.5698C25.0912 74.5139 24.4385 74.0481 24.1775 73.3959C24.0469 73.0978 23.5808 73.2283 23.7113 73.5077Z" fill="#231F20"/>
<path d="M26.3231 72.3515C27.3301 71.6248 28.2251 70.7304 28.9896 69.7429C29.0642 69.6497 29.0083 69.482 28.915 69.4261C28.8032 69.3516 28.6726 69.4075 28.598 69.5007C27.8895 70.4323 27.0504 71.2708 26.0994 71.9416C26.0062 72.0161 25.9502 72.1465 26.0248 72.2583C26.0621 72.3701 26.2299 72.426 26.3231 72.3515Z" fill="#231F20"/>
<path d="M28.5612 70.0232C28.6545 69.8927 28.7477 69.7437 28.8596 69.6133C28.8969 69.5574 28.8969 69.4828 28.8782 69.4269C28.8596 69.371 28.8223 69.3151 28.7664 69.2965C28.7104 69.2592 28.6545 69.2592 28.5799 69.2779C28.5612 69.2779 28.5426 69.2965 28.5239 69.2965C28.4867 69.3151 28.468 69.3524 28.4494 69.371C28.3561 69.5015 28.2629 69.6505 28.151 69.7809C28.1137 69.8368 28.1137 69.9114 28.1324 69.9673C28.151 70.0232 28.1883 70.0791 28.2442 70.0977C28.3002 70.135 28.3561 70.135 28.4307 70.1163C28.4494 70.1163 28.468 70.0977 28.4867 70.0977C28.5239 70.0977 28.5426 70.0604 28.5612 70.0232Z" fill="#231F20"/>
<path d="M27.7411 72.3513C28.5989 71.6991 29.3447 70.9166 29.9601 70.0222C30.0347 69.9104 29.9787 69.7613 29.8855 69.7054C29.7736 69.6309 29.6431 69.6868 29.5685 69.78C29.0091 70.5998 28.3005 71.3451 27.5174 71.9414C27.4241 72.0159 27.3682 72.1463 27.4428 72.2581C27.4801 72.3699 27.6479 72.4258 27.7411 72.3513Z" fill="#231F20"/>
<path d="M39.7668 55.6575C39.5244 55.5271 39.282 55.7507 39.3192 56.0116C39.3752 56.3097 39.7481 56.291 39.9159 56.1047C40.0278 55.9743 40.0278 55.8252 40.0838 55.6948C40.1397 55.5457 40.2329 55.3967 40.3262 55.2476C40.494 54.9495 40.6805 54.67 40.8669 54.3905C40.9974 54.2042 41.2026 53.8315 41.4636 53.7943C41.706 53.757 41.8552 54.0551 41.9298 54.2414C42.0976 54.7818 41.9111 55.3967 41.6501 55.8625C41.3144 56.4774 40.8296 56.9804 40.3262 57.4649C40.4567 57.5022 40.5872 57.5394 40.7177 57.5767C40.5872 56.9246 40.755 56.2351 41.1653 55.7321C41.3517 55.5085 41.0347 55.1731 40.8296 55.3967C40.2889 56.0488 40.0838 56.8687 40.2516 57.7071C40.2889 57.8748 40.5313 57.9307 40.6432 57.8189C41.445 57.0363 42.3027 56.1047 42.4332 54.9309C42.4892 54.4278 42.3773 53.8315 41.9484 53.5148C41.445 53.1421 40.9602 53.5148 40.6618 53.9247C40.438 54.2228 40.2329 54.5396 40.0278 54.8563C39.9346 55.0054 39.8414 55.1731 39.7668 55.3408C39.7295 55.4153 39.6922 55.4898 39.6549 55.5644C39.6176 55.6389 39.4871 56.1792 39.6922 56.1233C39.6362 56.1233 39.5803 56.1047 39.5057 56.1047L39.5244 56.1233C39.7854 56.1979 40.0278 55.8066 39.7668 55.6575Z" fill="#231F20"/>
<path d="M42.9175 53.4222C43.2718 52.6955 43.5888 51.9502 43.8499 51.1862C44.0923 50.4782 44.372 49.7143 44.4466 48.9503C44.5025 48.3541 44.2415 47.7019 43.5702 47.6647C42.843 47.6274 42.3954 48.2609 42.153 48.8385C41.7987 49.677 41.5563 50.5527 41.4445 51.4657C41.4258 51.6707 41.6496 51.7266 41.7987 51.6707C42.3208 51.4471 42.7311 51.0558 42.9735 50.5341C43.104 50.2732 42.6938 50.031 42.5633 50.2919C42.3581 50.7391 42.0039 51.0558 41.5563 51.2608C41.6682 51.3353 41.7987 51.3912 41.9106 51.4657C42.0225 50.6086 42.2463 49.7515 42.6005 48.9689C42.7311 48.6708 42.9175 48.3354 43.2345 48.1864C43.5702 48.0373 43.9245 48.1677 43.999 48.5404C44.055 48.8944 43.9431 49.2671 43.8685 49.6025C43.7753 49.9937 43.6634 50.385 43.5329 50.7577C43.2718 51.5775 42.9362 52.3974 42.5446 53.1799C42.3768 53.4408 42.787 53.683 42.9175 53.4222Z" fill="#231F20"/>
<path d="M41.9502 48.5019C42.5096 47.4398 43.0317 46.3778 43.6097 45.3343C44.0573 44.5145 44.8218 43.4711 45.9033 43.676C45.8473 43.6015 45.7914 43.527 45.7355 43.4524C45.866 44.5145 45.2693 45.5579 44.281 45.9865C44.3929 46.061 44.5234 46.1169 44.6353 46.1915C44.6353 46.0238 44.6167 45.8374 44.6167 45.6697C44.598 45.3716 44.1319 45.3716 44.1505 45.6697C44.1505 45.8374 44.1691 46.0238 44.1691 46.1915C44.1691 46.3778 44.3556 46.4709 44.5234 46.3964C45.6422 45.912 46.3695 44.6822 46.2016 43.4711C46.183 43.3779 46.1457 43.2661 46.0338 43.2475C44.8777 43.0239 43.964 43.8624 43.4046 44.7754C43.0876 45.3157 42.8079 45.8933 42.5096 46.4523C42.1926 47.0672 41.8756 47.6821 41.54 48.2969C41.4094 48.5205 41.8197 48.7628 41.9502 48.5019Z" fill="#231F20"/>
<path d="M45.6784 42.6148C45.4919 41.7391 45.0817 40.9379 44.485 40.2671C44.2799 40.0435 43.9629 40.3789 44.1493 40.6025C44.6901 41.1987 45.063 41.944 45.2122 42.7452C45.2309 42.8757 45.38 42.9316 45.4919 42.9129C45.6597 42.8757 45.7157 42.7452 45.6784 42.6148Z" fill="#231F20"/>
<path d="M19.5164 43.4907C19.4231 43.3975 19.3485 43.323 19.2553 43.2298C19.0875 43.0621 18.8078 43.2298 18.8637 43.4534C19.0502 44.1056 19.3858 44.7204 19.8147 45.2608C19.9079 45.3726 20.113 45.3353 20.1876 45.2049C20.5419 44.4968 20.8776 43.7888 21.2318 43.0621C21.2878 42.9503 21.2691 42.8013 21.1573 42.7454C21.064 42.6895 20.8962 42.7081 20.8403 42.8199C20.5046 43.5279 20.1503 44.236 19.7961 44.9627C19.9266 44.944 20.0385 44.9254 20.169 44.9068C19.7961 44.4409 19.5164 43.9006 19.3299 43.3043C19.1994 43.3789 19.0688 43.4534 18.9383 43.5279C19.0315 43.6211 19.1061 43.6956 19.1994 43.7888C19.4045 44.031 19.7401 43.6956 19.5164 43.4907Z" fill="#231F20"/>
<path d="M19.5332 27.5596C19.5332 27.6714 19.5332 27.7832 19.5332 27.895C19.5332 28.0999 19.7943 28.2117 19.9248 28.0626C21.9573 25.9199 25.2204 25.3423 27.8496 26.7025C28.5768 27.0751 29.2108 27.5596 29.7702 28.1744C29.9753 28.398 30.311 28.0626 30.1059 27.8391C29.0803 26.7211 27.6818 25.9199 26.1901 25.6218C24.6797 25.3236 23.0947 25.5286 21.6962 26.1994C20.9131 26.572 20.1858 27.0937 19.5891 27.7273C19.7197 27.7832 19.8502 27.8391 19.9807 27.895C19.9807 27.7832 19.9807 27.6714 19.9807 27.5596C19.9994 27.2614 19.5332 27.2614 19.5332 27.5596Z" fill="#231F20"/>
<path d="M16.5502 64.154C16.4943 64.7503 16.6248 65.4397 17.091 65.8496C17.5012 66.2223 18.1538 66.3713 18.6386 66.0546C19.5337 65.477 19.4218 64.005 18.6386 63.3901C18.3962 63.1851 18.0979 63.0734 17.7622 63.1106C17.4452 63.1479 17.1469 63.2969 16.9791 63.5951C16.8299 63.8559 17.2215 64.0795 17.3893 63.8373C17.5944 63.5019 18.0606 63.5392 18.3216 63.7441C18.62 63.9677 18.7878 64.359 18.7878 64.7317C18.7878 65.0484 18.6946 65.4211 18.4335 65.626C18.1352 65.8683 17.7249 65.7937 17.4452 65.5701C17.0164 65.2347 16.9418 64.6571 16.9977 64.154C17.0164 64.0236 16.8858 63.9305 16.774 63.9305C16.6434 63.9118 16.5502 64.0236 16.5502 64.154Z" fill="#231F20"/>
<path d="M19.7597 58.9374C19.6292 60.3535 19.5173 61.9931 20.5801 63.1111C21.009 63.5397 21.5684 63.8564 22.1838 63.8937C22.8737 63.9309 23.4704 63.5397 23.9552 63.0738C24.8875 62.1795 25.4469 60.7634 25.074 59.4777C24.7384 58.3225 23.5636 57.3722 22.3329 57.4281C20.8225 57.5213 19.9648 58.956 19.3495 60.1671C19.2189 60.428 19.6105 60.6702 19.7597 60.4094C20.2259 59.4964 20.8225 58.3598 21.8668 58.0057C22.911 57.6517 24.0111 58.3039 24.4959 59.2355C25.018 60.2789 24.6638 61.546 23.9552 62.4031C23.6009 62.8502 23.0974 63.2974 22.5194 63.4092C21.9973 63.5024 21.4565 63.2788 21.065 62.9248C19.9462 61.9372 20.0953 60.2976 20.2259 58.9374C20.2445 58.6393 19.7783 58.6579 19.7597 58.9374Z" fill="#231F20"/>
<path d="M20.8226 54.2416C20.3004 54.6143 20.5242 55.3782 21.0463 55.6391C21.7735 55.9931 22.538 55.3223 23.0415 54.8565C23.5077 54.4093 24.1603 53.8317 24.123 53.105C24.1044 52.7696 23.9179 52.4901 23.6009 52.3783C23.2653 52.2665 22.8737 52.3783 22.538 52.4901C21.7735 52.7696 21.1209 53.2727 20.6174 53.9062C20.5429 53.9994 20.5988 54.1671 20.692 54.223C20.8039 54.2975 20.9344 54.2416 21.009 54.1484C21.326 53.7199 21.7735 53.3659 22.2397 53.105C22.4821 52.9746 22.7432 52.8814 23.0229 52.8069C23.2093 52.7696 23.489 52.7324 23.6009 52.9373C23.6941 53.105 23.6009 53.3472 23.5263 53.5149C23.4144 53.7572 23.2466 53.9435 23.0602 54.1298C22.8364 54.3534 22.6126 54.577 22.3702 54.782C22.1651 54.9683 21.9227 55.136 21.643 55.2105C21.4192 55.2664 21.1955 55.2105 21.065 55.0242C20.9904 54.8938 20.9344 54.7074 21.0463 54.6143C21.2887 54.4652 21.065 54.0739 20.8226 54.2416Z" fill="#231F20"/>
<path d="M24.1233 55.2655C23.9181 55.8804 24.1792 56.5698 24.664 56.9797C25.2234 57.4455 25.9693 57.4269 26.5846 57.0542C26.9203 56.8493 27.2 56.5698 27.4424 56.2717C27.6848 55.9735 27.8712 55.6195 27.9085 55.2282C27.9645 54.5202 27.4051 53.8867 26.7711 53.6631C25.9506 53.3836 25.0369 53.8121 24.5148 54.4643C24.3284 54.6879 24.664 55.0233 24.8505 54.7997C25.2234 54.3525 25.7642 54.0171 26.3609 54.0544C26.8643 54.0916 27.3678 54.5015 27.4424 55.0046C27.5356 55.5822 27.0135 56.1599 26.5846 56.4952C26.1744 56.8306 25.5963 57.017 25.1115 56.7375C24.664 56.458 24.403 55.899 24.5708 55.3773C24.664 55.1164 24.2165 54.986 24.1233 55.2655Z" fill="#231F20"/>
<path d="M26.5467 59.6456C26.8824 60.2419 27.7401 60.4468 28.3182 60.0742C28.5419 59.9251 28.4114 59.5897 28.1317 59.6456C27.9079 59.7015 27.6096 59.7761 27.3858 59.6643C27.3672 59.6456 27.3299 59.627 27.3112 59.627C27.3299 59.6456 27.2926 59.6084 27.2926 59.6084C27.2739 59.5897 27.2553 59.5711 27.2553 59.5525C27.2739 59.5711 27.2366 59.5338 27.2366 59.5152C27.2366 59.4966 27.1994 59.4593 27.218 59.4779C27.218 59.4966 27.1994 59.4407 27.1994 59.422C27.1994 59.4034 27.1807 59.3661 27.1807 59.3475C27.1807 59.3289 27.1807 59.3289 27.1807 59.3102C27.1807 59.3475 27.1807 59.273 27.1807 59.3102C27.1621 59.1053 27.1994 58.9562 27.2926 58.7885C27.3299 58.7326 27.3299 58.7326 27.3485 58.6954C27.3858 58.6395 27.4418 58.6022 27.4977 58.5463C27.5909 58.4718 27.7028 58.4159 27.796 58.36C28.0757 58.2295 28.3741 58.1736 28.6538 58.0991C28.7843 58.0805 28.8403 57.9314 28.8216 57.8196C28.7843 57.6892 28.6538 57.6333 28.5419 57.6519C27.9266 57.7824 27.218 57.9687 26.8824 58.5277C26.6027 58.9935 26.6213 59.6829 27.1061 60.0183C27.4604 60.2605 27.8893 60.1673 28.2809 60.0928C28.2249 59.9438 28.169 59.8133 28.0944 59.6643C27.7215 59.9065 27.1807 59.7947 26.9756 59.4034C26.8078 59.1425 26.3976 59.3848 26.5467 59.6456Z" fill="#231F20"/>
<path d="M24.5892 47.1039C24.4773 47.4765 24.44 47.8492 24.4587 48.2405C24.4773 48.5945 24.5333 48.9858 24.7384 49.2653C25.13 49.787 25.8385 49.6193 26.2861 49.2653C26.7895 48.874 27.0879 48.1473 27.0133 47.5324C26.9573 46.9175 26.5285 46.3399 25.9131 46.1909C25.2418 46.0418 24.4773 46.5822 24.5146 47.3088C24.5333 47.6069 24.9994 47.6069 24.9808 47.3088C24.9621 46.8989 25.3724 46.5821 25.7639 46.638C26.1928 46.6939 26.4912 47.1039 26.5658 47.4952C26.6403 47.9423 26.4539 48.4827 26.1182 48.7994C25.8945 49.023 25.447 49.2839 25.1673 49.023C24.9808 48.8367 24.9435 48.4641 24.9435 48.2218C24.9248 47.8864 24.9621 47.5511 25.0554 47.2343C25.13 46.9362 24.6638 46.8244 24.5892 47.1039Z" fill="#231F20"/>
<path d="M29.5684 47.2908C29.2887 47.03 28.8971 47.1604 28.6734 47.4213C28.4123 47.7008 28.3004 48.1293 28.2259 48.502C28.1513 48.9305 28.1513 49.3404 28.2259 49.769C28.2818 50.123 28.3937 50.5516 28.692 50.7938C29.2514 51.241 30.0905 50.9428 30.5194 50.4398C30.9483 49.9367 31.1161 49.21 30.8923 48.5579C30.6313 47.8126 29.96 47.2536 29.1955 47.0859C28.8971 47.03 28.7853 47.4772 29.065 47.5331C30.0532 47.7567 30.8364 48.7442 30.4075 49.7504C30.2211 50.1789 29.8108 50.5516 29.326 50.5329C29.0463 50.5329 28.8971 50.3652 28.8039 50.123C28.692 49.8249 28.6547 49.5268 28.6361 49.21C28.6361 48.856 28.692 48.502 28.8039 48.1666C28.8598 48.0175 28.9158 47.8685 29.009 47.7567C29.0463 47.7008 29.1023 47.6635 29.1582 47.6262C29.2141 47.6076 29.2141 47.6076 29.2514 47.6262C29.4565 47.8312 29.7922 47.4958 29.5684 47.2908Z" fill="#231F20"/>
<path d="M32.4949 51.1668C32.0101 51.6326 31.5252 52.1543 31.4507 52.8437C31.3947 53.44 31.7117 54.0549 32.3271 54.1853C33.5764 54.4648 34.9376 52.9742 34.4714 51.763C34.229 51.1109 33.5577 50.6637 32.8492 50.7941C32.5508 50.85 32.6813 51.2972 32.9797 51.2413C33.4086 51.1668 33.8001 51.4649 33.9866 51.8376C34.1917 52.2475 34.0612 52.7506 33.8001 53.1046C33.5204 53.4772 33.0356 53.7754 32.5695 53.7567C32.1033 53.7381 31.8982 53.3096 31.9168 52.8996C31.9355 52.322 32.4203 51.8562 32.8305 51.4835C33.0356 51.2786 32.7186 50.9432 32.4949 51.1668Z" fill="#231F20"/>
<path d="M28.8956 53.5147C29.7907 53.7756 30.5365 54.5209 30.779 55.4339C31.04 56.3842 30.723 57.4462 30.0144 58.1356C29.7907 58.3406 30.1263 58.676 30.3501 58.471C31.1705 57.6698 31.5435 56.4401 31.2265 55.3221C30.9281 54.26 30.0704 53.4029 29.0075 53.0862C28.7278 52.9744 28.5973 53.4216 28.8956 53.5147Z" fill="#231F20"/>
<path d="M14.8004 41.4213C15.2852 41.0114 15.77 41.5331 16.0497 41.9058C16.46 42.4461 16.8702 42.9119 17.4669 43.2473C18.7162 43.9553 20.2079 43.974 21.5878 43.6945C22.4642 43.5082 23.3033 43.1914 24.1424 42.8933C24.3848 42.8001 24.534 42.5765 24.4594 42.3157C24.4034 42.0921 24.1237 41.9058 23.8813 41.9989C22.4642 42.5206 20.9538 43.0982 19.4061 42.9119C18.7908 42.8374 18.1755 42.6324 17.6534 42.2784C17.1126 41.9058 16.8329 41.3468 16.3854 40.8996C15.7514 40.2661 14.8191 40.1915 14.1105 40.7692C13.924 40.9368 13.9427 41.2536 14.1105 41.4213C14.3342 41.6263 14.5953 41.589 14.8004 41.4213Z" fill="#231F20"/>
<path d="M23.8425 42.6705C25.2038 43.2854 26.6768 43.6394 28.1872 43.6767C28.9331 43.6953 29.679 43.6394 30.4248 43.4904C31.1147 43.3599 31.8793 43.2109 32.476 42.8196C33.1472 42.391 33.6507 41.5526 33.3523 40.7514C33.2778 40.9191 33.2032 41.1054 33.1472 41.2731C33.949 40.8818 34.7508 40.5091 35.5713 40.1178C35.7951 40.006 35.851 39.6893 35.7391 39.4843C35.6086 39.2607 35.3289 39.2048 35.1051 39.3166C34.3033 39.7079 33.5015 40.0806 32.6811 40.4719C32.5132 40.5464 32.4014 40.8259 32.476 40.9936C32.7184 41.6644 31.9911 42.1115 31.4504 42.2792C30.6859 42.5401 29.8654 42.6705 29.0636 42.7264C27.4414 42.8196 25.8004 42.5401 24.3274 41.8507C24.1036 41.7389 23.8239 41.7762 23.6934 42.0184C23.5628 42.242 23.6188 42.5774 23.8425 42.6705Z" fill="#231F20"/>
<path d="M16.6096 42.7263C17.5792 45.1299 19.8728 46.8441 22.446 47.0863C22.7444 47.1236 22.7444 46.6578 22.446 46.6205C20.0965 46.3969 17.9335 44.7759 17.0571 42.5959C16.9452 42.3164 16.4977 42.4468 16.6096 42.7263Z" fill="#231F20"/>
<path d="M23.918 40.6953C23.918 41.2543 23.918 41.8319 23.918 42.3908C23.918 42.5213 24.0299 42.6144 24.1417 42.6144C24.2723 42.6144 24.3655 42.5026 24.3655 42.3908C24.3655 41.8319 24.3655 41.2543 24.3655 40.6953C24.3655 40.5648 24.2536 40.4717 24.1417 40.4717C24.0299 40.4717 23.918 40.5648 23.918 40.6953Z" fill="#231F20"/>
<path d="M10.8464 29.665C12.6551 27.8949 14.4079 26.0689 16.1047 24.187C16.5149 23.7398 15.8437 23.0876 15.4521 23.5348C13.7552 25.3981 12.0024 27.2241 10.1937 29.0128C9.7462 29.4228 10.4175 30.0749 10.8464 29.665Z" fill="white"/>
<path d="M13.0457 30.0197C14.1831 28.79 15.3019 27.5788 16.4394 26.3491C16.8496 25.9019 16.197 25.2498 15.7867 25.6969C14.6493 26.9267 13.5305 28.1378 12.393 29.3676C11.9828 29.7961 12.6355 30.4669 13.0457 30.0197Z" fill="white"/>
<path d="M31.2642 28.3231C32.6814 26.7766 34.2291 25.3419 35.8886 24.0562C36.0937 23.9072 36.0564 23.5531 35.8886 23.4041C35.6835 23.1991 35.4224 23.255 35.236 23.4041C33.5764 24.7084 32.0288 26.1245 30.6116 27.671C30.2014 28.0995 30.8727 28.7703 31.2642 28.3231Z" fill="white"/>
<path d="M32.8491 28.9198C33.8746 27.7273 34.9934 26.6466 36.2055 25.6405C36.3919 25.4728 36.3733 25.156 36.2055 24.9883C36.019 24.802 35.7393 24.8206 35.5528 24.9883C34.3408 25.9759 33.222 27.0752 32.1964 28.2677C32.0286 28.454 32.01 28.7335 32.1964 28.9198C32.3642 29.0875 32.6812 29.1061 32.8491 28.9198Z" fill="white"/>
</svg>
