<svg width="85" height="54" viewBox="0 0 85 54" fill="none" xmlns="http://www.w3.org/2000/svg">
<path d="M31.2732 7.72022C30.8661 7.17559 30.4395 6.65042 30.0324 6.10579C29.664 5.46391 29.2956 4.84148 28.9272 4.1996C28.8885 4.06344 28.8497 3.90783 28.7721 3.77168C28.714 3.63552 28.6364 3.51881 28.5589 3.38266C28.1517 2.66297 27.6864 1.98219 27.1823 1.32086C26.9496 1.00964 26.717 0.756777 26.3098 0.659523C25.9802 0.562268 25.5536 0.60117 25.2434 0.776228C25.1659 0.756777 25.0883 0.717876 25.0108 0.698425C24.7199 0.60117 24.3709 0.640072 24.0801 0.756777C24.0026 0.737326 23.9056 0.717876 23.8281 0.717876C20.8229 0.465013 17.7789 1.53482 15.5298 3.51881C15.3359 3.69387 15.1614 3.88838 15.0257 4.10234C15.0257 4.10234 15.0063 4.10234 15.0063 4.12179C12.8154 5.95018 10.9347 8.12869 9.42242 10.5406C9.17037 10.9491 8.91832 11.377 8.68566 11.7855C8.25911 11.591 7.81318 11.377 7.38663 11.1825C6.90192 10.9491 6.39782 10.9102 5.91311 11.1825C5.69983 11.3186 5.52534 11.4937 5.38962 11.7077C5.2539 11.9411 5.19573 12.1745 5.19573 12.4468C5.09879 13.147 5.31206 13.9251 5.68045 14.5086C5.69983 14.5475 5.71922 14.5864 5.758 14.6059C5.87433 14.8004 6.01005 14.9949 6.16516 15.1699C6.35904 15.3839 6.61109 15.5784 6.88253 15.734C6.74681 16.2397 6.57232 16.726 6.37843 17.2123C5.91311 18.2821 5.38962 19.3324 5.00185 20.4411C4.84674 20.8885 4.73041 21.3359 4.65286 21.7833C3.95487 23.2421 3.47016 24.7982 3.31505 26.432C3.21811 27.5602 3.33444 28.7273 3.68343 29.7971C3.72221 29.9332 3.79976 30.0499 3.87732 30.1861C3.87732 32.6563 4.80796 35.0488 6.37843 36.955C6.5917 37.2079 7.03764 37.3829 7.36724 37.3829C7.61929 37.4413 7.87134 37.4413 8.16217 37.4024C8.49178 37.344 8.82138 37.2857 9.17037 37.2273C9.24793 37.2273 9.30609 37.2468 9.38365 37.2468C9.49998 37.2468 9.61631 37.2468 9.73264 37.2273C9.75203 37.2468 9.77142 37.2857 9.81019 37.3051C10.101 37.5774 10.4306 37.6941 10.8378 37.733C12.3501 37.8887 13.9206 37.7136 15.3747 37.2468C15.5104 37.2079 15.6461 37.1301 15.7625 37.0523C16.2278 37.169 16.7319 37.0328 17.1197 36.6827C17.6238 36.1964 18.1085 35.7101 18.6126 35.2239C18.8258 35.2044 19.0197 35.1461 19.1942 35.0099C20.9004 33.7651 22.3933 32.2868 23.7117 30.6334C24.1577 30.0694 24.5842 29.4664 24.9914 28.8829C27.4537 26.7433 29.2762 23.8451 30.265 20.7329C30.5946 20.5579 30.8467 20.2466 31.0018 19.8382C31.7192 17.9125 32.3396 15.9674 32.8825 13.9834C33.1733 12.8747 33.4448 11.7077 33.1152 10.5795C32.7662 9.47081 31.9518 8.61496 31.2732 7.72022ZM17.2941 13.9445C17.236 13.9056 17.1778 13.8862 17.1197 13.8667C17.1778 13.8862 17.2554 13.8862 17.3135 13.8862C17.3135 13.9056 17.2941 13.9251 17.2941 13.9445ZM16.1502 22.7364C16.1502 22.6975 16.1696 22.6586 16.1696 22.6197C16.2859 22.8531 16.4604 23.067 16.6737 23.2226C16.6349 23.7089 16.5768 24.1757 16.538 24.662C16.5186 24.662 16.4992 24.6815 16.4798 24.6815C16.5186 24.5064 16.538 24.3313 16.5768 24.1757C16.6737 23.6311 16.538 23.0865 16.1502 22.7364ZM15.3553 11.4354C15.4135 11.4548 15.4716 11.4937 15.5298 11.5132C15.4716 11.5132 15.4135 11.5326 15.3553 11.5521C15.3553 11.5132 15.3553 11.4743 15.3553 11.4354Z" fill="#729EFC"/>
<path d="M5.9326 16.3375C4.57541 19.0995 3.50904 22.0366 3.06311 25.0904C2.63656 27.9692 2.77228 30.9452 3.66415 33.7461C4.14886 35.2827 4.86624 36.7415 5.81627 38.0448C5.97138 38.2587 6.24282 38.356 6.47548 38.2198C6.68875 38.1031 6.80508 37.7724 6.64998 37.5585C5.04073 35.3605 4.14886 32.7152 3.87742 30.0115C3.5866 27.1133 4.03253 24.2151 4.88563 21.4531C5.38973 19.8581 6.02955 18.302 6.76631 16.8043C6.88264 16.5709 6.82447 16.2791 6.59181 16.143C6.37854 16.0263 6.04893 16.1041 5.9326 16.3375Z" fill="#231F20"/>
<path d="M8.64805 16.8234C7.8919 16.2594 7.11636 15.7342 6.41837 15.1312C5.83672 14.6255 5.29384 14.003 5.17751 13.225C5.09995 12.622 5.31323 11.9607 5.91427 11.7078C6.59287 11.4355 7.40718 11.6884 8.047 11.9412C9.01643 12.3303 9.92769 12.8943 10.7808 13.4779C10.9941 13.6335 11.3237 13.5168 11.44 13.3028C11.5757 13.0694 11.4788 12.7776 11.2655 12.6415C10.3736 12.019 9.4042 11.455 8.396 11.0465C7.58168 10.6964 6.59287 10.463 5.72039 10.7353C4.78974 11.0465 4.22747 11.8829 4.1887 12.8554C4.14992 13.828 4.63463 14.7227 5.29384 15.4035C5.68161 15.812 6.14693 16.1621 6.59287 16.4928C7.11636 16.8818 7.62046 17.2708 8.14395 17.6598C8.35722 17.8154 8.68682 17.6987 8.80316 17.4848C8.95826 17.2319 8.84193 16.979 8.64805 16.8234Z" fill="#231F20"/>
<path d="M9.40241 11.3186C10.9341 9.00392 12.6791 6.80597 14.8118 5.01648C16.9445 3.20754 19.4456 1.82652 22.1988 1.24299C23.7305 0.912325 25.3204 0.853972 26.852 1.10683C27.1041 1.14574 27.3755 1.04848 27.4531 0.776168C27.5113 0.542757 27.3755 0.212091 27.1235 0.173189C24.157 -0.313085 21.1324 0.250992 18.4374 1.53476C15.7812 2.77962 13.4934 4.70526 11.5739 6.90322C10.4882 8.14808 9.49935 9.47075 8.58809 10.8518C8.21971 11.3575 9.05342 11.8438 9.40241 11.3186Z" fill="#231F20"/>
<path d="M26.8925 1.06743C28.7926 3.75166 30.6151 6.49425 32.3795 9.27574C32.8836 10.0538 33.3683 10.8513 33.853 11.6488C34.1826 12.1739 35.0163 11.6877 34.6867 11.1625C32.9611 8.36154 31.158 5.59951 29.3161 2.87637C28.7926 2.11778 28.2691 1.33974 27.7262 0.581157C27.5711 0.367197 27.2997 0.269942 27.067 0.406099C26.8537 0.522804 26.7374 0.853471 26.8925 1.06743Z" fill="#231F20"/>
<path d="M6.35877 38.2576C9.15071 38.316 11.9427 38.2576 14.7346 38.0826C15.355 38.0437 15.355 37.0711 14.7346 37.11C11.9427 37.2851 9.15071 37.3434 6.35877 37.2851C5.71895 37.2851 5.71895 38.2576 6.35877 38.2576Z" fill="#231F20"/>
<path d="M15.1804 37.908C17.3325 37.1883 19.252 35.9823 20.997 34.543C22.6838 33.1425 24.2348 31.5475 25.6308 29.8553C28.4228 26.4903 30.6524 22.6779 32.2423 18.6126C33.1342 16.3369 33.8128 13.9638 34.2587 11.5519C34.3169 11.2991 34.1811 11.0268 33.9291 10.949C33.6964 10.8906 33.3862 11.0268 33.328 11.2796C32.5331 15.4616 31.0596 19.5074 28.985 23.2225C26.9105 26.9376 24.2348 30.361 21.0551 33.2008C19.252 34.7958 17.2162 36.1963 14.909 36.9549C14.3273 37.1688 14.5794 38.1025 15.1804 37.908Z" fill="#231F20"/>
<path d="M34.1445 12.1559C37.4793 12.2726 40.7559 13.1479 43.703 14.7235C45.1571 15.5015 46.5337 16.4352 47.7746 17.505C48.9767 18.5553 50.1012 19.6835 51.3227 20.7338C52.6799 21.9203 54.1534 22.9901 55.879 23.6126C56.131 23.7098 56.4024 23.5153 56.48 23.2819C56.5576 23.0096 56.3831 22.7762 56.1504 22.6789C53.1452 21.5702 51.0124 19.0221 48.6664 16.9603C46.1072 14.7235 43.1019 13.0507 39.8447 12.0976C38.0028 11.553 36.0833 11.2612 34.1638 11.1834C33.5046 11.1639 33.5046 12.1365 34.1445 12.1559Z" fill="#231F20"/>
<path d="M14.2508 40.5346C14.7162 39.8343 15.0458 39.0368 15.1815 38.2199C15.2203 37.967 15.1233 37.6753 14.8519 37.6169C14.6192 37.5586 14.309 37.6947 14.2508 37.9476C14.1733 38.3366 14.0763 38.7062 13.9406 39.0757C13.9406 39.0952 13.8825 39.2313 13.9212 39.1146C13.9018 39.1535 13.8825 39.2119 13.8631 39.2508C13.8243 39.3481 13.7855 39.4259 13.7273 39.5037C13.6304 39.6787 13.5335 39.8538 13.4171 40.0094C13.2814 40.2233 13.3784 40.554 13.5916 40.6707C13.8437 40.8263 14.1151 40.768 14.2508 40.5346Z" fill="#231F20"/>
<path d="M13.57 39.8149C9.94436 42.2463 5.79522 44.0552 2.88695 47.4202C2.1308 48.2955 1.47159 49.2486 0.986876 50.2795C0.870545 50.5129 0.928711 50.8047 1.16137 50.9408C1.37465 51.0575 1.70425 50.9992 1.82058 50.7658C3.62371 46.9728 7.3463 44.736 10.8168 42.6547C11.9026 42.0128 13.0077 41.3515 14.0547 40.6513C14.5782 40.3012 14.0935 39.4648 13.57 39.8149Z" fill="#231F20"/>
<path d="M1.18363 51.6215C11.3238 52.2634 21.464 52.7108 31.6236 52.9831C36.6646 53.1192 41.7443 53.2554 46.7853 52.7302C51.6519 52.2245 56.3826 50.8435 61.2298 50.221C64.0217 49.8709 66.8136 49.8904 69.6056 50.0071C72.4557 50.1432 75.3058 50.3183 78.1753 50.4739C78.7957 50.5128 78.7957 49.5402 78.1753 49.5013C75.616 49.3652 73.0761 49.229 70.5169 49.0929C68.0157 48.9567 65.4952 48.8789 62.9941 49.0734C58.1276 49.4624 53.4356 50.8629 48.6079 51.5437C43.5862 52.2439 38.5065 52.1661 33.4655 52.0494C28.4051 51.9327 23.3641 51.7577 18.3231 51.5437C12.6034 51.3103 6.90323 50.9991 1.20302 50.6489C0.5632 50.61 0.5632 51.5826 1.18363 51.6215Z" fill="#231F20"/>
<path d="M36.5277 19.5077C36.1205 21.1027 36.295 22.7755 36.9542 24.2538C37.5553 25.6348 38.6604 26.8018 39.9788 27.5215C40.7156 27.93 41.5299 28.2218 42.3636 28.3385C42.6157 28.3774 42.8871 28.2801 42.9647 28.0078C43.0228 27.7744 42.8871 27.4437 42.6351 27.4048C39.9207 26.9964 37.7298 24.8568 37.342 22.1142C37.2257 21.3361 37.2838 20.5192 37.4777 19.7606C37.6134 19.1576 36.6634 18.9048 36.5277 19.5077Z" fill="#231F20"/>
<path d="M40.7746 36.9545C38.9327 37.6158 37.2071 38.8801 36.1989 40.5724C35.2489 42.1868 35.307 44.1125 36.0438 45.8047C36.451 46.7383 37.052 47.5747 37.7888 48.2555C38.2541 48.6834 38.9327 47.9832 38.4674 47.5747C37.3428 46.5438 36.5285 45.1045 36.4316 43.5678C36.3928 42.8092 36.5091 42.0507 36.8581 41.3699C37.2653 40.5724 37.8857 39.8916 38.5643 39.3081C39.2817 38.6856 40.1348 38.2188 41.0266 37.8881C41.2787 37.7909 41.4338 37.5575 41.3562 37.2852C41.2981 37.0712 41.0266 36.8767 40.7746 36.9545Z" fill="#231F20"/>
<path d="M35.4827 43.7427C36.4909 45.3377 38.643 45.999 40.3492 45.1821C42.1136 44.3457 42.9473 42.1088 41.9972 40.3582C41.4738 39.3857 40.5043 38.7438 39.4186 38.6466C39.1665 38.6271 38.9339 38.88 38.9339 39.1328C38.9339 39.4246 39.1665 39.5997 39.4186 39.6191C40.8339 39.7553 41.7258 41.3113 41.3574 42.6146C40.9503 43.9761 39.5543 44.8125 38.1583 44.5013C37.4022 44.3262 36.7236 43.8983 36.3164 43.2564C35.9868 42.7313 35.1337 43.2175 35.4827 43.7427Z" fill="#231F20"/>
<path d="M36.5637 43.3352C36.4667 43.4519 36.5637 43.3352 36.5831 43.3352C36.6994 43.4908 36.8157 43.6464 36.9321 43.802C36.9514 43.1213 37.1259 42.4988 37.4749 41.9153C37.1841 41.7986 36.8933 41.6624 36.5831 41.5457C36.4667 42.4016 36.5249 43.2574 36.8545 44.0744C36.9321 44.2494 37.0484 44.405 37.2617 44.4245C37.4362 44.4439 37.6688 44.3661 37.7464 44.1911C38.1535 43.238 38.2505 42.2265 37.9984 41.2151C37.8821 40.7482 37.2035 40.7677 37.0678 41.2151C36.8933 41.818 36.8545 42.4405 36.9514 43.0435C36.9902 43.3352 37.0678 43.6075 37.1841 43.8798C37.3198 44.23 37.4555 44.619 37.9015 44.5995C38.5801 44.5801 38.7546 43.8215 38.8321 43.2769C38.9097 42.5961 38.9097 41.8958 38.8127 41.2151C38.7352 40.6704 38.076 40.5537 37.8627 41.0789C37.3586 42.3238 37.6494 43.802 38.5219 44.8135C38.774 45.1053 39.2199 44.9107 39.3362 44.5995C39.7046 43.5297 39.724 42.3432 39.375 41.254C39.2587 40.8649 38.6964 40.7482 38.4831 41.1373C38.1535 41.7208 38.1535 42.3627 38.2699 43.0046C38.328 43.2963 38.4056 43.5881 38.5025 43.8604C38.5995 44.1716 38.7546 44.4828 39.1036 44.5606C39.8209 44.7551 40.1505 43.8798 40.1893 43.3352C40.2475 42.6155 40.1699 41.8958 39.9954 41.2151C39.9179 40.8844 39.4138 40.7288 39.1811 41.0011C38.7546 41.5068 38.7158 42.1293 38.8515 42.7517C38.9678 43.3158 39.2199 44.016 39.8209 44.1911C40.6546 44.4439 40.8485 43.413 40.9067 42.8295C40.9649 42.1682 40.8679 41.4874 40.6159 40.8649C40.5383 40.6899 40.422 40.5343 40.2087 40.5148C40.0342 40.4954 39.8209 40.5732 39.724 40.7482C39.2199 41.7597 39.4138 43.0046 40.2087 43.802C40.4608 44.0549 40.9261 43.9382 41.023 43.5881C41.2945 42.6544 41.2557 41.6235 40.8873 40.7288C40.7322 40.3398 40.2475 40.262 39.9954 40.6121C39.4719 41.3512 39.7628 42.4405 40.5189 42.8878C40.7322 43.024 41.0618 42.9462 41.1781 42.7128C41.6628 41.7986 41.372 40.6704 40.5189 40.1064C40.3444 39.9897 40.073 40.048 39.9373 40.1842C39.5495 40.5537 39.4913 41.0984 39.7046 41.5846C39.8791 41.9931 40.4801 41.8375 40.5965 41.4679C40.8485 40.5148 39.8403 39.6784 38.9485 39.8924C38.0178 40.1258 37.6494 41.1956 37.8045 42.0515C37.8821 42.4405 38.3668 42.4794 38.6188 42.2654C38.9678 41.9736 39.2781 41.5263 39.2974 41.0595C39.3168 40.6121 39.0648 40.1064 38.5607 40.0869C38.0566 40.048 37.7076 40.5343 37.4555 40.9233C37.1841 41.3512 37.0484 41.818 36.9902 42.3238C36.9514 42.7322 37.5525 42.9851 37.8239 42.6739C38.1535 42.2654 38.3862 41.7986 38.4637 41.2734C38.5025 41.0789 38.4444 40.826 38.2505 40.7288C38.2311 40.7288 38.1341 40.651 38.1923 40.6899C38.1341 40.6315 38.1923 40.7093 38.1535 40.6315C38.1923 40.7288 38.1535 40.5732 38.1535 40.5732C38.1535 40.6704 38.1535 40.5148 38.1535 40.5148C38.1535 40.5926 38.1729 40.4565 38.1729 40.4565C38.2117 40.3398 38.1341 40.4954 38.1923 40.3787C38.1923 40.3787 38.2699 40.262 38.2311 40.3203C38.2311 40.3203 38.3474 40.2231 38.2892 40.262C38.328 40.2231 38.3862 40.2036 38.4831 40.2036C38.5607 40.2036 38.6382 40.2231 38.7158 40.262C38.9291 40.3592 39.0648 40.5343 39.1617 40.7482C39.375 40.5343 39.6077 40.3009 39.8209 40.0869C39.724 40.0091 39.7046 39.9118 39.6852 39.7951C39.5301 40.0091 39.375 40.2036 39.2199 40.4176C39.5107 40.437 39.8209 40.5732 39.9954 40.8066C40.1505 41.0206 40.422 41.1178 40.6546 40.9817C40.8679 40.8649 40.9842 40.5343 40.8291 40.3203C40.4414 39.7757 39.8791 39.4645 39.2005 39.445C38.8709 39.4256 38.677 39.7562 38.7352 40.0675C38.7933 40.437 39.026 40.7288 39.3168 40.9428C39.4913 41.0595 39.7628 41.0011 39.8985 40.8649C40.0536 40.7093 40.073 40.4759 39.976 40.2814C39.5689 39.4645 38.425 38.8809 37.63 39.5423C37.029 40.048 36.9708 41.1956 37.7464 41.5652C37.6688 41.3901 37.5913 41.1956 37.5331 41.0206C37.4749 41.3707 37.3586 41.7208 37.1453 41.9931C37.4168 42.1098 37.6882 42.2265 37.979 42.3432C37.9984 42.1293 38.076 41.8958 38.1535 41.7013C38.2699 41.4679 38.425 41.3123 38.5607 41.0984C38.5801 41.0789 38.5995 41.0595 38.6188 41.04C38.5607 41.0984 38.4831 41.0984 38.425 41.04C38.5025 41.0789 38.2505 40.9622 38.3086 40.9428L38.328 41.0011C38.328 41.0206 38.328 41.1178 38.328 41.0595C38.2892 41.2734 38.0954 41.4679 37.9403 41.6041C38.2117 41.6819 38.4831 41.7402 38.7546 41.818C38.6964 41.5068 38.8127 41.0206 39.1423 40.8844C39.2005 40.8649 39.2781 40.8455 39.2781 40.8455C39.375 40.8649 39.4526 40.8844 39.5495 40.9428C39.6658 41.04 39.7046 41.1178 39.6852 41.2151C39.976 41.1762 40.2669 41.1373 40.5771 41.0984C40.5577 41.04 40.5965 40.9427 40.674 40.8844C40.4801 40.9038 40.2863 40.9427 40.0924 40.9622C40.4995 41.2345 40.6353 41.8375 40.4026 42.246C40.6159 42.1876 40.8485 42.1293 41.0618 42.0709C40.7322 41.8764 40.6546 41.429 40.8873 41.1178C40.5965 41.0789 40.3056 41.04 39.9954 41.0011C40.2863 41.7597 40.3444 42.5572 40.1312 43.3547C40.4026 43.2769 40.674 43.2185 40.9455 43.1407C40.4608 42.6544 40.3056 41.8764 40.6159 41.254C40.325 41.2151 40.0342 41.1762 39.724 41.1373C39.8791 41.5263 39.976 41.9347 39.9954 42.3627C39.9954 42.5572 39.9954 42.7711 39.9567 42.9656C39.9373 43.0435 39.8791 43.1991 39.8985 43.2769C39.8791 43.3352 39.8597 43.3547 39.8791 43.3352C39.9373 43.2769 40.0148 43.238 40.1118 43.2574H40.1312C40.1118 43.238 40.0924 43.2185 40.073 43.1991C40.0342 43.1407 39.9954 43.0824 39.976 43.024C39.8985 42.8489 39.8597 42.6544 39.8209 42.4794C39.7628 42.2265 39.7046 41.8764 39.8985 41.6624C39.6271 41.5846 39.3556 41.5263 39.0842 41.4485C39.2005 41.8958 39.2587 42.3432 39.2587 42.7906C39.2587 43.0046 39.2587 43.2185 39.2393 43.413C39.2393 43.4714 39.1811 43.5492 39.1811 43.5881C39.2005 43.5881 39.1811 43.6075 39.1423 43.627C39.2587 43.5492 39.375 43.5492 39.5107 43.6853C39.5301 43.6075 39.375 43.2963 39.3556 43.1991C39.2974 43.0046 39.2393 42.7906 39.2199 42.5961C39.1617 42.246 39.1811 41.8958 39.3556 41.5846C39.0648 41.5457 38.774 41.5068 38.4637 41.4679C38.7546 42.4016 38.7546 43.3741 38.425 44.2883C38.6964 44.2105 38.9678 44.1522 39.2393 44.0744C38.5801 43.3158 38.4444 42.2071 38.8321 41.2929C38.5219 41.254 38.1923 41.2151 37.8821 41.1567C37.9403 41.6819 37.979 42.1876 37.9403 42.7128C37.9209 42.9267 37.9209 43.1602 37.8627 43.3741C37.8433 43.4325 37.7851 43.5297 37.8045 43.5686C37.8045 43.6464 37.7658 43.5686 37.8045 43.5881C37.8045 43.5881 38.0178 43.5686 37.8627 43.5686C37.9984 43.6464 38.1341 43.7242 38.2892 43.802C37.9015 43.0629 37.8239 42.2071 38.0566 41.3901C37.7464 41.3901 37.4362 41.3901 37.1259 41.3901C37.3198 42.1293 37.281 42.9073 36.9708 43.6075C37.2617 43.6464 37.5525 43.6853 37.8627 43.7242C37.6106 43.0824 37.4943 42.4016 37.5913 41.7208C37.63 41.4874 37.5525 41.254 37.3198 41.1567C37.1065 41.0595 36.8351 41.1373 36.7188 41.3512C36.2922 42.0709 36.0596 42.8878 36.0596 43.7242C36.0596 43.9382 36.2147 44.1327 36.4086 44.1911C36.7382 44.2883 37.1065 44.1911 37.3198 43.9382C37.4943 43.7437 37.5137 43.4519 37.3198 43.2574C37.0678 43.1602 36.7188 43.1407 36.5637 43.3352Z" fill="#231F20"/>
<path d="M36.9342 20.7727C36.9342 20.7921 36.9148 20.7921 36.9148 20.8116C36.973 20.7532 37.0311 20.6949 37.0893 20.6365C37.0893 20.6365 37.0699 20.6365 37.0699 20.656C37.1475 20.6365 37.225 20.6171 37.322 20.5976C37.3026 20.5976 37.3026 20.5976 37.2832 20.5976C37.3607 20.6171 37.4383 20.6365 37.5352 20.656C37.574 20.6949 37.5934 20.7143 37.6322 20.7532C37.6516 20.831 37.671 20.9088 37.6903 21.0061C37.6903 20.9866 37.6903 20.9866 37.6903 20.9672C37.671 21.045 37.6516 21.1228 37.6322 21.22C37.4965 21.2978 37.4771 21.3367 37.574 21.2978C37.6128 21.2978 37.671 21.2784 37.7097 21.2784C37.7679 21.2784 37.8261 21.2589 37.9036 21.2589C38.0781 21.2589 38.2332 21.2589 38.4077 21.2589C38.7179 21.2784 39.0475 21.3756 39.3384 21.4729C39.9006 21.6869 40.4241 22.0759 40.7925 22.5427C41.6262 23.632 41.6456 25.188 40.9282 26.3356C40.5986 26.8608 41.4323 27.3665 41.7619 26.8219C42.5956 25.4603 42.615 23.6514 41.7813 22.2898C40.9864 20.9866 39.4547 20.1891 37.9424 20.2669C37.4965 20.2864 36.8373 20.3253 36.7403 20.8894C36.6628 21.4729 37.5159 21.8425 37.7873 21.2784C38.0393 20.6949 37.2056 20.2086 36.9342 20.7727Z" fill="#231F20"/>
<path d="M37.8627 21.8032C37.8433 21.7449 37.8627 21.6476 37.9208 21.6087C37.6688 21.4726 37.4361 21.3364 37.1841 21.1808C37.2422 21.9977 37.3198 22.7952 37.4361 23.5927C37.4555 23.8067 37.5718 24.0012 37.7851 24.0595C37.979 24.1179 38.231 24.0206 38.328 23.8456C38.6382 23.1842 38.8127 22.484 38.8321 21.7449C38.8515 21.2781 38.1535 21.0641 37.9208 21.492C37.3973 22.5618 37.4555 23.8845 38.1923 24.8376C38.4055 25.1293 38.8127 25.1682 39.026 24.8376C39.6076 23.9623 39.7821 22.9119 39.5882 21.9005C39.4913 21.4142 38.7739 21.4726 38.6576 21.9005C38.2892 23.1648 38.4443 24.5264 39.0647 25.6934C39.2392 26.0241 39.7239 25.9852 39.8984 25.6934C40.4413 24.8181 40.4607 23.7094 39.9566 22.8147C39.7627 22.4646 39.1617 22.5229 39.0647 22.9314C38.8127 24.1179 39.0066 25.3628 39.6464 26.3742C39.8015 26.6271 40.1893 26.7243 40.4025 26.4715C41.1005 25.6351 41.0811 24.3513 40.2862 23.5927C39.9954 23.3204 39.6076 23.476 39.4719 23.8067C39.1035 24.7014 39.375 25.7712 40.0536 26.4326C40.325 26.6854 40.7515 26.5687 40.8679 26.2186C41.1005 25.4406 41.1199 24.6431 40.926 23.865C40.8097 23.4177 40.0923 23.3982 39.9954 23.865C39.8015 24.7598 39.976 25.7323 40.5383 26.4715C40.8291 26.8605 41.3914 26.7243 41.4495 26.2186C41.6628 24.4097 40.8291 22.6007 39.3943 21.492C39.2392 21.7643 39.0647 22.0561 38.9096 22.3284C39.8403 22.7952 40.4413 23.7289 40.4607 24.7598C40.4607 25.3822 41.3914 25.3822 41.4301 24.7598C41.4883 23.69 41.023 22.6007 40.2087 21.9005C40.0148 21.7254 39.7239 21.706 39.5301 21.9005C39.3556 22.0755 39.3362 22.4257 39.5301 22.5813C40.1699 23.1259 40.4995 23.9039 40.4607 24.7598C40.7903 24.7598 41.1005 24.7598 41.4301 24.7598C41.4107 23.3982 40.6352 22.095 39.4137 21.4726C38.8515 21.1808 38.4443 21.9394 38.929 22.309C40.1117 23.2037 40.674 24.7403 40.5189 26.1797C40.8291 26.1019 41.1199 26.0241 41.4301 25.9268C41.023 25.4017 40.8485 24.7403 40.9842 24.0595C40.674 24.0595 40.3638 24.0595 40.0536 24.0595C40.1893 24.682 40.1699 25.3044 39.9954 25.9074C40.2668 25.8296 40.5383 25.7712 40.8097 25.6934C40.3444 25.2461 40.2281 24.6042 40.4801 24.0206C40.2087 24.0984 39.9372 24.1568 39.6658 24.2346C40.0729 24.6236 40.1505 25.3044 39.7821 25.7518C40.0342 25.7907 40.2862 25.8101 40.5383 25.849C40.0342 25.0515 39.8403 24.079 40.0536 23.1453C39.7627 23.1842 39.4719 23.2232 39.1617 23.2621C39.4913 23.865 39.4719 24.5847 39.1035 25.1488C39.375 25.1488 39.6658 25.1488 39.9372 25.1488C39.4331 24.2151 39.3362 23.1259 39.627 22.1144C39.3168 22.1144 39.0066 22.1144 38.6964 22.1144C38.8515 22.873 38.677 23.6511 38.2504 24.3124C38.5219 24.3124 38.8127 24.3124 39.0841 24.3124C38.58 23.6316 38.4249 22.7174 38.8127 21.9394C38.5025 21.8616 38.2116 21.7838 37.9014 21.6865C37.882 22.2506 37.7657 22.7952 37.5137 23.301C37.8239 23.3788 38.1147 23.4566 38.4249 23.5538C38.328 22.7563 38.2504 21.9394 38.1729 21.1419C38.1535 20.7918 37.7657 20.5 37.4361 20.714C36.9126 21.0641 36.7575 21.6865 37.0289 22.2312C37.1453 22.4646 37.4749 22.5229 37.6882 22.4062C37.9208 22.3284 37.979 22.0366 37.8627 21.8032Z" fill="#231F20"/>
<path d="M47.3471 30.8092C47.3277 31.5289 47.3083 32.2486 47.2889 32.9488C47.2695 33.5324 47.2501 34.1937 47.6379 34.68C47.8899 35.0106 48.3746 34.9717 48.5298 34.5633C49.0145 33.1823 49.1114 31.704 48.84 30.2646C48.7624 29.8561 48.142 29.7978 47.9481 30.1479C47.3083 31.315 47.1338 32.696 47.5022 33.9797C47.5991 34.3493 48.2195 34.5049 48.394 34.0964C48.9563 32.8127 49.0726 31.4122 48.7043 30.0701C48.5879 29.6811 48.0257 29.5838 47.8124 29.9534C47.095 31.2566 46.9205 32.8321 47.4052 34.2521C47.4828 34.5049 47.7348 34.6605 48.0063 34.5827C48.2583 34.5244 48.4328 34.2326 48.3359 33.9797C47.9481 32.8127 48.045 31.5095 48.6461 30.4397C48.3553 30.4008 48.0644 30.3619 47.7542 30.323C48.045 31.3928 47.9869 32.5793 47.5409 33.6102C47.8318 33.6491 48.1226 33.688 48.4328 33.7269C48.1226 32.696 48.2583 31.5873 48.7818 30.6342C48.491 30.5953 48.2002 30.5564 47.8899 30.5175C48.142 31.7818 48.0257 33.085 47.5797 34.291C47.8705 34.2521 48.1614 34.2132 48.4716 34.1743C48.1614 33.7658 48.2583 33.2406 48.2583 32.7738C48.2777 32.1125 48.2971 31.4511 48.3165 30.7898C48.3359 30.1868 47.3664 30.1868 47.3471 30.8092Z" fill="#231F20"/>
<path d="M65.7856 17.3089C65.4172 19.0206 66.3673 20.5766 67.2397 21.9771C68.151 23.4359 69.1204 24.8559 70.0511 26.2952C71.8736 29.0573 73.6573 31.9166 74.7819 35.0482C75.4023 36.7404 75.8094 38.5104 75.9258 40.3194C75.9646 40.9418 76.934 40.9418 76.8952 40.3194C76.6819 37.0711 75.5768 33.9784 74.0645 31.0996C72.494 28.0847 70.497 25.3227 68.6745 22.4634C68.1704 21.6853 67.6469 20.8879 67.2204 20.0709C66.8326 19.3123 66.5224 18.437 66.7162 17.5812C66.852 16.9588 65.9213 16.6865 65.7856 17.3089Z" fill="#231F20"/>
<path d="M66.736 18.1463C66.6002 16.6875 67.5503 15.4231 68.7718 14.7424C70.2841 13.9254 72.0872 14.1588 73.6383 14.7424C75.1893 15.3064 76.6435 16.2595 77.9231 17.3099C79.164 18.3408 80.2691 19.5273 81.1998 20.85C82.2468 22.3282 83.0611 23.9621 83.6233 25.6932C83.8172 26.2768 84.7479 26.0239 84.554 25.4404C83.4876 22.1143 81.4712 19.0994 78.8344 16.8236C77.4384 15.6371 75.8873 14.6062 74.1811 13.9254C72.4168 13.2252 70.381 12.9529 68.5973 13.7698C66.9298 14.5284 65.5727 16.2595 65.7665 18.1657C65.7859 18.4186 65.9798 18.652 66.2513 18.652C66.4839 18.6325 66.7554 18.3991 66.736 18.1463Z" fill="#231F20"/>
<path d="M44.1298 14.9368C44.1298 14.9562 44.1492 14.9562 44.1492 14.9757C44.1298 14.8979 44.1104 14.8201 44.091 14.7228V14.7423C44.1104 14.6645 44.1298 14.5867 44.1492 14.4894C44.2461 14.3143 44.3818 14.2754 44.5175 14.3338C44.5951 14.3727 44.6145 14.3727 44.5563 14.3338C44.6145 14.3922 44.6726 14.4505 44.7308 14.5089C44.7308 14.5283 44.6533 14.9173 44.6339 14.9173C44.6533 14.9173 44.7114 14.8979 44.7114 14.8979C44.7502 14.8979 44.8278 14.8784 44.9053 14.8784C45.138 14.859 45.3706 14.8201 45.6033 14.7812C46.0105 14.7034 46.3982 14.6256 46.786 14.5089C47.5809 14.2949 48.3758 14.0031 49.132 13.6919C50.7025 13.05 52.2148 12.3109 53.7852 11.7079C55.3363 11.1244 56.9649 10.677 58.613 10.7159C60.164 10.7354 61.5794 11.2605 62.8397 12.1358C64.2162 13.1084 65.3214 14.4116 66.3684 15.7148C66.5235 15.9288 66.8919 15.8899 67.047 15.7148C67.2408 15.5203 67.2021 15.2285 67.047 15.034C65.9612 13.6725 64.7979 12.3304 63.3631 11.3189C61.8508 10.2491 60.0865 9.68502 58.2252 9.74337C54.2506 9.84063 50.8964 12.1747 47.2125 13.3613C46.7084 13.5169 46.2043 13.653 45.7002 13.7697C45.4288 13.8281 45.1767 13.867 44.9053 13.9059C44.6726 13.9448 44.4594 13.9448 44.2461 14.042C43.7614 14.256 43.5675 14.9368 44.1104 15.2285C44.6339 15.5009 45.2155 15.0146 44.9441 14.47C44.8278 14.2365 44.4982 14.1782 44.2849 14.2949C44.0716 14.4116 44.0134 14.7034 44.1298 14.9368Z" fill="#231F20"/>
<path d="M56.3242 17.2517C58.7866 16.4154 61.5397 16.8433 63.6919 18.2826C64.2929 18.6911 64.8358 19.1968 65.3205 19.7415C65.495 19.936 65.8246 19.9165 65.9991 19.7415C66.193 19.547 66.1736 19.2552 65.9991 19.0607C64.1572 16.8822 61.2489 15.7151 58.4182 15.8707C57.6233 15.9096 56.8089 16.0652 56.0528 16.3181C55.8007 16.3959 55.6456 16.6488 55.7232 16.9211C55.8007 17.1545 56.0722 17.349 56.3242 17.2517Z" fill="#231F20"/>
<path d="M7.46456 36.4689C10.3534 34.8544 12.8933 32.6176 14.8516 29.9528C15.4138 29.1942 15.9179 28.3967 16.3833 27.5798C16.5384 27.3075 16.1118 27.0546 15.9567 27.3269C14.3475 30.1668 12.1372 32.637 9.51974 34.5627C8.78298 35.1073 8.00744 35.5936 7.21251 36.0409C6.96046 36.1966 7.19312 36.605 7.46456 36.4689Z" fill="#231F20"/>
<path d="M21.2108 20.4229C23.615 16.6494 25.4763 12.5452 26.7172 8.24658C27.0662 7.02116 27.3764 5.79575 27.6284 4.53144C27.6866 4.22023 27.2213 4.10352 27.1631 4.39529C26.2906 8.7523 24.7783 12.9926 22.6844 16.9217C22.1027 18.0304 21.4629 19.1197 20.7843 20.17C20.6098 20.4423 21.0363 20.6952 21.2108 20.4229Z" fill="#231F20"/>
<path d="M41.2013 20.4598C43.1595 21.3351 44.3228 23.6498 43.8187 25.7505C43.7411 26.0617 44.2065 26.1784 44.284 25.8866C44.8463 23.5914 43.6054 21.0045 41.4533 20.0514C41.1625 19.9152 40.9104 20.3431 41.2013 20.4598Z" fill="#231F20"/>
<path d="M42.0519 38.5303C43.5836 40.1837 44.1071 42.6539 43.4091 44.7935C43.3122 45.0853 43.7775 45.2215 43.8744 44.9297C44.6306 42.615 44.0489 39.9697 42.4009 38.1997C42.1876 37.9468 41.8386 38.2969 42.0519 38.5303Z" fill="#231F20"/>
<path d="M51.6885 33.1627C52.7549 33.5517 53.5111 34.641 53.5111 35.7691C53.5111 36.8973 52.7355 37.9865 51.6692 38.3561C51.3783 38.4534 51.4947 38.9396 51.8049 38.8229C53.0651 38.3755 53.9958 37.1307 53.9958 35.7691C53.9958 34.4076 53.0845 33.1627 51.8243 32.6959C51.5141 32.5986 51.3977 33.0654 51.6885 33.1627Z" fill="#231F20"/>
<path d="M51.9615 33.2791C53.2799 32.8706 54.3657 31.7035 54.5984 30.3225C54.8504 28.8831 54.2106 27.4049 53.0279 26.5685C52.7758 26.3934 52.5238 26.8019 52.7758 26.9964C53.784 27.7161 54.3463 29.0388 54.1136 30.2642C53.881 31.4507 52.9891 32.4621 51.8258 32.8122C51.535 32.89 51.6707 33.3763 51.9615 33.2791Z" fill="#231F20"/>
<path d="M50.4281 33.1035C50.971 33.123 51.4945 33.1424 52.0374 33.1619C52.1731 33.1619 52.2894 33.0452 52.27 32.9285C52.27 32.7923 52.1731 32.6951 52.0374 32.6951C51.4945 32.6756 50.971 32.6562 50.4281 32.6367C50.2924 32.6367 50.1761 32.7534 50.1955 32.8701C50.1955 33.0063 50.2924 33.1035 50.4281 33.1035Z" fill="#231F20"/>
</svg>
