<svg xmlns="http://www.w3.org/2000/svg" viewBox="0 0 821.73 122.46"><defs><style>.cls-1{fill:#fff;}</style></defs><g id="Layer_2" data-name="Layer 2"><g id="Layer_1-2" data-name="Layer 1"><g id="Layer_2-2" data-name="Layer 2"><g id="Layer_1-2-2" data-name="Layer 1-2"><path class="cls-1" d="M109,55.81c4.65.68,7.13-3.79,8.66-10.37C122,26.85,132.32,19.76,140.35,19.3A54.16,54.16,0,0,0,127,35.3c-2.69,4.55-3,8-2.67,9.44a2.9,2.9,0,0,0,5.51-.24c1.6-3.79,4.78-10.43,12.13-14.61S164.68,24,175.25,28.8c9.75,4.38,14.94,9.74,21.13,18.2,1.38,2.18,6.48,3.79,5.15-1.66S195,31.56,193.08,29.59c7.33-3,14.28-11.91,17.14-16.69-3.72-1.2-9.86.4-11,.93a66.46,66.46,0,0,0-8-5.26A22.83,22.83,0,0,0,188.94,0c-5.64,4.05-13.45,14.67-7.52,25.92-4.24-2.69-8.15-10.07-4.91-20.18-20.71-6.21-40.94,1.74-51,9.26-7.8,5.85-15,13.6-20.67,28.85C103.22,50.2,104.37,55.13,109,55.81Z"/><path class="cls-1" d="M199.8,28.93a48.4,48.4,0,0,1,8.69,11.9c2.49,4.62,7.58,3.79,6.11-.41-2.55-7.28-9.28-15.73-9.28-15.73A45.42,45.42,0,0,1,199.8,28.93Z"/><path class="cls-1" d="M135.72,42.69c-.72,2.32,2.9,4.23,4.56,2s2.52-9.21,13.14-14.83C146.82,29.63,137.82,36,135.72,42.69Z"/><path class="cls-1" d="M342.55,70.2c-2-1-4.61,1.88-5.09,3s-3.53,9.82-6.92,14-6.91,6.67-11.42,7.71-6.18-2.56-5.54-4.57.4-7.22-2.45-9.11c-.64,1.47-3.19,7.46-7.11,10.55-3.7,2.91-10.64,6.32-18.53,4.52s-9.68-8.73-8.47-12.68c10.45,2.45,16.48-1.9,17.15-5.77s-1.93-7.71-5-5.58-5.71,3.43-10.29,2.91A35.19,35.19,0,0,0,275.06,72c-2.85-2.13-6-1.7-9,.28a73.18,73.18,0,0,1-7-3.44c-2.92-1.63-4.37.63-5.29,2.52C251.52,76,255.26,81.47,258.35,83s4.31,3.16,3.51,5.17c-1.8,4.51-1,11.32.83,15.38-8.28-2.35-16.79-10-20-13.59s-4.72-6.45-6.06-6c-1.8.54-2.06,4.4-.5,7.46s7.65,11.65,15.91,17.46c19.78,13.91,45.06,15,65.21,2.3a58.68,58.68,0,0,0,25.4-34.34C343.32,74.56,344.55,71.15,342.55,70.2Z"/><path class="cls-1" d="M244.16,72.14c-.8-2-3.49-.27-3.08,3.3.34,3,3.12,13.16,16.44,22.4a21.41,21.41,0,0,1,.71-7.6C252.22,86.37,246.91,79.19,244.16,72.14Z"/><path class="cls-1" d="M325.27,75.5c-1.11,3.56-4,11-8.28,15.43,3.78,2.07,10.33-6.4,12.16-10.88,1.34-3.25,2.5-7.73,1.35-8.44S326.38,72,325.27,75.5Z"/><path class="cls-1" d="M277.25,70.2c2.4.73,4,4.27,7.35,1.83,1.26-.9,2.36-2,4.54-2.39a3.61,3.61,0,0,0-3-4.11,4.34,4.34,0,0,0-.51,0C282.52,65.22,280.14,69.46,277.25,70.2Z"/><path class="cls-1" d="M287.94,20.52c13-.78,24.26,3,33.68,11.94,7.57,7.22,8.42,15,13.15,23.55,1,1.84,3.68,3,5.4,2.33,3.6-1.33,3.4-5.59,2.6-8.33-5-17.26-11.88-26.67-27.27-34.15-20.26-9.85-40.07-7-58.85,4.47-10.72,6.57-18.73,16.06-26.26,26C221.05,58.59,213,71.79,202.77,83.45c-11.23,12.85-24.45,21.77-42.15,22.77-12.94.74-24.1-3-33.46-11.94C119,86.51,117.62,75.72,114.07,66c-1.21-3.32-4.94-5.35-7.3-3-2,2-3,6-1.82,11.29,3.3,16.26,12.6,28.67,27.71,36.26,20.41,10.25,40.44,7.49,59.47-4.17,10.72-6.57,18.73-16.07,26.26-26,9.33-12.29,17.43-25.49,27.62-37.14C257.19,30.49,270.33,21.58,287.94,20.52Z"/><path class="cls-1" d="M68.42,61.33a29.24,29.24,0,0,0,12-8.2,26.19,26.19,0,0,0,6.24-17.72A30.24,30.24,0,0,0,82,18.76,29.74,29.74,0,0,0,68.35,7.69Q59.26,3.74,45.46,3.75A79.42,79.42,0,0,0,25,6.38a56.92,56.92,0,0,0-17.8,8,8.72,8.72,0,0,0-3.36,3.78,6.85,6.85,0,0,0-.41,4.35A7.53,7.53,0,0,0,5.31,26.2,5.8,5.8,0,0,0,9,28a8.43,8.43,0,0,0,5.09-1.4A51,51,0,0,1,28.2,20.37a58.2,58.2,0,0,1,15.58-2.13,39.21,39.21,0,0,1,14.44,2.29,18,18,0,0,1,8.61,6.65A18,18,0,0,1,69.7,37.27q0,9-6,13.61t-18,4.6H26.43a7.69,7.69,0,0,0-5.49,1.8,6.5,6.5,0,0,0-1.89,4.92,6.62,6.62,0,0,0,1.89,5.17A7.86,7.86,0,0,0,26.43,69h22q12.3,0,18.21,4.6t5.91,14.1a19.38,19.38,0,0,1-3,11.16q-3,4.42-9.43,6.64t-16.4,2.22a71.54,71.54,0,0,1-12.14-1,55.76,55.76,0,0,1-10.83-3,48.27,48.27,0,0,1-9.75-5,7.7,7.7,0,0,0-4.92-1.39A6.57,6.57,0,0,0,2.24,99a6.4,6.4,0,0,0-2.05,3.53A7.67,7.67,0,0,0,.51,107a8.09,8.09,0,0,0,3.28,3.93,55.15,55.15,0,0,0,18.05,8.53,84.65,84.65,0,0,0,23,3q15.27,0,25.1-4t14.69-11.65A32.53,32.53,0,0,0,89.47,89q0-12-6.9-19.44A28.48,28.48,0,0,0,68.42,61.33Z"/><path class="cls-1" d="M457,4.08a8.58,8.58,0,0,0-6.31,2.21q-2.22,2.22-2.22,6.48V55.1h-64.8V12.77c0-2.84-.73-5-2.21-6.48a10.12,10.12,0,0,0-12.63,0q-2.22,2.22-2.22,6.48V113.33a8.75,8.75,0,0,0,2.22,6.4,8.36,8.36,0,0,0,6.32,2.3q4.26,0,6.39-2.3a9,9,0,0,0,2.13-6.4v-44h64.8v44a8.75,8.75,0,0,0,2.22,6.4A8.37,8.37,0,0,0,457,122a8.14,8.14,0,0,0,6.24-2.3,9,9,0,0,0,2.13-6.4V12.77q0-4.26-2.13-6.48A8.29,8.29,0,0,0,457,4.08Z"/><path class="cls-1" d="M584.18,5a6.78,6.78,0,0,0-3.61-.9,9.7,9.7,0,0,0-4.84,1.07,14.24,14.24,0,0,0-4,3.85L508.22,93.29V12.12a8.44,8.44,0,0,0-2-5.91,7.43,7.43,0,0,0-5.74-2.13,8,8,0,0,0-5.91,2.13,8,8,0,0,0-2.13,5.91V113.5a12.12,12.12,0,0,0,.49,3.69,8.21,8.21,0,0,0,1.39,2.71,4.92,4.92,0,0,0,2.3,1.64,9.29,9.29,0,0,0,3,.49,8.34,8.34,0,0,0,4.76-1.15,18.79,18.79,0,0,0,3.77-3.94l63.49-84.13v81a8.39,8.39,0,0,0,2,6.07,7.67,7.67,0,0,0,5.82,2.13q3.94,0,5.91-2.13a8.71,8.71,0,0,0,2-6.07V12a9.63,9.63,0,0,0-.9-4.26A6.5,6.5,0,0,0,584.18,5Z"/><path class="cls-1" d="M687.52,80.2a51.19,51.19,0,0,0-12.46-16.57,31.34,31.34,0,0,0-9-5.28l28-42.13a9.39,9.39,0,0,0,1.64-5.41,6.38,6.38,0,0,0-1.89-4.19,8.42,8.42,0,0,0-4.18-2.29,8,8,0,0,0-4.92.41,9.15,9.15,0,0,0-4.27,3.77L650,55.59H631.42v-43c0-2.84-.73-5-2.21-6.4a10.44,10.44,0,0,0-12.64,0c-1.48,1.43-2.21,3.57-2.21,6.4V113.33a8.89,8.89,0,0,0,2.21,6.4,8.42,8.42,0,0,0,6.32,2.3c2.84,0,5-.77,6.4-2.3a9,9,0,0,0,2.13-6.4V69.86h16.9q8.67,0,14.6,4t10.33,13.37L687,116.61a8.86,8.86,0,0,0,4,4.39,9.13,9.13,0,0,0,5,1,9,9,0,0,0,4.6-1.81,7.39,7.39,0,0,0,2.7-4.18,7.66,7.66,0,0,0-1.15-5.74Z"/><path class="cls-1" d="M820.56,111,776.11,11.3a11.79,11.79,0,0,0-4.19-5.58,10,10,0,0,0-5.49-1.64,10.26,10.26,0,0,0-5.66,1.64,11.66,11.66,0,0,0-4.18,5.58L712.13,111a10.6,10.6,0,0,0-1,5.57,5.59,5.59,0,0,0,2.29,3.94,8.47,8.47,0,0,0,5.25,1.48,7.75,7.75,0,0,0,5.25-1.72,15.57,15.57,0,0,0,3.61-5.66l9.36-22h58.57l9.5,22a14.73,14.73,0,0,0,3.77,5.57,8.56,8.56,0,0,0,5.74,1.81,8.13,8.13,0,0,0,5.09-1.4,5.64,5.64,0,0,0,2.13-3.93A10.28,10.28,0,0,0,820.56,111ZM766.1,24.09h.33l23.26,54.79H743Z"/></g></g></g></g></svg>