<svg width="24" height="26" viewBox="0 0 24 26" fill="none" xmlns="http://www.w3.org/2000/svg">
<g clip-path="url(#clip0_259_814)">
<path d="M15.6555 0C16.1429 0.136842 16.573 0.328421 16.9171 0.684211C17.3759 1.17684 17.6053 1.75158 17.5766 2.40842C17.5766 3.03789 17.5766 3.03789 18.2075 3.03789C19.3257 3.03789 20.4153 3.03789 21.5336 3.03789C22.5659 3.03789 23.3401 3.53053 23.7415 4.43368C24.1429 5.30947 23.9709 6.15789 23.3114 6.89684C23.082 7.14316 22.8239 7.33474 22.5085 7.44421C22.3652 7.49895 22.3078 7.58105 22.2791 7.74526C22.1358 9.49684 21.9637 11.2484 21.8204 13.0274C21.7057 14.3684 21.591 15.6821 21.4763 17.0232C21.3616 18.3368 21.2469 19.6779 21.1322 20.9916C21.0462 21.8947 20.9601 22.7979 20.9028 23.7284C20.8168 25.0968 19.7845 26.0274 18.3508 26.0274C14.0784 26.0274 9.80602 26.0274 5.53362 26.0274C4.09993 26.0274 3.06767 25.0695 2.98165 23.7011C2.89563 22.3326 2.75226 20.9642 2.63756 19.6232C2.55154 18.5011 2.43685 17.3789 2.35083 16.2568C2.29348 15.08 2.20746 13.9579 2.09276 12.8358C2.00674 11.7137 1.89205 10.6189 1.80602 9.49684C1.74868 8.89474 1.69133 8.29263 1.66265 7.69053C1.66265 7.52632 1.54796 7.49895 1.40459 7.44421C0.65907 7.11579 0.200289 6.56842 0.0282457 5.80211C-0.287166 4.46105 0.831113 3.09263 2.2648 3.06526C3.52645 3.03789 4.7881 3.06526 6.04975 3.06526C6.30782 3.06526 6.39384 2.98316 6.36516 2.73684C6.33649 2.27158 6.33649 1.80632 6.56588 1.36842C6.88129 0.738947 7.39742 0.301053 8.08559 0.0821053C8.20029 0.0547368 8.25764 0.0273684 8.31498 0C10.7809 0 13.2182 0 15.6555 0ZM11.9852 24.44C14.0498 24.44 16.1429 24.44 18.2075 24.44C18.3795 24.44 18.5229 24.44 18.6949 24.3853C19.0103 24.3032 19.2397 24.0568 19.2684 23.7558C19.3831 22.5242 19.4978 21.2653 19.5838 20.0063C19.6698 19.1305 19.7272 18.2274 19.8132 17.3516C19.8992 16.2295 20.0139 15.1074 20.0999 13.9579C20.186 13.0274 20.2433 12.1242 20.3293 11.1937C20.4153 10.0989 20.53 8.97684 20.6161 7.8821C20.6447 7.63579 20.5587 7.55368 20.3006 7.55368C14.7379 7.55368 9.20387 7.55368 3.64115 7.55368C3.32574 7.55368 3.29706 7.55368 3.32574 7.8821C3.38308 8.73053 3.46911 9.57895 3.55513 10.4274C3.6985 11.96 3.84187 13.4926 3.95656 15.0253C4.07126 16.3389 4.18595 17.68 4.30065 18.9937C4.41534 20.4168 4.55871 21.8126 4.67341 23.2358C4.70208 23.4 4.70208 23.5642 4.73076 23.7284C4.7881 24.1116 5.13219 24.3579 5.67699 24.3579C7.79886 24.44 9.89204 24.44 11.9852 24.44ZM11.9852 6.07579C15.082 6.07579 18.1788 6.07579 21.2469 6.07579C21.4189 6.07579 21.591 6.07579 21.7343 6.02105C22.1071 5.91158 22.3365 5.55579 22.2791 5.2C22.1931 4.78947 21.8777 4.57053 21.3329 4.57053C15.082 4.57053 8.83111 4.57053 2.60889 4.57053C2.46552 4.57053 2.35083 4.59789 2.20746 4.62526C1.86337 4.70737 1.63398 5.00842 1.63398 5.33684C1.63398 5.66526 1.86337 5.93895 2.20746 6.02105C2.3795 6.07579 2.55154 6.07579 2.69491 6.07579C5.82036 6.07579 8.91713 6.07579 11.9852 6.07579ZM11.9852 3.03789C13.1035 3.03789 14.1931 3.03789 15.3114 3.03789C16.0282 3.03789 16.0282 3.03789 15.9709 2.35368C15.9422 1.86105 15.6555 1.58737 15.1394 1.56C15.0533 1.56 14.9386 1.56 14.8526 1.56C12.9888 1.56 11.125 1.56 9.26122 1.56C8.22896 1.53263 8.02825 1.75158 8.02825 2.73684C8.02825 2.95579 8.08559 3.03789 8.34366 3.03789C9.54796 3.01053 10.7523 3.03789 11.9852 3.03789Z" fill="#231F20"/>
<path d="M8.83033 21.9221C8.83033 22.0863 8.85901 22.2505 8.80166 22.4147C8.68696 22.7705 8.34288 22.9895 7.91277 22.9621C7.54001 22.9347 7.2246 22.6611 7.19592 22.2779C7.13857 21.8947 7.1099 21.4842 7.1099 21.1011C7.02388 19.8421 6.96653 18.6105 6.88051 17.3516C6.76581 15.6 6.65112 13.8758 6.53642 12.1242C6.47908 11.4126 6.4504 10.7011 6.42173 9.98948C6.39305 9.49685 6.70847 9.16842 7.16725 9.11369C7.6547 9.08632 8.02746 9.36 8.05614 9.88C8.11349 10.5916 8.17083 11.2758 8.19951 11.9874C8.3142 13.5474 8.40022 15.08 8.51492 16.64C8.57227 17.5432 8.62961 18.4737 8.68696 19.3768C8.71564 20.2253 8.77298 21.0737 8.83033 21.9221Z" fill="#231F20"/>
<path d="M15.168 21.8674C15.254 20.6358 15.34 19.3495 15.426 18.0905C15.4834 17.1874 15.5407 16.3116 15.5981 15.4084C15.6841 14.1221 15.7701 12.8358 15.8561 11.5495C15.8848 10.9747 15.9135 10.4274 15.9708 9.85262C15.9995 9.38735 16.3723 9.11367 16.8597 9.14104C17.2898 9.16841 17.6052 9.49683 17.6052 9.96209C17.5479 11.0295 17.4905 12.0695 17.4045 13.1368C17.3759 13.7663 17.3185 14.4231 17.2898 15.0526C17.2038 16.3389 17.1178 17.6252 17.0318 18.9116C16.9744 19.8421 16.9171 20.7452 16.8597 21.6758C16.8597 21.8947 16.8311 22.1137 16.8024 22.3326C16.745 22.7431 16.3723 23.0168 15.9422 22.9895C15.5407 22.9621 15.1966 22.661 15.1966 22.2505C15.168 22.1137 15.168 22.0042 15.168 21.8674Z" fill="#231F20"/>
<path d="M11.1836 16.0106C11.1836 13.9854 11.1836 11.9601 11.1836 9.93483C11.1836 9.4422 11.499 9.11378 11.9578 9.11378C12.4739 9.08641 12.818 9.4422 12.818 9.9622C12.818 12.8906 12.818 15.819 12.818 18.7475C12.818 19.8969 12.818 21.019 12.818 22.1685C12.818 22.579 12.5313 22.8801 12.1585 22.9348C11.7571 22.9896 11.3556 22.7706 11.2409 22.4148C11.1836 22.278 11.2123 22.1411 11.2123 22.0043C11.1836 20.0064 11.1836 18.0085 11.1836 16.0106Z" fill="#231F20"/>
</g>
<defs>
<clipPath id="clip0_259_814">
<rect width="24" height="26" fill="white"/>
</clipPath>
</defs>
</svg>
