<svg width="115" height="94" viewBox="0 0 115 94" fill="none" xmlns="http://www.w3.org/2000/svg">
<path d="M113.4 84.4C112.3 82.9 110.2 82.1 107.7 82.1C107.7 82.1 107.7 82.1 107.6 82.1C105.5 80.3 103.6 78 101.8 75.4C100.1 72.8 98.5998 69.9 97.4998 67C97.0998 66 96.7998 64.8 96.4998 63.5C95.6998 59.8 95.5998 55.9 96.0998 52.9C96.6998 49.4 98.0998 47.3 100.3 46.5C100.6 46.4 100.8 46.3 101.1 46.3C101.5 46.2 102 46.2 102.4 46.2C102.8 46.2 103.2 46.3 103.6 46.5C104.4 46.9 105.2 46.9 106 46.7C106.8 46.5 107.5 46 108 45.3L110.1 42.3C110.7 41.5 110.9 40.5 110.7 39.5C110.5 38.5 110 37.7 109.2 37C108.8 36.7 108.5 36.4 108.2 36C107.9 35.6 107.7 35.2 107.6 34.8V34.7C107 33.1 105.9 31.6 104.5 30.6C103.6 30 102.6 29.5 101.6 29.2V24.7C101.6 23.6 100.7 22.7 99.5998 22.7C98.9998 22.7 98.4998 23 98.0998 23.4L92.7998 29C89.1998 30.2 87.2998 31.8 85.5998 33.2C83.9998 34.5 82.6998 35.7 79.8998 36.4C76.3998 37.3 68.6998 36.2 59.7998 35C49.0998 33.5 36.8998 31.9 27.2998 33C26.2998 33 25.3998 32.6 24.3998 31.8C23.2998 30.9 22.2998 29.5 21.5998 27.8C20.6998 25.8 20.3997 23.3 20.5998 21C20.7998 18.7 21.5998 16.5 22.7998 14.9C23.7998 13.5 25.0998 12.6 26.4998 12.1C27.7998 11.6 29.1998 11.6 30.4998 12.1C30.8998 12.2 31.2997 12.4 31.6997 12.7C32.0997 12.9 32.4998 13.3 32.8998 13.6C34.0998 14.6 35.4998 15.1 36.9998 15C38.4998 14.9 39.8998 14.2 40.8998 13C41.8998 11.8 42.3998 10.4 42.2998 8.8C42.1998 7.3 41.4998 5.9 40.2998 4.9C39.3998 4.1 38.3998 3.4 37.3998 2.8C36.3998 2.2 35.2997 1.7 34.1997 1.3C30.4997 7.15256e-07 26.5998 -0.0999997 22.8998 1.2C19.1998 2.4 15.9998 4.9 13.4998 8.2C11.0998 11.5 9.59973 15.5 9.19973 19.9C8.79973 24.2 9.49975 28.6 11.0998 32.5C11.6998 33.9 12.3997 35.1 13.1997 36.3C13.9997 37.5 14.8998 38.6 15.8998 39.6C16.0998 39.8 16.3998 40.1 16.4998 40.5C16.6998 41 16.5998 41.8 16.4998 42.7C15.3998 46.2 14.6998 48.8 14.0998 51.2C13.7998 52.5 13.5998 53.8 13.3998 55.1C12.6998 54 11.8997 52.8 11.1997 51.1C10.3997 49.2 9.99973 45.8 9.69973 43C9.49973 41.4 9.39975 40.1 9.09975 39.2C8.79975 38.2 8.19977 36.4 6.49977 35.6C5.49977 35.1 4.29973 35.2 3.19973 35.7C0.499726 37.1 1.29982 40.2 1.79982 41.7C1.89982 42 1.99978 42.5 1.99978 42.7C2.09978 43.5 2.19973 45.1 2.19973 47.3C2.09973 50.7 3.2998 55.7 5.8998 59.1C7.0998 60.6 7.79973 61.9 8.19973 62.8C7.59973 64 6.89973 65.7 6.69973 67.3C6.49973 68.8 6.59973 70.3 6.69973 71.3C6.09973 71.9 5.49982 72.6 4.79982 73.5C4.19982 74.2 3.59977 74.6 2.99977 75C2.29977 75.5 1.49978 76 0.999775 76.9C0.199775 78.4 0.599726 80.6 1.19973 83.3C1.29973 83.9 1.49975 84.5 1.59975 85.1C2.29975 89 4.69977 89.9 5.99977 90.1H6.09975C7.49975 90.2 8.99977 90.2 9.99977 89.2C10.5998 88.6 10.9998 87.8 10.9998 86.9C10.9998 85.5 10.1998 84.2 8.79982 83.4C8.79982 83 8.8998 82.6 8.8998 82.3C9.6998 81.9 11.5998 81.1 14.3998 80.2C14.7998 80.5 15.1998 80.7 15.4998 81C15.3998 81.3 15.3998 81.6 15.2998 81.8C15.0998 82.6 14.8998 83.4 14.9998 84.3C15.0998 87.3 17.2998 88.5 19.2998 89.5C20.1998 90 21.0998 90.4 21.9998 91.1C23.9998 92.7 25.3998 93.3 26.7998 93.3C27.1998 93.3 27.3997 93.3 27.6997 93.2C28.7997 93.2 29.8997 92.6 30.5998 91.8C31.2998 91 31.4998 89.9 31.2998 89C30.8998 87.3 29.7998 86.5 27.8998 86.4C27.3998 86.2 26.1998 85.5 25.4998 85C27.3998 83.8 28.6998 82.2 29.5998 80.9C29.6998 80.9 29.7998 80.9 29.8998 80.9C34.0998 80.9 37.6998 79.8 38.9998 79.4C39.1998 80.2 39.4998 81.3 39.8998 82.6C40.8998 86.4 42.7998 88.7 45.2998 89C45.5998 89 45.8997 89 46.0998 89C47.4998 89 48.5998 88.6 49.2998 87.8C49.9998 87 50.2998 86 50.0998 84.9C49.9998 84.3 49.6998 83.8 49.3998 83.3C49.9998 83.5 50.4998 83.7 50.8998 83.8C51.0998 83.9 51.2998 83.9 51.4998 84C51.6998 84.2 51.8997 84.7 52.0998 85.1L52.1997 85.3C53.0997 86.9 54.2998 87.9 55.5998 88.2C57.0998 88.6 58.1997 88.1 58.5998 87.8V87.9C58.9998 88.6 59.5998 89.1 60.4998 89.5C60.5998 89.6 60.6998 89.6 60.7998 89.6C63.6998 90.5 66.1997 90.4 67.6997 89.4C68.3997 89 68.7998 88.4 69.0998 87.7C69.3998 87 69.3998 86.2 69.0998 85.5C68.7998 84.6 68.1997 83.8 67.1997 83.2C67.9997 80.1 69.5998 75.7 72.5998 72C74.8998 69.2 77.6998 67.1 80.8998 66C80.7998 66.5 80.7998 67.1 81.0998 67.5C84.3998 73.2 88.0998 77.9 91.9998 81.6C95.9998 85.3 100.3 87.9 104.8 89.4C106.4 89.9 107.9 90.2 109.2 90.2C110.4 90.2 111.5 90 112.3 89.5C113.2 88.9 113.8 88.1 114 87.1C114.3 86.2 114.1 85.2 113.4 84.4ZM64.5998 86.2C64.6998 86.2 64.8998 86.3 64.9998 86.3C64.4998 86.3 63.5997 86.3 62.1997 85.9C62.1997 85.9 62.0998 85.9 62.0998 85.8C62.0998 85.7 62.0998 85.7 62.0998 85.5C62.2998 81.3 62.9998 75.7 63.8998 70.4C64.7998 65.3 65.8998 60.8 66.9998 57.5C67.1998 57 67.0998 56.5 66.8998 56C66.6998 55.5 66.2998 55.2 65.7998 55C65.2998 54.8 64.7998 54.9 64.2998 55.1C63.7998 55.3 63.4998 55.7 63.2998 56.2C62.6998 57.9 62.0998 59.9 61.5998 62.2V62.1C61.2998 61.7 60.8998 61.4 60.3998 61.3C59.7998 61.2 59.1997 61.1 58.5998 61C60.1997 59 60.6998 56 60.3998 54.3C60.2998 53.6 59.7998 53 59.0998 52.7C58.8997 52.2 58.6998 51.4 57.9998 50.5C57.5998 49.9 56.8997 49.2 56.0998 48.7C56.3997 46.4 55.9998 44.8 54.7998 44.2C53.1998 43.3 51.7998 44.4 50.9998 45.1C50.7998 44.7 50.5998 44.4 50.3998 44.1C49.8998 43.6 49.1998 43.4 48.4998 43.5C46.9998 43.7 46.2998 45 45.7998 46.1C45.6998 46.3 45.4998 46.7 45.3998 46.9C44.9998 47.5 44.6997 48.1 44.5998 48.8C42.6997 50.6 41.4998 53 40.3998 55C39.9998 55.8 39.4997 56.6 39.1997 57C38.6997 57.6 38.7998 57.6 36.7998 57.6H36.1997H30.1997H30.0998C24.1998 57.9 19.0998 57.3 17.3998 56.8C17.5998 55.1 17.8998 53.6 18.2998 52C18.8998 49.6 19.5998 47.1 20.5998 43.6V43.5C20.8997 41.8 20.8997 40.5 20.5998 39.3C20.1998 38.1 19.5998 37.3 18.9998 36.8C18.1998 36 17.3998 35.1 16.7998 34.1C16.0998 33.1 15.4998 32 15.0998 30.9C13.6998 27.6 13.0998 23.9 13.4998 20.2C13.8998 16.6 15.0998 13.2 17.0998 10.5C19.0998 7.8 21.5998 5.9 24.5998 4.9C27.4998 3.9 30.4998 4 33.3998 5C34.2998 5.3 35.0998 5.7 35.8998 6.2C36.6998 6.7 37.4997 7.2 38.1997 7.9C38.5997 8.2 38.7998 8.7 38.7998 9.1C38.7998 9.6 38.6998 10.1 38.3998 10.4C38.0998 10.8 37.5997 11 37.1997 11C36.6997 11 36.2998 10.9 35.8998 10.6C35.2998 10.1 34.6997 9.7 34.0998 9.3C33.4998 8.9 32.7997 8.6 32.1997 8.4C29.9997 7.6 27.6998 7.6 25.4998 8.4C23.3998 9.2 21.4998 10.6 19.9998 12.6C18.3998 14.8 17.3997 17.6 17.0998 20.7C16.7998 23.7 17.2998 26.8 18.3998 29.4C19.2998 31.6 20.6998 33.5 22.2998 34.8C23.9998 36.2 25.7998 36.9 27.7998 36.9H27.9998C37.1998 35.8 49.0997 37.5 59.6997 38.9C68.9997 40.2 76.8997 41.2 81.1997 40.2C84.8997 39.3 86.7998 37.7 88.5998 36.2C90.0998 34.9 91.6998 33.6 94.8998 32.6C95.1998 32.5 95.4997 32.3 95.6997 32.1L97.9998 29.7V31V31.1C98.0998 32.1 98.8998 32.9 99.8998 32.9C100.8 32.9 101.7 33.2 102.5 33.8C103.3 34.4 103.9 35.2 104.2 36C104.5 36.8 104.9 37.6 105.4 38.3C105.9 39 106.5 39.6 107.2 40.2C106.8 40.7 106.5 41.2 106.1 41.7C105.8 42.1 105.6 42.4 105.3 42.8C104.6 42.5 103.8 42.3 103.1 42.3C102.3 42.2 101.4 42.3 100.6 42.4C100.1 42.5 99.6997 42.6 99.1997 42.8C95.6997 44.1 93.2998 47.3 92.4998 52.2C92.2998 53.4 92.1997 54.7 92.1997 56.1C92.1997 56 92.0998 55.9 92.0998 55.9C91.7998 55.5 91.2998 55.2 90.7998 55.1C90.2998 55 89.7998 55.1 89.2998 55.4C88.8998 55.7 88.5998 56.2 88.4998 56.7C88.2998 57.6 87.6998 58.5 86.5998 59.4C85.2998 60.5 83.2998 61.4 81.2998 62C76.7998 63.3 72.9998 65.9 69.8998 69.7C66.0998 74.5 64.1998 80.1 63.2998 83.9C62.9998 84.8 63.5998 85.9 64.5998 86.2ZM43.8998 80.7V80.8C43.8998 81.2 43.8998 81.6 43.9998 81.9C43.9998 81.8 43.8998 81.6 43.8998 81.5C43.2998 79 42.5998 77 42.3998 76.2C42.0998 75.4 41.3998 74.8 40.4998 74.8H40.3998C40.0998 74.8 39.7998 74.9 39.4998 74.9C39.2998 74.9 39.0998 75 38.5998 75.2C36.9998 75.7 33.1998 77 28.8998 76.7C28.1998 76.7 27.5997 77 27.1997 77.5C27.0997 77.6 26.9998 77.8 26.8998 78L26.7998 78.1C25.8998 79.3 24.6998 81.1 22.5998 82C22.2998 82.1 22.0998 82.3 21.8998 82.5C21.0998 83.4 20.9998 84.6 21.4998 85.8C19.5998 84.8 19.2998 84.5 19.2998 83.9C19.2998 83.6 19.3998 83 19.4998 82.5C19.6998 81.5 19.9997 80.4 19.6997 79.3C19.5997 78.7 19.1997 78.3 18.6997 78C17.9997 77.6 16.6998 76.7 16.2998 76.3C15.8998 76 15.4998 75.8 14.8998 75.8C14.6998 75.8 14.4997 75.8 14.1997 75.9C6.59973 78.6 6.09982 79.2 5.79982 79.6C5.69982 79.7 5.69975 79.8 5.59975 79.9C5.29975 80.4 5.19975 81.1 5.09975 81.8C4.89975 80.7 4.59973 79.2 4.69973 78.7C4.79973 78.6 5.0998 78.4 5.3998 78.2C6.0998 77.7 7.19975 77.1 8.09975 75.8C9.39975 74.2 10.0997 73.6 10.1997 73.4C10.7997 72.9 11.0998 72.2 10.8998 71.5C10.6998 70.5 10.4997 68.9 10.6997 67.7C10.8997 66.4 11.5997 64.7 12.1997 63.6C12.4997 63.1 12.4998 62.5 12.2998 62C12.0998 61.4 11.0998 59.1 8.99977 56.5C6.99977 54 6.09975 50 6.09975 47.2C6.09975 47.1 6.09975 47 6.09975 47C6.39975 49 6.79978 51 7.49977 52.5C8.49977 54.9 9.69975 56.5 10.5998 57.9C10.7998 58.2 10.9997 58.5 11.1997 58.7C11.5997 59.2 12.1998 59.6 12.7998 59.6C12.8998 59.6 13.8997 59.6 15.1997 60.2C17.2997 61.1 23.3998 61.8 29.8998 61.4H35.7998H36.3998C38.9998 61.4 40.1998 61.4 41.8998 59.3C42.3998 58.7 42.8998 57.7 43.3998 56.7C44.3998 54.9 45.5997 52.6 47.1997 51.2C47.4997 50.9 47.6998 50.6 47.7998 50.2C48.1998 50.5 48.5998 50.6 48.9998 50.6C49.0998 50.6 49.1998 50.6 49.3998 50.6C49.9998 50.6 50.4998 50.4 50.8998 50C51.0998 49.8 51.1998 49.7 51.3998 49.5C51.2998 50.3 51.7998 51.1 52.4998 51.4C53.5998 52 54.0998 52.5 54.2998 52.7C54.6998 53.3 54.7998 53.7 54.8998 54C55.0998 54.6 55.3997 55.3 56.0998 55.8C55.9998 56.7 55.5998 57.9 55.0998 58.6L54.7998 58.7C52.6998 59.2 50.1997 59.9 49.1997 63.2C49.0997 63.4 49.0998 63.6 49.0998 63.9C49.2998 66.9 48.9998 67.5 48.5998 68.4C48.4998 68.6 48.3998 68.9 48.2998 69.2C48.1998 69.4 48.1997 69.6 48.0998 69.8V69.9C47.3997 71.9 46.0998 75.2 48.7998 77C49.5998 77.6 50.4998 78 51.2998 78.5C52.0998 79 53.3997 79.7 53.6997 80C53.9997 80.6 54.3998 81.3 54.7998 81.9C55.0998 82.4 55.5998 83.2 55.8998 83.8C55.7998 83.6 55.5998 83.4 55.4998 83.2L55.3998 83C54.3998 81.2 53.9998 80.6 52.4998 80.1C52.3998 80.1 52.1998 80 51.9998 80C51.1998 79.7 48.8997 78.8 46.5998 77.6C45.9998 77.3 45.1997 77.3 44.5998 77.7C43.9998 78.1 43.6997 78.8 43.6997 79.5C43.7997 79.9 43.8998 80.3 43.8998 80.7ZM52.0998 71.3C52.1997 71 52.2998 70.8 52.3998 70.5C52.4998 70.3 52.5998 70.1 52.5998 69.9C53.0998 68.6 53.4998 67.5 53.3998 64.7C55.5998 64.7 57.6998 64.9 59.4998 65.2C59.9998 65.3 60.4998 65.2 60.8998 64.9C60.5998 66.4 60.2998 68.1 59.9998 69.7C59.3998 73.2 58.8998 76.9 58.4998 80.2C58.3998 80.1 58.2998 79.9 58.2998 79.8C57.9998 79.3 57.5998 78.7 57.2998 78.1C56.5998 76.9 55.1998 76 53.3998 75C52.6998 74.6 51.9998 74.2 51.2998 73.7C51.2998 73.3 51.8997 71.8 52.0998 71.3ZM88.8998 62.4C90.4998 61.1 91.5998 59.6 92.0998 58C92.1998 60 92.3998 62.1 92.8998 64.2C93.1998 65.7 93.5998 67.1 93.9998 68.3C95.1998 71.5 96.7997 74.7 98.6997 77.5C100.6 80.4 102.8 82.9 105.1 84.9C105.1 84.9 105.2 85 105.3 85C105.7 85.3 106 85.5 106.4 85.7C106.8 85.8 107.2 85.9 107.5 86C107.6 86 107.7 86 107.7 86C108.7 86 109.3 86.2 109.7 86.3C109.1 86.3 108 86.3 106.2 85.7C102.2 84.4 98.3998 82 94.8998 78.7C91.2998 75.3 87.7997 70.9 84.6997 65.5C84.5997 65.3 84.3997 65.1 84.1997 64.9C85.4997 64.5 87.2998 63.6 88.8998 62.4Z" fill="#729EFC"/>
</svg>
