<svg width="128" height="82" viewBox="0 0 128 82" fill="none" xmlns="http://www.w3.org/2000/svg">
<path d="M124.7 32.9C124.7 32.8 123 22.3 120.6 15.6C117.6 7.09999 113 1.89999 107.3 0.599995C100.5 -0.900005 98.4996 2.09999 98.0996 2.99999C97.9996 3.29999 97.5996 4.29999 98.1996 5.49999C98.6996 6.59999 99.7996 7.3 101.5 7.7C106.5 8.8 107.8 10.3 107.9 10.5C108.1 11 109.4 13.9 110.9 16.5C111.4 19.7 113.9 27.3 114.4 28.8C114.5 29 114.5 29.1 114.6 29.2C114.8 29.6 115 30 115.1 30.4C101.7 28 90.3996 40.9 89.0996 44.5C88.2996 46.7 85.6996 49.6 85.2996 50.1C84.3996 50.5 82.9996 51 81.7996 50.9C80.7996 49.9 79.2996 49.5 78.0996 49.3C77.1996 48.2 74.7996 45.7 71.3996 45.8C68.8996 45.1 67.0996 45.2 65.7996 46.3C65.5996 46.5 65.3996 46.7 65.1996 47C56.2996 45.5 55.3996 45.9 54.6996 47.6C54.4996 48.1 54.4996 48.6 54.5996 49.1C54.7996 50.7 56.2996 52.5 59.4996 54.9C58.4996 59.2 59.7996 62.5 60.3996 63.7C60.3996 64.2 60.4996 64.8 60.5996 65.3C58.7996 65.9 56.2996 66.5 54.6996 66.9C51.8996 67.6 51.2996 67.8 50.7996 68.1C50.3996 68.3 48.0996 69.2 45.3996 70.1C44.0996 69.7 41.6996 69.1 40.0996 70C39.6996 70.2 39.3996 70.5 39.0996 70.8C37.4996 71.4 36.8996 72.4 36.5996 73.2C35.9996 75.4 37.8996 77.4 38.2996 77.8C38.6996 78.2 39.1996 78.4 39.6996 78.4C40.1996 78.4 45.0996 78.6 48.6996 78.2C48.6996 78.2 48.7996 78.2 48.8996 78.2C50.2996 79.3 52.1996 79.5 53.2996 79.5C53.5996 79.5 53.7996 79.5 53.8996 79.5H54.0996C60.5996 79.4 75.9996 79.1 78.3996 78.9C81.1996 78.6 84.5996 75.5 86.4996 73.7C87.9996 73.5 91.4996 72.9 94.1996 71.8C94.1996 71.9 94.1996 72 94.1996 72C94.1996 74.9 97.8996 75.7 100.1 75.9C100.2 75.9 100.2 75.9 100.3 75.9C101.2 75.9 103.5 75.8 105 74.5C105.1 74.5 105.2 74.5 105.3 74.4C105.5 75.9 106.6 77 106.7 77.2C107.1 77.6 107.5 77.8 108 77.9L111.3 78.3C115.5 78.8 116.9 76.5 117.2 75.9C117.8 75.1 120.8 71 122.5 68.3C124.9 64.4 123.5 60.9 122.5 59.6C122.3 59.4 121.8 58.4 121.4 57.3C121.3 56.1 121 50.5 124.2 47.8C126.1 46.2 127.1 44.4 127.3 42.3C127.5 39.9 126.4 38 125.7 37L124.7 32.9ZM43.2996 74.1C42.9996 74.1 42.5996 74.1 42.2996 74.1L42.3996 74C42.5996 74 42.8996 74 43.2996 74.1ZM117 58C117 58.2 117.1 58.3 117.1 58.5C117.4 59.3 118.3 61.4 119 62.3C119 62.3 120 63.7 118.7 65.8C117 68.5 113.8 72.8 113.4 73.3C113.3 73.4 113.2 73.5 113.2 73.7C113.1 73.8 112.6 73.9 111.6 73.8L111.1 73.7C111.4 73.6 111.6 73.4 111.8 73.2C114.5 70.5 115.9 67.8 116 67.5C116.5 66.5 116.1 65.3 115.2 64.7C114.3 64.1 113 64.3 112.3 65.1C112.2 65.2 110 67.7 106.3 69.3C107.3 68.5 107.9 67.9 108.1 67.7C108.5 67.2 108.7 66.6 108.7 66L108.5 63.9C108.4 63.2 108.1 62.7 107.5 62.3C106.9 61.9 106.3 61.9 105.6 62.1C105.2 62.2 96.5996 65.1 93.4996 67.1C91.5996 68.4 86.5996 69.2 84.8996 69.4C84.3996 69.5 83.8996 69.7 83.5996 70.1C81.4996 72.4 78.7996 74.4 77.7996 74.5C76.3996 74.6 68.8996 74.8 63.4996 74.9L70.4996 72.6C70.9996 72.4 71.3996 72.1 71.5996 71.6C71.7996 71.1 71.8996 70.6 71.6996 70.1C71.4996 69.6 71.1996 69.2 70.6996 69C70.3996 68.9 70.0996 68.8 69.7996 68.8C69.5996 68.8 69.3996 68.8 69.1996 68.9L61.0996 71.6L55.4996 72.3H51.9996C51.8996 72.3 51.7996 72.3 51.6996 72.3C52.0996 72.2 52.2996 72 52.4996 71.9C52.8996 71.8 54.2996 71.4 55.3996 71.1H55.4996C63.0996 69.2 64.7996 68.5 65.4996 67.1C65.9996 66 65.5996 64.8 64.5996 64.2C64.5996 64.2 64.4996 63.9 64.4996 63.6C64.5996 63.1 64.4996 62.5 64.0996 62C63.9996 61.9 62.1996 59.1 63.6996 54.8C63.9996 53.9 63.6996 52.9 62.8996 52.3C62.1996 51.8 61.4996 51.2 60.8996 50.8C62.2996 51 63.8996 51.3 65.7996 51.6C66.6996 51.8 67.3996 51.6 67.8996 51.1C68.2996 50.7 68.4996 50.2 68.4996 49.7C68.7996 49.7 69.1996 49.8 69.9996 50C70.2996 50.1 70.5996 50.1 70.8996 50.1C73.0996 49.9 74.4996 52.3 74.4996 52.3C74.8996 52.9 75.4996 53.3 76.1996 53.4C76.8996 53.5 77.7996 53.7 78.0996 53.9C78.3996 54.4 78.8996 54.8 79.4996 55C83.1996 55.9 86.7996 53.9 87.1996 53.7C87.3996 53.6 87.5996 53.5 87.6996 53.3C87.8996 53.1 91.3996 49.3 92.6996 46C93.4996 43.9 103.2 32.1 114.6 34.8C114.9 34.9 115.2 34.9 115.5 34.8C117.5 34.4 118.4 33.3 118.8 32.5C119.7 30.4 118.6 28.1 118.2 27.2C117 23.6 115.1 17.3 114.9 15.5C114.9 15.2 114.8 14.8 114.6 14.6C113.1 12.1 111.7 8.99999 111.6 8.59999C111.6 8.49999 111.5 8.39998 111.5 8.29998C113.7 10.8 115.2 14.1 116.2 17C118.3 22.9 119.8 31.9 120.2 33.7L121.2 38.2C121.3 38.5 121.4 38.9 121.7 39.2C121.7 39.2 122.7 40.4 122.6 41.8C122.5 42.6 122 43.5 121.1 44.3C115.8 48.9 116.9 57.6 117 58ZM51.1996 72.7L49.6996 73.7C49.5996 73.7 49.4996 73.7 49.3996 73.7C48.9996 73.8 48.4996 73.8 47.9996 73.9C48.9996 73.6 50.1996 73.1 51.1996 72.7Z" fill="white"/>
<path d="M34.6 77.9L31.3 77.6C31.2 77.6 31 77.6 30.9 77.6C30.2 77.6 29.6 77.5 29.2 77C27.9 75.7 26.6 74.4 24.6 73.7C23.3 73.3 21.9 73.1 20.2 73.4C21.1 71.8 21.6 70 21.6 68.2C21.6 62.3 16.8 57.4 10.8 57.4C4.8 57.4 0 62.2 0 68.2C0 74.2 4.8 79 10.8 79C11.6 79 12.5 78.9 13.3 78.7C15 78.6 16.6 78.2 18.1 77.8L18.8 77.6C20.5 77.2 22.3 76.9 23.9 77.7C24.7 78.1 25.2 78.6 25.8 79.3C26.5 80 27.2 80.7 28.2 81.1C29 81.4 29.8 81.4 30.6 81.5L34.4 81.8C34.5 81.8 34.5 81.8 34.6 81.8C35.6 81.8 36.2 81 36.3 80.2C36.5 79.1 35.9 78 34.6 77.9ZM17.7 68.2C17.7 71.3 15.6 74 12.6 74.9C12.4 74.9 12.2 75 12.1 75C10.3 75.4 8.3 75 6.8 73.9C9 73.8 11 73.2 12.7 72.2C14.1 71.3 15.3 70.2 16.1 68.8C16.6 68 17 67 17.3 65.9C17.6 66.7 17.7 67.4 17.7 68.2ZM14.1 62.9C13.9 64.2 13.6 65.5 13 66.6C12.5 67.5 11.7 68.3 10.8 68.9C8.6 70.2 5.9 70.2 4 69.9C3.8 69.3 3.8 68.7 3.8 68.1C3.8 67.9 3.8 67.7 3.8 67.5C5.9 67.9 8 66.8 9 66.1C10.3 65.2 12 63.7 12.3 61.6C12.3 61.5 12.3 61.4 12.3 61.3C13 61.5 13.6 61.7 14.2 62.1C14.3 62.4 14.2 62.7 14.1 62.9ZM5.5 63.7C6.3 62.8 7.3 62.1 8.4 61.7C8.4 61.7 8.4 61.8 8.3 61.8C8.2 61.8 8.2 61.9 8.1 62.1L8 62.2C7.9 62.3 7.8 62.4 7.6 62.5L7.5 62.6C7.4 62.6 7.3 62.7 7.2 62.8L7.1 62.9C6.8 63.1 6.6 63.2 6.3 63.4L6.2 63.5C6.1 63.6 6 63.6 5.9 63.6H5.8C5.7 63.6 5.6 63.7 5.6 63.7H5.5Z" fill="white"/>
</svg>
