<svg width="103" height="91" viewBox="0 0 103 91" fill="none" xmlns="http://www.w3.org/2000/svg">
<path d="M101.6 75.4C100.4 73.5 98.3999 72.5 96.7 71.7C95.8999 71.4 95.1 70.9 94.5 70.3C93.2 68.8 91.9 67.3 90.6 65.8C90.1 65.2 89.5 64.5 89 63.9C87.9 62.6 86.6 62.1 85 62.4C84.1 62.5 83.3 62.7 82.4 62.9C81.8 63 81.2 63.1 80.6 63.2C79.3 63.4 78.8 63.1 78.6 61.9C78.4 60.7 78.2999 59.5 78.2 58.3L78.1 57.4C78.1 57.3 78.1 57.2 78.1 57.2C78.1 57.2 78.3 57.2 78.5 57.3C78.8 57.4 79.1 57.5 79.4 57.6C80.3 57.9 81.2 58.2 82.1 58.4C86.3 59.2 90.3 58.5 93.5 56.3C96.5 54.2 98.5 51 99.2 47.1C99.7 43.9 99.3999 40.6 98.2 37.3C97.8999 36.6 97.1001 35.7 96.3 35.6C94.8 35.4 94.5 37.1 94.4 37.6L94.3 38C94.1001 39.2 93.9 40.4 93.5 41.5C92.1 45.3 89.5 47.8 85.8 48.7C80.8 50 76.2001 49.2 72.3 46.2L72.2 46.1C71.5 45.6 70.8 45 70 44.8L69.8 44.7C66.2001 43.5 62.6 42.3 58.9 41.3C58.4 41.2 58 41.1 57.5 40.9C55.7 40.5 54 40 52.5 39.1C49.1 37 47.3 34.6 47.1 31.4C46.8 27.8 47.4 26.7 50.7 25.3C55.4 23.3 57.6 19.1 56.6 14.4C56.2 12.6 55.3 12 53.5 12.2C53.1 12.3 52.6 12.3 52.2 12.4C50.7 12.6 49.1 12.8 47.6 13.3C45.9 13.9 44.5 13.4 43 12.9C42.3 12.6 41.6001 12.4 40.8001 12.3C40.8001 11.9 40.8001 11.5 40.8001 11.1C40.8001 9.80002 40.8 8.6 40.7 7.3C40.6 6.2 39.6 5.50002 38.2 5.60002C36.5 5.80002 35.5 7.00001 34.7 7.90001C34.3 8.30001 34.2 8.80003 34.2 9.20003C34.1 9.00003 34 8.80002 33.9 8.60002C33.5 7.90002 32.9001 7.50001 32.3001 7.40001C31.7001 7.30001 31 7.4 30.4 7.8C29.7 8.3 29 9.00003 28.7 9.70003C27.4 12.6 27.6 15.5 29.3001 18.1C29.6 18.5 29.7 19.1 29.7 19.8C29.8 20.5 29.8001 21.2 29.8001 21.8C29.8001 23.1 29.9 24.4 30.2 25.7C30.5 27 30.4 28.2 29.6 29.8C28.4 32.4 27.7 34.9 27.7 37.5C27.7 38.1 27.8 38.5 28.1 38.9C27 38.4 25.9 37.8 24.7 37.4C22.2 36.4 20 36.4 18.1 37.3C18.3 37.1 18.5 36.9 18.7 36.6C19.2 35.6 18.8 34.8 17.6 34.1C15.4 32.9 13.1001 32.8 10.8001 33.7C8.90005 34.5 7.10003 34.3 5.40003 33.2C5.10003 33 4.8 32.6 4.5 32.2L4.40003 32.1L4.5 32C4.9 31.7 5.29995 31.5 5.69995 31.4C9.19995 30.5 13 30.4 17.5 31C18.3 31.1 19.2 31.4 19.9 31.9C21 32.6 22 33.4 23 34.2C23.5 34.6 23.9 34.9 24.4 35.3C24.8 35.6 26.2001 36.7 27.3001 35.3C27.6 34.9 27.8 34.5 27.7 34.1C27.6 33.6 27.3001 33.1 26.8001 32.6C26.4001 32.3 26 32 25.7 31.7C24.9 31 24 30.3 23.1 29.7L22.9 29.6C21.8 28.8 20.5 28 19.1 27.7C17.3 27.4 15.4 27.3 13.6 27.2C12.8 27.2 12.1001 27.1 11.3001 27.1H11.2C10.7 27.2 10.1 27.2 9.59998 27.3C7.29998 27.5 4.89995 27.8 2.69995 28.8C1.39995 29.4 0.600027 30.2 0.400027 31.2C0.200027 32.1 0.399954 33.2 1.19995 34.3C1.59995 34.8 2 35.3 2.5 35.6C4.4 37.1 6.4 37.8 8.5 37.8C9.7 37.8 11 37.5 12.2 37C13.5 36.4 14.7 36.5 15.9 37.3C16.5 37.7 17.1 37.8 17.6 37.6H17.7C16.6 38.3 15.6 39.3 14.9 40.7C13.7 43.1 12.7 45.7 12 48.5C11.4 50.9 10.8 54 11.7 57.1C12 58.3 12.8001 59.2 13.8001 59.7C14.8001 60.2 16 60.2 17.2 59.8C20.1 58.7 21.9 55.6 21.4 52.3C21.2 51.2 21.3 50 21.6 49C21.8 48.4 22.0001 48.1 22.3001 48C22.7001 47.9 23.2001 48 23.8001 48.3C24.4001 48.6 25 49 25.6 49.4C26.7 50.1 27.8 50.8 29 51.3C30.6 52 31.7 53.1 33 54.6C36.4 58.7 41.3 60.6 45.2 61.7C48 62.5 51.0001 63.3 53.8001 64C54.8001 64.2 55.8001 64.5 56.8001 64.7C59.3001 65.3 61.1 66.2 61.9 68.5C62.2 69.3 62.6 70 63.1 70.6C63.2 70.8 63.4 71 63.5 71.2C65.2 73.8 67.7 74.9 70.9 74.4C71.7 74.3 72.5 74.2 73.3 74.1C75.3 73.8 77.3 73.5 79.3 73C82.2001 72.3 84.2 72.8 86.1 75C87.6 76.7 89.5 78.4 92.2 80.2C93.3999 81 94.9 81.4 96.3 81.4C97.9 81.4 99.5 80.9 100.8 79.8C102.4 78.5 102.6 76.9 101.6 75.4ZM77.3 52.4C77.5 52.4 77.7001 52.4 77.8 52.4C83.9 53.4 88.6 52.4 92.5 49.4C93.5 48.6 94.2 47.6 94.9 46.7C95.2 46.3 95.5 45.9 95.8 45.5C95.8 45.4 95.9 45.4 95.9 45.3C95.9 45.4 95.9 45.4 95.9 45.5C95.5 49 93.9 51.8 91.4 53.6C88.8 55.4 85.4 55.8 81.8 54.8C80.4 54.4 79 53.7 77.5 53C77.5 52.8 77.4 52.6 77.3 52.4ZM29.8001 39.6C30.3001 39.6 30.7 39.4 31 39.1C31.4 38.7 31.5 38.2 31.5 37.5C31.4 35.5 31.9 33.5 33 31.3C34.2 29 34.4 26.8 33.7 24.4C33.3 22.9 33.4 21.1 33.5 19.4V19.2C33.6 17.9 33.3 17.1 32.6 16.2C31.6 15.1 31.4 13.5 31.9 12.2L32.1 12.5C32.5 13.2 32.9001 13.8 33.3001 14.4C35.1001 17.3 35.4 17.4 38.7 16.3C39.8 15.9 41.1 15.7 42.4 16.4C43.9 17.2 45.5 17.3 47.2 16.9C48.6 16.5 50.1 16.3 51.6 16.1L52.6 15.9C53.3 15.8 53.5 15.9 53.5 15.9C53.5 15.9 53.7 16.1 53.6 16.7C53.2 19.1 52.1 20.7 50.1 21.7C49.6 21.9 49.2 22.1 48.7 22.3C47.4 22.9 46.1 23.5 44.9 24.3C43.4 25.4 41.7 26.3 39.4 26.1C38.7 26 38.1 26.2 37.7 26.5C37.4 26.8 37.2 27.2 37.1 27.7C37.1 28.2 37.2 28.7 37.6 29C38 29.4 38.6 29.6 39.4 29.6C41 29.5 42.1 29.3 43.2 29.1C43.7 29 43.8001 29 43.8001 29C43.8001 29 43.9 29.1 43.9 29.5V30.1C43.9 31.4 43.9001 32.8 44.3001 34.1C45.4001 38.4 48.6 41.5 54.1 43.4C55.6 43.9 57.2 44.3 58.7 44.6C60.1 44.9 61.5001 45.2 62.8001 45.6L63.1 45.7C65.7 46.5 68.3 47.4 70.4 48.9C74.1 51.4 74.8 55.6 75 59C75 59.3 75 59.6 75 59.9C75 60.5 75 61.2 75.1 61.8C75.4 63.6 76.1 65 77.2 65.8C78.3999 66.6 80 66.8 82 66.4L82.6 66.3C83.2 66.2 83.9 66 84.5 65.9C85.6 65.6 86.3 65.8 87 66.8C88.6 68.8 90.3 70.8 91.9 72.8L92.1 73C93.1 74.1 94 74.7 95.3 75C96 75.1 96.7001 75.6 97.3 76C97.4 76.1 97.6001 76.2 97.8 76.3C98.1001 76.5 98.5 76.7 98.5 76.9C98.5 76.9 98.5 77 98.4 77.1C98.2 77.4 97.5 77.6 96.9 77.7C96.6 77.8 96.3999 77.8 96.2 77.9C96.1 77.9 95.8999 77.9 95.7 77.8C95.3999 77.6 95 77.4 94.7 77.3C93.7999 76.8 92.8999 76.4 92.2 75.7C90.5 74.3 89 72.7 87.4 71.2L87.2 71C85.8999 69.7 84.5 69.1 82.9 69.1C82.5 69.1 82.1 69.1 81.6 69.2C80.5 69.4 79.4 69.6 78.3 69.8C76.6001 70.1 74.8 70.4 73.1 70.7C68.7 71.6 67.7999 71.1 65.7 67.5L65.6 67.3C65.5 67.1 65.2999 66.8 65.2 66.6L64.8 65.5C63.9 63.4 63.1001 61.4 62.3001 59.3C61.7001 57.8 60.7 57.8 60 58C59.5 58.1 59.2 58.4 58.9 58.8C58.7 59.2 58.7 59.8 58.9 60.4L59.2 61.4C59.3 61.6 59.3001 61.7 59.3001 61.7C59.3001 61.7 59.1 61.7 58.9 61.7C58.2 61.5 57.5001 61.3 56.8001 61.1L56.2 60.9C55 60.5 53.7 60.2 52.5 59.9C49.6 59.1 46.5 58.3 43.6 57.3C40.9 56.4 38.4 54.8 36.2 52.6C35.9 52.3 35.9 52.2 35.9 52.2C35.9 52.2 35.9 52.2 36 52.1C38 51.1 39.9 50.2 41.7 49.4L41.9 49.3C42.6 49 43.5001 48.6 43.3001 47.5C43.2001 46.5 42.3 45.9 41.1 45.9C40.6 45.9 40.1 46 39.7 46.2C38.2 47 36.9 47.7 35.7 48.3C34.3 49.1 33.2 49.2 32.1 48.7C29.9 47.5 28.0001 46.5 26.3001 45.4C24.5001 44.3 22.6 44.2 21 44.9C19.5 45.6 18.5 47.1 18.2 49C18.1 49.7 18.1 50.4 18.1 51.1C18.1 51.6 18.1 52.1 18.1 52.5C18 53.4 18 54.4 17.7 55.3C17.5 55.9 17 56.8 16 56.6C15.6 56.5 15.1001 56.2 15.3001 54.8L15.4 53.9C15.6 51.6 15.9 49.2 16.5 47C17.1 44.9 18.2 42.9 19.1 41.6C20 40.1 21.2 39.8 23 40.5C25.2 41.4 27.3 42.3 29.2 43.3C31.1 44.2 33.2001 44.2 34.8001 43.2C36.3001 42.3 37.1 40.7 37.1 38.8C37.1 38.1 36.3 37.1 35.6 37C35.3 36.9 34.7 37 33.7 38.1C33.5 38.4 33.4 38.7 33.4 39C33.4 39.1 33.4001 39.3 33.3001 39.4C33.1001 40 32.8 40.4 32.5 40.5C32.2 40.6 31.7 40.5 31.1 40.3C30.5 40 30.1 39.8 29.8001 39.6ZM37.3001 10.5C37.5001 10.4 37.5 10.3 37.6 10.3C37.6 10.3 37.6 10.4 37.7 10.5L38.5 13C37.3 13.6 36.9 13.5 36.1 12.1C35.8 11.7 35.6001 11.2 35.3001 10.8C36.1001 11.5 37.0001 10.7 37.3001 10.5Z" fill="white"/>
<path d="M81 82.8C79 81.3 78.2 79.3 77.4 77C77.4 76.9 77.3 76.8 77.3 76.6C77.2 76.4 77.2 76.1 77.1 75.9C76.9 75.4 76.2 74 74.7 74.6C74.2 74.8 73.8 75.1 73.7 75.5C73.5 76 73.5 76.5 73.7 77.2L74.1 78.3C74.4 79.2 74.8 80.2 75.1 81.1C75.6 82.4 76.3 83.8 77.8 84.7C78.5 85.1 79 85.9 79.5 86.6L79.6 86.7C79.8 87.1 79.9 87.3 79.8 87.4C79.7 87.5 79.5 87.6 79.1 87.5C78.2 87.3 77 86.9 76.5 86.3C75.2 84.6 73.7 82.6 72.8 80.4C71.3 76.6 68.7 74.7 64.7 74.6C64.4 74.6 64.1 74.5 63.8 74.5L62 74.2C60 73.9 58.1 73.5 56.1 73.2C54.9 73 54.1 72.3 53.8 71.1C53.4 69.3 53.1 67.4 52.9 65.9C52.9 65.8 52.9 65.6 52.9 65.5C52.8 64.6 52.7 63.3 51 63.2C50.6 63.2 50.2 63.3 49.9 63.6C49.4 64.1 49.2 64.9 49.2 66.2C49.2 66.2 49.2 66.2 49.2 66.3C49.3 66.8 49.4 67.3 49.4 67.8C49.6 68.9 49.7 70 50 71.1C50.4 73 51.2 75.2 53.8 76.2C54.9 76.6 56 76.9 57 77.1L57.8 77.2C60.3 77.6 62.9 78.1 65.5 78.3C67.4 78.5 68.2 79.4 69 80.9C69.9 82.8 71.2 85.3 72.8 87.6C74.3 89.8 76.4 91 78.9 91C79.5 91 80.1 90.9 80.7 90.8C82.6 90.4 83.6 89.2 83.5 87.3C83.4 85.5 82.5 83.9 81 82.8Z" fill="white"/>
<path d="M65 9C65.2 10.2 66.0001 11.1 67.3001 11.7C68.3001 12.1 69.3001 12.4 70.3001 12.5C71.9001 12.7 73.6 12.8 75.2 12.8C80.1 12.8 85.1 11.9 90.1 10.1C91.6 9.60001 93.0001 8.79999 94.3001 7.79999C95.6001 6.79999 96.2 5.49999 96 4.29999C95.8 2.99999 94.7 2 93.1 1.5C91.8 1.1 90.4 0.900012 89.1 0.700012C88.5 0.600012 87.9001 0.499994 87.3001 0.399994H87.2C82.4 0.599994 76.7 1.10001 71.4 3.20001C69.5 3.90001 67.7001 4.90001 66.3001 6.10001C65.3001 6.80001 64.9 7.9 65 9ZM69 8.5C69.1 8.3 69.2 8.1 69.4 8C69.8 7.8 70.2 7.59999 70.6 7.39999C72.1 6.69999 73.6 6.00001 75.1 5.60001C80.1 4.20001 84.6 3.70001 88.7 4.10001C89.6 4.20001 90.5001 4.40001 91.3001 4.60001C91.5001 4.70001 91.7 4.8 91.9 5C91.8 5.2 91.7 5.39999 91.6 5.39999C91.2 5.59999 90.7001 5.8 90.3001 6C88.9001 6.7 87.4 7.39999 85.9 7.79999C82.3 8.79999 78.5 9.40001 74.7 9.60001L73.4 9.39999C72.1 9.19999 70.7 9.00001 69.4 8.70001C69.3 8.70001 69.1 8.6 69 8.5Z" fill="white"/>
<path d="M91.6 10.7C89.5 11.3 87.5 11.9 85.6 12.7C85 13 84.5 14 84.6 14.7C84.7 15.2 85.1 15.5 85.6 15.8C85.7 15.9 85.9 16 86 16.1C86.1 16.2 86.2 16.2 86.3 16.2C86.4 16.2 86.4 16.2 86.5 16.2C87.1 16 87.6 15.8 88.1 15.6C89.7 15 91.3 14.4 92.8 13.8C93.1 13.7 93.3 13.3 93.4 13C93.5 12.8 93.7 12.2 93.5 11.7C93.3 11 92.3 10.5 91.6 10.7Z" fill="white"/>
<path d="M65.0001 5.60001C65.2001 5.60001 65.4001 5.6 65.5001 5.5C67.1001 4.7 68.6001 3.79999 69.9001 2.89999C70.4001 2.49999 70.6001 1.60001 70.4001 1.10001C70.3001 0.700006 69.9 0.400012 69.6 0.200012L69.5001 0.100006C69.4001 6.10203e-06 69.3 0 69.2 0C69.2 0 69.2 0 69.1 0C67.4 0 63.7001 2.19999 63.3001 3.39999C63.1001 3.99999 63.4 4.80001 63.7 5.10001C63.9 5.40001 64.5001 5.60001 65.0001 5.60001Z" fill="white"/>
<path d="M94.0001 9.5C93.6001 10 93.6001 10.4 93.7001 10.6C93.9001 11.3 94.6001 12 95.2001 12.2C95.3001 12.2 95.4001 12.2 95.5001 12.2C96.3001 12.2 97.2001 11.4 97.4001 11.2C97.8001 10.8 98.4001 10.2 98.2001 9.5C98.1001 9 97.7001 8.59999 97.4001 8.29999C97.3001 8.19999 97.2001 8.10001 97.2001 8.10001C97.1001 8.00001 97.0002 7.89999 96.8002 7.89999C95.7002 7.99999 94.5001 8.7 94.0001 9.5Z" fill="white"/>
</svg>
