<svg width="112" height="111" viewBox="0 0 112 111" fill="none" xmlns="http://www.w3.org/2000/svg">
<path d="M108.4 20.2C106.7 19.3 104.7 19.1 103.2 19.8C100.3 21 98 21.3 95.6 20.9C93.3 20.5 90.7 20.2 87.9 20.3C86.7 20.3 85.5 20.6 84.3 20.8C83.6 20.9 83 21.1 82.3 21.2C82.1 21.2 81.9 21.1 81.7 21.1C81.8 20.9 81.9 20.7 81.9 20.6C82.3 20.3 83 19.9 83.7 19.8C84.8 19.6 86 19.5 87.1 19.3C88.1 19.2 89.2 19.1 90.2 18.9C92.4 18.6 93.6 17.4 93.6 15.7C93.6 13.7 90.9 9.3 88.8 8.6C88.2 8.4 87.5 8.49999 86.5 8.89999C86 9.09999 85.6 9.3 85.1 9.6C84.6 9.9 84 10.2 83.5 10.3C81.8 10.8 81.2 12 80.8 13.1C80.3 14.5 79.8 15.9 79.1 17.1C79 17.2 78.5 17.3 78.3 17.4C78.2 17.4 78.2 17.4 78.1 17.4V17.3C78 17 77.9 16.7 77.9 16.5C78 16 78.1 15.5 78.3 15C78.5 14.4 78.6 13.9 78.7 13.3C79.1 10 80.7 7.6 83.7 5.8C85.1 5 86.2 4.49999 87.7 4.89999L88.9 5.2C95.5 6.8 102.4 8.39999 107.9 12.9C108.6 13.5 109.3 13.7 109.9 13.6C110.4 13.5 110.9 13.2 111.3 12.7C111.7 12.2 111.8 11.6 111.7 11.1C111.6 10.5 111.2 9.89999 110.5 9.39999C109.9 8.99999 109.4 8.6 108.8 8.2C107.4 7.2 105.9 6.09999 104.2 5.39999C98.1 2.79999 92.3 1.09999 86.5 0.399992C85.4 0.299992 83.9 0.599995 82.9 1.2C80.9 2.4 79.1 3.8 77.6 5.1C76.9 5.7 76.4 6.49999 76.1 7.39999C75.3 9.79999 74.6 12 74.2 14.2C73.6 17.3 71.9 20 68.8 22.8C67.6 23.9 67 25.1 67 26.4C67 27.5 67.6 28.6 68.7 29.5C70.6 31.1 72.6 31.8 75 31.8C76.4 31.8 77.9 31.5 79.6 31C82.3 30.1 83.6 28.3 83.7 25.8C83.7 25.6 84.3 25.1 84.8 25C88.1 24.2 91.5 24.2 95.2 25C97.6 25.5 100 25.4 101.9 24.8C104.6 23.9 106.7 23.4 108.4 26.1C108.5 26.3 108.8 26.5 109.2 26.6C109.7 26.7 110.5 26.7 110.9 26.4C111.5 26 111.9 24.9 111.7 24.1C111.3 22.5 110.1 21.1 108.4 20.2ZM85 15C85.1 14.6 85.3 14.3 85.4 14.2C85.7 14.1 86.1 13.9 86.4 13.7C87.3 13.1 87.8 12.9 88.5 13.8C88.8 14.2 88.9 14.4 88.8 14.6C88.8 14.7 88.5 14.8 88.2 14.9C87.7 15 87.1 15.1 86.4 15.1C86.1 15.1 85.8 15.2 85.4 15.2H85.3C85.3 15.1 85.1 15.1 85 15ZM71.6 26.3C71.6 26.2 71.6 26 72.1 25.5C72.6 25 73.1 24.4 73.6 23.8C74 23.3 74.5 22.8 74.9 22.3C75.4 21.8 75.9 21.5 76.2 21.4C76.3 21.5 76.5 21.9 76.7 22.1C76.8 22.3 76.9 22.5 77 22.6C77.2 22.9 77.3 23.2 77.5 23.4C77.8 24 78.1 24.6 78.6 25.1C79.1 25.7 79.2 25.9 79.2 26.1C79.2 26.3 78.9 26.4 78.5 26.6C77.8 26.9 77.1 27.1 76.3 27.3C76 27.4 75.7 27.5 75.4 27.6C75.1 27.5 74.8 27.4 74.5 27.3C73.7 27.1 73 26.9 72.4 26.6C71.8 26.6 71.6 26.4 71.6 26.3Z" fill="white"/>
<path d="M78.7001 67.8C78.6001 67.4 78.5 67.1 78.4 66.7L78 65.6C77.8 65.1 77.6 64.5 77.4 63.8C77 62.6 76.7 61.4 76.3 60L76.1001 59.2C75.8 58.2 75.5001 57.1 75.2001 56.1C75.1001 55.8 75 55.4 74.9 55.1C74.9 55 74.9 55 74.8 54.9C74.9 54.8 75.0001 54.7 75.1001 54.6C75.7001 54 76.2001 53.4 76.6001 52.9L77.3 52C77.7 51.4 77.9 50.8 78 50.4C78.2 49.6 78.3 48.7 78.3 47.8C78.3 47.3 78.2001 46.9 78.1001 46.4C78.0001 46 77.8 45 76.9 44.3C76.5 44 76.1001 43.7 75.7001 43.5C75.4001 43.3 75.0001 43.1 74.7001 43C74.2001 42.8 73.7001 42.6 73.2001 42.4C73.2001 42.4 73.1 42.3 73 42.2L72.5 41.8C72.2 41.5 71.9001 41.2 71.6001 41L71.5 40.9C71.3 40.7 71.1 40.6 70.9 40.6H70.7001C70.3001 40.5 69.9 40.4 69.5 40.3C69.1 40.2 68.7 40.2 68.4 40.1C67.6 40 66.9001 40 66.2001 40H65.5C64.7 40 63.9001 40 63.1001 40.1C62.5001 39.5 62 39 61.4 38.4C60.5 37.6 59.6001 36.9 58.7001 36.2L58 35.7C57.6 35.4 57.2 35.3 56.8 35.4C56.4 35.5 56 35.7 55.7 36.1L55.3001 36.8C55.0001 37.3 54.7001 37.8 54.6001 38.3C54.5001 38.6 54.4 38.8 54.4 39C54.3 39.2 54.3 39.5 54.2 39.7C54.1 40.1 54 40.6 53.9 41C53.8 41.4 53.8 41.8 53.7 42.3C53.5 43.8 53.4 45.3 53.4 47.2C53.4 48.7 53.4001 50.3 53.5 52C53.6 53.6 53.7001 55.1 53.8001 56.6C53.8001 57.4 53.7001 58.2 53.6001 59C53.5001 59.4 53.5 59.8 53.4 60.1C53.4 60.2 53.4 60.2 53.4 60.3C52.9 60.5 52.3001 60.8 51.8001 60.9C50.8001 61.2 49.8 61.5 48.9 61.7L48 61.9C46.2001 62.4 44.4001 62.8 42.5 63.5C42 63.7 41.4001 63.9 40.8001 64.2C40.2001 64.5 39.8001 64.8 39.3001 65.1C38.4001 65.7 37.5 66.3 36.5 67.2C35.5 68.1 34.7001 68.8 34 69.6L33.4 70.2C33.3 70.3 33.2001 70.5 33 70.6L32.8001 70.8C32.7001 70.9 32.6 71 32.5 71.2C32.2 71.5 32.0001 71.8 31.8001 72.1L30.9 73.4C30.7 73.7 30.4 74.1 30.2 74.4C30.1 74.5 30 74.7 30 74.8C29.5 75.6 29.1 76.4 28.7 77.1L28.4 77.8C28.2 78.2 28.1 78.5 27.9 79V79.1C27.9 79.2 27.8 79.4 27.7 79.5C27.6 79.7 27.6 79.8 27.5 80C27.4 80.4 27.2001 80.7 27.1001 81.1L26.6001 82.9C26.5001 83.4 26.3 83.9 26.2 84.4L25.7 86.9L25.3001 90.3L25.2 93.2C25.2 93.6 25.2 94.1 25.2 94.5L25.3001 97.1C25.0001 97.8 24.6001 98.3 24.1001 98.5C23.9001 98.6 23.7 98.7 23.4 98.7L22.8001 98.6C22.7001 98.6 22.5 98.5 22.5 98.5C20.4 97.6 18.3 96.3 16.5 94.5C14.8 92.9 13.5001 90.9 12.8001 88.7C12.1001 86.6 11.9001 84.1 11.8001 81.7L11.6001 77.2C11.5001 75.9 11.4001 74.3 11.1001 72.7C10.9001 71.7 10.5001 70.8 10.1001 70.1C9.50005 69.1 8.60005 68.2 7.70005 67.8C7.10005 67.5 6.60005 67.3 6.10005 67.2H5.90004C5.50004 67.1 5.00005 67 4.30005 67.1C3.40005 67.2 2.60005 67.5 2.00005 68C1.30005 68.6 0.800045 69.6 0.700045 70.6C0.600045 71.8 0.900051 72.8 1.30005 73.7L1.40004 74C1.50004 74.1 1.50005 74.3 1.60005 74.5C1.70005 74.7 1.70005 74.9 1.80005 75.2C2.00005 76.4 2.10005 77.8 2.20005 78.9C2.20005 80.2 2.20005 81.5 2.20005 82.9V83.2C2.20005 83.8 2.20005 84.4 2.20005 85C2.20005 85.4 2.20005 85.8 2.20005 86.2L2.30005 87.2C2.60005 90.5 3.30004 93.3 4.40004 95.8C5.60004 98.7 7.40005 101.3 9.60005 103.3C10.7001 104.3 11.9001 105.2 13.3001 106C14.6001 106.8 16 107.4 17.4 107.9C19.9 108.8 22.7 109.5 25.9 109.8C27.2 110 28.5001 110 29.6001 110H30.3001L42.6001 109.9C43.5001 109.9 44.4001 109.9 45.6001 109.9H48.3001H59.7001C60.2001 109.9 60.6 109.7 60.9 109.3C61.2 108.9 61.3001 108.4 61.2001 108L61 107.3C60.9001 106.8 60.7001 106.3 60.5 105.7C60.3 105.1 60.0001 104.6 59.7001 104.2C59.5001 103.9 59.3001 103.7 59.1001 103.5L59 103.4C58.8 103.2 58.6 103 58.4 102.9C58.1 102.6 57.8 102.5 57.5 102.3L57.4 102.2C57.1 102 56.8001 101.9 56.6001 101.9C56.9001 101.7 57.1 101.5 57.4 101.3C57.7 101 58.1 100.7 58.4 100.3C58.7 100 59.2 99.2 59.4 98.3C59.5 97.6 59.5 97.1 59.5 96.7V96.5V96.3C59.9001 95.9 60.4 95.6 60.9 95.2C61.2 95 61.5 94.7 61.9 94.5C62.2 95.1 62.4001 95.6 62.5 95.8C63 97.1 63.2001 97.8 63.5 98.7C63.6 99.1 63.7 99.5 63.9 100C64.3 101.2 64.7001 102.4 65.2001 103.6L65.3 103.8C65.6 104.7 66 105.4 66.3 106.3L66.4 106.6C66.6 107.1 66.9 107.5 67.3 107.9C67.4 108.2 67.6 108.5 67.9 108.6L68.3 108.8C69.3 109.4 70.4001 110 71.7001 110.2C72.2001 110.3 72.7001 110.3 73.2001 110.3C73.2001 110.3 73.3 110.3 73.4 110.3C73.6 110.3 73.7 110.3 73.9 110.2H74.1001C74.8 110.3 75.4 110.2 75.9 110C76.4 110 76.8 109.7 77.1001 109.3C77.3 109.1 77.4001 108.8 77.6001 108.6L77.9 108.2C78.1 107.8 78.2001 107.4 78.1001 107C78.1001 106.8 78.2001 106.6 78.2001 106.4L78.3 105.3C78.3 105.1 78.3 105 78.3 104.8C78.1 104 77.7 103.5 77.5 103.3C77.3 103.1 77.0001 102.9 76.7001 102.7C75.9001 102.2 75.1 102 74.4 101.7C74.1 101.6 73.7 101.5 73.4 101.4V101.3C73.3 100.9 73.2001 100.6 73.1001 100.3C73.0001 100 72.9 99.6 72.8 99.2C72.7 98.9 72.7001 98.6 72.6001 98.2C72.6001 98.2 72.6001 98.2 72.6001 98.1C72.6001 98.1 72.6001 98.1 72.6001 98C72.4001 96.5 72.3 95 72.3 93.2C72.3 91.7 72.4001 90.1 72.6001 88.3C72.7001 86.7 72.9001 85.2 73.1001 83.8C74.7001 81.5 75.9 79.2 77 76.9C77.3 76.3 77.5 75.6 77.8 75C77.9 74.7 78.0001 74.4 78.1001 74.1L78.2001 73.9C78.3001 73.5 78.4 73.1 78.5 72.8C78.6 72.5 78.7001 72.1 78.7001 71.7C78.8001 71.3 78.8 71 78.9 70.5C78.9 69.5 78.9001 68.6 78.7001 67.8ZM34.4 77.4C34.5 77.3 34.6 77.1 34.7 76.9C34.7 76.8 34.7001 76.8 34.8001 76.8C34.9001 76.6 35.1 76.4 35.2 76.1L36.1001 74.8C36.2001 74.6 36.4001 74.4 36.6001 74.2C36.7001 74 36.9001 73.9 37 73.8L38 72.7C38.6 72.1 39.2001 71.5 40 70.7C40.9001 70 41.6001 69.4 42.3001 69C42.6001 68.8 43 68.6 43.4 68.3C43.8 68.1 44.2001 67.9 44.6001 67.8C46.2001 67.2 47.9001 66.8 49.6001 66.3L50.4 66.1C51.4 65.8 52.5001 65.5 53.6001 65.2C53.9001 65.1 54.2 65 54.4 64.9C54.8 64.8 55.1 64.7 55.2 64.6C55.9 64.3 56.6001 63.9 57.2001 63.5L57.3 63.4C57.5 63.3 57.6001 63.1 57.7001 62.8L58 62.1L58.2001 61.6C58.3001 61.3 58.4 61 58.4 60.8C58.5 60.3 58.6001 59.8 58.7001 59.2C58.8001 58.2 58.9 57.3 58.9 56.2C58.9 56.1 58.9 56 58.9 56C58.8 54.5 58.6001 53 58.6001 51.5C58.5001 49.9 58.5 48.4 58.5 47C58.5 45.2 58.6001 43.9 58.7001 42.5C58.7001 42.3 58.8 42.1 58.8 41.9C59.5 42.6 60.2 43.2 60.8 43.9L61 44.2C61.3 44.6 61.8 44.8 62.3 44.7H62.7001C63.9001 44.6 65.1001 44.5 66.2001 44.5H66.5C67 44.5 67.7 44.5 68.4 44.6C68.7 44.6 69.0001 44.7 69.2001 44.7C69.3001 44.7 69.4 44.7 69.5 44.8C69.7 44.9 69.8 45.1 69.9 45.2L70.3 45.6C70.4 45.7 70.4 45.7 70.5 45.8L70.6001 46C70.8 46.2 71 46.4 71.3 46.5L71.5 46.6C72.1 46.8 72.7001 47 73.2001 47.3C73.4001 47.4 73.7 47.5 74 47.7C74.1 47.7 74.1001 47.8 74.2001 47.8C74.2001 47.9 74.2001 48.1 74.2001 48.2C74.2001 48.7 74.2001 49.2 74.1001 49.5C74.1001 49.6 74 49.7 74 49.7L73.5 50.4C73.2 50.8 72.8 51.3 72.4 51.7C71.7 52.4 70.9001 53 69.6001 53.7L66.7001 55.3C66.0001 55.7 65.7 56.5 66 57.2C66.2 57.9 67.0001 58.4 67.7001 58.2L71.3 57.7C71.6 58.7 71.9001 59.7 72.1001 60.7L72.3 61.6C72.6 62.7 73 64 73.4 65.3C73.6 66.1 73.8 66.7 74 67.3L74.4 68.5C74.4 68.6 74.5 68.8 74.5 68.9C74.6 69.4 74.6 69.9 74.5 70.4C74.5 70.6 74.5 70.9 74.4 71.2C74.4 71.5 74.3001 71.7 74.2001 72C74.1001 72.3 74.1 72.5 74 72.8L73.9 73L73.8 73.2C73.7 73.4 73.7001 73.6 73.6001 73.8C73.4001 74.4 73.2 75 72.9 75.5C72 77.7 70.7001 79.9 69.2001 82.1L69.1001 82.2C69.0001 82.4 68.9 82.6 68.8 82.9V83C68.5 84.6 68.3001 86.3 68.2001 88.2C68.0001 90.1 68 91.8 67.9 93.5C67.9 95.6 68.0001 97.3 68.2001 98.8C68.2001 98.8 68.2001 98.9 68.2001 99C68.3001 99.4 68.3 99.9 68.4 100.2C68.5 100.7 68.6001 101.2 68.7001 101.6C68.8001 102.1 69.0001 102.5 69.2001 103.1L69.9 104.6C70.1 105 70.5 105.3 71 105.4H71.3C71.9 105.5 72.4 105.7 72.9 105.8C73.1 105.9 73.4001 106 73.7001 106.1C73.7001 106.3 73.6001 106.4 73.6001 106.6C73.3 106.7 72.9001 106.8 72.6001 106.8C72.3 106.8 72.0001 106.8 71.7001 106.8C71.5001 106.8 71.2 106.8 71 106.8L70.5 106C70.1 105.4 69.8001 104.9 69.7001 104.5C69.6001 104 66.1 93.9 66 93.9C65.9 93.6 65.3 91.8 64.5 90.4C64.5 90.2 64.6001 89.9 64.6001 89.7C64.6001 89.3 64.6001 88.9 64.6001 88.4C64.5001 87.8 64.5 87.3 64.4 86.7C64.4 86.4 64.3 86.1 64.3 85.9C64.3 85.7 64.2001 85.3 64.1001 85V84.9C64.1001 84.8 64 84.7 64 84.6C63.9001 83.9 63.4001 83.4 62.7001 83.3C62.0001 83.2 61.3 83.6 61 84.3C60.5 85.5 60.5 85.7 60.5 85.9C60.4001 86.4 60.4 86.9 60.4 87.4V87.5C60.4 87.8 60.4 88.2 60.4 88.5C60.4 88.9 60.3001 89.2 60.2001 89.4C60.1001 89.6 59.9001 89.9 59.5 90.2C59.1 90.5 58.6 90.9 58 91.3L57.9 91.4C57.8 91.4 57.8001 91.5 57.7001 91.5C57.6001 91.4 57.6 91.3 57.5 91.1C56.6 89.1 55.3001 87.6 54.3001 86.5C54.2001 86.3 54 86.2 53.7 86L52.1001 84.5C51.5001 84 50.7001 83.9 50 84.4C49.4001 84.9 49.2001 85.8 49.6001 86.4L51.4 89.3C51.9 90.1 52.3001 91 52.8001 92C53.0001 92.3 53.1001 92.7 53.3001 93.1C53.7001 93.9 54.2001 96.7 54.3001 97.2C54.3001 97.4 54.3001 97.6 54.3001 97.6C54.1001 97.9 53.8 98.2 53.5 98.5C53 98.9 52.5001 99.2 51.8001 99.6C51.1001 100 50.5001 100.3 49.8001 100.5L48.4 101C47.8 101.2 47.4 101.8 47.4 102.5C47.4 103.2 47.8 103.7 48.4 104L49.8001 104.5L50 104.6C50.3 104.7 50.7 104.9 51.2 105.1C52.3 105.4 53.4 105.8 54.2 106.1L47.9 106C46.3 106 44.6 106 43 106H34.1001H29.3001C28.2001 106 27.2001 106 26.1001 105.8C23.3001 105.5 20.8 104.9 18.7 104.1C17.6 103.7 16.5 103.2 15.4 102.5C14.3 101.8 13.3 101.1 12.5 100.4C10.8 98.8 9.40005 96.8 8.50005 94.5C7.60005 92.4 7.10005 90.1 6.80005 87.3L6.70005 86.3C6.70005 86.2 6.70005 86.1 6.70005 86C6.70005 86.1 6.70005 86.3 6.70005 86.4C6.70005 87 6.80005 87.6 7.00005 88.2L7.10005 88.6C7.10005 89 7.30005 89.4 7.30005 89.7L7.70005 91C8.70004 94 10.4 96.7 12.7 98.8C15 101 17.5 102.7 20.4 103.9C20.8 104 21.1 104.1 21.5 104.2L21.7 104.3C21.8 104.3 21.8 104.3 21.9 104.3L22.4 104.4C22.4 104.4 22.5001 104.4 22.6001 104.4C22.7001 104.4 22.8 104.4 22.9 104.4C23 104.4 23.0001 104.4 23.1001 104.4H23.3001C23.3001 104.4 23.4 104.4 23.5 104.4C24.6 104.4 25.7 104.1 26.7 103.5C27.6 103 28.3 102.3 29 101.4C29.6 100.6 30.0001 99.8 30.3001 98.9L30.4 98.7C30.5 98.5 30.5 98.3 30.5 98.1L30.3001 94.7C30.3001 94.4 30.3001 94.2 30.3001 93.8L30.4 91.2L30.7 88.3L31.2 86C31.2 85.7 31.3 85.4 31.5 85L32 83.3C32.1 83.1 32.2001 82.8 32.3001 82.5L32.5 82C32.6 81.8 32.6 81.7 32.7 81.4V81.3C32.8 81.1 32.9001 80.9 33 80.7C33.1 80.5 33.2 80.2 33.4 79.9C33.7 78.6 34 78 34.4 77.4Z" fill="white"/>
</svg>
