<svg width="101" height="102" viewBox="0 0 101 102" fill="none" xmlns="http://www.w3.org/2000/svg">
<path d="M53.6999 63.8C52.7999 63.5 52.0999 63.9 51.6999 64.9C51.5999 65.2 51.4998 65.4 51.3998 65.7C51.1998 66.3 50.9 66.9 50.6 67.4C49.3 69.4 48 71.4 46.8 73.4L45.3 75.7C45.1 75.9 45.1 76 45.1 76C45.1 76 45 76 44.8 75.6C43.1 73.2 40.8999 71.6 38.1999 71C37.0999 70.8 36.2999 71.2 35.9999 72.1C35.6999 73.1 36.1999 73.8 37.1999 74.2C37.2999 74.2 37.3999 74.3 37.4999 74.3C37.5999 74.3 37.7 74.3 37.8 74.4C40.2 75.2 42 76.9 42.8 79C43.6 81.1 43.3999 83.3 42.1999 85.4C41.3999 86.8 40.3 88.1 39.3 89.4C38.7 90.1 38.1 90.9 37.6 91.6C37.3 92 36.8999 92.9 37.1999 93.4C37.4999 93.9 38.0999 94.1 38.6999 94.4L38.8998 94.5C39.0998 94.6 39.4 94.6 39.6 94.5C39.7 94.5 39.7998 94.5 39.8998 94.5C40.4998 94.5 41.0999 94.5 41.6999 94.5C43.1999 94.5 44.7998 94.6 46.3998 94.7C47.6998 94.8 48.6998 95.8 48.8998 97.2C48.9998 97.5 48.9 97.8 48.8 97.9C48.7 98 48.3999 98 48.1999 98C47.6999 98 47.1 98 46.6 98H41.6C37.9 98 34.3 98 30.6 98C29.7 98 28.8999 97.7 28.4999 97.1C28.1999 96.6 28.0998 96 28.3998 95.4C28.9998 93.9 28.4 93.1 27.3 92.4C23.4 89.8 20.9998 86.4 20.3998 82.6C19.7998 78.9 21 75 23.8 71.5C25.7 69.1 28.0998 67 30.3998 65L30.8998 64.6C33.1998 62.6 34.5999 60.1 35.1999 57C36.2999 51.5 35.5999 46.1 34.6999 41C34.5999 40.2 34.4 39.4 34.3 38.7C33.9 36.5 33.4999 34.2 33.1999 31.9C32.9999 30.5 32.3999 29.8 31.1999 29.3C29.0999 28.5 27.5999 27.1 26.6999 25.1C26.5999 25 26.6 24.8 26.6 24.6C26.8 24.6 26.9999 24.6 27.1999 24.6C27.8999 24.7 28.4999 24.8 29.1999 24.9C30.4999 25.1 31.7999 25.4 33.1999 25.5C33.9999 25.6 34.8999 25.2 35.4999 24.8C36.4999 24.2 37.6 23.6 38.6 23C39.2 22.6 39.8999 22.2 40.4999 21.9C42.2999 20.8 43.9 20.4 45.8 21.4C47.9 22.6 50.1 22.7 52.6 21.7C53.3 21.4 53.9999 21.2 54.6999 21C54.9999 20.9 55.3 20.8 55.6 20.7C56.3 20.5 56.6998 20.5 56.8998 20.6C57.0998 20.7 57.2 21.2 57.3 21.9C57.4 23.9 56.6 25.5 54.8 27C54.5 27.3 54.2 27.5 53.8 27.7C52.9 28.4 51.9998 29 51.3998 29.9C49.8998 32.2 47.6999 33.6 44.6999 34.3C44.4999 34.3 44.3999 34.4 44.1999 34.4C43.3999 34.5 42.2 34.7 42.3 36.2C42.3 36.7 42.4998 37.1 42.8998 37.3C43.4998 37.7 44.2998 37.7 45.3998 37.4C47.2998 36.8 48.2 37.2 49.3 38.9C49.8 39.7 50.3999 40.4 50.9999 41.1C52.0999 42.4 53.2 43.7 53.6 45.4C53.7 45.9 54.6999 46.4 55.1999 46.3C55.6999 46.2 56.3999 45.6 56.4999 45C56.5999 43.9 56.4 43.1 56.1 42.5C55.3 41.2 54.3999 40 53.4999 38.8L52.9999 38.1C52.7999 37.8 52.6 37.6 52.3 37.3C52 36.9 51.5998 36.6 51.3998 36.2C51.1998 35.9 51.2998 35.2 51.3998 35C53.1998 33.2 55.0999 31.2 57.4999 29.1C60.2999 26.5 61.1999 23.3 60.1999 19.7C59.8999 18.5 59.2999 17.7 58.4999 17.3C57.6999 16.9 56.6999 16.8 55.4999 17.2C55.0999 17.3 54.6998 17.5 54.3998 17.6C51.7998 18.7 48.6998 19.7 45.3998 17.7C44.5998 17.2 43.1 17.3 42.3 17.6L41.8 17.8C39.5 18.8 37.2 19.8 35.1 21.2C32.9 22.8 30.8998 22.2 28.3998 21.3C27.2998 20.9 26 20.5 24.6 21.3C23.8 21.8 22.8 22.8 23.3 24.9C23.9 27.9 25.6998 30.2 28.8998 31.9C29.6998 32.4 29.9999 32.9 30.1999 33.9C30.4999 36.1 30.9 38.2 31.3 40.1C32.6 45.9 32.8998 50.7 32.3998 55.2C31.9998 58.5 30.6998 60.9 28.3998 62.5C27.0998 63.4 25.9 64.6 24.8 65.5C20.5 69.5 18.1999 73.5 17.4999 77.9C17.3999 78.5 17.3 78.7 17.3 78.7C17.2 78.7 17.1 78.6 16.6 78.2C12.9 75.3 11.6 70.6 13.3 66.3C13.8 65.1 14.3999 64 14.9999 62.8C15.3999 62.1 15.7999 61.4 16.1999 60.6C16.3999 60.1 16.7 59.2 16.3 58.8C16 58.3 15.0999 57.9 14.4999 57.9C9.89993 58.6 6.79988 60.3 4.69988 63.5C3.09988 65.9 2.40002 68.8 2.60002 72.6C2.60002 73.1 2.39988 73.8 2.19988 73.9C-0.100124 75.7 0.200022 77.9 0.600022 79.7C1.30002 82.3 2.79988 84.4 5.19988 86.1C5.69988 86.4 5.99992 86.8 5.99992 87C6.59992 90.2 9.09988 91 11.1999 91.4C13.8999 91.8 16.6998 91.4 19.3998 90.2C19.9998 89.9 20.3 90 20.8 90.5C21.4 91.2 22.0999 91.8 22.6999 92.4C23.2999 93 23.8998 93.5 24.3998 94.1C24.7998 94.5 25.1 95.1 25.1 95.5C25.1 98.8 27.4 101.1 30.6 101.1C32.9 101.1 35.0998 101.1 37.3998 101.1H40.1999C40.1999 101.1 40.2 101.1 40.3 101.1H49.9999C50.9999 101.1 51.7 101 52.1 100.6C52.6 100.1 52.6 99.4 52.6 98.4C52.6 98 52.5999 97.5 52.4999 97.1C52.1999 93.9 50.5999 92 47.4999 91.3C46.4999 91 45.4 91 44.3 90.9C44 90.9 43.6999 90.9 43.4999 90.8C43.0999 90.8 42.9999 90.7 42.9999 90.7C42.9999 90.7 42.9999 90.6 43.1999 90.3L43.4999 90C43.7999 89.6 44.1 89.3 44.3 88.9C45.8 86.7 46.6999 84.3 46.9999 81.8C47.3999 78.6 49.2 76 51.1 73.2L51.3 72.9C52.5 71.2 53.4 69.2 54.3 67.4C54.5 67 54.6998 66.5 54.8998 66.1C55.0998 65.6 55.0999 65.2 54.9999 64.7C54.5999 64.2 54.1999 63.9 53.6999 63.8ZM9.60002 86.4C9.80002 86 9.79988 85.6 9.69988 85.2C9.49988 84.7 8.99997 84.3 8.29997 84.1C6.19997 83.3 4.69988 81.9 3.69988 79.6C3.49988 79.2 3.39997 78.6 3.29997 78C3.19997 77.6 3.29983 77.3 3.39983 77.1C3.49983 76.9 3.80002 76.8 4.10002 76.8C5.80002 76.6 5.79988 75 5.69988 74.5V73.6C5.59988 72 5.49988 70.4 5.69988 68.9C5.99988 66.1 7.59992 63.8 10.4999 62.2C10.4999 62.2 10.5999 62.2 10.6999 62.2C10.6999 62.2 10.7 62.2 10.8 62.2C10.8 62.3 10.7999 62.5 10.6999 62.6C8.69988 66.9 8.29992 70.6 9.49992 74.2C10.4999 77.3 12.6 79.8 15.6 81.7C16.6 82.3 17.2 82.9 17.3 84.1C17.3 84.8 17.5998 85.5 17.8998 86.1L17.9999 86.3C18.0999 86.5 18.2 86.8 18.1 87C18 87.1 17.9 87.3 17.6 87.3C16.5 87.6 15.3 87.9 14.3 88.2L13.1 88.5C12.8 88.4 12.4999 88.4 12.1999 88.3C11.5999 88.2 10.9999 88 10.4999 87.9C10.0999 87.8 9.59993 87.6 9.49992 87.3C9.29992 87 9.40002 86.8 9.60002 86.4Z" fill="white"/>
<path d="M98.3 16.2C96.9 15.5 95.4 15.4 94.2 15.9C91.9 16.9 90.1 17.1 88.2 16.7C86.4 16.3 84.4 16.2 82.2 16.2C81.2 16.2 80.2999 16.4 79.3999 16.6C78.8999 16.7 78.4 16.8 77.8 16.9C77.7 16.9 77.5 16.9 77.3 16.8C77.4 16.6 77.4 16.5 77.5 16.4C77.8 16.2 78.3999 15.9 78.8999 15.8C79.7999 15.7 80.7001 15.6 81.6001 15.4C82.4001 15.3 83.2 15.2 84 15.1C85.7 14.8 86.6 13.9 86.7 12.6C86.7 11 84.5999 7.60001 82.8999 7.00001C82.4999 6.90001 81.9001 6.9 81.1001 7.2C80.7001 7.3 80.4 7.5 80 7.7C79.6 7.9 79.2 8.20001 78.7 8.30001C77.3 8.70001 76.9001 9.60001 76.6001 10.5C76.2001 11.6 75.8 12.7 75.2 13.6C75.1 13.7 74.8001 13.8 74.6001 13.8C74.5001 13.8 74.4999 13.8 74.3999 13.8C74.3999 13.8 74.3999 13.8 74.3999 13.7C74.2999 13.5 74.2 13.2 74.2 13.1C74.3 12.7 74.4 12.3 74.5 11.9C74.6 11.5 74.8 11 74.8 10.5C75.1 7.90001 76.4 6.00001 78.8 4.60001C79.9 3.90001 80.7999 3.6 81.8999 3.9L82.8 4.10001C88 5.30001 93.4 6.6 97.8 10.2C98.3 10.6 98.8999 10.8 99.3999 10.8C99.7999 10.7 100.2 10.5 100.5 10.1C100.8 9.70001 100.9 9.30001 100.8 8.80001C100.7 8.30001 100.4 7.90001 99.8 7.50001C99.4 7.20001 98.9 6.90001 98.5 6.60001C97.4 5.80001 96.1999 4.9 94.8999 4.4C90.0999 2.3 85.4999 1.10001 80.8999 0.500006C79.9999 0.400006 78.9001 0.600012 78.1001 1.10001C76.6001 2.00001 75.0999 3.2 73.8999 4.2C73.3999 4.6 72.9 5.30001 72.7 6.00001C72.1 7.90001 71.5 9.6 71.2 11.4C70.7 13.9 69.4 15.9 67 18.2C66 19.1 65.6001 20 65.6001 21C65.6001 21.9 66.0999 22.8 66.8999 23.5C68.3999 24.7 69.9999 25.3 71.8999 25.3C72.9999 25.3 74.2 25.1 75.5 24.6C77.6 23.9 78.7 22.5 78.7 20.5C78.7 20.3 79.2 19.9 79.5 19.8C82.1 19.2 84.8 19.2 87.7 19.8C89.6 20.2 91.4999 20.1 92.8999 19.6C95.0999 18.9 96.7 18.5 98 20.7C98.1 20.9 98.3001 21 98.6001 21.1C99.0001 21.2 99.5999 21.2 99.8999 21C100.4 20.7 100.7 19.8 100.6 19.2C100.5 17.9 99.6 16.8 98.3 16.2ZM79.8 12C79.9 11.7 80.0001 11.4 80.1001 11.4C80.4001 11.3 80.5999 11.2 80.8999 11C81.5999 10.6 82.0001 10.4 82.6001 11.1C82.8001 11.4 82.9 11.6 82.8 11.7C82.8 11.8 82.6 11.9 82.3 11.9C81.9 12 81.3999 12 80.8999 12.1C80.6999 12.1 80.4001 12.1 80.1001 12.2C80.1001 12.2 80.1 12.2 80 12.2C80.1 12.2 79.9 12.1 79.8 12ZM69.3 21C69.3 21 69.3 20.8 69.7 20.4C70.1 20 70.4999 19.5 70.8999 19.1C71.1999 18.7 71.5999 18.3 71.8999 17.9C72.2999 17.5 72.7 17.2 73 17.2C73.1 17.3 73.2999 17.6 73.3999 17.8C73.4999 17.9 73.6001 18.1 73.6001 18.2C73.7001 18.4 73.9 18.6 74 18.9C74.2 19.4 74.4999 19.8 74.8999 20.2C75.2999 20.7 75.4 20.9 75.3 20.9C75.3 21 75.1 21.2 74.7 21.3C74.1 21.5 73.5999 21.7 72.8999 21.9C72.6999 22 72.4 22 72.2 22.1C71.9 22 71.7 22 71.5 21.9C70.9 21.7 70.3 21.6 69.8 21.4C69.4 21.2 69.3 21.1 69.3 21Z" fill="white"/>
<path d="M69.3 41.5C68 40.1 65.4999 39.4 62.8999 39.8C60.5999 40.1 58.8 41.2 58 42.8C57.4 44 56.7001 45.1 56.1001 46.2C55.6001 47 55.2 47.7 54.8 48.5C53.7 50.4 53.7 50.5 51.5 50.2C51.4 50.2 51.4 50.2 51.3 50.2C51.1 50.1 50.8 50.1 50.5 50.2L50.3 50.3C49.8 50.6 49.2 50.9 49 51.4C48.8 52 49.3999 52.9 49.8999 53.2C50.8999 53.8 52.3 54 53.7 53.6C55.1 53.2 56.4 52.4 57 51.3C57.4 50.6 57.8 49.9 58.2 49.3C59 47.8 59.9 46.3 60.8 44.8C61.4 43.8 62.5001 43.2 63.6001 43C64.8001 42.8 65.9 43.2 66.7 43.9C69.1 46 70.6 49 71.2 52.7C71.3 53.2 70.9 53.9 70.5 54.6L70.3999 54.8C70.1999 54.8 69.8 54.8 69.7 54.7C69.4 54.5 69.0999 54 68.8999 53.5C68.6999 52.9 68.4999 52.3 68.3999 51.7C68.0999 50.8 67.9 49.8 67.5 49C67.2 48.3 66.5 47.3 65.7 47C65 46.7 63.8 47.2 63.3 47.6C62.9 47.9 62.5 48.5 62.2 49.4C61.4 51.8 60.6 54.3 59.8 56.7L59.3 58.3C58.9 59.4 58.2 60 57 59.9C54.8 59.8 52.9 59.6 51 59.5C49.2 59.3 47.3 59.8 45.3 61C45 61.2 44.4 61.6 44.3 62.2C44.3 62.4 44.3001 62.8 44.6001 63.2C44.9001 63.5 45.7 64 46.3 64C46.5 64 46.6 64 46.7 63.9C48.7 62.7 50.8001 62.8 53.1001 63C53.5001 63 53.8 63.1 54.2 63.1C56.2 63.2 57.8 63.1 59.3 62.8C60.3 62.5 61.4999 61.5 61.8999 60.6C62.5999 58.9 63.2 57.1 63.7 55.3C63.9 54.6 64.0999 53.9 64.3999 53.2C64.4999 53 64.5001 52.7 64.6001 52.5V52.6C64.8001 53 65 53.3 65.2 53.7C65.4 54.1 65.6999 54.5 65.8999 54.8C66.4999 55.8 67.0999 56.9 67.8999 57.8C68.4999 58.5 69.1999 58.9 69.8999 58.9C70.5999 59 71.2 58.7 71.8 58.2C73.7 56.6 74.5999 54.7 74.3999 52.6C74.1999 48.5 72.5 44.9 69.3 41.5Z" fill="white"/>
<path d="M28.1999 20.7H28.3C28.8 20.6 29.2 20.1 29.5 19.6L29.6001 19.5C29.7001 19.3 29.8 19.1 29.8 18.8C30.1 18.9 30.3001 19 30.6001 19.1C31.5001 19.5 32.4 19.9 33.3 20.2C34 20.5 34.7001 20.5 35.1001 20.3C35.5001 20.1 35.7999 19.7 35.8999 19.2C36.1999 17.9 35.2001 17.5 34.6001 17.2L34 16.9C33.1 16.5 32.1 16.1 31.3 15.5C29.8 14.4 28.4 14.4 27.3 15.4C26.3 16.3 25.7999 18.6 26.6999 19.8C26.9999 20.3 27.5999 20.7 28.1999 20.7Z" fill="white"/>
<path d="M13.3 68.3V68.6C13.3 68.8 13.3 69.1 13.3 69.3C13.3 70 13.5999 70.6 13.9999 70.9C14.2999 71.1 14.5999 71.2 14.9999 71.2C15.0999 71.2 15.2 71.2 15.3 71.2C16.3 71.1 16.7999 70.3 16.6999 69V68.8C16.6999 68.2 16.6 67.6 16.8 67.2C17.4 66 18.1998 64.8 18.8998 63.8L19.1 63.6C19.5 63 20.1 62.2 19.3 61.3C19 60.9 18.5999 60.7 18.1999 60.7C17.5999 60.7 17.1 61.1 16.6 61.5C14.3 63.4 13.2 65.7 13.3 68.3Z" fill="white"/>
<path d="M4.39983 60.7C4.49983 60.7 4.69997 60.8 4.79997 60.8C5.09997 60.8 5.49983 60.7 5.89983 60.5C6.59983 60.1 7.30002 59.8 8.10002 59.4C8.80002 59.1 9.50002 58.7 10.1 58.4C10.4 58.2 10.6999 58 10.9999 57.7C11.0999 57.6 11.2 57.5 11.3 57.4C11.4 57.3 11.4998 57.2 11.3998 57C11.2998 56.5 10.9998 55.1 9.39983 55.2C7.19983 55.4 5.39983 56.3 3.89983 57.9C3.39983 58.4 3.39987 59.5 3.69987 60.1C3.89987 60.4 4.09983 60.6 4.39983 60.7Z" fill="white"/>
</svg>
