<svg width="93" height="84" viewBox="0 0 93 84" fill="none" xmlns="http://www.w3.org/2000/svg">
<path d="M71.5998 63.5C70.8998 63.3 70.1998 63.6 69.5998 63.8L69.2998 63.9C68.8998 64 68.5998 64.2 68.1998 64.3C67.6998 64.5 67.1998 64.7 66.6998 64.8C66.5998 64.8 66.2998 64.6 66.1998 64.5C66.1998 64.4 66.2998 64.1 66.3998 63.9C66.5998 63.6 66.9998 63.3 67.2998 63C67.4998 62.8 67.6998 62.7 67.8998 62.5C69.7998 60.8 70.3998 59 69.8998 57.1C69.5998 55.8 68.9998 54.4 68.0998 53C66.7998 50.9 65.3998 48.9 64.0998 47.1C63.5998 46.4 62.9998 45.6 62.1998 44.8V40.5C62.1998 36.7 60.8998 33.1 58.4998 30.1C57.7998 29.3 57.2998 28.4 56.8998 27.5L46.8998 5.4C46.0998 3.6 44.9998 2 43.4998 0.700001C42.8998 0.100001 42.0998 -0.0999894 41.2998 0.100011C40.4998 0.300011 39.8998 0.900011 39.5998 1.60001L39.3998 2.10001L37.8998 1.4C37.1998 0.999998 36.2998 1.1 35.5998 1.5C34.8998 1.9 34.4998 2.7 34.4998 3.5V7C33.6998 7 32.8998 7.2 32.0998 7.4C30.1998 8 28.5998 9.3 27.5998 11L26.0998 13.5C25.8998 13.7 25.7998 14 25.5998 14.2L24.7998 15C24.4998 15.3 24.1998 15.5 23.8998 15.7L22.7998 16.3C21.7998 16.8 21.2998 18 21.5998 19.1L22.5998 22.8C23.3998 25.7 25.6998 27.9 28.5998 28.6L33.3998 29.8V29.9C33.3998 30.7 33.2998 31.4 32.9998 32.1L32.7998 32.7C32.2998 34 31.2998 35.1 29.9998 35.8C28.9998 36.3 28.0998 37 27.1998 37.8L22.3998 42.6C22.1998 42.8 21.9998 43 21.7998 43.3L16.1998 50C16.0998 50.2 15.8998 50.4 15.7998 50.6L15.6998 50.8C15.5998 50.9 15.5998 51 15.5998 51.2V51.3V51.4C15.5998 51.6 15.5998 51.7 15.4998 51.9C15.4998 52 15.4998 52 15.4998 52.1V52.2C15.4998 52.3 15.4998 52.3 15.4998 52.3C15.4998 52.4 15.4998 52.6 15.5998 52.8C15.5998 52.9 15.5998 52.9 15.6998 53C15.8998 53.7 16.3998 54.4 16.9998 54.7C17.5998 55 18.4998 55 19.2998 54.8C21.1998 54.4 23.0998 53.9 25.0998 53.4C26.6998 53 28.1998 52.6 29.7998 52.3C32.7998 51.6 35.6998 50.9 38.6998 50.3L42.3998 49.5C43.3998 49.3 44.4998 49 45.4998 48.9C45.6998 48.9 45.8998 48.9 45.9998 49C46.0998 49.1 46.1998 49.3 46.2998 49.6C46.6998 52.1 46.9998 54.7 47.2998 57.2L47.6998 60.1C47.6998 61.3 47.4998 61.6 46.9998 61.7C45.1998 62.2 43.3998 62.8 41.5998 63.3C40.4998 63.6 39.3998 63.9 38.2998 64.2C36.7998 64.6 35.2998 65 33.8998 65.4C31.1998 66.2 28.4998 67 25.7998 67.8C22.9998 68.6 20.0998 69.5 17.2998 70.4C13.7998 71.5 12.1998 71 9.99979 68.2C9.59979 67.6 9.19979 67 8.79979 66.4C8.39979 65.8 7.99979 65.1 7.49979 64.5C5.49979 61.9 4.89979 59.2 5.79979 56.3C5.89979 55.9 6.09979 55.4 6.19979 55C6.39979 54.5 6.59979 53.9 6.69979 53.3C7.09979 51.9 7.39979 50.5 7.69979 49.1V48.9C7.99979 47.6 8.29979 46.3 8.69979 45.1C9.09979 43.7 9.49979 42.3 9.79979 40.8V40.6C10.3998 38.5 10.8998 36.5 11.3998 34.4C11.5998 33.5 11.5998 32.8 11.1998 32.2C10.8998 31.7 10.3998 31.4 9.69979 31.2C8.39979 30.9 7.29979 31.7 6.79979 33.2C6.49979 34 6.29979 34.9 6.09979 35.8C5.99979 36.2 5.89979 36.7 5.79979 37.1L4.59979 41.7C3.99979 44 3.39979 46.3 2.79979 48.6C2.59979 49.3 2.39979 50 2.29979 50.8C1.99979 52.3 1.59979 53.8 1.09979 55.2C0.0997873 58.3 0.199786 61.1 1.39979 63.7C2.59979 66.1 4.09979 68.3 5.49979 70.5L5.69979 70.9C8.19979 74.7 12.1998 76.2 16.5998 75.1C16.7998 76.1 17.1998 77.1 17.6998 77.9C20.3998 82.5 25.5998 83 26.5998 83.1H26.6998C27.7998 83.1 28.7998 82.3 28.9998 81.2C29.1998 80.9 29.3998 80.6 29.4998 80.3C30.7998 77.8 30.9998 77.7 33.6998 78C35.2998 78.2 36.7998 78.3 38.4998 78.5C40.4998 78.7 42.6998 79 44.7998 79.2C45.6998 79.3 46.7998 79.1 47.6998 78.7C49.8998 77.8 52.0998 76.7 54.3998 75.7L56.1998 74.9C56.5998 74.7 56.9998 74.5 57.4998 74.3C57.9998 74 58.5998 73.8 59.0998 73.5C60.5998 72.8 62.1998 72.2 63.6998 71.5L64.3998 71.2C65.7998 70.6 67.1998 70 68.6998 69.4L69.1998 69.2C70.0998 68.8 71.0998 68.4 71.9998 67.8C72.6998 67.4 73.1998 66.3 73.0998 65.6C73.1998 64.6 72.3998 63.7 71.5998 63.5ZM37.2998 34.5L37.4998 33.9C37.9998 32.6 38.2998 31.3 38.2998 30V28C38.2998 26.9 37.5998 26 36.4998 25.7L29.8998 24C28.5998 23.7 27.5998 22.7 27.2998 21.5L26.7998 19.7C27.3998 19.4 27.8998 18.9 28.2998 18.5L29.0998 17.7C29.5998 17.2 29.9998 16.7 30.2998 16.1L31.7998 13.6C32.1998 12.9 32.8998 12.3 33.6998 12.1C34.0998 12 34.3998 11.9 34.7998 11.9H36.9998C38.2998 11.9 39.3998 10.8 39.3998 9.5V7.4L39.8998 7.7C40.4998 8 41.1998 8 41.8998 7.7C42.0998 7.6 42.3998 7.50001 42.5998 7.30001C42.5998 7.40001 42.6998 7.4 42.6998 7.5L52.6998 29.6C53.2998 30.9 54.0998 32.1 54.9998 33.3C56.6998 35.4 57.5998 38 57.5998 40.6V42.9H57.2998C57.1998 42.9 57.1998 42.9 57.1998 42.9C56.5998 42.8 55.9998 42.9 55.3998 42.9C55.1998 42.9 54.8998 42.9 54.6998 42.9L50.4998 43.2C50.2998 43.2 50.0998 43.2 49.8998 43.2C49.7998 43.2 49.5998 43.2 49.4998 43.2C49.2998 43.2 49.0998 43.2 48.9998 43.2C48.7998 43.2 48.6998 43.2 48.4998 43.3H48.3998L47.0998 43.6C46.0998 43.8 45.0998 44 44.0998 44.2H43.8998C39.9998 45.1 36.1998 45.9 32.2998 46.9C29.6998 47.5 27.1998 48.1 24.7998 48.8C24.5998 48.8 24.4998 48.9 24.3998 48.9C24.3998 48.9 24.2998 48.9 24.1998 48.9C23.9998 48.9 23.7998 49 23.4998 49L25.6998 46.4C25.7998 46.3 25.8998 46.1 25.9998 46L30.7998 41.2C31.1998 40.8 31.7998 40.4 32.2998 40.1C34.5998 38.8 36.3998 36.9 37.2998 34.5ZM51.8998 64.6C52.5998 63.8 53.3998 63.8 54.8998 64.2C56.8998 64.7 58.7998 65.2 60.7998 65.6C61.6998 65.8 61.8998 66 61.8998 66.6C61.9998 67.1 61.8998 67.3 60.9998 67.7C59.5998 68.2 58.1998 68.9 56.6998 69.5L56.4998 69.6C55.9998 69.8 55.5998 70 55.0998 70.2C54.6998 70.4 54.1998 70.6 53.7998 70.8L53.5998 70.9C53.0998 71.1 52.5998 71.4 52.0998 71.6L51.1998 72C49.4998 72.7 47.7998 73.5 46.0998 74.1C45.8998 74.2 45.5998 74.2 45.4998 74.2H45.3998C44.3998 74.1 43.4998 74 42.4998 74C40.3998 73.8 38.3998 73.7 36.3998 73.5C36.1998 73.5 36.0998 73.4 35.8998 73.4H35.7998C35.1998 73.4 34.4998 73.4 33.8998 73.5C32.4998 73.5 31.1998 73.6 29.7998 73.6C29.6998 73.6 29.6998 73.6 29.5998 73.7C29.5998 73.7 29.4998 73.7 29.4998 73.8C27.2998 74.8 26.3998 76.6 25.7998 78.2C24.5998 77.9 22.9998 77.1 22.1998 75.6C21.8998 75.1 21.6998 74.5 21.5998 73.9L25.7998 72.7C26.0998 72.6 26.4998 72.5 26.8998 72.4C27.5998 72.2 28.1998 72 28.8998 71.9C29.2998 71.7 29.6998 71.7 29.9998 71.6L30.5998 71.5H30.6998C31.8998 71.1 33.0998 70.6 34.2998 70.4C34.3998 70.4 34.3998 70.4 34.4998 70.3C34.6998 70.2 34.6998 70.1 34.6998 70.1C37.4998 69.2 40.3998 68.4 43.2998 67.6L47.4998 66.4C48.5998 66.1 49.6998 65.8 50.6998 65.5C51.1998 65.1 51.6998 64.9 51.8998 64.6ZM53.2998 59C52.6998 58.8 52.2998 58.5 52.1998 58C51.8998 55.9 51.4998 53.8 51.1998 51.8L50.8998 49.7C50.8998 49.6 50.8998 49.5 50.8998 49.4C50.8998 47.9 51.0998 47.8 52.4998 47.7C52.8998 47.7 53.1998 47.7 53.5998 47.6C54.2998 47.6 55.0998 47.5 55.7998 47.5C56.0998 47.5 56.2998 47.5 56.5998 47.5C57.1998 47.5 57.9998 47.7 58.2998 48.1C59.6998 49.5 60.8998 51 61.9998 52.4C62.3998 52.9 62.7998 53.5 63.0998 54.1C63.3998 54.6 63.7998 55.2 64.1998 55.7C64.9998 56.8 65.2998 57.6 65.1998 58.2C65.0998 58.8 64.4998 59.3 63.3998 60C61.8998 60.9 60.5998 61.4 58.8998 60.7C57.5998 60.2 56.1998 59.8 54.8998 59.5C54.3998 59.2 53.8998 59.1 53.2998 59Z" fill="white"/>
<path d="M92.0998 66.7V66.5C92.0998 66.2 91.9998 65.9 91.9998 65.6L91.3998 62.8C90.5998 59.3 89.7998 55.7 88.9998 52.2C88.3998 49.7 87.7998 47.2 87.1998 44.7C86.7998 42.9 86.2998 41.1 85.8998 39.3C85.5998 38.2 85.3998 37 85.0998 35.9V35.7C84.6998 34 84.2998 32.4 83.8998 30.7C83.3998 28.7 82.5998 27.2 81.2998 26C78.8998 23.7 75.9998 22.5 73.3998 21.6C71.5998 20.9 69.7998 20.3 67.9998 19.7H67.8998C66.2998 19.1 64.6998 18.6 63.0998 18C60.9998 17.2 59.8998 15.8 59.6998 13.7C59.4998 12 59.1998 10.4 58.8998 8.8C58.7998 8.2 58.6998 7.59999 58.5998 6.99999C58.3998 5.99999 57.8998 5.2 57.1998 4.8C56.6998 4.5 56.0998 4.39999 55.5998 4.49999C55.0998 4.59999 54.5998 4.99999 54.2998 5.49999C53.7998 6.29999 53.6998 7.29999 53.9998 8.19999C54.1998 8.99999 54.3998 9.9 54.5998 10.8L54.7998 11.9C55.0998 13.3 55.3998 14.8 55.5998 16.2C55.8998 18.4 57.2998 20.2 59.5998 21.3C61.3998 22.2 63.2998 22.9 65.1998 23.6C65.8998 23.9 66.6998 24.1 67.3998 24.4C68.4998 24.8 69.5998 25.2 70.6998 25.6L70.8998 25.7C72.2998 26.2 73.6998 26.7 75.0998 27.3C77.6998 28.3 79.3998 30.3 80.0998 33.4C81.1998 38.1 82.2998 42.8 83.3998 47.4L83.5998 48.2C84.8998 53.9 86.2998 59.5 87.6998 65.2L87.7998 65.6C88.0998 66.6 88.2998 67.5 87.7998 68.3C86.8998 69.9 85.7998 71.6 84.3998 73.7C83.4998 75.1 83.5998 76.4 84.5998 77.3C84.9998 77.6 85.4998 77.8 85.9998 77.8C86.7998 77.8 87.4998 77.4 88.0998 76.7C88.6998 76 89.2998 75.2 89.8998 74.3C91.5998 71.7 92.3998 69.5 92.4998 67C92.0998 66.8 92.0998 66.8 92.0998 66.7Z" fill="white"/>
</svg>
