<svg width="102" height="91" viewBox="0 0 102 91" fill="none" xmlns="http://www.w3.org/2000/svg">
<path d="M70.5996 54.8C70.4996 54.4 70.4997 54.1 70.3997 53.7C70.1997 52.5 69.9996 51.2 69.4996 50C67.8996 46.5 65.4996 44.8 62.1996 44.7C61.8996 44.7 61.7996 44.6 61.5996 44.3C59.9996 42 57.7996 40.6 55.1996 39.9C54.8996 39.8 54.6996 39.7 54.4996 39.4C51.9996 35.8 47.9996 34.2 43.6996 35.1C43.2996 35.2 43.0996 35.1 42.7996 34.9C39.4996 32.4 35.4996 32.4 32.0996 34.9C31.7996 35.1 31.5996 35.1 31.2996 35.1C26.8996 34.2 23.1996 35.7 20.4996 39.4C20.2996 39.7 20.0996 39.8 19.7996 39.9C17.0996 40.5 14.9997 42 13.3997 44.3C13.1997 44.6 12.9996 44.7 12.5996 44.7C11.5996 44.7 10.5996 44.9 9.59961 45.4C7.09961 46.7 5.49963 48.8 4.99963 51.6C4.29963 55.2 3.59963 59 2.99963 62.5C2.69963 64.2 2.39961 66 2.09961 67.7C1.79961 69.6 1.39961 71.5 1.09961 73.4L0.599609 76.1V78.7C1.19961 81.3 2.79966 83.2 5.39966 84.3C11.3997 86.9 17.5996 88.6 24.5996 89.6C29.0996 90.2 33.3996 90.6 37.5996 90.6C38.7996 90.6 40.0996 90.6 41.2996 90.5C46.8996 90.2 52.0996 89.6 57.0996 88.4C61.7996 87.3 66.0996 85.9 69.9996 84.1C73.2996 82.6 74.9996 79.5 74.2996 76C72.9996 68.3 71.7996 61.6 70.5996 54.8ZM31.0996 63.2C32.0996 63.2 32.6996 62.5 32.7996 61.6C32.7996 60.6 32.1996 59.9 31.1996 59.8C30.3996 59.7 29.5996 59.6 28.7996 59.6C27.6996 59.5 26.4997 59.4 25.3997 59.2C21.4997 58.7 16.8996 58 12.4996 56.2C11.2996 55.7 10.2997 55.2 9.39966 54.5C8.29966 53.7 8.19961 53.2 8.59961 51.9C8.79961 51.2 9.19962 50.5 9.79962 49.8C10.7996 48.6 11.9996 48.2 13.5996 48.4C14.5996 48.6 15.1996 48.3 15.6996 47.3C16.9996 45 18.7996 43.6 21.2996 43.3C22.0996 43.2 22.5996 42.8 22.9996 42.1C24.6996 39.1 27.7996 37.8 31.0996 38.9C32.0996 39.2 32.8996 39.1 33.6996 38.3C35.7996 36.3 38.7997 36.2 40.8997 38.2C41.7997 39.1 42.6996 39.2 43.9996 38.9C46.9996 38 50.1996 39.3 51.7996 42.1C52.1996 42.9 52.7996 43.3 53.6996 43.5C56.0996 43.9 57.8996 45.1 59.0996 47.3C59.7996 48.5 60.1996 48.7 61.4996 48.6C62.6996 48.5 63.8997 48.9 64.8997 49.8C65.8997 50.7 66.4996 51.9 66.4996 53.2C66.4996 53.8 66.0996 54.2 65.4996 54.7C64.1996 55.7 62.6996 56.4 61.4996 56.8C57.7996 58.2 53.8996 58.8 50.6996 59.3C48.8996 59.6 46.9996 59.7 45.1996 59.9L43.6996 60C42.5996 60.1 41.9996 60.8 41.9996 61.9C41.9996 62.4 42.1996 62.8 42.4996 63.1C42.7996 63.4 43.2996 63.5 43.7996 63.5C51.6996 63 57.5997 62 62.8997 60C64.4997 59.4 65.7996 58.7 66.9996 57.9C67.0996 57.8 67.0996 57.8 67.1996 57.8C67.1996 57.8 67.1996 57.9 67.1996 58C67.5996 60.1 67.8996 62.2 68.2996 64.3C68.4996 65.6 68.7996 66.9 68.9996 68.2C69.2996 70.2 69.6996 72.2 69.9996 74.1L70.5996 77.3C70.8996 79.3 69.6997 80.7 68.3997 81.3C65.4997 82.6 62.3996 83.7 59.2996 84.6C53.7996 86.1 47.8997 87.1 41.8997 87.4C40.9997 87.4 40.0996 87.5 39.1996 87.5C38.4996 87.5 37.7996 87.5 36.9996 87.5C26.4996 87.4 16.6996 85.7 8.09961 82.2C7.29961 81.9 6.49966 81.5 5.89966 81.2C4.39966 80.5 3.59966 79 3.89966 77.4C4.49966 73.7 5.19966 70 5.89966 66.2L6.89966 60.6C7.09966 59.7 7.19966 58.8 7.39966 57.9C7.39966 57.8 7.39966 57.7 7.39966 57.7C7.39966 57.7 7.49961 57.7 7.59961 57.8C10.6996 59.9 14.1996 60.8 17.1996 61.5C21.2996 62.5 25.5996 63 30.2996 63.3C30.6996 63.2 30.8996 63.2 31.0996 63.2Z" fill="white"/>
<path d="M10.3994 63.1C9.39944 63 8.69942 63.7 8.49942 64.8C7.99942 67.7 7.49942 70.5 6.99942 73.4C6.89942 74 6.9994 74.6 7.2994 75C7.5994 75.4 7.89944 75.6 8.39944 75.7C8.49944 75.7 8.59943 75.7 8.69943 75.7C9.59943 75.7 10.2994 75.1 10.4994 74C10.7994 72.5 11.0994 70.9 11.2994 69.4C11.4994 68.5 11.5994 67.5 11.7994 66.6L11.9994 65.2C11.9994 64 11.2994 63.2 10.3994 63.1Z" fill="white"/>
<path d="M63.4992 68.1C63.6992 69 63.7992 70 63.9992 70.9L64.0992 71.7C64.1992 72.5 64.3992 73.4 64.5992 74.2C64.7992 75 65.4992 75.6 66.2992 75.6C66.3992 75.6 66.4992 75.6 66.4992 75.6C67.3992 75.5 67.9992 74.7 67.9992 73.8V73.7V73.6L67.7992 72.6C67.2992 69.9 66.8992 67.3 66.3992 64.6C66.2992 64 65.9992 63.5 65.4992 63.3C64.8992 63 64.1992 63 63.6992 63.4C63.0992 63.8 62.7992 64.5 62.9992 65.3C63.1992 66.3 63.3992 67.2 63.4992 68.1Z" fill="white"/>
<path d="M25.1998 47.4C22.1998 47.9 20.0998 49.6 18.9998 52.4C18.5998 53.3 18.9998 54.3 19.8998 54.7C20.0998 54.8 20.3997 54.8 20.5997 54.8C21.2997 54.8 21.8998 54.4 22.1998 53.8C22.9998 52.1 24.1998 51.1 25.8998 50.8C26.7998 50.6 27.2998 49.9 27.2998 49C27.2998 48.5 27.0998 48 26.6998 47.7C26.1998 47.4 25.6998 47.3 25.1998 47.4Z" fill="white"/>
<path d="M49.0993 50.8C50.8993 51.2 52.1993 52.2 52.9993 54C53.2993 54.6 53.8993 54.9 54.4993 54.9C54.6993 54.9 54.8993 54.9 55.1993 54.8C55.9993 54.5 56.4993 53.6 56.1993 52.7C55.5993 50.2 52.1993 47.5 49.6993 47.4C48.7993 47.4 48.0993 48 47.8993 48.8C47.5993 49.7 48.1993 50.6 49.0993 50.8Z" fill="white"/>
<path d="M34.3996 45.3C34.7996 45.3 35.1996 45.2 35.5996 44.9C36.8996 44 37.9996 44 39.2996 44.9C40.1996 45.5 41.1996 45.4 41.7996 44.7C42.3996 43.9 42.2996 42.9 41.4996 42.1C40.3996 41.1 38.9996 40.7 37.4996 40.7C35.8996 40.7 34.5996 41.1 33.3996 42.2C32.5996 42.9 32.4996 44 33.0996 44.7C33.4996 45 33.8996 45.3 34.3996 45.3Z" fill="white"/>
<path d="M35.7998 61.7C35.7998 62.2 35.9998 62.6 36.2998 63C36.5998 63.3 36.9998 63.5 37.4998 63.5C38.4998 63.5 39.1998 62.7 39.1998 61.7C39.1998 61.2 38.9998 60.8 38.6998 60.4C38.3998 60.1 37.9998 59.9 37.4998 59.9C36.4998 59.9 35.7998 60.7 35.7998 61.7Z" fill="white"/>
<path d="M101.3 34.6C101 34.2 100.6 34.2 100.2 34.2H99.9995C98.5995 34.2 97.1995 34.2 95.6995 34.2H93.5995C91.4995 34.2 91.4995 34.2 91.4995 32.1V0.599995C91.4995 0.499995 91.3995 0.399994 91.2995 0.399994H87.8995C87.7995 0.399994 87.6995 0.499995 87.6995 0.599995V22.9C87.6995 24.2 87.6995 25.4 87.6995 26.7C87.6995 29.8 87.6995 33 87.6995 36.2C87.6995 37.1 87.8995 37.7 88.1995 38C88.5995 38.3 89.0995 38.5 89.9995 38.4C90.6995 38.3 91.4995 38.4 92.1995 38.4C92.5995 38.4 92.9995 38.4 93.2995 38.4C93.7995 38.4 93.8995 38.5 93.8995 38.5C93.8995 38.5 93.8995 38.6 93.5995 39C90.6995 42.7 87.8995 46.4 84.9995 50.2C84.5995 50.8 84.3995 50.8 83.9995 50.3C81.6995 47.3 79.3995 44.2 76.8995 41.1L74.8995 38.5H78.4995C81.2995 38.5 81.3995 38.4 81.3995 35.7V0.699994C81.3995 0.599994 81.2995 0.499994 81.1995 0.499994H77.7995C77.6995 0.499994 77.5995 0.599994 77.5995 0.699994V32.2C77.5995 34.4 77.5995 34.4 75.4995 34.4H73.4995C72.0995 34.4 70.6995 34.4 69.2995 34.4C69.1995 34.4 69.0995 34.4 68.9995 34.4C68.5995 34.4 67.9995 34.3 67.6995 34.9C67.4995 35.4 67.7995 35.8 68.0995 36.1C68.1995 36.2 68.1995 36.2 68.2995 36.3C70.0995 38.7 71.8995 41 73.7995 43.4C77.0995 47.7 80.2995 51.9 83.5995 56.2C83.8995 56.6 84.2995 57 84.6995 57C85.1995 57 85.4995 56.6 85.7995 56.2C88.9995 52 92.1995 47.8 95.4995 43.6C97.3995 41.1 99.2995 38.6 101.2 36.1C101.2 36 101.3 36 101.3 35.9C101.2 35.6 101.6 35.2 101.3 34.6Z" fill="white"/>
<path d="M49.3995 72.8C50.0995 73.5 50.5995 74 51.0995 74.5C51.6995 75.1 51.7995 76 51.1995 76.6C49.7995 78 48.5995 79.5 46.9995 80.6C42.4995 83.8 36.1995 83.6 31.7995 80.2C31.4995 79.9 31.0995 79.9 30.6995 80C28.9995 80.6 27.2995 81.2 25.5995 81.7C24.6995 82 23.9995 81.8 23.5995 81.1C23.1995 80.5 23.1995 79.9 23.4995 79.3C23.9995 78.2 24.5995 77.1 25.0995 76.1C25.2995 75.8 25.2995 75.5 25.0995 75.2C24.5995 74.2 24.0995 73.1 23.4995 72.1C23.0995 71.4 23.0995 70.7 23.5995 70C24.1995 69.3 24.8995 69.3 25.6995 69.6C27.3995 70.2 29.0995 70.7 30.7995 71.3C31.1995 71.4 31.4995 71.4 31.7995 71.1C36.2995 67.7 41.9995 67.5 46.7995 70.5C47.7995 71.1 48.6995 72 49.3995 72.8ZM28.2995 73.9C28.3995 74.5 28.8995 75 28.8995 75.6C28.8995 76.2 28.4995 76.6 28.2995 77.3C29.2995 77 30.1995 76.7 31.0995 76.4C31.6995 76.2 32.2995 76.2 32.7995 76.6C32.9995 76.8 33.2995 77 33.4995 77.2C35.8995 79.2 38.6995 79.9 41.7995 79.3C42.1995 79.2 42.1995 79.1 41.9995 78.7C40.8995 76.7 40.8995 74.6 41.8995 72.6C42.1995 72 42.1995 72 41.5995 71.9C38.2995 71.3 35.3995 72.2 32.9995 74.4C32.3995 75 31.7995 75.1 30.9995 74.8C30.0995 74.5 29.2995 74.2 28.2995 73.9ZM46.7995 76.4C46.9995 76.2 47.0995 76 47.2995 75.9C47.5995 75.6 47.5995 75.4 47.2995 75.1C46.7995 74.6 46.2995 74.2 45.7995 73.7C45.4995 73.5 45.2995 73.5 45.0995 73.8C44.4995 74.7 44.4995 76.4 45.0995 77.2C45.2995 77.5 45.4995 77.5 45.7995 77.3C45.9995 77 46.4995 76.8 46.7995 76.4Z" fill="white"/>
</svg>
