<svg width="92" height="79" viewBox="0 0 92 79" fill="none" xmlns="http://www.w3.org/2000/svg">
<path d="M70.9999 60.5C70.3999 60.4 69.7999 60.6 69.1999 60.8L68.8999 60.9C68.4999 61 68.1999 61.1 67.8999 61.3C67.3999 61.5 66.8 61.7 66.3 61.8C66.1 61.8 65.5999 61.5 65.4999 61.3C65.3999 61.2 65.4999 60.7 65.6999 60.4C65.9999 60.1 66.2999 59.8 66.6999 59.5C66.8999 59.3 67.1 59.2 67.3 59C69.1 57.4 69.6999 55.7 69.1999 53.9C68.8999 52.6 68.2999 51.3 67.3999 49.9C66.0999 47.8 64.6999 45.8 63.3999 44C62.1999 42.4 60.7999 40.4 58.1999 40.2C56.7999 40.1 55.9999 39.4 55.1999 38.4C53.1999 35.9 50.9999 33.9 48.4999 32.4C45.4999 30.6 43.5999 28.9 43.3999 25.9C43.3999 25.7 43.2999 25.4 43.1999 25.2L43.0999 25C42.6999 23.8 42.3999 22.6 41.9999 21.4C41.1999 18.8 40.3999 16.2 39.5999 13.5C38.9999 11.3 38.4 9.2 37.8 7C37.4 5.4 36.8999 3.8 36.4999 2.3C36.2999 1.5 35.6999 0.899995 34.9999 0.699995C34.2999 0.499995 33.4999 0.799992 32.9999 1.39999C32.0999 2.39999 31.1999 3.6 30.1999 5C29.1999 6.5 28.0999 7.1 26.6999 7.1C24.9999 7.1 23.6999 7.19999 22.4999 7.39999C20.5999 7.69999 18.4999 8.29999 17.0999 10.2C16.0999 11.5 14.7999 12.4 13.0999 12.8H12.9999C12.1999 13 11.4999 13.2 10.6999 13.4C8.29986 14 6.89986 15.8 7.19986 17.9C7.39986 19.2 7.99991 20.6 8.49991 21.8C8.79991 22.5 9.19989 23.1 9.59989 23.7C9.99989 24.3 10.2999 24.8 10.5999 25.4C11.2999 26.9 12.3999 27.6 13.9999 27.9C14.9999 28 16.0999 28.2 17.0999 28.4C17.8999 28.5 18.7999 28.7 19.5999 28.8C20.4999 28.9 20.7999 29.3 20.8999 30.3C20.9999 31.6 20.4 32.6 19.8 33.7C19.6 34.1 19.3999 34.4 19.1999 34.8C17.8999 37.6 17.4999 40.7 17.9999 44.2V44.5C18.2999 46.5 18.2999 46.5 16.3999 47.7C15.9999 48 15.3999 48.7 15.3999 49.3C15.4999 49.9 15.9999 50.7 16.5999 50.9C17.1999 51.1 17.8999 51.2 18.6999 51C20.5999 50.6 22.4999 50.1 24.4999 49.6C26.0999 49.2 27.5999 48.8 29.1999 48.5C32.2999 47.8 35.4999 47.1 38.5999 46.4L41.6999 45.7C42.6999 45.5 43.7999 45.2 44.8999 45.1C45.1999 45.1 45.4999 45.1 45.6999 45.3C45.8999 45.5 46.0999 45.8 46.0999 46.1C46.4999 48.7 46.7999 51.3 47.1999 53.9L47.5999 56.6C47.5999 57.7 47.4999 58.3 46.6999 58.6C44.8999 59.1 43.1 59.7 41.3 60.2C40.2 60.5 39.0999 60.8 37.9999 61.1C36.4999 61.5 34.9999 61.9 33.5999 62.3C30.8999 63.1 28.1999 63.9 25.4999 64.7C22.6999 65.5 19.7999 66.4 16.9999 67.3C13.3999 68.4 11.6 67.9 9.29996 65C8.79996 64.4 8.39991 63.8 7.99991 63.1C7.59991 62.5 7.19996 61.8 6.79996 61.2C4.69996 58.5 4.09991 55.7 4.99991 52.6C5.09991 52.2 5.29994 51.7 5.39994 51.3C5.59994 50.8 5.79994 50.2 5.89994 49.6C6.29994 48.2 6.59994 46.8 6.89994 45.4C7.19994 44.1 7.59994 42.7 7.89994 41.4C8.29994 40 8.69991 38.6 8.99991 37.1C9.59991 35 10.0999 32.9 10.6999 30.7C10.8999 29.9 10.7999 29.3 10.4999 28.8C10.1999 28.4 9.79996 28.1 9.29996 28C8.19996 27.7 7.29994 28.4 6.89994 29.8C6.59994 30.7 6.39986 31.6 6.19986 32.4C6.09986 32.8 5.99994 33.3 5.89994 33.7L4.69986 38.3C4.09986 40.6 3.49994 42.9 2.89994 45.2C2.69994 45.9 2.49994 46.6 2.39994 47.4C1.99994 48.9 1.69986 50.4 1.19986 51.8C0.199863 54.8 0.299912 57.6 1.49991 60C2.59991 62.4 4.09989 64.6 5.59989 66.8L5.79996 67.2C8.19996 70.8 12 72.3 16.3 71.3C18.4 70.8 20.4999 70.2 22.5999 69.6C23.3999 69.4 24.2999 69.1 25.0999 68.9C25.3999 68.8 25.7999 68.7 26.0999 68.6C26.7999 68.4 27.4999 68.2 28.1999 68.1C28.3999 68.1 29.1999 68 29.4999 69.4C29.6999 70.4 29.1999 70.6 28.9999 70.7C26.8999 71.6 25.9999 73.5 25.3999 75.1C25.1999 75.8 25.1999 76.6 25.4999 77.2C25.6999 77.7 26.0999 78 26.4999 78.1C26.6999 78.2 26.9999 78.2 27.1999 78.2C28.1999 78.2 28.6999 77.3 28.9999 76.7C30.2999 74.1 30.6999 73.9 33.4999 74.2C35.0999 74.4 36.5999 74.5 38.1999 74.7C40.2999 74.9 42.3999 75.2 44.4999 75.4C45.3999 75.5 46.3999 75.3 47.1999 74.9C49.3999 74 51.6999 72.9 53.8999 71.9L55.6999 71.1C56.0999 70.9 56.4999 70.7 56.9999 70.5C57.4999 70.2 58.0999 70 58.5999 69.7C60.2999 69 61.9999 68.3 63.6999 67.5C65.1999 66.9 66.6999 66.2 68.1999 65.6L68.6999 65.4C69.5999 65 70.5999 64.6 71.3999 64.1C71.9999 63.7 72.4 62.8 72.3 62.2C72.3 61.4 71.5999 60.6 70.9999 60.5ZM51.0999 60.9C51.5999 60.3 52.2 60.1 52.8 60.1C53.3 60.1 53.7999 60.2 54.3999 60.4C56.3999 60.9 58.2999 61.4 60.1999 61.8C61.1999 62 61.4999 62.3 61.5999 63.1C61.6999 63.9 61.3999 64.2 60.3999 64.6C58.9999 65.1 57.4999 65.8 56.1999 66.4C55.6999 66.6 55.0999 66.9 54.5999 67.1C54.1999 67.3 53.7 67.5 53.3 67.7C52.7 68 52.1999 68.2 51.5999 68.5L50.8 68.8C49.1 69.6 47.2999 70.3 45.4999 71C45.1999 71.1 44.8999 71.1 44.6999 71.1C44.5999 71.1 44.5999 71.1 44.5999 71.1C43.5999 71 42.7 70.9 41.8 70.9C39.7 70.7 37.5999 70.6 35.5999 70.4C34.7999 70.3 34.0999 69.9 33.5999 69.3C33.0999 68.7 32.8999 67.9 32.9999 67.2C32.9999 66.9 33.4999 66.4 33.8999 66.3C36.7999 65.4 39.6999 64.6 42.4999 63.8L44.5999 63.2C45.2999 63 45.9999 62.8 46.6999 62.6C47.7999 62.3 48.8999 62 49.8999 61.7C50.5999 61.4 50.8999 61.2 51.0999 60.9ZM52.6999 55.9C51.8999 55.7 51.4999 55.2 51.3999 54.6C50.9999 52.4 50.6999 50.2 50.3999 48.1L50.0999 46.3C50.0999 46.2 50.0999 46.1 50.0999 46C50.0999 46 50.0999 46 50.0999 45.9C50.0999 44.2 50.3999 43.9 52.0999 43.8C52.4999 43.8 52.7999 43.8 53.1999 43.7C54.1999 43.6 55.1999 43.6 56.1999 43.6C56.7999 43.6 57.6999 43.8 58.1999 44.3C59.5999 45.7 60.7999 47.3 61.8999 48.6C62.2999 49.1 62.6999 49.7 63.0999 50.3C63.3999 50.8 63.7999 51.4 64.1999 51.9C65.0999 53.1 65.4 54 65.3 54.7C65.2 55.4 64.5999 56 63.3999 56.8C61.9999 57.6 60.4999 58.3 58.4999 57.5C57.1999 57 55.8999 56.6 54.4999 56.3C53.7999 56.2 53.2999 56.1 52.6999 55.9ZM21.9999 38.4C22.2999 37.7 22.5999 37 22.8999 36.3C23.1999 35.8 23.3999 35.2 23.6999 34.7C24.0999 33.8 24.2999 32.9 24.3999 32.2C24.5999 30.8 24.6999 29.3 24.6999 28C24.7999 26 23.8 25.5 22.3 25.2C20.2 24.9 17.8999 24.5 14.8999 23.9C14.5999 23.8 14.0999 23.5 13.8999 23.2C12.8999 21.7 11.9999 20.2 11.0999 18.8C10.8999 18.5 10.8999 18.1 10.9999 17.8C11.0999 17.4 11.4999 17.1 12.0999 16.9C12.8999 16.6 13.7999 16.4 14.6999 16.2C15.2999 16 15.8999 15.9 16.4999 15.7C17.8999 15.3 18.9999 14.5 19.6999 13.2C20.0999 12.6 20.7999 11.8 21.4999 11.7C23.5999 11.2 25.8999 10.9 28.5999 10.7C29.9999 10.6 31.3999 10.5 32.1999 8.7C32.3999 8.29999 33.2 7.8 33.8 7.8C33.8 7.8 33.7999 7.8 33.8999 7.8C34.1999 7.8 34.2999 8 34.3999 8.7C34.3999 8.8 34.4999 9 34.4999 9.1C35.2999 12.3 36.0999 15.2 36.8999 18C37.7999 21.2 38.6999 24.1 39.4999 26.9C39.5999 27.2 39.7 27.5 39.8 27.8C40.4 29.9 40.9999 32 42.9999 33.4C43.5999 33.8 44.1999 34.3 44.8999 34.7C45.4999 35.1 46.0999 35.5 46.6999 35.9C47.7999 36.7 49.0999 37.6 50.1999 38.6C50.4999 38.8 50.6999 39.5 50.6999 39.6C50.5999 39.8 50.0999 40 49.6999 40.1L49.3999 40.2C49.1999 40.2 49 40.2 48.8 40.2C48.8 40.2 48.7999 40.2 48.6999 40.2C48.5999 40.1 48.5 40 48.3 40L46.8 40.3C45.7 40.5 44.6999 40.7 43.5999 41H43.3999C39.4999 41.9 35.7 42.7 31.8 43.7C29.2 44.3 26.7 44.9 24.3 45.6C23.6 45.8 23.0999 45.6 22.6999 45C21.3999 43 21.1999 40.8 21.9999 38.4Z" fill="white"/>
<path d="M91.1999 63.4V63.2C91.1999 63 91.0999 62.6 91.0999 62.3L90.4999 59.5C89.6999 56 88.8999 52.4 88.0999 48.9C87.4999 46.4 86.9 43.9 86.3 41.4C85.9 39.6 85.3999 37.8 84.9999 36C84.6999 34.9 84.4999 33.7 84.1999 32.6C83.7999 30.9 83.3999 29.2 82.9999 27.4C82.4999 25.5 81.6999 24 80.4999 22.8C78.1999 20.6 75.3 19.4 72.8 18.5C71 17.8 69.1999 17.2 67.3999 16.6C65.7999 16 64.0999 15.5 62.4999 14.9C60.2999 14.1 59.1 12.6 58.8 10.3C58.6 8.7 58.2999 6.99999 57.9999 5.39999C57.8999 4.79999 57.7999 4.2 57.6999 3.6C57.4999 2.7 57.0999 2 56.4999 1.6C56.0999 1.3 55.5999 1.2 55.1999 1.3C54.7999 1.4 54.3999 1.69999 54.0999 2.19999C53.6999 2.89999 53.6 3.8 53.8 4.6C54 5.5 54.1999 6.29999 54.3999 7.19999L54.5999 8.3C54.8999 9.7 55.1999 11.2 55.3999 12.7C55.6999 14.8 56.9999 16.5 59.1999 17.5C60.9999 18.4 62.9 19.1 64.8 19.8C65.5 20.1 66.2999 20.3 66.9999 20.6C68.0999 21 69.2999 21.5 70.3999 21.9C71.7999 22.4 73.1999 22.9 74.5999 23.5C77.3999 24.6 79.1 26.7 79.8 29.9C80.9 34.6 81.9999 39.3 83.0999 43.9L83.3 44.7C84.6 50.4 85.9999 56 87.3999 61.7L87.4999 62.1C87.7999 63.2 87.9999 64.1 87.4999 65.1C86.5999 66.7 85.4999 68.4 84.0999 70.5C83.2999 71.7 83.3 72.9 84.3 73.6C84.7 73.9 85.0999 74 85.4999 74C86.0999 74 86.7999 73.7 87.3999 73C87.9999 72.3 88.4999 71.5 89.0999 70.6C90.3999 68.1 91.1999 65.9 91.1999 63.4Z" fill="white"/>
</svg>
