<svg width="81" height="105" viewBox="0 0 81 105" fill="none" xmlns="http://www.w3.org/2000/svg">
<path d="M1.99971 10.5L2.19972 10.6C3.59972 11.6 4.79973 12.4 4.89973 14.1C4.99973 15.3 5.59972 16.4 6.19972 17.3C7.69972 19.9 10.2997 21.3 13.9997 21.7C15.9997 21.9 18.2997 22.2 20.2997 23.3C20.9997 23.7 21.6997 23.9 22.3997 24L22.7997 24.1C23.4997 24.3 24.0997 24.3 24.6997 24.3C27.4997 24.3 29.5997 22.7 30.5997 19.7C30.8997 18.7 30.7997 17.8 30.2997 17.2C29.9997 16.9 29.3997 16.4 28.0997 16.6C26.3997 16.9 24.9997 16.1 23.7997 15.2C27.5997 13.1 29.5997 9.8 29.7997 4.9V4.8L29.6997 4.3C29.5997 3.8 29.5997 3.1 29.4997 2.5C29.4997 2.2 29.3997 1.9 29.2997 1.6C28.8997 0.700002 28.2997 0.100002 27.5997 2.32086e-06C27.0997 -0.0999977 26.3997 2.32458e-06 25.5997 0.800002C23.9997 2.5 21.7997 3.1 19.6997 3.6L18.6997 3.8C16.5997 4.3 14.3997 4.7 12.3997 6.1C12.3997 6.1 12.3997 6.1 12.3997 6C11.6997 4.4 10.1997 3.3 8.29969 3.1C6.19969 2.9 4.09973 3.7 2.89973 5.3C2.59973 5.7 2.29973 6.1 1.89973 6.4C1.19973 6.9 0.499705 7.5 0.499705 8.4C0.399705 9.3 1.19971 9.9 1.99971 10.5ZM10.2997 14.2C10.8997 14.4 11.4997 14.4 11.9997 14.1C12.5997 13.8 12.9997 13.2 13.1997 12.3C13.6997 10.5 14.8997 9.3 16.8997 8.7C18.4997 8.2 20.1997 7.8 21.7997 7.3C22.6997 7.1 23.4997 6.8 24.3997 6.6C24.6997 6.5 24.8997 6.5 25.1997 6.4C25.1997 6.7 25.1997 6.9 25.0997 7.2C24.2997 10.3 21.6997 12.4 18.4997 12.4C18.3997 12.4 18.2997 12.4 18.2997 12.4H18.1997C17.7997 12.4 17.3997 12.3 16.8997 12.5C15.7997 13 15.1997 13.6 15.1997 14.3C15.0997 15 15.6997 15.7 15.9997 16.1C16.3997 16.5 16.6997 16.6 17.0997 16.6C18.3997 16.5 19.2997 17.2 20.1997 18.1C20.5997 18.4 20.9997 18.8 21.3997 19.1C21.5997 19.3 21.8997 19.4 22.0997 19.6C21.5997 19.4 20.9997 19.2 20.4997 19C19.0997 18.4 17.7997 18 16.2997 17.9C14.5997 17.8 13.1997 17.5 12.0997 17.1C10.6997 16.6 9.69972 15.4 9.19972 13.7C9.39972 13.8 9.79969 14 10.2997 14.2ZM9.09968 10.9C8.99968 11.2 8.89973 11.5 8.89973 11.7C8.59973 10.5 7.89973 9.6 6.89973 8.8L6.79969 8.7C6.69969 8.6 6.19972 8.3 6.19972 8.2C6.19972 8.2 6.19969 8.1 6.29969 8C6.59969 7.6 6.89969 7.4 7.29969 7.3C7.39969 7.3 7.39971 7.3 7.49971 7.3C7.69971 7.3 7.89968 7.4 8.09968 7.5C9.19968 8.4 9.59968 9.6 9.09968 10.9Z" fill="white"/>
<path d="M78.7993 71.8C77.8993 68.6 76.6993 66.1 75.1993 64.2C74.0993 62.9 73.3993 61.3 73.0993 59.5C72.5993 56.1 71.6993 53.2 70.2993 50.9C69.3993 49.4 68.7993 47.6 68.5993 45.9C68.2993 42.5 67.5993 39.1 66.2993 35.8C66.2993 35.7 66.1993 35.6 66.1993 35.6C66.1993 35.6 66.2993 35.5 66.2993 35.4C67.7993 32.9 68.6993 29.9 68.7993 27C71.2993 24.5 72.4993 20.9 71.9993 17.4C71.9993 17.1 71.7993 16.4 71.2993 15.8C70.4993 14.9 69.4993 14.8 69.1993 14.8C66.6993 14.5 64.0993 15.1 61.9993 16.4C60.9993 15.7 59.7993 15.1 58.5993 14.7C58.3993 13.6 58.0993 12.3 57.4993 11.1C56.3993 8.90001 54.4993 7.50001 52.3993 7.20001C51.2993 7.00001 50.2993 7.70001 49.9993 8.70001C49.3993 10.5 48.9993 12.4 48.5993 14.3C45.7993 15.2 43.4993 17.5 42.4993 20.3C41.0993 21.7 40.4993 23.6 40.6993 25.6C40.8993 26.9 41.3993 28.1 41.8993 28.8C42.2993 29.5 42.8993 30.4 43.7993 31.1C43.1993 31.5 42.7993 32.1 42.6993 32.8L42.4993 34.5C41.2993 35.7 40.3993 37.1 39.6993 38.3C37.7993 41.5 35.9993 45.4 34.4993 48.9C34.1993 48.8 33.8993 48.7 33.4993 48.5L32.9993 48.3C30.2993 47.3 27.7993 45.9 25.0993 44.3C24.2993 43.8 23.4993 43.4 22.6993 42.9C22.0993 42.6 21.4993 42.3 20.7993 42C19.0993 41.5 17.1993 41.6 15.4993 42.5C14.0993 43.3 12.8993 44.5 12.0993 46C11.1993 47.7 10.6993 50.2 12.1993 52.2C12.2993 52.3 12.3993 52.4 12.3993 52.4C12.8993 53 13.4993 53.4 14.2993 53.6C14.6993 53.7 15.0993 53.7 15.3993 53.7C16.0993 53.7 16.7993 53.7 17.4993 53.7C17.4993 53.7 17.5993 53.7 17.6993 53.7L19.6993 55.4C22.4993 57.8 25.3993 60.3 28.3993 62.5C30.6993 64.2 33.1993 65.9 36.0993 66.9C37.4993 67.4 38.7993 67.6 40.1993 67.7C40.1993 67.9 40.1993 68 40.1993 68.2V68.5C39.3993 69.8 37.9993 72.3 37.2993 74.8C36.3993 78.2 36.3993 82.4 37.2993 86.2H37.1993C35.8993 86.8 34.8993 87.7 34.2993 88.9C33.5993 90.4 33.6993 92 33.8993 93C33.9993 93.8 34.1993 94.4 34.3993 95C35.1993 97 36.8993 98.6 39.1993 99.6C41.0993 100.4 43.0993 100.7 44.7993 100.9C46.4993 101.1 48.1993 101.3 50.1993 101.1C50.0993 102.1 50.3993 103.1 50.8993 103.8C51.2993 104.4 51.9993 104.8 52.7993 104.8H60.7993C61.8993 104.8 62.8993 104 62.9993 102.9C63.1993 101.5 63.0993 100.3 62.8993 99.5C62.6993 98.8 62.1993 98.1 61.5993 97.6C61.8993 97.4 62.1993 97.2 62.4993 96.9C62.7993 96.8 63.5993 96.6 63.8993 96.6C64.0993 96.6 65.0993 96.8 65.5993 96.9C65.9993 97.4 66.4993 98 67.1993 98.8C67.9993 99.7 69.1993 100.3 70.3993 100.3C71.7993 100.3 73.5993 100.3 74.9993 100.2C76.2993 100.2 77.3993 99.6 78.1993 98.6C78.9993 97.6 79.2993 96.3 79.0993 95.1V94.9C78.9993 94.4 78.7993 94 78.6993 93.6C78.2993 92.9 77.7993 92.2 77.0993 91.8C78.5993 88.1 79.9993 84 80.0993 79.9C79.8993 77.4 79.5993 74.7 78.7993 71.8ZM71.8993 92C71.5993 92.5 71.4993 92.9 71.5993 93.4C71.6993 94.6 72.7993 95.5 74.0993 95.4C74.1993 95.4 74.3993 95.5 74.3993 95.6C74.3993 95.6 74.3993 95.7 74.4993 95.8C73.1993 95.8 71.5993 95.9 70.2993 95.9C68.6993 94 68.1993 93.3 68.0993 93.2C67.5993 92.1 66.3993 91.6 65.2993 92C65.2993 91.8 65.1993 91.6 65.0993 91.3C64.5993 90.2 63.6993 89.4 62.4993 89.1H62.3993C62.9993 85.7 63.7993 82.4 64.5993 78.7C64.9993 76.7 65.2993 75.3 65.4993 73.9C65.6993 72.5 65.9993 71.2 66.3993 69.4L66.7993 67.7C67.7993 65.6 68.0993 63.3 68.2993 61.3V61.2C68.2993 60.6 68.3993 60.1 68.3993 59.6C68.3993 59.9 68.4993 60.1 68.4993 60.4C68.8993 63 69.9993 65.4 71.5993 67.3C72.7993 68.7 73.6993 70.6 74.3993 73.2C75.0993 75.7 75.3993 77.9 75.2993 79.9C75.2993 83.7 73.6993 87.8 71.8993 92ZM56.6993 98.6V98.7C56.6993 99.3 56.8993 99.8 57.2993 100.3H54.7993C54.7993 100.2 54.7993 100.2 54.8993 100.1C54.8993 100 54.9993 99.9 54.9993 99.9C54.9993 99.8 55.0993 99.6 55.0993 99.5C55.0993 99.4 55.1993 99.2 55.1993 99.1C56.6993 85.6 54.6993 65.7 54.6993 65.5C54.6993 63.8 54.0993 62.2 52.9993 60.9C52.7993 60.7 52.2993 60.1 51.4993 59.9C50.8993 59.8 50.2993 59.8 49.7993 60.2C49.2993 60.5 48.8993 61 48.7993 61.6C48.5993 62.5 48.8993 63.5 49.6993 64C49.9993 64.5 50.1993 65.1 50.2993 65.7C50.2993 65.8 50.2993 65.8 50.2993 65.9C50.2993 66 51.4993 77.9 51.2993 89.4C50.7993 89.5 50.1993 89.6 49.6993 89.6C48.3993 89.6 47.0993 89.5 45.8993 89.2C44.4993 88.8 43.1993 88 42.1993 87C42.1993 87 42.1993 87 42.1993 86.9C40.9993 83.6 40.7993 79.3 41.6993 76C42.2993 73.6 43.9993 70.9 44.3993 70.4C44.5993 70 44.7993 69.6 44.7993 69.2V69.1C44.7993 68.8 44.7993 68.5 44.7993 68.2C44.7993 67.7 44.7993 67.1 44.7993 66.6C46.4993 65.4 47.3993 63.9 47.7993 61.7C47.8993 61.1 47.7993 60.5 47.3993 60C46.9993 59.5 46.4993 59.2 45.8993 59.1C44.6993 58.9 43.4993 59.7 43.3993 61C43.1993 62 42.9993 62.6 41.7993 63.3C40.4993 63.4 39.0993 63.3 37.6993 62.8C35.3993 62 33.1993 60.6 31.1993 59.1C28.2993 56.9 25.3993 54.5 22.6993 52.1L21.5993 51.1C21.7993 50.8 21.8993 50.5 22.0993 50.2C22.3993 49.7 22.3993 49.1 22.1993 48.5C21.9993 47.9 21.5993 47.5 21.0993 47.2C19.9993 46.7 18.6993 47.1 18.0993 48.3C17.9993 48.6 17.6993 49.2 17.4993 49.3C16.9993 49.3 16.5993 49.3 16.0993 49.3C16.0993 49 16.1993 48.6 16.3993 48.1C16.7993 47.4 17.3993 46.8 17.9993 46.4C18.5993 46.1 19.2993 46 19.7993 46.2C20.0993 46.3 20.3993 46.5 20.7993 46.7C21.5993 47.1 22.2993 47.6 23.0993 48.1C25.7993 49.7 28.5993 51.4 31.7993 52.5L32.2993 52.7C33.5993 53.2 34.5993 53.5 35.5993 53.7C36.4993 53.9 37.4993 53.4 37.8993 52.7C37.9993 52.5 38.1993 52.3 38.2993 52.1C39.9993 48 41.8993 43.8 43.8993 40.6C44.5993 39.5 45.2993 38.4 46.1993 37.5C46.3993 37.3 46.7993 36.9 47.0993 36.3C47.2993 35.8 47.2993 35.4 47.3993 35.2L47.5993 33.2C47.5993 33.1 47.5993 32.9 47.5993 32.8C48.0993 33 48.4993 33.1 48.9993 33.2C50.1993 33.6 51.3993 32.9 51.7993 31.7V31.6C52.1993 32.2 52.4993 32.9 52.4993 33.6C52.4993 34.8 53.4993 35.8 54.7993 35.8C55.3993 35.8 55.8993 35.5 56.3993 35.1C56.7993 34.7 56.9993 34.1 56.9993 33.5C56.9993 32.7 56.7993 31.8 56.4993 31C56.5993 31.1 56.5993 31.2 56.6993 31.2C57.2993 32.2 58.7993 32.5 59.7993 31.9C60.7993 31.2 61.0993 29.8 60.4993 28.8C59.0993 26.6 56.9993 24.9 54.4993 24C53.8993 23.8 53.2993 23.8 52.7993 24.1C52.2993 24.3 51.7993 24.8 51.5993 25.3C51.3993 25.9 51.3993 26.5 51.6993 27C51.6993 27.1 51.7993 27.2 51.7993 27.3C51.4993 27.4 51.1993 27.6 50.9993 27.9C50.6993 28.2 50.5993 28.6 50.4993 29C50.3993 29 50.3993 29 50.2993 28.9C48.7993 28.4 47.9993 28.1 46.9993 27.5C46.6993 27.3 46.2993 26.7 46.1993 26.5C45.7993 25.9 45.5993 25.4 45.5993 25C45.4993 24.4 45.7993 23.7 46.1993 23.3C46.2993 23.2 46.3993 23.1 46.4993 23C46.7993 22.7 46.9993 22.4 47.0993 22C47.6993 20.1 49.3993 18.5 51.3993 18.2C52.3993 18.1 53.1993 17.3 53.2993 16.3C53.3993 15.2 53.5993 14 53.8993 12.9C53.8993 13 53.9993 13 53.9993 13.1C54.4993 14.1 54.6993 15.5 54.8993 16.8C54.9993 17.7 55.7993 18.5 56.6993 18.7C58.1993 19 59.6993 19.7 60.6993 20.8C61.4993 21.6 62.8993 21.7 63.7993 20.9C64.9993 19.9 66.4993 19.2 68.0993 19.2C68.0993 21.2 67.0993 23.1 65.5993 24.3C65.0993 24.7 64.6993 25.4 64.7993 26.1C64.8993 28.5 64.1993 31.1 62.8993 33.2C62.6993 33.6 62.2993 34.1 62.1993 34.9C61.9993 36 62.3993 36.8 62.5993 37.4C63.6993 40.2 64.2993 43.2 64.5993 46.2C64.7993 48.5 65.4993 50.7 66.5993 52.7C65.9993 52.7 65.4993 53 65.0993 53.4C64.6993 53.8 64.4993 54.4 64.4993 55C64.5993 57.3 64.4993 58.3 64.2993 60.6V60.7C64.1993 62.3 63.9993 64.2 63.1993 65.6C63.0993 65.7 63.0993 65.9 62.9993 66L62.4993 68C62.0993 69.9 61.7993 71.4 61.5993 72.8C61.3993 74.2 61.0993 75.5 60.6993 77.4C59.1993 84.1 57.5993 91.1 57.0993 98.2C56.6993 98.5 56.6993 98.5 56.6993 98.6ZM38.2993 90.8C38.3993 90.6 38.5993 90.4 38.8993 90.3C38.9993 90.3 39.0993 90.3 39.1993 90.3C40.6993 91.8 42.5993 92.9 44.6993 93.4C46.2993 93.8 47.8993 93.9 49.4993 93.9H49.6993C49.8993 93.9 50.3993 93.9 51.0993 93.8C51.0993 94.7 50.9993 95.6 50.8993 96.4C49.0993 96.8 46.9993 96.6 45.1993 96.4C43.6993 96.2 42.1993 96 40.8993 95.4C39.6993 94.9 38.7993 94.1 38.4993 93.2C38.3993 92.9 38.2993 92.6 38.1993 92.1C38.0993 91.3 38.1993 90.9 38.2993 90.8Z" fill="white"/>
</svg>
