<svg width="96" height="91" viewBox="0 0 96 91" fill="none" xmlns="http://www.w3.org/2000/svg">
<path d="M30.6995 5.4C28.8995 5.4 27.2995 5.4 25.6995 5.4C24.9995 5.4 24.2995 5.30002 23.5995 5.20002C22.9995 5.10002 22.4995 4.90002 22.3995 4.10002C22.2995 3.40002 22.4995 2.7 23.2995 2.4C23.5995 2.3 23.9995 2.10002 24.2995 2.10002C27.4995 2.10002 30.7995 2.00002 33.9995 2.10002C34.8995 2.10002 35.8995 2.20002 36.1995 3.20002C36.5995 4.20002 36.0995 5.1 35.3995 5.8C33.0995 8.3 30.8995 10.8 28.5995 13.3C28.2995 13.6 27.9995 14 27.6995 14.4C27.9995 14.7 28.2995 14.6 28.5995 14.6C30.4995 14.6 32.3995 14.6 34.3995 14.6C34.8995 14.6 35.3995 14.6 35.8995 14.8C36.6995 15 37.1995 15.5 37.1995 16.3C37.1995 17.2 36.6995 17.7 35.8995 17.9C35.5995 18 35.1995 18 34.7995 18C31.2995 18 27.7995 18 24.2995 18C23.9995 18 23.6995 18 23.3995 17.9C21.5995 17.6 20.9995 16 22.1995 14.6C24.2995 12.2 26.3995 9.90002 28.4995 7.60002C29.3995 7.10002 29.9995 6.4 30.6995 5.4Z" fill="white"/>
<path d="M29.4994 18.4C27.7994 18.4 26.0994 18.4 24.3994 18.4C24.0994 18.4 23.7994 18.4 23.4994 18.3C22.4994 18.1 21.7994 17.6 21.5994 16.9C21.3994 16.2 21.5994 15.4 22.1994 14.7C23.5994 13.1 24.9994 11.5 26.3994 10C27.0994 9.2 27.7994 8.40001 28.4994 7.70002L28.6994 7.4C29.1994 6.9 29.6994 6.30001 30.1994 5.60001H29.0994C27.8994 5.60001 26.7994 5.60001 25.5994 5.60001C24.9994 5.60001 24.2994 5.5 23.4994 5.4C22.5994 5.3 22.1994 4.90001 22.0994 4.10001C21.9994 3.20001 22.2994 2.50002 23.0994 2.20002C23.3994 2.10002 23.7994 1.9 24.1994 1.9H25.4994C28.2994 1.9 31.1994 1.8 33.9994 2C34.8994 2 35.9994 2.09999 36.3994 3.29999C36.7994 4.49999 36.1994 5.40002 35.4994 6.20002C33.1994 8.70002 30.9994 11.2 28.7994 13.7C28.5994 13.9 28.3994 14.2 28.1994 14.4L28.0994 14.5C28.1994 14.5 28.2994 14.5 28.4994 14.5C28.5994 14.5 28.5994 14.5 28.6994 14.5C29.4994 14.5 30.3994 14.5 31.1994 14.5C32.2994 14.5 33.3994 14.5 34.4994 14.5C35.0994 14.5 35.5994 14.6 35.9994 14.7C36.8994 14.9 37.4994 15.5 37.4994 16.5C37.4994 17.4 36.9994 18.1 36.0994 18.3C35.7994 18.4 35.4994 18.4 34.9994 18.4C33.0994 18.4 31.2994 18.4 29.4994 18.4ZM30.6994 5.20002C30.7994 5.20002 30.8994 5.19999 30.8994 5.29999C30.8994 5.39999 30.8994 5.5 30.8994 5.5C30.2994 6.4 29.6994 7.10002 29.0994 7.70002L28.8994 8C28.1994 8.8 27.4994 9.59999 26.7994 10.3C25.3994 11.8 23.9994 13.4 22.5994 15C22.0994 15.6 21.8994 16.2 22.0994 16.8C22.2994 17.4 22.8994 17.8 23.6994 17.9C23.9994 18 24.2994 18 24.4994 18C27.9994 18 31.4994 18 34.9994 18C35.3994 18 35.6994 18 35.9994 17.9C36.7994 17.7 37.0994 17.2 37.0994 16.5C37.0994 15.8 36.6994 15.3 35.9994 15.2C35.5994 15.1 35.0994 15.1 34.5994 15.1C33.4994 15.1 32.3994 15.1 31.2994 15.1C30.4994 15.1 29.5994 15.1 28.7994 15.1C28.6994 15.1 28.6994 15.1 28.5994 15.1C28.3994 15.1 27.9994 15.1 27.6994 14.9L27.5994 14.8C27.5994 14.7 27.5994 14.7 27.6994 14.6L27.9994 14.3C28.1994 14.1 28.3994 13.8 28.5994 13.6C30.7994 11.1 33.0994 8.60001 35.3994 6.10001C35.9994 5.40001 36.4994 4.70002 36.1994 3.70002C35.8994 2.80002 34.9994 2.80002 34.1994 2.70002C31.3994 2.60002 28.4994 2.60001 25.6994 2.60001H24.3994C24.0994 2.60001 23.6994 2.7 23.4994 2.9C22.8994 3.2 22.6994 3.6 22.7994 4.4C22.8994 4.9 23.1994 5.19999 23.7994 5.29999C24.5994 5.39999 25.2994 5.4 25.8994 5.5C26.9994 5.5 28.0994 5.5 29.3994 5.5L30.6994 5.20002Z" fill="white"/>
<path d="M64.099 13.8C66.699 13.8 69.099 13.8 71.399 13.8C71.799 13.8 72.199 13.8 72.599 13.9C73.399 14.1 73.799 14.7 73.799 15.6C73.799 16.5 73.199 17 72.399 17.1C68.299 17.2 64.099 17.3 59.999 17.1C58.299 17 57.799 15.2 58.899 13.8C60.699 11.7 62.499 9.70002 64.299 7.70002C65.099 6.80002 65.899 5.90001 66.599 5.00001C66.699 4.80001 66.899 4.70001 66.899 4.50001C66.799 4.20001 66.499 4.29999 66.299 4.29999C64.299 4.19999 62.299 4.40002 60.399 4.20002C59.199 4.10002 58.899 3.7 58.799 2.9C58.799 2 59.299 1.40002 60.399 1.20002C61.099 1.00002 61.899 1.10001 62.599 1.10001C65.399 1.20001 68.199 0.900018 70.899 1.20002C72.999 1.40002 73.5991 2.90001 72.1991 4.50001C69.8991 7.10001 67.599 9.69999 65.299 12.3C65.099 12.8 64.699 13.2 64.099 13.8Z" fill="white"/>
<path d="M65.7995 17.4C63.8995 17.4 61.9996 17.4 60.0996 17.3C59.2996 17.3 58.5995 16.8 58.3995 16.2C58.0995 15.4 58.2995 14.5 58.8995 13.7C60.0995 12.4 61.2995 11 62.3995 9.70002C62.9995 9.00002 63.6995 8.30001 64.2995 7.60001C64.9995 6.80001 65.6995 6.00002 66.3995 5.20002L66.5996 4.9L66.6996 4.79999C66.7996 4.69999 66.8995 4.60001 66.7995 4.60001C66.7995 4.60001 66.7996 4.50001 66.5996 4.60001C66.4996 4.60001 66.4995 4.60001 66.3995 4.60001C65.6995 4.60001 64.8996 4.60001 64.1996 4.60001C62.9996 4.60001 61.6995 4.6 60.3995 4.5C59.2995 4.4 58.6996 4.1 58.5996 3C58.5996 2 59.1995 1.30001 60.2995 1.10001C60.9995 1.00001 61.5996 1 62.1996 1H62.4996C63.4996 1 64.3995 1 65.3995 1C67.1995 1 68.9995 0.900009 70.8995 1.10001C71.9995 1.20001 72.7996 1.7 73.0996 2.4C73.3996 3.1 73.0995 3.99999 72.3995 4.79999C70.8995 6.59999 69.1996 8.40001 67.6996 10.1C66.9996 10.9 66.2996 11.7 65.4996 12.5C65.1996 12.8 64.9996 13.1 64.6996 13.4L64.4996 13.6H65.9996C67.7996 13.6 69.5995 13.6 71.2995 13.6C71.6995 13.6 72.1996 13.6 72.5996 13.7C73.4996 14 73.9995 14.7 73.8995 15.6C73.8995 16.6 73.1995 17.2 72.2995 17.3C70.2995 17.3 67.9995 17.4 65.7995 17.4ZM66.6996 4.10001C66.8996 4.10001 67.0996 4.1 67.1996 4.4C67.2996 4.7 67.0996 4.90001 66.9996 5.10001L66.6996 5.4C65.9996 6.2 65.2996 6.99999 64.5996 7.79999C63.9996 8.49999 63.2996 9.2 62.6996 9.9C61.4996 11.2 60.2996 12.5 59.1996 13.9C58.6996 14.5 58.4995 15.3 58.7995 15.9C58.9995 16.4 59.4996 16.7 60.1996 16.8C64.2996 17 68.3996 16.9 72.5996 16.8C73.2996 16.8 73.7995 16.3 73.7995 15.6C73.7995 14.9 73.4995 14.4 72.7995 14.2C72.3995 14.1 71.9996 14.1 71.5996 14.1C69.8996 14.1 68.0995 14.1 66.2995 14.1H64.2995C64.1995 14.1 64.0996 14.1 64.0996 14C64.0996 13.9 64.0996 13.8 64.0996 13.8L64.5996 13.2C64.8996 12.9 65.0995 12.6 65.3995 12.3C66.0995 11.5 66.7996 10.7 67.5996 9.9C69.1996 8.2 70.7995 6.40001 72.2995 4.60001C72.8995 3.90001 73.0995 3.20001 72.8995 2.60001C72.6995 2.00001 71.9996 1.70001 71.0996 1.60001C69.2996 1.40001 67.4996 1.4 65.6996 1.5C64.7996 1.5 63.7995 1.5 62.7995 1.5H62.4996C61.8996 1.5 61.2996 1.50001 60.6996 1.60001C59.6996 1.80001 59.2995 2.30001 59.2995 3.10001C59.2995 3.70001 59.4996 4.00002 60.6996 4.20002C61.8996 4.40002 63.1995 4.29999 64.3995 4.29999C65.0995 4.29999 65.8996 4.29999 66.5996 4.29999H66.6996C66.5996 4.09999 66.6996 4.10001 66.6996 4.10001Z" fill="white"/>
<path d="M46.1997 24.5C47.8997 24.5 49.3997 24.5 50.8997 24.5C51.3997 24.5 51.8997 24.5 52.3997 24.6C53.3997 24.7 53.8997 25.2 53.8997 26C53.8997 26.8 53.2997 27.2 52.2997 27.2C51.0997 27.2 49.7997 27.2 48.5997 27.2C46.9997 27.2 45.3997 27.2 43.7997 27.2C42.9997 27.2 42.1997 27.2 41.7997 26.3C41.3997 25.4 41.8997 24.8 42.3997 24.2C44.1997 22.1 45.9997 20.1 47.7997 18C47.9997 17.7 48.4997 17.4 48.3997 17.1C48.2997 16.7 47.6997 16.9 47.2997 16.9C45.9997 16.9 44.6997 16.9 43.3997 16.9C42.3997 16.9 41.8997 16.5 41.8997 15.8C41.8997 15.1 42.2997 14.5 43.2997 14.4C44.6997 14.3 46.0997 14.3 47.4997 14.3C48.7997 14.3 50.1997 14.3 51.4997 14.4C52.1997 14.4 52.9997 14.6 53.1997 15.4C53.3997 16.2 53.0997 16.8 52.5997 17.3C51.0997 19 49.4997 20.7 47.9997 22.5C47.3997 23.1 46.8997 23.7 46.1997 24.5Z" fill="white"/>
<path d="M50.5993 27.5C50.2993 27.5 49.8993 27.5 49.5993 27.5H46.7993C45.7993 27.5 44.7993 27.5 43.7993 27.5H43.6994C42.9994 27.5 41.9993 27.5 41.5993 26.5C41.0993 25.5 41.6993 24.8 42.2993 24.1C43.9993 22.2 45.6994 20.2 47.6994 17.9C47.7994 17.8 47.7993 17.7 47.8993 17.7C48.0993 17.5 48.2994 17.3 48.1994 17.2C48.1994 17.1 47.9994 17.1 47.6994 17.1C47.5994 17.1 47.4993 17.1 47.3993 17.1C46.7993 17.1 46.0993 17.1 45.4993 17.1C44.7993 17.1 44.1993 17.1 43.4993 17.1C42.7993 17.1 41.7993 16.9 41.7993 15.8C41.7993 14.9 42.3993 14.3 43.3993 14.2C44.5993 14.1 45.6993 14.1 46.8993 14.1H47.5993H47.8993C49.0993 14.1 50.2993 14.1 51.5993 14.2C52.0993 14.2 53.1993 14.3 53.4993 15.4C53.7993 16.3 53.2993 17 52.7993 17.5C51.8993 18.5 50.9993 19.5 50.0993 20.5L48.1994 22.6C47.7994 23 47.4993 23.4 47.0993 23.9L46.7993 24.2H47.7993C48.8993 24.2 49.9993 24.2 50.9993 24.2C51.4993 24.2 51.9993 24.2 52.4993 24.3C53.8993 24.5 54.1994 25.3 54.1994 25.9C54.1994 26.8 53.4993 27.3 52.3993 27.3C51.6993 27.5 51.0993 27.5 50.5993 27.5ZM45.3993 27C45.7993 27 46.2994 27 46.6994 27H49.4993C50.3993 27 51.2994 27 52.1994 27C53.0994 27 53.5993 26.6 53.5993 26C53.5993 25.8 53.5993 25 52.2993 24.8C51.7993 24.7 51.2993 24.7 50.7993 24.7C49.7993 24.7 48.6993 24.7 47.5993 24.7H46.0993C45.9993 24.7 45.8993 24.6 45.8993 24.6C45.8993 24.5 45.8993 24.4 45.8993 24.4L46.4993 23.7C46.8993 23.2 47.2993 22.8 47.5993 22.4L49.4993 20.3C50.3993 19.3 51.2994 18.3 52.1994 17.3C52.5994 16.8 52.9993 16.3 52.7993 15.6C52.5993 15 51.9993 14.8 51.2993 14.7C50.0993 14.6 48.8994 14.6 47.6994 14.6H47.3993H46.6994C45.5994 14.6 44.3994 14.6 43.1994 14.7C42.4994 14.8 41.9993 15.2 42.0993 15.8C42.0993 16.3 42.2993 16.7 43.3993 16.7C44.0993 16.7 44.6993 16.7 45.3993 16.7C45.9993 16.7 46.6993 16.7 47.2993 16.7C47.3993 16.7 47.4993 16.7 47.5993 16.7C47.8993 16.7 48.3993 16.6 48.5993 17C48.7993 17.4 48.3994 17.7 48.1994 17.9C48.0994 18 48.0993 18 47.9993 18.1C45.9993 20.4 44.1993 22.4 42.5993 24.3C41.9993 25 41.6993 25.5 41.9993 26.2C42.2993 26.9 42.8994 26.9 43.6994 26.9C44.2994 27 44.8993 27 45.3993 27Z" fill="white"/>
<path d="M0.699615 41.4C1.29962 38.9 2.59959 36.9 4.79959 35.6C6.09959 34.8 7.59961 34.3 9.09961 34.3C11.8996 34.3 14.7996 34.3 17.5996 34.3C22.0996 34.4 25.7996 37.9 26.0996 42.4C26.0996 42.7 26.1996 43 26.1996 43.3C26.2996 44.9 26.2996 44.9 27.8996 44.4C34.0996 42.3 40.2996 42.2 46.3996 44.6C46.8996 44.8 47.2996 44.7 47.6996 44.5C54.5996 41.5 61.6996 41.3 68.7996 43.8C69.8996 44.2 69.8996 44.2 69.9996 43.1C70.0996 39.7 71.5996 37.1 74.4996 35.3C75.7996 34.6 77.0996 34.2 78.5996 34.2C81.3996 34.2 84.2996 34.2 87.0996 34.2C91.6996 34.3 95.5996 38.1 95.5996 42.8C95.5996 55.9 95.5996 69 95.5996 82.1C95.5996 86.7 91.7996 90.7 87.0996 90.7C76.9996 90.7 66.7996 90.7 56.6996 90.7C55.2996 90.7 54.4996 90 54.4996 88.9C54.3996 87.7 55.1996 86.9 56.5996 86.8C56.8996 86.8 57.2996 86.8 57.5996 86.8C67.1996 86.8 76.7996 86.7 86.2996 86.8C89.3996 86.8 91.6996 84.9 91.6996 81.4C91.6996 68.8 91.6996 56.2 91.6996 43.6C91.6996 42.6 91.5996 41.7 91.0996 40.8C90.1996 39.2 88.8996 38.3 87.0996 38.2C84.3996 38.2 81.5996 38.2 78.8996 38.2C75.9996 38.2 73.8996 40.2 73.8996 43.1C73.8996 46.6 73.8996 50 73.8996 53.5C73.8996 58.7 70.0996 62.5 64.8996 62.5C53.6996 62.5 42.3996 62.5 31.1996 62.5C25.9996 62.5 22.1996 58.7 22.1996 53.5C22.1996 50.1 22.1996 46.8 22.1996 43.4C22.2996 40.2 19.8996 38 16.8996 38.1C14.4996 38.2 12.0996 38.2 9.69962 38.1C6.69962 37.9 4.29959 40 4.29959 43.5C4.29959 46.5 4.29959 49.6 4.29959 52.6C4.29959 62.1 4.29959 71.5 4.29959 81C4.29959 81.8 4.39961 82.6 4.59961 83.4C5.19961 85.5 6.9996 86.8 9.3996 86.8C19.1996 86.8 28.8996 86.8 38.6996 86.8C39.1996 86.8 39.6996 86.8 40.1996 86.9C41.1996 87.2 41.6996 87.9 41.6996 88.9C41.6996 89.9 40.9996 90.6 39.9996 90.7C39.5996 90.8 39.2996 90.7 38.8996 90.7C29.4996 90.7 20.0996 90.6 10.5996 90.8C5.09961 90.9 1.59961 87.8 0.599609 83.7C0.699609 69.6 0.699615 55.5 0.699615 41.4ZM51.5996 47.4C51.7996 47.6 51.8996 47.8 51.9996 47.9C52.5996 48.8 52.5996 49.7 51.9996 50.4C51.3996 51.1 50.3996 51.2 49.5996 50.8C49.2996 50.6 48.9996 50.4 48.6996 50.3C41.5996 45.9 34.3996 46 26.8996 49.1C26.3996 49.3 26.1996 49.6 26.1996 50.2C26.1996 51.6 26.1996 52.9 26.1996 54.3C26.2996 56.7 28.2996 58.7 30.6996 58.7C42.1996 58.7 53.7996 58.7 65.2996 58.7C67.7996 58.7 69.7996 56.7 69.7996 54.2C69.8996 52.8 69.7996 51.4 69.7996 49.9C69.8996 49 69.4996 48.6 68.6996 48.2C65.7996 46.9 62.7996 46.2 59.5996 46.1C57.0996 46 54.3996 46.5 51.5996 47.4Z" fill="white"/>
<path d="M8 71.7C8 69.3 8 66.9 8 64.6C8 63.2 8.69999 62.4 9.79999 62.4C11 62.3 11.8 63 11.9 64.5C12 66.4 12 68.3 12 70.1C12 72.7 12 75.3 12 78C12 78.4 12 78.9 11.9 79.3C11.7 80.6 11 81.3 9.89999 81.2C8.79999 81.1 8.10001 80.3 8.10001 79.1C8.00001 76.6 8 74.1 8 71.7Z" fill="white"/>
<path d="M88.1998 71.8C88.1998 74.2 88.1998 76.6 88.1998 78.9C88.1998 80.2 87.4998 81.1 86.3998 81.1C85.2998 81.2 84.3998 80.4 84.3998 79.1C84.2998 77.6 84.2998 76 84.2998 74.5C84.2998 71.5 84.2998 68.5 84.2998 65.5C84.2998 65 84.2998 64.4 84.3998 63.9C84.5998 62.8 85.3998 62.2 86.3998 62.3C87.3998 62.4 88.1998 63.1 88.1998 64.2C88.1998 66.7 88.1998 69.2 88.1998 71.8Z" fill="white"/>
<path d="M46.1992 88.9C46.1992 87.8 47.0992 86.9 48.0992 86.9C49.0992 86.9 49.9992 87.8 49.9992 88.9C49.9992 89.9 49.1992 90.8 48.0992 90.8C47.0992 90.8 46.1992 89.9 46.1992 88.9Z" fill="white"/>
<path d="M60.7999 71.3C61.4999 72 61.9999 72.5 62.4999 73C63.0999 73.6 63.1999 74.5 62.5999 75.1C61.1999 76.5 59.9999 78 58.3999 79.1C53.8999 82.3 47.5999 82.1 43.1999 78.7C42.8999 78.4 42.4999 78.4 42.0999 78.5C40.3999 79.1 38.6999 79.7 36.9999 80.2C36.0999 80.5 35.3999 80.3 34.9999 79.6C34.5999 79 34.5999 78.4 34.8999 77.8C35.3999 76.7 35.9999 75.6 36.4999 74.6C36.6999 74.3 36.6999 74 36.4999 73.7C35.9999 72.7 35.4999 71.6 34.8999 70.6C34.4999 69.9 34.4999 69.2 34.9999 68.5C35.5999 67.8 36.2999 67.8 37.0999 68.1C38.7999 68.7 40.4999 69.2 42.1999 69.8C42.5999 69.9 42.8999 69.9 43.1999 69.6C47.6999 66.2 53.3999 66 58.1999 69C59.1999 69.7 60.0999 70.6 60.7999 71.3ZM39.5999 72.5C39.6999 73.1 40.1999 73.6 40.1999 74.2C40.1999 74.8 39.7999 75.2 39.5999 75.9C40.5999 75.6 41.4999 75.3 42.3999 75C42.9999 74.8 43.5999 74.8 44.0999 75.2C44.2999 75.4 44.5999 75.6 44.7999 75.8C47.1999 77.8 49.9999 78.5 53.0999 77.9C53.4999 77.8 53.4999 77.7 53.2999 77.3C52.1999 75.3 52.1999 73.2 53.1999 71.2C53.4999 70.6 53.4999 70.6 52.8999 70.5C49.5999 69.9 46.6999 70.8 44.2999 73C43.6999 73.6 43.0999 73.7 42.2999 73.4C41.4999 73.1 40.5999 72.8 39.5999 72.5ZM58.0999 75C58.2999 74.8 58.3999 74.6 58.5999 74.5C58.8999 74.2 58.8999 74 58.5999 73.7C58.0999 73.2 57.5999 72.8 57.0999 72.3C56.7999 72.1 56.5999 72.1 56.3999 72.4C55.7999 73.3 55.7999 75 56.3999 75.8C56.5999 76.1 56.7999 76.1 57.0999 75.9C57.3999 75.6 57.7999 75.3 58.0999 75Z" fill="white"/>
</svg>
