<svg width="95" height="82" viewBox="0 0 95 82" fill="none" xmlns="http://www.w3.org/2000/svg">
<path d="M60 17.9C60.1 8.39999 67.7 0.700012 77.2 0.700012C86.8 0.700012 94.4 8.39999 94.4 17.9C94.4 27.5 86.7 35.1 77.2 35.1C67.6 35.1 60.1 27.4 60 17.9ZM90.9 17.9C90.9 10.3 84.8 4.20001 77.2 4.20001C69.7 4.20001 63.5 10.3 63.5 17.8C63.5 25.3 69.7 31.5 77.2 31.5C84.8 31.5 90.9 25.5 90.9 17.9Z" fill="white"/>
<path d="M79 14.5C79 16.1 79 17.7 79 19.4C79 19.8 78.9 20.1 78.8 20.5C78.5 21.1 77.7 21.5 77.1 21.4C76.4 21.3 75.7 20.8 75.6 20C75.6 19.8 75.5 19.6 75.5 19.4C75.5 16.1 75.5 12.8 75.5 9.60001C75.5 8.40001 76.2 7.60001 77.3 7.60001C78.3 7.60001 79.1 8.4 79.1 9.5C79 11.1 79 12.8 79 14.5Z" fill="white"/>
<path d="M79.0004 24.7C79.0004 25.7 78.2004 26.5 77.2004 26.5C76.2004 26.5 75.4004 25.7 75.4004 24.7C75.4004 23.7 76.2004 23 77.2004 23C78.2004 23 79.0004 23.8 79.0004 24.7Z" fill="white"/>
<path d="M70.7002 45.3C70.6002 44.9 70.6002 44.6 70.5002 44.2C70.3002 43 70.1002 41.7 69.6002 40.5C68.0002 37 65.6002 35.3 62.3002 35.2C62.0002 35.2 61.9002 35.1 61.7002 34.8C60.1002 32.5 57.9002 31.1 55.3002 30.4C55.0002 30.3 54.8002 30.2 54.6002 29.9C52.1002 26.3 48.1002 24.7 43.8002 25.6C43.4002 25.7 43.2002 25.6 42.9002 25.4C39.6002 22.9 35.6002 22.9 32.2002 25.4C31.9002 25.6 31.7002 25.6 31.4002 25.6C27.0002 24.7 23.3002 26.2 20.6002 29.9C20.4002 30.2 20.2002 30.3 19.9002 30.4C17.2002 31 15.1002 32.5 13.5002 34.8C13.3002 35.1 13.1002 35.2 12.7002 35.2C11.7002 35.2 10.7002 35.4 9.7002 35.9C7.2002 37.2 5.6002 39.3 5.1002 42.1C4.4002 45.7 3.7002 49.5 3.1002 53C2.8002 54.7 2.5002 56.5 2.2002 58.2C1.9002 60.1 1.5002 62 1.2002 63.9L0.700195 66.6V69.2C1.3002 71.8 2.9002 73.7 5.5002 74.8C11.5002 77.4 17.7002 79.1 24.7002 80.1C29.2002 80.7 33.5002 81.1 37.7002 81.1C38.9002 81.1 40.2002 81.1 41.4002 81C47.0002 80.7 52.2002 80.1 57.2002 78.9C61.9002 77.8 66.2002 76.4 70.1002 74.6C73.4002 73.1 75.1002 70 74.4002 66.5C73.1002 58.7 71.9002 52 70.7002 45.3ZM31.2002 53.6C32.2002 53.6 32.8002 52.9 32.9002 52C32.9002 51 32.3002 50.3 31.3002 50.2C30.5002 50.1 29.7002 50 28.9002 50C27.8002 49.9 26.6002 49.8 25.5002 49.6C21.6002 49.1 17.0002 48.4 12.6002 46.6C11.4002 46.1 10.4002 45.6 9.5002 44.9C8.4002 44.1 8.3002 43.6 8.7002 42.3C8.9002 41.6 9.30019 40.9 9.90019 40.2C10.9002 39 12.1002 38.6 13.7002 38.8C14.7002 39 15.3002 38.7 15.8002 37.7C17.1002 35.4 18.9002 34 21.4002 33.7C22.2002 33.6 22.7002 33.2 23.1002 32.5C24.8002 29.5 27.9002 28.2 31.2002 29.3C32.2002 29.6 33.0002 29.5 33.8002 28.7C35.9002 26.7 38.9002 26.6 41.0002 28.6C41.9002 29.5 42.8002 29.6 44.1002 29.3C47.1002 28.4 50.3002 29.7 51.9002 32.5C52.3002 33.3 52.9002 33.7 53.8002 33.9C56.2002 34.3 58.0002 35.5 59.2002 37.7C59.9002 38.9 60.3002 39.1 61.6002 39C62.8002 38.9 64.0002 39.3 65.0002 40.2C66.0002 41.1 66.6002 42.3 66.6002 43.6C66.6002 44.2 66.2002 44.6 65.6002 45.1C64.3002 46.1 62.8002 46.8 61.6002 47.2C57.9002 48.6 54.0002 49.2 50.8002 49.7C49.0002 50 47.1002 50.1 45.3002 50.3L43.8002 50.4C42.7002 50.5 42.1002 51.2 42.1002 52.3C42.1002 52.8 42.3002 53.2 42.6002 53.5C42.9002 53.8 43.4002 53.9 43.9002 53.9C51.8002 53.4 57.7002 52.4 63.0002 50.4C64.6002 49.8 65.9002 49.1 67.1002 48.3C67.2002 48.2 67.2002 48.2 67.3002 48.2C67.3002 48.2 67.3002 48.3 67.3002 48.4C67.7002 50.5 68.0002 52.6 68.4002 54.7C68.6002 56 68.9002 57.3 69.1002 58.6C69.4002 60.6 69.8002 62.6 70.1002 64.5L70.7002 67.7C71.0002 69.7 69.8002 71.1 68.5002 71.7C65.6002 73 62.5002 74.1 59.4002 75C53.9002 76.5 48.0002 77.5 42.0002 77.8C41.1002 77.8 40.2002 77.9 39.3002 77.9C38.6002 77.9 37.9002 77.9 37.1002 77.9C26.6002 77.8 16.8002 76.1 8.2002 72.6C7.4002 72.3 6.6002 71.9 6.0002 71.6C4.5002 70.9 3.7002 69.4 4.0002 67.8C4.6002 64.1 5.3002 60.4 6.0002 56.6L7.0002 51C7.2002 50.1 7.3002 49.2 7.5002 48.3C7.5002 48.2 7.5002 48.1 7.5002 48.1C7.5002 48.1 7.6002 48.1 7.7002 48.2C10.8002 50.3 14.3002 51.2 17.3002 51.9C21.4002 52.9 25.7002 53.4 30.4002 53.7C30.8002 53.6 31.0002 53.7 31.2002 53.6Z" fill="white"/>
<path d="M10.5 53.6C9.5 53.5 8.8 54.2 8.6 55.3C8.1 58.2 7.6 61 7.1 63.9C7 64.5 7.09999 65.1 7.39999 65.5C7.69999 65.9 8 66.1 8.5 66.2C8.6 66.2 8.7 66.2 8.8 66.2C9.7 66.2 10.4 65.6 10.6 64.5C10.9 63 11.2 61.4 11.4 59.9C11.6 59 11.7 58 11.9 57.1L12.1 55.7C12.1 54.4 11.4 53.6 10.5 53.6Z" fill="white"/>
<path d="M63.5998 58.6C63.7998 59.5 63.8998 60.5 64.0998 61.4L64.1998 62.2C64.2998 63 64.4998 63.9 64.6998 64.7C64.8998 65.5 65.5998 66.1 66.3998 66.1C66.4998 66.1 66.5998 66.1 66.5998 66.1C67.4998 66 68.0998 65.2 68.0998 64.3V64.2V64.1L67.8998 63.1C67.3998 60.4 66.9998 57.8 66.4998 55.1C66.3998 54.5 66.0998 54 65.5998 53.8C64.9998 53.5 64.2998 53.5 63.7998 53.9C63.1998 54.3 62.8998 55 63.0998 55.8C63.2998 56.7 63.4998 57.7 63.5998 58.6Z" fill="white"/>
<path d="M25.3004 37.9C22.3004 38.4 20.2004 40.1 19.1004 42.9C18.7004 43.8 19.1004 44.8 20.0004 45.2C20.2004 45.3 20.5004 45.3 20.7004 45.3C21.4004 45.3 22.0004 44.9 22.3004 44.3C23.1004 42.6 24.3004 41.6 26.0004 41.3C26.9004 41.1 27.4004 40.4 27.4004 39.5C27.4004 39 27.2004 38.5 26.8004 38.2C26.3004 37.9 25.8004 37.8 25.3004 37.9Z" fill="white"/>
<path d="M49.1999 41.2C50.9999 41.6 52.2999 42.6 53.0999 44.4C53.3999 45 53.9999 45.3 54.5999 45.3C54.7999 45.3 54.9999 45.3 55.2999 45.2C56.0999 44.9 56.5999 44 56.2999 43.1C55.6999 40.6 52.2999 37.9 49.7999 37.8C48.8999 37.8 48.1999 38.4 47.9999 39.2C47.6999 40.2 48.2999 41.1 49.1999 41.2Z" fill="white"/>
<path d="M34.5002 35.7C34.9002 35.7 35.3002 35.6 35.7002 35.3C37.0002 34.4 38.1002 34.4 39.4002 35.3C40.3002 35.9 41.3002 35.8 41.9002 35.1C42.5002 34.3 42.4002 33.3 41.6002 32.5C40.5002 31.5 39.1002 31.1 37.6002 31.1C36.0002 31.1 34.7002 31.5 33.5002 32.6C32.7002 33.3 32.6002 34.4 33.2002 35.1C33.6002 35.5 34.0002 35.7 34.5002 35.7Z" fill="white"/>
<path d="M35.9004 52.2C35.9004 52.7 36.1004 53.1 36.4004 53.5C36.7004 53.8 37.1004 54 37.6004 54C38.6004 54 39.3004 53.2 39.3004 52.2C39.3004 51.7 39.1004 51.3 38.8004 50.9C38.5004 50.6 38.1004 50.4 37.6004 50.4C36.6004 50.4 35.9004 51.2 35.9004 52.2Z" fill="white"/>
<path d="M49.7999 63.3C50.4999 64 50.9999 64.5 51.4999 65C52.0999 65.6 52.1999 66.5 51.5999 67.1C50.1999 68.5 48.9999 70 47.3999 71.1C42.8999 74.3 36.5999 74.1 32.1999 70.7C31.8999 70.4 31.4999 70.4 31.0999 70.5C29.3999 71.1 27.6999 71.7 25.9999 72.2C25.0999 72.5 24.3999 72.3 23.9999 71.6C23.5999 71 23.5999 70.4 23.8999 69.8C24.3999 68.7 24.9999 67.6 25.4999 66.6C25.6999 66.3 25.6999 66 25.4999 65.7C24.9999 64.7 24.4999 63.6 23.8999 62.6C23.4999 61.9 23.4999 61.2 23.9999 60.5C24.5999 59.8 25.2999 59.8 26.0999 60.1C27.7999 60.7 29.4999 61.2 31.1999 61.8C31.5999 61.9 31.8999 61.9 32.1999 61.6C36.6999 58.2 42.3999 58 47.1999 61C48.1999 61.7 49.0999 62.6 49.7999 63.3ZM28.5999 64.5C28.6999 65.1 29.1999 65.6 29.1999 66.2C29.1999 66.8 28.7999 67.2 28.5999 67.9C29.5999 67.6 30.4999 67.3 31.3999 67C31.9999 66.8 32.5999 66.8 33.0999 67.2C33.2999 67.4 33.5999 67.6 33.7999 67.8C36.1999 69.8 38.9999 70.5 42.0999 69.9C42.4999 69.8 42.4999 69.7 42.2999 69.3C41.1999 67.3 41.1999 65.2 42.1999 63.2C42.4999 62.6 42.4999 62.6 41.8999 62.5C38.5999 61.9 35.6999 62.8 33.2999 65C32.6999 65.6 32.0999 65.7 31.2999 65.4C30.4999 65.1 29.5999 64.8 28.5999 64.5ZM47.0999 67C47.2999 66.8 47.3999 66.6 47.5999 66.5C47.8999 66.2 47.8999 66 47.5999 65.7C47.0999 65.2 46.5999 64.8 46.0999 64.3C45.7999 64.1 45.5999 64.1 45.3999 64.4C44.7999 65.3 44.7999 67 45.3999 67.8C45.5999 68.1 45.7999 68.1 46.0999 67.9C46.3999 67.6 46.7999 67.3 47.0999 67Z" fill="white"/>
</svg>
