<svg width="76" height="85" viewBox="0 0 76 85" fill="none" xmlns="http://www.w3.org/2000/svg">
<path d="M49.3 1.20001C51.2 1.70001 52.9999 2.40001 54.4999 3.70001C55.7999 4.80001 56.8999 6.10001 57.6999 7.60001C57.9999 8.10001 58.2998 8.40001 58.8998 8.60001C62.9998 10 65.6 13.6 65.6 17.9C65.6 18.7 65.7999 19.1 66.4999 19.5C70.9999 22.2 73.1999 28.1 71.4999 33.2C71.3999 33.6 71.2999 34 71.6999 34.3C75.6999 38.1 76.4999 43.8 73.6999 48.7C73.3999 49.3 73.2999 49.7 73.6999 50.3C76.0999 54.3 75.7999 59.1 72.9999 62.7C72.1999 63.7 71.9999 64.6 71.9999 65.8C72.0999 71.2 68.3 76 63.1 77.3C62.7 77.4 62.2 77.6 61.8 77.5C60.9 77.4 60.3998 77.9 59.8998 78.6C55.5998 84.9 46.4 85.9 40.8 80.7C39.9 79.9 39.0999 79 38.4999 77.9C38.0999 77.3 37.8999 77.3 37.4999 77.9C35.4999 81.1 32.6 83.2 28.8 83.9C23.7 84.8 19.5 83 16.3 78.9C15.7 78.1 15.0999 77.7 13.9999 77.5C9.39994 76.8 6.3999 74.1 4.6999 69.9C3.9999 68.3 3.79994 66.6 3.99994 64.8C3.99994 64.2 3.89994 63.8 3.49994 63.3C0.199945 59.5 -0.200153 54.5 2.39985 50.1C2.69985 49.5 2.59999 49.1 2.29999 48.5C-0.400007 43.7 0.399993 38 4.29999 34.1C4.69999 33.8 4.69994 33.5 4.49994 33C2.79994 27.8 4.90004 22 9.60004 19.2C10.2 18.9 10.3998 18.5 10.3998 17.8C10.3998 13.3 12.8999 9.79999 17.1999 8.29999C17.5999 8.19999 17.9 8.00001 18.1 7.60001C19.9 4.10001 22.5999 1.9 26.4999 1C26.5999 1 26.6 0.999994 26.6 0.899994C27.7 0.899994 28.8 0.899994 29.8 0.899994C32.6 1.49999 35 2.80001 36.8 5.10001C37.2 5.50001 37.5 6.29999 37.8 6.29999C38.3 6.29999 38.4998 5.5 38.8998 5C40.7998 2.8 43.0998 1.39999 45.8998 0.899994C47.1998 1.19999 48.2 1.20001 49.3 1.20001ZM36.3 61.8C36.3 59.4 36.3 57.2 36.3 54.9C36.3 47.2 36.3 39.5 36.3 31.9C36.3 30.7 36.1 29.6 35.1 28.8C34.5 28.3 33.6999 28.2 32.9999 28.1C31.9999 27.9 31.4999 27.2 31.4999 26.3C31.5999 25.4 32.3 24.8 33.3 24.8C34.1 24.8 34.8999 24.9 35.6999 25.3C36.3999 25.6 36.3998 25.4 36.3998 24.8C36.3998 21.1 36.3998 17.3 36.3998 13.6C36.3998 12.4 36.2 11.3 35.8 10.2C34.7 7.40001 32.7 5.49999 29.8 4.79999C26.8 4.19999 24.3998 5.40001 22.3998 7.70001C21.8998 8.30001 22.0999 8.4 22.6999 8.5C24.0999 8.8 25.3999 9.5 26.4999 10.5C27.6999 11.5 27.8999 12.5 27.1999 13.3C26.4999 14.2 25.5 14.1 24.3 13.1C20.6 10 15.0999 11.9 13.9999 16.5C13.6999 17.8 13.8 17.9 15.1 17.9C21.4 17.8 26.8 23.2 26.8 29.5C26.8 30.6 26.2 31.4 25.3 31.4C24.3 31.5 23.5999 30.8 23.4999 29.7C23.3999 28.2 23 26.8 22.3 25.5C20.7 22.9 18.4998 21.3 15.3998 21.3C9.79985 21.3 5.7999 27.9 8.1999 33C8.9999 34.7 8.89985 35.2 7.39985 36.3C4.69985 38.4 3.60004 41.8 4.60004 45.1C5.80004 48.7 8.30004 50.8 12.1 51.2C13.3 51.3 13.8998 52 13.8998 53C13.7998 54 13.0998 54.6 11.8998 54.6C9.79985 54.6 7.8999 53.9 6.1999 52.7C5.2999 52.1 5.29999 52.1 4.79999 53.1C3.49999 56.1 4.1999 59.5 6.6999 61.8C7.4999 62.5 7.80004 63.3 7.60004 64.4C7.40004 65.4 7.40004 66.4 7.60004 67.4C8.40004 71.5 12.3 74.8 16.1 74.2C17 74.1 17.5999 74.5 17.9999 75.2C18.1999 75.5 18.2999 75.8 18.4999 76.1C20.3999 79.1 23.2 80.7 26.8 80.7C29.7 80.7 31.9998 79.4 33.8998 77.2C37.4998 73 36.9 66.5 32.6 63.1C30.8 61.7 28.8 61.2 26.6 61C25.6 60.9 24.9999 60.2 24.9999 59.3C24.9999 58.4 25.6999 57.7 26.6999 57.7C27.7999 57.7 28.8999 57.8 29.9999 58.1C32.3999 58.7 34.4 59.9 36.3 61.8ZM39.6999 61.8C39.9999 61.5 40.1998 61.3 40.3998 61.1C42.8998 58.8 45.8 57.6 49.3 57.6C50.3 57.6 50.9999 58.3 50.9999 59.2C50.9999 60.1 50.3999 60.8 49.4999 60.9C48.7999 61 48.0998 61 47.3998 61.2C41.8998 62.4 38.7 67.6 40.1 73.1C41.4 78.4 46.4999 81.7 51.6999 80.4C54.4999 79.7 56.4998 78 57.8998 75.5C58.3998 74.5 59.2 74 60.3 74.2C61.3 74.4 62.2 74.2 63.1 73.9C66.4 72.7 69.3 68.9 68.6 64.6C68.4 63.4 68.7 62.5 69.6 61.7C72 59.5 72.5998 56.1 71.3998 53.1C70.8998 52 70.8999 52 69.9999 52.7C68.1999 53.9 66.3 54.6 64.1 54.5C63.1 54.5 62.4998 53.9 62.3998 53C62.2998 52.1 62.8998 51.3 63.8998 51.2C64.2998 51.1 64.5999 51.1 64.9999 51.1C69.0999 50.6 72.1999 46.6 71.9999 42.5C71.8999 39.8 70.6999 37.7 68.4999 36.1C67.3999 35.3 67.2 34.6 67.8 33.4C69.4 30 68.8 26.9 66.6 24.1C65.1 22.2 62.9999 21.1 60.4999 21.3C57.3999 21.5 55.2 23.1 53.8 25.8C53.1 27.1 52.8999 28.5 52.6999 29.9C52.5999 30.9 51.8998 31.5 50.8998 31.4C49.9998 31.3 49.3998 30.7 49.3998 29.7C49.3998 29.2 49.3998 28.7 49.3998 28.2C50.1998 21.9 55.6999 17.3 61.4999 17.8C62.0999 17.9 62.1999 17.7 62.1999 17.1C61.9999 13.5 58 10.7 54.3 11.7C53.2 12 52.2 12.7 51.3 13.4C50.4 14.1 49.4998 14 48.8998 13.2C48.2998 12.4 48.4 11.5 49.3 10.8C49.7 10.4 50.1999 10 50.6999 9.70001C51.5999 9.10001 52.5999 8.69999 53.6999 8.39999C53.8999 8.29999 54.2999 8.29999 53.9999 7.89999C52.9999 5.99999 49.5998 4.40001 47.3998 4.60001C43.5998 4.90001 40.1998 8.30001 39.8998 12.2C39.5998 16.5 39.8 20.8 39.8 25.1C39.8 25.6 39.9998 25.5 40.3998 25.4C41.2998 25 42.1999 24.8 43.1999 24.9C44.1999 25 44.8999 25.9 44.6999 26.9C44.4999 27.7 43.9999 28.2 43.1999 28.2C42.1999 28.3 41.2 28.6 40.6 29.5C40 30.3 39.8998 31.1 39.8998 32C39.8998 41.7 39.8998 51.4 39.8998 61.1C39.6998 61.2 39.6999 61.4 39.6999 61.8Z" fill="white"/>
<path d="M18.8999 47.5C18.1999 47.6 17.5001 47.4 17.1001 46.6C16.8001 46 16.9 45.4 17.3 44.8C17.6 44.3 18.1 44.1 18.7 44.1C20.5 44 21.8 43.2 22.8 41.7C23.2 41.1 23.0999 40.9 22.3999 40.7C17.3999 39.4 13.8 34.9 13.8 30C13.8 28.7 14.3999 28 15.3999 27.9C16.3999 27.8 17.1 28.4 17.2 29.7C17.4 31.5 17.8001 33.2 19.1001 34.7C21.9001 38 26.8 38.5 30.2 35.9C30.4 35.8 30.5 35.6 30.7 35.5C31.6 35 32.5 35.1 33 35.8C33.6 36.5 33.5 37.5 32.7 38.2C31.8 39 30.8 39.6 29.8 40C29.1 40.3 28.5 40.6 27.7 40.7C27 40.8 26.7 41.1 26.5 41.8C25.3 45.1 22.1999 47.4 18.8999 47.5Z" fill="white"/>
<path d="M26.6999 75.4C26.6999 76.8 26.1999 77.5 25.1999 77.6C24.1999 77.7 23.3999 77.1 23.3999 76C23.1999 74 22.6999 72.2 21.3999 70.6C19.7999 68.6 17.7999 67.6 15.1999 67.4C13.7999 67.3 13.1 65.8 14 64.7C14.4 64.2 14.9 64 15.5 64.1C19.6 64.2 22.6 66.2 24.8 69.5C26.1 71.3 26.6999 73.5 26.6999 75.4Z" fill="white"/>
<path d="M29.8999 52.8C29.8999 53.7 29.2999 54.3 28.3999 54.5C27.5999 54.6 26.8001 54.6 26.1001 54.8C23.0001 55.4 20.5 57.1 18.8 59.8C18.6 60.2 18.3 60.5 18 60.8C17.4 61.2 16.7 61.3 16 60.8C15.4 60.4 15.0999 59.6 15.3999 58.9C15.3999 58.8 15.5001 58.6 15.6001 58.5C18.5001 53.8 22.6001 51.3 28.1001 51.2C29.2001 51.1 29.8999 51.8 29.8999 52.8Z" fill="white"/>
<path d="M31.6001 16.3C31.6001 17.3 30.7999 18 29.8999 18C28.9999 18 28.3 17.2 28.3 16.3C28.3 15.3 29.1 14.6 30 14.6C30.9 14.6 31.6001 15.3 31.6001 16.3Z" fill="white"/>
<path d="M62.3 30.2C62.2 34.9 58.5999 39.4 53.8999 40.7C52.8999 41 52.8999 41 53.3999 41.9C54.1999 43.1 55.3 43.9 56.8 44.1C57.1 44.1 57.3001 44.2 57.6001 44.2C58.6001 44.4 59.1 45.1 59.1 46C59 46.9 58.3 47.5 57.3 47.5C54 47.6 50.6999 45.2 49.6999 42C49.4999 41.2 49.1 40.9 48.3 40.7C46.5 40.4 44.9 39.4 43.5 38.2C42.7 37.5 42.5999 36.6 43.1999 35.8C43.7999 35.1 44.7 34.9 45.5 35.5C46.2 36 46.9 36.5 47.8 36.9C51.9 38.8 57.2001 36.5 58.6001 32.1C58.8001 31.3 59 30.5 59.1 29.6C59.2 28.4 59.8999 27.8 60.8999 27.9C61.8999 28 62.4 28.7 62.5 29.8C62.3 30 62.3 30.1 62.3 30.2Z" fill="white"/>
<path d="M49.3 75.4C49.4 69.5 54.6999 64.1 60.3999 64.1C61.5999 64.1 62.2999 64.7 62.3999 65.7C62.3999 66.7 61.8001 67.4 60.6001 67.5C56.1001 67.8 53 71.6 52.8 75.3C52.8 75.6 52.7 75.8 52.7 76.1C52.6 77.1 51.9 77.7 51 77.7C50.1 77.7 49.3999 77 49.3999 76C49.2999 75.7 49.3 75.5 49.3 75.4Z" fill="white"/>
<path d="M48.5001 51.1C53.7001 51.5 57.6001 53.9 60.3001 58.3C60.9001 59.2 60.7001 60.2 59.8001 60.7C59.0001 61.2 58 61 57.4 60.1C56.4 58.6 55.3001 57.3 53.8001 56.3C52.2001 55.3 50.5002 54.6 48.6002 54.5C48.2002 54.5 47.8001 54.4 47.5001 54.4C46.5001 54.2 45.9001 53.6 46.0001 52.6C46.0001 51.7 46.7 51.1 47.7 51C48 51.1 48.2001 51.1 48.5001 51.1Z" fill="white"/>
<path d="M47.7 16.3C47.7 17.3 46.9 18 46 17.9C45.1 17.9 44.3999 17.1 44.3999 16.2C44.3999 15.2 45.2001 14.5 46.1001 14.6C47.1001 14.6 47.8 15.4 47.7 16.3Z" fill="white"/>
</svg>
