<svg width="96" height="93" viewBox="0 0 96 93" fill="none" xmlns="http://www.w3.org/2000/svg">
<path d="M93 53.7C92.3 53.7 91.7 54.2 91.4 54.7C91.1 55.1 91.2 55.6 91.2 56V56.2V76.3V83.7C91.2 84.3 91.2 84.8 91.2 85.4C91.1 86.7 90.2 87.8 88.9 88.1C89 87.8 89 87.5 89.1 87.2C89.3 86.2 89.5 85.2 89.5 84.2V82.4C89.5 74.7 89.6 66.8 89.4 59C89.4 56.8 90 55.5 91.6 54.2C95.7 51 96.7 45.6 94.2 41C92.6 38.1 90.5 35.3 88.5 32.6C84 26.6 79.5 20.8 75.2 15.3C74.5 14.4 73.6 13.7 72.7 13.2C69.6 11.8 65.8 12.4 63.3 14.7C64.5 13.2 65.2 11.2 65.2 9.2C65.2 4.1 61.4 0.300003 56.4 0.300003C54 0.300003 51.8 1.19999 50.1 2.89999C48.4 4.59999 47.5 6.8 47.5 9.2C47.5 14.2 51.5 18 56.4 18C58.6 18 60.7 17.2 62.3 15.8C62.1 16 61.9 16.3 61.8 16.6C59.5 20.3 59.4 24.4 61.5 28.7C61.8 29.4 61.8 29.4 61.3 29.7C59.1 30.8 56.7 32.1 54.1 33.5C53.8 33.7 53.4 33.9 53.1 34C51.9 34.6 50.7 35.2 49.8 36.2L49.7 36.3C49.6 36.5 49.6 36.8 49.5 37C48.5 39.9 49.3 42.5 50.7 44.9C52.6 46.2 54.8 46.3 57 45L59.2 43.8C62.4 42.1 65.6 40.4 68.8 38.6C69.1 38.5 69.3 38.3 69.5 38.2C69.5 38.4 69.6 38.6 69.6 38.9C69.7 39.2 69.8 39.5 70 39.8L71.8 43.2C73.2 45.8 74.6 48.3 75.9 50.9C76.1 51.3 76.3 51.8 76.3 52.2C76.4 55.3 76.5 58.7 76.5 62.1C76.5 66.5 76.5 70.9 76.5 75.2C76.5 78.4 76.5 81.6 76.5 84.9C76.5 87.1 77.5 89.1 79.2 90.4C80.9 91.6 83.2 91.9 85.3 91.2C85.4 91.2 85.6 91.2 85.8 91.2C86 91.2 86.2 91.3 86.4 91.3C86.8 91.3 87.2 91.3 87.6 91.3C88.6 91.4 89.7 91.4 90.7 91.1C93.4 90.2 94.8 88 94.8 85V80.1C94.8 72 94.8 63.9 94.8 55.7V55.5C94.8 55.2 94.8 54.7 94.5 54.3C94.3 54.3 93.8 53.7 93 53.7ZM56.3 14.4C55 14.4 53.7 13.8 52.7 12.9C51.7 11.9 51.2 10.6 51.2 9.3C51.2 6.5 53.5 4.2 56.4 4.2C57.6 4.2 58.8 4.7 59.8 5.7C60.8 6.7 61.4 8 61.4 9.3C61.4 12 59 14.4 56.3 14.4ZM87.2 52.9C86.1 53.8 85.6 54.9 85.6 56.3C85.6 62.7 85.6 69.1 85.6 75.4V81C85.6 81.4 85.6 81.9 85.6 82.3C85.6 83.3 85.6 84.4 85.6 85.4C85.6 86.4 85.1 87.2 84.3 87.7C83.5 88.1 82.7 88.2 81.9 87.8C80.8 87.3 80.4 86.4 80.4 84.8C80.4 77.8 80.4 72.1 80.4 66.7C80.4 61.7 80.3 57.6 80.2 53.8V53.6C80.2 52 80.1 50.4 79.1 48.8C78.1 47.2 77.2 45.6 76.3 43.9C76 43.4 75.8 42.9 75.5 42.4C75.1 41.6 74.7 40.9 74.3 40.1C73.9 39.3 73.5 38.4 73 37.6C72.5 36.7 71.9 36.4 71.4 36.4C71.3 36.4 71.2 36.4 71.2 36.4C72.2 34.6 73.1 32.8 74 31C74.4 30.3 74.7 29.5 75.1 28.8C75.5 28.1 75.6 27.4 75.3 26.9C75.2 26.6 74.9 26.1 74.2 25.8C73.1 25.3 72.3 25.8 71.6 27.1C71.2 27.9 70.8 28.7 70.4 29.5C69.7 30.9 69 32.3 68.3 33.7C68 34.3 67.5 35.1 67.1 35.4C63.1 37.6 59 39.8 54.5 42.1C54.1 42.3 53.4 42.2 53 42C52.2 41.6 51.8 41 51.8 40.4C51.8 39.6 52.4 38.9 53.4 38.3C54.8 37.6 56.1 36.8 57.5 36.1C59.3 35.2 61 34.2 62.8 33.3C63.5 32.9 64.6 32.3 65.1 31.5C66.2 29.6 67.1 27.7 68.1 25.8L68.3 25.4C68.7 24.6 68.6 23.8 68.1 23.2C67.7 22.7 67 22.5 66.3 22.7C65.7 22.9 65.2 23.3 64.7 24.1C64.5 24.4 64.3 24.7 64.2 25C63.7 23.2 63.9 21.5 64.6 19.8C65.3 18.1 67 16.8 68.9 16.6C69.8 16.5 71.6 16.6 72.8 18.3C74.2 20.2 75.6 22.1 77.1 23.8C78.2 25.2 79.4 26.6 80.5 28.1C84.6 33.6 87.7 37.9 90.5 42C92.2 44.5 92.3 47.2 90.8 49.6C90.1 50.7 89 51.7 87.9 52.6L87.2 52.9Z" fill="white"/>
<path d="M28.7 18.3C28.4 18.2 28.1 18.2 27.8 18.2C25.6 18.2 25.5 19.7 25.5 20.1C25.5 20.6 25.7 21.1 26 21.5C26.4 21.9 27 22.1 27.7 22.1C27.7 22.1 27.7 22.1 27.8 22.1C28.1 22.1 28.4 22.1 28.6 22C28.6 22.2 28.5 22.4 28.5 22.6C28.5 23.1 28.5 23.6 28.5 24.1C28.5 25.4 29.3 26.2 30.4 26.2C30.4 26.2 30.4 26.2 30.5 26.2C31.7 26.2 32.4 25.4 32.4 24C32.4 23.9 32.4 23.7 32.4 23.6V23.4V23.3V23.1C32.4 22.9 32.4 22.7 32.4 22.4C32.4 22.2 32.4 22 32.3 21.9C32.6 22 32.8 22 33.1 22C33.1 22 33.1 22 33.2 22C34 22 34.6 21.8 35 21.4C35.2 21.2 35.5 20.7 35.5 20C35.5 19.4 35.3 18.1 33.2 18.1C32.8 18.1 32.5 18.2 32.2 18.2C32.3 17.8 32.4 17.3 32.4 16.8C32.4 15.6 32.1 14.7 31.6 14.3C31.3 14 30.8 13.9 30.4 14C28.6 14.3 28.6 16 28.6 16.8C28.5 17.5 28.6 17.9 28.7 18.3ZM30.8 20.5C30.7 20.5 30.6 20.5 30.4 20.5C30.3 20.5 30.1 20.5 30 20.5C30 20.4 30 20.2 30 20.1C30 20 30 19.9 30 19.7C30.1 19.7 30.3 19.7 30.4 19.7C30.5 19.7 30.7 19.7 30.8 19.6C30.8 19.7 30.8 19.8 30.8 20C30.8 20.3 30.8 20.4 30.8 20.5Z" fill="white"/>
<path d="M48.1004 25.4C48.2004 25.4 48.2004 25.4 48.3004 25.4C49.5004 25.3 50.3004 24.5 50.3004 23.3C50.3004 23.3 50.3004 23.3 50.3004 23.2C50.3004 22.5 50.0004 21.8 49.4004 21.4C49.0004 21 48.4004 20.9 47.9004 21C46.6004 21.2 45.9004 22.1 45.9004 23.3C45.9004 23.9 46.2004 24.5 46.7004 24.9C47.2004 25.2 47.6004 25.4 48.1004 25.4Z" fill="white"/>
<path d="M25.7999 8.50001H25.8999C26.4999 8.50001 27.1999 8.2 27.5999 7.7C27.9999 7.3 28.1999 6.7 28.1999 6.2C28.1999 5.1 27.0999 4.00001 25.8999 4.10001C25.2999 4.10001 24.6999 4.4 24.2999 4.9C23.8999 5.4 23.6999 5.9 23.7999 6.4C23.8999 7.5 24.5999 8.30001 25.7999 8.50001Z" fill="white"/>
<path d="M37.9999 9.3C38.3999 9.3 38.6999 9.29999 38.8999 9.19999C38.8999 9.29999 38.7999 9.5 38.7999 9.6C38.6999 10 38.7999 10.3 38.7999 10.7C38.7999 10.8 38.7999 10.9 38.7999 11.1C38.7999 13 39.7999 13.4 40.6999 13.5C40.6999 13.5 40.6999 13.5 40.7999 13.5C41.2999 13.5 41.7999 13.3 42.0999 13C42.5999 12.5 42.6999 11.7 42.6999 11.2V10.8C42.6999 10.8 42.6999 10.8 42.6999 10.7V10.6C42.6999 10.3 42.7999 9.89999 42.5999 9.49999L42.4999 9.39999C42.4999 9.39999 42.4999 9.3 42.3999 9.3C42.6999 9.4 43.0999 9.49999 43.4999 9.49999C44.2999 9.49999 44.8999 9.29999 45.2999 8.89999C45.4999 8.69999 45.7999 8.19999 45.7999 7.49999C45.7999 6.99999 45.4999 5.69999 43.4999 5.69999H43.3999C43.0999 5.69999 42.6999 5.7 42.3999 5.8C42.4999 5.4 42.5999 4.9 42.5999 4.3V4.1C42.5999 3.9 42.5999 3.69999 42.5999 3.49999C42.5999 2.79999 42.2999 2.2 41.8999 1.8C41.4999 1.5 40.9999 1.39999 40.4999 1.49999C39.7999 1.59999 39.3999 2.29999 39.0999 2.89999L38.8999 3.19999C38.6999 3.49999 38.6999 3.89999 38.6999 4.19999C38.6999 4.29999 38.6999 4.29999 38.6999 4.39999C38.6999 4.79999 38.6999 5.29999 38.7999 5.89999C38.3999 5.79999 38.0999 5.8 37.7999 5.8C37.2999 5.8 36.4999 5.89999 35.9999 6.39999C35.7999 6.59999 35.4999 6.99999 35.5999 7.69999C35.6999 7.99999 35.9999 9.3 37.9999 9.3ZM40.4999 6.99999C40.5999 6.99999 40.6999 6.99999 40.7999 6.99999C40.8999 6.99999 40.9999 6.99999 41.0999 6.99999C41.0999 7.09999 41.0999 7.29999 41.0999 7.39999C41.0999 7.49999 41.0999 7.69999 41.1999 7.89999C41.0999 7.89999 41.0999 7.8 40.9999 7.8C40.7999 7.7 40.5999 7.7 40.3999 7.8C40.3999 7.7 40.3999 7.49999 40.3999 7.39999C40.3999 7.19999 40.3999 7.09999 40.3999 6.99999C40.3999 6.99999 40.3999 6.99999 40.4999 6.99999Z" fill="white"/>
<path d="M30.5996 92.7C30.1996 92.7 29.8996 92.6 29.4996 92.5C28.5996 92.7 27.6996 92.4 27.1996 92.2C27.0996 92.2 26.5996 92.2 26.2996 92.3C26.1996 92.3 26.0996 92.3 25.9996 92.3C25.1996 92.3 22.5996 92.4 21.0996 91C18.6996 91.9 16.6996 92 16.5996 92C16.2996 92 7.49962 92.7 4.69962 92.6C2.99962 92.5 0.0996094 92.4 0.0996094 89.3C0.0996094 87.6 1.39962 86.6 2.69962 86.4C2.79962 86.4 2.7996 86.4 2.8996 86.4C2.8996 86.4 9.69959 86.1 11.7996 85.9C12.0996 85.9 12.2996 85.9 12.5996 86C13.9996 86.3 19.2996 84.5 20.5996 83.3C20.6996 81.5 21.3996 78.7 21.6996 77.4C21.6996 76.6 21.7996 74.2 22.2996 72.2C23.5996 67.7 23.7996 67.1 24.4996 66.2L24.6996 66C25.0996 65.4 25.8996 62.7 25.9996 62C26.1996 59.5 26.0996 58.2 25.9996 57.6C25.8996 56.6 25.8996 55.7 26.1996 55C26.0996 54.7 26.0996 54.3 25.9996 54C25.5996 51.1 25.4996 49.1 25.2996 47.8C25.1996 47.2 25.1996 46.5 25.0996 46.3C24.9996 46 24.7996 45.3 24.6996 44.5C22.7996 40.4 22.5996 38.7 23.8996 37.6C24.3996 37.2 25.0996 36.9 25.7996 37C26.7996 37.1 27.6996 37.6 28.6996 38.8C29.2996 38.7 29.7996 38.6 30.1996 38.5C31.7996 37.7 33.6996 37.7 34.7996 38.2C34.7996 38.2 34.8996 38.2 35.0996 38.2C35.5996 38 36.1996 38 36.8996 38.2C37.7996 38.5 38.3996 39.2 38.7996 40.2C38.9996 40.4 39.0996 40.6 39.1996 40.8C39.7996 42 39.2996 43.3 39.0996 43.9C38.9996 44 38.9996 44.1 38.8996 44.3C38.5996 44.7 38.2996 45.3 38.1996 45.7C38.5996 45.8 39.2996 45.8 40.3996 45.8C41.0996 43.8 42.2996 41.3 42.9996 39.7C43.1996 39.2 43.3996 38.8 43.4996 38.6C43.5996 38.2 43.8996 37.7 44.0996 37.3C44.1996 36.8 44.2996 36.2 44.5996 35.4C45.4996 33.2 48.3996 32.8 48.9996 32.7C49.2996 32.7 49.5996 32.7 49.8996 32.8C50.0996 32.9 50.9996 33.2 51.3996 34.2C51.5996 34.6 51.6996 35.1 51.5996 35.8C51.9996 37.4 50.8996 39.2 49.6996 40.6C49.5996 40.7 49.5996 40.8 49.4996 40.8C49.4996 40.9 49.3996 41.1 49.3996 41.4C48.9996 46.9 46.7996 51.4 46.1996 52.7C46.1996 52.7 46.1996 52.7 46.1996 52.8C46.3996 52.8 46.4996 52.8 46.6996 52.8C47.2996 52.8 47.7996 52.7 48.0996 52.6C49.5996 51.1 51.6996 51.3 52.9996 52.3C53.0996 52.4 53.1996 52.5 53.2996 52.5C53.7996 53.1 54.2996 54.1 53.8996 55.2C53.5996 56.1 52.8996 56.9 51.7996 57.4C50.9996 58.3 49.6996 58.6 48.9996 58.6C48.4996 58.7 46.4996 59.4 45.9996 60C45.1996 60.8 43.4996 61.6 41.5996 62.5C41.4996 62.5 41.3996 62.6 41.2996 62.6C40.8996 64.4 39.8996 69.3 38.4996 75.7C39.5996 77.2 41.5996 81.2 37.3996 86.3C37.6996 86.3 37.8996 86.3 37.9996 86.3C38.6996 86.2 39.8996 86 40.9996 86.7C41.5996 87.1 41.9996 87.6 42.0996 88.3C42.3996 89.2 42.2996 90.1 41.6996 90.8C40.7996 91.9 39.3996 92 38.6996 91.9L32.0996 92C31.7996 92.5 31.1996 92.7 30.5996 92.7ZM29.5996 88.3C29.9996 88.3 30.2996 88.4 30.6996 88.6C31.0996 88.4 31.5996 88.3 32.0996 88.3H33.0996C32.6996 87.1 32.8996 85.8 33.7996 84.8C36.9996 81.4 36.1996 79.2 35.3996 78.2C34.7996 77.4 34.4996 76.4 34.6996 75.4C37.6996 60.8 37.7996 60.8 38.0996 60.3C38.4996 59.8 38.7996 59.6 40.0996 59C40.7996 58.7 42.3996 57.9 43.0996 57.5C42.1996 57.2 41.4996 56.6 41.0996 55.7C40.3996 54.2 40.7996 52.5 42.0996 51.5C42.3996 51.3 42.6996 51.1 42.8996 50.9C43.2996 50.1 44.0996 48.3 44.7996 46C44.5996 46.5 44.3996 47 44.2996 47.5C43.8996 48.9 42.6996 49.8 41.2996 49.8C37.3996 50 35.2996 49.3 34.5996 47.6C33.8996 45.7 34.8996 43.6 35.4996 42.5C35.4996 42.4 35.3996 42.4 35.3996 42.3C34.7996 42.3 34.0996 42.3 33.3996 42C33.2996 42 32.6996 41.9 32.1996 42.3C31.8996 42.5 31.5996 42.6 31.2996 42.6C30.8996 42.6 30.2996 42.8 29.4996 43C29.1996 43.1 28.8996 43.1 28.5996 43.1C28.6996 43.4 28.7996 43.6 28.7996 43.9C28.8996 44.6 28.9996 45.1 29.0996 45.3C29.2996 45.8 29.2996 46.4 29.3996 47.7C29.4996 49 29.6996 50.9 29.9996 53.7C29.9996 54 30.0996 54.3 30.1996 54.5C30.3996 55.2 30.2996 55.9 29.9996 56.6C29.9996 56.6 29.9996 56.8 29.9996 57.3C30.0996 58.5 30.0996 60.3 29.9996 62.5C29.8996 63.4 28.8996 67.2 27.9996 68.4C27.8996 68.5 27.7996 68.6 27.7996 68.7C27.5996 69 27.3996 69.2 26.1996 73.4C25.7996 75 25.7996 77.2 25.6996 77.6C25.6996 77.9 25.6996 78.2 25.5996 78.4C25.0996 80.3 24.5996 82.8 24.5996 83.8C24.5996 85.4 23.1996 86.4 22.6996 86.7C22.5996 86.8 22.3996 86.9 22.2996 87C22.8996 87.2 23.3996 87.5 23.8996 88C24.0996 88.1 24.9996 88.3 25.7996 88.3C26.3996 88.2 27.6996 88 28.6996 88.4H28.7996C28.9996 88.4 29.2996 88.3 29.5996 88.3ZM48.0996 41.6C48.1996 41.6 48.1996 41.6 48.2996 41.6C48.1996 41.6 48.0996 41.6 48.0996 41.6Z" fill="white"/>
</svg>
