<svg width="94" height="93" viewBox="0 0 94 93" fill="none" xmlns="http://www.w3.org/2000/svg">
<path d="M88.7994 14.3C87.2994 13.8 85.6994 13.9 84.1994 14.5C84.3994 13.8 84.5994 13.1 84.6994 12.3C85.5994 6.2 82.6994 0.899998 77.9994 0.299998C73.9994 -0.300002 70.1994 2.8 68.5994 7.5C67.0994 2.7 63.2994 -0.300002 59.1994 0.299998C56.8994 0.599998 54.7994 2.19999 53.5994 4.69999C52.4994 6.89999 52.0994 9.59999 52.4994 12.4C52.5994 13.1 52.7994 13.9 52.9994 14.6C51.4994 14 49.8994 13.8 48.3994 14.4C44.5994 15.8 42.9994 20.7 44.6994 25.6C45.4994 27.8 46.8994 29.7 48.5994 30.9C49.6994 31.6 50.7994 32.1 51.9994 32.2C51.4994 32.8 51.0994 33.5 50.7994 34.1C49.7994 36.3 49.9994 38.9 51.3994 41C53.0994 43.8 56.2994 45.6 60.0994 45.8C60.2994 45.8 60.4994 45.8 60.5994 45.8C60.9994 45.8 61.3994 45.8 61.7994 45.7L67.4994 44.8C68.1994 44.7 68.8994 44.7 69.5994 44.8L75.2994 45.7C75.8994 45.8 76.4994 45.8 77.0994 45.8C80.7994 45.6 84.0994 43.8 85.7994 41C87.0994 38.9 87.2994 36.3 86.3994 34.1C86.0994 33.4 85.6994 32.8 85.1994 32.2C86.3994 32.1 87.4994 31.6 88.5994 30.9C90.2994 29.7 91.6994 27.8 92.4994 25.6C94.1994 20.6 92.5994 15.7 88.7994 14.3ZM58.9994 22.8C58.8994 22.4 58.7994 21.8 58.5994 21.3C58.9994 21.5 59.2994 21.6 59.6994 21.7C59.3994 22.1 59.1994 22.4 58.9994 22.8ZM78.2994 22.9C78.0994 22.4 77.7994 22.1 77.5994 21.7C77.9994 21.6 78.2994 21.5 78.6994 21.3C78.4994 21.9 78.3994 22.4 78.2994 22.9ZM72.4994 10.5C72.9994 7 75.1994 4.69999 76.9994 4.69999C77.0994 4.69999 77.1994 4.69999 77.2994 4.69999C79.0994 4.99999 80.7994 7.9 80.1994 11.6C79.5994 15.3 77.1994 17.7 75.3994 17.4C74.1994 17.2 73.4994 16.1 73.0994 15.5C72.4994 14.2 72.1994 12.4 72.4994 10.5ZM69.0994 17.4C68.8994 17.4 68.7994 17.4 68.5994 17.4C68.3994 17.4 68.2994 17.4 68.0994 17.4C68.2994 17 68.3994 16.7 68.5994 16.3C68.6994 16.7 68.8994 17.1 69.0994 17.4ZM57.5994 6.69999C57.8994 5.99999 58.6994 4.9 59.8994 4.8C59.9994 4.8 60.0994 4.8 60.1994 4.8C61.9994 4.8 64.1994 7.1 64.6994 10.6C65.2994 14.3 63.5994 17.3 61.7994 17.5C60.5994 17.7 59.5994 16.8 59.0994 16.3C57.9994 15.2 57.2994 13.5 56.9994 11.7C56.6994 9.89999 56.8994 8.09999 57.5994 6.69999ZM48.9994 24C48.0994 21.4 48.7994 19 49.9994 18.6C51.1994 18.2 53.2994 19.6 54.1994 22.2C54.6994 23.5 54.7994 24.9 54.4994 26C54.3994 26.5 53.9994 27.4 53.2994 27.6C52.5994 27.9 51.7994 27.4 51.2994 27.1C50.1994 26.4 49.3994 25.3 48.9994 24ZM81.9994 38.6C81.0994 40.1 79.0994 41.1 76.7994 41.3C76.4994 41.3 76.2994 41.3 75.9994 41.3L70.2994 40.4C69.6994 40.3 69.0994 40.3 68.5994 40.3C67.9994 40.3 67.3994 40.3 66.8994 40.4L61.1994 41.3C60.8994 41.3 60.6994 41.4 60.3994 41.3C58.0994 41.2 56.1994 40.1 55.1994 38.6C54.7994 38 54.3994 37 54.8994 35.8C54.9994 35.5 55.2994 35.1 55.5994 34.8L59.1994 31.1C59.9994 30.3 60.6994 29.3 61.2994 28.2L62.9994 24.9C63.0994 24.6 63.2994 24.4 63.4994 24.2C64.7994 22.8 66.6994 21.9 68.5994 21.9C70.4994 21.9 72.3994 22.7 73.6994 24.2C73.8994 24.4 74.0994 24.7 74.1994 24.9L75.8994 28.2C76.3994 29.3 77.0994 30.2 77.9994 31.1L81.5994 34.8C81.8994 35.1 82.0994 35.5 82.2994 35.8C82.7994 36.9 82.3994 37.9 81.9994 38.6ZM88.1994 24C87.6994 25.3 86.8994 26.4 85.9994 27.1C85.5994 27.4 84.7994 27.8 83.9994 27.6C82.7994 27.2 82.0994 24.8 82.9994 22.2C83.4994 20.9 84.2994 19.8 85.1994 19.1C85.4994 18.9 86.0994 18.5 86.6994 18.5C86.8994 18.5 86.9994 18.5 87.1994 18.6C88.4994 19 89.1994 21.4 88.1994 24Z" fill="#729EFC"/>
<path d="M45.4996 61.2C43.9996 60.7 42.3996 60.8 40.8996 61.4C41.0996 60.7 41.2996 60 41.3996 59.2C41.7996 56.4 41.3996 53.7 40.2996 51.5C39.0996 49.1 36.9996 47.5 34.6996 47.1C30.6996 46.5 26.8996 49.6 25.2996 54.3C23.7996 49.5 19.9996 46.5 15.8996 47.1C13.5996 47.4 11.4996 49 10.2996 51.5C9.19957 53.7 8.79959 56.4 9.19959 59.2C9.29959 59.9 9.49959 60.7 9.69959 61.4C8.19959 60.8 6.59956 60.6 5.09956 61.2C1.29956 62.6 -0.300393 67.5 1.39961 72.4C2.19961 74.6 3.59957 76.5 5.29957 77.7C6.39957 78.4 7.49959 78.9 8.69959 79C8.19959 79.6 7.79958 80.3 7.49958 80.9C6.49958 83.1 6.69956 85.7 8.09956 87.8C9.79956 90.6 12.9996 92.4 16.7996 92.6C17.3996 92.6 17.9996 92.6 18.5996 92.5L24.2996 91.6C24.9996 91.5 25.6996 91.5 26.3996 91.6L32.0996 92.5C32.4996 92.6 32.8996 92.6 33.2996 92.6C33.4996 92.6 33.6996 92.6 33.7996 92.6C37.4996 92.4 40.7996 90.6 42.4996 87.8C43.7996 85.7 43.9996 83.1 43.0996 80.9C42.7996 80.2 42.3996 79.6 41.8996 79C43.0996 78.9 44.1996 78.4 45.2996 77.7C46.9996 76.5 48.3996 74.6 49.1996 72.4C50.8996 67.4 49.2996 62.5 45.4996 61.2ZM15.5996 69.7C15.4996 69.3 15.3996 68.7 15.1996 68.2C15.5996 68.4 15.8996 68.5 16.2996 68.6C16.0996 68.9 15.7996 69.3 15.5996 69.7ZM34.8996 69.8C34.6996 69.3 34.3996 69 34.1996 68.6C34.5996 68.5 34.8996 68.4 35.2996 68.2C35.0996 68.7 34.9996 69.3 34.8996 69.8ZM29.1996 57.4C29.6996 53.9 31.8996 51.6 33.6996 51.6C33.7996 51.6 33.8996 51.6 33.9996 51.6C35.1996 51.8 35.8996 52.9 36.2996 53.5C36.9996 54.9 37.1996 56.7 36.9996 58.5C36.6996 60.3 35.9996 62 34.8996 63.1C34.3996 63.6 33.3996 64.5 32.1996 64.3C30.2996 64.1 28.5996 61.1 29.1996 57.4ZM25.6996 64.3C25.4996 64.3 25.3996 64.3 25.1996 64.3C24.9996 64.3 24.8996 64.3 24.6996 64.3C24.8996 64 24.9996 63.6 25.1996 63.2C25.3996 63.6 25.5996 63.9 25.6996 64.3ZM14.2996 53.6C14.5996 52.9 15.3996 51.8 16.5996 51.7C16.6996 51.7 16.7996 51.7 16.8996 51.7C18.6996 51.7 20.8996 54 21.3996 57.5C21.9996 61.2 20.2996 64.2 18.4996 64.4C17.2996 64.6 16.2996 63.7 15.7996 63.2C14.6996 62.1 13.9996 60.4 13.6996 58.6C13.3996 56.7 13.5996 54.9 14.2996 53.6ZM5.59956 70.8C4.69956 68.2 5.39956 65.8 6.59956 65.4C6.69956 65.3 6.89956 65.3 7.09956 65.3C8.29956 65.3 9.99957 66.7 10.7996 69C11.2996 70.3 11.3996 71.7 11.0996 72.8C10.9996 73.3 10.5996 74.2 9.89961 74.4C9.19961 74.7 8.39961 74.2 7.89961 73.9C6.89961 73.3 6.09956 72.1 5.59956 70.8ZM38.6996 85.4C37.7996 86.9 35.7996 87.9 33.4996 88.1C33.1996 88.1 32.9996 88.1 32.6996 88.1L26.9996 87.2C26.3996 87.1 25.7996 87.1 25.2996 87.1C24.7996 87.1 24.0996 87.1 23.5996 87.2L17.8996 88.1C17.5996 88.1 17.3996 88.2 17.0996 88.1C14.7996 88 12.8996 86.9 11.8996 85.4C11.4996 84.8 11.0996 83.8 11.5996 82.6C11.6996 82.3 11.9996 81.9 12.2996 81.6L15.8996 77.9C16.6996 77.1 17.3996 76.1 17.9996 75L19.6996 71.7C19.7996 71.4 19.9996 71.2 20.1996 71C21.4996 69.6 23.3996 68.7 25.2996 68.7C27.1996 68.7 29.0996 69.5 30.3996 71C30.5996 71.2 30.7996 71.5 30.8996 71.7L32.5996 75C33.0996 76.1 33.7996 77 34.6996 77.9L38.2996 81.6C38.5996 81.9 38.7996 82.3 38.9996 82.6C39.4996 83.8 39.0996 84.8 38.6996 85.4ZM44.8996 70.8C44.3996 72.1 43.5996 73.2 42.6996 73.9C42.2996 74.2 41.4996 74.6 40.6996 74.4C39.9996 74.1 39.5996 73.3 39.4996 72.8C39.1996 71.7 39.2996 70.3 39.7996 69C40.5996 66.7 42.2996 65.3 43.4996 65.3C43.6996 65.3 43.7996 65.3 43.9996 65.4C45.1996 65.8 45.7996 68.2 44.8996 70.8Z" fill="#729EFC"/>
</svg>
