<svg width="92" height="94" viewBox="0 0 92 94" fill="none" xmlns="http://www.w3.org/2000/svg">
<path d="M47.2998 12.1C47.4998 12.1 47.6999 12.1 47.8999 12.1C48.0999 12.1 48.2998 12.1 48.4998 12.1C56.4998 12.1 64.4998 12.1 72.5998 12.1H77.9998L77.2998 12.8C76.0998 14 74.9998 15.1 73.7998 16.3C73.2998 16.8 73.0998 17.4 73.1998 18.1C73.2998 18.9 73.7998 19.5 74.5998 19.7C75.3998 20 76.0998 19.8 76.6998 19.2L78.3999 17.5C80.3999 15.5 82.2998 13.6 84.2998 11.6C85.1998 10.7 85.1998 9.6 84.2998 8.7C81.7998 6.2 79.2998 3.7 76.6998 1.2C75.8998 0.400001 74.5998 0.30001 73.7998 1.10001C73.3998 1.50001 73.1998 2 73.1998 2.5C73.1998 3 73.3999 3.6 73.8999 4C74.8999 5 75.7998 5.9 76.7998 6.9L78.0998 8.2H72.5998C64.5998 8.2 56.5998 8.2 48.5998 8.2C48.3998 8.2 48.1998 8.2 47.9998 8.2C47.7998 8.2 47.5999 8.1 47.3999 8.2C39.3999 8.2 31.3999 8.2 23.3999 8.2H17.8999L19.1998 6.9C20.0998 6 21.0998 5.00001 21.9998 4.10001C22.3998 3.70001 22.5998 3.20001 22.6998 2.60001C22.6998 2.10001 22.4998 1.5 22.0998 1.2C21.2998 0.400001 19.9998 0.400007 19.1998 1.30001C16.6998 3.80001 14.1998 6.30001 11.5998 8.80001C10.6998 9.70001 10.6998 10.8 11.5998 11.7C13.5998 13.7 15.4998 15.6 17.4998 17.6L19.1998 19.3C19.5998 19.7 20.0998 19.9 20.6998 19.9C20.8998 19.9 21.0999 19.9 21.3999 19.8C22.0999 19.6 22.5998 19 22.7998 18.2C22.8998 17.5 22.6998 16.9 22.1998 16.4L17.9998 12.2H23.3999C31.1999 12.1 39.1998 12.1 47.2998 12.1Z" fill="#729EFC"/>
<path d="M15.9996 30.3C16.4996 30.8 17.0996 31 17.7996 30.9C18.5996 30.8 19.1996 30.3 19.3996 29.5C19.5996 28.7 19.4996 28 18.8996 27.4L16.9996 25.5C15.0996 23.6 13.2996 21.7 11.3996 19.9C10.4996 19 9.39956 19 8.49956 19.9C5.99956 22.4 3.49956 24.9 0.999563 27.5C0.199562 28.3 0.0995869 29.6 0.899587 30.4C1.29959 30.8 1.79955 31 2.29955 31C2.79955 31 3.39955 30.8 3.79955 30.3C4.79955 29.3 5.69957 28.4 6.69957 27.4L7.99956 26.1V31.2C7.99956 39.3 7.99956 47.5 7.99956 55.6C7.99956 55.8 7.99956 56 7.99956 56.2C7.99956 56.4 7.99956 56.6 7.99956 56.8C7.99956 64.9 7.99956 73.1 7.99956 81.2V86.3L6.59954 84.9C5.69954 84 4.69955 83 3.79955 82.1C3.39955 81.7 2.79955 81.4 2.29955 81.4C1.79955 81.4 1.29959 81.6 0.899587 82C0.0995869 82.8 0.0995625 84.1 0.999563 84.9C3.49956 87.4 5.99956 89.9 8.49956 92.5C8.89956 92.9 9.39959 93.1 9.89959 93.1C10.3996 93.1 10.8996 92.9 11.2996 92.5C13.1995 90.6 14.9996 88.8 16.8996 86.9L18.8996 84.9C19.4996 84.3 19.6996 83.6 19.3996 82.8C19.1996 82.1 18.5996 81.6 17.7996 81.4C17.0996 81.3 16.4996 81.5 15.9996 82L11.7996 86.2V81.1C11.7996 73 11.7996 64.8 11.7996 56.7C11.7996 56.5 11.7996 56.3 11.7996 56.1C11.7996 55.9 11.7996 55.7 11.7996 55.5C11.7996 47.4 11.7996 39.2 11.7996 31.1V26L15.9996 30.3Z" fill="#729EFC"/>
<path d="M90.8992 46.4C90.2992 44.8 89.1992 44.5 88.6992 44.5C88.1992 44.4 87.4992 43.7 86.8992 43.1C85.7992 42 83.3992 41.4 81.4992 41.1L81.7992 37C81.8992 36.2 81.4992 35.5 80.7992 35.1C80.0992 34.7 79.2992 34.8 78.6992 35.2C78.4992 35.4 73.3992 39 72.6992 45.7C71.8992 47.7 69.9992 50.6 68.6992 50.6C67.3992 50.6 64.9992 50.5 61.6992 50.5H61.5991C56.0991 50.4 48.4992 50.2 39.2992 50.1C36.0992 50.1 35.0992 49.2 34.6992 48.5C32.3992 44.7 29.8992 36.4 34.9992 29.4C35.8992 28.1 36.0992 26.6 35.3992 25.1C34.6992 23.7 33.2992 22.6 31.7992 22.5C30.1992 22.4 28.5991 23.2 27.5991 24.8C25.8991 27.3 21.9992 33.1 23.6992 43.5C23.9992 45.3 25.2992 51.6 30.2992 57.4C30.0992 59.5 30.5992 62.1 31.1992 65.4L31.4992 67.3C31.9992 70.1 31.6992 72.5 30.6992 73.6C29.5992 74.8 29.0992 76.3 29.1992 77.8C29.6992 83.3 29.8991 86.5 30.0991 87.3C30.3991 89.4 32.0991 91.8 34.5991 92.3C35.0991 92.4 35.6992 92.4 36.2992 92.4C37.3992 92.4 38.2991 92.3 38.5991 92.2C39.1991 92.1 39.7992 91.7 39.9992 91.1V91C39.9992 90.9 40.0991 90.9 40.0991 90.8C40.8991 89 40.4991 87.7 40.0991 86.9C39.6991 86.1 38.9992 85.5 37.9992 85V80.9C38.3992 80.6 38.9992 80.2 39.4992 79.9C41.3992 78.6 44.0992 76.8 45.9992 74.9C46.7992 74.1 47.3992 73.1 47.9992 72.2C47.9992 72.7 48.1992 73.2 48.4992 73.5C48.7992 73.9 49.2992 74.2 49.8992 74.2C51.3992 74.3 52.8992 74.4 54.2992 74.4C57.8992 74.4 60.5992 74 62.1992 73.6C62.0992 74.5 61.9992 75.1 61.9992 75.3C61.8992 76.1 62.8992 87.8 65.2992 90.4C66.6992 91.9 68.4992 92.3 69.7992 92.3C70.8992 92.3 71.7992 92.1 72.1992 91.9C72.6992 91.7 73.1992 91.3 73.3992 90.8V90.7C73.3992 90.7 73.4992 90.6 73.4992 90.5C74.4992 87.8 72.6992 86 71.8992 85.5C71.1992 78.1 72.9992 72.6 74.3992 71.2C74.8992 70.7 75.4991 70.2 76.0991 69.7C77.9991 68.2 80.0992 66.5 80.7992 62.9C81.4992 59.5 83.5992 55.8 84.3992 54.8C84.6992 54.7 85.3992 54.6 85.8992 54.5C87.3992 54.2 89.0992 53.9 90.1992 52.7C91.2992 51.2 91.5992 48.1 90.8992 46.4ZM49.8992 65.7C49.9992 64.6 49.1991 63.6 48.0991 63.5C47.5991 63.4 47.0991 63.6 46.5991 63.9C46.1991 64.2 45.8992 64.7 45.8992 65.2C45.8992 65.2 45.3992 69.5 42.8992 72.1C41.2992 73.8 38.8991 75.4 37.0991 76.6C34.7991 78.1 33.8992 78.8 33.8992 80.1V86.4C33.8992 87.2 34.3992 87.9 35.1992 88.3H35.0991C34.5991 88.2 33.9992 87.4 33.8992 86.7C33.7992 86 33.4991 82.6 33.0991 77.4C33.0991 77 33.1992 76.6 33.4992 76.2C35.3992 74.2 35.9992 70.7 35.2992 66.6L34.9992 64.6C34.1992 60.1 33.7992 57.9 34.4992 56.4C34.9992 55.4 34.5991 54.2 33.5991 53.7C33.2991 53.6 32.9992 53.5 32.6992 53.5C32.5992 53.5 32.3992 53.5 32.2992 53.5C28.7992 48.9 27.7992 44.1 27.4992 42.7C26.0992 33.9 29.1992 29.1 30.7992 26.8C30.8992 26.6 31.0992 26.3 31.3992 26.3C31.4992 26.3 31.5992 26.4 31.6992 26.6C31.6992 26.7 31.6992 26.7 31.6992 26.8C25.2992 35.5 28.3992 45.7 31.1992 50.3C32.5992 52.7 35.1992 53.8 39.1992 53.9C48.3992 54 55.8992 54.2 61.4992 54.3C64.6992 54.4 67.2992 54.4 68.6992 54.4C73.4992 54.4 76.2991 47.4 76.5991 46.6C76.6991 46.4 76.6992 46.2 76.6992 46.1C76.7992 44.8 77.1992 43.5 77.7992 42.3C77.8992 42.6 78.0992 42.8 78.2992 43C78.4992 43.8 79.0992 44.5 79.9992 44.6C81.8992 44.9 83.9992 45.4 84.2992 45.7C85.0992 46.5 86.1992 47.6 87.4992 48C87.5992 48.7 87.3992 49.6 87.1992 49.8C86.9992 50 85.6992 50.2 85.1992 50.3C83.7992 50.6 82.4991 50.8 81.5991 51.8C80.3991 53.1 77.7992 57.7 76.9992 61.9C76.5992 64 75.2992 65 73.6992 66.3C72.9992 66.9 72.2991 67.4 71.5991 68.1C68.5991 71.2 67.1991 78.8 68.0991 86.6C68.0991 87 68.2991 87.4 68.5991 87.7C68.4991 87.6 68.3992 87.6 68.2992 87.5C67.1992 86.2 65.9992 76.9 65.9992 75.4C65.9992 74.8 66.5992 69.4 66.7992 67.7C66.8992 67.2 66.6992 66.6 66.3992 66.2C66.0992 65.8 65.5991 65.5 65.0991 65.5C63.9991 65.4 62.9992 66.2 62.8992 67.3L62.6992 69.1C61.9992 69.4 57.8992 70.6 50.2992 70C49.7992 70 49.2992 70.1 48.8992 70.5C49.6992 68.1 49.8992 65.9 49.8992 65.7Z" fill="#729EFC"/>
</svg>
