<svg xmlns="http://www.w3.org/2000/svg" viewBox="0 0 85.44 90"><defs><style>.cls-1{fill:#5fa8ff;fill-rule:evenodd;}</style></defs><g id="Layer_2" data-name="Layer 2"><g id="Layer_1-2" data-name="Layer 1"><path class="cls-1" d="M65.52,82.12c0-1.54.11-3.08,0-4.6A24.72,24.72,0,0,1,68.69,63.1a10.84,10.84,0,0,0,1.16-6.78.5.5,0,0,1,0-.12c.33-3.56-1.76-4.91-4.45-5.87-2.1-.74-4.11-1.74-6.2-2.52a2.2,2.2,0,0,0-1.85,0c-3.52,3-7.55,3.12-11.73,2.82-3.47-.25-7-.34-10.43-.44a3.5,3.5,0,0,0-2,.42A2.47,2.47,0,0,1,30,50.47a.45.45,0,0,0-.21-.1c-.64,0-1.5-.35-1.84,0s-.25,1.28-.29,2,.21,1.65-.09,2.23c-1.54,3-.72,6,0,8.93a46.63,46.63,0,0,1,1.09,5.33c.29,2.37-1,4.26-2.13,6a4.25,4.25,0,0,0-.83,3.31c.36,1.87.68,3.76,1,5.64.1.54.23,1.09.28,1.64a1.83,1.83,0,0,1-1.35,2.2c-1.06.15-1.61-.59-1.94-1.51a11.32,11.32,0,0,1-.27-1.76c-.39-2.31-.88-4.59-1.17-6.91a5.75,5.75,0,0,1,.42-2.75,26.26,26.26,0,0,1,1.9-3.23,5.47,5.47,0,0,0,.63-4.29c-.38-1.57-.87-3.1-1.27-4.66a13.81,13.81,0,0,1,.24-8.5c.48-1.3.17-3,.06-4.49-.08-1.18-.51-2.33-.57-3.51-.1-1.79,1.32-2.74,2.8-1.89s2.61,1.76,4,2.54a3,3,0,0,0,2,.59c4.41-1.27,8.8-.52,13.2,0,2.76.3,5.64.69,8-1.21a11.49,11.49,0,0,0,3.74-4.27c1.86-4.63,3.29-9.47,4.86-14.23.45-1.37.79-2.77,1.24-4.14a1.63,1.63,0,0,1,2.92-.68,23.17,23.17,0,0,1,2.37,3.34,5.12,5.12,0,0,0,3.61,2.43A9.78,9.78,0,0,1,77.79,32c.88,1,2.58,1.28,3.93,1.84.59.24,1.24.32,1.81.59a3.13,3.13,0,0,1,1.76,3.93q-.81,3-1.85,5.9a3.59,3.59,0,0,1-3.18,2.5c-1.5.17-3,.31-4.49.4a3.12,3.12,0,0,0-3.21,3.46,54.48,54.48,0,0,0,.54,6,14,14,0,0,1-1.78,8.8A21.15,21.15,0,0,0,68.8,77.25c.06,1.14.1,2.3.1,3.45,0,1.52.1,3,1.29,4.07a1.55,1.55,0,0,1,0,2.29,1.66,1.66,0,0,1-2.39.13A7.29,7.29,0,0,1,65.52,82.12ZM81.81,39a1.71,1.71,0,0,0-1.29-1.91c-.6-.19-1.23-.31-1.85-.45a5.51,5.51,0,0,1-3.88-2.44A4,4,0,0,0,71.9,32a8.42,8.42,0,0,1-5.32-2.36c-.85-.87-1.51-.41-1.88.8-1.18,3.83-2.37,7.66-3.67,11.44-.67,2-.37,2.92,1.46,3.66l4.65,1.91c1.69.71,2.07.58,2.91-1.14a3.42,3.42,0,0,1,3.18-2.22,46.6,46.6,0,0,0,4.83-.53C79.91,43.32,81.74,41.12,81.81,39Z"/><path class="cls-1" d="M45.62,10H19a6,6,0,0,0-.95,0c-1,.14-1.36.92-.71,1.79.39.52.91.93,1.35,1.42a1.74,1.74,0,0,1,.1,2.59c-.76.85-1.47.91-2.36,0C14.6,13.9,12.75,12,11,10c-1.14-1.26-1.07-2.51.13-3.82C12.65,4.43,14.26,2.73,15.87,1A4,4,0,0,1,17.06.22,1.53,1.53,0,0,1,19.11,1a1.69,1.69,0,0,1-.46,2.15,6.6,6.6,0,0,0-1.42,2.07c-.3.86.12,1.43,1.12,1.39,2.8-.1,5.61-.17,8.41-.17q22,0,43.91,0a17.09,17.09,0,0,0,2,.13c.56-.07,1.45-.32,1.54-.69A3.35,3.35,0,0,0,73.74,4c-.16-.35-.65-.49-.91-.8A1.84,1.84,0,0,1,72.58.72a1.43,1.43,0,0,1,2.3-.25Q78,3.59,81,6.86a1.86,1.86,0,0,1-.1,2.65Q78,12.69,75,15.8c-.63.66-1.36.92-2.11.2a1.81,1.81,0,0,1-.31-2.51c.34-.51.9-.84,1.25-1.34a2,2,0,0,0,.43-1.31,1.47,1.47,0,0,0-1-.83,24.45,24.45,0,0,0-2.84,0H45.62Z"/><path class="cls-1" d="M6.06,57.68q0-11,0-22a30.89,30.89,0,0,0,0-3.19c-.12-1.26-.9-1.56-1.83-.76-.49.42-.9,1-1.39,1.39A1.6,1.6,0,0,1,.44,33a1.82,1.82,0,0,1,.2-2.52c1.85-2,3.69-4,5.56-5.94A1.73,1.73,0,0,1,9,24.45c1.89,1.93,3.75,3.91,5.56,5.93a2,2,0,0,1,.12,2.84c-.73.7-1.75.49-2.56-.52,0,0-.05-.08-.08-.1L9.7,31.44a19.53,19.53,0,0,0-.52,2.48c-.07.8.12,1.61.13,2.42q0,20.08,0,40.18c0,1.37-.16,2.73-.15,4.09A2,2,0,0,0,9.66,82a1.59,1.59,0,0,0,1.39-.2,6.81,6.81,0,0,0,1.45-1.3,1.3,1.3,0,0,1,1.91-.3,1.77,1.77,0,0,1,.7,2.11,2.62,2.62,0,0,1-.55,1c-1.8,2-3.61,4-5.47,5.86-1.08,1.11-1.82,1.11-2.88,0-1.9-2-3.76-4-5.6-6.08a1.74,1.74,0,0,1-.14-2.5,1.37,1.37,0,0,1,2.28,0c.48.5,1,.92,1.53,1.4.8.78,1.65.55,1.8-.6a19.73,19.73,0,0,0,0-2.55V57.68Z"/><path class="cls-1" d="M57.3,79.11c0-1.54.05-3.08,0-4.61s-.52-2-1.91-2a13.84,13.84,0,0,1-6.58-1.83,15.44,15.44,0,0,0-7.44-1.89,1.84,1.84,0,0,0-1.91,1.55c-.85,2.86-1.95,5.58-4.25,7.49a3.27,3.27,0,0,0-1.06,4,35.31,35.31,0,0,1,1.06,4.84c.2,1.06,0,2-1.09,2.34-.9.28-1.7-.34-2-1.65-.65-2.77-1.31-5.53-1.88-8.31-.29-1.39.65-2.27,1.52-3A10.8,10.8,0,0,0,36.2,68c.11-1.83.76-2.39,2.43-2.39,2,0,4.11,0,6.15.13,2.48.12,4.59,1.51,6.83,2.44a18.54,18.54,0,0,0,2.81.94,3.59,3.59,0,0,0,3.87-1.3c.51-.62,1.08-1.18,2-.72a2.06,2.06,0,0,1,1.11,2.31A24.14,24.14,0,0,0,60.89,72c-.15,3.14-.36,6.29-.27,9.42a7.75,7.75,0,0,0,1.29,3.32c.5.88.76,1.57,0,2.38a1.41,1.41,0,0,1-2.3.06c-1.39-1.37-2.65-2.79-2.3-5.12a20.59,20.59,0,0,0,0-2.94Z"/></g></g></svg>