<svg xmlns="http://www.w3.org/2000/svg" viewBox="0 0 98.46 81"><defs><style>.cls-1{fill:#5fa8ff;}</style></defs><g id="Layer_2" data-name="Layer 2"><g id="Layer_1-2" data-name="Layer 1"><path class="cls-1" d="M96.6,32.68a13.92,13.92,0,0,0-11.09,4.57c-1.39,1.5-2.68,3.09-4,4.64L72.37,52.42c-.3.34-.55.75-1,.14a7.5,7.5,0,0,0-6.41-2.82c-3.62,0-7.24,0-10.86,0h-.28c-.32,0-.64,0-1,0l-.49,0-.3,0-.59,0-.58,0a9.93,9.93,0,0,1-2.06-.22c-.42,0-.85,0-1.28-.11l-.74-.13a19.38,19.38,0,0,1-6.22-2.49A59,59,0,0,0,24.14,40a21,21,0,0,0-13.09.83A28,28,0,0,0,0,49.24v17.1a2.49,2.49,0,0,0,2,1c1.72.15,3.44.35,5.15.55a55.72,55.72,0,0,1,13.42,3.18c5.95,2.27,11.72,5,17.57,7.5A27.34,27.34,0,0,0,48.8,81a28.43,28.43,0,0,0,10.45-2.17c4.6-1.78,9.07-3.86,13.83-5.21a20.12,20.12,0,0,0,13.06-11c1.7-3.51,3.21-7.12,4.79-10.69q3.64-8.25,7.27-16.52C98.87,33.92,98.19,32.72,96.6,32.68ZM90.3,44.9C87.93,50.26,85.64,55.65,83.17,61a16.63,16.63,0,0,1-11.08,9.37,121,121,0,0,0-12.58,4.71,28.65,28.65,0,0,1-10.28,2.52,23.94,23.94,0,0,1-9.78-2.09C33.63,73,27.88,70.29,22,68A59.5,59.5,0,0,0,7.73,64.57c-1.21-.15-2.42-.29-3.63-.39-.57,0-.78-.28-.78-.84q0-6.11,0-12.2a1.44,1.44,0,0,1,.45-1c4.34-4.51,9.38-7.55,15.88-7.32A29.4,29.4,0,0,1,28,44.72a63.19,63.19,0,0,1,11.68,5.57,20.81,20.81,0,0,0,10.73,2.85H65.24a4,4,0,0,1,4,2.68,4,4,0,0,1-3.88,5.27c-3.08,0-6.15,0-9.23,0-4.23,0-8.45,0-12.68,0a27.3,27.3,0,0,0-7.55,1.24c-.65.19-.79.45-.6,1.09.72,2.34.7,2.35,3.07,1.78a28.17,28.17,0,0,1,6.47-.74c6.72,0,13.45,0,20.18,0,4.44,0,7.33-2.58,7.84-7a2.39,2.39,0,0,1,.74-1.3q5.88-6.79,11.78-13.57l2.32-2.69a10.62,10.62,0,0,1,6.37-3.64Z"/><path class="cls-1" d="M67.44,5.75h0l.16-.1a.41.41,0,0,0,.11-.07l.46-.26.25-.12.14-.06.57-.25.35-.12.16,0,.53-.16.17,0a3.26,3.26,0,0,1,.45-.09l.17,0c.26,0,.53-.1.82-.13l.59,0h.29c.31,0,.64,0,1,0L73.38,5.3a.11.11,0,0,0,0,.11.11.11,0,0,0,.11,0l.14,0h.45l.53,0h.15c.19,0,.39.06.6.1l.25.06a6,6,0,0,1,.78.23l.07,0,.08,0,.29.12c.23.1.46.21.72.35h0l.19.11.1.06a9,9,0,0,1,.87.56l.34.25h0l.14.11.48.39.19.17.3.28L78.55,9.54a.14.14,0,0,0,0,.08h0a.08.08,0,0,0,0,.07,6.8,6.8,0,0,1,.53,1,5.46,5.46,0,0,1,.25.85s0,0,0,.09,0,.26.07.57c0,.1,0,.22,0,.35s0,.58.08,1h0a.14.14,0,0,0,0,.08h0l.06,0h0l.19,0h0l.09,0,.18,0,.32,0h0l.17,0h.19l.55-.06h.51l.54,0h0l.42,0,.18,0h.17l.34,0a3.29,3.29,0,0,1,.43.09l.16,0,.16,0a1.07,1.07,0,0,1,.27.06,1.88,1.88,0,0,1,.42.22l.09.06.14.07.15.08a1.67,1.67,0,0,1,.47.69,7.46,7.46,0,0,1,.29,3.07,11.48,11.48,0,0,1-.87,3.29,13.77,13.77,0,0,1-.8,1.58c-.23.39-.48.76-.74,1.12-.1.13-.21.24-.31.37s-.34.43-.53.63a4.31,4.31,0,0,1-.37.37c-.17.17-.35.35-.53.51s-.28.22-.43.33-.32.26-.49.37l-1.34-2a.13.13,0,0,0-.13-.05.13.13,0,0,0-.09.1A4,4,0,0,1,79,25.74a3.4,3.4,0,0,1-.84.89h0a3.18,3.18,0,0,1-1.4.58.11.11,0,0,0-.09.07.11.11,0,0,0,0,.11,16.74,16.74,0,0,1,2.14,5.87,17,17,0,0,1-.46,7.37l-1.88-1.06h0l0,0h0a.05.05,0,0,0,0,0h0a.11.11,0,0,0-.06.09h0c.06.64.08,1.28.09,1.92,0,.19,0,.38,0,.57,0,.46,0,.92-.06,1.38,0,.18,0,.36,0,.55,0,.62-.12,1.24-.23,1.86q-.11.63-.24,1.26c0,.13-.07.26-.1.39-.06.29-.13.57-.21.85s-.11.39-.17.58-.13.43-.2.65-.14.41-.22.62-.12.36-.19.54h0l-2.81-1.26a.11.11,0,0,0-.11,0,.1.1,0,0,0-.06.09L71.19,56h0c.22-.16.44-.32.67-.46a10.45,10.45,0,0,1,4.7-4.24c.2-.27.42-.53.64-.78A10.15,10.15,0,0,1,80.1,47.1c0-.15.06-.3.08-.46.13-.75.23-1.53.29-2.31A4,4,0,0,0,82.34,42,21.18,21.18,0,0,0,83,32.59c-.12-.72-.27-1.44-.46-2.14a3.83,3.83,0,0,0,.78-.4c5.38-3.52,8.38-11.1,6.56-16.56-.44-1.31-1.74-3.57-5.5-4.14a4.2,4.2,0,0,0,.13-.79,4.1,4.1,0,0,0-1.22-3.18,14.7,14.7,0,0,0-6.2-3.75A4,4,0,0,0,74,0l-.81,0a15.43,15.43,0,0,0-5.8,1.07A4.12,4.12,0,0,0,65,1c-6.34,1.82-10.45,8.5-12.22,19.87-1.49.31-5.3.81-14.3.81-2.27,0-4.43,0-6-.05h-.1a6.08,6.08,0,0,1,.28-1.36c1.13-3.49,5-4.63,5.21-4.67a4.08,4.08,0,0,0-.4-7.94,20.9,20.9,0,0,0-3.51-.31c-5.72,0-10.7,2.52-13.31,6.74l-.35.61a4,4,0,0,0-2,1.1,12.79,12.79,0,0,0-3.54,6.83,12.65,12.65,0,0,0,.25,5.3,38.91,38.91,0,0,0-3.55,6.36c-.44,1-.84,2-1.2,3a4.06,4.06,0,0,0,.12,2.95c-.13.3-.25.6-.36.91a21.11,21.11,0,0,0-.89,3.41A9.11,9.11,0,0,1,14,42.43c.13-.33.26-.66.41-1a16,16,0,0,1,1.55-2.7.12.12,0,0,0,0-.13.11.11,0,0,0-.11-.06H14.2c.31-.86.64-1.71,1-2.55a35.47,35.47,0,0,1,4.38-7.33.13.13,0,0,0,0-.13,8.44,8.44,0,0,1-.79-5.19,8.53,8.53,0,0,1,1.14-3,9.33,9.33,0,0,1,.69-1c.13-.16.27-.31.41-.46l1.56,2.88a.13.13,0,0,0,.2,0,.12.12,0,0,0,0-.09,9.63,9.63,0,0,1,1.33-5.4,9,9,0,0,1,.9-1.18,2.18,2.18,0,0,1,.21-.22l.12-.12a6.59,6.59,0,0,1,.76-.69,4.59,4.59,0,0,1,.44-.33,8.7,8.7,0,0,1,.84-.55l.07-.05.41-.22A9,9,0,0,1,29,12.49l.17-.07.23-.1A12.19,12.19,0,0,1,31,11.88l.18,0,.15,0a11.22,11.22,0,0,1,1.35-.19c.14,0,.28,0,.42,0h.17l.26,0a2.8,2.8,0,0,1,.58,0h.16a16.31,16.31,0,0,1,2,.15c-.21.07-.46.16-.75.28a11.83,11.83,0,0,0-6.81,7,10.61,10.61,0,0,0-.46,2.17,11.29,11.29,0,0,0,0,1.93,10.68,10.68,0,0,0,.23,1.56,8.93,8.93,0,0,0,.29,1.1.11.11,0,0,0,.12.08h1.79l3.5,0,1.88,0h5l2.14,0h.34l1.95-.07h.35l2-.1.43,0c.79-.05,1.41-.1,2-.16s1.14-.12,1.76-.21l.36-.05c.57-.08,1.05-.17,1.47-.26l.13,0,.08,0c.4-.1.76-.2,1.07-.31l.07,0,.11,0a3.82,3.82,0,0,0,.81-.43.39.39,0,0,0,.1-.08l0,0a1.18,1.18,0,0,0,.41-.57c0-.12.06-.39.12-.79C58.13,12.43,61.25,6.53,66,5.09l.33,1.35h0s0,0,0,0l0,0a0,0,0,0,0,0,0h0a.11.11,0,0,0,.09,0h0l.09-.09.08-.07h0a2.9,2.9,0,0,0,.22-.19l.1-.07L67.1,6l.29-.22Z"/></g></g></svg>