<svg width="121" height="75" viewBox="0 0 121 75" fill="none" xmlns="http://www.w3.org/2000/svg">
<path d="M80.2999 58.2C79.8999 58.2 79.4998 58.3 79.0998 58.5C78.3998 59.1 78.2999 60.1 78.8999 60.7C80.4999 62.7 83.1998 63.9 86.0998 64.1C86.2998 64.1 86.4998 64.1 86.6998 64.1C89.8998 64.1 92.8998 62.9 94.9998 60.8C95.5998 60.2 95.5998 59.2 94.9998 58.6C94.3998 58 93.3999 58 92.7999 58.6C91.1999 60.2 88.7999 61.1 86.2999 60.9C84.1999 60.8 82.3999 60 81.3999 58.7C81.0999 58.4 80.7999 58.2 80.2999 58.2Z" fill="white"/>
<path d="M118.6 38.7C117.1 36.6 114.9 35.5 112.6 35.5C112.4 35.5 112.1 35.5 111.9 35.5C110.2 30.6 107.3 26.2 103.6 22.9C98.8 18.7 93.1 16.4 87 16.4C80.9 16.4 75.1 18.6 70.4 22.9C69 24.2 67.7 25.6 66.5 27.1C66.2 26.7 65.8 26.4 65.4 26.1C67.5 25 69.2 23.5 70.7 21C71 20.5 71 19.8 70.7 19.3C68 15.2 65.2 13.5 60.1 12.8C60 12.6 59.8 12.5 59.7 12.3C60.1 8.5 58 4.6 56.1 1.5C55.9 1.2 55.6 0.9 55.2 0.8C50.4 -0.5 46.9 3.8 44 7.3C41.6 6.5 39 6 36.4 6C33.5 6 30.7 6.5 28 7.5L27.8001 7.19999C24.9001 3.69999 21.3 -0.600006 16.6 0.699994C16.2 0.799994 15.9 0.999991 15.7 1.39999C13.8 4.49999 11.7 8.39999 12.1 12.2C11.9 12.4 11.8 12.5 11.7 12.7C6.59998 13.4 3.8 15.1 1.1 19.2C0.8 19.7 0.8 20.4 1.1 20.9C2.8 23.5 4.60002 25.1 7.00002 26.3C6.50002 26.7 6.09998 27.2 5.69998 27.7C4.39998 29.5 3.69998 31.8 3.69998 34.2C3.69998 36.6 4.39998 38.9 5.69998 40.7C7.29998 42.8 9.40007 43.9 11.8001 43.8C12.6001 46.6 13.8001 49.2 15.3001 51.6C19.4001 58.1 26.9 62.2 35.4 62.5C35.8 62.5 36.1 62.5 36.5 62.5C44.5 62.5 51.9001 59 56.3001 53.1C56.4001 53 56.5 52.8 56.6 52.7C58.1 54.2 59.9 54.9 61.9 54.9C62.7 57.8 63.9 60.5 65.5 63C69.7 69.7 77.4 73.8 86.1 74.2C86.5 74.2 86.8 74.2 87.2 74.2C95.4 74.2 103 70.6 107.5 64.6C109.2 62.3 111.5 58.8 112.7 54.9C115.1 55 117.3 53.8 118.9 51.7C120.2 49.9 121 47.5 121 45.1C121 42.7 120 40.5 118.6 38.7ZM4.19998 20.3C5.89998 17.9 7.70007 16.8 10.8001 16.2C11.1001 18 12.6 19.4 14.4 19.6C13.5 21.2 12.7 22.9 12.1 24.7C11.8 24.7 11.6001 24.7 11.3001 24.7C7.60007 23.6 5.79998 22.5 4.19998 20.3ZM16.1 15.4C16.1 16 15.6 16.5 15 16.5C14.4 16.5 13.9 16 13.9 15.4C13.9 14.8 14.4 14.3 15 14.3C15.6 14.3 16.1 14.8 16.1 15.4ZM20.2 12.5C19.8 12.9 19.3 13.3 18.9 13.7C18.3 12.2 16.8 11.2 15.1 11.2C15.2 8.69999 16.7 5.89999 17.9 3.89999C20.4 3.69999 22.7 6.4 25 9.1C23.3 10 21.7 11.1 20.2 12.5ZM11.7 28.1C11.8 28.1 12 28.2 12.1 28.2C12.3 28.2 12.4 28.2 12.6 28.1C13 28.2 13.5001 28.2 13.8001 28C14.2001 27.8 14.5 27.4 14.6 27C16 22.2 18.6 17.9 22.2 14.8C24.9 12.4 27.9 10.8 31.2 9.89999C30.8 11.3 30 13.2 29 14.9C27.6 17.3 26.5 17.9 26 17.9C25.1 17.8 24.4001 18.5 24.3001 19.4C24.3001 19.8 24.4 20.2 24.7 20.6C25 20.9 25.4001 21.1 25.8001 21.1C25.9001 21.1 26 21.1 26.1 21.1C28.1 21.1 30.0001 19.5 31.8001 16.5C33.1001 14.2 34.3 11.3 34.6 9.39999C35.1 9.39999 35.6 9.3 36 9.3C36.1 11 35.9 13.3 35.5 15.1C34.9 18 34 19 33.6 19.1C33.2 19.2 32.9 19.5 32.7 19.9C32.5 20.3 32.5 20.7 32.6 21.1C32.8 21.8 33.4 22.2 34.1 22.2C34.3 22.2 34.4 22.2 34.6 22.1C37 21.3 38.2 18.2 38.7 15.7C39.1 13.7 39.3 11.4 39.2 9.5C39.7 9.6 40.1 9.59999 40.6 9.69999C40.6 9.89999 40.6 9.99999 40.7 10.2C41.1 11.6 41.4 13 41.6 14.3C42 17.3 41.4 18.6 41 18.9C40.7 19.2 40.5 19.5 40.4 20C40.3 20.5 40.5 20.8 40.7 21.2C41 21.6 41.5 21.8 41.9 21.8C42.3 21.8 42.6 21.7 42.9 21.4C44.9 19.8 44.9 16.4 44.6 13.9C44.5 12.9 44.3 11.9 44 10.8C46.3 11.7 48.4 13.1 50.4 14.8C51.4 15.7 52.3 16.6 53.1 17.6C53.3 17.9 53.5 18.2 53.7 18.4C55.6 20.9 57.1 23.8 58 27C58 27.1 58.1 27.3 58.2 27.4C58.2 27.4 58.2001 27.5 58.3001 27.5C58.4001 27.6 58.5 27.7 58.6 27.8C58.7 27.8 58.7001 27.9 58.8001 27.9C58.8001 27.9 58.9 27.9 59 28H59.1C59.2 28 59.4 28.1 59.5 28.1H59.6C59.7 28.1 59.8 28.1 59.9 28.1H60C60.1 28.1 60.2001 28 60.3001 28C61.9001 27.6 63.4 28.2 64.6 29.7L64.7 29.8C63.7 31.6 62.8 33.4 62.1 35.4C59.5 35.1 57.1 36.3 55.4 38.6C54 40.4 53.3001 42.8 53.3001 45.2C53.3001 47 53.7 48.6 54.4 50.1C54.1 50.5 53.8 50.9 53.5 51.3C49.5 56.6 42.7001 59.6 35.3001 59.4C27.9001 59.1 21.3001 55.6 17.8001 50C16.2001 47.5 15.0001 44.7 14.3001 41.7C14.2001 41.3 13.9 40.9 13.6 40.7C13.2 40.5 12.8 40.4 12.4 40.5C10.9 40.9 9.3 40.3 8.1 38.8C7.2 37.6 6.69998 35.9 6.69998 34.2C6.69998 32.5 7.2 30.8 8.1 29.6C8.9 28.5 9.90002 27.9 11 27.8C11.3 28 11.5 28.1 11.7 28.1ZM60.7 24.7C60.1 22.9 59.2001 21.1 58.3001 19.4C59.7001 18.9 60.8 17.7 61 16.2C64.1 16.8 65.8 17.9 67.6 20.3C66 22.4 64.3 23.6 60.7 24.7ZM56.8001 16.5C56.5001 16.5 56.3 16.4 56.1 16.2C56 16.1 55.9001 15.9 55.8001 15.8C55.7001 15.7 55.7 15.5 55.7 15.4C55.7 14.8 56.2001 14.3 56.8001 14.3C57.4001 14.3 57.9 14.8 57.9 15.4C57.9 16 57.4001 16.5 56.8001 16.5ZM53.3001 13.1C53.1001 12.9 52.9 12.7 52.7 12.5C51 11 49.1 9.69999 47.2 8.69999C49.4 6.09999 51.6 3.69999 54 3.89999C55.2 5.89999 56.7001 8.69999 56.8001 11.2C55.3001 11.2 54.0001 12 53.3001 13.1ZM58 40.6C59.2 38.9 61 38.3 62.7 38.9C63.1 39.1 63.6 39 64 38.8C64.4 38.6 64.7001 38.2 64.8001 37.8C66.2001 32.8 68.9 28.5 72.6 25.2C75.4 22.7 78.5 21.1 81.9 20.2C81.5 21.7 80.6 23.7 79.6 25.4C78.2 27.9 77 28.5 76.6 28.5C76.2 28.5 75.8 28.6 75.4 28.9C75.1 29.2 74.9001 29.6 74.8001 30C74.8001 30.4 74.9 30.8 75.2 31.2C75.5 31.5 75.9001 31.7 76.3001 31.7C76.4001 31.7 76.5 31.7 76.6 31.7C78.6 31.7 80.6 30.1 82.4 27C83.8 24.7 84.9001 21.6 85.3001 19.6C85.8001 19.6 86.3001 19.5 86.8001 19.5C86.9001 21.2 86.7001 23.6 86.3001 25.5C85.7001 28.5 84.8001 29.5 84.3001 29.7C83.9001 29.8 83.6 30.1 83.4 30.5C83.2001 30.9 83.2001 31.3 83.3001 31.7C83.5001 32.4 84.1001 32.8 84.8001 32.8C85.0001 32.8 85.1001 32.8 85.3001 32.7C87.8001 31.9 88.9 28.7 89.4 26.1C89.8 24.1 90 21.6 90 19.7C90.5 19.8 91 19.9 91.5 20C91.5 20.2 91.5 20.3 91.6 20.5C92 21.9 92.3 23.4 92.5 24.7C92.9 27.6 92.4 29.1 91.9 29.5C91.6 29.8 91.4001 30.1 91.3001 30.6C91.3001 31 91.4 31.4 91.6 31.8C91.9 32.2 92.4001 32.4 92.8001 32.4C93.2001 32.4 93.5001 32.3 93.8001 32C95.8001 30.3 95.9 26.9 95.6 24.4C95.5 23.4 95.3 22.2 95 21.1C97.4 22.1 99.6 23.4 101.6 25.2C105.3 28.5 108 32.8 109.4 37.8C109.5 38.2 109.8 38.6 110.2 38.8C110.6 39 111 39 111.5 38.9C113.2 38.3 114.9 39 116.1 40.6C117 41.9 117.6 43.6 117.6 45.3C117.6 47 117.1 48.8 116.1 50C114.9 51.6 113.3 52.2 111.7 51.8C111.3 51.7 110.8 51.7 110.5 52C110.1 52.2 109.9 52.6 109.8 53C109.1 56 107.3 59.5 104.8 62.9C100.7 68.4 93.7 71.5 86.1 71.2C78.5 70.9 71.7 67.3 68.1 61.5C66.5 58.9 65.2 56 64.5 53C64.4 52.6 64.1001 52.2 63.8001 52C63.6001 51.9 63.3 51.8 63 51.8C62.9 51.8 62.7 51.8 62.6 51.9C61 52.4 59.3 51.7 58.2 50.1C57.3 48.8 56.7 47.1 56.7 45.4C56.5 43.5 57.1 41.9 58 40.6Z" fill="white"/>
<path d="M78.8002 51.9C80.3002 51.9 81.5001 50.6 81.5001 49C81.5001 47.4 80.3002 46.1 78.8002 46.1C77.3002 46.1 76.1001 47.4 76.1001 49C76.1001 50.6 77.3002 51.9 78.8002 51.9Z" fill="white"/>
<path d="M95.3002 51.9C96.8002 51.9 98.0001 50.6 98.0001 49C98.0001 47.4 96.8002 46.1 95.3002 46.1C93.8002 46.1 92.6001 47.4 92.6001 49C92.6001 50.6 93.8002 51.9 95.3002 51.9Z" fill="white"/>
<path d="M30.9 47.4C30.6 47.1 30.3 46.9 29.8 46.8C29.4 46.8 29 46.9 28.6 47.1C28.3 47.4 28.1 47.7 28 48.2C28 48.6 28.1 49 28.3 49.4C29.9 51.4 32.5 52.6 35.4 52.7C35.6 52.7 35.8 52.7 36 52.7C39.1 52.7 42.1 51.5 44.1 49.5C44.7 48.9 44.7 47.9 44.1 47.3C43.8 47 43.4 46.8 43 46.8C42.6 46.8 42.2 47 41.9 47.3C40.4 48.8 38 49.7 35.6 49.6C33.7 49.4 32 48.7 30.9 47.4Z" fill="white"/>
<path d="M25.9 40C26.8 40 27.5 39.3 27.5 38.4C27.5 38 28 37.6 28.6 37.6C29.2 37.6 29.7 37.9 29.7 38.3C29.8 38.7 30 39.1 30.3 39.3C30.6 39.5 31.1 39.6 31.5 39.6C31.9 39.5 32.3 39.3 32.5 39C32.7 38.7 32.8 38.2 32.8 37.8C32.5 35.9 30.7 34.5 28.5 34.5C26.1 34.5 24.2 36.3 24.2 38.4C24.3 39.3 25 40 25.9 40Z" fill="white"/>
<path d="M41.2001 39.7C41.6001 39.8 42.0002 39.7 42.4002 39.4C42.7002 39.2 43.0002 38.8 43.0002 38.4C43.1002 38 43.6001 37.7 44.1001 37.7C44.7001 37.7 45.2001 38.1 45.2001 38.5C45.2001 39.4 45.9002 40.1 46.8002 40.1C47.7002 40.1 48.4002 39.4 48.4002 38.5C48.4002 36.3 46.5001 34.6 44.1001 34.6C42.0001 34.6 40.2002 36 39.8002 37.9C39.7002 38.3 39.8001 38.7 40.1001 39.1C40.4001 39.4 40.8001 39.6 41.2001 39.7Z" fill="white"/>
</svg>
