<svg width="91" height="91" viewBox="0 0 91 91" fill="none" xmlns="http://www.w3.org/2000/svg">
<path d="M35.7 38.9C33.6 38.9 31.8999 40.6 31.8999 42.7C31.8999 44.8 33.6 46.5 35.7 46.5C37.8 46.5 39.5 44.8 39.5 42.7C39.5 40.6 37.8 38.9 35.7 38.9Z" fill="white"/>
<path d="M86.8 28C84.5 22.6 81.2999 17.8 77.2 13.7C73.1 9.60001 68.2999 6.30001 62.8999 4.10001C57.3999 1.80001 51.4999 0.600006 45.3999 0.600006C39.2999 0.600006 33.3999 1.80001 27.8999 4.10001C22.4999 6.40001 17.7001 9.60001 13.6001 13.7C9.5001 17.8 6.2 22.6 4 28C1.7 33.5 0.5 39.4 0.5 45.5C0.5 51.6 1.7 57.5 4 63C6.3 68.4 9.5001 73.2 13.6001 77.3C17.7001 81.4 22.4999 84.7 27.8999 86.9C33.3999 89.2 39.2999 90.4 45.3999 90.4C51.4999 90.4 57.3999 89.2 62.8999 86.9C68.2999 84.6 73.1 81.4 77.2 77.3C81.2999 73.2 84.6001 68.4 86.8 63C89.1001 57.5 90.3 51.6 90.3 45.5C90.4 39.4 89.2001 33.6 86.8 28ZM45.3999 5.10001C56.8999 5.10001 67.2001 9.90001 74.6001 17.6L63.1001 27.4C62.5001 26.8 61.9 26.2 61.2 25.7C57.1 22.4 52.2999 20.6 47.2 20.2C47.1 20.2 46.9 20.1 46.7 20.1C46.5 20.1 46.4 20.1 46.2 20.1C45.9 20.1 45.6999 20.1 45.3999 20.1C39.5999 20.1 34.1001 22 29.6001 25.6C25.6001 28.8 22.7 33.2 21.2 38C17.5 38.4 14.7 41.5 14.7 45.3C14.7 49.1 17.6 52.2 21.2 52.6C22 55.2 23.2 57.6 24.7 59.8L13.2 69.6C8.09995 62.8 5 54.4 5 45.3C5 23.3 23.0999 5.10001 45.3999 5.10001ZM37.7 55.1C38.1 56 38.7999 56.8 39.7 57.4C41.2 58.6 43.2999 59.2 45.3999 59.2C47.4999 59.2 49.6001 58.5 51.1001 57.4C52.8001 56.1 53.7 54.3 53.7 52.4C53.7 51.3 52.7999 50.4 51.7 50.4C50.6 50.4 49.7 51.3 49.7 52.4C49.7 53 49.3001 53.7 48.6001 54.2C47.8001 54.8 46.5999 55.2 45.3999 55.2C44.1999 55.2 43 54.8 42.2 54.2C41.5 53.7 41.1001 53 41.1001 52.4C41.1001 52.3 41.1001 52.3 41.1001 52.2L51.3999 43.5C51.7999 45.2 53.3001 46.5 55.1001 46.5C57.2001 46.5 58.8999 44.8 58.8999 42.7C58.8999 41.1 57.9 39.7 56.5 39.2L63.1001 33.6C64.5001 35.7 65.6 38.1 66.2 40.7L66.3999 41.3C66.4999 41.9 67.1 42.3 67.7 42.2L68.3 42.1C68.4 42.1 68.6 42.1 68.7 42.1C70.6 42.1 72.2 43.7 72.2 45.6C72.2 47.5 70.6 49.1 68.7 49.1C68.6 49.1 68.4 49.1 68.3 49.1L67.7 49C67.1 48.9 66.4999 49.3 66.3999 49.9L66.2 50.5C63.9 60.2 55.2999 67 45.3999 67C39.6999 67 34.5 64.8 30.7 61.1L37.7 55.1ZM27.6001 57.6C26.2001 55.5 25.1 53.1 24.5 50.5L24.3 49.9C24.2 49.4 23.7001 49 23.1001 49H23L22.3999 49.1C22.2999 49.1 22.1 49.1 22 49.1C20.1 49.1 18.5 47.5 18.5 45.6C18.5 43.7 20.1 42.1 22 42.1C22.1 42.1 22.2999 42.1 22.3999 42.1L23 42.2C23.6 42.3 24.2 41.9 24.3 41.3L24.5 40.7C26.2 33.6 31.2 28.1 37.7 25.6C37 26.9 36.6001 28.3 36.6001 29.9C36.6001 34 40.1 37.4 44.5 37.4C48 37.4 50.8 34.7 50.8 31.4C50.8 28.7 48.5001 26.4 45.6001 26.4C43.2001 26.4 41.3 28.3 41.3 30.6C41.3 31.7 42.2 32.5 43.2 32.5C44.2 32.5 45.1001 31.6 45.1001 30.6C45.1001 30.5 45.3001 30.3 45.6001 30.3C46.3001 30.3 46.8999 30.8 46.8999 31.4C46.8999 32.6 45.7999 33.6 44.3999 33.6C42.1999 33.6 40.3999 32 40.3999 29.9C40.3999 26.9 42.9001 24.5 46.1001 24.3C51.4001 24.5 56.3 26.7 60 30.1L27.6001 57.6ZM45.3999 85.9C33.8999 85.9 23.6 81.1 16.2 73.4L27.7 63.6C28.3 64.2 28.9001 64.8 29.6001 65.3C34.1001 68.9 39.5999 70.8 45.3999 70.8C51.1999 70.8 56.7 68.9 61.2 65.3C65.2 62.1 68.1001 57.7 69.6001 52.9C73.3001 52.5 76.1001 49.4 76.1001 45.6C76.1001 41.8 73.2001 38.7 69.6001 38.3C68.8001 35.7 67.6001 33.3 66.1001 31.1L77.6001 21.3C82.7001 28.1 85.8 36.5 85.8 45.6C85.7001 67.8 67.5999 85.9 45.3999 85.9Z" fill="white"/>
</svg>
