<svg width="82" height="83" viewBox="0 0 82 83" fill="none" xmlns="http://www.w3.org/2000/svg">
<path d="M81.8002 6.2C81.8002 29.6 81.8002 53 81.8002 76.4C81.7002 76.7 81.6002 77 81.5002 77.3C80.5002 80.2 77.8002 82.2 74.7002 82.2C52.2002 82.2 29.8002 82.2 7.30017 82.2C3.40017 82.2 0.200195 79 0.200195 75.1C0.200195 52.6 0.200195 30.1 0.200195 7.60001C0.200195 5.80001 0.800177 4.3 1.90018 3C3.00018 1.7 4.40018 1 6.00018 0.5C29.4002 0.5 52.7002 0.5 76.0002 0.5C79.1002 1.3 81.0002 3.2 81.8002 6.2ZM41.0002 77.2C51.9002 77.2 62.9002 77.2 73.8002 77.2C76.0002 77.2 76.8002 76.3 76.8002 74.2C76.8002 52.3 76.8002 30.4 76.8002 8.5C76.8002 6.2 75.9002 5.39999 73.6002 5.39999C51.7002 5.39999 29.9002 5.39999 8.00018 5.39999C5.90018 5.39999 5.00018 6.3 5.00018 8.5C5.00018 30.4 5.00018 52.2 5.00018 74.1C5.00018 76.4 5.80019 77.2 8.10019 77.2C19.2002 77.2 30.1002 77.2 41.0002 77.2Z" fill="#729EFC"/>
<path d="M40.9999 10.5C50.9999 10.5 60.1 13.5 68.2 19.4C69.8 20.6 69.9999 21.9 68.7999 23.6C64.7999 29 60.8 34.3 56.7 39.7C55.5 41.2 54.1999 41.5 52.5999 40.3C45.5 35.2 36.4 35.2 29.2 40.2C27.5 41.4 26.1999 41.2 24.9999 39.5C20.9999 34.2 16.9999 28.9 12.9999 23.6C11.7999 21.9 11.9999 20.6 13.5999 19.4C19.8999 14.8 26.9 12 34.7 10.9C36.8 10.6 38.8999 10.4 40.9999 10.5ZM38.2999 27.6C38.2999 26.6 38.2999 25.6 38.2999 24.7C38.2999 23.1 39.2999 22 40.7999 22C42.1999 22 43.2 23.1 43.2 24.7C43.2 26.7 43.2 28.8 43.2 30.8C43.2 31.4 43.3999 31.7 43.9999 31.7C47.1999 32.1 50.2999 33.1 53.0999 34.7C53.5999 35 53.9 34.9 54.2 34.4C57.1 30.5 59.9999 26.7 62.8999 22.8C63.2999 22.3 63.2 22 62.7 21.7C61 20.6 59.1999 19.7 57.3999 18.9C49.8999 15.7 42.0999 14.7 34.0999 16C28.5999 16.9 23.5999 18.8 18.8999 21.7C18.4999 22 18.0999 22.2 18.5999 22.7C21.5999 26.6 24.4999 30.6 27.4999 34.5C27.7999 34.9 27.9999 35 28.3999 34.7C31.2999 33.1 34.2999 32 37.5999 31.6C38.0999 31.5 38.3999 31.3 38.2999 30.8C38.2999 29.7 38.2999 28.7 38.2999 27.6Z" fill="#729EFC"/>
</svg>
