<svg width="116" height="89" viewBox="0 0 116 89" fill="none" xmlns="http://www.w3.org/2000/svg">
<path d="M115.3 5C114.8 4.3 114 3.8 112.9 3.7L112.2 3.6C110.1 3.4 108.1 3.2 106 3C105 2.9 104.2 2.5 103.5 2C100.7 2.86102e-06 96.8998 -0.499997 93.2998 0.600003C89.6998 1.7 86.6998 4.3 85.3998 7.6C85.1998 8 84.9998 8.5 84.8998 8.9C84.3998 10.2 83.8998 11.6 83.1998 12.9C81.2998 16.7 78.2998 19.1 73.7998 20.5C70.9998 21.3 67.8998 21.8 64.3998 21.9C60.8998 22 57.3998 21.9 53.8998 21.8C51.0998 21.7 48.2998 21.6 45.4998 21.7C40.6998 21.7 36.5998 22 32.5998 22.9C31.4998 23.2 30.4998 23.1 29.3998 22.7C21.3998 20 15.3998 16.8 10.3998 12.6C7.59978 10.3 5.5998 8 4.1998 5.5C3.8998 4.9 3.0998 3.7 1.5998 4.2C-0.000202417 4.8 0.199779 6.3 0.299779 6.9C0.699779 9.6 1.69979 12.2 3.49979 14.9C6.49979 19.6 10.7998 23.4 16.9998 27.1C18.3998 27.9 19.7998 28.7 21.1998 29.4L21.8998 29.8C22.5998 30.1 22.5998 30.5 22.4998 31C20.7998 36.1 20.5998 41.5 21.8998 47.5C22.3998 49.8 22.2998 52.2 21.4998 54.7C20.7998 56.8 20.0998 58.9 19.1998 60.7C18.8998 61.4 18.5998 62.2 18.3998 62.9C15.5998 65.6 13.8998 69 13.1998 73.1C12.9998 74.5 12.9998 75.9 12.9998 77.3C12.9998 77.7 12.9998 78.1 12.9998 78.5C12.9998 78.6 12.9998 78.6 12.9998 78.6H12.8998C12.4998 78.6 12.0998 78.6 11.6998 78.6C10.5998 78.6 9.49979 78.6 8.39979 78.7C5.59978 79 3.69979 81.3 3.89979 84.2C3.99979 86.7 6.29979 88.9 8.89979 88.9H46.9998C48.2998 88.9 49.0998 88.1 49.0998 86.7V83.9C49.0998 81.7 48.0998 80.1 46.1998 79.1C46.0998 79.1 46.0998 79 46.0998 78.9C46.0998 77 46.0998 75.2 46.0998 73.3V70.5C46.0998 70.3 46.0998 70.2 46.1998 70C47.8998 66.8 47.8998 63.5 46.2998 60.3C46.0998 59.8 45.9998 59.4 46.1998 58.9C46.3998 58.4 46.7998 57.9 47.2998 57.6C47.7998 57.3 48.1998 57 48.6998 56.8C49.1998 56.5 49.5998 56.2 50.0998 56C50.6998 55.6 51.1998 55.3 51.5998 54.9C52.2998 54.3 52.7998 53.5 53.1998 52.5C58.2998 54.6 63.5998 55.6 68.7998 55.3C69.1998 55.3 69.2998 55.4 69.2998 55.4C69.2998 55.4 69.3998 55.5 69.3998 55.9C68.8998 61.1 69.4998 66.3 70.0998 71.3C70.1998 72.5 70.3998 73.6 70.4998 74.8C70.6998 77.2 70.4998 79.3 69.6998 81.3C69.0998 82.9 69.0998 84.2 69.7998 85.2C70.4998 86.1 71.7998 86.6 73.4998 86.4C73.7998 86.4 73.9998 86.3 74.2998 86.3L74.6998 86.2C75.3998 86.1 75.6998 86.2 75.9998 86.8C76.6998 88 77.9998 88.7 79.7998 88.7C81.4998 88.7 83.3998 88.8 85.3998 88.7C87.5998 88.6 89.0998 87.4 89.3998 85.3C89.6998 83.4 88.5998 81.8 86.5998 81.1C86.0998 80.9 85.8998 80.6 85.7998 79.9L85.6998 79.6C84.3998 75.5 84.3998 71 85.4998 65.2C85.7998 63.9 85.8998 62.6 86.0998 61.3C86.2998 60 86.4998 58.7 86.6998 57.4C87.3998 53.6 89.1998 50.6 91.9998 48.4C95.9998 45.2 97.2998 40.5 97.8998 37.2C98.3998 34.5 98.6998 31.6 98.5998 28.6C98.4998 24.7 100.4 21.8 104 19.9C105.8 19 107.6 18.3 109 17.8C110.8 17.1 112.2 15.9 113.3 14C114.3 12.2 115 10.2 115.6 8C115.9 6.6 115.8 5.7 115.3 5ZM88.7998 36.1C88.7998 36.4 88.8998 36.7 88.8998 37C89.7998 41.3 88.9998 45.1 86.3998 48.5C84.6998 50.8 83.5998 53.3 83.0998 56.1C82.7998 57.8 82.4998 59.6 82.1998 61.3L81.7998 64.1C81.4998 66.4 81.0998 68.7 80.7998 71C80.4998 73.6 80.9998 76.1 81.4998 78.5C81.5998 79.1 81.6998 79.6 81.7998 80.2C82.0998 81.7 82.6998 83.4 84.3998 84.4C82.9998 84.4 81.4998 84.4 80.0998 84.4C79.5998 84.4 79.3998 84.3 79.2998 84.3C79.1998 84.2 79.1998 83.9 79.1998 83.4C79.1998 82.5 79.2998 81.7 79.3998 80.8C79.5998 79.3 79.7998 77.7 79.5998 76C79.1998 71 78.5998 65.6 77.8998 60.1C77.4998 57 77.0998 53.7 77.7998 50.5C78.1998 48.8 78.7998 47 79.3998 45.4C79.5998 44.9 79.7998 44.4 79.9998 43.9C80.6998 41.8 79.4998 41.1 78.9998 40.8C78.7998 40.7 78.4998 40.7 78.2998 40.7C78.0998 40.7 77.7998 40.7 77.5998 40.8C76.9998 41.1 76.5998 41.6 76.2998 42.5C76.0998 43 75.8998 43.5 75.6998 44C75.1998 45.2 74.6998 46.5 74.4998 47.8C74.1998 50.4 72.7998 50.9 70.6998 51C70.5998 51 70.5998 51 70.4998 51L70.5998 51.5L70.3998 51C64.5998 51.5 58.9998 50.5 53.6998 48.1V44.2C53.6998 44.1 53.6998 44 53.5998 44C53.0998 43.1 52.3998 42.7 51.2998 42.7C50.7998 42.7 50.1998 42.7 49.6998 42.7C50.9998 40.1 51.7998 37.6 52.1998 35.1C52.2998 34.3 52.1998 33.7 51.7998 33.2C51.4998 32.8 50.9998 32.5 50.4998 32.5C49.2998 32.4 48.3998 33.1 48.1998 34.5C47.8998 36.3 47.3998 38.2 46.3998 40.3C46.2998 40.5 46.1998 40.7 46.0998 41L44.2998 39.1C43.8998 38.7 43.5998 38.5 43.2998 38.3C43.1998 38.2 43.0998 38.2 42.9998 38.2H33.8998H33.7998L33.5998 38.3C31.2998 38.8 29.6998 40.2 28.7998 42.5C28.3998 43.6 27.8998 45.2 29.0998 46.8C29.1998 46.9 29.1998 47 29.2998 47.1C29.3998 47.2 29.3998 47.3 29.4998 47.5C29.7998 47.8 29.7998 48.2 29.7998 48.7C29.4998 52.4 27.8998 55.6 25.1998 58C24.9998 58.2 24.6998 58.4 24.4998 58.6C24.5998 58.4 24.5998 58.3 24.6998 58.1C24.7998 57.8 24.8998 57.6 24.9998 57.3C26.2998 53.7 26.4998 50 25.6998 46.1C24.6998 41.5 24.8998 37.1 26.1998 33C27.1998 30 26.2998 27.8 23.5998 26.5C21.4998 25.4 18.9998 24.1 16.6998 22.6C15.3998 21.7 14.1998 20.8 13.0998 19.9C17.2998 22.5 21.9998 24.8 27.6998 26.8C29.5998 27.5 31.6998 27.6 33.8998 27.2C35.1998 26.9 36.5998 26.7 37.9998 26.5C43.8998 26 49.8998 26.1 55.6998 26.3H56.5998C61.2998 26.4 65.8998 26.5 70.4998 25.8C77.1998 24.8 81.4998 22.5 84.6998 18.5C84.6998 18.6 84.7998 18.6 84.7998 18.6C85.4998 20.1 86.4998 21.5 87.9998 23.1C89.0998 24.2 90.4998 24.8 91.9998 24.6C93.4998 24.4 94.7998 23.4 95.4998 22C96.7998 19.4 96.8998 16.7 95.7998 14.1C95.0998 12.4 94.8998 10.9 95.2998 9.4C95.4998 8.6 95.1998 7.8 94.6998 7.3C93.9998 6.7 93.0998 6.6 92.3998 7.2C91.7998 7.6 91.5998 8.2 91.3998 8.8C90.8998 10.8 91.0998 13 91.9998 15.3C92.6998 16.9 92.6998 18.4 92.0998 19.9C91.8998 20.3 91.6998 20.5 91.4998 20.6C91.2998 20.6 90.9998 20.5 90.6998 20.2C89.7998 19.3 89.0998 18.3 88.4998 17.3C87.6998 15.7 86.9998 14 88.0998 12.1C88.3998 11.6 88.5998 11 88.7998 10.4L88.8998 10C89.5998 7.8 90.9998 6.4 93.0998 5.7C96.4998 4.5 99.1998 4.2 101.8 6.4C103 7.4 104.5 7.7 106 7.9C107.7 8.1 109.4 8.3 111.1 8.4C111.4 8.5 111.5 8.5 111.5 8.5C111.5 8.5 111.5 8.6 111.4 8.8C110.9 10.1 110.5 11.2 110 12.3C109.4 13.6 108.5 14.3 107.3 14.7C106.4 15 105.5 15.4 104.7 15.7C104.3 15.9 103.9 16 103.5 16.2C97.5998 18.7 94.5998 23.2 94.5998 29.7C94.5998 31.7 94.4998 34.1 94.0998 36.5C93.7998 37.9 93.5998 39.2 93.0998 40.3C93.0998 38.9 92.7998 37.5 92.3998 36C92.0998 34.8 91.0998 34.3 89.9998 34.5C89.2998 34.1 88.6998 35.1 88.7998 36.1ZM42.7998 59.1C42.6998 59.9 42.8998 60.7 43.2998 61.3C44.6998 63.6 44.6998 65.8 43.2998 68.1C42.9998 68.6 42.7998 69.1 42.7998 69.7V79.9C42.7998 81.3 43.4998 82.1 44.9998 82.3C45.6998 82.4 46.0998 82.8 46.0998 83.4C46.0998 83.6 46.0998 83.8 46.0998 84C46.0998 84.2 46.0998 84.4 46.0998 84.6H44.1998C42.8998 84.6 41.6998 84.6 40.3998 84.6V71.4C40.3998 71.3 40.3998 71.2 40.3998 71.1V70.9C40.2998 69.8 39.3998 69.1 38.3998 69.1C37.3998 69.1 36.4998 70 36.4998 71.1C36.4998 71.8 36.4998 72.6 36.7998 73.3V79.7L36.6998 79.8C36.4998 79.7 36.3998 79.6 36.1998 79.5C35.5998 79.1 34.9998 78.9 34.2998 78.8C34.1998 78.8 34.0998 78.8 34.0998 78.5C33.6998 76.6 32.5998 75 31.0998 73.9C29.7998 73 28.2998 72.4 26.5998 72.3C25.9998 72.3 25.3998 72.4 24.9998 72.8C24.5998 73.1 24.3998 73.6 24.2998 74.1C24.2998 74.7 24.3998 75.2 24.7998 75.6C25.1998 76 25.6998 76.3 26.3998 76.3C28.6998 76.4 30.2998 78.1 30.3998 80.5C30.3998 81.7 31.1998 82.5 32.3998 82.6C33.9998 82.7 35.1998 83.4 35.9998 84.8C29.8998 84.8 23.6998 84.8 17.5998 84.8C17.5998 84.8 17.5998 84.8 17.5998 84.7C17.5998 83.5 17.5998 82.3 17.5998 81C17.5998 79.1 17.5998 77.1 17.5998 75.2C17.6998 70.8 19.5998 67.2 23.0998 64.5C23.7998 64 24.4998 63.5 25.1998 63C26.1998 62.3 27.1998 61.7 28.0998 60.9C30.5998 58.8 32.3998 56.1 33.4998 53L33.6998 53.3C34.0998 54 34.6998 54.4 35.3998 54.5C36.0998 54.5 36.6998 54.2 37.1998 53.5C38.5998 51.6 40.0998 49.6 41.4998 47.6C41.7998 47.1 42.0998 46.6 41.9998 45.9C41.7998 45 41.2998 44.5 40.4998 44.3C39.6998 44.1 38.9998 44.4 38.3998 45.1L37.5998 46.2C36.8998 47.1 36.2998 48 35.6998 48.9C34.7998 47.4 33.9998 45.9 33.0998 44.5C32.9998 44.3 32.9998 44.1 33.0998 43.9C33.4998 42.7 34.3998 42 35.6998 42C37.8998 42 40.0998 42 42.2998 42C42.3998 42 42.3998 42 42.5998 42.2L43.3998 43C43.9998 43.6 44.6998 44.3 45.2998 45C46.4998 46.3 49.3998 46.8 49.5998 46.8H51.4998C51.4998 47.1 51.4998 47.4 51.4998 47.8C51.4998 48.6 51.4998 49.5 51.3998 50.3C51.2998 51.1 50.8998 51.7 50.1998 52.1C49.2998 52.6 48.1998 53.3 47.0998 53.9C44.3998 54.7 43.0998 56.6 42.7998 59.1ZM73.9998 81.6C75.1998 78.5 74.9998 75.2 74.6998 72.2L74.4998 70.2C74.0998 66.7 73.5998 63.1 73.6998 59.4V58.8C73.6998 57.4 73.6998 56 73.8998 54.6V54.5C73.9998 57.1 74.2998 59.8 74.5998 62.4C74.7998 64.1 74.9998 65.8 75.1998 67.4C75.2998 68.5 75.3998 69.6 75.4998 70.7C75.7998 73.8 76.1998 77 75.7998 80.1C75.5998 81.6 75.5998 81.6 74.0998 81.7C73.9998 81.7 73.9998 81.7 73.8998 81.7C73.8998 81.8 73.9998 81.7 73.9998 81.6ZM13.3998 84.7C12.0998 84.7 10.6998 84.7 9.39979 84.7C8.99979 84.7 8.69979 84.6 8.49979 84.3C8.29979 84.1 8.1998 83.8 8.1998 83.6C8.1998 83 8.69979 82.5 9.39979 82.5H11.9998C12.3998 82.5 12.8998 82.5 13.2998 82.5C13.3998 83.2 13.3998 84 13.3998 84.7Z" fill="#729EFC"/>
</svg>
