<svg width="86" height="85" viewBox="0 0 86 85" fill="none" xmlns="http://www.w3.org/2000/svg">
<path d="M84.1002 15.8C80.5002 12.3 77.0002 8.70001 73.4002 5.20001C72.4002 4.20001 71.6002 3.40001 70.8002 2.70001C68.8002 0.900012 66.4002 0 63.5002 0C63.4002 0 63.3002 0 63.2002 0C60.9002 0 58.6002 0.999988 56.5002 2.79999C47.3002 10.9 40.2002 19 34.7002 27.5C31.3002 32.6 27.8002 37.8 24.5002 42.8C22.8002 45.3 21.1002 47.9 19.4002 50.4C17.2002 53.6 14.6002 56.6 12.0002 59.4C11.4002 60 10.9002 60.6 10.3002 61.2C9.30022 62.3 8.30022 63.4 7.30022 64.5C6.00022 65.9 4.80022 67.2 3.50022 68.6C1.10022 71.3 0.40022 74.5 1.50022 77.9C2.60022 81.2 5.00022 83.3 8.60022 84.1C9.20022 84.2 9.70022 84.3 10.3002 84.3C13.6002 84.3 16.8002 82.4 18.4002 79.5C20.1002 76.2 22.2002 72.4 24.8002 68.8C27.3002 65.3 30.2002 61.9 33.7002 58.4C35.8002 56.3 38.3002 55.9 41.2002 56.9C43.0002 57.6 44.8002 58.3 46.5002 59C47.5002 59.4 48.4002 59.2 49.1002 58.4C49.4002 58 49.8002 57.6 50.1002 57.3L50.6002 56.7C52.2002 54.9 52.1002 52.6 50.3002 51C48.8002 49.6 47.2002 48.2 45.6002 46.8C44.8002 46.1 44.1002 45.4 43.3002 44.8C43.2002 44.7 43.2002 44.7 43.1002 44.6C43.0002 44.6 42.9002 44.5 42.9002 44.5C42.9002 44.4 43.0002 44.2 43.0002 44.2C43.0002 44.2 43.0002 44.2 43.1002 44.3C43.1002 44.4 43.2002 44.4 43.2002 44.4C45.5002 46.5 47.9002 48.6 50.2002 50.7C51.9002 52.2 54.0002 52.3 55.5002 51C56.4002 50.2 56.9002 49.2 56.9002 48.1C56.9002 46.9 56.4002 45.8 55.5002 45C53.9002 43.6 52.3002 42.1 50.7002 40.7C49.9002 40 49.0002 39.2 48.2002 38.5L48.0002 38.3C47.8002 38.1 47.6002 37.9 47.4002 37.8C47.2002 37.6 47.2002 37.6 47.2002 37.6C47.2002 37.6 47.2002 37.5 47.3002 37.4L47.4002 37.5C47.5002 37.6 47.5002 37.6 47.6002 37.7C48.8002 38.8 50.0002 39.8 51.2002 40.9C52.7002 42.3 54.3002 43.7 55.9002 45C57.2002 46.2 59.0002 46.3 60.5002 45.4C61.9002 44.5 62.6002 42.9 62.3002 41.3C62.1002 40.2 61.4002 39.5 60.9002 39C58.1002 36.5 55.2002 34 52.4002 31.4L52.2002 31.3C52.1002 31.2 52.0002 31.2 52.0002 31.2C52.0002 31.2 52.0002 31.2 52.1002 31C52.1002 30.9 52.2002 30.9 52.2002 30.9C52.2002 30.9 52.3002 30.9 52.3002 31C54.5002 33 56.7002 35 58.9002 37L60.9002 38.8C61.8002 39.6 63.0002 40 64.1002 40C65.1002 39.9 66.1002 39.4 66.7002 38.6C68.1002 36.9 67.9002 34.6 66.3002 33.1C63.9002 30.9 61.4002 28.7 59.0002 26.5L58.6002 26.1C58.2002 25.7 57.8002 25.3 57.4002 25C57.3002 24.9 57.2002 24.8 57.2002 24.8C57.2002 24.8 57.2002 24.7 57.3002 24.6L57.4002 24.5C57.5002 24.5 57.5002 24.6 57.6002 24.7C58.3002 25.4 59.1002 26 59.8002 26.7C60.5002 27.4 61.3002 28 62.0002 28.7C63.5002 30.1 65.0002 31.4 66.6002 32.8C68.5002 34.4 70.7002 34.3 72.2002 32.6C72.9002 31.8 73.3002 30.9 73.2002 29.9C73.2002 28.8 72.6002 27.8 71.8002 27C70.2002 25.5 68.5002 24 66.9002 22.6C65.7002 21.5 64.4002 20.4 63.2002 19.3C63.1002 19.2 63.0002 19.2 63.0002 19.1L62.9002 19C63.0002 18.8 63.1002 18.8 63.1002 18.8C63.1002 18.8 63.2002 18.8 63.4002 19C65.6002 21 67.7002 22.9 69.9002 24.9L71.9002 26.7C72.4002 27.2 73.3002 27.9 74.5002 28C76.2002 28.2 77.7002 27.3 78.4002 25.8C79.2002 24.2 78.8002 22.4 77.5002 21.2C77.1002 20.8 76.6002 20.4 76.2002 20C76.5002 20.3 76.9002 20.6 77.2002 20.8L77.5002 21.1C79.4002 22.6 81.5002 22.5 83.2002 20.8C83.6002 20.4 84.0002 19.9 84.4002 19.5C85.4002 17.8 85.3002 16.9 84.1002 15.8ZM55.4002 27.6C57.6002 29.5 59.7002 31.4 61.9002 33.4C62.7002 34.1 63.4002 34.8 64.2002 35.5C64.4002 35.7 64.4002 35.8 64.3002 35.8C64.2002 35.9 64.2002 36 64.1002 36C64.0002 36 63.8002 35.9 63.7002 35.7L63.5002 35.5C60.7002 33 57.9002 30.4 55.0002 27.9C54.8002 27.7 54.8002 27.6 54.8002 27.6C54.8002 27.6 54.8002 27.5 55.0002 27.3C55.0002 27.2 55.1002 27.2 55.1002 27.2C55.2002 27.2 55.2002 27.3 55.3002 27.4L55.4002 27.6ZM54.8002 38L58.7002 41.5C59.0002 41.8 58.9002 41.9 58.8002 42C58.7002 42.1 58.7002 42.2 58.4002 42L58.3002 41.9C58.2002 41.9 58.2002 41.8 58.1002 41.7L49.8002 34.3L49.7002 34.2C49.8002 34 49.9002 33.9 50.0002 33.7C50.1002 33.8 50.1002 33.8 50.2002 33.9C51.8002 35.3 53.3002 36.6 54.8002 38ZM44.9002 41.5L45.2002 41.1C45.1002 41 45.1002 41 45.1002 41C45.1002 41 45.1002 40.9 45.2002 40.9C45.3002 40.8 45.4002 40.6 45.4002 40.5C45.4002 40.6 45.5002 40.6 45.5002 40.6L53.1002 47.4C53.5002 47.8 53.4002 47.8 53.3002 48C53.2002 48.1 53.1002 48.2 52.7002 47.8L45.1002 41L44.9002 41.5ZM65.6002 16.4L65.9002 16L65.8002 15.9C65.9002 15.8 66.1002 15.7 66.2002 15.5C69.1002 18.1 71.9002 20.7 74.8002 23.3C75.2002 23.6 75.1002 23.7 75.0002 23.8C75.0002 23.8 74.9002 23.9 74.8002 23.9C74.8002 23.9 74.7002 23.9 74.4002 23.7C71.5002 21.2 68.7002 18.6 65.8002 16L65.6002 16.4ZM39.9002 46.4C42.5002 48.7 45.1002 51 47.6002 53.4C48.0002 53.8 48.1002 53.9 48.1002 53.9C48.1002 53.9 48.1002 54 47.7002 54.4C47.5002 54.6 47.4002 54.7 47.3002 54.8C47.2002 55 47.0002 55.1 47.0002 55.1C46.9002 55.1 46.7002 55 46.5002 54.9L45.9002 54.7C44.9002 54.3 44.0002 53.9 43.0002 53.5C41.5002 52.9 40.2002 52.6 39.0002 52.6C35.8002 52.5 33.1002 53.5 31.0002 55.7C26.4002 60.4 23.0002 64.5 20.3002 68.6C18.4002 71.4 16.8002 74.4 15.2002 77.4C14.1002 79.4 12.4002 80.4 10.1002 80.4C7.70022 80.3 5.90022 79.2 5.00022 77C4.10022 74.8 4.50022 72.8 6.10022 71C7.20022 69.8 8.30022 68.6 9.40022 67.4C10.5002 66.2 11.7002 65 12.8002 63.7C13.5002 62.9 14.3002 62.1 15.0002 61.3C16.7002 59.5 18.5002 57.5 20.1002 55.5C23.2002 51.4 26.1002 47 28.9002 42.8C29.8002 41.4 30.7002 40 31.7002 38.6L33.3002 36.1C36.3002 31.5 39.5002 26.8 42.9002 22.3C47.9002 15.8 53.8002 10.2 58.8002 5.60001C60.4002 4.20001 62.1002 3.5 63.9002 3.5C65.6002 3.5 67.3002 4.20001 68.8002 5.60001C71.4002 8.10001 74.0002 10.7 76.5002 13.2C77.9002 14.6 79.3002 16 80.7002 17.4C80.5002 17.7 80.3002 17.9 80.2002 17.9C80.1002 17.9 79.9002 17.9 79.5002 17.5C76.5002 15 73.5002 12.4 70.5002 9.89999C69.2002 8.79999 68.6002 8.79999 67.3002 9.79999C65.3002 11.3 63.2002 13.1 61.0002 15.3C56.0002 20.3 51.2002 25.9 46.5002 32.3C44.0002 35.7 41.5002 39.4 39.4002 43.3C38.7002 44.8 38.8002 45.5 39.9002 46.4ZM69.7002 29.7C69.6002 29.8 69.6002 29.9 69.3002 29.9C69.2002 29.9 69.0002 29.7 68.8002 29.5C65.9002 26.9 63.0002 24.3 60.1002 21.8C60.0002 21.7 59.9002 21.6 59.9002 21.6C59.9002 21.6 59.9002 21.5 60.0002 21.5C60.1002 21.4 60.3002 21.2 60.3002 21.2C60.3002 21.2 60.4002 21.2 60.5002 21.3C62.2002 22.9 64.0002 24.5 65.7002 26L66.8002 27C67.7002 27.8 68.5002 28.5 69.3002 29.3C69.8002 29.6 69.7002 29.7 69.7002 29.7Z" fill="#729EFC"/>
<path d="M13.1003 64.4C12.3003 65.2 11.5003 66.1 10.8003 66.9C10.3003 67.5 10.2003 68.2 10.5003 68.9C10.8003 69.4 11.3003 69.8 12.0003 69.9H12.1003C12.7003 69.9 13.1003 69.7 13.5003 69.3L13.9003 68.9C14.5003 68.3 15.1003 67.6 15.7003 66.9C16.4003 66.1 16.4003 65 15.6003 64.3C14.8003 63.6 13.8003 63.6 13.1003 64.4Z" fill="#729EFC"/>
</svg>
