<svg width="95" height="81" viewBox="0 0 95 81" fill="none" xmlns="http://www.w3.org/2000/svg">
<path d="M60.2 17.3C60.3 7.8 67.8999 0.100006 77.3999 0.100006C86.9999 0.100006 94.6001 7.8 94.6001 17.3C94.6001 26.9 86.8999 34.5 77.3999 34.5C67.7999 34.5 60.2 26.8 60.2 17.3ZM91 17.3C91 9.7 84.9 3.60001 77.3 3.60001C69.8 3.60001 63.6001 9.70001 63.6001 17.2C63.6001 24.7 69.8 30.9 77.3 30.9C84.9 30.9 91 24.9 91 17.3Z" fill="white"/>
<path d="M79.2 13.9C79.2 15.5 79.2 17.1 79.2 18.8C79.2 19.2 79.1 19.5 79 19.9C78.7 20.5 77.9 20.9 77.3 20.8C76.6 20.7 75.9 20.2 75.8 19.4C75.8 19.2 75.7 19 75.7 18.8C75.7 15.5 75.7 12.2 75.7 9C75.7 7.8 76.4 7 77.5 7C78.5 7 79.3 7.8 79.3 8.9C79.2 10.5 79.2 12.2 79.2 13.9Z" fill="white"/>
<path d="M79.1001 24.1C79.1001 25.1 78.3 25.9 77.3 25.9C76.3 25.9 75.5 25.1 75.5 24.1C75.5 23.1 76.3 22.4 77.3 22.4C78.4 22.4 79.2001 23.2 79.1001 24.1Z" fill="white"/>
<path d="M70.8 44.7C70.7001 44.3 70.7001 44 70.6001 43.6C70.4001 42.4 70.2 41.1 69.7 39.9C68.1 36.4 65.6999 34.7 62.3999 34.6C62.0999 34.6 62 34.5 61.8 34.2C60.2001 31.9 57.9999 30.5 55.3999 29.8C55.0999 29.7 54.9 29.6 54.7 29.3C52.2 25.7 48.1999 24.1 43.8999 25C43.4999 25.1 43.3 25 43 24.8C39.7 22.3 35.7001 22.3 32.3 24.8C32 25 31.8 25 31.5 25C27.1 24.1 23.4 25.6 20.7 29.3C20.5 29.6 20.3 29.7 20 29.8C17.3 30.4 15.2001 31.9 13.6001 34.2C13.4001 34.5 13.2 34.6 12.8 34.6C11.8 34.6 10.8 34.8 9.80005 35.3C7.30005 36.6 5.69995 38.7 5.19995 41.5C4.49995 45.1 3.79995 48.9 3.19995 52.4C2.89995 54.1 2.60005 55.9 2.30005 57.6C2.00005 59.5 1.60005 61.4 1.30005 63.3L0.800049 66V68.6C1.40005 71.2 3.0001 73.1 5.6001 74.2C11.6001 76.8 17.8 78.5 24.8 79.5C29.3 80.1 33.6 80.5 37.8 80.5C39 80.5 40.3 80.5 41.5 80.4C47.1 80.1 52.3 79.5 57.3 78.3C62 77.2 66.2999 75.8 70.2 74C73.5 72.5 75.2 69.4 74.5 65.9C73.2 58.1 72 51.4 70.8 44.7ZM31.3999 53C32.3999 53 33.0001 52.3 33.1001 51.4C33.1001 50.4 32.5 49.7 31.5 49.6C30.7 49.5 29.9001 49.4 29.1001 49.4C28.0001 49.3 26.8 49.2 25.7 49C21.8 48.5 17.2 47.8 12.8 46C11.6 45.5 10.6 45 9.69995 44.3C8.59995 43.5 8.4999 43 8.8999 41.7C9.0999 41 9.5001 40.3 10.1001 39.6C11.1001 38.4 12.2999 38 13.8999 38.2C14.8999 38.4 15.5 38.1 16 37.1C17.3 34.8 19.1001 33.4 21.6001 33.1C22.4001 33 22.9 32.6 23.3 31.9C25 28.9 28.0999 27.6 31.3999 28.7C32.3999 29 33.2 28.9 34 28.1C36.1 26.1 39.1 26 41.2 28C42.1 28.9 43 29 44.3 28.7C47.3 27.8 50.5001 29.1 52.1001 31.9C52.5001 32.7 53.1 33.1 54 33.3C56.4 33.7 58.1999 34.9 59.3999 37.1C60.0999 38.3 60.5 38.5 61.8 38.4C63 38.3 64.2 38.7 65.2 39.6C66.2 40.5 66.8 41.7 66.8 43C66.8 43.6 66.4 44 65.8 44.5C64.5 45.5 63 46.2 61.8 46.6C58.1 48 54.2 48.6 51 49.1C49.2 49.4 47.3 49.5 45.5 49.7L44 49.8C42.9 49.9 42.3 50.6 42.3 51.7C42.3 52.2 42.5 52.6 42.8 52.9C43.1 53.2 43.6001 53.3 44.1001 53.3C52.0001 52.8 57.9 51.8 63.2 49.8C64.7999 49.2 66.1001 48.5 67.3 47.7C67.4 47.6 67.4 47.6 67.5 47.6C67.5 47.6 67.5 47.7 67.5 47.8C67.9 49.9 68.2001 52 68.6001 54.1C68.8001 55.4 69.1001 56.7 69.3 58C69.6001 60 70 62 70.3 63.9L70.8999 67.1C71.1999 69.1 70 70.5 68.7 71.1C65.7999 72.4 62.7001 73.5 59.6001 74.4C54.1001 75.9 48.2 76.9 42.2 77.2C41.2999 77.2 40.4 77.3 39.5 77.3C38.8 77.3 38.1 77.3 37.3 77.3C26.8 77.2 16.9999 75.5 8.3999 72C7.5999 71.7 6.79995 71.3 6.19995 71C4.69995 70.3 3.89995 68.8 4.19995 67.2C4.79995 63.5 5.49995 59.8 6.19995 56L7.19995 50.4C7.39995 49.5 7.49995 48.6 7.69995 47.7C7.69995 47.6 7.69995 47.5 7.69995 47.5C7.69995 47.5 7.7999 47.5 7.8999 47.6C10.9999 49.7 14.5 50.6 17.5 51.3C21.6 52.3 25.9001 52.8 30.6001 53.1C31.0001 53 31.1999 53 31.3999 53Z" fill="white"/>
<path d="M24.8999 71.7C27.2999 73 30.3 72.2 31.8 69.8C32 69.4 32.2999 69.3 32.6999 69.3C35.9999 69.3 39.4 69.3 42.8 69.3C43.3 69.3 43.4999 69.4 43.6999 69.8C44.8999 71.7 46.6 72.2 47.8 72.3C47.8 72.3 47.7999 72.3 47.8999 72.3C49.7999 72.3 51.6001 71.4 52.6001 69.8C53.6001 68.3 53.7 66.4 53 64.8C52.9 64.5 52.8 64.3 53 63.9C54.2 61.3 53.2 58.3 50.8 57C48.3 55.7 45.3 56.5 43.8 58.9C43.6 59.2 43.4 59.3 43 59.3C40 59.3 36.4999 59.3 32.8999 59.3C32.3999 59.3 32.0999 59.2 31.8999 58.7C30.3999 56.4 27.4 55.6 25 56.9C22.6 58.3 21.6 61.2 22.8 63.7C23 64 23 64.3 22.8 64.6C21.4 67.4 22.3999 70.4 24.8999 71.7ZM49.6999 60.9C50.0999 61.5 50 62.2 49.5 62.8C48.4 64.1 48.4 64.5 49.5 65.9C50 66.5 50.0999 67.2 49.6999 67.8C49.3999 68.4 48.7 68.8 48 68.7C47.3 68.6 46.8 68.2 46.5 67.4C46.1 66 45.5999 65.7 44.1999 65.7C42.6999 65.7 41.1999 65.7 39.6999 65.7H37.8H36.3C34.7 65.7 33.1 65.7 31.5 65.7C29.9 65.7 29.5 66 29 67.5C28.8 68.2 28.2 68.7 27.5 68.7C26.8 68.7 26.2 68.4 25.8 67.8C25.4 67.1 25.5 66.5 26 65.9C27.1 64.6 27.1 64.1 26 62.8C25.5 62.2 25.4 61.5 25.8 60.9C26.1 60.3 26.6 60 27.3 60C27.4 60 27.4 60 27.5 60C28.2 60.1 28.7 60.4 29 61.1C29.6 62.7 29.9001 62.9 31.6001 62.9C35.7001 62.9 39.7999 62.9 43.8999 62.9C45.5999 62.9 45.9 62.7 46.5 61.1C46.8 60.4 47.3 60 48 59.9C48.8 60 49.2999 60.3 49.6999 60.9Z" fill="white"/>
<path d="M10.6998 52.9C9.69985 52.8 8.99994 53.5 8.79994 54.6C8.29994 57.5 7.79994 60.3 7.29994 63.2C7.19994 63.8 7.29999 64.4 7.59999 64.8C7.89999 65.2 8.19985 65.4 8.69985 65.5C8.79985 65.5 8.89989 65.5 8.99989 65.5C9.89989 65.5 10.5999 64.9 10.7999 63.8C11.0999 62.3 11.4 60.7 11.6 59.2C11.8 58.3 11.9 57.3 12.1 56.4L12.2999 55C12.2999 53.8 11.5998 53 10.6998 52.9Z" fill="white"/>
<path d="M63.8 58C64 58.9 64.1 59.9 64.3 60.8L64.3998 61.6C64.4998 62.4 64.6998 63.3 64.8998 64.1C65.0998 64.9 65.8 65.5 66.6 65.5C66.7 65.5 66.8 65.5 66.8 65.5C67.7 65.4 68.3 64.6 68.3 63.7V63.6V63.5L68.1 62.5C67.6 59.8 67.1999 57.2 66.6999 54.5C66.5999 53.9 66.3 53.4 65.8 53.2C65.2 52.9 64.4999 52.9 63.9999 53.3C63.3999 53.7 63.1 54.4 63.3 55.2C63.5 56.1 63.6 57.1 63.8 58Z" fill="white"/>
<path d="M25.5 37.2C22.5 37.7 20.4001 39.4 19.3001 42.2C18.9001 43.1 19.3 44.1 20.2 44.5C20.4 44.6 20.6999 44.6 20.8999 44.6C21.5999 44.6 22.2 44.2 22.5 43.6C23.3 41.9 24.5 40.9 26.2 40.6C27.1 40.4 27.6001 39.7 27.6001 38.8C27.6001 38.3 27.4 37.8 27 37.5C26.5 37.3 26 37.2 25.5 37.2Z" fill="white"/>
<path d="M49.3001 40.6C51.1001 41 52.4 42 53.2 43.8C53.5 44.4 54.1 44.7 54.7 44.7C54.9 44.7 55.1 44.7 55.4 44.6C56.2 44.3 56.7 43.4 56.4 42.5C55.8 40 52.4 37.3 49.9 37.2C49 37.2 48.3002 37.8 48.1002 38.6C47.9002 39.6 48.4001 40.4 49.3001 40.6Z" fill="white"/>
<path d="M34.6999 35.1C35.0999 35.1 35.4999 35 35.8999 34.7C37.1999 33.8 38.3001 33.8 39.6001 34.7C40.5001 35.3 41.5001 35.2 42.1001 34.5C42.7001 33.7 42.6 32.7 41.8 31.9C40.7 30.9 39.3 30.5 37.8 30.5C36.2 30.5 34.8999 30.9 33.6999 32C32.8999 32.7 32.7999 33.8 33.3999 34.5C33.7999 34.9 34.1999 35.1 34.6999 35.1Z" fill="white"/>
<path d="M36.1 51.5C36.1 52 36.3 52.4 36.6 52.8C36.9 53.1 37.3 53.3 37.8 53.3C38.8 53.3 39.4999 52.5 39.4999 51.5C39.4999 51 39.2999 50.6 38.9999 50.2C38.6999 49.9 38.3 49.7 37.8 49.7C36.8 49.8 36 50.6 36.1 51.5Z" fill="white"/>
</svg>
