<svg width="82" height="89" viewBox="0 0 82 89" fill="none" xmlns="http://www.w3.org/2000/svg">
<path d="M81.6 40.2V14.2C81.9 10.4 75.3 7.2 75 7C74.9 7 74.9 7 74.8 7H66.8C65.5 7 64.7 7.7 64.7 8.8C64.7 9.5 64.9 9.9 65.1 10.2C65.5 10.6 66 10.8 66.8 10.8H73.6C76 10.8 77.9 12.7 77.9 15.1V39.1C77.8 40 77.2 42.7 76.2 43.7C63.4 56.6 50.4 69.5 37.6 82.3C37 83 36.3 83.5 35.5 83.8C33.3 84.5 31.5 84 29.6 82.1C24.6 77.1 19.5 72 14.5 67C12 64.5 9.40001 61.9 6.90001 59.5C6.70001 59.2 6.50002 59 6.30002 58.8C4.30002 56.5 4.30001 53.8 6.40001 51.7C9.10001 48.9 11.8 46.1 14.5 43.3C15.9 41.9 17.2 40.5 18.6 39.1C27 30.5 35.5 21.7 43.7 13.2C45.1 11.8 46.7 11 48.9 10.8H58.7C59.7 11 59.7 11 59.9 12C60.8 16 64.6 19.3 68.5 19.5C70.3 19.5 70.9 19.2 71.2 17.9C72.1 18.8 72.4 20.2 71.8 21.5C71.3 23 69.6 24.1 68.2 23.9C66.1 23.6 65.2 22.6 64.8 20.3C64.6 19 63.8 18.3 62.6 18.4C61.5 18.5 60.9 19.3 60.9 20.7C60.9 22.6 61.7 24.5 63.2 25.9C64.7 27.3 66.7 28.1 68.7 28C71 27.9 73.2 26.9 74.6 25.1C76 23.4 76.5 21.2 76.1 19.1C75.7 16.8 74.3 14.8 72.2 13.7C70.1 12.6 67.7 12.5 65.4 13.5C65.1 13.6 65 13.6 64.8 13.3C63.2 11.1 63.3 8.3 65 6.2C66.6 4.3 69.6 3.7 71.8 4.8C72.5 5.2 73.2 5.7 73.9 6.4C74.8 7.2 75.8 7.2 76.6 6.5C77.4 5.7 77.5 4.6 76.7 3.7C76.6 3.6 76.5 3.5 76.4 3.4C76.2 3.2 76 2.9 75.7 2.7C73.2 0.499999 69.8 -0.300001 66.7 0.599999C63.6 1.5 61.2 3.7 60.2 6.9C60.1 7.3 59.9 7.4 59.5 7.4C55.8 7.3 52.2 7.4 48.5 7.3C45.5 7.2 42.9 8.3 40.7 10.6C35.8 15.7 31 20.7 26.2 25.6C18.6 33.3 11 41.2 3.50002 48.9C-0.399982 52.9 -0.399976 58.2 3.60002 62.2C8.20002 66.8 12.9 71.5 17.6 76C18.7 77.1 19.8 78.2 20.9 79.3C23 81.5 25.2 83.7 27.4 85.8C29.1 87.4 31.1 88.2 33.5 88.2C33.9 88.2 34.4 88.2 34.9 88.1C37 87.8 38.8 86.8 40.4 85.2L79.8 45.8C81.3 43.8 81.9 42 81.6 40.2Z" fill="#729EFC"/>
</svg>
