<svg width="97" height="98" viewBox="0 0 97 98" fill="none" xmlns="http://www.w3.org/2000/svg">
<path d="M78.2003 18.3C76.2003 18.3 74.2003 17.5 72.9003 16.1C71.5003 14.7 70.8003 12.9 70.8003 11C70.8003 6.5 72.8003 3 76.4003 1L76.9003 0.699997H79.8003L80.3003 1C83.8003 3.1 85.7003 6.39999 85.8003 10.9C85.9003 12.8 85.1003 14.7 83.8003 16.1C82.3003 17.4 80.3003 18.3 78.2003 18.3ZM77.9003 4.7C75.8003 6.1 74.8003 8.1 74.8003 11C74.8003 11.8 75.1003 12.6 75.7003 13.2C76.4003 13.9 77.3003 14.2 78.2003 14.2C79.2003 14.2 80.1003 13.8 80.7003 13.1C81.3003 12.5 81.6003 11.7 81.6003 10.8C81.5003 7.9 80.5003 5.9 78.5003 4.5H77.9003V4.7Z" fill="#729EFC"/>
<path d="M61.8 18.3C59.7 18.3 57.8 17.5 56.4 16C55 14.6 54.3 12.7 54.4 10.8C54.6 6.3 56.4 3 60 1L60.5 0.699997H63.4L63.9 1C67.4 3 69.2 6.3 69.4 10.8C69.5 12.8 68.8 14.6 67.4 16.1C65.8 17.4 63.8 18.3 61.8 18.3ZM61.5 4.7C59.5 6 58.5 7.99999 58.4 10.9C58.4 11.8 58.7 12.6 59.3 13.2C59.9 13.9 60.9 14.3 61.8 14.3C62.8 14.3 63.7 13.9 64.4 13.2C65 12.6 65.3 11.7 65.3 10.9C65.2 8.09999 64.1 6 62.2 4.7H61.5Z" fill="#729EFC"/>
<path d="M7.6002 75.6C4.6002 75.6 1.8002 73.7 0.600195 70.8C0.500195 70.6 0.400196 70.4 0.300196 70.1L0.200195 69.8V66.4L0.300196 66.1C0.900196 64 1.7002 61.6 3.7002 59.7C5.2002 58.2 6.7002 57.9 7.7002 57.9C8.7002 57.9 10.2002 58.2 11.7002 59.8C13.9002 62.1 15.1002 64.9 15.1002 67.9C15.2002 71.6 12.7002 74.8 9.0002 75.5C8.5002 75.6 8.0002 75.6 7.6002 75.6ZM4.1002 69C4.1002 69.1 4.2002 69.2 4.2002 69.3C4.9002 70.9 6.5002 71.9 8.1002 71.6C9.8002 71.3 11.0002 69.8 10.9002 68.1C10.9002 66 10.1002 64.2 8.6002 62.6C7.9002 61.8 7.3002 61.6 6.3002 62.6C5.2002 63.7 4.6002 65.1 4.1002 67V69Z" fill="#729EFC"/>
<path d="M60.7 51.2C57.8 51.2 54.9 50.2 52.7 48.4C50.7 46.7 49.5 44.2 49.5 41.7C49.5 39.2 50.7 36.7 52.7 35L52.8 34.9C53 34.7 53.2 34.6 53.4 34.4C54.8 33.4 55.8 31.9 56.5 29.8C57.8 25.7 60.5 22.7 64.3 21C68.6 19 72.9 19.3 77 21.9C80.2 23.9 82.3 26.6 83.3 30.1C83.8 31.9 84.9 33.3 86.6 34.7C88.8 36.5 90 38.7 90.2 41C90.4 43.3 89.6 45.5 87.8 47.5C86.5 49 84.7 50.1 82.5 50.7C81.3 51 80.1 51.2 79.1 51.1C76.9 51.2 74.8 50.7 72.9 49.6C70.7 48.4 68.7 48.4 66.4 49.6C64.8 50.7 62.8 51.2 60.7 51.2ZM69.9 23.7C68.6 23.7 67.3 24 66 24.6C63.2 25.9 61.3 28 60.3 31C59.4 34 57.8 36.2 55.6 37.7C55.5 37.8 55.5 37.8 55.4 37.9C55.3 38 55.2 38 55.2 38.1C54 39.1 53.4 40.4 53.4 41.7C53.4 43.1 54 44.3 55.2 45.3C57.7 47.4 61.7 47.8 64.7 46.2C68.2 44.3 71.6 44.3 75 46.2C76.3 46.9 77.6 47.2 79.1 47.2H79.2H79.3C79.9 47.2 80.6 47.1 81.5 46.9C83 46.5 84.1 45.9 84.9 44.9C85.9 43.8 86.4 42.6 86.3 41.4C86.2 40.1 85.4 38.9 84.1 37.8C81.7 35.9 80.2 33.8 79.4 31.2C78.7 28.7 77.1 26.7 74.8 25.3C73.3 24.2 71.6 23.7 69.9 23.7Z" fill="#729EFC"/>
<path d="M17.0003 97.5C14.2003 97.5 11.6003 96.5 9.20033 94.6C7.20033 93 6.00033 90.6 5.90033 88.1C5.80033 85.5 7.00033 83.1 9.00033 81.3C9.30033 81 9.70033 80.7 10.1003 80.4C11.5003 79.4 12.4003 78.1 12.9003 76.4C13.9003 73 16.0003 70.2 19.1003 68.1C24.2003 64.6 31.1003 65.3 35.6003 69.6C37.8003 71.7 39.2003 74 39.9003 76.5C40.3003 78 41.2003 79.2 42.7003 80.4L42.9003 80.6C43.3003 80.9 43.8003 81.3 44.3003 81.8C46.2003 83.8 47.1003 86.4 46.8003 89C46.5003 91.6 44.9003 93.9 42.5003 95.4C40.5003 96.8 38.1003 97.4 35.5003 97.4C33.5003 97.4 31.5003 97 29.7003 95.9C27.6003 94.7 25.6003 94.7 23.1003 95.9C21.0003 97 19.0003 97.5 17.0003 97.5ZM26.5003 70C24.7003 70 23.0003 70.5 21.4003 71.6C19.0003 73.2 17.5003 75.2 16.8003 77.7C16.1003 80.2 14.6003 82.2 12.6003 83.7C12.3003 83.9 12.0003 84.1 11.8003 84.4C10.7003 85.4 10.1003 86.7 10.1003 88.1C10.1003 89.4 10.7003 90.7 11.9003 91.5C14.8003 93.8 18.0003 94.1 21.4003 92.4C25.1003 90.6 28.5003 90.6 31.8003 92.5C33.0003 93.2 34.3003 93.5 35.6003 93.4H35.7003H35.8003C37.6003 93.4 39.1003 93 40.5003 92.1C42.0003 91.2 42.8003 89.9 43.0003 88.5C43.2003 87.1 42.7003 85.7 41.6003 84.6C41.4003 84.3 41.0003 84.1 40.7003 83.8L40.5003 83.6C38.4003 81.9 37.0003 80 36.3003 77.7C35.8003 75.9 34.7003 74.2 33.0003 72.5C31.1003 70.9 28.8003 70 26.5003 70Z" fill="#729EFC"/>
<path d="M89.0004 29.3C86.8004 29.3 84.8004 28.4 83.4004 26.8C81.9004 25.1 81.3004 22.8 81.6004 20.4C82.0004 17.5 83.2004 15.2 85.1004 13.3C87.4004 11 90.4004 11 92.7004 13.3C95.0004 15.6 96.3004 18.5 96.4004 21.8C96.4004 23.8 95.7004 25.6 94.3004 27.1C93.0004 28.5 91.0004 29.3 89.0004 29.3ZM89.0004 15.6C88.7004 15.6 88.3004 15.8 87.9004 16.2C86.6004 17.4 85.8004 19 85.5004 21C85.3004 22.2 85.6004 23.4 86.3004 24.2C86.9004 24.9 87.8004 25.3 88.9004 25.3C89.9004 25.3 90.8004 24.9 91.5004 24.2C92.1004 23.6 92.5004 22.7 92.4004 21.8C92.4004 19.6 91.5004 17.7 89.9004 16.1C89.7004 15.8 89.4004 15.6 89.0004 15.6Z" fill="#729EFC"/>
<path d="M45.5002 75.6C43.5002 75.6 41.6002 74.8 40.2002 73.4C38.8002 72 38.0002 70.1 38.1002 68.1C38.1002 64.8 39.4002 61.9 41.7002 59.6C44.0002 57.4 47.1002 57.3 49.3002 59.6C52.0002 62.2 52.8002 65.3 53.0002 67.4V67.6C53.0002 72.1 49.8002 75.6 45.5002 75.6ZM45.5002 61.9C45.2002 61.9 44.8002 62.1 44.5002 62.5C42.9002 64.1 42.1002 66 42.1002 68.2C42.1002 69.1 42.4002 70 43.1002 70.6C43.8002 71.3 44.6002 71.6 45.6002 71.6C47.6002 71.6 49.1002 70 49.1002 67.7C48.9002 66.2 48.4002 64.2 46.6002 62.5C46.2002 62.1 45.9002 61.9 45.5002 61.9Z" fill="#729EFC"/>
<path d="M50.8001 29.3C50.7001 29.3 50.5001 29.3 50.4001 29.3C46.3001 29.1 43.4001 25.6 43.5001 21V20.8C43.8001 17.9 45.1001 15.3 47.2001 13.2C49.4001 11 52.4001 11 54.7001 13.1C57.4001 15.7 58.7001 19 58.4001 22.6C58.1001 26.4 54.8001 29.3 50.8001 29.3ZM47.5001 21.2C47.5001 23.5 48.8001 25.2 50.6001 25.3C52.6001 25.4 54.3001 24.1 54.4001 22.4C54.6001 20 53.7001 17.9 51.9001 16.1C51.3001 15.6 50.8001 15.4 50.0001 16.1C48.6001 17.5 47.7001 19.3 47.5001 21.2Z" fill="#729EFC"/>
<path d="M18.1002 64.7C18.0002 64.7 17.9002 64.7 17.8002 64.7C13.8002 64.5 10.7002 61 10.8002 56.5V56.3C11.1002 53.3 12.4002 50.5 14.6002 48.5C16.8002 46.4 19.8002 46.4 22.0002 48.5C24.6002 51 25.9002 54.3 25.7002 57.8C25.5002 61.7 22.1002 64.7 18.1002 64.7ZM14.8002 56.7C14.8002 59 16.1002 60.7 18.0002 60.7C19.9002 60.8 21.6002 59.4 21.7002 57.7C21.8002 55.3 21.0002 53.2 19.2002 51.5C18.7002 51 18.2002 50.7 17.3002 51.5C15.4002 53.3 14.9002 55.5 14.8002 56.7Z" fill="#729EFC"/>
<path d="M34.7002 64.8C30.3002 64.8 27.2002 61.3 27.2002 56.6V56.4C27.5002 53.5 28.8002 50.7 30.9002 48.7C33.2002 46.5 36.2002 46.5 38.4002 48.7C40.8002 51 42.0002 53.8 42.1002 57.1C42.2002 59.2 41.4002 61.1 40.0002 62.5C38.7002 63.9 36.8002 64.8 34.7002 64.8ZM31.2002 56.7C31.2002 59.1 32.6002 60.8 34.7002 60.8C35.6002 60.8 36.5002 60.4 37.2002 59.7C37.9002 59 38.2002 58.1 38.2002 57.2C38.1002 55 37.3002 53.1 35.7002 51.6C35.0002 50.9 34.4002 50.9 33.7002 51.6C31.8002 53.4 31.3002 55.5 31.2002 56.7Z" fill="#729EFC"/>
</svg>
