<svg width="101" height="91" viewBox="0 0 101 91" fill="none" xmlns="http://www.w3.org/2000/svg">
<path d="M70.1001 54.4C70.0001 54 70.0001 53.7 69.9001 53.3C69.7001 52.1 69.5001 50.8 69.0001 49.6C67.4001 46.1 65.0001 44.4 61.7001 44.3C61.4001 44.3 61.3001 44.2 61.1001 43.9C59.5001 41.6 57.3001 40.2 54.7001 39.5C54.4001 39.4 54.2001 39.3 54.0001 39C51.5001 35.4 47.5001 33.8 43.2001 34.7C42.8001 34.8 42.6002 34.7 42.3002 34.5C39.0002 32 35.0001 32 31.6001 34.5C31.3001 34.7 31.1002 34.7 30.8002 34.7C26.4002 33.8 22.7001 35.3 20.0001 39C19.8001 39.3 19.6002 39.4 19.3002 39.5C16.6002 40.1 14.5001 41.6 12.9001 43.9C12.7001 44.2 12.5001 44.3 12.1001 44.3C11.1001 44.3 10.1001 44.5 9.1001 45C6.6001 46.3 5.00012 48.4 4.50012 51.2C3.80012 54.8 3.10012 58.6 2.50012 62.1C2.20012 63.8 1.9001 65.6 1.6001 67.3C1.3001 69.2 0.900098 71.1 0.600098 73L0.100098 75.7V78.3C0.700098 80.9 2.30015 82.8 4.90015 83.9C10.9001 86.5 17.1001 88.2 24.1001 89.2C28.6001 89.8 32.9001 90.2 37.1001 90.2C38.3001 90.2 39.6002 90.2 40.8002 90.1C46.4002 89.8 51.6001 89.2 56.6001 88C61.3001 86.9 65.6001 85.5 69.5001 83.7C72.8001 82.2 74.5002 79.1 73.8002 75.6C72.4002 67.8 71.3001 61.2 70.1001 54.4ZM30.6001 62.8C31.6001 62.8 32.2002 62.1 32.3002 61.2C32.3002 60.2 31.7001 59.5 30.7001 59.4C29.9001 59.3 29.1002 59.2 28.3002 59.2C27.2002 59.1 26.0001 59 24.9001 58.8C21.0001 58.3 16.4001 57.6 12.0001 55.8C10.8001 55.3 9.80015 54.8 8.90015 54.1C7.80015 53.3 7.7001 52.8 8.1001 51.5C8.3001 50.8 8.70017 50.1 9.30017 49.4C10.3002 48.2 11.5001 47.8 13.1001 48C14.1001 48.2 14.7001 47.9 15.2001 46.9C16.5001 44.6 18.3002 43.2 20.8002 42.9C21.6002 42.8 22.1001 42.4 22.5001 41.7C24.2001 38.7 27.3001 37.4 30.6001 38.5C31.6001 38.8 32.4001 38.7 33.2001 37.9C35.3001 35.9 38.3001 35.8 40.4001 37.8C41.3001 38.7 42.2001 38.8 43.5001 38.5C46.5001 37.6 49.7002 38.9 51.3002 41.7C51.7002 42.5 52.3001 42.9 53.2001 43.1C55.6001 43.5 57.4001 44.7 58.6001 46.9C59.3001 48.1 59.7001 48.3 61.0001 48.2C62.2001 48.1 63.4001 48.5 64.4001 49.4C65.4001 50.3 66.0001 51.5 66.0001 52.8C66.0001 53.4 65.6001 53.8 65.0001 54.3C63.7001 55.3 62.2001 56 61.0001 56.4C57.3001 57.8 53.4001 58.4 50.2001 58.9C48.4001 59.2 46.5001 59.3 44.7001 59.5L43.2001 59.6C42.1001 59.7 41.5001 60.4 41.5001 61.5C41.5001 62 41.7001 62.4 42.0001 62.7C42.3001 63 42.8002 63.1 43.3002 63.1C51.2002 62.6 57.1001 61.6 62.4001 59.6C64.0001 59 65.3001 58.3 66.5001 57.5C66.6001 57.4 66.6001 57.4 66.7001 57.4C66.7001 57.4 66.7001 57.5 66.7001 57.6C67.1001 59.7 67.4002 61.8 67.8002 63.9C68.0002 65.2 68.3001 66.5 68.5001 67.8C68.8001 69.8 69.2001 71.8 69.5001 73.7L70.1001 76.9C70.4001 78.9 69.2001 80.3 67.9001 80.9C65.0001 82.2 61.9002 83.3 58.8002 84.2C53.3002 85.7 47.4001 86.7 41.4001 87C40.5001 87 39.6001 87.1 38.7001 87.1C38.0001 87.1 37.3001 87.1 36.5001 87.1C26.0001 87 16.2001 85.3 7.6001 81.8C6.8001 81.5 6.00015 81.1 5.40015 80.8C3.90015 80.1 3.10015 78.6 3.40015 77C4.00015 73.3 4.70015 69.6 5.40015 65.8L6.40015 60.2C6.60015 59.3 6.70015 58.4 6.90015 57.5C6.90015 57.4 6.90015 57.3 6.90015 57.3C6.90015 57.3 7.0001 57.3 7.1001 57.4C10.2001 59.5 13.7001 60.4 16.7001 61.1C20.8001 62.1 25.1002 62.6 29.8002 62.9C30.2002 62.8 30.4001 62.8 30.6001 62.8Z" fill="white"/>
<path d="M24.1999 81.5C26.5999 82.8 29.6 82 31.1 79.6C31.3 79.2 31.6 79.1 32 79.1C35.3 79.1 38.7 79.1 42.1 79.1C42.6 79.1 42.8 79.2 43 79.6C44.2 81.5 45.9 82 47.1 82.1C47.1 82.1 47.0999 82.1 47.1999 82.1C49.0999 82.1 50.9 81.2 51.9 79.6C52.9 78.1 53 76.2 52.3 74.6C52.2 74.3 52.1 74.1 52.3 73.7C53.5 71.1 52.5 68.1 50.1 66.8C47.6 65.5 44.6 66.3 43.1 68.7C42.9 69 42.7 69.1 42.3 69.1C39.3 69.1 35.7999 69.1 32.1999 69.1C31.6999 69.1 31.3999 69 31.1999 68.5C29.6999 66.2 26.7 65.4 24.3 66.7C21.9 68.1 20.9 71 22.1 73.5C22.3 73.8 22.3 74.1 22.1 74.4C20.6 77.2 21.5999 80.1 24.1999 81.5ZM48.9 70.7C49.3 71.3 49.1999 72 48.6999 72.6C47.5999 73.9 47.5999 74.3 48.6999 75.7C49.1999 76.3 49.3 77 48.9 77.6C48.6 78.2 47.8999 78.6 47.1999 78.5C46.4999 78.4 45.9999 78 45.6999 77.2C45.2999 75.8 44.8 75.5 43.4 75.5C41.9 75.5 40.4 75.5 38.9 75.5H37H35.5C33.9 75.5 32.2999 75.5 30.6999 75.5C29.0999 75.5 28.6999 75.8 28.1999 77.3C27.9999 78 27.3999 78.5 26.6999 78.5C25.9999 78.5 25.4 78.2 25 77.6C24.6 76.9 24.6999 76.3 25.1999 75.7C26.2999 74.4 26.2999 73.9 25.1999 72.6C24.6999 72 24.6 71.3 25 70.7C25.3 70.1 25.8 69.8 26.5 69.8C26.6 69.8 26.5999 69.8 26.6999 69.8C27.3999 69.9 27.8999 70.2 28.1999 70.9C28.7999 72.5 29.1 72.7 30.8 72.7C34.9 72.7 39 72.7 43.1 72.7C44.8 72.7 45.0999 72.5 45.6999 70.9C45.9999 70.2 46.4999 69.8 47.1999 69.7C47.9999 69.7 48.6 70 48.9 70.7Z" fill="white"/>
<path d="M9.90016 62.7C8.90016 62.6 8.20014 63.3 8.00014 64.4C7.50014 67.3 7.00014 70.1 6.50014 73C6.40014 73.6 6.50019 74.2 6.80019 74.6C7.10019 75 7.40016 75.2 7.90016 75.3C8.00016 75.3 8.10009 75.3 8.20009 75.3C9.10009 75.3 9.80014 74.7 10.0001 73.6C10.3001 72.1 10.6002 70.5 10.8002 69C11.0002 68.1 11.1002 67.1 11.3002 66.2L11.5001 64.8C11.5001 63.6 10.8002 62.8 9.90016 62.7Z" fill="white"/>
<path d="M63.0002 67.7C63.2002 68.6 63.3002 69.6 63.5002 70.5L63.6002 71.3C63.7002 72.1 63.9002 73 64.1002 73.8C64.3002 74.6 65.0002 75.2 65.8002 75.2C65.9002 75.2 66.0002 75.2 66.0002 75.2C66.9002 75.1 67.5002 74.3 67.5002 73.4V73.3V73.2L67.3002 72.2C66.8002 69.5 66.4002 66.9 65.9002 64.2C65.8002 63.6 65.5002 63.1 65.0002 62.9C64.4002 62.6 63.7001 62.6 63.2001 63C62.6001 63.4 62.3002 64.1 62.5002 64.9C62.7002 65.9 62.9002 66.8 63.0002 67.7Z" fill="white"/>
<path d="M24.7002 47C21.7002 47.5 19.6003 49.2 18.5003 52C18.1003 52.9 18.5003 53.9 19.4003 54.3C19.6003 54.4 19.9002 54.4 20.1002 54.4C20.8002 54.4 21.4002 54 21.7002 53.4C22.5002 51.7 23.7003 50.7 25.4003 50.4C26.3003 50.2 26.8003 49.5 26.8003 48.6C26.8003 48.1 26.6002 47.6 26.2002 47.3C25.7002 47 25.2002 46.9 24.7002 47Z" fill="white"/>
<path d="M48.6003 50.4C50.4003 50.8 51.7003 51.8 52.5003 53.6C52.8003 54.2 53.4003 54.5 54.0003 54.5C54.2003 54.5 54.4002 54.5 54.7002 54.4C55.5002 54.1 56.0002 53.2 55.7002 52.3C55.1002 49.8 51.7002 47.1 49.2002 47C48.3002 47 47.6003 47.6 47.4003 48.4C47.1003 49.3 47.7003 50.2 48.6003 50.4Z" fill="white"/>
<path d="M33.9001 44.9C34.3001 44.9 34.7001 44.8 35.1001 44.5C36.4001 43.6 37.5001 43.6 38.8001 44.5C39.7001 45.1 40.7001 45 41.3001 44.3C41.9001 43.5 41.8001 42.5 41.0001 41.7C39.9001 40.7 38.5001 40.3 37.0001 40.3C35.4001 40.3 34.1001 40.7 32.9001 41.8C32.1001 42.5 32.0001 43.6 32.6001 44.3C33.0001 44.6 33.4001 44.9 33.9001 44.9Z" fill="white"/>
<path d="M35.3003 61.3C35.3003 61.8 35.5003 62.2 35.8003 62.6C36.1003 62.9 36.5002 63.1 37.0002 63.1C38.0002 63.1 38.7002 62.3 38.7002 61.3C38.7002 60.8 38.5002 60.4 38.2002 60C37.9002 59.7 37.5002 59.5 37.0002 59.5C36.0002 59.5 35.3003 60.3 35.3003 61.3Z" fill="white"/>
<path d="M100.8 34.2C100.5 33.8 100.1 33.8 99.7 33.8H99.5001C98.1001 33.8 96.7 33.8 95.2 33.8H93.1C91 33.8 91.0001 33.8 91.0001 31.7V0.2C91.0001 0.1 90.9001 0 90.8001 0H87.4001C87.3001 0 87.2 0.1 87.2 0.2V22.5C87.2 23.8 87.2 25 87.2 26.3C87.2 29.4 87.2 32.6 87.2 35.8C87.2 36.7 87.4 37.3 87.7 37.6C88.1 37.9 88.6001 38.1 89.5001 38C90.2001 37.9 91 38 91.7 38C92.1 38 92.5001 38 92.8001 38C93.3001 38 93.4001 38.1 93.4001 38.1C93.4001 38.1 93.4 38.2 93.1 38.6C90.2 42.3 87.4001 46 84.5001 49.8C84.1001 50.4 83.9001 50.4 83.5001 49.9C81.2001 46.9 78.9001 43.8 76.4001 40.7L74.4001 38.1H78.0001C80.8001 38.1 80.9001 38 80.9001 35.3V0.3C80.9001 0.2 80.8 0.0999999 80.7 0.0999999H77.3001C77.2001 0.0999999 77.1 0.2 77.1 0.3V31.8C77.1 34 77.1001 34 75.0001 34H73.0001C71.6001 34 70.2001 34 68.8001 34C68.7001 34 68.6001 34 68.5001 34C68.1001 34 67.5 33.9 67.2 34.5C67 35 67.3 35.4 67.6 35.7C67.7 35.8 67.7001 35.8 67.8001 35.9C69.6001 38.3 71.4001 40.6 73.3001 43C76.6001 47.3 79.8 51.5 83.1 55.8C83.4 56.2 83.8 56.6 84.2 56.6C84.7 56.6 85.0001 56.2 85.3001 55.8C88.5001 51.6 91.7001 47.4 95.0001 43.2C96.9001 40.7 98.8 38.2 100.7 35.7C100.7 35.6 100.8 35.6 100.8 35.5C100.7 35.2 101.1 34.8 100.8 34.2Z" fill="white"/>
</svg>
