<svg width="95" height="100" viewBox="0 0 95 100" fill="none" xmlns="http://www.w3.org/2000/svg">
<path d="M94.3997 7.29999C94.2997 6.29999 93.4997 5.49999 92.4997 5.39999C92.3997 5.39999 82.9997 4.19999 77.4997 0.399994C76.7997 -0.100006 75.7997 -0.100006 75.0997 0.399994C69.5997 4.19999 60.1997 5.39999 60.0997 5.39999C59.0997 5.49999 58.2997 6.29999 58.1997 7.29999C58.0997 8.29999 56.1997 31.5 75.1997 42.5C75.8997 42.9 76.6997 42.9 77.2997 42.5C96.3997 31.6 94.4997 8.29999 94.3997 7.29999ZM76.2997 38.2C63.3997 30 62.3997 14.5 62.3997 9.29999C65.2997 8.79999 71.4997 7.40001 76.2997 4.60001C81.0998 7.40001 87.2997 8.79999 90.1997 9.29999C90.1997 14.5 89.1997 30 76.2997 38.2Z" fill="white"/>
<path d="M27.5 46.9C27.4 46.8 27.3 46.8 27.2 46.8L24.2 47.3C23.9 47.3 23.8 47.6 23.8 47.8C26.8 66.2 23.5 73.5 20.3 76.4C18 78.3 14.9 79 12 78.3C11.9 78.3 11.8 78.3 11.7 78.3C11.1 78.2 10.6 78.1 10 78C9.9 78 9.79998 78 9.59998 78C9.49998 78.1 9.40002 78.2 9.40002 78.3L8.5 81.2C8.5 81.3 8.5 81.4 8.5 81.6C8.6 81.7 8.70005 81.8 8.80005 81.8C9.50005 82 10.3 82.2 11.1 82.3C12.2 82.6 13.3 82.7 14.5 82.7C17.6 82.7 20.7 81.6 23.1 79.6C29 74.4 30.6 63.6 28 47.3C27.7 47 27.6 46.9 27.5 46.9Z" fill="white"/>
<path d="M70.3999 45.9L52.9999 38.3C51.6999 31.9 46.6999 26.9 40.2999 25.7C39.0999 25.2 28.2999 21.5 18.0999 26.4C11.3999 29.6 6.59983 35.8 3.69983 44.9C2.19983 49.8 1.0999 54.8 0.399902 59.9C0.399902 60.2 0.599927 60.4 0.799927 60.4L3.8999 60.8C4.1999 60.8 4.3999 60.7 4.3999 60.4C4.9999 55.6 5.99988 50.8 7.49988 46.1C9.99988 38.2 14.0998 32.8 19.6998 30.1C28.5998 25.8 38.6999 29.5 38.7999 29.5L39.0999 29.6C48.3999 31.5 48.9999 39.5 48.9999 39.8C48.9999 40.6 49.4998 41.2 50.1998 41.5L59.3999 45.5C58.8999 47.4 59.0999 49.4 59.8999 51.1C60.9999 53.3 63.0998 55 66.1998 56.1C63.7998 64.2 58.8999 65.2 58.3999 65.4H40.4999C39.6999 65.3 38.8999 65.8 38.5999 66.5C32.9999 80.4 35.4998 91.1 38.6998 99.7C38.6998 99.8 38.7999 99.9 38.8999 100C38.9999 100 38.9999 100 39.0999 100C39.1999 100 39.1999 100 39.2999 100L42.1998 98.9C42.3998 98.8 42.5999 98.6 42.4999 98.3C39.6999 90.7 37.3999 81.3 41.7999 69.5H58.6998C59.1998 69.2 70.7999 67.7 71.3999 47.7C71.5999 47 71.0999 46.3 70.3999 45.9ZM63.2999 47.2L67.4999 49.1C67.3999 50.2 67.2998 51.2 67.1998 52.2C65.6998 51.7 64.4999 50.8 63.7999 49.4C63.3999 48.8 63.1999 48 63.2999 47.2Z" fill="white"/>
<path d="M42.9999 45.7C44.5999 45.7 45.8999 44.4 45.8999 42.8C45.8999 41.2 44.5999 39.9 42.9999 39.9C41.3999 39.9 40.0999 41.2 40.0999 42.8C40.0999 42.8 40.0999 42.8 40.0999 42.9C40.1999 44.4 41.3999 45.7 42.9999 45.7Z" fill="white"/>
</svg>
