<svg width="107" height="97" viewBox="0 0 107 97" fill="none" xmlns="http://www.w3.org/2000/svg">
<path d="M106.5 39.7C105.8 36.3 103.4 33.6 100.3 32.4C97.1 31.2 93.6 31.6 90.8 33.6C90.3 33.9 90.2 33.9 89.8 33.6C88.5 32.6 87.1 31.6 86 30.8C84.8 29.9 83.6 30 82.8 31.1C82 32.1 82.3 33.3 83.5 34.2C84.7 35.1 85.9 36 87 36.7C87.6 37.1 87.6 37.2 87.4 37.9C85.5 42.5 87.1 47.5 91.2 50.3C91.6 50.6 91.6 50.7 91.5 51.1C87.9 60.7 85 68.5 82.3 75.8C82.1 76.5 81.8 76.6 81.1 76.6C76 76.2 71.9 80 70.9 83.9C70.8 84.4 70.6 84.5 70.1 84.5C59 84.5 47.7 84.5 36.6 84.5C36.1 84.5 36 84.4 35.8 83.9C34.2 79 30.6 76.5 25.5 76.6C24.9 76.6 24.7 76.5 24.5 76C21.4 67.7 18.3 59.4 15.3 51.1C15.1 50.7 15.2 50.6 15.5 50.4C19.8 47.5 21.3 42.7 19.4 37.9C19.2 37.3 19.2 37.2 19.7 36.8C28.4 30.5 37.2 24.1 45.8 17.9C46.2 17.6 46.3 17.6 46.7 17.9C50.5 21.2 56.1 21.2 59.9 17.9C60.3 17.6 60.3 17.6 60.7 17.9C62.5 19.3 64.2 20.5 65.7 21.6C66.3 22 66.9 22.2 67.5 22.2C68.1 22.2 68.6 21.9 69 21.3C69.8 20.3 69.4 19 68.2 18.1C66.5 16.9 64.8 15.6 63.1 14.4C62.7 14.2 62.7 14 62.9 13.7C63.3 12.7 63.5 11.7 63.5 10.6C63.5 6.2 61.5 2.9 57.7 1.2C53.7 -0.799998 50 -0.199998 46.7 2.6C43.5 5.4 42.5 9.1 43.7 13.2C43.9 13.9 43.8 14.1 43.3 14.5C33 21.9 24.7 27.9 17.1 33.5C16.6 33.9 16.4 33.9 15.9 33.6C12.5 31.3 8.9 31.1 5.4 32.9C2.1 34.6 0.1 37.6 0 40.5C0 44.1 1.2 47.2 3.4 49.3C5.3 51.1 7.9 52 10.6 51.9C11 51.9 11 51.9 11.2 52.5L13.4 58.5C15.7 64.7 18 71 20.4 77.2C20.7 77.9 20.6 78.1 20 78.6C16.4 81.2 15 85.7 16.4 89.9C17.8 94.1 21.7 96.8 26.2 96.8C30.5 96.8 34.4 93.9 35.6 89.9C35.8 89.1 36.1 88.9 36.9 88.9C47.7 88.9 58.7 88.9 69.5 88.9C70.4 88.9 70.7 89.1 70.9 89.9C72.2 94.1 76.2 96.9 80.4 96.9C81.1 96.9 81.7 96.8 82.4 96.7C86.7 95.8 89.5 93 90.4 88.8C91.3 84.7 89.8 81.1 86.3 78.5C85.9 78.2 85.8 78.1 86 77.6C89.3 68.7 92.4 60.5 95.3 52.5C95.4 52.1 95.5 52 96 52.1C99.1 52.3 102.1 51 104.2 48.6C106.4 46 107.2 42.8 106.5 39.7ZM86.4 86.6C86.4 89.9 83.9 92.5 80.7 92.6C79.2 92.7 77.7 92 76.6 90.9C75.5 89.8 74.8 88.3 74.8 86.9C74.8 83.6 77.3 80.9 80.5 80.9C83.8 80.8 86.4 83.4 86.4 86.6ZM102.5 41.8C102.5 45 99.9 47.6 96.6 47.6C95.1 47.6 93.6 47 92.5 45.9C91.4 44.8 90.8 43.3 90.8 41.8C90.8 38.6 93.5 35.9 96.7 35.9C99.9 35.9 102.5 38.6 102.5 41.8ZM15.9 41.9C15.9 45 13.2 47.7 10 47.7C8.4 47.7 7 47.1 5.9 46C4.8 44.9 4.2 43.4 4.2 41.8C4.2 40.2 4.9 38.7 6 37.6C7.1 36.5 8.5 36 10 36H10.1C13.3 36 16 38.7 15.9 41.9ZM26.1 80.8C27.6 80.8 29 81.4 30.1 82.4C31.3 83.5 31.9 85 31.9 86.7C32 89.9 29.5 92.5 26.3 92.6H26.2C22.9 92.6 20.3 90.2 20.2 86.9C20.1 85.4 20.7 83.9 21.8 82.8C22.9 81.6 24.4 80.9 26 80.9C26 80.8 26 80.8 26.1 80.8ZM47.5 10.1C47.5 6.9 50.1 4.3 53.3 4.3C54.9 4.3 56.3 4.9 57.4 6C58.5 7.1 59.1 8.6 59.1 10.3C59.1 13.5 56.4 16 53.3 16C50.1 16 47.5 13.3 47.5 10.1Z" fill="#729EFC"/>
<path d="M76.4999 29.1C76.7999 29.2 77.0999 29.3 77.3999 29.3C77.6999 29.3 78.0999 29.2 78.3999 29C78.9999 28.6 79.3999 27.9 79.3999 27.1C79.4999 26.6 79.2999 26.1 78.8999 25.8C77.6999 24.7 76.3999 23.8 75.1999 23.2C74.2999 22.8 73.3999 23 72.6999 23.9C72.0999 24.8 72.0999 25.8 72.7999 26.5C73.9999 27.6 75.2999 28.5 76.4999 29.1Z" fill="#729EFC"/>
</svg>
