<svg width="98" height="99" viewBox="0 0 98 99" fill="none" xmlns="http://www.w3.org/2000/svg">
<path d="M0.5 14C0.6 13.7 0.700049 13.4 0.800049 13.1C1.30005 11.8 2.2001 11 3.6001 10.9C5.1001 10.8 6.1999 11.4 6.8999 12.7C7.1999 13.3 7.4001 13.9 7.6001 14.5C8.4001 16.8 10.4 17.6 12.5 18.4C13 18.6 13.5 18.3 14 18.2C16.2 17.5 17.8999 16.2 18.8999 14.2C20.4999 11.2 21.3 8.00001 21.5 4.60001C21.6 2.50001 22.9 0.999995 24.7 0.899995C26.7 0.799995 28.2 1.90001 28.5 4.10001C29.3 10.2 28.7 16.2 25.3 21.5C23.8 23.9 21.7001 25.7 19.1001 27C17.7001 27.7 17.7 27.7 18 29.2C19.1 34 20.5 38.7 23.3 42.9C25 45.4 27.1 47.5 29.5 49.2C30 49.6 30.5001 49.6 31.1001 49.4C37.0001 46.7 42.1 43 46.3 38C47.9 36.1 50.1 36.1 51.7 38C56 42.9 61.1 46.7 67 49.4C67.6 49.7 68.0001 49.6 68.6001 49.2C72.5001 46.6 75.3001 43 77.1001 38.7C78.5001 35.4 79.3999 32 80.2 28.6C80.2999 28 80.2001 27.6 79.6001 27.3C73.6001 24.5 70.7999 19.5 69.7 13.3C69.2 10.2 69.1 7.10001 69.7 4.10001C70 2.10001 71.5 0.900007 73.5 1.10001C75.3 1.20001 76.6 2.7 76.7 4.7C76.7999 8.1 77.7 11.3 79.2 14.3C80.3999 16.7 82.4 18.1 85 18.6C85.2 18.6 85.5 18.7 85.7 18.7C87.7 17.9 89.7 17.1 90.5 14.9C90.7 14.4 90.9001 13.8 91.1001 13.3C91.8001 11.8 93.0001 11 94.6001 11.2C96.0001 11.3 97.2 12.4 97.5 13.9C98.2 17.7 97.3 21 95 24.1C94 25.3 92.9 26.4 91.5 27.1C90.8 27.5 90.4999 27.9 90.3999 28.7C90.1999 31 89.4999 33.3 88.8999 35.7C89.9999 35.2 90.6001 34.3 91.3 33.6C92.1001 32.6 93.2 32 94.5 32.2C96.8 32.5 98 34.7 97 36.9C94.7 42.5 90.6001 46.1 84.8 47.7C83.8 48 82.9999 48.4 82.3999 49.4C81.5999 50.6 80.7 51.7 79.7 52.7C79.6 52.9 79.2999 53 79.3999 53.2C79.4999 53.5 79.8001 53.4 80.1001 53.4C81.0001 53.4 81.9 53.3 82.8 53.2C83.2001 53.2 83.7001 53.1 84.1001 53.1C85.9001 53.1 86.9999 53.9 87.3999 55.7C87.6999 57.1 87.1001 58.6 85.6001 59.3C83.1001 60.5 80.5 61.3 77.7 61.5C75.1 61.7 75.1 61.7 74.5 64.2C73.6 68.1 72.7 72.1 71.7 76C70.2 81.6 67.0999 86.1 62.3999 89.4C58.6999 92.1 54.9001 94.8 51.1001 97.5C50.7001 97.8 50.2999 98 49.8999 98.2C49.2999 98.2 48.6 98.2 48 98.2C47.6 98 47.1999 97.8 46.8999 97.5C43.0999 94.8 39.3 92.1 35.5 89.3C30.9 86 27.7 81.5 26.3 76C25.2 71.6 24.2001 67.1 23.1001 62.6C22.9001 61.9 22.7 61.5 21.8 61.5C18.6 61.4 15.4 60.6 12.5 59.2C11 58.5 10.2 57 10.5 55.5C10.9 53.8 12 52.9 13.8 52.9C15.2 52.9 16.4999 53.1 17.8999 53.1C18.0999 53.1 18.4 53.2 18.5 53C18.6 52.7 18.4 52.6 18.2 52.5C17.1 51.2 16 49.9 15 48.5C14.7 48.1 14.3999 47.8 13.8999 47.7C12.8999 47.5 11.8999 47.2 10.8999 46.7C6.1999 44.7 2.9 41.4 1 36.7C0.1 34.5 1.2 32.3 3.5 31.9C4.9 31.7 5.90005 32.3 6.80005 33.4C7.40005 34.2 8.1001 34.9 9.1001 35.5C8.6001 33.1 7.9001 30.9 7.6001 28.6C7.5001 27.8 7.2 27.3 6.5 26.9C5.3 26.2 4.3 25.4 3.5 24.4C1.9 22.6 0.999902 20.4 0.399902 18.1C0.499902 16.7 0.5 15.4 0.5 14ZM34.6001 51.5C35.6001 52.1 37.5999 52.6 39.3999 52.7C42.5999 52.9 44.5999 55.2 44.3999 58.3C44.1999 61 41.7 62.9 38.7 62.6C36.2 62.4 33.8 61.9 31.5 61C30.1 60.5 28.9 60.4 27.5 60.8C26.5 61.1 26.4 61.5 26.7 62.3C27.6 66 28.5 69.7 29.3 73.4C30.4 78.5 32.8 82.8 37 86C40.8 88.8 44.7 91.5 48.5 94.3C48.9 94.6 49.2999 94.6 49.7 94.3C53.5 91.6 57.3001 88.9 61.1001 86.1C64.4001 83.6 66.7001 80.3 68.1001 76.4C68.7001 74.7 68.9999 72.9 69.3999 71.2C70.0999 68.2 70.8 65.2 71.5 62.3C71.6 61.9 71.8999 61.3 71.3999 61.2C70.1999 61 69 60.2 67.7 60.8C65 61.9 62.2 62.5 59.2 62.8C56.7999 63 54.7 61.6 54 59.4C52.9 56.2 55.2 53.1 58.7 52.8C60.4 52.7 62 52.4 63.5 51.7C63.3 51.3 63 51.2 62.7 51.1C57.7999 48.5 53.5 45.2 49.8 41C49.2001 40.3 48.8 40.4 48.3 41C45.1 44.6 41.4 47.6 37.3 50C36.4 50.5 35.5001 51 34.6001 51.5ZM73.1001 4.8C72.7001 7.3 72.7 9.8 73 12.3C73.5 15.8 74.7999 19 77.3999 21.6C78.8999 23 80.6001 24 82.6001 24.7C83.8001 25.1 84.3001 25.8 84.1001 26.9C83.1001 31.9 81.8001 36.9 79.6001 41.5C75.7001 49.4 69.4999 54.1 60.8999 56C60.0999 56.2 59.3001 56.2 58.6001 56.3C57.6001 56.4 57.1001 57 57.1001 57.9C57.2001 58.7 57.7 59.2 58.7 59.2C59.1 59.2 59.5 59.2 59.8 59.1C62.5 58.8 65.1001 58.1 67.6001 57C68.2001 56.7 68.7999 56.7 69.3999 57C72.3999 58.1 75.4 58.3 78.5 57.9C80 57.7 81.6001 57.2 82.3 56.7C79.8 56.8 77.4 56.8 75 56.1C74.2 55.9 73.7 55.5 73.5 54.7C73.3 53.9 73.7001 53.4 74.3 52.9C76.7001 50.9 78.7999 48.7 80.3999 46C80.8999 45.3 81.4999 44.8 82.3999 44.7C86.8999 43.8 90.3999 41.5 92.7 37.5C92.7999 37.3 92.9999 37.1 92.8999 36.8C91.0999 38.6 89.1001 39.9 86.8 40.7C86 41 85.3001 41.1 84.6001 40.4C83.9001 39.7 84 39 84.3 38.2C85.7001 34.5 86.6 30.7 87 26.7C87.1 25.7 87.6 25.1 88.5 24.7C89.9 24.1 91 23.2 92 22C93.7 20 94.3999 17.2 93.8999 15.2C93.8999 15.3 93.8 15.3 93.8 15.4C92.6001 19.2 89.6 20.9 86.2 22.2C86 22.3 85.7 22.3 85.5 22.3C82.3 21.8 79.4 20.7 77.3 18C75.6001 15.8 74.7 13.3 74 10.7C73.5 8.6 73.3001 6.7 73.1001 4.8ZM15.7 56.7C19.8 58.3 24 58.5 28.2 57.1C29.1 56.8 29.9 56.8 30.8 57.2C33.5 58.4 36.4 59.1 39.3 59.2C40.2001 59.2 40.8999 58.7 40.8999 57.9C40.9999 57.1 40.4 56.4 39.5 56.3C38.8 56.2 38.2 56.2 37.5 56.1C29.9 54.8 24.1 50.8 20 44.4C16.7 39.2 15.2 33.4 14 27.4C13.7 25.8 14.0001 25.3 15.6001 24.7C18.7001 23.6 21.1 21.7 22.8 18.9C24.3 16.3 25 13.5 25.2 10.5C25.2 9.9 25.2 9.20001 25.2 8.60001C25.2 8.00001 25.2 7.3 25.2 6.7C25.2 6.1 25.1 5.49999 25 4.89999C24.8 5.09999 24.8 5.30001 24.8 5.60001C24.7 8.90001 23.7 11.9 22.5 14.9C20.6 19.3 17.2 21.4 12.7 22.2C12.4 22.2 12.0999 22.2 11.8999 22.1C8.4999 20.9 5.39995 19.2 4.19995 15.4C4.19995 15.3 4.2 15.1 4 15.2C4 16.2 3.89995 17.2 4.19995 18.2C4.99995 21.1 6.7 23.3 9.5 24.6C10.6 25.1 11.0001 25.8 11.1001 26.9C11.2001 27.7 11.2999 28.5 11.3999 29.2C11.9999 32.2 12.7 35.3 13.8 38.2C14.1 39 14.1001 39.7 13.6001 40.3C13.0001 41 12.1999 40.9 11.3999 40.6C10.0999 40.2 9.00005 39.6 7.80005 38.9C6.80005 38.2 5.9 37.4 5 36.6C5.5 37.8 6.2001 38.8 7.1001 39.8C9.4001 42.3 12.1 43.9 15.5 44.5C16.3 44.7 17.1001 44.9 17.6001 45.7C19.2001 48.4 21.3 50.7 23.8 52.7C24.4 53.2 24.9 53.9 24.7 54.8C24.5 55.7 23.8 56 23 56.2C20.4 56.7 18 56.7 15.7 56.7Z" fill="white"/>
<path d="M65.6 73.7C65.6 73.9 65.4998 74.3 65.3998 74.7C64.2998 78.3 62.3998 81.3 59.3998 83.5C56.4998 85.7 53.4999 87.8 50.4999 89.9C49.2999 90.7 48.9 90.7 47.8 89.9C44.6 87.6 41.3 85.5 38.3 83C35.5 80.7 33.6999 77.8 32.6999 74.3C32.5999 74.1 32.6 73.9 32.6 73.7C32.5 72.7 32.9998 71.9 33.8998 71.7C34.7998 71.5 35.4998 72 35.8998 73C36.1998 73.9 36.4 74.8 36.8 75.6C37.8 77.8 39.2999 79.6 41.1999 81.1C43.5999 82.9 46.0999 84.6 48.4999 86.4C48.9999 86.7 49.3 86.7 49.8 86.4C52.3 84.6 54.6999 82.9 57.1999 81.1C59.6999 79.2 61.4 76.7 62.3 73.6C62.4 73.4 62.3999 73.1 62.4999 72.9C62.7999 72.1 63.6998 71.7 64.3998 71.9C65.0998 71.9 65.6 72.6 65.6 73.7Z" fill="white"/>
</svg>
