<svg width="103" height="99" viewBox="0 0 103 99" fill="none" xmlns="http://www.w3.org/2000/svg">
<path d="M51.7998 98.5L7.99977 97.8C5.09977 98.3 2.99977 97 1.69977 94.4C-0.000228107 91.1 1.39977 87 4.69977 85.4C5.59977 85 5.99977 84.5 6.19977 83.4C6.59977 80.5 8.89978 78.3 11.7998 77.9C12.6998 77.8 12.7998 77.4 12.7998 76.7C12.7998 67 12.7998 57.4 12.7998 47.7C12.7998 46.9 12.4998 46.5 11.8998 46C10.2998 44.8 8.69978 43.6 7.09978 42.4C5.59978 41.2 5.59978 40 7.09978 38.9C21.4998 28.4 35.7998 17.9 50.1998 7.39999C51.2998 6.59999 51.9998 6.59999 53.1998 7.39999C56.8998 10.1 60.4998 12.8 64.1998 15.4C64.3998 15.6 64.6998 16 64.9998 15.8C65.2998 15.6 65.0998 15.3 65.0998 15C65.0998 14.1 65.0998 13.2 65.0998 12.3C65.0998 11.4 65.2998 10.3 63.9998 9.89999C63.4998 9.69999 63.3998 9.1 63.3998 8.5C63.3998 6.3 63.3998 4.09999 63.3998 1.89999C63.3998 0.799994 64.0998 0.100006 65.1998 0.100006C70.7998 0.100006 76.4998 0.100006 82.0998 0.100006C83.1998 0.100006 83.7998 0.799988 83.7998 1.79999C83.7998 4.09999 83.7998 6.30001 83.7998 8.60001C83.7998 9.40001 83.3998 9.99999 82.6998 10.3C82.1998 10.5 82.0998 10.8 82.0998 11.3C82.0998 16.9 82.0998 22.4 82.0998 28C82.0998 28.7 82.4998 29 82.8998 29.3C87.2998 32.5 91.6998 35.7 95.9998 38.9C96.5998 39.3 97.0998 39.7 97.1998 40.4C97.3998 41.3 96.8998 41.9 96.1998 42.5C94.4998 43.7 92.8998 45 91.1998 46.2C90.5998 46.6 90.4998 47 90.4998 47.7C90.4998 57.4 90.4998 67.1 90.4998 76.7C90.4998 77.5 90.6998 77.8 91.4998 77.9C94.5998 78.4 96.8998 80.8 97.1998 84C97.2998 84.8 97.7998 84.9 98.2998 85.2C101.1 86.5 102.6 89.2 102.3 92.4C102 95.1 99.7998 97.5 96.8998 98.1C96.1998 98.3 95.5998 98.2 94.8998 98.3H51.7998V98.5ZM87.0998 71.1C87.0998 63.5 87.0998 55.9 87.0998 48.3C87.0998 47.4 86.7998 46.8 86.0998 46.3C75.0998 38.2 64.0998 30.1 53.0998 21.9C52.2998 21.3 51.6998 21.3 50.8998 21.9C39.8998 30.1 28.7998 38.2 17.7998 46.3C17.0998 46.8 16.8998 47.4 16.8998 48.2C16.8998 63.4 16.8998 78.6 16.8998 93.8C16.8998 95.3 16.8998 95.3 18.2998 95.3H52.0998C52.8998 95.3 53.5998 94.6 53.5998 93.8V56.8C53.5998 54.7 54.2998 54.3 56.8998 54.5C63.5998 54.5 70.1998 54.5 76.8998 54.5C79.7998 54.3 80.5998 54.6 80.5998 56.9C80.5998 65.5 80.5998 74.2 80.5998 82.8C80.5998 86.6 80.5998 90.4 80.5998 94.2C80.5998 95 80.7998 95.4 81.6998 95.3C83.0998 95.2 84.4998 95.2 85.8998 95.3C86.9998 95.4 87.1998 95 87.1998 93.9C87.0998 86.3 87.0998 78.7 87.0998 71.1ZM56.8998 76.4C56.8998 82.2 56.8998 88 56.8998 93.8C56.8998 94.6 57.0998 94.9 57.9998 94.9C63.9998 94.9 69.9998 94.9 75.8998 94.9C76.7998 94.9 76.9998 94.6 76.9998 93.8C76.9998 82.2 76.9998 70.6 76.9998 59C76.9998 58.1 76.7998 57.8 75.8998 57.9C69.9998 57.9 63.9998 57.9 58.0998 57.9C57.1998 57.9 56.8998 58.2 56.8998 59.1C56.8998 64.8 56.8998 70.6 56.8998 76.4ZM92.2998 40.9C92.1998 40.5 91.6998 40.3 91.3998 40.1C78.5998 30.7 65.7998 21.4 52.9998 12C51.6998 11.1 51.6998 11.1 50.3998 12C41.3998 18.6 32.2998 25.3 23.1998 31.9C19.2998 34.7 15.4998 37.6 11.5998 40.4C10.9998 40.9 10.8998 41.2 11.5998 41.6C12.2998 42 12.8998 42.5 13.4998 43.1C14.1998 43.8 14.7998 43.7 15.4998 43.1C22.2998 38.1 29.0998 33.1 35.8998 28.2C40.5998 24.8 45.2998 21.4 49.9998 18C51.2998 17.1 51.8998 17.1 53.0998 18C53.6998 18.4 54.1998 18.8 54.7998 19.2C65.7998 27.2 76.6998 35.2 87.6998 43.2C88.3998 43.8 88.9998 43.7 89.5998 43.2C90.1998 42.6 90.8998 42.2 91.5998 41.7C92.0998 41.3 92.2998 41.2 92.2998 40.9ZM78.5998 26.2C78.5998 21 78.5998 16.1 78.5998 11.2C78.5998 10.6 78.1998 10.5 77.7998 10.5C75.0998 10.5 72.2998 10.5 69.5998 10.5C68.8998 10.5 68.6998 10.7 68.6998 11.4C68.6998 13.6 68.6998 15.8 68.6998 18C68.6998 18.6 68.8998 19 69.3998 19.3C70.4998 20.1 71.4998 20.8 72.5998 21.6C74.4998 23.1 76.3998 24.6 78.5998 26.2ZM90.6998 88.1C90.6998 90 90.6998 92 90.6998 93.9C90.6998 94.5 90.8998 94.9 91.5998 94.8C92.8998 94.8 94.2998 94.8 95.5998 94.8C96.5998 94.8 97.4998 94.4 98.1998 93.6C98.9998 92.6 99.1998 91.5 98.6998 90.2C98.0998 88.9 96.9998 88.3 95.5998 88.2C93.9998 88.1 93.3998 87.3 93.6998 85.7C93.6998 85.5 93.7998 85.3 93.7998 85.2C94.0998 83.7 92.9998 82.1 91.5998 81.6C90.8998 81.4 90.6998 81.5 90.6998 82.3C90.6998 84.3 90.6998 86.2 90.6998 88.1ZM12.7998 86C12.7998 84.9 12.7998 83.9 12.7998 82.8C12.7998 81.5 12.6998 81.3 11.6998 81.7C10.0998 82.3 9.39978 83.8 9.79978 85.8C10.0998 87.3 9.49977 88.1 7.99977 88.2C5.99977 88.3 4.49977 89.8 4.49977 91.6C4.59977 93.4 6.09978 94.8 8.09978 94.8C9.29978 94.8 10.4998 94.8 11.7998 94.8C12.4998 94.8 12.7998 94.6 12.7998 93.8C12.7998 91.3 12.7998 88.7 12.7998 86ZM73.6998 3.79999C72.1998 3.79999 70.5998 3.79999 69.0998 3.79999C66.7998 3.79999 67.0998 3.49999 66.9998 5.89999C66.9998 6.79999 67.2998 7 68.0998 7C71.3998 7 74.7998 7 78.0998 7C80.5998 7 80.1998 7.40001 80.2998 4.70001C80.2998 3.90001 79.9998 3.70001 79.2998 3.70001C77.4998 3.80001 75.5998 3.79999 73.6998 3.79999Z" fill="#729EFC"/>
<path d="M23.2998 67.8C23.2998 64.1 23.2998 60.3 23.2998 56.6C23.2998 54.4 24.2998 54.2 27.3998 54.6C32.6998 54.6 37.7998 54.6 43.0998 54.6C45.8998 54.1 46.9998 54.5 46.9998 56.5C46.9998 64.1 46.9998 71.7 46.9998 79.3C46.9998 81 46.1998 81.6 44.0998 81.3C37.9998 81.3 31.9998 81.3 25.8998 81.3C23.9998 81.5 23.2998 80.9 23.2998 79.2C23.2998 75.5 23.2998 71.7 23.2998 67.8ZM33.0998 62C33.0998 60.9 33.0998 59.8 33.0998 58.7C33.0998 58.1 32.8998 57.8 32.2998 57.8C30.5998 57.8 28.9998 57.8 27.2998 57.8C26.6998 57.8 26.4998 58 26.4998 58.6C26.4998 60.8 26.4998 63 26.4998 65.2C26.4998 65.8 26.7998 66.1 27.3998 66.1C28.9998 66.1 30.5998 66.1 32.2998 66.1C32.9998 66.1 33.1998 65.8 33.1998 65.1C33.0998 64.1 33.0998 63.1 33.0998 62ZM43.1998 62.1C43.1998 61 43.1998 59.8 43.1998 58.7C43.1998 58.1 42.9998 57.8 42.2998 57.8C40.5998 57.8 38.9998 57.8 37.2998 57.8C36.6998 57.8 36.4998 58 36.4998 58.6C36.4998 60.8 36.4998 63 36.4998 65.2C36.4998 65.8 36.6998 66 37.2998 66C38.9998 66 40.5998 66 42.2998 66C42.8998 66 43.1998 65.7 43.1998 65.1C43.1998 64.2 43.1998 63.1 43.1998 62.1ZM26.5998 73.9C26.5998 75 26.5998 76 26.5998 77.1C26.5998 77.7 26.7998 78 27.4998 78C29.1998 78 30.7998 78 32.4998 78C33.0998 78 33.2998 77.8 33.2998 77.2C33.2998 75 33.2998 72.8 33.2998 70.6C33.2998 69.9 32.9998 69.8 32.3998 69.8C30.7998 69.8 29.1998 69.8 27.4998 69.8C26.8998 69.8 26.5998 70 26.5998 70.7C26.5998 71.7 26.5998 72.8 26.5998 73.9ZM36.4998 74.6C36.4998 75.5 36.4998 76.4 36.4998 77.3C36.4998 77.8 36.6998 78 37.1998 78C38.8998 78 40.5998 78 42.2998 78C42.8998 78 43.0998 77.8 43.0998 77.2C43.0998 75 43.0998 72.8 43.0998 70.6C43.0998 70 42.8998 69.8 42.2998 69.8C40.5998 69.8 38.9998 69.8 37.2998 69.8C36.6998 69.8 36.3998 70.1 36.3998 70.7C36.4998 71.9 36.4998 73.2 36.4998 74.6Z" fill="#729EFC"/>
<path d="M63.5996 74.7C63.5996 75.7 62.7996 76.4 61.8996 76.4C60.8996 76.4 60.0996 75.6 60.0996 74.6C60.0996 73.6 60.8996 72.9 61.9996 72.9C62.9996 73 63.6996 73.7 63.5996 74.7Z" fill="#729EFC"/>
</svg>
