<svg width="96" height="91" viewBox="0 0 96 91" fill="none" xmlns="http://www.w3.org/2000/svg">
<path d="M30.2 5C28.4 5 26.8 5 25.2 5C24.5 5 23.8 4.9 23.1 4.8C22.5 4.7 22 4.49999 21.9 3.69999C21.8 2.99999 22.0001 2.3 22.8001 2C23.1001 1.9 23.5001 1.69999 23.8001 1.69999C27.0001 1.69999 30.3 1.59999 33.5 1.69999C34.4 1.69999 35.4 1.8 35.7 2.8C36.1 3.8 35.6 4.69999 34.9 5.39999C32.6 7.89999 30.4 10.4 28.1 12.9C27.8 13.2 27.5 13.6 27.2 14C27.5 14.3 27.8 14.2 28.1 14.2C30 14.2 31.9 14.2 33.9 14.2C34.4 14.2 34.9 14.2 35.4 14.4C36.2 14.6 36.7 15.1 36.7 15.9C36.7 16.8 36.2 17.3 35.4 17.5C35.1 17.6 34.7001 17.6 34.3001 17.6C30.8001 17.6 27.3001 17.6 23.8001 17.6C23.5001 17.6 23.2 17.6 22.9 17.5C21.1 17.2 20.5 15.6 21.7 14.2C23.8 11.8 25.9 9.49999 28 7.19999C28.8 6.69999 29.5 6 30.2 5Z" fill="white"/>
<path d="M29.0002 18C27.3002 18 25.6002 18 23.9002 18C23.6002 18 23.3002 18 23.0002 17.9C22.0002 17.7 21.3002 17.2 21.1002 16.5C20.9002 15.8 21.1001 15 21.7001 14.3C23.1001 12.7 24.5002 11.1 25.9002 9.60001C26.6002 8.80001 27.3002 8.00001 28.0002 7.30001L28.2001 7C28.7001 6.5 29.2001 5.9 29.7001 5.2H28.6002C27.4002 5.2 26.3001 5.2 25.1002 5.2C24.5002 5.2 23.8002 5.1 23.0002 5C22.1002 4.9 21.7002 4.5 21.6002 3.7C21.5002 2.8 21.8002 2.10001 22.6002 1.80001C22.9002 1.70001 23.3001 1.5 23.7001 1.5H25.0002C27.8002 1.5 30.7002 1.40001 33.5002 1.60001C34.4002 1.60001 35.5002 1.7 35.9002 2.9C36.3002 4.1 35.7002 5.00001 35.0002 5.80001C32.7002 8.30001 30.5002 10.8 28.3002 13.3C28.1002 13.5 27.9001 13.8 27.7001 14L27.6002 14.1C27.7002 14.1 27.8002 14.1 28.0002 14.1C28.1002 14.1 28.1001 14.1 28.2001 14.1C29.0001 14.1 29.9001 14.1 30.7001 14.1C31.8001 14.1 32.9002 14.1 34.0002 14.1C34.6002 14.1 35.1002 14.2 35.5002 14.3C36.4002 14.5 37.0002 15.1 37.0002 16.1C37.0002 17 36.5001 17.7 35.6002 17.9C35.3001 18 35.0002 18 34.5002 18C32.6002 18 30.8002 18 29.0002 18ZM30.2001 4.80001C30.3001 4.80001 30.4002 4.8 30.4002 4.9C30.4002 5 30.4002 5.10001 30.4002 5.10001C29.8002 6.00001 29.2002 6.70001 28.6002 7.30001L28.4002 7.60001C27.7002 8.40001 27.0002 9.2 26.3002 9.9C24.9002 11.4 23.5002 13 22.1002 14.6C21.6002 15.2 21.4002 15.8 21.6002 16.4C21.8002 17 22.4001 17.4 23.2001 17.5C23.5001 17.6 23.8002 17.6 24.0002 17.6C27.5002 17.6 31.0002 17.6 34.5002 17.6C34.9002 17.6 35.2002 17.6 35.5002 17.5C36.3002 17.3 36.6002 16.8 36.6002 16.1C36.6002 15.4 36.2002 14.9 35.5002 14.8C35.1002 14.7 34.6002 14.7 34.1002 14.7C33.0001 14.7 31.9002 14.7 30.8002 14.7C30.0002 14.7 29.1002 14.7 28.3002 14.7C28.2002 14.7 28.2002 14.7 28.1002 14.7C27.9002 14.7 27.5001 14.7 27.2001 14.5L27.1002 14.4C27.1002 14.3 27.1001 14.3 27.2001 14.2L27.5002 13.9C27.7002 13.7 27.9002 13.4 28.1002 13.2C30.3001 10.7 32.6002 8.2 34.9002 5.7C35.5002 5 36.0001 4.30001 35.7001 3.30001C35.4001 2.40001 34.5001 2.40001 33.7001 2.30001C30.9001 2.20001 28.0001 2.2 25.2001 2.2H23.9002C23.6002 2.2 23.2002 2.3 23.0002 2.5C22.4002 2.8 22.2002 3.2 22.3002 4C22.4002 4.5 22.7002 4.8 23.3002 4.9C24.1002 5 24.8002 5.00001 25.4002 5.10001C26.5002 5.10001 27.6002 5.10001 28.9002 5.10001L30.2001 4.80001Z" fill="white"/>
<path d="M63.6 13.4C66.2 13.4 68.6 13.4 70.9 13.4C71.3 13.4 71.7 13.4 72.1 13.5C72.9 13.7 73.3 14.3 73.3 15.2C73.3 16.1 72.7 16.6 71.9 16.7C67.8 16.8 63.6 16.9 59.5 16.7C57.8 16.6 57.3 14.8 58.4 13.4C60.2 11.3 62 9.30001 63.8 7.30001C64.6 6.40001 65.4 5.50001 66.1 4.60001C66.2 4.40001 66.4 4.30001 66.4 4.10001C66.3 3.80001 66 3.9 65.8 3.9C63.8 3.8 61.8 4.00001 59.9 3.80001C58.7 3.70001 58.4 3.30001 58.3 2.50001C58.3 1.60001 58.8 1.00001 59.9 0.800009C60.6 0.600009 61.4 0.700002 62.1 0.700002C64.9 0.800002 67.7 0.500009 70.4 0.800009C72.5 1.00001 73.0999 2.50001 71.6999 4.10001C69.3999 6.70001 67.1 9.30001 64.8 11.8C64.6 12.4 64.2 12.8 63.6 13.4Z" fill="white"/>
<path d="M65.3001 17C63.4001 17 61.5 17 59.6 16.9C58.8 16.9 58.1 16.4 57.9 15.8C57.6 15 57.8 14.1 58.4 13.3C59.6 12 60.8 10.6 61.9 9.3C62.5 8.6 63.2001 7.89999 63.8001 7.19999C64.5001 6.39999 65.2 5.6 65.9 4.8L66.1 4.5L66.2 4.39999C66.3 4.29999 66.4001 4.19999 66.3001 4.19999C66.3001 4.19999 66.3 4.09999 66.1 4.19999C66 4.19999 66 4.19999 65.9 4.19999C65.2 4.19999 64.4 4.19999 63.7 4.19999C62.5 4.19999 61.2 4.2 59.9 4.1C58.8 4 58.2 3.7 58.1 2.6C58.1 1.6 58.7001 0.899992 59.8001 0.699992C60.5001 0.599992 61.1 0.600002 61.7 0.600002H62C63 0.600002 63.9 0.600002 64.9 0.600002C66.7 0.600002 68.5 0.499992 70.4 0.699992C71.5 0.799992 72.3 1.3 72.6 2C72.9 2.7 72.6 3.59999 71.9 4.39999C70.4 6.19999 68.7 7.99999 67.2 9.69999C66.5 10.5 65.8 11.3 65 12.1C64.7 12.4 64.5 12.7 64.2 13L64 13.2H65.5C67.3 13.2 69.1001 13.2 70.8001 13.2C71.2001 13.2 71.7 13.2 72.1 13.3C73 13.6 73.5 14.3 73.4 15.2C73.4 16.2 72.7001 16.8 71.8001 16.9C69.7001 16.9 67.5001 17 65.3001 17ZM66.2 3.69999C66.4 3.69999 66.6 3.7 66.7 4C66.8 4.3 66.6 4.49999 66.5 4.69999L66.2 5C65.5 5.8 64.8 6.59999 64.1 7.39999C63.5 8.09999 62.8 8.8 62.2 9.5C61 10.8 59.8 12.1 58.7 13.5C58.2 14.1 58.0001 14.9 58.3001 15.5C58.5001 16 59 16.3 59.7 16.4C63.8 16.6 67.9 16.5 72.1 16.4C72.8 16.4 73.3001 15.9 73.3001 15.2C73.3001 14.5 73.0001 14 72.3001 13.8C71.9001 13.7 71.5 13.7 71.1 13.7C69.4 13.7 67.6001 13.7 65.8001 13.7H63.8001C63.7001 13.7 63.6 13.7 63.6 13.6C63.6 13.5 63.6 13.4 63.6 13.4L64.1 12.8C64.4 12.5 64.6 12.2 64.9 11.9C65.6 11.1 66.3 10.3 67.1 9.5C68.7 7.8 70.3001 5.99999 71.8001 4.19999C72.4001 3.49999 72.6 2.79999 72.4 2.19999C72.2 1.59999 71.5 1.29999 70.6 1.19999C68.8 0.999992 67 1 65.2 1.1C64.3 1.1 63.3001 1.1 62.3001 1.1H62C61.4 1.1 60.8 1.09999 60.2 1.19999C59.2 1.39999 58.8001 1.89999 58.8001 2.69999C58.8001 3.29999 59 3.6 60.2 3.8C61.4 4 62.7 3.89999 63.9 3.89999C64.6 3.89999 65.4 3.89999 66.1 3.89999H66.2C66.1 3.69999 66.2 3.69999 66.2 3.69999Z" fill="white"/>
<path d="M45.7 24.1C47.4 24.1 48.9001 24.1 50.4001 24.1C50.9001 24.1 51.4001 24.1 51.9001 24.2C52.9001 24.3 53.4001 24.8 53.4001 25.6C53.4001 26.4 52.8001 26.8 51.8001 26.8C50.6001 26.8 49.3001 26.8 48.1001 26.8C46.5001 26.8 44.9001 26.8 43.3001 26.8C42.5001 26.8 41.7001 26.8 41.3001 25.9C40.9001 25 41.4001 24.4 41.9001 23.8C43.7001 21.7 45.5001 19.7 47.3001 17.6C47.5001 17.3 48.0001 17 47.9001 16.7C47.8001 16.3 47.2001 16.5 46.8001 16.5C45.5001 16.5 44.2001 16.5 42.9001 16.5C41.9001 16.5 41.4001 16.1 41.4001 15.4C41.4001 14.7 41.8001 14.1 42.8001 14C44.2001 13.9 45.6001 13.9 47.0001 13.9C48.3001 13.9 49.7001 13.9 51.0001 14C51.7001 14 52.5 14.2 52.7 15C52.9 15.8 52.6001 16.4 52.1001 16.9C50.6001 18.6 49.0001 20.3 47.5001 22.1C46.9001 22.7 46.4 23.3 45.7 24.1Z" fill="white"/>
<path d="M50.0002 27.1C49.7002 27.1 49.3002 27.1 49.0002 27.1H46.2002C45.2002 27.1 44.2002 27.1 43.2002 27.1H43.1002C42.4002 27.1 41.4002 27.1 41.0002 26.1C40.5002 25.1 41.1002 24.4 41.7002 23.7C43.4002 21.8 45.1002 19.8 47.1002 17.5C47.2002 17.4 47.2003 17.3 47.3003 17.3C47.5003 17.1 47.7002 16.9 47.6002 16.8C47.6002 16.7 47.4002 16.7 47.1002 16.7C47.0002 16.7 46.9003 16.7 46.8003 16.7C46.2003 16.7 45.5003 16.7 44.9003 16.7C44.2003 16.7 43.6003 16.7 42.9003 16.7C42.2003 16.7 41.2002 16.5 41.2002 15.4C41.2002 14.5 41.8003 13.9 42.8003 13.8C44.0003 13.7 45.1003 13.7 46.3003 13.7H47.0002H47.3003C48.5003 13.7 49.7002 13.7 51.0002 13.8C51.5002 13.8 52.6003 13.9 52.9003 15C53.2003 15.9 52.7002 16.6 52.2002 17.1C51.3002 18.1 50.4002 19.1 49.5002 20.1L47.6002 22.2C47.2002 22.6 46.9002 23 46.5002 23.5L46.2002 23.8H47.2002C48.3002 23.8 49.4003 23.8 50.4003 23.8C50.9003 23.8 51.4003 23.8 51.9003 23.9C53.3003 24.1 53.6002 24.9 53.6002 25.5C53.6002 26.4 52.9003 26.9 51.8003 26.9C51.2003 27.1 50.6002 27.1 50.0002 27.1ZM44.9003 26.6C45.3003 26.6 45.8002 26.6 46.2002 26.6H49.0002C49.9002 26.6 50.8002 26.6 51.7002 26.6C52.6002 26.6 53.1002 26.2 53.1002 25.6C53.1002 25.4 53.1003 24.6 51.8003 24.4C51.3003 24.3 50.8003 24.3 50.3003 24.3C49.3003 24.3 48.2002 24.3 47.1002 24.3H45.6002C45.5002 24.3 45.4003 24.2 45.4003 24.2C45.4003 24.1 45.4003 24 45.4003 24L46.0002 23.3C46.4002 22.8 46.8002 22.4 47.1002 22L49.0002 19.9C49.9002 18.9 50.8002 17.9 51.7002 16.9C52.1002 16.4 52.5003 15.9 52.3003 15.2C52.1003 14.6 51.5003 14.4 50.8003 14.3C49.6003 14.2 48.4002 14.2 47.2002 14.2H46.9003H46.2002C45.1002 14.2 43.9002 14.2 42.7002 14.3C42.0002 14.4 41.5002 14.8 41.6002 15.4C41.6002 15.9 41.8003 16.3 42.9003 16.3C43.6003 16.3 44.2003 16.3 44.9003 16.3C45.5003 16.3 46.2003 16.3 46.8003 16.3C46.9003 16.3 47.0002 16.3 47.1002 16.3C47.4002 16.3 47.9002 16.2 48.1002 16.6C48.3002 17 47.9002 17.3 47.7002 17.5C47.6002 17.6 47.6002 17.6 47.5002 17.7C45.5002 20 43.7002 22 42.1002 23.9C41.5002 24.6 41.2002 25.1 41.5002 25.8C41.8002 26.5 42.4002 26.5 43.2002 26.5C43.8002 26.6 44.4003 26.6 44.9003 26.6Z" fill="white"/>
<path d="M0.200073 41C0.800073 38.5 2.10017 36.5 4.30017 35.2C5.60017 34.4 7.1001 33.9 8.6001 33.9C11.4001 33.9 14.3001 33.9 17.1001 33.9C21.6001 34 25.3001 37.5 25.6001 42C25.6001 42.3 25.7001 42.6 25.7001 42.9C25.8001 44.5 25.8001 44.5 27.4001 44C33.6001 41.9 39.8001 41.8 45.9001 44.2C46.4001 44.4 46.8001 44.3 47.2001 44.1C54.1001 41.1 61.2002 40.9 68.3002 43.4C69.4002 43.8 69.4001 43.8 69.5001 42.7C69.6001 39.3 71.1001 36.7 74.0001 34.9C75.3001 34.2 76.6001 33.8 78.1001 33.8C80.9001 33.8 83.8001 33.8 86.6001 33.8C91.2001 33.9 95.1001 37.7 95.1001 42.4C95.1001 55.5 95.1001 68.6 95.1001 81.7C95.1001 86.3 91.3001 90.3 86.6001 90.3C76.5001 90.3 66.3001 90.3 56.2001 90.3C54.8001 90.3 54.0001 89.6 54.0001 88.5C53.9001 87.3 54.7001 86.5 56.1001 86.4C56.4001 86.4 56.8001 86.4 57.1001 86.4C66.7001 86.4 76.3002 86.3 85.8002 86.4C88.9002 86.4 91.2001 84.5 91.2001 81C91.2001 68.4 91.2001 55.8 91.2001 43.2C91.2001 42.2 91.1001 41.3 90.6001 40.4C89.7001 38.8 88.4001 37.9 86.6001 37.8C83.9001 37.8 81.1001 37.8 78.4001 37.8C75.5001 37.8 73.4001 39.8 73.4001 42.7C73.4001 46.2 73.4001 49.6 73.4001 53.1C73.4001 58.3 69.6001 62.1 64.4001 62.1C53.2001 62.1 41.9001 62.1 30.7001 62.1C25.5001 62.1 21.7001 58.3 21.7001 53.1C21.7001 49.7 21.7001 46.4 21.7001 43C21.8001 39.8 19.4001 37.6 16.4001 37.7C14.0001 37.8 11.6001 37.8 9.20007 37.7C6.20007 37.5 3.80017 39.6 3.80017 43.1C3.80017 46.1 3.80017 49.2 3.80017 52.2C3.80017 61.7 3.80017 71.1 3.80017 80.6C3.80017 81.4 3.9001 82.2 4.1001 83C4.7001 85.1 6.50015 86.4 8.90015 86.4C18.7001 86.4 28.4001 86.4 38.2001 86.4C38.7001 86.4 39.2001 86.4 39.7001 86.5C40.7001 86.8 41.2001 87.5 41.2001 88.5C41.2001 89.5 40.5001 90.2 39.5001 90.3C39.1001 90.4 38.8001 90.3 38.4001 90.3C29.0001 90.3 19.6001 90.2 10.1001 90.4C4.6001 90.5 1.1001 87.4 0.100098 83.3C0.200098 69.2 0.200073 55.1 0.200073 41ZM51.1001 46.9C51.3001 47.1 51.4001 47.3 51.5001 47.4C52.1001 48.3 52.1001 49.2 51.5001 49.9C50.9001 50.6 49.9001 50.7 49.1001 50.3C48.8001 50.1 48.5001 49.9 48.2001 49.8C41.1001 45.4 33.9001 45.5 26.4001 48.6C25.9001 48.8 25.7001 49.1 25.7001 49.7C25.7001 51.1 25.7001 52.4 25.7001 53.8C25.8001 56.2 27.8001 58.2 30.2001 58.2C41.7001 58.2 53.3002 58.2 64.8002 58.2C67.3002 58.2 69.3002 56.2 69.3002 53.7C69.4002 52.3 69.3002 50.9 69.3002 49.4C69.4002 48.5 69.0001 48.1 68.2001 47.7C65.3001 46.4 62.3001 45.7 59.1001 45.6C56.6001 45.6 53.9001 46.1 51.1001 46.9Z" fill="white"/>
<path d="M60.0002 82.6C57.8002 82.6 56.1002 81.6 55.0002 79.8C54.6002 79.2 54.2002 79 53.5002 79C49.6002 79 45.7003 79 41.8003 79C41.2003 79 40.8003 79.1 40.4003 79.7C38.9003 82.1 36.2002 83.1 33.7002 82.4C31.1002 81.7 29.3002 79.4 29.2002 76.6C29.2002 75.7 29.4003 74.8 29.8003 73.9C30.0003 73.5 30.0003 73.1 29.8003 72.7C28.5003 69.7 29.6003 66.3 32.4003 64.8C35.3003 63.2 38.7002 64.1 40.5002 66.9C40.8002 67.4 41.2003 67.6 41.8003 67.6C45.8003 67.6 49.8002 67.6 53.7002 67.6C54.3002 67.6 54.6003 67.4 54.9003 67C56.4003 64.6 59.1002 63.6 61.6002 64.3C64.2002 65 66.0002 67.2 66.2002 70C66.3002 70.9 66.1002 71.7 65.7002 72.5C65.4002 73.1 65.5002 73.6 65.7002 74.2C67.0002 77.5 65.5002 81 62.2002 82.3C61.4002 82.5 60.7002 82.6 60.0002 82.6ZM33.0002 76.4C33.0002 77.7 33.8002 78.6 35.0002 78.8C36.0002 78.9 37.0003 78.2 37.4003 77.1C37.9003 75.6 38.3003 75.3 39.8003 75.3C45.0003 75.3 50.3002 75.3 55.5002 75.3C56.9002 75.3 57.4003 75.7 57.9003 77C58.2003 78 59.0003 78.7 59.9003 78.8C60.8003 78.8 61.5002 78.4 62.0002 77.6C62.5002 76.8 62.3002 75.8 61.6002 75C60.5002 73.7 60.5002 73.1 61.6002 71.8C62.3002 71 62.4002 70.1 62.0002 69.2C61.6002 68.4 60.7003 67.9 59.9003 68C58.9003 68.2 58.2003 68.7 57.9003 69.7C57.5003 71.1 57.0002 71.4 55.6002 71.4C50.3002 71.4 45.0003 71.4 39.8003 71.4C38.4003 71.4 37.9002 71 37.5002 69.7C37.2002 68.7 36.5002 68.1 35.5002 67.9C34.7002 67.8 33.8003 68.3 33.4003 69.1C33.0003 70 33.1003 70.8 33.9003 71.7C34.9003 72.8 34.9003 73.6 33.9003 74.7C33.3003 75.3 33.1002 75.9 33.0002 76.4Z" fill="white"/>
<path d="M7.5 71.3C7.5 68.9 7.5 66.5 7.5 64.2C7.5 62.8 8.20005 62 9.30005 62C10.5 61.9 11.3 62.6 11.4 64.1C11.5 66 11.5 67.9 11.5 69.7C11.5 72.3 11.5 74.9 11.5 77.6C11.5 78 11.5 78.5 11.4 78.9C11.2 80.2 10.5 80.9 9.40002 80.8C8.30002 80.7 7.59998 79.9 7.59998 78.7C7.49998 76.2 7.5 73.7 7.5 71.3Z" fill="white"/>
<path d="M87.7002 71.4C87.7002 73.8 87.7002 76.2 87.7002 78.5C87.7002 79.8 87.0003 80.7 85.9003 80.7C84.8003 80.8 83.9003 80 83.9003 78.7C83.8003 77.2 83.8003 75.6 83.8003 74.1C83.8003 71.1 83.8003 68.1 83.8003 65.1C83.8003 64.6 83.8003 64 83.9003 63.5C84.1003 62.4 84.9003 61.8 85.9003 61.9C86.9003 62 87.7002 62.7 87.7002 63.8C87.7002 66.3 87.7002 68.8 87.7002 71.4Z" fill="white"/>
<path d="M45.7002 88.5C45.7002 87.4 46.6002 86.5 47.6002 86.5C48.6002 86.5 49.5002 87.4 49.5002 88.5C49.5002 89.5 48.7002 90.4 47.6002 90.4C46.6002 90.4 45.7002 89.5 45.7002 88.5Z" fill="white"/>
</svg>
