<svg width="91" height="92" viewBox="0 0 91 92" fill="none" xmlns="http://www.w3.org/2000/svg">
<path d="M88 53.5C87.3 53.5 86.7 54 86.4 54.5C86.1 54.9 86.1999 55.4 86.1999 55.8V56V76.1V83.5C86.1999 84.1 86.1999 84.6 86.1999 85.2C86.0999 86.5 85.2 87.6 83.9 87.9C84 87.6 83.9999 87.3 84.0999 87C84.2999 86 84.5 85 84.5 84V82.2C84.5 74.5 84.6 66.6 84.4 58.8C84.4 56.6 84.9999 55.3 86.5999 54C90.6999 50.8 91.6999 45.4 89.1999 40.8C87.5999 37.9 85.5 35.1 83.5 32.4C79 26.4 74.4999 20.6 70.1999 15.1C69.4999 14.2 68.5999 13.5 67.6999 13C64.5999 11.6 60.8 12.2 58.3 14.5C59.5 13 60.1999 11 60.1999 9.00001C60.1999 3.90001 56.4 0.100006 51.4 0.100006C49 0.100006 46.7999 1.00001 45.0999 2.70001C43.3999 4.40001 42.5 6.60001 42.5 9.00001C42.5 14 46.5 17.8 51.4 17.8C53.6 17.8 55.7 17 57.3 15.6C57.1 15.8 56.9 16.1 56.8 16.4C54.5 20.1 54.4 24.2 56.5 28.5C56.8 29.2 56.8 29.2 56.3 29.5C54.1 30.6 51.6999 31.9 49.0999 33.3C48.7999 33.5 48.3999 33.7 48.0999 33.8C46.8999 34.4 45.7 35 44.8 36C44.6 36.2 44.5 36.4 44.3 36.5C43.4 37.5 42.7999 38.1 41.5999 38C41.1999 38 40.8999 38.2 40.5999 38.3L40.5 38.4C38.1 39.6 36.7999 41.9 35.5999 43.8C35.4999 43.9 35.4 44 35.3 44.2C35.2 44.1 35 43.9 34.9 43.8C34.5 43.3 34.2 42.8 33.8 42.2C33.3 41.4 32.7999 40.7 32.1999 39.9C31.9999 39.7 32 39.6 32 39.6C32 39.6 31.9999 39.5 32.1999 39.4C32.5999 39 33.1 38.5 33.5 38.1C34.1 37.5 34.5999 37 35.1999 36.4C36.9999 34.8 37.6 32.7 37 30.2C36.8 29.3 36.3 28.5 35.5 28.2C34.7 27.8 33.8 27.8 32.8 28.1C32.6 28.2 32.2999 28.3 32.0999 28.3C31.6999 28.4 31.3 28.6 30.9 28.7C30.1 29 29.5 29 28.9 28.6C27.6 27.8 26 27.8 24.3 28.5C23.3 29 22.3 29.4 21.5 30C20.5 30.7 19.6 30.8 18.4 30.3C18.1 30.2 17.8 30.1 17.5 30C16.5 29.7 15.3999 30 14.6999 30.6C14.0999 31.2 13.8 32 13.9 32.9C14.1 33.9 14.5999 35.7 15.6999 36.5C17.2999 37.6 18.1 39.1 18.3 41.4C18.3 41.5 18.3 41.6 18.3 41.6C18.4 42.4 18.4999 43.1 18.5999 43.9C18.7999 45.6 19.0999 47.4 19.0999 49.2C19.1999 51.4 18.3999 53 16.5999 54.3C13.3999 56.7 11.4999 59.3 10.5999 62.3C9.49994 61 9.19996 59.7 9.49996 58.5C9.69996 57.6 10.0999 56.8 10.5999 55.9C10.8999 55.4 11.1 54.8 11.3 54.3C11.5 53.8 11.8 52.9 11.3 52.3C10.9 51.7 10.1999 51.6 9.59994 51.4C9.19994 51.3 8.79996 51.4 8.49996 51.5H8.39999C4.19999 52.5 1.80001 55.5 1.80001 59.9C1.80001 60.2 1.69996 60.5 1.49996 60.8C1.39996 61.1 1.29992 61.3 1.19992 61.6C1.09992 61.8 1.09996 62 0.999964 62.2C0.799964 62.8 0.49994 63.6 0.59994 64.3C0.69994 66 1.59994 67.5 3.09994 68.7C3.59994 69.1 3.89996 69.5 3.99996 69.8C4.69996 71.4 5.89999 72.3 7.39999 72.3C8.39999 72.3 9.49996 72.2 10.5 72.1C11.1 72 11.6999 72 12.1999 71.9C12.2999 71.9 12.4 71.9 12.5 71.9C12.8 71.9 12.9 71.9 12.9 71.9C14.8 74.2 15.1999 76.1 14.1999 78.3C13.6999 79.4 13.5999 81 14.0999 82C15.2999 84.6 16.6999 87.2 18.0999 89.7C18.4999 90.3 19.2999 91 20.1999 91.1C20.8999 91.2 21.7 91.2 22.4 91.2C23.3 91.2 24.1 91.2 24.9 91.1C26.3 91 27.3 90 27.3 88.5C27.3 86.7 26.3999 85.3 24.5999 84.5C23.8999 84.2 23.2999 83.4 23.0999 82.5C22.8999 81.7 23 80.8 23.3 80.3C23.8 79.5 24.3 78.8 24.8 78.1C25.5 77.1 26.1 76.1 26.8 75.1C28.4 72.6 29.9 69.6 28.8 65.9C28.8 65.8 28.8 65.6 28.9 65.4L29 65.1C29.8 63.7 30.6 62.3 31.5 61C32.7 59.3 33.7999 57.4 34.0999 55C34.1999 54.5 34.1 54.1 34 53.8C36.9 54.8 38.5999 54 40.0999 51.1C40.3999 50.5 40.7 49.8 41 49.2C41.8 47.4 42.6 45.6 44.3 44.5C44.4 44.4 44.7 44.2 44.8 44.2C44.8 44.2 44.9 44.2 45 44.3C47 45.8 49.1999 45.9 51.5999 44.6L53.8 43.4C57 41.7 60.2 40 63.4 38.2C63.7 38.1 63.8999 37.9 64.0999 37.8C64.0999 38 64.1999 38.2 64.1999 38.5C64.2999 38.8 64.3999 39.1 64.5999 39.4L66.4 42.8C67.8 45.4 69.2 47.9 70.5 50.5C70.7 50.9 70.9 51.4 70.9 51.8C71 54.9 71.0999 58.3 71.0999 61.7C71.0999 66.1 71.0999 70.5 71.0999 74.8C71.0999 78 71.0999 81.2 71.0999 84.5C71.0999 86.7 72.1 88.7 73.8 90C75.5 91.2 77.8 91.5 79.9 90.8C80 90.8 80.2 90.8 80.4 90.8C80.6 90.8 80.8 90.9 81 90.9C81.4 90.9 81.7999 90.9 82.1999 90.9C83.1999 91 84.3 91 85.3 90.7C88 89.8 89.4 87.6 89.4 84.6V79.7C89.4 71.6 89.4 63.5 89.4 55.3V55.1C89.4 54.8 89.3999 54.3 89.0999 53.9C89.2999 54.1 88.7 53.5 88 53.5ZM70.3 26.7C70.2 26.4 69.8999 25.9 69.1999 25.6C68.0999 25.1 67.2999 25.6 66.5999 26.9C66.1999 27.7 65.8 28.5 65.4 29.3C64.7 30.7 64 32.1 63.3 33.5C63 34.1 62.4999 34.9 62.0999 35.2C58.0999 37.4 54 39.6 49.5 41.9C49.1 42.1 48.4 42 48 41.8C47.2 41.4 46.8 40.8 46.8 40.2C46.8 39.4 47.4 38.7 48.4 38.1C49.8 37.4 51.1 36.6 52.5 35.9C54.3 35 56 34 57.8 33.1C58.5 32.7 59.5999 32.1 60.0999 31.3C61.1999 29.4 62.0999 27.5 63.0999 25.6L63.3 25.2C63.7 24.4 63.5999 23.6 63.0999 23C62.6999 22.5 62 22.3 61.3 22.5C60.7 22.7 60.1999 23.1 59.6999 23.9C59.4999 24.2 59.2999 24.5 59.1999 24.8C58.6999 23 58.8999 21.3 59.5999 19.6C60.2999 17.9 62 16.6 63.9 16.4C64.8 16.3 66.6 16.4 67.8 18.1C69.2 20 70.5999 21.9 72.0999 23.6C73.1999 25 74.4 26.4 75.5 27.9C79.6 33.4 82.7 37.7 85.5 41.8C87.2 44.3 87.3 47 85.8 49.4C85.1 50.5 84 51.5 82.9 52.4L82.4 52.8C81.3 53.7 80.8 54.8 80.8 56.2C80.8 62.6 80.8 69 80.8 75.3V80.9C80.8 81.3 80.8 81.8 80.8 82.2C80.8 83.2 80.8 84.3 80.8 85.3C80.8 86.3 80.3 87.1 79.5 87.6C78.7 88 77.8999 88.1 77.0999 87.7C75.9999 87.2 75.5999 86.3 75.5999 84.7C75.5999 77.7 75.5999 72 75.5999 66.6C75.5999 61.6 75.5 57.5 75.4 53.7V53.5C75.4 51.9 75.3 50.3 74.3 48.7C73.3 47.1 72.4 45.5 71.5 43.8C71.2 43.3 70.9999 42.8 70.6999 42.3C70.2999 41.5 69.9 40.8 69.5 40C69.1 39.2 68.6999 38.3 68.1999 37.5C67.6999 36.6 67.0999 36.3 66.5999 36.3C66.4999 36.3 66.4 36.3 66.4 36.3C67.4 34.5 68.2999 32.7 69.1999 30.9C69.5999 30.2 69.9 29.4 70.3 28.7C70.4 27.9 70.5 27.2 70.3 26.7ZM41.9 42.2C41.8 42.3 41.8 42.3 41.9 42.2C41.8 42.2 41.8 42.3 41.9 42.2ZM30.5999 54.7C29.9999 56.2 29.4 57.6 28.8 58.8C28.6 59.2 28.3 59.7 27.9 60.1C27.6 60.5 27.3 60.9 27 61.4C26.9 61.6 26.8 61.7 26.8 61.7C26.8 61.7 26.6999 61.6 26.5999 61.6C26.0999 61.2 25.0999 61.3 24.5999 61.6C24.0999 62 23.8 62.7 23.8 63.3C23.8 63.8 23.9999 64.3 24.1999 64.6L24.3 64.8C25.8 67.8 25.7999 70.3 24.1999 72.6C22.6999 74.9 21.2 77.2 19.8 79.4C19.5 79.8 19.1999 80.5 19.0999 81.3C18.8999 83.1 19.6 84.5 20.3 86C20.4 86.3 20.5999 86.5 20.6999 86.8C20.8999 87.3 21.1999 87.6 21.5999 87.9C21.2999 87.8 21 87.7 20.9 87.5C19.8 85.5 18.7 83.5 17.8 81.4C17.7 81.1 17.8 80.5 17.8 80.1V79.8C17.9 79.3 17.9999 78.8 18.0999 78.3C18.2999 77.3 18.5 76.3 18.4 75.2C18.2 72.6 16.5999 70.6 15.0999 68.9C14.4999 68.2 13.7999 68 13.1999 68C12.6999 68 12.3 68.1 11.9 68.3C10.8 68.7 9.49999 69 8.39999 69.2C8.29999 69.2 8.09994 69.2 8.09994 69.2C8.09994 69.2 7.99996 69.1 7.99996 69C7.99996 67.9 7.30001 67.4 6.80001 67C6.70001 66.9 6.59996 66.9 6.49996 66.8C5.79996 66.2 5.09999 65.5 4.39999 64.6C4.39999 64.5 4.39999 64.5 4.39999 64.4C5.79999 63.6 5.69994 62.2 5.59994 61.6C5.49994 60.9 5.39994 60.1 5.59994 59.3C5.49994 62.8 7.09999 65.5 10.4 67.4C11.3 67.9 12.0999 68 12.6999 67.7C13.5999 67.3 13.8 66.3 13.9 65.6C14.1 64.6 14.2999 63.5 14.6999 62.5C15.5999 60.3 17.5 58.7 19 57.6C21.2 55.9 22.3999 53.7 22.5999 51C22.6999 49.1 22.7999 47.5 22.5999 45.8C22.4999 44.6 22.2 43.3 22 42.1C21.8 40.8 21.5 39.5 21.4 38.2C21.3 36.9 20.9 35.5 19 34.8C18.9 34.8 18.9 34.8 18.8 34.7C20.5 34.9 21.9999 34.5 23.1999 33.6C23.7999 33.1 24.5999 32.7 25.6999 32.3C25.9999 32.2 26.4999 32.2 26.5999 32.3C28.2999 33.2 30.2 33.3 32.3 32.4C32.4 32.4 32.4999 32.3 32.5999 32.3C32.6999 32.3 32.7 32.3 32.8 32.3C32.8 32.3 32.9 32.3 33 32.3V32.4C32.7 33 32.3 33.6 31.8 34.2C31.6 34.4 31.3999 34.5 31.1999 34.7C30.7999 35 30.3999 35.2 30.0999 35.7C28.9999 37.3 27.7 38.1 25.9 38.3C25.1 38.4 24.4 39.6 24.4 40.3C24.4 41.3 25.9 41.9 25.9 41.9C26.3 42.1 26.6999 42 27.0999 41.9C27.1999 41.9 27.3 41.8 27.4 41.8H27.5999C27.6999 41.8 27.8 41.8 27.9 41.8C28.8 42.8 29.6999 43.9 30.5999 45.1C30.7999 45.4 31.1 45.8 31.3 46.1C31.7 46.7 32 47.3 32.5 47.8C33.2 48.6 34.2 49.5 35.4 49.3C36.4 49.2 37.2 48.3 37.8 47.3C37.4 48.3 36.9 49.2 36.4 50.2C36 51 35.6999 51 35.0999 50.7C34.3999 50.4 33.7999 50.2 33.0999 50L32.6999 49.9C30.7999 49.4 29.2 49.8 28 51.2C27.5 51.8 27.6 52.9 27.9 53.5C28.1 53.9 28.6 54.1 29 54.2C29.5 54.3 29.8999 54.3 30.1999 54C30.2999 53.9 30.4 53.9 30.4 53.8C30.8 54.1 30.6999 54.4 30.5999 54.7ZM51.3 14.2C50 14.2 48.6999 13.6 47.6999 12.7C46.6999 11.7 46.1999 10.4 46.1999 9.10001C46.1999 6.30001 48.5 4.00001 51.4 4.00001C52.6 4.00001 53.8 4.50001 54.8 5.50001C55.8 6.50001 56.4 7.80001 56.4 9.10001C56.4 11.7 54 14.2 51.3 14.2Z" fill="white"/>
<path d="M23.7 18.1C23.4 18 23.1 18 22.8 18C20.6 18 20.5 19.5 20.5 19.9C20.5 20.4 20.7 20.9 21 21.3C21.4 21.7 22 21.9 22.7 21.9C22.7 21.9 22.7 21.9 22.8 21.9C23.1 21.9 23.4 21.9 23.6 21.8C23.6 22 23.5 22.2 23.5 22.4C23.5 22.9 23.5 23.4 23.5 23.9C23.5 25.2 24.3 26 25.4 26C25.4 26 25.4 26 25.5 26C26.7 26 27.4 25.2 27.4 23.8C27.4 23.7 27.4 23.5 27.4 23.4V23.2V23.1V22.9C27.4 22.7 27.4 22.5 27.4 22.2C27.4 22 27.4 21.8 27.3 21.7C27.6 21.8 27.8 21.8 28.1 21.8C28.1 21.8 28.1 21.8 28.2 21.8C29 21.8 29.6 21.6 30 21.2C30.2 21 30.5 20.5 30.5 19.8C30.5 19.2 30.3 17.9 28.2 17.9C27.8 17.9 27.5 18 27.2 18C27.3 17.6 27.4 17.1 27.4 16.6C27.4 15.4 27.1 14.5 26.6 14.1C26.3 13.8 25.8 13.7 25.4 13.8C23.6 14.1 23.6 15.8 23.6 16.6C23.5 17.2 23.5 17.7 23.7 18.1ZM25.8 20.3C25.7 20.3 25.6 20.3 25.4 20.3C25.3 20.3 25.1 20.3 25 20.3C25 20.2 25 20 25 19.9C25 19.8 25 19.7 25 19.5C25.1 19.5 25.3 19.5 25.4 19.5C25.5 19.5 25.7 19.5 25.8 19.4C25.8 19.5 25.8 19.6 25.8 19.8C25.7 20.1 25.8 20.2 25.8 20.3Z" fill="white"/>
<path d="M43.0999 25.1C43.1999 25.1 43.1999 25.1 43.2999 25.1C44.4999 25 45.2999 24.2 45.2999 23C45.2999 23 45.2999 23 45.2999 22.9C45.2999 22.2 44.9999 21.5 44.3999 21.1C43.9999 20.7 43.3999 20.6 42.8999 20.7C41.5999 20.9 40.8999 21.8 40.8999 23C40.8999 23.6 41.1998 24.2 41.6998 24.6C42.0998 25 42.5999 25.1 43.0999 25.1Z" fill="white"/>
<path d="M20.6998 8.20001H20.7999C21.3999 8.20001 22.0998 7.90001 22.4998 7.40001C22.8998 7.00001 23.0998 6.40001 23.0998 5.90001C23.0998 4.80001 21.9999 3.70001 20.7999 3.80001C20.1999 3.80001 19.5998 4.10001 19.1998 4.60001C18.7998 5.10001 18.5998 5.60001 18.6998 6.10001C18.8998 7.30001 19.5998 8.10001 20.6998 8.20001Z" fill="white"/>
<path d="M33 9.10001C33.4 9.10001 33.7 9.10001 33.9 9.00001C33.9 9.10001 33.8 9.30001 33.8 9.40001C33.7 9.80001 33.8 10.1 33.8 10.5C33.8 10.6 33.8 10.7 33.8 10.9C33.8 12.8 34.7999 13.2 35.6999 13.3C35.6999 13.3 35.7 13.3 35.8 13.3C36.3 13.3 36.7999 13.1 37.0999 12.8C37.5999 12.3 37.6999 11.5 37.6999 11V10.6C37.6999 10.6 37.6999 10.6 37.6999 10.5V10.4C37.6999 10.1 37.7999 9.70001 37.5999 9.30001L37.5 9.20001C37.5 9.20001 37.5 9.10001 37.4 9.10001C37.7 9.20001 38.1 9.30001 38.5 9.30001C39.3 9.30001 39.9 9.10001 40.3 8.70001C40.5 8.50001 40.8 8.00001 40.8 7.30001C40.8 6.80001 40.5 5.50001 38.5 5.50001H38.4C38.1 5.50001 37.7 5.50001 37.4 5.60001C37.5 5.20001 37.5999 4.70001 37.5999 4.10001V3.90001C37.5999 3.70001 37.5999 3.50001 37.5999 3.30001C37.5999 2.60001 37.3 2.00001 36.9 1.60001C36.5 1.30001 36 1.20001 35.5 1.30001C34.8 1.40001 34.3999 2.10001 34.0999 2.70001L33.9 3.00001C33.7 3.30001 33.6999 3.70001 33.6999 4.00001C33.6999 4.10001 33.6999 4.10001 33.6999 4.20001C33.6999 4.60001 33.7 5.10001 33.8 5.70001C33.4 5.60001 33.1 5.60001 32.8 5.60001C32.3 5.60001 31.5 5.70001 31 6.20001C30.8 6.40001 30.4999 6.80001 30.5999 7.50001C30.6999 7.80001 30.9 9.10001 33 9.10001ZM35.5 6.80001C35.6 6.80001 35.7 6.80001 35.8 6.80001C35.9 6.80001 35.9999 6.80001 36.0999 6.80001C36.0999 6.90001 36.0999 7.10001 36.0999 7.20001C36.0999 7.30001 36.0999 7.50001 36.1999 7.70001C36.0999 7.70001 36.1 7.60001 36 7.60001C35.8 7.50001 35.6 7.50001 35.4 7.60001C35.4 7.50001 35.4 7.30001 35.4 7.20001C35.4 7.00001 35.4 6.90001 35.4 6.80001C35.4 6.80001 35.4 6.80001 35.5 6.80001Z" fill="white"/>
</svg>
