<svg width="81" height="81" viewBox="0 0 81 81" fill="none" xmlns="http://www.w3.org/2000/svg">
<path d="M68.1001 69.2C67.7001 69.2 67.4001 69.2 67 69.1C66.4001 69 65.8 68.9 65.2 68.8C64.6 68.7 63.9001 68.5 63.3001 68.2C62.6001 68 61.9 67.7 61.2 67.4C60.5 67.1 59.7001 66.7 59 66.4C58.2001 66 57.4001 65.6 56.6001 65.1C55.8001 64.6 55.0001 64.2 54.1001 63.6C53.2001 63.1 52.4001 62.5 51.5 61.9C50.6 61.3 49.7001 60.7 48.8001 60C47.9001 59.3 46.9001 58.7 46 57.9C45 57.2 44.1001 56.4 43.1001 55.7C42.1001 54.9 41.1 54.1 40.2 53.3C39.2 52.5 38.2 51.6 37.2 50.7C36.2 49.8 35.2 48.9 34.2 48C33.2 47.1 32.2001 46.1 31.3001 45.2C30.4001 44.3 29.4 43.3 28.5 42.4C27.6 41.5 26.7 40.5 25.9 39.6C25.1 38.7 24.2 37.7 23.4 36.8C22.6 35.9 21.9001 35 21.1001 34.1C20.4001 33.2 19.7 32.3 19 31.5C18.3 30.6 17.7001 29.8 17.1001 28.9C16.5001 28.1 16 27.2 15.4 26.5C14.9 25.7 14.4 24.9 14 24.2C13.6 23.5 13.2001 22.7 12.8001 22C12.4001 21.3 12.1 20.6 11.9 20C11.6 19.3 11.4 18.7 11.2 18.1C11 17.5 10.9001 16.9 10.8001 16.3C10.7001 15.7 10.7001 15.1 10.8001 14.6C10.9001 14 11 13.5 11.2 13C11.4 12.5 11.8 12.1 12.2 11.7C13.1 11 14.2 10.6 15.5 10.5C16.6 10.4 17.9 10.6 19.4 11C20.7 11.4 22.2001 12 23.8001 12.7C25.3001 13.4 26.9001 14.3 28.6001 15.4C30.3001 16.4 32.0001 17.6 33.8001 18.9C35.6001 20.2 37.4001 21.6 39.3001 23.1C40.7001 24.2 42.2001 25.5 43.6001 26.7C44.2001 27.3 44.3001 28.2 43.8001 28.9C43.2001 29.5 42.3001 29.6 41.6001 29.1C40.2001 27.9 38.8 26.7 37.4 25.6C35.6 24.1 33.8001 22.8 32.1001 21.5C30.3001 20.2 28.7001 19.1 27.1001 18.1C25.5001 17.1 23.9 16.2 22.5 15.6C21.1 14.9 19.8001 14.4 18.6001 14.1C17.5001 13.8 16.5001 13.6 15.8001 13.7C15.1001 13.7 14.6001 13.9 14.3001 14.2C14.2001 14.3 14.2001 14.3 14.1001 14.4C14.0001 14.5 14 14.7 14 14.9C14 15.2 14 15.5 14 15.8C14 16.2 14.1001 16.6 14.3001 17.1C14.4001 17.6 14.6 18.1 14.9 18.7C15.1 19.3 15.4 19.9 15.7 20.5C16 21.1 16.4001 21.8 16.8001 22.5C17.2001 23.2 17.7 23.9 18.2 24.7C18.7 25.5 19.2001 26.3 19.8001 27C20.4001 27.8 21.0001 28.6 21.6001 29.5C22.3001 30.4 22.9001 31.2 23.6001 32.1C24.3001 33 25.1001 33.9 25.8001 34.8C26.6001 35.7 27.4 36.6 28.2 37.5C29.1 38.4 29.9001 39.4 30.8001 40.3C31.7001 41.2 32.6 42.2 33.5 43.1C34.4 44 35.4 45 36.4 45.9C37.4 46.8 38.3001 47.7 39.3001 48.6C40.3001 49.5 41.2 50.3 42.2 51.1C43.1 51.9 44.1001 52.7 45.1001 53.5C46.0001 54.2 47 55 47.9 55.7C48.8 56.4 49.7001 57.1 50.6001 57.7C51.5001 58.3 52.4 58.9 53.2 59.5C54 60.1 54.9 60.6 55.7 61.1C56.5 61.6 57.3001 62.1 58.1001 62.5C58.8001 62.9 59.6001 63.3 60.3001 63.7C61.0001 64.1 61.7 64.4 62.4 64.7C63 65 63.7001 65.2 64.3001 65.4C64.9001 65.6 65.4001 65.8 66 65.9C66.5 66 67 66.1 67.4 66.2C67.8 66.2 68.2001 66.3 68.5 66.2C68.8 66.2 69.1001 66.1 69.3001 66.1C69.5001 66 69.6001 66 69.8001 65.9C70.0001 65.8 70.2 65.5 70.2 65C70.3 64.4 70.2 63.7 69.9 62.8C69.6 61.8 69.1 60.7 68.4 59.4C67.7 58.1 66.9 56.8 65.9 55.3C64.9 53.8 63.7001 52.3 62.5 50.6C61.2001 49 59.8001 47.3 58.3001 45.6C56.8001 43.9 55.2001 42.2 53.5 40.5C52.9001 39.9 52.9001 38.9 53.5 38.3C54.1 37.7 55.1 37.7 55.7 38.3C57.4 40.1 59 41.8 60.5 43.5C62 45.3 63.5001 47 64.8001 48.6C66.1001 50.3 67.3 51.9 68.4 53.4C69.5 55 70.4001 56.5 71.1001 57.8C71.9001 59.2 72.4001 60.6 72.8001 61.7C73.2001 63 73.3 64.2 73.2 65.2C73 66.4 72.5001 67.4 71.6001 68.1C71.2001 68.4 70.7 68.7 70.2 68.8C69.7 69 69.2 69.1 68.7 69.1C68.4 69.2 68.2001 69.2 68.1001 69.2Z" fill="white"/>
<path d="M68.1001 69.7C67.7001 69.7 67.3 69.7 66.9 69.6C66.3 69.5 65.7001 69.4 65 69.3C64.4001 69.2 63.7001 69 63 68.7C62.3 68.5 61.6 68.2 60.9 67.9C60.2 67.6 59.4001 67.2 58.6001 66.9C57.8001 66.5 57 66.1 56.2 65.6C55.4 65.1 54.5 64.6 53.7 64.1C52.8 63.6 52.0001 63 51.1001 62.4C50.2001 61.8 49.3 61.2 48.4 60.5C47.5 59.8 46.5001 59.1 45.6001 58.4C44.6001 57.7 43.7 56.9 42.7 56.2C41.7 55.4 40.7001 54.6 39.8001 53.8C38.8001 53 37.8001 52.1 36.8001 51.2C35.8001 50.3 34.8001 49.4 33.8001 48.4C32.8001 47.5 31.8 46.5 30.9 45.6C30 44.7 29.0001 43.7 28.1001 42.8C27.2001 41.9 26.3 40.9 25.5 40C24.7 39.1 23.8 38.1 23 37.2C22.2 36.3 21.4 35.4 20.7 34.5C20 33.6 19.3001 32.7 18.6001 31.8C17.9001 30.9 17.3 30.1 16.7 29.2C16.1 28.4 15.5 27.5 15 26.7C14.5 25.9 14 25.1 13.5 24.4C13.1 23.6 12.7001 22.9 12.3001 22.2C11.9001 21.5 11.6001 20.8 11.3001 20.1C11.0001 19.4 10.8001 18.8 10.6001 18.2C10.4001 17.6 10.3 16.9 10.2 16.4C10.1 15.8 10.1 15.2 10.2 14.6C10.3 14 10.4 13.4 10.7 12.9C11 12.3 11.4 11.8 11.9 11.4C12.9 10.6 14.1 10.2 15.5 10.1C16.7 10 18 10.2 19.5 10.6C20.8 11 22.3 11.6 23.9 12.4C25.4 13.1 27.1001 14.1 28.8001 15.1C30.5001 16.1 32.2001 17.3 34 18.6C35.8 19.9 37.6 21.3 39.5 22.8C40.9 24 42.4001 25.2 43.8001 26.4C44.2001 26.8 44.5 27.3 44.5 27.8C44.5 28.3 44.4001 28.9 44 29.3C43.6 29.7 43.1001 30 42.6001 30C42.0001 30 41.5001 29.9 41.1001 29.5C39.7001 28.3 38.3 27.1 36.9 26C35.1 24.5 33.3001 23.2 31.6001 21.9C29.9001 20.6 28.2001 19.5 26.6001 18.5C25.0001 17.5 23.5001 16.7 22.1001 16C20.7001 15.3 19.4001 14.8 18.3001 14.5C17.2001 14.2 16.3001 14.1 15.6001 14.1C15.0001 14.1 14.6001 14.3 14.3001 14.5C14.3001 14.5 14.3 14.5 14.2 14.6C14.2 14.7 14.1001 14.8 14.1001 15C14.1001 15.2 14.1001 15.5 14.1001 15.8C14.1001 16.2 14.2 16.6 14.4 17C14.5 17.5 14.7 18 14.9 18.5C15.1 19.1 15.4 19.7 15.7 20.3C16 20.9 16.4001 21.6 16.8001 22.3C17.2001 23 17.7001 23.7 18.1001 24.5C18.6001 25.3 19.1 26 19.7 26.8C20.3 27.6 20.9 28.4 21.5 29.3C22.2 30.2 22.8 31 23.5 31.9C24.2 32.8 25 33.7 25.7 34.5C26.5 35.4 27.3001 36.3 28.1001 37.2C29.0001 38.1 29.8 39.1 30.7 39.9C31.6 40.8 32.5 41.8 33.4 42.7C34.3 43.6 35.3001 44.6 36.3001 45.5C37.3001 46.4 38.2 47.3 39.2 48.2C40.1 49.1 41.1001 49.9 42.1001 50.7C43.0001 51.5 44 52.3 44.9 53C45.8 53.7 46.8 54.5 47.7 55.2C48.6 55.9 49.5 56.6 50.4 57.2C51.3 57.8 52.2001 58.4 53 59C53.8 59.6 54.7001 60.1 55.5 60.6C56.3 61.1 57.1 61.6 57.9 62C58.6 62.4 59.4001 62.8 60.1001 63.2C60.8001 63.5 61.5001 63.9 62.1001 64.1C62.7001 64.4 63.4 64.6 63.9 64.8C64.5 65 65 65.2 65.5 65.3C66 65.4 66.4001 65.5 66.8001 65.5C67.2001 65.5 67.5001 65.6 67.8001 65.5C68.1001 65.5 68.3 65.4 68.4 65.4C68.5 65.4 68.6 65.3 68.7 65.2C68.8 65.1 68.9001 65 69 64.6C69.1 64.1 69 63.4 68.7 62.6C68.4 61.7 67.9001 60.5 67.3001 59.3C66.6001 58.1 65.8001 56.7 64.8001 55.2C63.8001 53.7 62.7 52.2 61.4 50.6C60.1 49 58.7 47.3 57.2 45.6C55.7 43.9 54.1 42.2 52.5 40.5C52.1 40.1 51.9 39.6 51.9 39C51.9 38.5 52.1 37.9 52.5 37.6C52.9001 37.3 53.4001 37 54 37C54.5 37 55.1 37.2 55.4 37.6C57.1 39.4 58.7001 41.1 60.3001 42.9C61.8001 44.7 63.3001 46.4 64.6001 48C65.9001 49.7 67.2 51.3 68.2 52.9C69.3 54.5 70.2 56 70.9 57.4C71.7 58.9 72.3001 60.2 72.6001 61.4C73.0001 62.8 73.2001 64 73 65.1C72.8 66.5 72.2 67.6 71.2 68.4C70.8 68.7 70.2 69 69.7 69.2C69.2 69.4 68.6 69.5 68 69.5C68.5 69.7 68.3001 69.7 68.1001 69.7ZM16.1001 11.1C16.0001 11.1 15.8 11.1 15.7 11.1C14.5 11.2 13.5 11.5 12.7 12.2C12.3 12.5 12.0001 12.9 11.8001 13.3C11.6001 13.7 11.5 14.2 11.4 14.7C11.4 15.2 11.4 15.7 11.4 16.2C11.5 16.7 11.6001 17.3 11.8001 17.9C12.0001 18.5 12.2 19.1 12.5 19.7C12.8 20.3 13.1 21 13.4 21.7C13.8 22.4 14.1001 23.1 14.6001 23.9C15.0001 24.6 15.5 25.4 16 26.2C16.5 27 17.1 27.8 17.7 28.6C18.3 29.4 18.9001 30.3 19.6001 31.1C20.3001 32 21 32.9 21.7 33.7C22.4 34.6 23.2 35.5 24 36.4C24.8 37.3 25.6 38.3 26.5 39.2C27.4 40.2 28.3001 41.1 29.1001 42C30.0001 43 31 43.9 31.9 44.8C32.9 45.8 33.8001 46.7 34.8001 47.6C35.8001 48.5 36.8001 49.4 37.8001 50.3C38.8001 51.2 39.8001 52 40.8001 52.9C41.7001 53.7 42.7 54.5 43.7 55.3C44.6 56.1 45.6 56.8 46.5 57.5C47.4001 58.2 48.4001 58.9 49.3001 59.5C50.2001 60.1 51.1 60.8 52 61.4C52.9001 62 53.7001 62.5 54.6001 63.1C55.4001 63.6 56.3001 64.1 57.1001 64.6C57.9001 65 58.7 65.5 59.4 65.8C60.2 66.2 60.9001 66.5 61.6001 66.8C62.3001 67.1 63 67.4 63.7 67.6C64.4 67.8 65.0001 68 65.6001 68.2C66.2001 68.3 66.8001 68.5 67.3001 68.5C67.9001 68.6 68.4 68.6 68.9 68.5C69.4 68.5 69.9001 68.4 70.3001 68.2C70.8001 68 71.2001 67.8 71.5 67.5C72.3 66.9 72.8 66 72.9 64.9C73 64 72.9001 62.9 72.5 61.6C72.2001 60.5 71.6001 59.2 70.8001 57.8C70.1001 56.5 69.2001 55 68.1001 53.4C67.1001 51.9 65.9001 50.3 64.5 48.6C63.2001 47 61.8 45.2 60.2 43.5C58.7 41.8 57.1 40 55.4 38.3C55.2 38.1 54.9 38 54.7 38C54.4 38 54.2001 38.1 54 38.3C53.6 38.7 53.6 39.4 54 39.8C55.7001 41.5 57.3001 43.3 58.8001 45C60.3001 46.7 61.7001 48.4 63 50C64.3 51.6 65.5 53.2 66.5 54.7C67.5 56.2 68.4001 57.6 69.1001 58.9C69.8001 60.2 70.3001 61.4 70.6001 62.4C70.9001 63.4 71 64.2 70.9 64.8C70.8 65.5 70.5001 65.8 70.3001 66C70.1001 66.1 69.9 66.2 69.7 66.3C69.4 66.4 69.1001 66.4 68.8001 66.5C68.4001 66.5 68.0001 66.5 67.6001 66.5C67.1001 66.5 66.7001 66.4 66.1001 66.2C65.6001 66.1 65 65.9 64.4 65.7C63.8 65.5 63.1 65.2 62.5 65C61.8 64.7 61.1 64.4 60.4 64C59.7 63.6 58.9001 63.2 58.1001 62.8C57.3001 62.4 56.5 61.9 55.7 61.4C54.9 60.9 54 60.3 53.2 59.8C52.3 59.2 51.5001 58.6 50.6001 58C49.7001 57.4 48.8 56.7 47.9 56C47 55.3 46.0001 54.5 45.1001 53.8C44.1001 53 43.2 52.2 42.2 51.4C41.2 50.6 40.2001 49.7 39.3001 48.9C38.3001 48 37.3 47.1 36.4 46.2C35.4 45.3 34.5 44.4 33.5 43.4C32.6 42.5 31.7001 41.6 30.8001 40.6C29.9001 39.7 29.1 38.8 28.2 37.8C27.4 36.9 26.6001 36 25.8001 35.1C25.0001 34.2 24.3001 33.3 23.6001 32.4C22.9001 31.5 22.2001 30.7 21.6001 29.8C21.0001 29 20.3001 28.1 19.8001 27.3C19.2001 26.5 18.7 25.7 18.2 24.9C17.7 24.1 17.2001 23.4 16.8001 22.7C16.4001 22 16 21.3 15.7 20.6C15.4 20 15.1001 19.3 14.8001 18.7C14.6001 18.1 14.4 17.6 14.2 17.1C14.1 16.6 14 16.1 13.9 15.7C13.9 15.3 13.8 15 13.9 14.6C13.9 14.3 14.0001 14.1 14.1001 13.9C14.2001 13.7 14.3 13.6 14.4 13.5C14.9 13.1 15.5 12.9 16.2 12.9C17 12.9 18 13 19.2 13.3C20.4 13.6 21.7001 14.2 23.1001 14.9C24.5001 15.6 26.1 16.5 27.7 17.5C29.3 18.5 31.0001 19.6 32.8001 20.9C34.5001 22.1 36.3001 23.5 38.1001 25C39.5001 26.1 40.9001 27.3 42.3001 28.5C42.5001 28.7 42.8001 28.8 43.1001 28.8C43.4001 28.8 43.6001 28.7 43.8001 28.4C44.0001 28.2 44.1001 27.9 44.1001 27.6C44.1001 27.3 44 27.1 43.7 26.9C42.3 25.7 40.8 24.5 39.4 23.3C37.5 21.8 35.7001 20.4 34 19.1C32.2001 17.8 30.5001 16.6 28.8001 15.6C27.1001 14.5 25.5 13.6 24 12.9C22.4 12.1 21 11.6 19.7 11.2C18.1 11.3 17.0001 11.1 16.1001 11.1Z" fill="white"/>
<path d="M22.3998 80.2C16.8998 80.2 11.6999 78.1 7.69985 74.4C3.49985 70.5 1.0998 65.1 0.899803 59.4C0.699803 53.6 2.79985 48.2 6.69985 44C10.5999 39.8 15.9999 37.4 21.6999 37.2C23.3999 37.2 25.0999 37.3 26.6999 37.6C27.4999 37.8 28.0998 38.6 27.8998 39.4C27.6998 40.2 26.9 40.8 26.1 40.6C24.7 40.3 23.1999 40.2 21.7999 40.2C16.9 40.3 12.2998 42.4 8.8998 46C5.4998 49.6 3.7998 54.3 3.8998 59.2C3.9998 64.1 6.09985 68.7 9.69985 72.1C13.2999 75.5 17.9998 77.2 22.8998 77.1C27.7998 77 32.4 74.9 35.7999 71.3C39.2 67.7 40.8999 63 40.7999 58.1C40.7999 56.8 40.5999 55.4 40.1999 54.1C39.9999 53.3 40.5 52.4 41.2999 52.2C42.0999 52 42.9999 52.5 43.1999 53.3C43.5999 54.8 43.7998 56.4 43.8998 58C44.0998 63.8 42 69.2 38.1 73.4C34.2 77.6 28.8 80 23.1 80.2C22.9 80.2 22.6998 80.2 22.3998 80.2Z" fill="white"/>
<path d="M22.3998 80.7C16.7998 80.7 11.3999 78.6 7.29993 74.7C2.99993 70.7 0.599787 65.2 0.399787 59.3C0.199787 53.4 2.29979 47.8 6.39979 43.5C10.3998 39.2 15.8999 36.8 21.7999 36.6C23.4999 36.6 25.1998 36.7 26.8998 37C27.9998 37.2 28.6999 38.3 28.4999 39.4C28.3999 39.9 28.1 40.4 27.6 40.7C27.1 41 26.6 41.1 26.1 41C24.7 40.7 23.2998 40.6 21.8998 40.6C17.0998 40.7 12.6998 42.7 9.39979 46.2C6.09979 49.7 4.39988 54.2 4.49988 59C4.59988 63.8 6.59998 68.2 10.1 71.5C13.6 74.8 18.0998 76.5 22.8998 76.4C27.6998 76.3 32.0998 74.3 35.3998 70.8C38.6998 67.3 40.3999 62.8 40.2999 58C40.2999 56.7 40.0999 55.4 39.7999 54.1C39.6999 53.6 39.6999 53 39.9999 52.5C40.2999 52 40.6999 51.7 41.2999 51.6C41.7999 51.5 42.3998 51.5 42.8998 51.8C43.3998 52.1 43.6999 52.5 43.7999 53.1C44.1999 54.7 44.3999 56.3 44.4999 57.9C44.6999 63.8 42.5999 69.4 38.4999 73.7C34.4999 78 29 80.4 23.1 80.6C22.9 80.7 22.6998 80.7 22.3998 80.7ZM22.3998 37.6C22.1998 37.6 21.9999 37.6 21.7999 37.6C16.1999 37.8 11 40.1 7.09998 44.2C3.29998 48.3 1.19979 53.6 1.39979 59.3C1.59979 64.9 3.89988 70.1 7.99988 74C12.0999 77.8 17.5 79.9 23.1 79.7C28.7 79.5 33.8999 77.2 37.7999 73.1C41.5999 69 43.6999 63.7 43.4999 58C43.4999 56.5 43.1998 54.9 42.8998 53.4C42.7998 53.1 42.6998 52.9 42.3998 52.8C42.1998 52.7 41.9 52.6 41.6 52.7C41.3 52.8 41.0999 52.9 40.9999 53.2C40.8999 53.4 40.7998 53.7 40.8998 54C41.1998 55.3 41.3999 56.7 41.4999 58.1C41.6999 63.2 39.7998 68 36.3998 71.7C32.8998 75.4 28.1998 77.5 23.1998 77.6C18.0998 77.8 13.2998 75.9 9.69984 72.5C5.99984 69 3.89993 64.3 3.79993 59.3C3.59993 54.2 5.49979 49.4 8.89979 45.7C12.3998 42 17.1 39.9 22.1 39.8C23.6 39.8 25.0999 39.9 26.4999 40.2C26.7999 40.3 27.0999 40.2 27.2999 40C27.4999 39.8 27.6999 39.6 27.7999 39.3C27.8999 38.7 27.4999 38.2 26.9999 38.1C25.2999 37.8 23.8998 37.6 22.3998 37.6Z" fill="white"/>
<path d="M52.9999 48.5C52.3999 48.5 51.5999 48.1 50.4999 47.5L49.8998 47.2C44.3998 44.4 37.4999 37.8 34.2999 32.6L33.9999 32.1C32.9999 30.4 32.4998 29.6 33.1998 28.6C33.7998 27.7 34.9 27.9 35.6 28C36.7 28.2 38.6999 28.6 41.7999 27.6C44.0999 26.9 45.9999 25.6 47.7999 23.7C50.6999 20.6 51.0999 18 51.4999 14.9C52.6999 6.6 57.9999 1.30001 65.2999 1.10001C72.8999 0.900012 79.2999 6.90001 79.4999 14.5C79.5999 18.3 78.2999 21.8 75.7999 24.4C73.4999 26.7 70.3 28.4 66.6 29C63.5 29.6 60.8998 30 57.8998 33.2C56.0998 35.1 54.8998 37.2 54.3998 39.4C53.5998 42.6 54.1999 44.7 54.4999 45.7C54.6999 46.4 55 47.4 54.1 48.1C53.7 48.4 53.3999 48.5 52.9999 48.5ZM37.1998 31.3C39.9998 35.9 46.1998 41.7 50.8998 44.3C50.6998 42.9 50.6999 41 51.2999 38.6C51.9999 35.8 53.4 33.3 55.6 31C59.3 27.1 62.6999 26.5 65.9999 25.9C72.6999 24.7 76.5998 20.4 76.3998 14.6C76.1998 8.70001 71.2998 4.10002 65.3998 4.20002C59.5998 4.40002 55.5 8.5 54.6 15.4C54.1 18.7 53.7 22.1 50.1 25.9C48 28.1 45.4999 29.7 42.7999 30.6C40.4999 31.3 38.5998 31.4 37.1998 31.3Z" fill="white"/>
<path d="M53.0001 49C52.2001 49 51.5001 48.6 50.3001 48L49.7 47.7C44.2 44.9 37.1 38.2 33.9 32.9L33.6002 32.4C32.6002 30.7 31.9001 29.6 32.8001 28.4C33.6001 27.2 35 27.4 35.7 27.6C36.7 27.8 38.7002 28.1 41.6002 27.2C43.8002 26.5 45.7 25.3 47.4 23.4C50.2 20.4 50.5001 17.9 51.0001 14.9C52.2001 6.3 57.7001 0.900012 65.3001 0.600012C73.2001 0.400012 79.8001 6.60001 80.0001 14.5C80.1001 18.5 78.8 22 76.2 24.7C73.8 27.1 70.6 28.8 66.7 29.5C63.7 30 61.1 30.5 58.2 33.6C56.5 35.5 55.3001 37.4 54.8001 39.6C54.0001 42.7 54.6 44.6 54.9 45.7C55.1 46.4 55.5001 47.7 54.3001 48.7C53.9001 48.9 53.5001 49 53.0001 49ZM34.7 28.4C34.3 28.4 33.9002 28.5 33.6002 28.9C33.1002 29.6 33.4 30.1 34.4 31.8L34.7 32.3C37.8 37.5 44.7002 44 50.1002 46.8L50.7 47.1C51.7 47.6 52.5001 48 53.0001 48C53.2001 48 53.5 47.9 53.7 47.7C54.3 47.2 54.2 46.6 53.9 45.8C53.6 44.7 53.0001 42.6 53.8001 39.2C54.4001 36.8 55.6 34.7 57.4 32.8C60.5 29.5 63.2 29 66.4 28.4C70.1 27.7 73.2 26.2 75.4 23.9C77.8 21.4 79.1001 18.1 79.0001 14.4C78.8001 7.1 72.6001 1.30001 65.3001 1.50001C58.2001 1.70001 53.1001 6.8 52.0001 14.9C51.6001 18 51.2 20.8 48.2 24C46.4 26 44.3001 27.3 42.0001 28C38.8001 29 36.7002 28.7 35.6002 28.5C35.3002 28.5 35 28.4 34.7 28.4ZM51.0001 44.8C50.9001 44.8 50.8001 44.8 50.8001 44.7C46.0001 42.1 39.7 36.2 36.9 31.5C36.8 31.3 36.8 31.1 36.9 31C37 30.8 37.2 30.7 37.4 30.8C39.1 30.9 40.9001 30.6 42.8001 30C45.5001 29.1 47.8 27.6 49.9 25.4C53.4 21.7 53.8001 18.4 54.3001 15.2C55.3001 8.10002 59.5002 3.80001 65.6002 3.60001C68.6002 3.50001 71.4002 4.60001 73.6002 6.60001C75.8002 8.60001 77.0002 11.4 77.1002 14.4C77.3002 20.6 73.2001 25 66.3001 26.2C63.1001 26.8 59.7002 27.4 56.1002 31.2C54.0002 33.4 52.6 35.9 51.9 38.6C51.4 40.5 51.3001 42.4 51.5001 44.1C51.5001 44.3 51.4001 44.5 51.3001 44.6C51.2001 44.8 51.1001 44.8 51.0001 44.8ZM38.2 31.9C41 36 46.1 40.9 50.4 43.4C50.3 41.8 50.5 40.2 50.9 38.5C51.6 35.7 53.1001 33 55.3001 30.7C59.1001 26.7 62.6001 26 66.0001 25.4C72.4001 24.2 76.2001 20.2 76.0001 14.6C75.9001 11.9 74.8001 9.40001 72.8001 7.50001C70.8001 5.60001 68.2001 4.60002 65.5001 4.70002C59.9001 4.90002 56.1002 8.9 55.1002 15.4C54.6002 18.8 54.1001 22.2 50.5001 26.2C48.3001 28.5 45.8001 30.1 43.0001 31C41.3001 31.5 39.7 31.8 38.2 31.9Z" fill="white"/>
<path d="M22.4 73.9C18.5 73.9 14.8001 72.4 12.0001 69.8C9.00012 67 7.30007 63.2 7.20007 59.2C7.10007 55.1 8.50017 51.2 11.3002 48.3C14.1002 45.3 17.9 43.6 21.9 43.5C25.9 43.4 30.0002 44.9 32.8002 47.6C35.7002 50.3 37.5002 54.3 37.6002 58.2C37.7002 62.3 36.3001 66.2 33.5001 69.1C30.7001 72.1 26.9 73.8 22.9 73.9C22.8 73.9 22.6 73.9 22.4 73.9ZM22.4 46.5C22.3 46.5 22.2002 46.5 22.1002 46.5C18.9002 46.6 15.9002 48 13.6002 50.3C11.4002 52.7 10.2002 55.7 10.3002 59C10.4002 62.2 11.8002 65.2 14.1002 67.5C16.5002 69.7 19.6002 70.9 22.8002 70.8C26.0002 70.7 29.0002 69.3 31.3002 67C33.5002 64.6 34.7002 61.6 34.6002 58.3C34.5002 55.2 33.1002 52 30.8002 49.8C28.6002 47.8 25.5 46.5 22.4 46.5Z" fill="white"/>
<path d="M22.4 74.4C18.4 74.4 14.5002 72.9 11.6002 70.1C8.50015 67.2 6.80001 63.3 6.70001 59.1C6.60001 54.9 8.10005 50.9 11.0001 47.8C13.9001 44.7 17.8001 43 22.0001 42.9C26.1001 42.8 30.3001 44.4 33.3001 47.2C36.3001 50 38.1 54.1 38.2 58.2C38.3 62.4 36.8 66.4 33.9 69.5C31 72.6 27.1 74.3 22.9 74.4C22.8 74.4 22.6 74.4 22.4 74.4ZM22.4 43.9C22.3 43.9 22.1001 43.9 22.0001 43.9C18.1001 44 14.4 45.7 11.7 48.5C9.00001 51.4 7.60001 55.1 7.70001 59.1C7.80001 63 9.5001 66.7 12.3001 69.4C15.2001 72.1 18.9 73.5 22.9 73.4C26.8 73.3 30.5 71.6 33.2 68.8C35.9 65.9 37.3 62.2 37.2 58.2C37.1 54.4 35.4002 50.5 32.6002 47.9C29.9002 45.4 26.1 43.9 22.4 43.9ZM22.4 71.3C19.2 71.3 16.1001 70.1 13.8001 67.9C11.3001 65.6 9.9001 62.5 9.8001 59.1C9.7001 55.7 10.9 52.5 13.2 50C15.5 47.5 18.6001 46.1 22.0001 46H22.4C25.6 46 28.8002 47.3 31.1002 49.4C33.5002 51.6 35.0002 54.9 35.1002 58.2C35.2002 61.6 34 64.8 31.7 67.3C29.4 69.8 26.3 71.2 22.9 71.3C22.7 71.3 22.6 71.3 22.4 71.3ZM22.4 47H22.1002C19.0002 47.1 16.1001 48.4 14.0001 50.7C11.9001 53 10.7001 55.9 10.8001 59C10.9001 62.1 12.2001 65 14.5001 67.1C16.8001 69.2 19.7001 70.4 22.8001 70.3C25.9001 70.2 28.8 68.9 30.9 66.6C33 64.3 34.2002 61.4 34.1002 58.3C34.0002 55.3 32.6001 52.2 30.5001 50.2C28.3001 48.2 25.3 47 22.4 47Z" fill="white"/>
<path d="M68.6001 22.2C68.0001 22.2 67.4 21.9 67.2 21.3C66.9 20.5 67.2 19.6 68 19.3C68.6 19 69.1 18.7 69.5 18.2C69.9 17.7 70.3 17.2 70.5 16.6C70.7 16 70.8001 15.4 70.8001 14.8C70.8001 14.2 70.5999 13.6 70.3999 13C70.0999 12.4 69.8001 11.9 69.3001 11.5C68.9001 11.1 68.3 10.7 67.7 10.5C66.9 10.2 66.5001 9.3 66.8001 8.5C67.1001 7.7 68.0001 7.3 68.8001 7.6C69.8001 8 70.6999 8.50001 71.3999 9.20001C72.0999 9.90001 72.8 10.8 73.2 11.7C73.6 12.6 73.8999 13.7 73.8999 14.7C73.8999 15.7 73.7999 16.7 73.3999 17.7C72.9999 18.7 72.5 19.6 71.7 20.4C71 21.2 70.1001 21.8 69.1001 22.2C69.0001 22.1 68.8001 22.2 68.6001 22.2Z" fill="white"/>
<path d="M68.6001 22.7C67.8001 22.7 66.9999 22.2 66.6999 21.5C66.4999 21 66.4999 20.4 66.6999 19.9C66.8999 19.4 67.3 19 67.8 18.8C68.3 18.6 68.7999 18.2 69.1999 17.8C69.5999 17.4 69.9001 16.9 70.1001 16.4C70.3001 15.9 70.3999 15.3 70.3999 14.8C70.3999 14.3 70.3 13.7 70 13.2C69.8 12.7 69.4 12.2 69 11.8C68.6 11.4 68.1001 11.1 67.6001 10.9C67.1001 10.7 66.7 10.3 66.5 9.8C66.3 9.3 66.2999 8.70002 66.3999 8.20002C66.7999 7.10002 68 6.60001 69 7.00001C70 7.40001 71 8.00002 71.8 8.70002C72.6 9.40002 73.1999 10.4 73.6999 11.4C74.0999 12.4 74.3999 13.5 74.3999 14.6C74.3999 15.7 74.2999 16.8 73.8999 17.8C73.4999 18.9 72.9001 19.8 72.1001 20.6C71.3001 21.4 70.3999 22.1 69.3999 22.5C69.1999 22.6 68.9001 22.7 68.6001 22.7ZM68.3 7.90001C68.2 7.90001 67.9999 7.90001 67.8999 8.00001C67.5999 8.10001 67.4 8.30002 67.3 8.60002C67.2 8.90002 67.2 9.10001 67.3 9.40001C67.4 9.70001 67.5999 9.90001 67.8999 9.90001C68.5999 10.1 69.1999 10.5 69.6999 11C70.1999 11.5 70.5999 12 70.8999 12.7C71.1999 13.3 71.2999 14 71.3999 14.7C71.3999 15.4 71.3001 16.1 71.1001 16.7C70.9001 17.4 70.5 18 70 18.5C69.5 19 68.9 19.4 68.3 19.7C68 19.8 67.7999 20 67.6999 20.3C67.5999 20.6 67.5999 20.8 67.6999 21.1C67.8999 21.6 68.6001 21.9 69.1001 21.6C70.0001 21.2 70.8 20.6 71.5 19.9C72.2 19.2 72.7 18.3 73 17.4C73.3 16.5 73.5 15.6 73.5 14.6C73.5 13.7 73.2999 12.7 72.8999 11.8C72.4999 10.9 71.8999 10.1 71.1999 9.40001C70.4999 8.70001 69.6999 8.20001 68.6999 7.90001C68.4999 7.90001 68.4 7.90001 68.3 7.90001Z" fill="white"/>
</svg>
