<svg width="48" height="87" viewBox="0 0 48 87" fill="none" xmlns="http://www.w3.org/2000/svg">
<path d="M47.4002 0.199997H0.800201C0.700201 0.199997 0.700195 0.300003 0.700195 0.300003V3.2C0.700195 4 1.3002 4.60001 2.1002 4.60001H46.5002C47.0002 4.60001 47.5002 4.20001 47.5002 3.60001V0.199997H47.4002Z" fill="#729EFC"/>
<path d="M21.3 71L16.7 66.4C16.2 65.9 15.8 65.9 15.3 66.4C14.7 67.1 14 67.8 13.3 68.4C13.1 68.6 13 68.8 13 69C13 69.2 13.1 69.4 13.3 69.6C14.4 70.7 15.5 71.8 16.7 72.9C18.9 75.1 21.2 77.4 23.5 79.7C23.7 79.9 23.9 80 24.1 80C24.1 80 24.1 80 24.2 80C24.6 80 25 79.4 25.8 78.1C26.1 77.7 26.4 77.2 26.8 76.6L34.4 69.8C34.9 69.5 35.1 69.3 35.2 69C35.2 68.7 35.1 68.5 34.9 68.4C34.7 68.2 34.5 68 34.3 67.8C33.9 67.4 33.4 67 33 66.5C32.8 66.2 32.6 66.1 32.4 66.1C32.2 66.1 31.9 66.2 31.7 66.5L27.1 71.1L27 71.2C26.9 71.3 26.8 71.4 26.6 71.5V15.3C26.8 15.4 26.9 15.5 27 15.6L27.1 15.7C28.2 16.7 29.2 17.8 30.3 18.9C30.8 19.4 31.3 19.9 31.8 20.5C32.3 20.9 32.6 21 33.1 20.5C33.7 19.8 34.3 19.2 35 18.6C35.4 18.1 35.5 17.8 35 17.3L25 7.3C24.7 7 24.2 7 23.9 7.3L13.8 17.4C13.3 17.9 13.4 18.2 13.8 18.6L15.4 20.2C15.8 20.7 16 20.9 16.3 20.9C16.6 20.9 16.8 20.7 17.2 20.2L22 15.4C22 33.8 22 52.9 22.1 71.5C22 71.4 21.9 71.3 21.8 71.2C21.4 71.1 21.4 71 21.3 71Z" fill="#729EFC"/>
<path d="M46.1002 82.1H1.5002C1.1002 82.1 0.700195 82.5 0.700195 82.9V85.1C0.700195 86.5 0.700198 86.5 2.0002 86.5H46.5002C47.2002 86.5 47.5002 86.2 47.5002 85.5V83.6C47.5002 82.2 47.5002 82.1 46.1002 82.1Z" fill="#729EFC"/>
</svg>
