<svg xmlns="http://www.w3.org/2000/svg" viewBox="0 0 90.99 94.77"><defs><style>.cls-1{fill:#5fa8ff;}</style></defs><g id="Layer_2" data-name="Layer 2"><g id="Layer_1-2" data-name="Layer 1"><path class="cls-1" d="M90.4,42.07A45.28,45.28,0,0,0,75.39,15a40,40,0,0,0-6.11-4.49,2,2,0,0,0-2.84.59,2,2,0,0,0,.72,2.72l.34.22a41.67,41.67,0,0,1,8,6.49c.94,1,.94,1,.28,2.2a3,3,0,0,1-2.43,1.93A6.09,6.09,0,0,0,68.46,28l-.31.56a12.69,12.69,0,0,0-.79,1.51c-.59,1.49-1.59,2-3.41,2-5.71-.3-9.75,2.87-10.79,8.47a13.3,13.3,0,0,1-3,6.57c-.74.85-1.39,1.77-2,2.66l-.31.44a4.47,4.47,0,0,0,.93,6.3c1.08.83,2.19,1.62,3.27,2.39a4.58,4.58,0,0,0,2.85.87,5.44,5.44,0,0,1,.84,0,3.79,3.79,0,0,1,.16.94c0,.19.06.38.1.57.89,4.64,3.27,8.92,7.27,13.1a5.07,5.07,0,0,0,3.88,1.59,5.81,5.81,0,0,0,4.21-2A30.22,30.22,0,0,0,77.14,65a.84.84,0,0,1,.07-.16l.13.1c1.33,1,2.9,2.28,4.51,3.47.33.24.36.3.13.7C74.72,81.71,63.76,88.94,49.43,90.63c-.25,0-.27,0-.32,0a2.84,2.84,0,0,1-.69-2.12,2.62,2.62,0,0,1,1-1.88,5.61,5.61,0,0,0,2-2.62c1-3.39.5-6-1.58-8.14-.26-.26-.51-.54-.76-.81l-.41-.45c-1.45-1.58-1.5-2.13-.34-3.89a6,6,0,0,0-3.23-9.43c-1.95-.67-3.66-1.22-5.24-1.7a2.2,2.2,0,0,1-1.35-1.1c-1.36-2.41-2.6-4.57-3.92-6.73A4.31,4.31,0,0,0,31,49.59a4.43,4.43,0,0,0-3.77,1.83c-.25.35-.48.71-.71,1.09-.1.16-.19.32-.3.47-.39.62-.53.59-.77.48s-.36-.2-.17-.9c.66-2.51,1.32-5,1.95-7.53a1.46,1.46,0,0,1,.84-1l.24-.12c1.25-.61,2.54-1.24,3.77-1.94a4.36,4.36,0,0,0,2.08-5.6,6.67,6.67,0,0,0-5.91-4.52,13.23,13.23,0,0,1-6.19-2.32,24.58,24.58,0,0,0-3.27-2,7.26,7.26,0,0,1-4.08-5.31A1.11,1.11,0,0,1,15,21a44.84,44.84,0,0,1,6.45-5.65l.31-.22c0,.11.07.23.09.32A27.06,27.06,0,0,0,28.5,27a5.64,5.64,0,0,0,4.07,1.87h0a5.84,5.84,0,0,0,4.23-1.95,28.44,28.44,0,0,0,4.71-6.56c1.67-3.22,3.38-7.53,1.93-12.52h0a40.69,40.69,0,0,1,7.65.3A41.86,41.86,0,0,1,62,11.1a2,2,0,1,0,1.52-3.62A44.61,44.61,0,0,0,41.86,3.94c-.4,0-.54,0-.67-.15A12.14,12.14,0,0,0,34.62,0H30.84l-.13,0-.18.05L30.2.16a11.57,11.57,0,0,0-8.86,10.19c0,.3-.14.42-.52.67a43.44,43.44,0,0,0-8.94,7.57C2.59,29.08-1.29,41.4.37,55.21A44.16,44.16,0,0,0,9.23,76.76a35.19,35.19,0,0,0,3.2,3.73,1.9,1.9,0,0,0,2.74.14,2,2,0,0,0,.18-2.73,4.54,4.54,0,0,0-.45-.52l-.13-.14a39.25,39.25,0,0,1-4.33-5.65,41.61,41.61,0,0,1,1.11-46.3v0A10.67,10.67,0,0,0,17,31c1.18.65,2.43,1.41,3.95,2.41a12.93,12.93,0,0,0,5.46,2.06c.77.11,1.39.21,1.94.33a2.72,2.72,0,0,1,2,1.66c.23.57.14.84-.38,1.1-.88.44-1.75.9-2.62,1.35L26,40.65a4.09,4.09,0,0,0-2.26,2.45c-.9,3.07-1.83,6.25-2.46,9.51a3.94,3.94,0,0,0,1.11,3.46,4.4,4.4,0,0,0,3.73,1.39,4.77,4.77,0,0,0,3.57-2.55c.76-1.27,1-1.41,1.1-1.41s.33.14,1.06,1.39l.87,1.49c.78,1.31,1.58,2.68,2.33,4a5.84,5.84,0,0,0,3.7,2.93c1.69.5,3.42,1.06,5.27,1.72a2.17,2.17,0,0,1,1.37,1.29,2.27,2.27,0,0,1-.27,1.94c-.1.16-.21.32-.32.48l-.22.34A5.88,5.88,0,0,0,45,76.41c.43.52.9,1,1.36,1.49.26.27.51.53.76.81a3.42,3.42,0,0,1,.86,2.58,3.36,3.36,0,0,1-1.21,2.38,5.82,5.82,0,0,0-2.28,4.17,7,7,0,0,0,.49,3h0a52.77,52.77,0,0,1-8.34-1A42.28,42.28,0,0,1,19.38,81.6a2.48,2.48,0,0,0-1.8-.6,1.87,1.87,0,0,0-1.25.74,2,2,0,0,0,.57,2.92,45.27,45.27,0,0,0,25.59,10c1,.07,2.08.11,3.11.11a45.89,45.89,0,0,0,22.55-6C84.33,79.72,93.48,60.53,90.4,42.07Zm-14,9.75a10.9,10.9,0,0,0-9-4.8q-.6,0-1.23.06c-4.69.47-8,3-9.71,7.65a1.6,1.6,0,0,1-1,.93,1.41,1.41,0,0,1-1.25-.17c-.86-.59-1.75-1.24-2.72-2-.61-.48-.64-.67-.16-1.33l.46-.64c.47-.66,1-1.34,1.49-1.95A16.09,16.09,0,0,0,57,41.13a5.8,5.8,0,0,1,4.52-5,6.36,6.36,0,0,1,2.28-.1c3.32.24,5.66-1.1,7-4a5.05,5.05,0,0,1,.25-.45c.11-.2.23-.4.32-.61a3.65,3.65,0,0,1,3.24-2.55c1.83-.2,3.3-1.35,4.39-3.44,0-.05,0-.09.07-.13l.1.13a41.72,41.72,0,0,1,7.47,18.78A32.93,32.93,0,0,1,87,48.58h0a42.2,42.2,0,0,1-3,16.12l-.15.36-.32-.25L82,63.59c-1.08-.84-2.16-1.68-3.26-2.49a.67.67,0,0,1-.34-.76A11.19,11.19,0,0,0,76.39,51.82Zm-10-.82a7.35,7.35,0,0,1,8.07,6.53,11.1,11.1,0,0,1-.86,5.57,24.59,24.59,0,0,1-5.21,8.19,1.83,1.83,0,0,1-1.34.65h0a1.59,1.59,0,0,1-1.16-.54c-3.54-3.9-5.41-7.34-6.07-11.15-.06-.36-.09-.72-.12-1.08l-.05-.49A7.59,7.59,0,0,1,66.43,51ZM28.91,4.9a7.49,7.49,0,0,1,3.75-1.07A7.58,7.58,0,0,1,36.42,4.9,7,7,0,0,1,40,10.73h0a16.06,16.06,0,0,1-2.34,8.36A26.61,26.61,0,0,1,34.09,24a2.08,2.08,0,0,1-1.46.83h0a2.17,2.17,0,0,1-1.51-.9c-3.15-3.63-4.9-6.79-5.65-10.24C24.65,10,26,6.56,28.91,4.9Z"/><path class="cls-1" d="M67.05,63.8h0a5.42,5.42,0,0,0,3.84-1.58A5.4,5.4,0,0,0,67.13,53h0a5.4,5.4,0,0,0-5.37,5.37h0A5.4,5.4,0,0,0,67.05,63.8Zm1.5-5.43a1.46,1.46,0,0,1-.39,1.05,1.32,1.32,0,0,1-1,.38,1.37,1.37,0,0,1-1.42-1.39,1.35,1.35,0,0,1,.39-1A1.46,1.46,0,0,1,67.14,57h0A1.28,1.28,0,0,1,68.55,58.37Z"/><path class="cls-1" d="M32.68,16.72a5.44,5.44,0,0,0,0-10.88h0a5.44,5.44,0,0,0,0,10.88Zm0-6.88a1.46,1.46,0,0,1,1,.45,1.42,1.42,0,0,1,.42,1,1.45,1.45,0,0,1-.47,1,1.51,1.51,0,0,1-1,.44,1.47,1.47,0,0,1-1-2.49,1.4,1.4,0,0,1,1-.41Z"/></g></g></svg>