<svg width="157" height="65" viewBox="0 0 157 65" fill="none" xmlns="http://www.w3.org/2000/svg">
<path d="M78.3003 32C75.8003 32 72.0003 30.1 71.9003 26.6C71.8003 24.9 71.3003 23.8 69.0003 23.3C68.1003 23.1 67.3003 22.9 66.6003 22.5C64.5003 21.5 63.2003 19.5 63.3003 17.4C63.4003 15.2 65.0003 13.2 67.4003 12.4C68.1003 12.2 68.9003 11.9 69.8003 11.7C72.2003 11.2 74.6003 11.8 76.4003 13.3C77.4003 14.1 78.9003 14.1 79.9003 13.3C81.7003 11.8 84.1003 11.2 86.5003 11.7C87.4003 11.9 88.2003 12.1 88.9003 12.4C91.2003 13.2 92.8003 15.1 93.0003 17.4C93.1003 19.6 91.9003 21.5 89.7003 22.5C89.0003 22.8 88.2003 23.1 87.3003 23.3C85.3003 23.7 84.3003 24.7 84.4003 26.3C84.5003 27.6 84.0003 28.8 83.0003 29.8C81.8003 31.1 79.9003 32 78.3003 32ZM71.4003 16.6C71.2003 16.6 71.0003 16.6 70.8003 16.7C70.1003 16.8 69.5003 17 68.9003 17.2C68.4003 17.4 68.2003 17.6 68.2003 17.7C68.2003 17.7 68.3003 17.9 68.6003 18C69.0003 18.2 69.4003 18.3 69.9003 18.4C74.1003 19.3 76.6003 22.1 76.8003 26.3C76.9003 26.6 77.8003 27 78.3003 27C78.6003 27 79.2003 26.7 79.4003 26.4C79.3003 23.2 81.1003 19.5 86.3003 18.4C86.8003 18.3 87.2003 18.2 87.6003 18C87.9003 17.9 88.0003 17.7 88.0003 17.7C88.0003 17.6 87.8003 17.3 87.3003 17.2C86.8003 17 86.1003 16.9 85.4003 16.7C84.5003 16.5 83.7003 16.7 83.0003 17.3C80.1003 19.6 76.0003 19.6 73.1003 17.3C72.7003 16.8 72.0003 16.6 71.4003 16.6Z" fill="#729EFC"/>
<path d="M66.1001 22C65.2001 22 64.3001 21.5 63.9001 20.6L60.8001 14.5C60.2001 13.3 60.7001 11.8 61.9001 11.1C63.1001 10.5 64.6001 11 65.3001 12.2L68.4001 18.3C69.0001 19.5 68.5001 21 67.3001 21.7C66.9001 21.9 66.5001 22 66.1001 22Z" fill="#729EFC"/>
<path d="M90.0998 22C89.6998 22 89.2998 21.9 88.9998 21.7C87.7998 21.1 87.2997 19.6 87.8997 18.3L90.9998 12.2C91.5998 11 93.0997 10.5 94.3997 11.1C95.5997 11.7 96.0998 13.2 95.4998 14.5L92.3997 20.6C91.8997 21.5 90.9998 22 90.0998 22Z" fill="#729EFC"/>
<path d="M63.8992 47.9C62.9992 47.9 61.9992 47.8 61.1992 47.5C57.7992 46.9 54.5992 45.7 51.6992 44C50.9992 43.6 50.2992 43.2 49.6992 42.7C48.4992 41.9 48.1992 40.4 48.9992 39.2C49.7992 38 51.2992 37.7 52.4992 38.5C53.0992 38.9 53.6992 39.3 54.2992 39.6C56.6992 41 59.3992 42 62.1992 42.5C62.2992 42.5 62.3992 42.5 62.4992 42.6C65.6992 43.6 71.6992 40.7 75.4992 38.3V29.4C75.4992 28 76.5992 26.9 77.9992 26.9C79.3992 26.9 80.4992 28 80.4992 29.4V39.6C80.4992 40.4 80.0992 41.2 79.3992 41.6C78.3992 42.5 70.5992 47.9 63.8992 47.9Z" fill="#729EFC"/>
<path d="M51.0997 43.1C50.5997 43.1 50.0997 43 49.6997 42.7C37.5997 34.7 36.0997 25.8 36.8997 19.6C38.1997 9.4 46.6997 1.39999 48.1997 0.899988C49.4997 0.499988 50.8997 1.19999 51.3997 2.49999C51.7997 3.59999 51.2997 4.89999 50.2997 5.49999C48.9997 6.49999 41.5997 14 41.7997 22.7C41.8997 28.6 45.5997 33.9 52.5997 38.5C53.7997 39.3 54.0997 40.8 53.2997 42C52.6997 42.7 51.8997 43.1 51.0997 43.1Z" fill="#729EFC"/>
<path d="M92.2004 47.9C85.6004 47.9 77.7004 42.5 76.7004 41.8C75.6004 41 75.3004 39.4 76.1004 38.3C76.9004 37.2 78.5004 36.9 79.6004 37.7C83.2004 40.2 90.1004 43.7 93.7004 42.7C93.8004 42.7 93.9004 42.7 94.0004 42.6C96.9004 42.1 99.6004 41.1 101.9 39.7C110 34.9 114.2 29.3 114.5 23.1C114.9 14.3 107.4 6.59999 106 5.49999C105 4.89999 104.5 3.69999 104.9 2.49999C105.3 1.19999 106.7 0.499988 108.1 0.899988C109.7 1.39999 118.3 9.7 119.4 20.1C120.1 26.5 118.1 35.8 104.5 43.9C101.6 45.6 98.4004 46.8 95.0004 47.4C94.1004 47.8 93.2004 47.9 92.2004 47.9Z" fill="#729EFC"/>
<path d="M78 65C64.2 65 52.4 55.8 49.3 42.5C49 41.2 49.8 39.8 51.2 39.5C52.5 39.2 53.9 40 54.2 41.4C56.8 52.4 66.6 60 78.1 60C89.5 60 99.5 52.1 102 41.2C102.3 39.9 103.7 39 105 39.3C106.3 39.6 107.2 40.9 106.9 42.3C103.7 55.6 91.8 65 78 65Z" fill="#729EFC"/>
<path d="M101.8 28.3C101.1 28.3 100.5 28 99.9999 27.5C99.0999 26.5 99.0999 24.9 100.1 24C127.9 -1.99999 155.4 18.5 155.7 18.7C156.8 19.5 157 21.1 156.2 22.2C155.4 23.3 153.8 23.5 152.7 22.7C151.7 21.9 128.2 4.50001 103.5 27.6C103 28 102.4 28.3 101.8 28.3Z" fill="#729EFC"/>
<path d="M15.3005 63.9C15.0005 63.9 14.6005 63.8 14.3005 63.7C13.0005 63.1 12.5005 61.6 13.1005 60.4C22.3005 40.1 51.3005 30.6 52.6005 30.2C53.9005 29.8 55.3005 30.5 55.7005 31.8C56.1005 33.1 55.4005 34.5 54.1005 34.9C53.8005 35 26.0005 44.1 17.7005 62.4C17.2005 63.3 16.3005 63.9 15.3005 63.9Z" fill="#729EFC"/>
<path d="M55.2001 28.3C54.6001 28.3 54.0001 28.1 53.5001 27.6C28.8001 4.50001 5.30008 21.9 4.30008 22.7C3.20008 23.5 1.60008 23.3 0.800077 22.2C7.66218e-05 21.1 0.200077 19.5 1.30008 18.7C1.60008 18.5 29.1001 -2.1 56.9001 24C57.9001 24.9 58.0001 26.5 57.0001 27.5C56.5001 28 55.8001 28.3 55.2001 28.3Z" fill="#729EFC"/>
<path d="M141.6 63.9C140.6 63.9 139.7 63.4 139.3 62.4C131 44.1 103.1 35 102.9 34.9C101.6 34.5 100.9 33.1 101.3 31.8C101.7 30.5 103.1 29.8 104.4 30.2C105.6 30.6 134.6 40 143.9 60.4C144.5 61.7 143.9 63.1 142.7 63.7C142.3 63.8 142 63.9 141.6 63.9Z" fill="#729EFC"/>
</svg>
