<svg width="121" height="65" viewBox="0 0 121 65" fill="none" xmlns="http://www.w3.org/2000/svg">
<path d="M104.1 34.4C104.8 35.5 106.2 35.7 107.3 35C108.4 34.3 108.6 32.9 107.9 31.8C107.6 31.4 100.8 21.2 85.3002 15.9C78.3002 13.5 70.7002 12.4 62.5002 12.8C55.1002 13.1 47.8002 14.7 40.9002 17.5C27.1002 23 19.6002 31.2 19.3002 31.5C18.9002 32 18.7002 32.5 18.7002 33.2C18.7002 33.8 19.0002 34.4 19.4002 34.8C20.3002 35.6 21.8002 35.6 22.7002 34.7C22.8002 34.6 28.3002 28.7 38.3002 23.8C38.1002 25.2 38.0002 26.6 38.0002 28C38.0002 42.1 49.5002 53.6 63.6002 53.6C77.7002 53.6 89.2002 42.1 89.2002 28C89.2002 26 89.0002 24.1 88.5002 22.2C99.2002 27.1 104 34.3 104.1 34.4ZM63.5002 37.9C58.0002 37.9 53.6002 33.4 53.6002 28C53.6002 22.5 58.1002 18.1 63.5002 18.1C69.0002 18.1 73.4002 22.6 73.4002 28C73.5002 33.4 69.0002 37.9 63.5002 37.9ZM49.0002 27.9C49.0002 35.9 55.5002 42.4 63.5002 42.4C71.5002 42.4 78.0002 35.9 78.0002 27.9C78.0002 24.2 76.6002 20.6 74.0002 17.9C74.3002 17.9 74.6002 18 74.9002 18C75.1002 18 75.3002 18.1 75.5002 18.1L76.0002 18.2C76.4002 18.3 76.7002 18.3 77.1002 18.4C77.3002 18.4 77.6002 18.5 77.8002 18.6H78.0002C78.4002 18.7 78.8002 18.8 79.2002 18.9C79.5002 19 79.8002 19 80.1002 19.1H80.2002C80.6002 19.2 81.0002 19.3 81.4002 19.4C81.7002 19.5 81.9002 19.6 82.2002 19.6L82.4002 19.7C82.6002 19.8 82.7002 19.8 82.9002 19.9C83.9002 22.4 84.5002 25.1 84.5002 27.8C84.5002 39.4 75.1002 48.8 63.5002 48.8C51.9002 48.8 42.5002 39.4 42.5002 27.8C42.5002 25.5 42.8002 23.4 43.5002 21.3C43.8002 21.2 44.1002 21.1 44.5002 20.9L44.8002 20.8C45.1002 20.7 45.4002 20.6 45.7002 20.5C46.2002 20.3 46.6002 20.2 47.1002 20L47.6002 19.8C47.9002 19.7 48.2002 19.6 48.5002 19.5C49.0002 19.4 49.5002 19.2 50.0002 19.1L50.5002 19C50.8002 18.9 51.1002 18.9 51.3002 18.8C51.6002 18.7 51.9002 18.7 52.1002 18.6C50.1002 21.4 49.0002 24.6 49.0002 27.9Z" fill="#729EFC"/>
<path d="M119.6 24.5C118.9 23.5 101.2 0 63.6001 0C25.8001 0 3.50014 30.6 2.50014 32C2.00014 32.8 -1.99986 40.1 1.50014 44.2C4.10014 47.3 9.50014 47.2 18.3001 44C23.2001 49.1 40.2001 64.5 65.9001 64.5C95.8001 64.5 110.3 43.5 111 42.6C111.3 42.1 111.5 41.5 111.4 40.9C111.3 40.3 110.9 39.8 110.4 39.4C109.3 38.7 107.9 39 107.2 40C107.1 40.2 93.4001 59.9 66.0001 59.9C38.4001 59.9 21.0001 40 20.8001 39.8C20.2001 39.1 19.1001 38.8 18.2001 39.2C7.40014 43.4 5.30014 41.5 5.10014 41.3C4.20014 40.2 5.30014 36.7 6.50014 34.6C6.70014 34.3 28.6001 4.7 63.7001 4.7C98.8001 4.7 115.8 27.1 116 27.4C116.8 28.4 118.2 28.6 119.2 27.9C120.1 27 120.3 25.5 119.6 24.5Z" fill="#729EFC"/>
</svg>
