<svg width="78" height="96" viewBox="0 0 78 96" fill="none" xmlns="http://www.w3.org/2000/svg">
<path d="M76.6998 27.9C76.2998 27 75.4998 26.4 74.4998 26.3C72.2998 26.1 69.8998 23.4 67.9998 21.3L67.3998 20.7C67.3998 20.2 67.2998 19.7 67.0998 19.3C65.6998 16.7 66.1998 10.5 67.5998 7.2C68.2998 6.1 68.0998 4.6 67.0998 3.7C66.1998 2.9 64.6998 2.9 63.6998 3.6C61.0998 5 58.9998 6.6 57.1998 8.2C57.2998 5.9 57.2998 3.5 56.2998 1.5C55.8998 0.800002 55.2998 0.300002 54.4998 0.100002C53.6998 -0.0999981 52.8998 0.100002 52.2998 0.600002C48.7998 3.3 44.2998 7.3 40.8998 13.5C40.4998 13.7 40.1998 13.9 39.9998 14.1C34.2998 18.2 29.9998 21.6 27.8998 28.4C27.2998 30.4 26.8998 32.5 26.4998 34.8C25.8998 38.3 25.2998 41.9 23.8998 44.1C21.0998 48.4 18.2998 50.4 13.4998 53C10.2998 54.7 5.6998 57.3 0.799805 60.3C1.5998 62 2.49981 63.5 3.49981 65C8.59981 61.8 13.3998 59.2 15.9998 57.7C21.4998 54.8 25.0998 52.2 28.3998 47C30.4998 43.8 31.1998 39.6 31.7998 35.6C32.1998 33.5 32.4998 31.5 32.9998 29.9C34.5998 24.8 37.7998 22.1 42.7998 18.6C44.2998 18.5 44.8998 17.4 45.4998 16.3C47.3998 12.8 49.6998 10 51.8998 7.9C51.8998 8.2 51.8998 8.6 51.8998 8.9C51.7998 10 51.7998 11 51.7998 11.9C51.9998 16.2 54.7998 18.7 55.0998 19C55.2998 19.2 55.5998 19.3 55.7998 19.4C57.2998 20 61.5998 22.1 63.2998 24L63.9998 24.8C66.0998 27.2 68.6998 30.1 72.0998 31.2C72.1998 32.1 72.0998 33.1 71.6998 34.2C70.3998 37.7 66.3998 41.1 63.3998 42.4C63.0998 42.5 62.8998 42.7 62.5998 42.8C62.2998 42.8 62.0998 42.9 61.7998 43C59.1998 44.1 56.4998 44.3 55.3998 43.4C54.1998 42.5 52.4998 42.7 51.5998 43.9C50.6998 45.1 50.8998 46.8 52.0998 47.7C53.4998 48.8 55.3998 49.4 57.4998 49.4C57.9998 49.4 58.4998 49.4 59.0998 49.3C59.0998 52 59.9998 55 60.6998 57.4C61.2998 59.3 61.8998 61.4 61.9998 62.7C62.2998 68.5 62.4998 73.6 60.8998 79C60.0998 81.7 58.5998 84.1 56.9998 86.6C56.5998 87.2 56.1998 87.9 55.7998 88.5L54.5998 90.4C53.7998 91.6 53.0998 92.8 52.3998 94C52.6998 94.1 53.0998 94.2 53.3998 94.3C54.8998 94.7 56.2998 95.1 57.7998 95.4C58.1998 94.7 58.6998 93.9 59.1998 93.2L60.3998 91.3C60.7998 90.7 61.1998 90.1 61.4998 89.5C63.1998 86.8 64.9998 83.9 65.9998 80.5C67.8998 74.2 67.5998 68.5 67.2998 62.4C67.1998 60.4 66.4998 58.1 65.7998 55.8C64.1998 50.6 63.7998 48.1 65.3998 47.4C69.4998 45.6 74.5998 41.2 76.5998 36.2C77.7998 33.4 77.7998 30.5 76.6998 27.9ZM57.6998 13.9C58.3998 13.9 59.0998 13.7 59.5998 13.2C60.0998 12.8 60.5998 12.3 60.9998 11.9C60.8998 13.3 60.7998 14.7 60.8998 16C59.7998 15.4 58.7998 15 58.2998 14.7C58.1998 14.6 57.8998 14.3 57.6998 13.9Z" fill="#729EFC"/>
</svg>
