<svg width="84" height="92" viewBox="0 0 84 92" fill="none" xmlns="http://www.w3.org/2000/svg">
<path d="M78.5002 74.3C77.5002 73.7 76.7002 73.2 75.9002 71.9C73.9002 68.2 65.9002 57.3 63.4002 54.3C61.4002 51.9 56.8002 44.3 56.2002 42.7C56.1002 42.1 55.9002 41.5 55.7002 40.6C54.7002 37.2 52.7002 30.9 56.9002 23.8C61.9002 15.4 61.8002 9.89999 61.8002 5.39999C61.8002 4.19999 61.8002 2.99999 61.9002 1.89999C61.9002 1.79999 61.9002 1.7 62.0002 1.5C61.7002 1.3 61.4002 1.00001 61.1002 0.700012C61.0002 0.700012 60.8002 0.700012 60.8002 0.700012C59.9002 0.700012 58.9002 0.700012 58.0002 0.700012C57.7002 1.00001 57.3002 1.30001 57.0002 1.60001C56.9002 2.90001 56.9002 4.19999 56.9002 5.39999C56.9002 9.59999 57.0002 14 52.7002 21.2C47.3002 30.2 49.9002 38.5 51.0002 42C51.1002 42.5 51.3002 43.1 51.4002 43.2C51.7002 45.7 58.4002 55.9 59.8002 57.5C62.1002 60.2 69.9002 70.9 71.8002 74.2C73.2002 76.7 74.9002 77.8 76.2002 78.5C77.1002 79 77.5002 79.3 77.8002 79.8C78.5002 81.1 78.5002 83.8 78.2002 85C76.6002 85.4 74.0002 85.8 71.2002 83.2C69.5002 81.6 67.9002 79.4 66.3002 77.3C63.9002 74.1 61.4002 70.8 58.5002 69C55.3002 67 44.0002 56.9 33.5002 47.3C33.5002 47.3 33.5002 47.3 33.4002 47.2C32.5002 46.3 31.5002 45.5 30.6002 44.6C29.6002 43.7 28.0002 43.7 27.1002 44.7C26.2002 45.7 26.2002 47.3 27.2002 48.2C27.8002 48.7 28.5002 49.4 29.3002 50.1C29.1002 54.1 26.4002 65.6 25.2002 70C25.1002 70.5 25.1002 70.9 25.2002 71.4C26.5002 75.7 27.9002 80.6 28.0002 81.4C28.1002 82.1 28.5002 82.7 29.1002 83.1C29.7002 83.5 30.4002 83.6 31.1002 83.5C31.8002 83.3 33.7002 83.2 34.6002 83.8C34.8002 83.9 35.0002 84.1 35.1002 84.5C35.1002 85.2 34.9002 85.9 34.8002 86.3C33.0002 86.4 28.3002 86.5 25.6002 86.5C25.1002 86.5 24.7002 86.2 23.8002 85.2L23.6002 85C22.8002 84 18.9002 76 18.7002 71.5C18.0002 61.1 13.0002 41 12.8002 40.1C12.6002 39.1 11.7002 38.4 10.7002 38.2C9.5002 38 5.40019 37.9 1.30019 37.9C1.10019 38.6 0.800195 39.4 0.600195 40.1C0.400195 41.3 0.200195 41.8 0.200195 41.7C0.200195 42.1 0.200195 42.5 0.200195 42.9C3.3002 42.9 6.50019 43 8.50019 43.1C9.70019 48.3 13.3002 63.6 13.6002 71.8C13.8002 77.6 18.3002 86.9 19.7002 88.4L19.9002 88.6C20.9002 89.7 22.5002 91.6 25.4002 91.6C25.6002 91.6 26.4002 91.6 27.4002 91.6C30.0002 91.6 34.2002 91.6 35.7002 91.4C38.8002 91 39.9002 87.5 39.9002 84.4C39.9002 84.2 39.9002 84.1 39.8002 83.9C39.4002 82.1 38.5002 80.7 37.0002 79.7C35.5002 78.7 33.6002 78.5 32.2002 78.5C31.6002 76.1 30.6002 72.7 30.0002 70.9C30.7002 68.2 32.7002 60.2 33.6002 54.4C41.3002 61.4 52.1002 71.1 55.6002 73.3C57.8002 74.7 60.0002 77.6 62.1002 80.4C63.8002 82.7 65.6002 85 67.6002 86.9C72.7002 91.7 77.8002 90.4 79.7002 89.9L80.0002 89.8C80.8002 89.6 81.8002 89.1 82.5002 87.5C83.5002 85.1 83.5002 80.2 82.0002 77.5C81.0002 75.7 79.6002 74.9 78.5002 74.3Z" fill="#729EFC"/>
</svg>
