<svg width="90" height="90" viewBox="0 0 90 90" fill="none" xmlns="http://www.w3.org/2000/svg">
<path d="M32.0998 59.3C32.7998 56 32.2998 53.1 30.6998 51.1C29.5998 49.7 27.8998 48.9 26.1998 48.9C24.5998 48.9 22.9998 49.6 21.6998 50.9C21.5998 51 21.4998 51.2 21.3998 51.3C19.9998 53.9 19.8998 56.7 21.1998 58.9C22.2998 60.8 24.3998 62 26.6998 62C28.1998 62 29.7998 61.5 31.2998 60.5C31.7998 60.2 31.9998 59.8 32.0998 59.3Z" fill="#729EFC"/>
<path d="M67.4002 50.9C66.1002 49.6 64.5002 48.9 62.9002 48.9C61.2002 48.9 59.6002 49.7 58.4002 51.1C56.8002 53.1 56.3002 56 57.0002 59.3C57.1002 59.8 57.4002 60.2 57.8002 60.4C59.3002 61.4 60.8002 61.9 62.4002 61.9C64.7002 61.9 66.7002 60.8 67.9002 58.8C69.2002 56.6 69.1002 53.8 67.7002 51.2C67.7002 51.2 67.6002 51 67.4002 50.9Z" fill="#729EFC"/>
<path d="M58.2996 72.1C57.1996 71.5 55.7996 71.9 55.0996 73C54.0996 74.7 51.6996 75.6 49.7996 75.1C48.0996 74.6 47.0996 73 46.9996 70.5C46.9996 70.2 46.9996 69.9 46.9996 69.6L49.7996 67.9C50.8996 67.2 51.1996 65.8 50.4996 64.7C49.7996 63.6 48.3996 63.3 47.2996 64L44.6996 65.7L42.0996 64C40.9996 63.3 39.5996 63.6 38.8996 64.7C38.1996 65.8 38.4996 67.2 39.5996 67.9L42.3996 69.6C42.3996 69.9 42.3996 70.2 42.3996 70.5C42.1996 73 41.2996 74.6 39.5996 75.1C37.6996 75.7 35.2996 74.7 34.2996 73C33.6996 71.9 32.1996 71.5 31.0996 72.1C29.9996 72.7 29.5996 74.2 30.1996 75.3C31.1996 77 32.7996 78.4 34.7996 79.2C35.9996 79.7 37.1996 79.9 38.2996 79.9C39.0996 79.9 39.9996 79.8 40.7996 79.5C42.3996 79 43.6996 78.2 44.6996 77C45.6996 78.2 46.9996 79 48.5996 79.5C49.3996 79.7 50.1996 79.9 51.0996 79.9C52.2996 79.9 53.4996 79.7 54.5996 79.2C56.5996 78.4 58.1996 77 59.1996 75.3C59.7996 74.1 59.3996 72.7 58.2996 72.1Z" fill="#729EFC"/>
<path d="M66.0001 27.1C67.7001 23.2 72.1001 17.2 74.6001 13.8C75.4001 12.8 75.1001 11.3 74.1001 10.6C73.1001 9.8 71.6001 10.1 70.9001 11.1C65.1001 19 61.4001 24.6 60.7001 28.4C60.6001 29 60.7001 29.7 61.1001 30.2C61.5001 30.7 62.1001 31 62.7001 31.1C66.1001 31.4 70.3001 35.7 71.6001 37.4C72.1001 38 72.7001 38.3 73.4001 38.3C73.9001 38.3 74.4001 38.1 74.9001 37.8C75.9001 37 76.1001 35.5 75.3001 34.5C74.8001 33.8 70.8001 28.9 66.0001 27.1Z" fill="#729EFC"/>
<path d="M28.1 30.2C28.5 29.7 28.7 29 28.5 28.4C27.8 24.6 24.1 18.9 18.3 11.1C17.5 10.1 16.1 9.8 15.1 10.6C14.1 11.4 13.8 12.8 14.6 13.8C17.1 17.3 21.5 23.2 23.2 27.1C18.4 28.9 14.3 33.8 13.8 34.4C13 35.4 13.2 36.9 14.1 37.7C14.5 38 15 38.2 15.6 38.2C16.3 38.2 16.9 37.9 17.4 37.3C18.7 35.7 22.9 31.3 26.3 31C27.1 31 27.7 30.7 28.1 30.2Z" fill="#729EFC"/>
<path d="M3.89983 72.5C4.59983 73.5 5.59983 74.8 7.19983 76.3C8.09983 77.1 9.19983 77.9 10.7998 79C12.1998 79.9 18.5998 84.3 28.3998 87C36.1998 89.2 42.4998 89.3 44.6998 89.3C46.8998 89.3 53.1998 89.2 60.9998 87C60.9998 87 69.5998 84.6 78.5998 79C79.3998 78.5 80.6998 77.6 82.1998 76.3C82.7998 75.7 84.2998 74.3 85.4998 72.5C85.6998 72.2 85.8998 71.8 85.9998 71.8C85.9998 71.8 86.7998 70.4 87.3998 69C89.6998 63.5 88.8998 56.9 88.8998 56.9C87.9998 49.1 84.2998 47.1 83.5998 37.2C83.5998 37 83.5998 36.7 83.5998 36.3C82.7998 19 85.1998 14.2 82.0998 7.2C81.4998 5.9 79.0998 0.500003 75.2998 0.100003C73.1998 -0.0999968 71.3998 1.3 70.3998 2.1C60.7998 10.1 59.7998 17.3 52.8998 20.9C47.8998 23.5 41.2998 23.4 36.8998 20.9C34.4998 19.6 32.3998 16.8 27.9998 11.2C25.5998 8.2 23.4998 5.1 19.3998 2.1C16.6998 0.200003 15.4998 3.1665e-06 14.4998 0.100003C10.8998 0.400003 8.59983 5.2 7.69983 7.2C2.69983 18.1 8.99983 23.4 6.19983 37.2C4.69983 44.7 1.89983 48.1 0.899826 56.9C0.599826 59.7 0.399826 64.1 2.39983 69C2.69983 70.5 3.39983 71.7 3.89983 72.5ZM44.5998 84.6C40.1998 84.6 24.8998 83.8 11.4998 73.9C0.199832 65.5 6.49984 48.6 10.2998 38.5V38.4C10.3998 38.2 10.3998 37.9 10.3998 37.7C10.3998 37.4 11.7998 11.6 11.8998 7.3C11.9998 5.6 12.9998 4.7 14.0998 4.7C14.6998 4.7 15.2998 5 15.7998 5.5C18.6998 8.2 33.5998 24.6 33.7998 24.8C34.1998 25.3 34.8998 25.6 35.4998 25.6H53.5998C54.2998 25.6 54.8998 25.3 55.2998 24.8C55.4998 24.6 70.3998 8.3 73.2998 5.5C73.7998 5 74.3998 4.7 74.9998 4.7C75.9998 4.7 77.0998 5.6 77.1998 7.3C77.3998 11.6 78.6998 37.4 78.6998 37.7C78.6998 37.9 78.7998 38.2 78.7998 38.4V38.5C82.5998 48.6 88.8998 65.5 77.5998 73.9C64.2998 83.8 48.9998 84.6 44.5998 84.6Z" fill="#729EFC"/>
</svg>
