<svg width="76" height="90" viewBox="0 0 76 90" fill="none" xmlns="http://www.w3.org/2000/svg">
<path d="M72.2 77.4H61.4C61.4 77 61.4 76.5 61.3 76.1C60.8 72.5 58.7 69.4 55.6 67.6C54.1 56.5 55.5 43.7 59.7 31.4C63.1 21.3 68.2 12.1 74.5 4.70002C75.3 3.70002 75.3 2.4 74.5 1.4C73.7 0.499999 72.3 0.300005 71.2 1.00001C60.2 8.40001 50.8 21.5 45.5 37C41.8 48 40.3 59.2 41.4 69.5C39.3 71.6 38.1 74.5 38.1 77.5H33.4C32.8 75 31.2 72.8 29 71.5C27.8 62.8 29 52.8 32.2 43.2C34.9 35.2 38.9 28 43.9 22.1C44.7 21.1 44.7 19.8 43.9 18.8C43.1 17.9 41.7 17.7 40.6 18.4C31.7 24.3 24.2 34.9 20 47.3C17 56 15.9 64.9 16.7 73.1C15.6 74.3 14.8 75.8 14.4 77.4H2.5C1.1 77.4 0 78.5 0 79.9C0 81.3 1.1 82.4 2.5 82.4H14.5C15.1 84.4 16.3 86.2 18 87.5C19.7 88.8 21.8 89.5 23.9 89.5C24.3 89.5 24.8 89.5 25.2 89.4C29.2 88.9 32.3 86 33.3 82.4H39.1C41 86.5 45.1 89.3 49.7 89.3C50.2 89.3 50.7 89.3 51.2 89.2C54.3 88.8 57 87.2 58.9 84.7C59.5 84 59.9 83.2 60.3 82.4H72.2C73.6 82.4 74.7 81.3 74.7 79.9C74.7 78.5 73.5 77.4 72.2 77.4ZM24.4 84.5C23.1 84.7 21.9 84.3 20.8 83.6C19.8 82.8 19.1 81.7 19 80.4C18.8 78.7 19.4 77.1 20.8 76C21.5 75.5 21.8 74.6 21.7 73.7C20.7 65.9 21.8 57.3 24.6 48.9C25.3 46.9 26 45 26.9 43.1C23.6 53.4 22.7 64.1 24.2 73.4C24.3 74.2 24.9 75 25.7 75.3C27.3 76 28.3 77.4 28.6 79.1C28.9 81.7 27.1 84.1 24.4 84.5ZM54.9 81.7C53.8 83.1 52.2 84 50.5 84.3C46.8 84.8 43.5 82.2 43 78.6C42.7 76.3 43.6 74 45.5 72.5C46.2 72 46.5 71.1 46.4 70.2C45.2 60.3 46.5 49.4 50.1 38.7C52.1 32.9 54.6 27.5 57.6 22.7C56.6 25 55.7 27.4 54.8 29.9C50.2 43.4 48.8 57.5 50.7 69.7C50.8 70.5 51.4 71.3 52.2 71.6C54.4 72.5 55.9 74.5 56.2 76.9C56.5 78.5 56 80.2 54.9 81.7Z" fill="#729EFC"/>
</svg>
