<svg width="153" height="90" viewBox="0 0 153 90" fill="none" xmlns="http://www.w3.org/2000/svg">
<path d="M100.499 79.4L98.7992 79.2C96.9992 79 86.4992 78.9 85.2992 78.9C81.5992 78.9 69.5992 79.3 69.5992 84.4C69.5992 86 69.3992 87.5 69.1992 88.8C70.8992 89.1 72.4992 89.4 74.0992 89.8C74.3992 88.4 74.5992 86.8 74.5992 85.2C76.4992 84.4 82.2992 83.8 85.2992 83.8C87.7992 83.8 93.4992 83.9 96.4992 84C96.7992 85.4 97.2992 87.6 97.7992 90C98.0992 90 98.3992 89.9 98.6992 89.9C100.099 89.9 101.499 89.9 102.799 89.8C101.799 85.1 100.899 81.3 100.799 81L100.499 79.4Z" fill="#729EFC"/>
<path d="M149.7 32.4C148 31.2 148 29.5 148 29.4V29.1V28.8C147.4 24.9 143.1 21.9 140.5 20.4C141.5 15.5 141.3 12.2 138.4 11.2C136.5 10.4 135.9 11.1 131.2 16.6C131.1 16.8 130.9 17 130.7 17.1C129.8 15.4 128.7 14.2 127 14.3C125.7 14.4 124.7 14.5 120.5 23.8C118.9 25.1 117.6 27.4 116.1 29.9C114.2 33.2 111.7 37.6 109.5 37.3C108.5 37.1 102.2 36.5 100.7 36.4C69.7996 31.6 47.1996 40.7 46.1996 41.1C45.2996 41.5 44.3996 41.9 43.5996 42.1C37.6996 40 29.7996 36 23.1996 28.3C18.1996 22.6 14.2996 18 13.7996 11.7C13.6996 11 13.6996 10.2 13.6996 9.39999C13.5996 5.89999 13.4996 2 10.2996 0.600001C8.09958 -0.399999 5.39957 0.599989 3.69957 1.89999C2.19957 3.09999 1.19958 4.99999 0.799576 7.39999C-0.900424 18.1 3.79957 28.4 3.99957 28.8C10.1996 42.2 20.3996 49.6 24.7996 52.8C27.3996 54.7 30.1996 56.4 33.0996 58L35.4996 53.6C32.7996 52.2 30.1996 50.6 27.7996 48.8C23.6996 45.9 14.2996 39 8.59958 26.8C8.59958 26.7 4.39958 17.4 5.79958 8.20001C5.99958 7.00001 6.39957 6.20001 6.89957 5.70001C7.39957 5.30001 7.99957 5.1 8.19957 5.1C8.59957 5.8 8.69957 8.2 8.69957 9.5C8.69957 10.3 8.79958 11.2 8.79958 12.1C9.49958 20 14.0996 25.4 19.3996 31.5C25.7996 38.9 33.1996 43.2 39.2996 45.7L39.1996 45.8C39.2996 45.8 39.4996 45.9 39.5996 46C39.7996 46.1 40.0996 46.3 40.2996 46.4C41.0996 46.7 41.8996 46.9 42.7996 47.1C44.6996 47.2 46.5996 46.4 48.0996 45.7C48.2996 45.6 70.3996 36.8 99.8996 41.4H100.1C103.8 41.7 108 42.1 108.6 42.2C114.2 43.2 117.6 37.2 120.4 32.4C121.4 30.7 122.9 28.1 123.6 27.6L124.3 27.2L124.6 26.4C125.3 24.8 126.2 22.9 126.9 21.5C126.9 21.6 127 21.7 127 21.8C127.3 22.5 127.4 22.7 127.5 23L128.2 24L129.4 24.1C130.8 24.2 131 23.9 134.6 19.8C134.8 19.6 135 19.3 135.3 19C135.2 19.6 135 20.3 134.8 21.1L134.3 23.1L136.1 24C138.6 25.2 142.1 27.7 142.6 29.5C142.6 31.3 143.4 34.5 146.5 36.6L146.6 36.7C146.9 36.9 147.3 37.1 147.5 37.4C147.5 37.5 147.4 37.7 147.2 38L147 38.4L146.9 38.8C146.8 39.4 146.6 40.2 146.5 40.4C145.9 41 143.2 43.3 141.3 44.5C141 44.7 140.2 45.1 139.4 45.4C136.1 46.8 131.1 49 130.8 53.4C130.7 54.4 130.7 55.4 130.7 56.3C130.7 59.2 130.8 62.3 127.8 67.3C124 73.8 125.5 79.7 126.4 82.5C127.9 81.4 129.3 80.1 130.6 78.7C130.2 76.3 130.1 73.2 132.1 69.8C135.8 63.6 135.8 59.5 135.7 56.2C135.7 55.3 135.7 54.5 135.7 53.7C135.8 52.2 139.6 50.6 141.3 49.8C142.3 49.4 143.2 49 143.9 48.6C145.7 47.5 149.7 44.4 150.6 43C151.2 42.1 151.6 40.6 151.7 39.7C152.3 38.4 152.4 37.5 152.4 36.5C153 36 153 34.4 149.7 32.4Z" fill="#729EFC"/>
</svg>
