<svg width="98" height="67" viewBox="0 0 98 67" fill="none" xmlns="http://www.w3.org/2000/svg">
<path d="M3.39959 67C3.09959 67 2.69959 66.9 2.39959 66.8C0.799589 66.2 -0.000398338 64.5 0.599602 63C10.9996 33.4 21.9996 13.7 47.0996 1.3C48.3996 0.699996 49.8996 0.999996 50.7996 2.1C52.7996 4.6 53.3996 10.4 53.6996 19.4L64.6996 20.8C67.8996 21.2 71.0996 22 74.0996 23.2C85.4996 27.8 94.0996 37.5 96.9996 49.3C97.2996 50.7 97.5996 52 97.6996 53.1C97.8996 54.7 96.6996 56.2 94.9996 56.4C93.3996 56.6 91.8996 55.4 91.6996 53.7C91.5996 52.9 91.3996 51.9 91.0996 50.7C88.6996 40.8 81.3996 32.6 71.7996 28.8C69.2996 27.8 66.5996 27.1 63.8996 26.7L50.2996 25C48.8996 24.8 47.7996 23.6 47.6996 22.2C47.6996 21.7 47.6996 21.1 47.5996 20.3C47.3996 14 46.9996 10.3 46.6996 8.2C25.4996 19.8 15.6996 38 6.19961 65C5.79961 66.2 4.69959 67 3.39959 67Z" fill="#729EFC"/>
<path d="M80.2995 22.7C78.5995 22.7 77.2995 21.4 77.2995 19.7C77.2995 17.2 77.5995 15 77.8995 12.8C77.9995 12.2 78.0995 11.5 78.0995 10.9L62.5995 18.7C61.0995 19.4 59.2995 18.9 58.5995 17.4C57.8995 15.9 58.3995 14.1 59.8995 13.4L80.0995 3.2C80.9995 2.7 82.1995 2.8 82.9995 3.3C83.7995 3.8 84.3995 4.8 84.3995 5.9C84.3995 8.8 84.0995 11.3 83.7995 13.6C83.4995 15.7 83.2995 17.7 83.2995 19.8C83.2995 21.3 81.9995 22.7 80.2995 22.7Z" fill="#729EFC"/>
</svg>
