<svg width="110" height="83" viewBox="0 0 110 83" fill="none" xmlns="http://www.w3.org/2000/svg">
<path d="M108.3 26.9C106.2 26.3 103.7 25.5 101.2 24.8C97.7996 23.8 94.1996 22.7 91.6996 22C87.0996 20.8 79.0996 20 74.6996 19.6C74.7996 19.5 74.7996 19.3 74.8996 19.2C75.3996 17.9 74.6996 16.5 73.3996 16C72.0996 15.5 70.6996 16.2 70.1996 17.5C69.1996 20.4 68.4996 22.9 67.8996 24.9C66.2996 30.7 65.7996 32.6 60.5996 33.6C60.0996 31.4 58.6996 29 56.4996 26.6C51.2996 21.1 42.4996 17.2 34.4996 20.7C34.1996 20.8 33.9996 21 33.6996 21.1C31.8996 15.9 37.5996 8 40.9996 4.7C41.9996 3.7 41.9996 2.2 40.9996 1.2C39.9996 0.199997 38.4996 0.199997 37.4996 1.2C35.0996 3.5 32.5996 6.79999 30.7996 10.4C27.7996 9.79999 24.4996 8.9 20.9996 8C15.4996 6.5 9.79959 5 3.69959 4.2C2.29959 4 1.09957 5 0.89957 6.3C0.69957 7.7 1.69958 8.90001 2.99958 9.10001C8.69958 9.90001 14.2996 11.3 19.5996 12.8C22.7996 13.7 25.8996 14.5 28.7996 15.1C27.8996 18.6 27.9996 22.1 29.8996 25.1C25.8996 31.2 22.8996 41.7 22.4996 48.4C21.9996 57.2 27.6996 78.6 32.9996 81.6C33.5996 81.9 34.2996 82.1 34.8996 82.1C35.4996 82.1 36.0996 82 36.5996 81.7C39.4996 80.2 40.3996 75.2 41.1996 65.4C41.2996 64.4 41.3996 63.4 41.3996 62.8C41.7996 59.6 43.0996 54.7 47.5996 49.4C49.3996 47.3 51.5996 45.8 53.6996 44.3C56.0996 42.7 58.2996 41.1 59.5996 38.9C66.3996 37.9 68.9996 35.7 70.6996 31.7C70.8996 35.2 71.4996 38.7 72.4996 40.9C73.8996 44 76.5996 45.9 79.4996 45.9C79.7996 45.9 79.9996 45.9 80.2996 45.9C83.5996 45.5 86.1996 42.8 86.8996 39.2C87.1996 37.9 87.3996 37.6 92.0996 37.8C93.5996 37.9 95.3996 38 97.1996 37.9C102.2 37.6 104.6 34.2 105.4 31.5C105.8 31.6 106.2 31.7 106.6 31.9C106.8 32 107.1 32 107.3 32C108.4 32 109.4 31.3 109.7 30.2C110.4 28.7 109.7 27.3 108.3 26.9ZM55.6996 36.1C54.9996 37.4 53.1996 38.7 51.1996 40.1C48.8996 41.7 46.3996 43.4 44.1996 46C39.9996 50.9 37.4996 56.5 36.7996 62C36.6996 62.7 36.5996 63.7 36.4996 64.8C36.2996 67.3 35.6996 73.4 34.7996 76.1C32.0996 72 27.2996 57 27.6996 48.5C28.1996 39.3 33.3996 26.5 36.4996 25.2C42.1996 22.7 48.9996 25.9 52.8996 30C55.3996 32.7 56.1996 35.1 55.6996 36.1ZM97.1996 32.8C95.6996 32.9 94.1996 32.8 92.7996 32.7C88.8996 32.5 83.4996 32.1 82.3996 38.1C82.0996 39.8 80.9996 40.7 80.0996 40.8C79.0996 40.9 78.0996 40.2 77.4996 38.7C75.7996 35.1 75.8996 28.1 76.1996 24.8C80.5996 25.2 86.8996 25.9 90.5996 26.9C92.9996 27.5 96.4996 28.6 99.8996 29.6C100.3 29.7 100.6 29.8 101 29.9C100.6 31.1 99.6996 32.6 97.1996 32.8Z" fill="#729EFC"/>
</svg>
