<svg width="99" height="79" viewBox="0 0 99 79" fill="none" xmlns="http://www.w3.org/2000/svg">
<path d="M95.5001 29.7C94.2001 29.7 93.1001 30.8 93.1001 32.1V33.3C93.1001 44.7 83.8001 54 72.4001 54C61.0001 54 51.7001 44.7 51.7001 33.3V14.3L60.8001 10.7C62.7001 10 63.9001 8.2 63.9001 6.2V5.39999C63.9001 2.69999 61.7001 0.5 59.0001 0.5H39.5001C36.8001 0.5 34.6001 2.69999 34.6001 5.39999V6.2C34.6001 8.2 35.8001 10 37.7001 10.7L46.8001 14.3V33.3C46.8001 44.7 37.5001 54 26.1001 54C14.7001 54 5.40009 44.7 5.40009 33.3V32.1C5.40009 30.8 4.30009 29.7 3.00009 29.7C1.70009 29.7 0.600098 30.8 0.600098 32.1V33.3C0.600098 41.5 4.50009 48.7 10.5001 53.3L12.3001 71.2C12.7001 75.2 16.0001 78.2 20.1001 78.2C24.2001 78.2 27.5001 75.2 27.9001 71.2L29.2001 58.5C38.2001 57.4 45.7001 51.8 49.4001 44C53.1001 51.9 60.6001 57.5 69.6001 58.5L70.9001 71.2C71.3001 75.2 74.6001 78.2 78.7001 78.2C82.7001 78.2 86.1001 75.2 86.5001 71.2L88.3001 53.3C94.3001 48.6 98.2001 41.4 98.2001 33.3V32.1C98.0001 30.8 96.9001 29.7 95.5001 29.7ZM20.1001 73.5C18.6001 73.5 17.3001 72.4 17.2001 70.8L15.8001 56.6C18.4001 57.8 21.3001 58.5 24.3001 58.7L23.1001 70.8C22.9001 72.4 21.6001 73.5 20.1001 73.5ZM39.6001 5.39999H59.0001V6.2L49.3001 10.1L39.6001 6.2V5.39999ZM81.4001 70.8C81.2001 72.3 80.0001 73.5 78.5001 73.5C77.0001 73.5 75.7001 72.4 75.6001 70.8L74.4001 58.7C77.4001 58.5 80.3001 57.8 82.9001 56.6L81.4001 70.8Z" fill="#729EFC"/>
<path d="M18.2512 39.3042C19.5412 38.9996 20.34 37.707 20.0354 36.417C19.7308 35.1271 18.4381 34.3283 17.1482 34.6329C15.8582 34.9375 15.0594 36.2301 15.364 37.5201C15.6686 38.81 16.9613 39.6088 18.2512 39.3042Z" fill="#729EFC"/>
<path d="M32.8503 39.3034C34.1403 38.9988 34.9391 37.7062 34.6345 36.4162C34.3299 35.1263 33.0373 34.3275 31.7473 34.6321C30.4573 34.9367 29.6585 36.2293 29.9631 37.5193C30.2677 38.8092 31.5604 39.608 32.8503 39.3034Z" fill="#729EFC"/>
<path d="M25.0001 29.7C26.3256 29.7 27.4001 28.6255 27.4001 27.3C27.4001 25.9745 26.3256 24.9 25.0001 24.9C23.6746 24.9 22.6001 25.9745 22.6001 27.3C22.6001 28.6255 23.6746 29.7 25.0001 29.7Z" fill="#729EFC"/>
<path d="M66.2999 39.4C67.6254 39.4 68.6999 38.3255 68.6999 37C68.6999 35.6745 67.6254 34.6 66.2999 34.6C64.9744 34.6 63.8999 35.6745 63.8999 37C63.8999 38.3255 64.9744 39.4 66.2999 39.4Z" fill="#729EFC"/>
<path d="M80.9 39.4C82.2255 39.4 83.3 38.3255 83.3 37C83.3 35.6745 82.2255 34.6 80.9 34.6C79.5745 34.6 78.5 35.6745 78.5 37C78.5 38.3255 79.5745 39.4 80.9 39.4Z" fill="#729EFC"/>
<path d="M74.1575 29.6158C75.4474 29.3112 76.2462 28.0185 75.9416 26.7286C75.637 25.4386 74.3444 24.6398 73.0544 24.9444C71.7645 25.249 70.9657 26.5416 71.2703 27.8316C71.5749 29.1216 72.8675 29.9204 74.1575 29.6158Z" fill="#729EFC"/>
<path d="M66.3003 63.8H62.4003L58.2003 59.6C57.7003 59.1 57.1003 58.9 56.5003 58.9H42.0003C41.4003 58.9 40.7003 59.2 40.3003 59.6L36.1003 63.8H32.2003C30.9003 63.8 29.8003 64.9 29.8003 66.2C29.8003 67.5 30.9003 68.6 32.2003 68.6H37.1003C37.7003 68.6 38.4003 68.3 38.8003 67.9L43.0003 63.7H55.6003L59.8003 67.9C60.3003 68.4 60.9003 68.6 61.5003 68.6H66.4003C67.7003 68.6 68.8003 67.5 68.8003 66.2C68.8003 64.9 67.7003 63.8 66.3003 63.8Z" fill="#729EFC"/>
</svg>
