<svg width="121" height="65" viewBox="0 0 121 65" fill="none" xmlns="http://www.w3.org/2000/svg">
<path d="M104.1 34.9C104.8 36 106.2 36.2 107.3 35.5C108.4 34.8 108.6 33.4 107.9 32.3C107.6 31.9 100.8 21.7 85.3002 16.4C78.3002 14 70.7002 12.9 62.5002 13.3C55.1002 13.6 47.8002 15.2 40.9002 18C27.1002 23.5 19.6002 31.7 19.3002 32C18.9002 32.5 18.7002 33 18.7002 33.7C18.7002 34.3 19.0002 34.9 19.4002 35.3C20.3002 36.1 21.8002 36.1 22.7002 35.2C22.8002 35.1 28.3002 29.2 38.3002 24.3C38.1002 25.7 38.0002 27.1 38.0002 28.5C38.0002 42.6 49.5002 54.1 63.6002 54.1C77.7002 54.1 89.2002 42.6 89.2002 28.5C89.2002 26.5 89.0002 24.6 88.5002 22.7C99.2002 27.6 104 34.7 104.1 34.9ZM63.5002 38.3C58.0002 38.3 53.6002 33.8 53.6002 28.4C53.6002 22.9 58.1002 18.5 63.5002 18.5C69.0002 18.5 73.4002 23 73.4002 28.4C73.5002 33.9 69.0002 38.3 63.5002 38.3ZM49.0002 28.4C49.0002 36.4 55.5002 42.9 63.5002 42.9C71.5002 42.9 78.0002 36.4 78.0002 28.4C78.0002 24.7 76.6002 21.1 74.0002 18.4C74.3002 18.4 74.6002 18.5 74.9002 18.5C75.1002 18.5 75.3002 18.6 75.5002 18.6L76.0002 18.7C76.4002 18.8 76.7002 18.8 77.1002 18.9C77.3002 18.9 77.6002 19 77.8002 19.1H78.0002C78.4002 19.2 78.8002 19.3 79.2002 19.4C79.5002 19.5 79.8002 19.5 80.1002 19.6H80.2002C80.6002 19.7 81.0002 19.8 81.4002 19.9C81.7002 20 81.9002 20.1 82.2002 20.1L82.4002 20.2C82.6002 20.3 82.7002 20.3 82.9002 20.4C83.9002 22.9 84.5002 25.6 84.5002 28.3C84.5002 39.9 75.1002 49.3 63.5002 49.3C51.9002 49.3 42.5002 39.9 42.5002 28.3C42.5002 26 42.8002 23.9 43.5002 21.8C43.8002 21.7 44.1002 21.6 44.5002 21.4L44.8002 21.3C45.1002 21.2 45.4002 21.1 45.7002 21C46.2002 20.8 46.6002 20.7 47.1002 20.5L47.6002 20.3C47.9002 20.2 48.2002 20.1 48.5002 20C49.0002 19.9 49.5002 19.7 50.0002 19.6L50.5002 19.5C50.8002 19.4 51.1002 19.4 51.3002 19.3C51.6002 19.2 51.9002 19.2 52.1002 19.1C50.1002 21.9 49.0002 25.1 49.0002 28.4Z" fill="#729EFC"/>
<path d="M119.6 25C118.9 24 101.2 0.5 63.6001 0.5C25.8001 0.5 3.50014 31.1 2.50014 32.5C2.00014 33.3 -1.99986 40.6 1.50014 44.7C4.10014 47.8 9.50014 47.7 18.3001 44.5C23.2001 49.6 40.2001 65 65.9001 65C95.8001 65 110.3 44 111 43.1C111.3 42.6 111.5 42 111.4 41.4C111.3 40.8 110.9 40.3 110.4 39.9C109.3 39.2 107.9 39.5 107.2 40.5C107.1 40.7 93.4001 60.4 66.0001 60.4C38.4001 60.4 21.0001 40.5 20.8001 40.3C20.2001 39.6 19.1001 39.3 18.2001 39.7C7.40014 43.9 5.30014 42 5.10014 41.8C4.20014 40.7 5.30014 37.2 6.50014 35.1C6.70014 34.8 28.6001 5.2 63.7001 5.2C98.8001 5.2 115.8 27.6 116 27.9C116.8 28.9 118.2 29.1 119.2 28.4C120.1 27.5 120.3 26 119.6 25Z" fill="#729EFC"/>
</svg>
