<svg width="85" height="90" viewBox="0 0 85 90" fill="none" xmlns="http://www.w3.org/2000/svg">
<path d="M54.8001 54.6C54.8001 51.1 56.2001 50.1 59.7001 50.7C62.6001 51.1 65.5001 51.7 68.4001 52.2C75.2001 53.2 79.0001 51.4 82.3001 45.4C86.6001 37.8 84.7001 33.2 76.4001 31.1C72.6001 30.1 69.8001 27.9 67.9001 24.5C66.1001 21.1 63.2001 19.5 59.6001 18.9C58.9001 18.8 58.2001 18.5 57.6001 18.4C58.4001 16.9 59.4001 15.7 59.4001 14.7C59.2001 11.1 58.9001 7.49999 58.1001 3.99999C57.2001 -6.67572e-06 53.7001 -1.00001 50.6001 1.59999C49.6001 2.09999 49.0001 3.09999 48.2001 3.99999C47.7001 4.59999 47.1001 5.09999 46.5001 5.69999C46.1001 5.09999 45.5001 4.59999 45.2001 3.99999C42.8001 -0.700006 38.7001 -0.900007 35.7001 3.49999C33.5001 6.79999 32.6001 10.6 32.4001 14.4C32.2001 18.8 30.9001 22.6 28.9001 26.5C26.8001 30.4 25.8001 35 24.8001 39.4C22.8001 47.5 8.3001 59.3 0.600098 61.6C1.4001 63 2.2001 64.5 3.1001 65.8C5.7001 64.8 18.2001 57.4 20.5001 55.6C21.6001 54.7 22.5001 55.1 23.2001 56.1C28.0001 61.9 33.9001 66.2 40.9001 69C43.2001 69.9 45.5001 70.7 47.9001 71.2C49.6001 71.6 50.2001 72.5 50.2001 74.1C50.2001 76.1 50.1001 88 49.9001 89.8C50.2001 89.8 50.5001 89.8 50.8001 89.8C52.1001 89.8 53.4001 89.7 54.7001 89.6C54.8001 88.7 54.8001 87.8 54.8001 86.9C54.9001 79.6 54.7001 62.1 54.8001 54.6ZM52.9001 5.69999C53.2001 5.79999 53.5001 5.89999 53.8001 5.99999C54.3001 9.79999 54.9001 13.5 55.4001 17.3C51.8001 18.1 50.5001 17.3 49.5001 14.1C48.8001 11.9 47.9001 9.79999 47.1001 7.19999C49.6001 8.69999 51.5001 7.99999 52.9001 5.69999ZM70.7001 47.8C70.1001 47.7 69.0001 47.6 67.7001 47.4C59.6001 46.4 58.2001 46 55.2001 46.2C53.8001 46.3 52.3001 46.6 50.9001 46.9C47.1001 47.7 43.4001 47.1 40.1001 44.7C38.7001 43.7 37.5001 43.8 36.5001 45.1C35.4001 46.5 36.2001 47.6 37.3001 48.5C40.1001 50.8 43.4001 51.6 46.9001 51.7C50.0001 51.8 50.0001 51.8 49.9001 54.8C49.8001 58 49.9001 61.1 49.9001 64.3C49.9001 66.6 49.6001 66.8 47.3001 66.1C38.9001 63.7 32.0001 59 26.5001 52.3C25.9001 51.6 25.5001 50.1 25.8001 49.5C28.8001 44.5 29.3001 38.7 31.2001 33.4C32.3001 30.3 34.2001 27.4 35.6001 24.3C36.2001 23.1 36.6001 21.8 36.8001 20.5C37.5001 16.4 38.0001 12.2 38.7001 7.99999C38.8001 7.19999 39.8001 6.49999 40.4001 5.79999C40.9001 6.39999 41.5001 6.99999 41.8001 7.69999C43.1001 11 44.5001 14.2 45.6001 17.6C46.4001 19.9 47.4001 21.4 50.2001 21.6C53.4001 21.9 56.6001 22.6 59.7001 23.5C61.1001 23.9 62.6001 24.9 63.3001 26C66.4001 31.5 71.1001 34.6 77.1001 35.8C78.3001 36 79.0001 36.5 79.3001 37.2C79.6001 37.9 79.4001 38.7 79.1001 39.5C77.9001 42.8 77.3001 44.5 75.4001 45.8C73.6001 47.5 71.7001 47.7 70.7001 47.8Z" fill="#729EFC"/>
</svg>
