<svg width="91" height="88" viewBox="0 0 91 88" fill="none" xmlns="http://www.w3.org/2000/svg">
<path d="M72.4998 18.5C70.2998 16.1 68.7998 15.9 67.6998 17.3C66.0998 19.4 67.9998 20.6 69.1998 21.9C74.0998 27.3 79.0998 32.8 83.9998 38.2C85.2998 39.7 85.2998 41.1 84.1998 42.8C79.0998 50.5 74.1998 58.2 69.1998 65.9C68.0998 67.6 67.4998 67.5 66.4998 65.7C64.4998 62.3 65.1998 58.2 67.6998 54.8C70.3998 51.2 72.7998 47.4 75.2998 43.6C76.5998 41.6 76.0998 39.8 74.1998 38.7C69.1998 35.8 64.0998 33 58.8998 30.4C58.2998 30.1 56.4998 30.7 56.2998 31.3C55.9998 32.1 56.2998 33.5 56.8998 34.3C57.3998 35.1 58.4998 35.5 59.3998 35.9C62.5998 37.6 65.7998 39.2 68.9998 40.8C70.6998 41.6 70.7998 42.7 69.7998 44.1C67.8998 46.7 65.9998 49.3 63.9998 51.8C61.8998 54.5 60.7998 57.5 60.6998 59.7C60.6998 65 62.0998 68.8 64.5998 70.9C67.0998 73 70.6998 72.7 72.3998 70C77.8998 61.7 83.1998 53.3 88.5998 44.9C90.5998 41.8 90.7998 38.6 88.2998 35.8C82.9998 30 77.7998 24.2 72.4998 18.5Z" fill="#729EFC"/>
<path d="M28.9999 37.2C28.7999 39.5 28.5999 41.8 28.6999 44C29.0999 50 29.8999 55.9 30.1999 61.9C30.5999 69.4 32.8999 76.3 36.5999 82.8C38.3999 86 40.8999 87.7 44.7999 87.5C48.5999 87.3 52.4999 87.5 56.2999 87.4C59.9999 87.4 61.5999 85.4 60.7999 81.8C59.7999 77.6 57.6999 74.4 53.2999 73C49.6999 71.9 47.5999 69.6 47.0999 65.6C46.0999 57 47.1999 48.7 49.5999 40.4C51.2999 34.7 54.2999 30 58.8999 26.2C64.5999 21.5 71.2999 7.39999 71.8999 0.399994C70.5999 0.499994 69.2999 0.600006 67.9999 0.600006C67.6999 0.600006 67.3999 0.600006 67.0999 0.600006C66.1999 6.70001 59.4999 19.9 54.1999 24.1C47.8999 29 45.5999 36.2 43.7999 43.6C42.1999 50.3 41.7999 57.2 42.1999 64.2C42.5999 70.7 45.0999 75.5 51.6999 77.6C53.0999 78.1 54.3999 79.5 55.3999 80.8C56.2999 81.9 55.7999 82.9 54.2999 82.9C50.8999 82.9 47.3999 83 43.9999 82.8C43.1999 82.8 42.0999 82 41.5999 81.3C38.3999 76.6 36.0999 71.3 35.3999 65.7C34.4999 57.8 33.8999 49.8 33.3999 41.9C33.2999 39.2 33.9999 36.5 34.4999 33.8C35.2999 29.3 35.1999 21.9 32.8999 17.6C32.3999 16.7 31.9999 15.7 31.1999 15.2C30.2999 14.7 28.8999 14.2 28.0999 14.5C26.6999 15.1 26.7999 16.6 27.4999 17.9C28.1999 19.2 29.8999 23.4 30.4999 24.8C30.7999 25.5 30.8999 26.3 30.8999 27C30.9999 29.6 30.0999 30.6 27.5999 30.5C21.8999 30.4 9.0999 29.2 3.3999 29C2.7999 29 2.1999 28.9 1.4999 28.9C1.0999 30.3 0.699902 31.7 0.399902 33.1C6.9999 33.4 20.4999 34.8 27.0999 35.1C28.5999 35.1 29.1999 35.6 28.9999 37.2Z" fill="#729EFC"/>
</svg>
