<svg width="106" height="91" viewBox="0 0 106 91" fill="none" xmlns="http://www.w3.org/2000/svg">
<path d="M38.1 40.7C39.5 40.7 40.7 39.5 40.7 38.1C40.7 36.7 39.5 35.5 38.1 35.5C36.7 35.5 35.5 36.7 35.5 38.1C35.5 39.5 36.6 40.7 38.1 40.7Z" fill="#729EFC"/>
<path d="M67.1 40.7C68.5 40.7 69.7 39.5 69.7 38.1C69.7 36.7 68.5 35.5 67.1 35.5C65.7 35.5 64.5 36.7 64.5 38.1C64.5 39.5 65.7 40.7 67.1 40.7Z" fill="#729EFC"/>
<path d="M101 33L87.4001 14.6C83.6001 9.5 77.6001 6.5 71.3001 6.5C66.0001 2.3 59.3001 0 52.6001 0C52.6001 0 52.6001 0 52.5001 0C45.8001 0 39.1001 2.3 33.9001 6.5C27.7001 6.6 21.9001 9.6 18.2001 14.6L4.5001 33C-0.499896 39.8 -0.899896 48.8 3.5001 56L15.6001 75.8C19.2001 81.7 25.4001 85.2 32.3001 85.2H33.3001C34.8001 86.1 36.5001 86.6 38.2001 86.6H41.2001C41.8001 86.6 42.4001 86.6 43.1001 86.5C45.8001 88.7 49.1001 90 52.3001 90.1H52.6001C57.0001 90.1 60.4001 87.9 62.1001 86.5C62.7001 86.6 63.3001 86.6 64.0001 86.6H67.0001C68.7001 86.6 70.4001 86.1 71.9001 85.2H73.3001C80.2001 85.2 86.4001 81.7 90.0001 75.8L102 56C106.4 48.8 106 39.7 101 33ZM52.6001 67.5C51.0001 67.5 49.4001 66.9 48.2001 65.8C47.0001 64.8 46.3001 63.4 46.3001 62.2C46.3001 61.5 46.3001 59.7 52.6001 59.7C58.9001 59.7 58.9001 61.4 58.9001 62.2C58.9001 63.4 58.2001 64.8 57.0001 65.9C55.8001 66.9 54.2001 67.5 52.6001 67.5ZM52.6001 80.4C53.7001 82.1 55.1001 83.5 56.8001 84.5C55.4001 85.2 53.9001 85.5 52.4001 85.5C51.0001 85.5 49.6001 85.1 48.4001 84.5C50.0001 83.5 51.5001 82.1 52.6001 80.4ZM54.8001 71.8C56.7001 71.4 58.5001 70.5 59.9001 69.2C62.1001 67.3 63.3001 64.7 63.3001 62.2C63.3001 57.6 59.7001 55.2 52.5001 55.2C45.4001 55.2 41.7001 57.5 41.7001 62.2C41.7001 64.7 42.9001 67.3 45.1001 69.2C46.6001 70.5 48.3001 71.4 50.2001 71.8V72.9C50.2001 77.9 46.1001 82 41.1001 82H38.1001C35.3001 82 33.0001 79.7 33.0001 76.9V70.3C33.0001 65.9 33.7001 61.5 35.0001 57.3C36.6001 52.5 39.5001 48.4 43.6001 45.4C48.3001 41.9 51.0001 36.3 51.1001 30.4V4.5C51.8001 4.5 53.1001 4.5 53.9001 4.5V30.4C53.9001 36.2 56.7001 41.8 61.4001 45.4C65.5001 48.4 68.4001 52.5 70.0001 57.3C71.3001 61.5 72.0001 65.9 72.0001 70.3V77C72.0001 79.8 69.7001 82.1 66.9001 82.1H63.9001C58.9001 82.1 54.8001 78 54.8001 73V71.8ZM58.4001 30.5V5.2C70.0001 7.9 78.3001 18.4 78.4001 30.4C78.4001 32.9 78.2001 35.4 77.8001 37.8L74.5001 56.9C74.4001 56.6 74.3001 56.4 74.3001 56.1C72.5001 50.4 68.9001 45.5 64.1001 41.9C60.6001 39.2 58.5001 34.9 58.4001 30.5ZM75.9001 80.4C76.3001 79.3 76.6001 78.1 76.6001 76.9V71.7L82.3001 38.4C82.8001 35.7 83.0001 33 83.0001 30.2C83.0001 23.5 80.8001 17.1 76.8001 11.8C79.6001 12.8 82.1001 14.7 83.9001 17.1L97.5001 35.5C101.4 40.8 101.8 47.9 98.3001 53.5L86.2001 73.3C83.8001 77.2 80.1001 79.7 75.9001 80.4ZM26.7001 30.3C26.7001 18.3 35.1001 7.9 46.7001 5.1V30.4C46.7001 34.8 44.6001 39.1 41.0001 41.8C36.2001 45.4 32.7001 50.3 30.8001 56C30.7001 56.3 30.6001 56.5 30.6001 56.8L27.3001 37.8C26.9001 35.3 26.7001 32.8 26.7001 30.3ZM22.2001 30.3C22.2001 33 22.4001 35.8 22.9001 38.5L28.6001 71.7V77C28.6001 78.2 28.8001 79.3 29.2001 80.4C25.1001 79.5 21.6001 77.1 19.4001 73.5L7.30011 53.7C3.90011 48.1 4.20011 41 8.10011 35.7L21.7001 17.3C23.4001 15 25.7001 13.3 28.3001 12.2C24.4001 17.3 22.2001 23.7 22.2001 30.3Z" fill="#729EFC"/>
</svg>
