<svg width="76" height="89" viewBox="0 0 76 89" fill="none" xmlns="http://www.w3.org/2000/svg">
<path d="M72.2 76.9H61.4C61.4 76.5 61.4 76 61.3 75.6C60.8 72 58.7 68.9 55.6 67.1C54.1 56 55.5 43.2 59.7 30.9C63.1 20.8 68.2 11.6 74.5 4.20002C75.3 3.20002 75.3 1.9 74.5 0.899999C73.7 -1.07288e-06 72.3 -0.199995 71.2 0.500005C60.2 7.90001 50.8 21 45.5 36.5C41.8 47.5 40.3 58.7 41.4 69C39.3 71.1 38.1 74 38.1 77H33.4C32.8 74.5 31.2 72.3 29 71C27.8 62.3 29 52.3 32.2 42.7C34.9 34.7 38.9 27.5 43.9 21.6C44.7 20.6 44.7 19.3 43.9 18.3C43.1 17.4 41.7 17.2 40.6 17.9C31.7 23.8 24.2 34.4 20 46.8C17 55.5 15.9 64.4 16.7 72.6C15.6 73.8 14.8 75.3 14.4 76.9H2.5C1.1 76.9 0 78 0 79.4C0 80.8 1.1 81.9 2.5 81.9H14.5C15.1 83.9 16.3 85.7 18 87C19.7 88.3 21.8 89 23.9 89C24.3 89 24.8 89 25.2 88.9C29.2 88.4 32.3 85.5 33.3 81.9H39.1C41 86 45.1 88.8 49.7 88.8C50.2 88.8 50.7 88.8 51.2 88.7C54.3 88.3 57 86.7 58.9 84.2C59.5 83.5 59.9 82.7 60.3 81.9H72.2C73.6 81.9 74.7 80.8 74.7 79.4C74.7 78 73.5 76.9 72.2 76.9ZM24.4 84C23.1 84.2 21.9 83.8 20.8 83.1C19.8 82.3 19.1 81.2 19 79.9C18.8 78.2 19.4 76.6 20.8 75.5C21.5 75 21.8 74.1 21.7 73.2C20.7 65.4 21.8 56.8 24.6 48.4C25.3 46.4 26 44.5 26.9 42.6C23.6 52.9 22.7 63.6 24.2 72.9C24.3 73.7 24.9 74.5 25.7 74.8C27.3 75.5 28.3 76.9 28.6 78.6C28.9 81.2 27.1 83.6 24.4 84ZM54.9 81.1C53.8 82.5 52.2 83.4 50.5 83.7C46.8 84.2 43.5 81.6 43 78C42.7 75.7 43.6 73.4 45.5 71.9C46.2 71.4 46.5 70.5 46.4 69.6C45.2 59.7 46.5 48.8 50.1 38.1C52.1 32.3 54.6 26.9 57.6 22.1C56.6 24.4 55.7 26.8 54.8 29.3C50.2 42.8 48.8 56.9 50.7 69.1C50.8 69.9 51.4 70.7 52.2 71C54.4 71.9 55.9 73.9 56.2 76.3C56.5 78 56 79.7 54.9 81.1Z" fill="#729EFC"/>
</svg>
