<svg width="141" height="91" viewBox="0 0 141 91" fill="none" xmlns="http://www.w3.org/2000/svg">
<path d="M108 70.3C107.2 69.8 105.9 69.4 105.2 69.7C104 70.3 104 71.6 104.7 72.8C105.3 74 106 75.1 106.5 76.3C106.8 76.9 106.9 77.6 106.9 78.3C107 80.6 106.2 81.5 103.9 81.5C98.7003 81.4 93.5003 81.2 88.3003 81C86.6003 80.9 84.9003 80.8 83.3003 80.7C83.5003 81 83.6003 81.3 83.8003 81.6C83.6003 81.3 83.4003 81 83.3003 80.7C79.3003 80.5 75.3003 80.2 71.3003 80C70.9003 80 70.5003 79.9 70.1003 79.8C70.0003 79.6 69.8003 79.4 69.7003 79.2C70.8003 78.1 71.9003 77 73.0003 76C74.1003 75 75.2003 74 74.1003 72.5C73.0003 71 71.7003 71.6 70.4003 72.5C67.2003 74.7 65.1003 78 63.3003 81.4C61.5003 84.7 59.8003 88 57.3003 90.8C59.2003 90.9 61.0003 90.9 62.8003 90.8C63.7003 89.6 64.5003 88.3 65.3003 86.9C65.9003 85.9 67.2003 84.8 68.3003 84.8C72.6003 84.6 77.0003 84.5 81.3003 84.7C81.4003 84.7 81.6003 84.7 81.7003 84.7C83.3003 84.8 84.9003 84.8 86.5003 84.9C86.2003 84.7 85.9003 84.4 85.7003 84.1C86.0003 84.4 86.2003 84.6 86.5003 84.9C92.1003 85.2 97.7003 85.5 103.3 85.8C104.7 85.9 105.3 86.3 105.2 87.8C105.1 88.8 105 89.8 105 90.9C106.4 91 107.8 91 109.2 90.9C109.3 88.8 109.8 86.7 110.2 84.6C110.9 80.5 111.7 76.5 109.6 72.6C109.1 71.7 108.7 70.7 108 70.3ZM85.1003 83.4C85.2003 83.5 85.3003 83.6 85.4003 83.7C85.2003 83.6 85.1003 83.5 85.1003 83.4Z" fill="#729EFC"/>
<path d="M136.4 58C136.3 65.1 133.9 71.2 128 75.8C123.5 79.3 121.3 84.1 119.7 89.2C121.5 88.8 123.2 88.3 124.8 87.7C126.4 83.8 128.8 80.5 132.2 77.7C138 72.9 140.4 66.5 140.5 59.1C140.5 59 140.5 58.9 140.5 58.9C139.1 58.7 137.7 58.4 136.4 58Z" fill="#729EFC"/>
<path d="M83.9002 47.4C86.8002 47.1 89.7002 46.7 92.5002 46.3C98.5002 45.4 104.4 43.8 109.4 40C108.5 38.9 107.7 37.7 106.9 36.5C104.8 38.3 102.2 39.6 99.1002 40.3C92.7002 41.8 86.1002 42.8 79.5002 43.7C78.9002 43.8 78.4002 43.9 77.8002 43.9C69.3002 45 60.8002 45.7 52.6002 48.2C50.4002 48.9 47.9002 49.1 45.7002 48.7C40.5002 47.9 35.9002 45.9 31.9002 42.9C30.2001 41.6 28.6002 40.1 27.2002 38.4C21.7002 31.9 19.2001 24.5 21.9002 16.2C23.2001 12.2 25.7002 8.5 27.5002 4.7C28.0002 3.7 28.6002 2.29998 28.3002 1.29998C27.8002 -0.300024 26.1002 0.099976 24.9002 0.299976C21.1002 0.899976 17.7002 2.29999 14.7002 4.59999C10.7002 7.59999 8.10015 11.6 6.70015 16.5C6.30015 17.8 5.90015 19.5 4.90015 20.1C1.90015 21.9 0.900154 24.6 0.700154 27.8C0.400154 33.1 2.30016 37.7 4.80016 42.2C5.20016 42.9 5.30016 44 5.00016 44.6C3.70016 47.8 4.20016 50.6 6.30016 53.2C8.90016 56.3 12.4002 58.3 16.4002 59C19.0002 59.5 21.1002 60.1 22.3002 62.8C22.4002 63 22.5002 63.2 22.7002 63.4C23.4002 64.2 24.5002 64.9 25.5002 65.3C27.2002 65.9 29.1002 66 31.0002 66C33.3002 66 33.5002 66.2 32.8002 68.4C32.5002 69.5 32.1002 70.5 32.0002 71.6C31.8002 74.4 31.5002 77.1 31.3002 79.9C32.5002 81.1 33.9002 82.2 35.4002 83.3C35.4002 82.8 35.4002 82.3 35.4002 81.9C35.5001 76.9 35.7002 71.9 37.8002 67.2C40.9002 60.2 46.2001 55.2 53.4002 52.8C58.9002 51 64.7002 50 70.4002 49.1C74.9002 48.4 79.4002 47.9 83.9002 47.4ZM42.0002 54.5C39.5002 56.6 37.0002 58.8 34.3002 60.7C33.1002 61.5 31.5002 61.6 29.9002 62.1C28.7001 61.7 27.4002 61.4 26.4002 60.7C25.9002 60.3 25.4002 59.2 25.6002 58.5C26.0002 56.1 25.6002 55.2 23.5002 55.3C23.2002 55.3 22.9002 55.3 22.6002 55.4C17.7002 55.9 13.6002 54.3 10.2002 50.8C8.20015 48.8 8.20015 47.8 9.90015 45.6C10.9002 44.3 10.7002 43.2 9.90015 42C7.70015 38.7 5.80016 35.2 5.30016 31.2C5.10016 29.8 5.10016 28.4 5.30016 27.1C5.50016 25.5 6.20016 24.4 8.00016 24.3C9.80016 24.2 9.90016 22.8 10.1002 21.5C11.0002 15.4 13.8002 10.5 19.0002 7.2C19.4002 6.9 20.0002 6.89998 20.5002 6.79998C20.5002 7.29998 20.7002 7.89998 20.5002 8.29998C13.2002 22 16.8001 37 28.9002 46C29.3001 46.3 29.7002 46.6 30.2002 46.9C33.7002 49.2 37.7002 50.6 41.5002 52.5C42.0002 52.8 42.5002 53.1 43.0002 53.4C42.7002 53.6 42.4002 54.1 42.0002 54.5Z" fill="#729EFC"/>
</svg>
