<svg width="97" height="76" viewBox="0 0 97 76" fill="none" xmlns="http://www.w3.org/2000/svg">
<path d="M3.40003 75.9C3.00003 75.9 2.60002 75.8 2.30002 75.6C1.10002 75 0.600046 73.5 1.20005 72.2L8.70005 57.7C11.9 51.5 14.1 44.8 15.1 37.9L16.1 31.5C17.6 21.5 21.4 11.7 27.1 3.2C27.9 2 29.1 1.3 30.5 1.2C31.9 1.1 33.2 1.6 34.2 2.6L35.2 3.7C40.9 9.9 45.4 17 48.5 24.8L54.2 39L77.6 44.7C83.1 46 87.9 49.4 91 54.1L95.6 60.9C96.4 62 96.1 63.6 94.9 64.4C93.8 65.2 92.2 64.9 91.4 63.7L86.8 56.9C84.4 53.2 80.7 50.6 76.4 49.6L51.7 43.6C50.9 43.4 50.3 42.9 50 42.1L43.8 26.7C40.9 19.5 36.7 12.9 31.5 7.1L30.9 6.5C25.8 14.2 22.4 23.1 21.1 32.2L20.1 38.6C19 46.1 16.6 53.3 13.2 60L5.70005 74.5C5.20005 75.4 4.30003 75.9 3.40003 75.9Z" fill="#729EFC"/>
<path d="M69.9002 38.2C68.7002 38.2 67.7002 37.4 67.5002 36.2L61.6002 6.09999L51.9002 13.6C50.8002 14.4 49.2002 14.2 48.4002 13.1C47.6002 12 47.8002 10.4 48.9002 9.59999L59.2002 1.69999C60.4002 0.699994 62.1002 0.499994 63.5002 0.999994C65.0002 1.59999 66.0002 2.79999 66.3002 4.29999L72.4002 35.1C72.7002 36.5 71.8002 37.8 70.4002 38C70.2002 38.2 70.0002 38.2 69.9002 38.2Z" fill="#729EFC"/>
</svg>
