<svg width="110" height="83" viewBox="0 0 110 83" fill="none" xmlns="http://www.w3.org/2000/svg">
<path d="M108.3 27.4C106.2 26.8 103.7 26 101.2 25.3C97.8001 24.3 94.2001 23.2 91.7001 22.5C87.1001 21.3 79.1001 20.5 74.7001 20.1C74.8001 20 74.8001 19.8 74.9001 19.7C75.4001 18.4 74.7001 17 73.4001 16.5C72.1001 16 70.7001 16.7 70.2001 18C69.2001 20.9 68.5001 23.4 67.9001 25.4C66.3001 31.2 65.8001 33.1 60.6001 34.1C60.1001 31.9 58.7001 29.5 56.5001 27.1C51.3001 21.6 42.5001 17.7 34.5001 21.2C34.2001 21.3 34.0001 21.5 33.7001 21.6C31.9001 16.4 37.6001 8.5 41.0001 5.2C42.0001 4.2 42.0001 2.7 41.0001 1.7C40.0001 0.699997 38.5001 0.699997 37.5001 1.7C35.1001 4 32.6001 7.29999 30.8001 10.9C27.8001 10.3 24.5001 9.4 21.0001 8.5C15.5001 7 9.80008 5.5 3.70008 4.7C2.30008 4.5 1.10006 5.5 0.900058 6.8C0.700058 8.2 1.70006 9.40001 3.00006 9.60001C8.70006 10.4 14.3001 11.8 19.6001 13.3C22.8001 14.2 25.9001 15 28.8001 15.6C27.9001 19.1 28.0001 22.6 29.9001 25.6C25.9001 31.7 22.9001 42.2 22.5001 48.9C22.0001 57.7 27.7001 79.1 33.0001 82.1C33.6001 82.4 34.3001 82.6 34.9001 82.6C35.5001 82.6 36.1001 82.5 36.6001 82.2C39.5001 80.7 40.4001 75.7 41.2001 65.9C41.3001 64.9 41.4001 63.9 41.4001 63.3C41.8001 60.1 43.1001 55.2 47.6001 49.9C49.4001 47.8 51.6001 46.3 53.7001 44.8C56.1001 43.2 58.3001 41.6 59.6001 39.4C66.4001 38.4 69.0001 36.2 70.7001 32.2C70.9001 35.7 71.5001 39.2 72.5001 41.4C73.9001 44.5 76.6001 46.4 79.5001 46.4C79.8001 46.4 80 46.4 80.3 46.4C83.6001 46 86.2001 43.3 86.9001 39.7C87.2001 38.4 87.4001 38.1 92.1001 38.3C93.6001 38.4 95.4001 38.5 97.2001 38.4C102.2 38.1 104.6 34.7 105.4 32C105.8 32.1 106.2 32.2 106.6 32.4C106.8 32.5 107.1 32.5 107.3 32.5C108.4 32.5 109.4 31.8 109.7 30.7C110.4 29.2 109.7 27.8 108.3 27.4ZM55.7001 36.6C55.0001 37.9 53.2001 39.2 51.2001 40.6C48.9001 42.2 46.4001 43.9 44.2001 46.5C40.0001 51.4 37.5001 57 36.8001 62.5C36.7001 63.2 36.6001 64.2 36.5001 65.3C36.3001 67.8 35.7001 73.9 34.8001 76.6C32.1001 72.5 27.3001 57.5 27.7001 49C28.2001 39.8 33.4001 27 36.5001 25.7C42.2001 23.2 49.0001 26.4 52.9001 30.5C55.4001 33.2 56.2001 35.6 55.7001 36.6ZM97.2001 33.3C95.7001 33.4 94.2001 33.3 92.8 33.2C88.9 33 83.5001 32.6 82.4001 38.6C82.1001 40.3 81.0001 41.2 80.1001 41.3C79.1001 41.4 78.1001 40.7 77.5001 39.2C75.8001 35.6 75.9001 28.6 76.2001 25.3C80.6001 25.7 86.9001 26.4 90.6001 27.4C93.0001 28 96.5001 29.1 99.9001 30.1C100.3 30.2 100.6 30.3 101 30.4C100.6 31.6 99.7001 33.1 97.2001 33.3Z" fill="#729EFC"/>
</svg>
