<svg width="23" height="27" viewBox="0 0 23 27" fill="none" xmlns="http://www.w3.org/2000/svg">
<path d="M22.8724 19.588L16.9022 5.20138C16.6983 4.7063 16.2906 4.3277 15.7955 4.15296L8.34011 1.64841C7.61204 1.41542 6.85485 1.64841 6.35977 2.17262C5.19486 1.1242 3.91346 0.337883 2.95241 0.308761C2.36995 0.279638 1.90399 0.483497 1.58364 0.920338C1.29241 1.29893 1.20504 1.7649 1.32153 2.23086C1.64188 3.59963 3.59311 4.88103 4.67065 5.49261L2.60293 9.65716C2.36995 10.1231 2.34083 10.6765 2.54469 11.1715L8.48573 25.5582C8.77695 26.2571 9.44678 26.694 10.204 26.694C10.437 26.694 10.6699 26.6357 10.9029 26.5484L21.8531 22.0052C22.319 21.8305 22.6685 21.4519 22.8432 21.015C23.0471 20.5491 23.0471 20.054 22.8724 19.588ZM9.53415 25.1213L3.56398 10.7056C3.47661 10.5017 3.50574 10.2979 3.59311 10.1231L5.8938 5.49261L6.62187 4.00735C7.00047 4.38595 7.34994 4.79366 7.64117 5.20138C7.05871 5.78384 6.82573 6.65752 7.1752 7.47296C7.49555 8.25927 8.25275 8.75436 9.09731 8.75436C9.35941 8.75436 9.62152 8.69611 9.88362 8.60874C10.3787 8.40488 10.7864 7.99717 10.9903 7.50208C11.1941 6.97787 11.1941 6.42454 10.9903 5.92945C10.7864 5.43436 10.3787 5.02665 9.88362 4.82279C9.4759 4.64805 9.06818 4.61893 8.66046 4.7063C8.22362 4.15296 7.72854 3.54139 7.1752 2.98805C7.32082 2.81332 7.52468 2.69683 7.72854 2.69683C7.8159 2.69683 7.87415 2.69683 7.96152 2.72595L15.4461 5.2305C15.6499 5.28875 15.7955 5.43436 15.8829 5.63822L21.8239 20.0249C21.9113 20.1996 21.9113 20.4035 21.8239 20.5782C21.7366 20.7529 21.6201 20.8985 21.4453 20.9568L10.4661 25.4999C10.2913 25.5873 10.0875 25.5873 9.91274 25.4999C9.73801 25.4126 9.59239 25.2961 9.53415 25.1213ZM2.45732 1.59016C2.51556 1.50279 2.63205 1.41543 2.86504 1.41543C3.59311 1.44455 4.69977 2.17262 5.77731 3.16279L5.13661 4.47331C3.62223 3.62875 2.54469 2.63858 2.39907 1.96876C2.36995 1.82314 2.36995 1.70665 2.45732 1.59016ZM8.39836 6.22068C8.51485 6.39541 8.68959 6.48278 8.89345 6.48278C9.00994 6.48278 9.09731 6.45366 9.18467 6.39541C9.30116 6.30805 9.41766 6.19156 9.44678 6.04594C9.4759 5.95857 9.4759 5.84208 9.44678 5.75471C9.4759 5.75471 9.4759 5.75471 9.50502 5.78384C9.73801 5.87121 9.91274 6.07506 10.0001 6.30805C10.0875 6.54103 10.0875 6.80313 10.0001 7.03612C9.91274 7.2691 9.70888 7.44383 9.4759 7.5312C9.24292 7.61857 8.98081 7.61857 8.74783 7.5312C8.51485 7.44383 8.34011 7.23997 8.25275 7.00699C8.16538 6.77401 8.16538 6.51191 8.25275 6.27892C8.28187 6.22068 8.31099 6.16243 8.34011 6.10419C8.34011 6.16243 8.36924 6.19156 8.39836 6.22068Z" fill="#333232"/>
<path d="M6.76752 24.1021L3.15629 24.4516C2.98156 24.4807 2.83594 24.4225 2.69033 24.306C2.57384 24.1895 2.48647 24.0439 2.45735 23.8983L1.1177 9.62811C1.08858 9.45337 1.17595 9.27864 1.29244 9.13302L3.76787 6.5411C3.88436 6.42461 3.91349 6.27899 3.91349 6.13338C3.91349 5.98777 3.85524 5.84215 3.73875 5.75478C3.50577 5.55092 3.15629 5.55092 2.95244 5.78391L0.477001 8.37583C0.127528 8.75443 -0.0472079 9.24951 0.0110375 9.7446L1.35068 24.0147C1.37981 24.4807 1.61279 24.8884 1.96226 25.1797C2.28261 25.4418 2.66121 25.5874 3.06893 25.5874C3.12717 25.5874 3.18542 25.5874 3.24366 25.5874L6.85488 25.2379C7.17523 25.2088 7.37909 24.9467 7.34997 24.6263C7.34997 24.306 7.08787 24.073 6.76752 24.1021Z" fill="#333232"/>
<path d="M10.3204 19.9084C10.5243 20.4326 10.9029 20.8694 11.3397 21.1315C11.6309 21.3063 11.9513 21.3936 12.2716 21.3936C12.4755 21.3936 12.6793 21.3645 12.8541 21.2772C13.2327 21.1315 13.7569 20.6365 13.8151 20.6073C14.1937 20.2579 15.1256 19.9084 15.446 19.9084C15.6499 19.9084 16.2906 19.8793 16.6692 19.7336C17.1351 19.5298 17.4846 19.1221 17.6302 18.5687C17.7758 18.0737 17.7176 17.5203 17.5137 16.9961C17.3099 16.5301 17.0186 16.1516 16.64 15.8894H16.6692C16.6983 15.8894 16.7274 15.8894 16.7565 15.8894C17.1934 15.8603 17.572 15.6565 17.8632 15.307C18.2418 14.8701 18.4165 14.2586 18.3583 13.6179C18.2418 12.4238 17.3972 11.5502 16.4071 11.6084C15.9702 11.6375 15.5916 11.8414 15.3004 12.1909L15.2713 12.22C15.2713 12.0452 15.2421 11.8705 15.213 11.6958C14.9218 10.4144 13.8442 9.56981 12.7667 9.80279C12.3299 9.89016 11.9221 10.1814 11.66 10.5891C11.3979 11.0259 11.2814 11.5502 11.3106 12.1035C10.9611 11.6958 10.5243 11.4045 10.0292 11.2881C9.5632 11.1716 9.06812 11.2589 8.68952 11.4919C7.78672 12.0744 7.61198 13.414 8.2818 14.5207C8.36917 14.6663 8.48566 14.8119 8.60215 14.9575C8.57303 14.9575 8.57303 14.9575 8.54391 14.9575C8.10707 14.9284 7.67023 15.0449 7.34988 15.3361C6.59268 15.9768 6.59268 17.2291 7.34988 18.1319C7.75759 18.627 8.31093 18.9473 8.89338 18.9765C8.95163 18.9765 9.00987 18.9765 9.039 18.9765C9.41759 18.9765 9.79619 18.8308 10.0874 18.5979C10.1165 18.5687 10.1457 18.5396 10.1748 18.5105C10.0874 18.9473 10.1165 19.4424 10.3204 19.9084ZM11.2814 18.627C11.3106 18.5105 11.3979 18.3066 11.5727 18.2193C11.6018 18.2193 11.6309 18.1901 11.66 18.1901C12.126 18.1028 12.1551 17.6659 12.1843 17.3747C12.2134 17.1417 12.2425 16.8505 12.3299 16.5593C12.3881 16.3554 12.5337 16.0933 12.825 15.9768C12.9123 15.9477 12.9997 15.9186 13.0871 15.9186C13.2327 15.9186 13.4074 15.9768 13.5821 16.0642C13.8442 16.2098 14.0772 16.3845 14.252 16.5301C14.5141 16.734 14.8927 17.0544 15.3004 16.734C15.3295 16.7049 15.3586 16.7049 15.3878 16.6758C15.7372 16.5301 16.2323 16.8796 16.4362 17.433C16.5527 17.7242 16.5818 18.0445 16.5235 18.3066C16.4944 18.4231 16.4071 18.627 16.2323 18.7144C16.1449 18.7435 15.7372 18.8017 15.446 18.8017H15.4169C14.8344 18.8017 13.6113 19.2386 13.0288 19.7919C12.7958 19.9958 12.5046 20.2287 12.4172 20.2579C12.2134 20.3452 12.0095 20.2287 11.9221 20.1705C11.6892 20.0249 11.4853 19.7919 11.3688 19.5007C11.2232 19.1803 11.1941 18.86 11.2814 18.627ZM14.98 15.5982C14.7762 15.4526 14.4849 15.2196 14.1355 15.0449C13.553 14.7245 12.9414 14.6954 12.4172 14.8993C11.893 15.1031 11.4853 15.5691 11.2814 16.1807C11.1358 16.5884 11.1067 16.9379 11.0776 17.2C10.9029 17.2873 10.7572 17.4038 10.6116 17.5494C10.699 16.967 10.4951 16.3263 10.0583 15.8021C10.0292 15.773 10 15.7438 10 15.7147C10.0874 15.7147 10.1748 15.7438 10.2622 15.7438C10.5825 15.7438 10.9029 15.6565 11.165 15.4817C11.7474 15.1323 12.0095 14.4333 11.9804 13.7052C12.3881 14.1712 12.9123 14.4333 13.4657 14.4333C13.5821 14.4333 13.6986 14.4333 13.8151 14.4042C14.1937 14.3168 14.5432 14.113 14.8053 13.7635C14.8053 13.7926 14.8053 13.8217 14.8053 13.8509C14.8635 14.5498 15.1839 15.1323 15.6499 15.4817C15.4169 15.4817 15.1839 15.5108 14.98 15.5982ZM8.07794 16.1516C8.16531 16.0933 8.25268 16.0351 8.36917 16.0351C8.39829 16.0351 8.3983 16.0351 8.42742 16.0351C8.68952 16.0642 8.98075 16.2389 9.18461 16.4719C9.53408 16.9087 9.59233 17.4912 9.33022 17.7242C9.21373 17.8115 9.06812 17.8407 8.98075 17.8115C8.71864 17.7824 8.42742 17.6077 8.22356 17.3747C7.87409 16.967 7.81584 16.3845 8.07794 16.1516ZM13.9607 13.0063C13.9025 13.1228 13.7569 13.2684 13.553 13.2975C13.1162 13.3849 12.592 12.9189 12.4464 12.2491C12.359 11.8414 12.4172 11.4628 12.592 11.1716C12.6502 11.0551 12.7958 10.9095 12.9997 10.8803C13.0288 10.8803 13.0871 10.8803 13.1162 10.8803C13.5239 10.8803 13.9607 11.3463 14.1064 11.9288C14.1937 12.3073 14.1355 12.7151 13.9607 13.0063ZM10.5534 14.5207C10.3786 14.6372 10.2039 14.608 10.0874 14.5789C9.76706 14.4916 9.44671 14.2586 9.24285 13.9091C8.89338 13.3266 8.9225 12.6568 9.3011 12.4238C9.38847 12.3656 9.47584 12.3365 9.59233 12.3365C9.65057 12.3365 9.70882 12.3365 9.76706 12.3656C10.0874 12.453 10.4078 12.6859 10.6116 13.0354C10.9611 13.5887 10.932 14.2877 10.5534 14.5207ZM16.4653 12.7151C16.8439 12.7151 17.1934 13.1519 17.2516 13.7052C17.2807 14.0256 17.1934 14.3459 17.0186 14.5498C16.9604 14.6372 16.8439 14.7245 16.6983 14.7245C16.3488 14.7537 15.9702 14.2877 15.9411 13.7344C15.912 13.414 15.9993 13.0937 16.1741 12.8898C16.2032 12.8316 16.3197 12.7442 16.4653 12.7151Z" fill="#333232"/>
</svg>
