<svg width="23" height="23" viewBox="0 0 23 23" fill="none" xmlns="http://www.w3.org/2000/svg">
<path d="M22.8735 10.8989L20.6225 7.61094C20.6225 7.61094 20.6225 7.61094 20.5973 7.58565C20.572 7.53507 20.5214 7.50977 20.4961 7.48448L20.4708 7.45919L20.4455 7.4339L17.4357 5.91637C17.1828 5.78991 16.8793 5.89108 16.7781 6.144C16.7276 6.27046 16.7023 6.39692 16.7529 6.52338C16.8034 6.64984 16.8793 6.75101 17.0058 6.8016L19.1556 7.88916L16.247 9.43197L15.5641 7.93974C16.2217 6.82689 16.1964 5.66345 16.1964 5.53699L16.1964 0.857955C16.1964 0.655618 16.0953 0.503865 15.9182 0.402697C15.7412 0.32682 15.5388 0.352112 15.3871 0.45328L13.5155 1.94552L9.44344 1.94552L7.57182 0.45328C7.42007 0.32682 7.21773 0.301528 7.04069 0.402697C6.86364 0.478573 6.76247 0.655618 6.76247 0.857955L6.76247 5.53699C6.76247 5.66345 6.73718 6.85218 7.39478 7.93974L6.73718 9.43197L3.82859 7.88916L5.95312 6.8016C6.20605 6.67514 6.30722 6.37163 6.18076 6.144C6.13018 6.01754 6.02901 5.94166 5.90254 5.89108C5.77608 5.8405 5.64962 5.86579 5.52316 5.91637L2.53869 7.4339L2.48811 7.45919L2.46282 7.48448C2.41224 7.50977 2.38695 7.56036 2.36165 7.58565C2.36165 7.58565 2.36165 7.58565 2.33636 7.61094L0.0853647 10.8989C0.00948844 11.0254 -0.0158083 11.1518 0.00948381 11.3036C0.0347759 11.4553 0.135944 11.5565 0.262405 11.6324L9.01347 16.2608C9.2411 16.3873 9.51931 16.3114 9.64577 16.1091L11.4921 13.4028L13.3384 16.1091C13.4649 16.3114 13.7684 16.3873 13.9707 16.2608L19.7373 13.2005L19.7373 16.8679L11.9726 21.294L11.9726 15.5274C11.9726 15.4515 11.9221 15.4009 11.8462 15.4009H11.1127C11.0368 15.4009 10.9863 15.4515 10.9863 15.5274L10.9863 21.294L3.22158 16.8679L3.22158 14.3133C3.22158 14.2375 3.171 14.1869 3.09512 14.1869L2.36165 14.1869C2.28578 14.1869 2.23519 14.2375 2.23519 14.3133L2.23519 17.1714C2.23519 17.3484 2.33636 17.5254 2.48811 17.6013L11.2392 22.5839C11.3151 22.6344 11.3909 22.6597 11.4921 22.6597C11.568 22.6597 11.6691 22.6344 11.745 22.5839L20.4961 17.6013C20.6478 17.5002 20.749 17.3484 20.749 17.1714L20.749 12.6947L22.7471 11.6324C22.8735 11.5565 22.9747 11.4553 23 11.3036C22.9747 11.1518 22.9494 11.0254 22.8735 10.8989ZM21.7354 11.0001L13.8696 15.1733L12.175 12.7199L20.0408 8.54675L21.7354 11.0001ZM8.07767 8.82496C8.33059 9.07788 8.63409 9.28022 8.96289 9.43197C8.98818 9.45726 9.03876 9.45726 9.06406 9.43197C9.08935 9.43197 9.11464 9.40668 9.13993 9.3561L9.46873 8.6985C9.49402 8.64792 9.46873 8.57204 9.41814 8.52146C7.67299 7.63624 7.72357 5.63816 7.74886 5.53699L7.74886 1.86964L8.96289 2.83074C9.03877 2.90662 9.16522 2.93191 9.26639 2.93191L13.6672 2.93191C13.7684 2.93191 13.8948 2.88132 13.9707 2.83074L15.1847 1.86964L15.1847 5.56228C15.1847 5.58757 15.2353 6.97864 14.2995 7.93974C13.6672 8.59733 12.7061 8.92613 11.4668 8.92613C11.3909 8.92613 11.3403 8.97672 11.3403 9.05259L11.3403 9.78606C11.3403 9.86194 11.3909 9.91253 11.4668 9.91253C12.8832 9.91253 14.0213 9.53314 14.8559 8.77438L15.3365 9.86194L11.4668 11.9106L7.59711 9.86194L8.07767 8.82496ZM10.7333 12.6947L9.03876 15.148L1.17292 10.9748L2.86749 8.52146L10.7333 12.6947Z" fill="#333232"/>
<path d="M11.4668 7.73743C11.6186 7.73743 11.7451 7.68684 11.8462 7.58568L12.1244 7.25688C12.2509 7.10513 12.3015 6.90279 12.2003 6.72575C12.1244 6.5487 11.9474 6.42224 11.7451 6.42224L11.1633 6.42224C10.961 6.42224 10.784 6.5487 10.7081 6.72575C10.6322 6.90279 10.6575 7.10513 10.784 7.25688L11.0622 7.58568C11.1886 7.68684 11.3151 7.73743 11.4668 7.73743Z" fill="#333232"/>
<path d="M9.92395 4.90479C9.56986 4.90479 9.26636 5.20829 9.26636 5.56238C9.26636 5.91647 9.56986 6.21997 9.92395 6.21997C10.278 6.21997 10.5815 5.91647 10.5815 5.56238C10.5815 5.20829 10.278 4.90479 9.92395 4.90479Z" fill="#333232"/>
<path d="M12.9844 6.19464C13.3385 6.19464 13.642 5.89114 13.642 5.53705C13.642 5.18296 13.3385 4.87946 12.9844 4.87946C12.6303 4.87946 12.3268 5.18296 12.3268 5.53705C12.3268 5.91643 12.6303 6.19464 12.9844 6.19464Z" fill="#333232"/>
</svg>
