<svg width="23" height="17" viewBox="0 0 23 17" fill="none" xmlns="http://www.w3.org/2000/svg">
<path d="M22.9067 0.950952C22.8071 0.817051 22.6479 0.721407 22.4289 0.702278L22.2896 0.683149C21.8715 0.644892 21.4733 0.606634 21.0553 0.568377C20.8562 0.549248 20.697 0.472733 20.5576 0.377089C20.0002 -0.00548684 19.2437 -0.101131 18.527 0.109286C17.8104 0.319702 17.2132 0.817051 16.9544 1.4483C16.9145 1.52482 16.8747 1.62046 16.8548 1.69697C16.7553 1.94565 16.6557 2.21345 16.5164 2.46213C16.1382 3.18902 15.5409 3.64811 14.6451 3.91591C14.0877 4.06894 13.4706 4.16459 12.7738 4.18372C12.077 4.20285 11.3803 4.18372 10.6835 4.16459C10.1261 4.14546 9.56869 4.12633 9.01129 4.14546C8.05573 4.14546 7.23952 4.20285 6.44323 4.375C6.22424 4.43239 6.02517 4.41326 5.80619 4.33675C4.21359 3.82027 3.01914 3.20815 2.02377 2.40474C1.46636 1.96478 1.06822 1.52482 0.789513 1.0466C0.729791 0.931823 0.57053 0.702278 0.271918 0.797922C-0.0466012 0.912695 -0.00678992 1.19963 0.0131175 1.3144C0.0927473 1.83088 0.291824 2.32822 0.650158 2.8447C1.24738 3.74375 2.1034 4.47065 3.33766 5.17841C3.61637 5.33144 3.89507 5.48447 4.17378 5.61838L4.31313 5.69489C4.45248 5.75228 4.45248 5.82879 4.43257 5.92444C4.09415 6.9 4.05433 7.93296 4.31313 9.08068C4.41266 9.52065 4.39276 9.97974 4.2335 10.458C4.09415 10.8597 3.9548 11.2614 3.77563 11.6057C3.71591 11.7396 3.65618 11.8926 3.61637 12.0265C3.05896 12.543 2.72054 13.1934 2.58118 13.9777C2.54137 14.2455 2.54137 14.5133 2.54137 14.7811C2.54137 14.8576 2.54137 14.9341 2.54137 15.0106C2.54137 15.0297 2.54137 15.0297 2.54137 15.0297H2.52146C2.44183 15.0297 2.3622 15.0297 2.28257 15.0297C2.06359 15.0297 1.8446 15.0297 1.62562 15.0489C1.06821 15.1062 0.689972 15.5462 0.729787 16.1009C0.749694 16.5792 1.20757 17 1.72516 17L9.3099 17C9.56869 17 9.72796 16.847 9.72796 16.5792L9.72796 16.0436C9.72796 15.6227 9.52888 15.3167 9.15064 15.1254C9.13073 15.1254 9.13073 15.1063 9.13073 15.0871C9.13073 14.7237 9.13073 14.3794 9.13073 14.0159L9.13073 13.4803C9.13073 13.442 9.13073 13.4229 9.15064 13.3847C9.48907 12.7725 9.48906 12.1413 9.17054 11.5292C9.13073 11.4335 9.11083 11.357 9.15064 11.2614C9.19046 11.1657 9.27008 11.0701 9.36962 11.0127C9.46916 10.9553 9.54879 10.8979 9.64833 10.8597C9.74786 10.8023 9.82749 10.7449 9.92703 10.7066C10.0465 10.6301 10.146 10.5727 10.2256 10.4962C10.365 10.3814 10.4645 10.2284 10.5442 10.0371C11.5594 10.4388 12.6145 10.6301 13.6497 10.5727C13.7293 10.5727 13.7493 10.5919 13.7493 10.5919C13.7493 10.5919 13.7692 10.611 13.7692 10.6875C13.6696 11.6822 13.7891 12.6769 13.9085 13.6333C13.9284 13.8629 13.9682 14.0733 13.9881 14.3028C14.028 14.7619 13.9882 15.1636 13.8289 15.5462C13.7094 15.8523 13.7094 16.1009 13.8488 16.2922C13.9881 16.4644 14.2469 16.56 14.5854 16.5218C14.6451 16.5218 14.6849 16.5027 14.7446 16.5027L14.8243 16.4835C14.9636 16.4644 15.0233 16.4835 15.0831 16.5983C15.2224 16.8278 15.4812 16.9617 15.8395 16.9617C16.178 16.9617 16.5562 16.9809 16.9544 16.9617C17.3923 16.9426 17.6909 16.7131 17.7507 16.3114C17.8104 15.9479 17.5914 15.6419 17.1932 15.508C17.0937 15.4697 17.0539 15.4123 17.034 15.2784L17.0141 15.221C16.7553 14.4367 16.7553 13.5759 16.9743 12.4665C17.034 12.2178 17.0539 11.9691 17.0937 11.7205C17.1335 11.4718 17.1733 11.2231 17.2132 10.9744C17.3525 10.2475 17.7108 9.67368 18.2682 9.25284C19.0645 8.64072 19.3233 7.74167 19.4428 7.11042C19.5423 6.59394 19.6021 6.03921 19.5821 5.46534C19.5622 4.71932 19.9405 4.16459 20.6571 3.80114C21.0155 3.62898 21.3738 3.49508 21.6525 3.39944C22.0109 3.26553 22.2896 3.03599 22.5085 2.67254C22.7076 2.32822 22.847 1.94565 22.9664 1.52482C23.0261 1.25701 23.0062 1.08485 22.9067 0.950952ZM17.6312 6.9C17.6312 6.95739 17.6511 7.01478 17.6511 7.07216C17.8303 7.8947 17.671 8.62159 17.1534 9.27197C16.815 9.71193 16.596 10.1902 16.4965 10.7258C16.4368 11.0509 16.377 11.3953 16.3173 11.7205L16.2377 12.2561C16.178 12.696 16.0983 13.136 16.0386 13.5759C15.9789 14.0733 16.0784 14.5515 16.178 15.0106C16.1979 15.1254 16.2178 15.221 16.2377 15.3358C16.2974 15.6227 16.4169 15.9479 16.7553 16.1392C16.4766 16.1392 16.178 16.1392 15.8993 16.1392C15.7997 16.1392 15.7599 16.1201 15.74 16.1201C15.7201 16.1009 15.7201 16.0436 15.7201 15.9479C15.7201 15.7758 15.74 15.6227 15.7599 15.4506C15.7997 15.1636 15.8395 14.8576 15.7997 14.5324C15.7201 13.5759 15.6007 12.543 15.4613 11.4909C15.3817 10.8979 15.302 10.2667 15.4414 9.65455C15.521 9.32936 15.6405 8.98504 15.7599 8.67898C15.7997 8.58334 15.8395 8.48769 15.8794 8.39205C16.0187 7.99034 15.7798 7.85644 15.6803 7.79906C15.6405 7.77993 15.5807 7.77993 15.5409 7.77993C15.5011 7.77993 15.4414 7.77993 15.4016 7.79906C15.2821 7.85644 15.2025 7.95209 15.1428 8.12425C15.103 8.21989 15.0632 8.31553 15.0233 8.41118C14.9238 8.64072 14.8243 8.8894 14.7844 9.13807C14.7247 9.63542 14.446 9.73106 14.028 9.75019C14.0081 9.75019 14.0081 9.75019 13.9881 9.75019L14.0081 9.84584L13.9682 9.75019C12.8136 9.84584 11.6988 9.65455 10.6437 9.19546L10.6437 8.44944C10.6437 8.43031 10.6437 8.41118 10.6238 8.41118C10.5243 8.23902 10.3849 8.1625 10.1659 8.1625C10.0664 8.1625 9.94694 8.1625 9.8474 8.1625C10.1062 7.66515 10.2655 7.18693 10.3451 6.70872C10.365 6.55569 10.3451 6.44091 10.2655 6.34527C10.2057 6.26875 10.1062 6.21137 10.0067 6.21137C9.76777 6.19224 9.5886 6.32614 9.54879 6.59394C9.48907 6.93826 9.38953 7.30171 9.19045 7.70341C9.17054 7.74167 9.15064 7.77993 9.13073 7.83731L8.77239 7.47387C8.69276 7.39735 8.63304 7.35909 8.57332 7.32084C8.55341 7.30171 8.53351 7.30171 8.5136 7.30171L6.70202 7.30171H6.68211L6.6423 7.32084C6.18443 7.41648 5.86591 7.68428 5.68674 8.12425C5.60711 8.33466 5.50758 8.64072 5.74647 8.94678C5.76637 8.96591 5.76637 8.98504 5.78628 9.00417C5.80618 9.0233 5.80619 9.04243 5.82609 9.08068C5.88582 9.13807 5.88581 9.21459 5.88581 9.31023C5.82609 10.018 5.50758 10.6301 4.97008 11.0892C4.93026 11.1275 4.87054 11.1657 4.83072 11.204C4.85063 11.1657 4.85063 11.1466 4.87054 11.1083C4.89045 11.0509 4.91035 11.0127 4.93026 10.9553C5.18906 10.2667 5.22887 9.5589 5.06961 8.81288C4.87054 7.93296 4.91035 7.09129 5.16915 6.30701C5.36823 5.73315 5.18906 5.31231 4.65156 5.06364C4.2335 4.85322 3.73582 4.60455 3.27794 4.31762C3.01915 4.14546 2.78026 3.9733 2.56127 3.80114C3.39739 4.29849 4.33304 4.73845 5.46776 5.12103C5.846 5.25493 6.26406 5.27406 6.70202 5.19754C6.96082 5.14016 7.23952 5.1019 7.51823 5.06364C8.69277 4.968 9.88722 4.98713 11.0418 5.02538L11.221 5.02538C12.1567 5.04451 13.0724 5.06364 13.9881 4.92974C15.3219 4.73845 16.178 4.29849 16.815 3.53334C16.815 3.55247 16.8349 3.55247 16.8349 3.55247C16.9743 3.8394 17.1733 4.1072 17.472 4.41326C17.6909 4.62368 17.9696 4.73845 18.2682 4.70019C18.5669 4.66194 18.8257 4.47065 18.965 4.20285C19.2238 3.7055 19.2437 3.18902 19.0247 2.69167C18.8854 2.36648 18.8456 2.07955 18.9252 1.79262C18.965 1.63959 18.9053 1.48656 18.8058 1.39091C18.6664 1.27614 18.4872 1.25701 18.3479 1.37179C18.2284 1.4483 18.1886 1.56307 18.1488 1.67785C18.0493 2.06042 18.0891 2.48125 18.2682 2.92122C18.4076 3.22728 18.4076 3.51421 18.2882 3.80114C18.2483 3.87766 18.2085 3.91591 18.1687 3.93504C18.1289 3.93504 18.0692 3.91591 18.0095 3.85853C17.8303 3.68637 17.6909 3.49508 17.5715 3.30379C17.4122 2.99773 17.2729 2.67254 17.4919 2.3091C17.5516 2.21345 17.5914 2.09868 17.6312 1.98391L17.6511 1.90739C17.7905 1.48656 18.0692 1.21876 18.4872 1.08485C19.1641 0.855308 19.7016 0.797922 20.2192 1.21876C20.4581 1.41004 20.7567 1.46743 21.0553 1.50569C21.3937 1.54394 21.7321 1.5822 22.0706 1.60133C22.1303 1.62046 22.1502 1.62046 22.1502 1.62046C22.1502 1.62046 22.1502 1.63959 22.1303 1.67785C22.0308 1.92652 21.9511 2.13694 21.8516 2.34735C21.7321 2.59603 21.553 2.72993 21.3141 2.80644C21.1349 2.86383 20.9558 2.94035 20.7965 2.99773C20.7169 3.03599 20.6372 3.05512 20.5576 3.09338C19.3831 3.5716 18.7858 4.43239 18.7858 5.67576C18.7858 6.05834 18.7659 6.51743 18.6863 6.97652C18.6266 7.24432 18.5868 7.493 18.4872 7.70341C18.4872 7.43561 18.4275 7.16781 18.3479 6.88087C18.2882 6.65133 18.0891 6.55569 17.8701 6.59394C17.7307 6.51743 17.6113 6.70872 17.6312 6.9ZM8.47378 11.2996C8.45388 11.4527 8.49369 11.6057 8.57332 11.7205C8.85202 12.1604 8.85202 12.5813 8.57332 13.0212C8.5136 13.1169 8.47378 13.2125 8.47378 13.3273L8.47378 15.2784C8.47378 15.5462 8.61314 15.6992 8.91175 15.7375C9.0511 15.7566 9.13073 15.8331 9.13073 15.9479C9.13073 15.9862 9.13073 16.0244 9.13073 16.0627C9.13073 16.1009 9.13073 16.1392 9.13073 16.1775H8.75249C8.4937 16.1775 8.2548 16.1775 7.99601 16.1775L7.99601 13.6525C7.99601 13.6333 7.99601 13.6142 7.99601 13.5951V13.5568C7.9761 13.3464 7.79693 13.2125 7.59786 13.2125C7.39878 13.2125 7.21962 13.3847 7.21962 13.5951C7.21962 13.729 7.21961 13.882 7.27934 14.0159L7.27934 15.2402L7.25943 15.2593C7.21962 15.2402 7.19971 15.221 7.1599 15.2019C7.04045 15.1254 6.921 15.0871 6.78165 15.068C6.76174 15.068 6.74184 15.068 6.74184 15.0106C6.66221 14.6472 6.44323 14.3411 6.14462 14.1307C5.88582 13.9585 5.58721 13.8438 5.24878 13.8246C5.12934 13.8246 5.00989 13.8438 4.93026 13.9203C4.85063 13.9777 4.81081 14.0733 4.7909 14.1689C4.7909 14.2837 4.81081 14.3794 4.89044 14.4559C4.97007 14.5324 5.06961 14.5898 5.20896 14.5898C5.66683 14.6089 5.98535 14.9341 6.00526 15.3932C6.00526 15.6227 6.16452 15.7758 6.40341 15.7949C6.72193 15.814 6.96082 15.9479 7.12008 16.2157C5.90572 16.2157 4.67146 16.2157 3.45711 16.2157C3.45711 16.2157 3.45711 16.2157 3.45711 16.1966C3.45711 15.967 3.45711 15.7375 3.45711 15.4888C3.45711 15.1254 3.45711 14.7428 3.45711 14.3794C3.47702 13.5377 3.85526 12.8491 4.55202 12.3326C4.69137 12.2369 4.83072 12.1413 4.97008 12.0456C5.16915 11.9117 5.36822 11.797 5.54739 11.6439C6.04508 11.2422 6.40341 10.7258 6.62239 10.1328L6.66221 10.1902C6.74184 10.3241 6.86128 10.4006 7.00063 10.4197C7.13998 10.4197 7.25943 10.3623 7.35897 10.2284C7.63767 9.86496 7.93628 9.48239 8.21499 9.09981C8.27471 9.00417 8.33443 8.90853 8.31453 8.77462C8.27471 8.60247 8.17517 8.50682 8.01591 8.46856C7.85665 8.43031 7.7173 8.48769 7.59786 8.62159L7.4386 8.83201C7.29925 9.00417 7.1798 9.17633 7.06036 9.34849C6.88119 9.06156 6.72193 8.77462 6.54276 8.50682C6.52286 8.46856 6.52286 8.43031 6.54276 8.39205C6.62239 8.1625 6.80156 8.0286 7.06036 8.0286C7.49832 8.0286 7.93628 8.0286 8.37425 8.0286C8.39415 8.0286 8.39416 8.0286 8.43397 8.06686L8.59323 8.21989C8.71267 8.33466 8.85202 8.46856 8.97147 8.60246C9.21036 8.85114 9.78768 8.94678 9.82749 8.94678L10.2057 8.94678C10.2057 9.00417 10.2057 9.06156 10.2057 9.13807C10.2057 9.2911 10.2057 9.46326 10.1858 9.61629C10.1659 9.76932 10.0863 9.88409 9.94694 9.96061C9.76777 10.0563 9.54879 10.1902 9.32981 10.3049C8.7923 10.458 8.5335 10.8214 8.47378 11.2996ZM14.6849 15.6036C14.9238 15.0106 14.884 14.3794 14.8243 13.8055L14.7844 13.4229C14.7048 12.7534 14.6053 12.0648 14.6252 11.357V11.2422C14.6252 10.9744 14.6252 10.7066 14.665 10.4388V10.4197C14.6849 10.917 14.7446 11.4335 14.8044 11.9309C14.8442 12.2561 14.884 12.5813 14.9238 12.8873C14.9437 13.0977 14.9636 13.3081 14.9835 13.5186C15.0432 14.1116 15.1229 14.7237 15.0432 15.3167C15.0034 15.6036 15.0034 15.6036 14.7048 15.6227C14.6849 15.6227 14.6849 15.6227 14.665 15.6227C14.665 15.6419 14.6849 15.6227 14.6849 15.6036ZM2.62099 16.1966C2.3622 16.1966 2.08349 16.1966 1.8247 16.1966C1.74507 16.1966 1.68535 16.1775 1.64553 16.1201C1.60572 16.0818 1.58581 16.0244 1.58581 15.9862C1.58581 15.8714 1.68534 15.7758 1.8247 15.7758H2.34229C2.42192 15.7758 2.52146 15.7758 2.60109 15.7758C2.62099 15.9097 2.62099 16.0627 2.62099 16.1966Z" fill="#333232"/>
</svg>
