<svg width="24" height="20" viewBox="0 0 24 20" fill="none" xmlns="http://www.w3.org/2000/svg">
<path d="M23.2965 18.0866C23.0695 17.7641 22.6359 17.5921 22.1198 17.5921C22.1198 17.5921 22.1198 17.5921 22.0992 17.5921C21.6656 17.2051 21.2734 16.7106 20.9018 16.1516C20.5509 15.5927 20.2412 14.9692 20.0141 14.3457C19.9315 14.1307 19.8696 13.8727 19.8077 13.5932C19.6425 12.7977 19.6219 11.9593 19.7251 11.3143C19.849 10.5618 20.138 10.1103 20.5922 9.93834C20.6541 9.91684 20.6954 9.89534 20.7573 9.89534C20.8399 9.87385 20.9431 9.87385 21.0257 9.87385C21.1083 9.87385 21.1908 9.89535 21.2734 9.93834C21.4386 10.0243 21.6037 10.0243 21.7689 9.98134C21.934 9.93834 22.0785 9.83085 22.1818 9.68035L22.6153 9.03537C22.7391 8.86338 22.7804 8.64839 22.7391 8.4334C22.6978 8.2184 22.5946 8.04641 22.4295 7.89591C22.3469 7.83142 22.285 7.76692 22.223 7.68092C22.1611 7.59492 22.1198 7.50893 22.0992 7.42293V7.40143C21.9753 7.05744 21.7482 6.73495 21.4592 6.51996C21.2734 6.39096 21.067 6.28347 20.8605 6.21897V5.2515C20.8605 5.01501 20.6747 4.82152 20.4476 4.82152C20.3238 4.82152 20.2206 4.88602 20.138 4.97201L19.0439 6.17597C18.3007 6.43396 17.9084 6.77795 17.5575 7.07894C17.2271 7.35843 16.9588 7.61642 16.3807 7.76692C15.6582 7.96041 14.0686 7.72392 12.2313 7.46593C10.0223 7.14344 7.50376 6.79945 5.52192 7.03594C5.31548 7.03594 5.12967 6.94995 4.92323 6.77795C4.69615 6.58446 4.48969 6.28347 4.34518 5.91798C4.15939 5.488 4.09745 4.95051 4.13874 4.45603C4.18003 3.96155 4.3452 3.48856 4.59293 3.14458C4.79937 2.84359 5.06774 2.65009 5.35675 2.5426C5.62513 2.4351 5.91415 2.4351 6.18252 2.5426C6.2651 2.5641 6.34766 2.6071 6.43024 2.67159C6.51282 2.71459 6.59541 2.80059 6.67799 2.86509C6.92572 3.08008 7.21473 3.18758 7.52439 3.16608C7.83405 3.14458 8.12308 2.99408 8.32952 2.73609C8.53596 2.4781 8.63919 2.17711 8.61854 1.83312C8.5979 1.51063 8.45339 1.20964 8.20566 0.994651C8.01986 0.822657 7.81342 0.672162 7.60697 0.543166C7.40053 0.414171 7.17343 0.306674 6.94634 0.220677C6.18251 -0.0588131 5.3774 -0.0803125 4.61357 0.199178C3.84973 0.457169 3.18912 0.994651 2.67301 1.70413C2.17755 2.4136 1.86788 3.27357 1.7853 4.21954C1.70272 5.14401 1.84724 6.08998 2.17755 6.92845C2.30141 7.22944 2.44591 7.48743 2.61107 7.74542C2.77622 8.00341 2.96203 8.2399 3.16848 8.45489C3.20976 8.49789 3.27169 8.56239 3.29234 8.64839C3.33362 8.75588 3.31298 8.92788 3.29234 9.12137C3.06525 9.87385 2.92074 10.4328 2.79687 10.9488C2.73494 11.2283 2.69366 11.5078 2.65237 11.7873C2.50786 11.5508 2.34269 11.2928 2.19818 10.9273C2.03303 10.5188 1.95045 9.78785 1.88852 9.18587C1.84723 8.84188 1.82659 8.56239 1.76466 8.3689C1.70273 8.1539 1.57887 7.76692 1.22792 7.59492C1.02148 7.48743 0.773737 7.50893 0.546651 7.61642C-0.0107415 7.91741 0.154432 8.58389 0.257653 8.90638C0.278297 8.97088 0.298931 9.07837 0.298931 9.12137C0.319575 9.29337 0.340209 9.63735 0.340209 10.1103C0.319565 10.8413 0.56731 11.9163 1.10406 12.6473C1.35179 12.9697 1.49628 13.2492 1.57886 13.4427C1.45499 13.7007 1.31049 14.0662 1.2692 14.4102C1.22791 14.7327 1.24855 15.0552 1.2692 15.2702C1.14533 15.3992 1.02149 15.5497 0.876978 15.7431C0.753113 15.8936 0.629238 15.9796 0.505373 16.0656C0.360864 16.1731 0.19571 16.2806 0.0924895 16.4741C-0.0726639 16.7966 0.00990266 17.2696 0.133768 17.8501C0.154412 17.9791 0.195705 18.1081 0.216349 18.2371C0.360859 19.0755 0.856324 19.269 1.1247 19.312H1.14534C1.43436 19.3335 1.74402 19.3335 1.95046 19.1185C2.07433 18.9895 2.15691 18.8175 2.15691 18.624C2.15691 18.3231 1.99176 18.0436 1.70274 17.8716C1.70274 17.7856 1.72338 17.6996 1.72338 17.6351C1.88854 17.5491 2.28078 17.3771 2.85881 17.1836C2.94139 17.2481 3.02396 17.2911 3.08589 17.3556C3.06525 17.4201 3.06526 17.4846 3.04462 17.5276C3.00333 17.6996 2.96203 17.8716 2.98267 18.0651C3.00332 18.71 3.4575 18.968 3.87038 19.183C4.05618 19.2905 4.24197 19.3765 4.42777 19.527C4.84065 19.871 5.12968 20 5.4187 20C5.50127 20 5.54254 20 5.60447 19.9785C5.83156 19.9785 6.05865 19.8495 6.20316 19.6775C6.34767 19.5055 6.38897 19.269 6.34768 19.0755C6.26511 18.71 6.03802 18.538 5.64578 18.5166C5.54256 18.4736 5.29482 18.3231 5.15031 18.2156C5.54255 17.9576 5.81092 17.6136 5.99672 17.3341C6.01736 17.3341 6.03802 17.3341 6.05866 17.3341C6.92572 17.3341 7.6689 17.0976 7.93728 17.0116C7.97856 17.1836 8.0405 17.4201 8.12308 17.6996C8.32952 18.5166 8.72176 19.011 9.23787 19.0755C9.2998 19.0755 9.36172 19.0755 9.40301 19.0755C9.69203 19.0755 9.91913 18.9895 10.0636 18.8175C10.2081 18.6455 10.2701 18.4306 10.2288 18.1941C10.2081 18.0651 10.1462 17.9576 10.0843 17.8501C10.2081 17.8931 10.3114 17.9361 10.3939 17.9576C10.4352 17.9791 10.4765 17.9791 10.5178 18.0006C10.5591 18.0436 10.6004 18.1511 10.6417 18.2371L10.6623 18.2801C10.8481 18.624 11.0958 18.839 11.3642 18.9035C11.6739 18.9895 11.901 18.882 11.9835 18.8175V18.839C12.0661 18.9895 12.19 19.097 12.3758 19.183C12.3964 19.2045 12.4171 19.2045 12.4377 19.2045C13.0364 19.398 13.5525 19.3765 13.8621 19.1615C14.0067 19.0755 14.0892 18.9465 14.1512 18.796C14.2131 18.6455 14.2131 18.4736 14.1512 18.3231C14.0892 18.1296 13.9654 17.9576 13.7589 17.8286C13.9241 17.1621 14.2544 16.2161 14.8737 15.4207C15.3485 14.8187 15.9266 14.3672 16.5872 14.1307C16.5665 14.2382 16.5665 14.3672 16.6285 14.4532C17.3097 15.6786 18.0736 16.6891 18.8787 17.4846C19.7045 18.2801 20.5922 18.839 21.5212 19.1615C21.8515 19.269 22.1611 19.3335 22.4295 19.3335C22.6772 19.3335 22.9043 19.2905 23.0695 19.183C23.2553 19.054 23.3791 18.882 23.4204 18.667C23.4823 18.4736 23.4411 18.2586 23.2965 18.0866ZM13.2222 18.4736C13.2428 18.4736 13.2841 18.4951 13.3048 18.4951C13.2015 18.4951 13.0157 18.4951 12.7267 18.4091C12.7267 18.4091 12.7061 18.4091 12.7061 18.3876C12.7061 18.3661 12.7061 18.3661 12.7061 18.3231C12.7474 17.4201 12.8919 16.2161 13.0777 15.0767C13.2635 13.9802 13.4906 13.0127 13.7176 12.3033C13.7589 12.1958 13.7383 12.0883 13.697 11.9808C13.6557 11.8733 13.5731 11.8088 13.4699 11.7658C13.3667 11.7228 13.2635 11.7443 13.1603 11.7873C13.057 11.8303 12.9951 11.9163 12.9538 12.0238C12.83 12.3893 12.7061 12.8192 12.6029 13.3137V13.2922C12.5409 13.2062 12.4584 13.1417 12.3551 13.1202C12.2313 13.0987 12.1074 13.0772 11.9835 13.0557C12.3138 12.6258 12.4171 11.9808 12.3551 11.6153C12.3345 11.4648 12.2313 11.3358 12.0867 11.2713C12.0455 11.1638 12.0042 10.9918 11.8597 10.7983C11.7771 10.6693 11.6326 10.5188 11.4674 10.4113C11.5294 9.91684 11.4468 9.57286 11.1991 9.44386C10.8688 9.25037 10.5797 9.48686 10.4146 9.63735C10.3733 9.55136 10.332 9.48686 10.2907 9.42236C10.1875 9.31487 10.043 9.27187 9.89847 9.29337C9.58881 9.33636 9.44431 9.61585 9.34109 9.85235C9.32045 9.89534 9.27915 9.98134 9.25851 10.0243C9.17593 10.1533 9.11399 10.2823 9.09334 10.4328C8.7011 10.8198 8.45338 11.3358 8.2263 11.7658C8.14372 11.9378 8.04049 12.1098 7.97855 12.1958C7.87533 12.3248 7.896 12.3248 7.48311 12.3248H7.35923L6.12058 12.3248H6.09994C4.88193 12.3893 3.82909 12.2603 3.47814 12.1528C3.51943 11.7873 3.58136 11.4648 3.66394 11.1208C3.78781 10.6048 3.9323 10.0673 4.13874 9.31487V9.29337C4.20068 8.92788 4.20068 8.64839 4.13874 8.3904C4.05617 8.13241 3.93231 7.96041 3.80844 7.85292C3.64329 7.68092 3.47814 7.48743 3.35428 7.27244C3.20977 7.05744 3.08589 6.82095 3.00331 6.58446C2.71429 5.87498 2.59043 5.07951 2.67301 4.28404C2.75559 3.51006 3.00331 2.77909 3.4162 2.19861C3.82908 1.61813 4.34518 1.20964 4.96451 0.994651C5.56319 0.779658 6.18253 0.801157 6.78121 1.01615C6.967 1.08065 7.13216 1.16664 7.29731 1.27414C7.46246 1.38164 7.6276 1.48913 7.77211 1.63963C7.85469 1.70413 7.896 1.81162 7.896 1.89762C7.896 2.00512 7.87535 2.11261 7.81342 2.17711C7.75148 2.26311 7.64825 2.30611 7.56567 2.30611C7.46245 2.30611 7.37989 2.28461 7.29731 2.22011C7.17345 2.11261 7.04957 2.02662 6.92571 1.94062C6.80184 1.85462 6.65733 1.79012 6.53346 1.74712C6.07929 1.57513 5.60448 1.57513 5.15031 1.74712C4.71678 1.91912 4.32454 2.22011 4.01488 2.65009C3.68458 3.12308 3.47813 3.72506 3.4162 4.39153C3.35426 5.03651 3.45749 5.70299 3.68458 6.26197C3.87038 6.73495 4.1594 7.14344 4.48971 7.42293C4.84066 7.72392 5.21225 7.87441 5.62514 7.87441H5.66642C7.56568 7.63792 10.0223 8.00341 12.2106 8.3044C14.1305 8.58389 15.7614 8.79888 16.6491 8.58389C17.4129 8.3904 17.8052 8.04641 18.1768 7.72392C18.4864 7.44443 18.8168 7.16494 19.4774 6.94995C19.5393 6.92845 19.6012 6.88545 19.6425 6.84245L20.1173 6.32647V6.60596V6.62746C20.138 6.84245 20.3031 7.01444 20.5096 7.01444C20.6954 7.01444 20.8812 7.07894 21.0463 7.20794C21.2115 7.33693 21.3353 7.50893 21.3973 7.68092C21.4592 7.85292 21.5418 8.02491 21.645 8.1754C21.7482 8.3259 21.8721 8.4549 22.0166 8.58389C21.934 8.69139 21.8721 8.79888 21.7895 8.90638C21.7276 8.99238 21.6863 9.05687 21.6244 9.14287C21.4799 9.07837 21.3147 9.03537 21.1702 9.03537C21.005 9.01388 20.8192 9.03538 20.6541 9.05687C20.5509 9.07837 20.4683 9.09987 20.3651 9.14287C19.6425 9.42236 19.1471 10.1103 18.9819 11.1638C18.9406 11.4218 18.92 11.7013 18.92 12.0023C18.92 11.9808 18.8993 11.9593 18.8993 11.9593C18.8374 11.8733 18.7342 11.8088 18.631 11.7873C18.5277 11.7658 18.4245 11.7873 18.3213 11.8518C18.2387 11.9163 18.1768 12.0238 18.1561 12.1313C18.1149 12.3248 17.991 12.5183 17.7639 12.7117C17.4955 12.9482 17.0827 13.1417 16.6698 13.2707C15.7408 13.5502 14.9563 14.1092 14.3163 14.9262C13.5319 15.9581 13.1396 17.1621 12.9538 17.9791C12.8919 18.1726 13.0157 18.4091 13.2222 18.4736ZM8.94884 17.2911V17.3126C8.94884 17.3986 8.94884 17.4846 8.96948 17.5491C8.96948 17.5276 8.94884 17.4846 8.94884 17.4631C8.82498 16.9256 8.68047 16.4956 8.63918 16.3236C8.57725 16.1516 8.43274 16.0226 8.24694 16.0226H8.2263C8.16437 16.0226 8.10243 16.0441 8.0405 16.0441C7.99921 16.0441 7.95791 16.0656 7.85469 16.1086C7.52439 16.2161 6.73992 16.4956 5.85222 16.4311C5.70771 16.4311 5.58383 16.4956 5.50125 16.6031C5.48061 16.6246 5.45998 16.6676 5.43934 16.7106L5.4187 16.7321C5.2329 16.9901 4.98515 17.3771 4.55163 17.5706C4.48969 17.5921 4.44841 17.6351 4.40713 17.6781C4.24197 17.8716 4.22132 18.1296 4.32454 18.3876C3.93231 18.1726 3.87038 18.1081 3.87038 17.9791C3.87038 17.9146 3.89102 17.7856 3.91166 17.6781C3.95295 17.4631 4.01487 17.2266 3.95294 16.9901C3.9323 16.8611 3.84972 16.7751 3.7465 16.7106C3.60199 16.6246 3.33363 16.4311 3.25106 16.3451C3.16848 16.2806 3.0859 16.2376 2.96203 16.2376C2.92075 16.2376 2.87944 16.2376 2.81751 16.2591C1.24855 16.8396 1.14535 16.9686 1.08342 17.0546C1.06278 17.0761 1.06276 17.0976 1.04212 17.1191C0.980184 17.2266 0.95954 17.3771 0.938895 17.5276C0.897607 17.2911 0.83567 16.9686 0.856314 16.8611C0.876958 16.8396 0.938906 16.7966 1.00084 16.7536C1.14535 16.6461 1.37242 16.5171 1.55822 16.2376C1.82659 15.8936 1.9711 15.7646 1.99174 15.7216C2.11561 15.6142 2.17756 15.4637 2.13627 15.3132C2.09498 15.0982 2.05368 14.7542 2.09496 14.4962C2.13625 14.2167 2.28076 13.8512 2.40463 13.6147C2.46656 13.5072 2.46658 13.3782 2.42529 13.2707C2.384 13.1417 2.17755 12.6473 1.74402 12.0883C1.33114 11.5508 1.14534 10.6908 1.14534 10.0888C1.14534 10.0673 1.14534 10.0458 1.14534 10.0458C1.20727 10.4758 1.28985 10.9058 1.43436 11.2283C1.6408 11.7443 1.88853 12.0883 2.07433 12.3893C2.11561 12.4538 2.1569 12.5183 2.19818 12.5613C2.28076 12.6687 2.40465 12.7547 2.52851 12.7547C2.54916 12.7547 2.75558 12.7547 3.02395 12.8837C3.45748 13.0772 4.71679 13.2277 6.05866 13.1417L7.27667 13.1417H7.40053C7.93728 13.1417 8.18501 13.1417 8.53596 12.6903C8.63918 12.5613 8.7424 12.3463 8.84562 12.1313C9.05207 11.7443 9.29978 11.2498 9.63009 10.9488C9.69202 10.8843 9.73333 10.8198 9.75397 10.7338C9.83655 10.7983 9.91912 10.8198 10.0017 10.8198C10.0223 10.8198 10.043 10.8198 10.0843 10.8198C10.2081 10.8198 10.3114 10.7768 10.3939 10.6908C10.4352 10.6478 10.4559 10.6263 10.4972 10.5833C10.4765 10.7553 10.5797 10.9273 10.7242 10.9918C10.9513 11.1208 11.0546 11.2283 11.0958 11.2713C11.1784 11.4003 11.1991 11.4863 11.2197 11.5508C11.261 11.6798 11.3229 11.8303 11.4674 11.9378C11.4468 12.1313 11.3642 12.3893 11.261 12.5398L11.1991 12.5613C10.7655 12.6687 10.2494 12.8192 10.043 13.5287C10.0223 13.5717 10.0223 13.6147 10.0223 13.6792C10.0636 14.3242 10.0017 14.4532 9.91911 14.6467C9.89847 14.6897 9.87784 14.7542 9.85719 14.8187C9.83655 14.8617 9.83653 14.9047 9.81589 14.9477V14.9692C9.67138 15.3992 9.40302 16.1086 9.96041 16.4956C10.1256 16.6246 10.3114 16.7106 10.4765 16.8181C10.6417 16.9256 10.91 17.0761 10.972 17.1406C11.0339 17.2696 11.1165 17.4201 11.1991 17.5491C11.261 17.6566 11.3642 17.8286 11.4261 17.9576C11.4055 17.9146 11.3642 17.8716 11.3436 17.8286L11.3229 17.7856C11.1165 17.3986 11.0339 17.2696 10.7242 17.1621C10.7036 17.1621 10.6623 17.1406 10.621 17.1406C10.4559 17.0761 9.98104 16.8826 9.50623 16.6246C9.38236 16.5601 9.21721 16.5601 9.09334 16.6461C8.96948 16.7321 8.90754 16.8826 8.90754 17.0331C8.92819 17.1191 8.94884 17.2051 8.94884 17.2911ZM10.6417 15.2702C10.6623 15.2057 10.683 15.1627 10.7036 15.0982C10.7242 15.0552 10.7449 15.0122 10.7449 14.9692C10.8481 14.6897 10.9307 14.4532 10.91 13.8512C11.3642 13.8512 11.7977 13.8942 12.1693 13.9587C12.2726 13.9802 12.3758 13.9587 12.4584 13.8942C12.3964 14.2167 12.3345 14.5822 12.2726 14.9262C12.1487 15.6786 12.0455 16.4741 11.9629 17.1836C11.9422 17.1621 11.9216 17.1191 11.9216 17.0976C11.8597 16.9901 11.7771 16.8611 11.7152 16.7321C11.5707 16.4741 11.2816 16.2806 10.91 16.0656C10.7655 15.9796 10.621 15.8936 10.4765 15.7861C10.4765 15.7001 10.6004 15.3777 10.6417 15.2702ZM18.2387 13.3567C18.569 13.0772 18.7961 12.7547 18.8993 12.4108C18.92 12.8407 18.9613 13.2922 19.0645 13.7437C19.1264 14.0662 19.209 14.3672 19.2916 14.6252C19.5393 15.3132 19.8696 16.0011 20.2618 16.6031C20.6541 17.2266 21.1083 17.7641 21.5831 18.1941C21.5831 18.1941 21.6037 18.2156 21.6244 18.2156C21.7069 18.2801 21.7689 18.3231 21.8515 18.3661C21.934 18.3876 22.0166 18.4091 22.0785 18.4306C22.0992 18.4306 22.1198 18.4306 22.1198 18.4306C22.3263 18.4306 22.4501 18.4736 22.5327 18.4951C22.4088 18.4951 22.1817 18.4951 21.8102 18.3661C20.9844 18.0866 20.1999 17.5706 19.4774 16.8611C18.7342 16.1301 18.0116 15.1842 17.3717 14.0232C17.351 13.9802 17.3097 13.9372 17.2684 13.8942C17.5368 13.8082 17.9084 13.6147 18.2387 13.3567Z" fill="#333232"/>
</svg>
