<svg width="93" height="105" viewBox="0 0 93 105" fill="none" xmlns="http://www.w3.org/2000/svg">
<path d="M16.6004 55.4C16.0004 56.5 16.5004 57.9 17.6004 58.5C18.7004 59.1 20.1005 58.6 20.7005 57.5C21.8005 55.3 24.1004 51.5 26.8004 51.5C29.5004 51.5 31.8005 55.3 32.9005 57.5C33.3005 58.3 34.1005 58.8 35.0005 58.8C35.4005 58.8 35.7005 58.7 36.0005 58.6C37.1005 58 37.6005 56.6 37.0005 55.5C34.2005 49.8 30.7004 46.9 26.8004 46.9C22.9004 46.9 19.4004 49.7 16.6004 55.4Z" fill="#729EFC"/>
<path d="M56.4002 55.4C55.8002 56.5 56.3002 57.9 57.4002 58.5C58.5002 59.1 59.9002 58.6 60.5002 57.5C61.6002 55.3 63.9002 51.5 66.6002 51.5C68.6002 51.5 70.8002 53.6 72.7002 57.5C73.1002 58.3 73.9002 58.8 74.8002 58.8C75.2002 58.8 75.5002 58.7 75.8002 58.6C76.9002 58 77.4002 56.6 76.8002 55.5C74.0002 49.8 70.5002 46.9 66.6002 46.9C62.7002 46.8 59.2002 49.7 56.4002 55.4Z" fill="#729EFC"/>
<path d="M31.3002 31.3C27.1002 24.3 21.8002 17 17.8002 12.5C16.9002 11.6 15.5002 11.5 14.5002 12.3C14.0002 12.7 13.8002 13.3 13.7002 13.9C13.7002 14.5 13.9002 15.1 14.3002 15.6C17.7002 19.4 22.2002 25.5 26.0002 31.7L21.3002 34.3C20.8002 34.6 20.4002 35.1 20.2002 35.7C20.0002 36.3 20.1002 36.9 20.4002 37.5C20.8002 38.2 21.6002 38.7 22.4002 38.7C22.8002 38.7 23.2002 38.6 23.5002 38.4L31.7002 33.8C31.9002 33.7 32.0002 33.5 32.1002 33.3C32.2002 33.1 32.1002 32.9 32.0002 32.7L31.3002 31.3Z" fill="#729EFC"/>
<path d="M79.3001 12.3C78.3001 11.4 76.9001 11.5 76.0001 12.5C72.0001 16.9 66.7001 24.3 62.5001 31.3L61.7001 32.7C61.6001 32.9 61.6001 33.1 61.6001 33.3C61.7001 33.5 61.8001 33.7 62.0001 33.8L70.2001 38.4C70.5001 38.6 70.9001 38.7 71.3001 38.7C72.1001 38.7 72.9001 38.2 73.3001 37.5C73.6001 37 73.7001 36.3 73.5001 35.7C73.3001 35.1 72.9001 34.6 72.4001 34.3L67.7001 31.7C71.5001 25.6 76.0001 19.5 79.4001 15.6C80.3001 14.7 80.2001 13.2 79.3001 12.3Z" fill="#729EFC"/>
<path d="M89.3002 45C89.3002 43.8 89.4002 42.3 89.5002 40.3C90.1002 28.7 91.1002 9.3 81.7002 0.900003L81.3002 0.500003C81.2002 0.400003 81.0002 0.300003 80.8002 0.300003H80.1002C72.8002 0.300003 61.2002 17.8 56.3002 25.8C52.6002 25.3 49.8002 25.3 47.5002 25.4H46.8002H46.1002C43.8002 25.4 41.1002 25.4 37.4002 25.8C32.5002 17.8 20.8002 0.300003 13.6002 0.300003H13.5002H12.9002C12.7002 0.300003 12.6002 0.400003 12.4002 0.500003L12.0002 0.900003C2.60018 9.3 3.6002 28.7 4.2002 40.3C4.3002 42.3 4.40021 43.8 4.40021 45C2.00021 49.2 0.700195 53.6 0.700195 58.1C0.700195 60.7 0.900195 63.3 1.2002 65.8L1.50018 73.2C1.60018 74.5 2.60017 75.4 3.80017 75.4H3.90021C5.20021 75.3 6.20016 74.3 6.10016 73L5.7002 65.5V65.3C5.4002 62.9 5.2002 60.6 5.2002 58.1C5.2002 54.2 6.30018 50.4 8.50018 46.8L8.7002 46.4C8.8002 46.3 8.80017 46.1 8.80017 46V45.6C8.80017 44.1 8.70016 42.2 8.60016 40C8.10016 30.3 7.20016 12.5 14.1002 5C18.2002 6.5 27.5002 18.6 34.0002 29.4L34.5002 30.3C34.7002 30.6 34.9002 30.7 35.3002 30.7L36.3002 30.5C40.3002 29.9 43.3002 29.9 45.8002 29.9H46.6002H47.3002C49.7002 29.9 52.8002 29.9 56.9002 30.5L57.9002 30.7C58.2002 30.7 58.5002 30.6 58.7002 30.3L59.2002 29.4C65.7002 18.6 75.0002 6.5 79.1002 5C86.0002 12.4 85.1002 30.3 84.6002 40C84.5002 42.2 84.4002 44.1 84.4002 45.6V46C84.4002 46.1 84.4002 46.3 84.5002 46.4L84.7002 46.8C86.9002 50.4 88.0002 54.2 88.0002 58.1C88.0002 60.7 87.8002 63.2 87.4002 65.8L87.0002 72.9C87.0002 73.5 87.2002 74.1 87.6002 74.6C88.0002 75.1 88.6002 75.3 89.2002 75.4H89.3002C90.5002 75.4 91.5002 74.4 91.6002 73.2L92.0002 66.4C92.4002 63.7 92.6002 61 92.6002 58.2C93.0002 53.6 91.8002 49.2 89.3002 45Z" fill="#729EFC"/>
<path d="M24.9005 72.9C25.6005 72.7 26.2004 72.1 26.5004 71.5C26.8004 70.8 26.9004 70.1 26.6004 69.4C26.4004 68.7 25.8005 68.1 25.2005 67.8C26.0005 67.4 26.6005 66.7 26.7005 65.7C26.8005 65 26.6005 64.2 26.2005 63.6C25.8005 63 25.1005 62.6 24.4005 62.5L11.2005 60.5C10.3005 60.4 9.50046 60.9 9.20046 61.7C9.10046 62.2 9.10044 62.6 9.30044 63.1C9.50044 63.5 9.90044 63.8 10.3004 64L22.6004 67.9L11.3004 71.8C10.5004 72.1 10.0004 72.9 10.1004 73.8C10.2004 74.7 11.0004 75.3 11.8004 75.3C11.9004 75.3 12.0004 75.3 12.1004 75.3L24.3004 73.2C24.6004 73 24.8005 73 24.9005 72.9Z" fill="#729EFC"/>
<path d="M84.1 60.8C83.7 60.5 83.3 60.4 82.8 60.5L69.6 62.5C69.5 62.5 69.3 62.6 69.2 62.6C67.7 63.1 66.9 64.6 67.4 66.1C67.6 66.9 68.2 67.4 68.8 67.8C68 68.2 67.4 68.9 67.3 69.8C67 71.3 68.1 72.8 69.6 73L81.8 75.1C81.9 75.1 82 75.1 82.1 75.1C82.8 75.1 83.5 74.6 83.8 73.9C84.1 73 83.6 72 82.7 71.6L71.4 67.7L83.7 63.8C84.5 63.5 85.1 62.7 84.9 61.8C84.7 61.5 84.5 61.1 84.1 60.8Z" fill="#729EFC"/>
<path d="M69.8 76.5C69.2 74.1 67 72.5 64.4 72.6C64.2 72.6 64 72.6 63.9 72.6C63.9 72.5 64 72.4 64 72.3C64.1 71.7 64 71.1 63.7 70.6C63.4 70.1 62.9 69.7 62.3 69.6C61.1 69.3 59.8 70.1 59.5 71.3C58.9 73.9 56.8 75.7 54.3 75.7C51.9 75.7 49.8 73.9 49.1 71.4C52.2 70.1 55.4 66.9 55.4 64.1V63.5C55.4 63.3 55.3 63.1 55.2 63L54.7 62.5C52.8 60.6 49.7 59.4 46.8 59.4C43.8 59.4 40.8 60.6 38.9 62.5L38.4 63C38.3 63.1 38.2 63.3 38.2 63.5V64C38.2 66.8 41.5 70.1 44.6 71.3C43.9 73.8 41.8 75.5 39.5 75.5C37.1 75.5 34.9 73.7 34.3 71.1C34 69.9 32.8 69.1 31.5 69.4C30.9 69.5 30.4 69.9 30.1 70.4C29.8 70.9 29.7 71.5 29.8 72.1C29.8 72.2 29.9 72.3 29.9 72.4H29.3C27.8 72.4 26.5 73 25.5 74C24.5 75 24 76.3 24 77.8C24 82.6 24 87.4 24 92.1V98.9C24 101.8 26.3 104.1 29.2 104.1C34.8 104.1 40.4 104.1 46.1 104.1C52.4 104.1 58.7 104.1 65 104.1C66.6 104.1 68 103.4 69.1 102.1C69.6 101.5 69.9 100.8 70.1 100C70.1 99.9 70.1 99.8 70.1 99.8V76.8C70.1 76.7 70.1 76.6 70 76.5C69.9 76.6 69.8 76.5 69.8 76.5ZM65.5 80.8V97L57.4 88.9L65.5 80.8ZM46.9 76.7C48.8 78.9 51.5 80.2 54.3 80.2C57 80.2 59.5 79.1 61.4 77.1H62.8C57.7 82.2 52.6 87.3 47.5 92.4C47.1 92.8 46.8 92.8 46.4 92.4C41.3 87.3 36.2 82.2 31.1 77.1H32.3C34.2 79.1 36.7 80.2 39.4 80.2C42.3 80.2 45 78.9 46.9 76.7ZM39.7 92.1C40.6 93 41.5 93.9 42.4 94.8L43.1 95.5C45.4 97.8 48.5 97.8 50.8 95.5C51.9 94.4 53.1 93.2 54.2 92.1C56.3 94.2 58.3 96.2 60.4 98.3L61.8 99.7H32L33.9 97.8C35.8 95.9 37.7 94 39.7 92.1ZM46.8 67.2C46 67.2 44.2 65.9 43.3 64.8C44.3 64.2 45.6 63.9 46.8 63.9C48 63.9 49.3 64.2 50.3 64.8C49.4 65.9 47.6 67.2 46.8 67.2ZM36.5 88.9C34.2 91.2 31.9 93.5 29.6 95.8L28.4 97V80.8L36.5 88.9Z" fill="#729EFC"/>
</svg>
