<svg width="120" height="90" viewBox="0 0 120 90" fill="none" xmlns="http://www.w3.org/2000/svg">
<g clip-path="url(#clip0_111_14)">
<path d="M109.9 10.1L100.1 0.3L99.9 0H10.8C4.8 0 0 4.8 0 10.8V79.3C0 85.2 4.8 90 10.8 90H109.3C115.2 90 120.1 85.2 120.1 79.2V20.1L109.9 10.1ZM100.4 3.3L110.2 13.1L116.6 19.5H109.2C104.3 19.5 100.4 15.6 100.4 10.7V3.3ZM109.2 88H10.8C5.9 88 2 84.1 2 79.2V10.8C2 5.9 5.9 2 10.8 2H98.5V10.8C98.5 16.7 103.3 21.6 109.3 21.6H118.1V79.3C118 84.1 114.1 88 109.2 88Z" fill="#729EFC"/>
<path d="M67.8996 53.1H52.0996C51.5996 53.1 51.0996 53.5 51.0996 54.1C51.0996 54.6 51.4996 55.1 52.0996 55.1H67.9996C68.4996 55.1 68.9996 54.7 68.9996 54.1C68.8996 53.5 68.4996 53.1 67.8996 53.1Z" fill="#729EFC"/>
<path d="M55.0998 42.7L59.0998 38.4V49C59.0998 49.5 59.4998 50 60.0998 50C60.5998 50 61.0998 49.6 61.0998 49V38.4L65.0998 42.7C65.2998 42.9 65.4998 43 65.7998 43C65.9998 43 66.2998 42.9 66.4998 42.7C66.8998 42.3 66.8998 41.7 66.4998 41.3L60.7998 35.2C60.4998 35.1 60.2998 35 59.9998 35C59.6998 35 59.4998 35.1 59.2998 35.3L53.5998 41.4C53.1998 41.8 53.2998 42.4 53.5998 42.8C54.0998 43.1 54.6998 43.1 55.0998 42.7Z" fill="#729EFC"/>
</g>
<defs>
<clipPath id="clip0_111_14">
<rect width="120" height="90" fill="white"/>
</clipPath>
</defs>
</svg>
