<svg width="72" height="69" viewBox="0 0 72 69" fill="none" xmlns="http://www.w3.org/2000/svg">
<path d="M64.0244 43.579C64.0244 41.6906 64.0244 39.9474 64.0244 38.2042C64.0244 36.6063 64.9756 35.5169 66.5122 35.5895C67.9756 35.5895 68.9268 36.679 68.9268 38.2042C68.9268 43.579 68.9268 48.9537 68.9268 54.2558C68.9268 61.3737 63.2195 67.8379 56.122 68.8548C55.3171 69 54.5122 69 53.7073 69C40.8293 69 28.0244 69 15.1463 69C7.46342 69 1.02439 63.2621 0.146341 55.6358C0.0731707 54.9095 0 54.2558 0 53.5295C0 43.1432 0 32.7569 0 22.3706C0 14.8169 4.97561 8.71581 12.3659 7.19055C13.1707 7.04529 13.9756 6.97266 14.7805 6.97266C22.6829 6.97266 30.5122 6.97266 38.4146 6.97266C39.9512 6.97266 41.0488 7.9895 41.0488 9.3695C41.0488 10.8221 40.0244 11.839 38.4146 11.839C30.8049 11.839 23.1951 11.839 15.5854 11.839C10.2439 11.839 6.07317 15.2527 5.12195 20.4821C5.04878 21.0632 5.04878 21.6442 5.04878 22.2253C5.04878 32.6842 5.12195 43.1432 4.97561 53.5295C4.90244 58.2506 8.34146 63.6253 15 64.0611C15.6585 64.1337 15.8781 63.6979 16.0976 63.2621C18.6585 58.8316 21.439 54.5463 24.5854 50.4063C27.8049 46.1937 31.4634 42.199 36 39.2211C38.7073 37.4779 41.561 36.1706 44.8537 35.7348C48.2927 35.2263 51.5854 35.8074 54.8049 37.1874C58.0244 38.64 60.8049 40.7463 63.3659 43.0706C63.5854 43.1432 63.7317 43.2885 64.0244 43.579ZM37.9024 64.1337C43.0244 64.1337 48.2195 64.2063 53.3415 64.1337C57.6585 64.0611 60.8781 62.2453 62.8537 58.3958C64.0244 56.1442 64.0244 53.6748 63.9512 51.2053C63.9512 50.9874 63.8049 50.7695 63.6585 50.6242C60.9512 47.5011 58.0244 44.5232 54.3659 42.4895C50.4146 40.2379 46.3171 39.7295 42 41.5453C38.8537 42.8527 36.2927 44.8863 33.9512 47.2106C29.122 52.0042 25.3171 57.5969 21.8049 63.4074C21.6585 63.6253 21.3659 63.8432 21.5122 64.0611C21.6585 64.279 21.9512 64.1337 22.1707 64.1337C27.5122 64.1337 32.7073 64.1337 37.9024 64.1337Z" fill="#729EFC"/>
<path d="M61.7565 8.42532C61.7565 8.86111 61.7565 9.15164 61.7565 9.44216C61.7565 15.5432 61.7565 21.7169 61.7565 27.818C61.7565 28.8348 61.3175 29.6337 60.3663 30.1422C59.4882 30.578 58.6102 30.5053 57.8053 29.9243C57.0736 29.4158 56.7809 28.6895 56.7809 27.818C56.7809 21.7169 56.7809 15.6158 56.7809 9.5148C56.7809 9.22427 56.7809 9.00637 56.7809 8.71585C56.4151 8.71585 56.3419 8.93374 56.1956 9.15164C54.3663 10.9674 52.6102 12.7106 50.7809 14.5264C49.976 15.2527 49.098 15.4706 48.0736 15.0348C47.1224 14.6716 46.6834 13.9453 46.537 13.0011C46.4638 12.2748 46.6834 11.5485 47.2687 11.0401C50.7077 7.62637 54.0736 4.21269 57.5126 0.871637C58.537 -0.217837 60.0004 -0.217837 61.0248 0.726374C64.4638 4.06743 67.8297 7.48111 71.2687 10.8948C72.2931 11.9116 72.2199 13.5095 71.2687 14.4537C70.3175 15.398 68.7809 15.3253 67.7565 14.3085C66.0004 12.5653 64.2443 10.8222 62.4151 9.07901C62.2687 8.86111 62.0492 8.71585 61.7565 8.42532Z" fill="#729EFC"/>
<path d="M30.5119 28.4716C30.5119 33.338 26.5607 37.2601 21.6583 37.3327C16.7558 37.3327 12.6583 33.338 12.7314 28.4716C12.8046 23.6053 16.829 19.6106 21.7314 19.6106C26.5607 19.6106 30.5119 23.6053 30.5119 28.4716ZM21.7314 24.6222C19.5363 24.6222 17.8534 26.2927 17.7802 28.4716C17.7802 30.6506 19.4631 32.3211 21.6583 32.3211C23.8534 32.3211 25.6095 30.6506 25.6095 28.4716C25.6095 26.2927 23.8534 24.6222 21.7314 24.6222Z" fill="#729EFC"/>
</svg>
