<svg width="104" height="95" viewBox="0 0 104 95" fill="none" xmlns="http://www.w3.org/2000/svg">
<path d="M22.7003 44C23.1003 44.2 23.4004 44.3 23.8004 44.3C24.7004 44.3 25.6004 43.8 26.0004 42.9C27.6004 39.6 29.4004 37.8 31.0004 37.8C32.6004 37.8 34.3004 39.6 36.0004 42.9C36.6004 44.1 38.1004 44.6 39.4004 44C40.6004 43.4 41.1004 41.9 40.5004 40.6C37.9004 35.4 34.7003 32.8 31.1003 32.8C27.4003 32.8 24.3003 35.4 21.7003 40.6C21.0003 41.9 21.5003 43.4 22.7003 44Z" fill="#729EFC"/>
<path d="M67.9004 42.9C69.5004 39.6 71.3004 37.8 72.9004 37.8C74.5004 37.8 76.2004 39.6 77.9004 42.9C78.3004 43.8 79.2003 44.3 80.1003 44.3C80.5003 44.3 80.9003 44.2 81.2003 44C82.4003 43.4 82.9004 41.9 82.3004 40.6C79.7004 35.4 76.5004 32.8 72.9004 32.8C69.3004 32.8 66.1003 35.4 63.5003 40.6C62.9003 41.8 63.4003 43.3 64.6003 44C65.8003 44.7 67.3004 44.2 67.9004 42.9Z" fill="#729EFC"/>
<path d="M90.4003 8.7L79.4003 6C71.6003 2.6 62.2002 0.699997 52.1002 0.699997C42.0002 0.699997 32.6003 2.5 24.8003 6L13.8003 8.7C5.80029 10.7 0.200195 17.8 0.200195 26.1V26.2C0.200195 32.9 3.60024 38.6 6.50024 42.2C7.10024 42.9 7.70024 43.5 8.50024 43.9V44V55C8.50024 56.4 9.60024 57.5 11.0002 57.5C12.4002 57.5 13.5002 56.4 13.5002 55V44.3C15.5002 43.7 17.0002 42.2 17.7002 40.3L24.8003 20V19.9V19.8C24.8003 19.8 25.4002 17.9 26.7002 17.9C28.1002 17.9 29.2002 16.8 29.2002 15.4C29.2002 14 28.1002 12.9 26.7002 12.9C22.7002 12.9 20.6002 16.3 20.0002 18.4L12.9003 38.7C12.6003 39.4 12.0003 39.6 11.8003 39.7C11.5003 39.7 10.9003 39.8 10.4003 39.2C8.00027 36.2 5.2002 31.5 5.2002 26.3V26C5.2002 20.1 9.30024 14.9 15.0002 13.5L26.2002 10.7L26.6002 10.6C33.7002 7.4 42.7002 5.7 52.0002 5.7C61.3002 5.7 70.3003 7.4 77.4003 10.6L89.0002 13.5C94.8002 14.9 98.8003 20.1 98.8003 26V26.1C98.8003 31.4 96.0002 36 93.6002 39C93.1002 39.6 92.5002 39.6 92.2002 39.5C91.9002 39.5 91.3002 39.3 91.1002 38.5L84.0002 18.2C83.4002 16.1 81.4003 12.7 77.3003 12.7C75.9003 12.7 74.8003 13.8 74.8003 15.2C74.8003 16.6 75.9003 17.7 77.3003 17.7C78.6003 17.7 79.2002 19.6 79.2002 19.6V19.7V19.8L86.3003 40.1C87.0003 42 88.4003 43.4 90.3003 44.1V55C90.3003 56.4 91.4003 57.5 92.8003 57.5C94.2003 57.5 95.3003 56.4 95.3003 55V44C96.1003 43.6 96.9002 43 97.5002 42.2C100.4 38.6 103.8 32.9 103.8 26.2V26C104 17.8 98.4003 10.7 90.4003 8.7Z" fill="#729EFC"/>
<path d="M80.0005 58.2C78.7005 57.9 77.4004 57.8 76.1004 57.9C75.9004 55.3 75.0005 52.8 73.3005 50.7C72.4005 49.6 70.9005 49.4 69.8005 50.3C68.7005 51.2 68.5005 52.7 69.4005 53.8C70.6005 55.3 71.2004 57 71.2004 58.9C71.2004 63.4 67.5005 67.1 63.0005 67.1C58.9005 67.1 55.6005 64.1 54.9005 60.3C57.2005 59.5 59.2005 57.9 59.9005 57.3C62.1005 55.5 63.0005 52.8 62.5005 50C62.0005 47.3 60.0005 45.2 57.4005 44.3C55.7005 43.8 54.0005 43.5 52.3005 43.5C50.5005 43.5 48.6005 43.8 46.8005 44.4C44.3005 45.2 42.5005 47.3 42.0005 49.9C41.5005 52.5 42.4005 55.2 44.4005 56.9C45.1005 57.5 47.3004 59.3 49.7004 60.1C49.0004 63.9 45.7004 66.9 41.6004 66.9C37.1004 66.9 33.4005 63.2 33.4005 58.7C33.4005 56.8 34.0004 55.1 35.2004 53.6C36.1004 52.5 35.9005 50.9 34.8005 50.1C33.7005 49.2 32.1005 49.4 31.3005 50.5C29.4005 52.9 28.5005 55.7 28.5005 58.7C28.5005 59.9 28.7005 61.1 29.0005 62.2C27.5005 62 26.2004 61.8 25.1004 61.6L24.2004 61.5C23.4004 61.4 22.7005 61.3 21.9005 61.2C19.4005 60.9 17.5004 62.4 17.2004 64.9C16.9004 66.7 16.7005 68.5 16.4005 70.4C16.1005 72.9 17.5005 74.8 20.0005 75.2L20.5005 75.3C20.7005 75.3 20.9005 75.4 21.0005 75.4C21.0005 75.7 20.9005 75.9 20.9005 76.2L20.7004 77.8C20.6004 78.5 20.6005 79.2 20.8005 79.9L20.9005 80.4L22.0005 81.9L22.4005 82.1C23.0005 82.5 23.6005 82.7 24.4005 82.8L29.7004 83.5C32.3004 83.9 34.2004 82.4 34.6004 79.8L34.7004 78.9C34.8004 78.4 34.9005 77.8 34.9005 77.3C37.1005 77.6 40.5005 78.2 44.0005 78.7C49.4005 79.5 55.5004 80.5 58.6004 80.9C59.3004 83.9 60.8005 86.5 62.9005 88.8C66.2005 92.4 70.4004 94.4 75.2004 94.8C75.7004 94.8 76.2004 94.9 76.7004 94.9C81.5004 94.9 85.7005 93.2 89.3005 89.9C92.2005 87.2 94.1005 83.8 94.8005 79.8C95.7005 75 94.8004 70.5 92.2004 66.4C89.2004 62 85.1005 59.3 80.0005 58.2ZM73.3005 72C74.2005 71.3 75.3005 71 76.4005 71C76.7005 71 77.0005 71 77.3005 71.1C78.8005 71.4 80.0005 72.2 80.9005 73.4C82.5005 75.7 81.9004 79.1 79.7004 80.7C78.6004 81.6 77.1004 81.9 75.7004 81.7C74.2004 81.5 72.9005 80.6 72.0005 79.4C70.3005 77.1 70.9005 73.7 73.3005 72ZM47.4005 53.3C46.8005 52.7 46.5004 51.9 46.6004 51C46.7004 50.6 47.0004 49.6 48.1004 49.3C49.4004 48.9 50.7005 48.6 52.0005 48.6C53.2005 48.6 54.4004 48.8 55.6004 49.2C56.9004 49.6 57.2005 50.6 57.3005 51.1C57.4005 51.5 57.5005 52.6 56.4005 53.5C54.6005 55 52.8005 55.8 52.0005 55.8C51.2005 55.8 49.3005 54.9 47.4005 53.3ZM89.7004 78.9C89.2004 81.8 87.8004 84.3 85.7004 86.2C82.7004 88.9 79.4005 90.1 75.4005 89.8C71.8005 89.5 68.9005 88.1 66.4005 85.4C64.7005 83.5 63.6004 81.3 63.1004 78.9C62.8004 77.3 61.8004 76.3 60.2004 76.1C57.8004 75.8 50.8004 74.7 44.6004 73.7C39.9004 73 35.4004 72.3 33.6004 72C33.4004 72 33.2005 72 33.0005 72C32.3005 72 31.7004 72.2 31.2004 72.6C30.5004 73.1 30.2004 73.8 30.1004 74.8C30.0004 75.9 29.8004 77.1 29.6004 78.2V78.5L27.9005 78.3C27.1005 78.2 26.4004 78.1 25.6004 78L25.7004 77C25.8004 76.1 25.9004 75.2 26.1004 74.3C26.2004 73.4 26.1004 72.6 25.6004 71.9C25.3004 71.5 24.6005 70.9 23.5005 70.8C22.8005 70.7 22.1005 70.6 21.4005 70.5C21.6005 69.2 21.8005 67.8 22.0005 66.5C22.5005 66.6 23.0005 66.6 23.5005 66.7L24.4005 66.8C26.2005 67.1 28.9005 67.4 32.0005 67.9C34.4005 70.5 37.8004 72.1 41.7004 72.1C46.1004 72.1 50.0005 69.9 52.4005 66.6C54.8005 69.9 58.7004 72.1 63.1004 72.1C64.7004 72.1 66.2004 71.8 67.6004 71.3C65.7004 74.6 65.7005 78.9 68.0005 82.2C69.6005 84.6 72.2005 86.2 75.0005 86.6C75.6005 86.7 76.1004 86.7 76.7004 86.7C78.9004 86.7 81.0005 86 82.8005 84.6C87.2005 81.4 88.3004 74.9 85.2004 70.4C83.6004 68.1 81.2005 66.5 78.4005 66C76.9005 65.7 75.4005 65.8 74.0005 66.2C74.7005 65.1 75.3004 64 75.7004 62.7C76.9004 62.6 78.1005 62.7 79.3005 62.9C83.1005 63.7 86.0004 65.6 88.1004 68.9C89.7004 72.1 90.3004 75.4 89.7004 78.9Z" fill="#729EFC"/>
</svg>
