<svg width="21" height="17" viewBox="0 0 21 17" fill="none" xmlns="http://www.w3.org/2000/svg">
<path d="M19.5303 9.09985L19.5153 9.11844L19.5022 9.13837C19.2141 9.57704 18.8651 9.86791 18.4135 10.0137C17.653 10.2593 16.9557 9.92335 16.6646 9.18309L16.6647 9.18308L16.6627 9.17817C16.2262 8.10186 16.71 6.6718 17.7192 6.04616C18.1908 5.75374 18.674 5.73719 19.07 5.90159C19.4696 6.0675 19.8165 6.43338 19.9708 6.97523L19.9845 7.02325L19.9988 7.05108C19.9991 7.05457 19.9993 7.05915 19.9995 7.06505C20 7.07906 20 7.0944 20 7.11915V7.1208V7.12244V7.12409V7.12573V7.12738V7.12903V7.13067V7.13232V7.13396V7.13561V7.13725V7.1389V7.14055V7.14219V7.14384V7.14548V7.14713V7.14877V7.15042V7.15207V7.15371V7.15536V7.157V7.15865V7.16029V7.16194V7.16359V7.16523V7.16688V7.16852V7.17017V7.17181V7.17346V7.17511V7.17675V7.1784V7.18004V7.18169V7.18333V7.18498V7.18663V7.18827V7.18992V7.19156V7.19321V7.19485V7.1965V7.19814V7.19979V7.20144V7.20308V7.20473V7.20637V7.20802V7.20966V7.21131V7.21296V7.2146V7.21625V7.21789V7.21954V7.22118V7.22283V7.22448V7.22612V7.22777V7.22941V7.23106V7.2327V7.23435V7.236V7.23764V7.23929V7.24093V7.24258V7.24422V7.24587V7.24752V7.24916V7.25081V7.25245V7.2541V7.25574V7.25739V7.25904V7.26068V7.26233V7.26397V7.26562V7.26726V7.26891V7.27056V7.2722V7.27385V7.27549V7.27714V7.27878V7.28043V7.28208V7.28372V7.28537V7.28701V7.28866V7.2903V7.29195V7.2936V7.29524V7.29689V7.29853V7.30018V7.30182V7.30347V7.30512V7.30676V7.30841V7.31005V7.3117V7.31334V7.31499V7.31664V7.31828V7.31993V7.32157V7.32322V7.32486V7.32651V7.32816V7.3298V7.33145V7.33309V7.33474V7.33638V7.33803V7.33967V7.34132V7.34297V7.34461V7.34626V7.3479V7.34955V7.35119V7.35284V7.35449V7.35613V7.35778V7.35942V7.36107V7.36271V7.36436V7.36601V7.36765V7.3693V7.37094V7.37259V7.37423V7.37588V7.37753V7.37917V7.38082V7.38246V7.38411V7.38575V7.3874V7.38905V7.39069V7.39234V7.39398V7.39563V7.39727V7.39892V7.40057V7.40221V7.40386V7.4055V7.40715V7.40879V7.41044V7.41209V7.41373V7.41538V7.41702V7.41867V7.42031V7.42196V7.42361V7.42525V7.4269V7.42854V7.43019V7.43183V7.43348V7.43513V7.43677V7.43842V7.44006V7.44171V7.44335V7.445V7.44665V7.44829V7.44994V7.45158V7.45323V7.45487V7.45652V7.45817V7.45981V7.46146V7.4631V7.46475V7.46639V7.46804V7.46969V7.47133V7.47298V7.47462V7.47627V7.47791V7.47956V7.4812V7.48285V7.4845V7.48614V7.48779V7.48943V7.49108V7.49272V7.49437V7.49602V7.49766V7.49931V7.50095V7.5026V7.50424V7.50589V7.50754V7.50918V7.51083V7.51247V7.51412V7.51576V7.51741V7.51906V7.5207V7.52235V7.52399V7.52564V7.52728V7.52893V7.53058V7.53222V7.53387V7.53551V7.53716V7.5388V7.54045V7.5421V7.54374V7.54539V7.54703V7.54868V7.55032V7.55197V7.55362V7.55526V7.55691V7.55855V7.5602V7.56184V7.56349V7.56514V7.56678V7.56843V7.57007V7.57172V7.57336V7.57501V7.57666V7.5783V7.57995V7.58159V7.58324V7.58488V7.58653V7.58818V7.58982V7.59147V7.59311V7.59476V7.5964V7.59805V7.5997V7.60134V7.60299V7.60463V7.60628V7.60792V7.60957V7.61122V7.61286V7.61451V7.61615V7.6178V7.61944V7.62109V7.62274V7.62438V7.62603V7.62767V7.62932V7.63096V7.63261V7.63425V7.6359V7.63755V7.63919V7.64084V7.64248V7.64413V7.64577V7.64742V7.64907V7.65071V7.65236V7.654V7.65565V7.65729V7.65894V7.66059V7.66223V7.66388V7.66552V7.66717V7.66881V7.67046V7.67211V7.67375V7.6754V7.67704V7.67869V7.68033V7.68198V7.68363V7.68527V7.68692V7.68856V7.69021V7.69185V7.6935V7.69515V7.69679V7.69844V7.70008V7.70173V7.70337V7.70502V7.70667V7.70831V7.70996V7.7116V7.71325V7.71489V7.71654V7.71819V7.71983V7.72148V7.72312V7.72477V7.72641V7.72806V7.72971V7.73135V7.733V7.73464V7.73629V7.73793V7.73958V7.74123V7.74287V7.74452V7.74616V7.74781V7.74945V7.7511V7.75275V7.75439V7.75604V7.75768V7.75933V7.76097V7.76262V7.76427V7.76591V7.76756V7.7692V7.77085V7.77249V7.77414V7.77578V7.77743V7.77908V7.78072V7.78237V7.78401V7.78566V7.7873V7.78895V7.7906V7.79224V7.79389V7.79553V7.79718V7.79882V7.80047V7.80212V7.80376V7.80541V7.80705V7.8087V7.81034V7.81199V7.81364V7.81528V7.81693V7.81857V7.82022V7.82186V7.82351V7.82516V7.8268V7.82845V7.83009V7.83174V7.83338V7.83503V7.83668V7.83832V7.83997V7.84161V7.84326V7.8449V7.84655V7.8482V7.84984V7.85149V7.85313V7.85478V7.85642V7.85807V7.85972V7.86136V7.86301V7.86465V7.8663V7.86794V7.86959V7.87124V7.87288V7.87453V7.87617V7.87782V7.87946V7.88111V7.88276V7.8844V7.88605V7.88769V7.88934V7.89098V7.89263V7.89427V7.89592V7.89757V7.89921V7.90086V7.9025V7.90415V7.90579V7.90744V7.90909V7.91073V7.91238V7.91402V7.91449C19.9079 8.38937 19.7809 8.78767 19.5303 9.09985Z" stroke="black"/>
<path d="M12.3262 16.083L12.3136 16.0807L12.3009 16.0791C12.1297 16.057 11.9599 16.0291 11.7825 15.9998L11.7584 15.9958C11.591 15.968 11.416 15.939 11.24 15.9155C10.8734 15.8666 10.4791 15.8377 10.0603 15.8901C9.59017 15.9261 9.10634 16.0134 8.67236 16.0916C8.50446 16.1219 8.34402 16.1509 8.19473 16.175L8.19471 16.1749L8.18507 16.1766C7.43345 16.3132 6.71023 16.3989 5.99989 16.3576C5.60297 16.3094 5.3212 16.2679 5.08568 16.1375L5.07941 16.134L5.07303 16.1307C4.54155 15.8562 4.32081 15.4317 4.27982 14.8172C4.23758 13.6729 4.58653 12.5478 5.13904 11.4753C5.73184 10.4174 6.50208 9.54156 7.49757 8.83983C8.43116 8.19428 9.4406 7.8552 10.5838 7.85322C11.6409 7.89779 12.6068 8.23898 13.4444 8.83682L13.4444 8.83684L13.4482 8.83955C15.0886 9.98721 16.1284 11.5218 16.5829 13.4149L16.5828 13.4149L16.585 13.4231C16.716 13.9307 16.7553 14.4667 16.673 14.9454L16.6717 14.9529L16.6706 14.9605C16.6118 15.3785 16.4517 15.6778 16.2268 15.8874C15.9989 16.0998 15.6685 16.2535 15.2157 16.3133L15.2008 16.3153L15.1861 16.3181C14.9992 16.3543 14.8055 16.3558 14.5563 16.3558C13.8359 16.3558 13.1075 16.2249 12.3262 16.083Z" stroke="black"/>
<path d="M6.0964 1.35503L6.09644 1.35506L6.1009 1.34959C6.69188 0.624429 7.58737 0.435657 8.31307 0.857462L8.32181 0.862539L8.33074 0.867258C8.74663 1.08701 9.06534 1.46255 9.27113 1.90084C9.87841 3.2038 9.83637 4.43282 9.10243 5.69087C8.85905 6.08198 8.54843 6.37776 8.12937 6.56431C7.49698 6.81298 6.79939 6.66903 6.31588 6.1646L6.31589 6.16459L6.31293 6.16156C5.59425 5.42441 5.34351 4.61925 5.34351 3.74875C5.34351 2.75183 5.56489 1.98873 6.0964 1.35503Z" stroke="black"/>
<path d="M14.0645 6.5029L14.0485 6.50806L14.0329 6.51429C13.4124 6.7618 12.8723 6.64137 12.3039 6.21074C11.8354 5.83011 11.5423 5.28428 11.367 4.64976C11.1072 3.63973 11.1967 2.69885 11.7062 1.79396L11.7106 1.78604L11.7148 1.77797C11.9284 1.36414 12.2008 1.04503 12.5515 0.87517L12.5703 0.86607L12.5883 0.855435C13.2326 0.473995 14.0077 0.585451 14.6492 1.16445C15.1761 1.6774 15.4237 2.26365 15.5093 3.00994L15.5173 3.07928L15.5439 3.1438C15.5972 3.2727 15.6027 3.40869 15.6027 3.65513C15.6027 4.49794 15.388 5.2283 14.8859 5.87683C14.638 6.19703 14.3771 6.40197 14.0645 6.5029Z" stroke="black"/>
<path d="M4.33161 9.13199L4.3316 9.13199L4.3305 9.13475C4.14028 9.61387 3.80185 9.91039 3.42747 10.0313C3.05286 10.1522 2.60213 10.1102 2.16293 9.83277L2.16142 9.83182C1.49297 9.41282 1.16663 8.81132 1.0376 7.98301C0.949719 7.34051 1.00801 6.83366 1.29299 6.41957L1.29308 6.41964L1.299 6.41064C1.5889 5.96932 1.93797 5.79352 2.13748 5.79352C2.88721 5.79352 3.25464 5.98445 3.59852 6.2804C3.96639 6.59951 4.24628 7.08813 4.38299 7.62806C4.52008 8.16946 4.50088 8.71293 4.33161 9.13199Z" stroke="black"/>
</svg>
